<svg xmlns="http://www.w3.org/2000/svg" width="371.527" height="352.524" viewBox="0 0 371.527 352.524">
  <g id="vector_flower" transform="translate(-91.325 -388.027)">
    <path id="패스_7795" data-name="패스 7795" d="M176.59,454.181c-1.739-.213-3.714.621-5.441,1.311-11.954,4.769-15.105,15.214-16.344,26.487-.514,4.678.473,9.479-.565,14.238-1.5,6.885.712,12.13,7.259,15.4,2.113,1.055,3.869,2.8,5.863,4.115,14.267,9.406,28.974,4.914,34.577-11.01,2.2-6.247,2.99-12.99,4.424-19.505C207.5,471.773,196.6,456.649,176.59,454.181Z" transform="translate(88.383 93.554)" fill="#fffdfd"/>
    <path id="패스_7796" data-name="패스 7796" d="M459.212,587.47c-.84-4.415-2.082-8.626-5.844-11.563l0,0,.01-.034c-.051-2.429-.869-4.4-3.207-5.5h0v-.065c-.761-1.135-1.7-2.12-2.565-3.173-4.593-4.8-8.8-10.058-13.886-14.267-4.719-3.91-9.841-7.385-16.018-9.29-11.367-3.5-11.906-6.112-4.417-15.854.874-1.14,1.9-2.161,2.8-3.279,8.411-10.469,10.821-22.8,12.591-35.813,1.666-12.275-3.347-21.2-10.406-29.834a51.884,51.884,0,0,0-15.545-12.635,22.764,22.764,0,0,0-6.619-2.557c-18.829-3.451-37.7-7.568-56.388.753a8.147,8.147,0,0,1-2.816.415c-8.365.442-15.579,4.057-22.69,8.059-2.828,1.589-5.569,3.9-9.24,2.582-10.821-29.955-14.021-35.427-27.788-47.523l-2.963-2.572,0,0-.041-.044c-5.554-8.464-14.077-11.961-23.454-14.023l0,0,0,0a54.584,54.584,0,0,0-22.526-3.132c-7.225.353-14.282,1.789-20.377,5.871-14.924,9.988-22.154,24.142-23.157,42.058-.493,8.79,2.466,16.97,2.8,25.518a52.11,52.11,0,0,0,5.883,21.908c.225,2.357.258,4.753.708,7.066,1.775,9.143,1.6,9.462-7.759,9.971-4.267.234-8.544.312-12.818.473a8.879,8.879,0,0,0-6.392,2.635h0l-.022-.087a42.712,42.712,0,0,0-28.979,11.514l0,0-.1-.039c-7.957,4.972-16,9.807-23.818,14.994a11.778,11.778,0,0,0-5.129,8.264l0,0c-12.56,14.943-18.3,32.142-17.646,51.677a32,32,0,0,0,9.722,21.865,74.156,74.156,0,0,0,23.321,16.5c12.724,5.513,26.709,6.936,39.2,13.057,2.454,1.2,5.632.954,8.484,1.309,9.474,1.183,18.969,2.2,28.416,3.56,4.453.64,6.542,3.533,6.619,8.042a6.9,6.9,0,0,1-.1,2.852c-3.267,6.909-1.422,14.328-1.367,21.314.072,9.4,1.311,19.138,7.332,27.288,5.047,6.832,9.409,14.265,15.1,20.491,3.1,3.391,6,7.455,10.635,9.5,18.962,8.348,40.339,5.583,52.377-6.049,9.527-9.2,19.322-18.74,23.835-31.928,5.953-4.475,7.964-10.739,8.114-17.851l0,0h0c2.045-2.825,2.712-6.04,3.036-9.464.5-5.269,1.816-10.329,4.883-14.562.768-.15,1.328-.454,1.7-.3,4.4,1.84,8.822,3.646,13.147,5.653,23.268,10.8,46.828,12.992,71.165,3.415,10.053-3.956,18.274-10.377,26.318-17.167,4.861-4.1,6.387-10.536,9.954-15.656,7.9-11.345,9.643-24.823,9.594-38.436A7.11,7.11,0,0,0,459.212,587.47ZM189.353,543.035c-4.526,4.472-10.246,6.984-15.96,9.418-16.146,6.878-30.319,16.069-38.815,32.181a3.3,3.3,0,0,1-2.21,1.434c-1.843.241-2.4-1.314-2.591-2.685-1.273-9.206,1.372-17.013,8.5-23.164,2.883-2.49,5.74-5.006,8.609-7.513.024-.014.043-.039.068-.056,1.1-.734,1.908-1.811,2.99-2.572l.019-.019.012.053v0h0a6.851,6.851,0,0,0,5.694-2.961l-.014-.007h0c2.413-.034,4.441-.78,5.639-3.06l.041-.019.01-.01a22.473,22.473,0,0,0,2.934-2.777c7.4-1.886,14.774-4.016,22.495-3.919a5.5,5.5,0,0,1,3.555,2.016C191.391,540.669,190.372,542.031,189.353,543.035Zm105.394,35.736c-1.435,6.515-2.229,13.255-4.424,19.5-5.6,15.926-20.309,20.418-34.577,11.012-1.995-1.314-3.75-3.06-5.863-4.115-6.547-3.27-8.759-8.515-7.259-15.4,1.038-4.76.051-9.563.563-14.238,1.241-11.273,4.393-21.717,16.347-26.487,1.729-.691,3.7-1.524,5.441-1.311C284.986,550.2,295.882,565.327,294.747,578.771Zm85.094-87.934a65.1,65.1,0,0,1-4.325,10.556c-1.084,2.125-3.048,4.042-5.518,4.255a179.483,179.483,0,0,0-31.046,5.494c-4.151-2.263-10.906,1.464-12.727-3.695-1.333-3.777,3.62-7.865,6.762-10.21,8.706-6.5,17.339-13.755,29.742-11.683,3.6.6,7.527-.99,11.326-1.227C377.6,484.107,380.809,487.661,379.841,490.837Z" transform="translate(0)" fill="#ff847c"/>
  </g>
</svg>
