<svg xmlns="http://www.w3.org/2000/svg" width="432.086" height="400.594" viewBox="0 0 432.086 400.594">
  <g id="vector_rainbow" transform="translate(-966.018 -692.893)">
    <path id="패스_7791" data-name="패스 7791" d="M1039.366,861.782c1.112-5.937,2.12-12.152,4.693-17.511,11.281-23.494,28.624-41.714,50.208-56.15,10.673-7.141,21.4-11.394,33.906-4.641,2.066,1.115,4.623,1.43,7,1.83,19.347,3.23,33.234,14.107,42.361,31.044,3.5,6.505,8.085,12.02,12.418,17.862,7.544,10.166,16.906,19.748,19.044,32.678,2.2,13.3,7.706,25.565,10.306,38.627,3.581,17.966,15.381,28.177,31.334,34.826,4.556,1.9,9.136,3.444,14.009,1.021,4.736-2.353,7.187-6.34,8.161-11.391.923-5.375,2.066-10.725,2.692-16.133.422-3.645.071-7.541-2.371-10.462-6.542-7.819-8.069-17.52-10.737-26.845-4.541-15.876-12.136-30.365-19.4-45.151-7.877-16.035-18.183-30.045-28.908-43.965-15.944-20.7-34.726-37.365-61.4-42.691a35.281,35.281,0,0,1-8.693-2.756c-16.331-8.073-33.213-4.2-49.99-2.5a10.163,10.163,0,0,0-5.155,1.684c-12.644,10.193-29.913,13.789-39.727,28.089a45.061,45.061,0,0,1-8.864,9.185c-15.283,12.4-22.867,29.754-30.387,47.088-2.157,4.968-4.266,10.48-4.305,15.757-.153,19.7-6.239,38.334-9.344,57.486-3.339,20.615-2.8,41.182-.562,61.8.455,4.214,2.084,8.424,1.861,12.564-.461,8.464,3.3,15.247,7.186,22.125v0c1.784,1.87,4.146,3.4,5.818.691,1.118-1.809-.229-5.173.92-6.93,8.121-12.4,8.149-26.387,8.665-40.363a137.212,137.212,0,0,1,7.477-41.078C1032.944,892.587,1036.448,877.312,1039.366,861.782Z" transform="translate(57.218 90.743)" fill="#31a0d3"/>
    <path id="패스_7792" data-name="패스 7792" d="M1353.276,896.777c-1.448-6.5-2.4-13.3-5.093-19.286a107.852,107.852,0,0,1-8.195-25.932c-2.512-14.535-9.647-27.374-14.538-41-3.416-9.509-9.307-18.516-15.675-26.479-9.472-11.846-19.586-23.136-28.006-35.835a36.308,36.308,0,0,0-23.408-16.1,40.38,40.38,0,0,1-11.852-4.455c-19.58-11.455-40.925-14.058-63.1-14.049-11.62.006-22.913,2.863-34.356,2.961-18.559.162-34.307,8.146-48.933,17.591-13.1,8.46-24.285,19.9-36.311,30.023-4.727,1.149-8.292,3.691-10.074,8.384h.006v0l-.22.2c-6.163,2.723-10.435,7.07-11.883,13.841l0,.006c-11.467,11.965-18.391,26.983-27,40.821-7.712,12.387-13.251,25.581-14.226,40.785-.538,8.405-1.708,16.832-1.629,25.311.131,13.976-.26,27.915-4.281,41.423-2.456,8.24-3.123,16.607-3.5,25.128-.843,18.932-4.29,37.265-14.165,53.859-.04.327-.083.651-.122.978q-.449,3.488-.9,6.976h0c1.247,3.254,2.744,6.435,3.691,9.775,2.071,7.315,7.2,10.22,14.29,10.257a71.845,71.845,0,0,0,8.614-.95V1041l0,0c-7.7-9.466-6.184-20.212-4.235-31.013.4-8.732-.923-17.7,3.535-25.874,2.307-8.118,3.822-16.588,7.2-24.233,2.166-4.9.785-9.444,1.194-14.012,2.557-28.642,12.051-55.347,21.517-82.106-.241-6.007,1.573-11.159,6.239-15.119-.263-3.331.229-6.307,3.712-7.9.5-3.7.764-7.51,4.134-10.034a9.31,9.31,0,0,1,3.67-7.357c.061-5.225,2.79-8.733,7.208-11.146,1.378-2,2.389-4.443,4.186-5.94,22.95-19.133,46.538-37.524,75.962-45.56,19.906-5.435,40.274-8.473,61.158-6.205,15.983,1.732,29.109,8.433,39.131,20.859,15.241,18.9,30.427,37.857,45.218,57.11,9.719,12.65,17.407,27.035,21.633,42.065,5.738,20.4,13.27,40.516,15.326,61.858.871,9.06,1.25,18.165,1.855,27.264v.012l.006,0c4.3,5.995,9.157,10.474,17.526,9.548,7.8-.865,13.093-4.956,17.19-11.079a76.054,76.054,0,0,0,4.07-7.846v0C1359.167,934.949,1357.5,915.708,1353.276,896.777Z" transform="translate(20.125 42.652)" fill="#ffb200"/>
    <path id="패스_7793" data-name="패스 7793" d="M1396.687,964.508c-1.409-1.638-1.491-4.586-1.8-6.985-4.629-35.773-20.97-68.36-28.138-103.44a20.812,20.812,0,0,0-1.2-3.44c-7.3-18.091-17.1-34.838-27.05-51.555-8.2-13.771-19.879-24.422-30.463-36.079a13.6,13.6,0,0,0-8.329-9.857c-4.131-4.439-8.128-9.01-12.411-13.3-12.986-12.989-27.111-24.377-44.357-31.386-6.747-2.741-13.734-5.167-19.958-8.84-8.827-5.207-18.482-6.249-28.125-6.633-10.3-.412-20.667.507-30.986,1.161a43.951,43.951,0,0,0-10.63,2.218c-9.829,3.19-19.656,6.432-29.329,10.059-19.1,7.162-35.844,18.009-49.055,33.668-14.9,17.661-29.693,35.431-43.935,53.62A442.1,442.1,0,0,0,999.051,840.4c-7.886,13.273-10.929,28.4-17.706,41.945-4.99,9.982-3.831,21.342-8.821,31.205-1.543,3.049-.81,7.187-1.488,10.755-4.107,21.648-2.615,43.708-4.873,65.494a27.369,27.369,0,0,0,1.045,10.822c4.256,13.4,4.51,27.475,7.315,41.105-.425,4.217-.251,8.25,3.327,11.281l0,.006-.046.028h0v0c1.775,10.557,10.156,10.734,18.131,11.537q.444-3.488.9-6.976c.04-.327.083-.651.122-.978,9.875-16.594,13.322-34.927,14.165-53.859.376-8.522,1.042-16.888,3.5-25.128,4.021-13.508,4.412-27.447,4.281-41.423-.08-8.479,1.091-16.906,1.629-25.311.975-15.2,6.514-28.4,14.226-40.785,8.613-13.838,15.537-28.856,27-40.821l0-.006c1.448-6.771,5.72-11.119,11.883-13.841l.22-.2v0h-.006c1.781-4.693,5.347-7.235,10.074-8.384,12.026-10.123,23.209-21.563,36.311-30.023,14.626-9.444,30.374-17.428,48.933-17.59,11.443-.1,22.736-2.955,34.356-2.961,22.18-.009,43.525,2.594,63.1,14.049a40.386,40.386,0,0,0,11.852,4.455,36.308,36.308,0,0,1,23.408,16.1c8.421,12.7,18.535,23.989,28.007,35.835,6.368,7.963,12.259,16.97,15.675,26.479,4.892,13.621,12.027,26.46,14.538,41a107.846,107.846,0,0,0,8.195,25.932c2.692,5.983,3.645,12.784,5.093,19.286,4.219,18.932,5.891,38.172,6.566,57.519v0c7.645.171,12.164-4.705,16.258-10.175.672-.9,1.476-2.9,1.219-3.1C1389.62,977.61,1402.119,970.815,1396.687,964.508Z" transform="translate(0 0)" fill="#d24245"/>
    <path id="패스_7794" data-name="패스 7794" d="M1305.214,909.419c-2.056-21.343-9.588-41.46-15.326-61.858-4.226-15.03-11.914-29.415-21.633-42.065-14.792-19.252-29.977-38.208-45.218-57.11-10.022-12.427-23.148-19.127-39.131-20.86-20.884-2.267-41.252.77-61.158,6.206-29.424,8.036-53.012,26.427-75.962,45.56-1.8,1.5-2.808,3.939-4.186,5.94h0c-4.418,2.414-7.147,5.921-7.208,11.146a9.31,9.31,0,0,0-3.67,7.357c-3.37,2.524-3.633,6.331-4.134,10.034-3.483,1.589-3.975,4.565-3.712,7.9-4.666,3.96-6.481,9.111-6.239,15.119-9.466,26.76-18.959,53.464-21.517,82.106-.409,4.568.972,9.115-1.195,14.012-3.38,7.645-4.895,16.115-7.2,24.233-4.458,8.177-3.135,17.141-3.535,25.874h0c-1.949,10.8-3.468,21.547,4.235,31.013l0,0c12.008,11.534,16.839,12.338,31.187,5.432,2.625-1.265,5.463-2.078,8.21-3.1v0c-3.89-6.878-7.648-13.664-7.186-22.125.223-4.14-1.406-8.351-1.861-12.567-2.234-20.612-2.777-41.179.562-61.794,3.1-19.152,9.191-37.787,9.341-57.486.043-5.277,2.151-10.789,4.308-15.757,7.519-17.334,15.1-34.683,30.386-47.088a45.065,45.065,0,0,0,8.864-9.185c9.814-14.3,27.084-17.9,39.727-28.089a10.163,10.163,0,0,1,5.155-1.684c16.775-1.7,33.659-5.57,49.99,2.5a35.288,35.288,0,0,0,8.693,2.756c26.674,5.326,45.456,21.993,61.4,42.691,10.721,13.921,21.025,27.93,28.9,43.965,7.263,14.785,14.859,29.274,19.4,45.151,2.667,9.325,4.2,19.023,10.737,26.845,2.441,2.921,2.793,6.817,2.371,10.462-.626,5.408-1.766,10.758-2.692,16.133,7.7-1.708,9.622-7.889,11.147-14.394v-.012C1306.464,927.584,1306.085,918.478,1305.214,909.419Z" transform="translate(34.106 69.63)" fill="#4fc2f6"/>
  </g>
</svg>
