<svg xmlns="http://www.w3.org/2000/svg" width="45" height="45" viewBox="0 0 45 45">
  <path id="빼기_8" data-name="빼기 8" d="M22.5,45A22.5,22.5,0,0,1,6.59,6.59,22.5,22.5,0,1,1,38.41,38.41,22.353,22.353,0,0,1,22.5,45ZM17.408,10.6a6.992,6.992,0,0,0-6.985,6.983v10.23A6.991,6.991,0,0,0,17.408,34.8h10.23a6.991,6.991,0,0,0,6.984-6.982V17.585A6.991,6.991,0,0,0,27.638,10.6ZM27.757,32.634H17.286A4.643,4.643,0,0,1,12.649,28V17.527a4.642,4.642,0,0,1,4.637-4.637H27.757a4.642,4.642,0,0,1,4.637,4.637V28A4.643,4.643,0,0,1,27.757,32.634ZM22.522,16.42A6.279,6.279,0,1,0,28.8,22.7,6.286,6.286,0,0,0,22.522,16.42Zm0,10.349A4.071,4.071,0,1,1,26.592,22.7,4.074,4.074,0,0,1,22.522,26.77Zm0-5.533A1.463,1.463,0,1,0,23.985,22.7,1.465,1.465,0,0,0,22.522,21.236Z" fill="#fff"/>
</svg>
