<svg xmlns="http://www.w3.org/2000/svg" width="45" height="45" viewBox="0 0 45 45">
  <g id="sns-youtube_b" transform="translate(-1783 -4575)">
    <circle id="타원_378" data-name="타원 378" cx="22.5" cy="22.5" r="22.5" transform="translate(1783 4575)" fill="#3a64f9"/>
    <path id="패스_8116" data-name="패스 8116" d="M1529.94,711.887a2.881,2.881,0,0,0-2.034-2.033c-1.794-.481-8.987-.481-8.987-.481s-7.194,0-8.988.481a2.881,2.881,0,0,0-2.034,2.033,32.144,32.144,0,0,0,0,11.074,2.882,2.882,0,0,0,2.034,2.034c1.794.481,8.988.481,8.988.481s7.193,0,8.987-.481a2.882,2.882,0,0,0,2.034-2.034,32.12,32.12,0,0,0,0-11.074Zm-14.009,8.987v-6.9l5.977,3.45Z" transform="translate(286.604 3880.275)" fill="#fff"/>
  </g>
</svg>
