<svg id="sns-facebook_r_" data-name="sns-facebook(r)" xmlns="http://www.w3.org/2000/svg" width="45.045" height="45.045" viewBox="0 0 45.045 45.045">
  <path id="패스_1559" data-name="패스 1559" d="M1271.75,712.151a22.523,22.523,0,1,1,22.522-22.523A22.547,22.547,0,0,1,1271.75,712.151Zm0-43.333a20.811,20.811,0,1,0,20.811,20.811A20.834,20.834,0,0,0,1271.75,668.818Z" transform="translate(-1249.228 -667.106)" fill="#cb0023"/>
  <path id="패스_1560" data-name="패스 1560" d="M1303.748,720.585V708.393h4.092l.611-4.751h-4.7v-3.033c0-1.377.382-2.314,2.354-2.314l2.517,0v-4.248a33.575,33.575,0,0,0-3.668-.188c-3.625,0-6.11,2.214-6.11,6.281v3.5h-4.1v4.751h4.1v12.191Z" transform="translate(-1279.157 -684.698)" fill="#cb0023"/>
</svg>
