<svg xmlns="http://www.w3.org/2000/svg" width="45" height="45" viewBox="0 0 45 45">
  <g id="sns-instagram_b" transform="translate(-1838 -4575)">
    <circle id="타원_374" data-name="타원 374" cx="22.5" cy="22.5" r="22.5" transform="translate(1838 4575)" fill="#3a64f9"/>
    <path id="패스_8120" data-name="패스 8120" d="M1726.75,697.554h-10.231a6.984,6.984,0,0,0-6.985,6.984v10.229a6.982,6.982,0,0,0,6.985,6.983h10.231a6.98,6.98,0,0,0,6.984-6.983V704.538a6.982,6.982,0,0,0-6.984-6.984m4.755,17.394a4.639,4.639,0,0,1-4.637,4.638H1716.4a4.641,4.641,0,0,1-4.637-4.638V704.479a4.639,4.639,0,0,1,4.637-4.637h10.47a4.637,4.637,0,0,1,4.637,4.637Z" transform="translate(138.889 3888.048)" fill="#fff"/>
    <path id="패스_8124" data-name="패스 8124" d="M1732.811,714.551a6.279,6.279,0,1,0,6.281,6.28,6.279,6.279,0,0,0-6.281-6.28m0,10.349a4.071,4.071,0,1,1,4.071-4.069,4.07,4.07,0,0,1-4.071,4.069" transform="translate(127.71 3876.87)" fill="#fff"/>
  </g>
</svg>
