<svg xmlns="http://www.w3.org/2000/svg" width="45" height="45" viewBox="0 0 45 45">
  <path id="빼기_10" data-name="빼기 10" d="M22.5,45A22.5,22.5,0,0,1,6.59,6.59,22.5,22.5,0,1,1,38.41,38.41,22.353,22.353,0,0,1,22.5,45Zm.022-34.556c-7.325,0-13.285,4.719-13.285,10.52,0,3.569,2.258,6.865,6.041,8.818l-1,5.172L20.021,31.3a16.923,16.923,0,0,0,2.5.189c7.325,0,13.285-4.72,13.285-10.521S29.848,10.444,22.522,10.444Zm-.7,14.228a.563.563,0,0,1-.3-.085.556.556,0,0,1-.212-.239l-.458-1H18.272l-.456.995a.542.542,0,0,1-.21.238.567.567,0,0,1-.3.086.555.555,0,0,1-.229-.049l-.114-.052a.537.537,0,0,1-.241-.21.56.56,0,0,1-.086-.3.541.541,0,0,1,.05-.229l2.245-4.9.017-.047a.565.565,0,0,1,.069-.158,1.011,1.011,0,0,1,.215-.23.563.563,0,0,1,.3-.085.85.85,0,0,1,.091.005.568.568,0,0,1,.278.086.645.645,0,0,1,.29.4l2.382,5.207-.162.256a.547.547,0,0,1-.239.21l-.117.051A.553.553,0,0,1,21.823,24.673Zm-2.26-4.139-.83,1.808h1.66Zm8.722,4.1H28.16a.563.563,0,0,1-.4-.163.649.649,0,0,1-.094-.124l-.07-.126V19.013a.557.557,0,0,1,.165-.392.567.567,0,0,1,.4-.163h.127a.565.565,0,0,1,.394.164.552.552,0,0,1,.164.391V21l2.289-2.373a.557.557,0,0,1,.188-.128.551.551,0,0,1,.21-.041.573.573,0,0,1,.392.152l.092.087a.553.553,0,0,1,.129.186.569.569,0,0,1,.042.216.542.542,0,0,1-.155.383l-1.573,1.632,1.886,2.563a.546.546,0,0,1,.108.327.564.564,0,0,1-.058.248.541.541,0,0,1-.171.2l-.1.076a.584.584,0,0,1-.58.049.559.559,0,0,1-.2-.17l-1.757-2.385-.739.765v1.29a.559.559,0,0,1-.56.556Zm-1.613,0H23.412l-.059,0a.623.623,0,0,1-.255-.084.54.54,0,0,1-.188-.194l-.057-.09V19.013a.56.56,0,0,1,.165-.392.567.567,0,0,1,.4-.163h.127a.562.562,0,0,1,.394.164.555.555,0,0,1,.164.391v4.614h2.574a.6.6,0,0,1,.311.085.607.607,0,0,1,.122.1l.223.248-.156.287a.475.475,0,0,1-.107.135A.585.585,0,0,1,26.672,24.633Zm-11.445,0H15.1a.559.559,0,0,1-.559-.556v-4.6H13.181a.6.6,0,0,1-.312-.088.529.529,0,0,1-.2-.226.48.48,0,0,1-.044-.2.488.488,0,0,1,.044-.2.519.519,0,0,1,.121-.161.578.578,0,0,1,.394-.15h3.953a.592.592,0,0,1,.313.087.526.526,0,0,1,.2.225.471.471,0,0,1,0,.394.548.548,0,0,1-.121.163.588.588,0,0,1-.4.151H15.788v4.6a.559.559,0,0,1-.561.556Z" fill="#fff"/>
</svg>
