<svg xmlns="http://www.w3.org/2000/svg" xmlns:xlink="http://www.w3.org/1999/xlink" width="1922" height="1126" viewBox="0 0 1922 1126">
  <defs>
    <clipPath id="clip-path">
      <rect id="사각형_185" data-name="사각형 185" width="1922" height="1126" transform="translate(-2 2647)" fill="#fff" stroke="#707070" stroke-width="1"/>
    </clipPath>
    <clipPath id="clip-path-2">
      <path id="backgorund" d="M-7789.29,264.363V-542.025c19.561-6.933,39.144-13.008,58.665-18.39,59.394-16.492,118.452-26.175,176.668-31.685,58.194-5.824,115.636-7.325,172.283-5.916,113.307,2.784,223.572,16.156,331.5,35.735,53.987,9.628,107.409,20.865,160.324,33.361l39.583,9.652,39.4,10.114,37.895,9.6c12.484,3.236,25,6.179,37.538,9.068,50.117,11.722,100.506,21.976,151.112,30.327l38,5.9,38.057,5.133,38.127,4.14,38.158,3.3a1496.147,1496.147,0,0,0,152.524,3.888,1117.583,1117.583,0,0,0,150.786-14.333c16.354-2.818,32.654-5.916,48.838-9.433l209.549-78.38V264.363Z" transform="translate(7789.789 4182.137)" fill="#264bf2" stroke="rgba(0,0,0,0)" stroke-miterlimit="10" stroke-width="1"/>
    </clipPath>
  </defs>
  <g id="마스크_그룹_27" data-name="마스크 그룹 27" transform="translate(2 -2647)" clip-path="url(#clip-path)">
    <g id="그룹_1337" data-name="그룹 1337">
      <path id="backgroudn" d="M-7810.129,1613.892l-1.15-61.989V504.719q21.461-10.668,43.079-19.942c56.56-24.506,113.728-42.221,170.622-55.694,56.842-13.781,113.531-23.172,169.837-29.574,112.608-12.836,223.666-14.764,333.263-10.228,54.8,2.1,109.256,5.885,163.391,10.979l40.532,4.114,40.414,4.6,38.857,4.287c12.808,1.484,25.611,2.681,38.427,3.814,51.253,4.715,102.577,7.931,153.848,9.239l38.443.616,38.4-.156,38.336-1.144,38.247-1.983A1496.207,1496.207,0,0,0-6313.966,406.5a1117.519,1117.519,0,0,0,147.375-34.951c23.955-7.633,47.688-15.888,70.943-25.22,23.23-9.35,45.928-19.852,68.118-31.214a709.792,709.792,0,0,0,102.21-63.771c7.4-5.576,14.857-11.457,22.168-17.508q5.492-4.544,10.873-9.209v1524.5Z" transform="translate(7811.777 2139.17)" fill="#3a64f9" stroke="rgba(0,0,0,0)" stroke-miterlimit="10" stroke-width="1"/>
      <g id="그룹_811" data-name="그룹 811" transform="translate(1810.422 3326.688) rotate(-93)">
        <path id="패스_6888" data-name="패스 6888" d="M85.258,300.555H60.181c0,.277-.691-1.333-.691-1.056-1.522-15.982-3.068-32.116-7.285-47.3S40.813,222.63,30.156,213.834c-15-12.387-34.194-12-52.1-11.18-22.549,1.025-46.2,2.449-65.546,17.15-18.728,14.23-29.96,39.441-31.1,67.04l-23.753-1.6c.527-35.759,18.209-70.09,43.134-86.972,17.986-12.184,38.842-15.208,59.123-18.011,14.963-2.072,30.028-4.145,45.036-2.687s30.121,6.68,42.252,17.951c12.538,11.647,21.143,29.074,26.571,47.518A350.854,350.854,0,0,1,85.258,300.555Z" transform="translate(142.34 -177.089)" fill="#ff5646"/>
        <path id="패스_6889" data-name="패스 6889" d="M13.3,264.579H-2.273c0,.173-.428-.826-.428-.653-.944-9.925-1.905-19.945-4.525-29.377s-7.073-18.357-13.691-23.822c-9.316-7.693-21.239-7.45-32.354-6.944-14.005.636-28.695,1.523-40.706,10.652-11.632,8.835-18.605,24.493-19.317,41.634l-14.751-1c.328-22.208,11.31-43.525,26.786-54.008,11.173-7.572,24.122-9.445,36.722-11.188,9.289-1.285,18.646-2.574,27.966-1.666s18.7,4.145,26.239,11.145c7.788,7.234,13.13,18.059,16.5,29.511A218.274,218.274,0,0,1,13.3,264.579Z" transform="translate(176.938 -141.104)" fill="#ff5646"/>
        <path id="패스_6890" data-name="패스 6890" d="M-42.976,232.216c-2.993-20.222-19.135-35.006-35.4-35.214s-31.636,12.37-40.432,29.676C-93.334,228.845-68.456,230.052-42.976,232.216Z" transform="translate(199.285 -110.856)" fill="#ff5646"/>
      </g>
      <g id="그룹_812" data-name="그룹 812" transform="translate(1551.999 2567.898)">
        <path id="패스_6891" data-name="패스 6891" d="M27.457,32.481l-.271,10.941A845.359,845.359,0,0,0-109.63,47.984l-.643-10.91A850.8,850.8,0,0,1,27.457,32.481Z" transform="translate(110.273 -31.509)" fill="#ffb520"/>
        <path id="패스_6892" data-name="패스 6892" d="M26.449,47.451a944.867,944.867,0,0,1-136.194,7.524l.1-10.948a938.136,938.136,0,0,0,135.388-7.48Z" transform="translate(111.551 -19.313)" fill="#ffb520"/>
        <path id="패스_6893" data-name="패스 6893" d="M25.8,45.046l-.241,10.944a926.438,926.438,0,0,0-135.033,4.1l-.575-10.917A931.85,931.85,0,0,1,25.8,45.046Z" transform="translate(110.815 -0.799)" fill="#ffb520"/>
        <path id="패스_6936" data-name="패스 6936" d="M0,0,133.418-.7l-.041,10.948-133.418.7Z" transform="matrix(1, -0.013, 0.013, 1, 2.059, 67.228)" fill="#ffb520"/>
      </g>
      <g id="그룹_813" data-name="그룹 813" transform="translate(1804.448 2726.448)">
        <path id="패스_6894" data-name="패스 6894" d="M-52.676,264.319a59.982,59.982,0,0,1-19.341-3.16,37.956,37.956,0,0,1-7.969-3.642,1.124,1.124,0,0,0-1.59.168,19.126,19.126,0,0,0-2.435,2.986,135.847,135.847,0,0,0-8.66,13.458c-1.238,2.237-2.247,4.6-3.41,6.881-.817,1.607-1.477,3.287-2.257,4.9a89.518,89.518,0,0,0-6.85,20.777c-.445,2.117-1.33,4.087-1.744,6.207-.2,1.029-1.149,1.686-1.867,2.411-.239.239-.646.1-.944-.127a1.972,1.972,0,0,1-.687-1.6,30.617,30.617,0,0,1,.592-9.727,112.3,112.3,0,0,1,6.129-18.328q2.3-5.212,4.932-10.24a65.717,65.717,0,0,1,6.119-10.144c.848-1.094,1.166-2.466,2.124-3.519,1.149-1.262,2.086-2.719,3.119-4.09.1-.137.27-.229.363-.369.6-.92,1.566-1.8,1.69-2.784.133-1.064-1.33-1.412-2.059-2.107A58.586,58.586,0,0,1-99.5,236.588a51.69,51.69,0,0,1-4.983-14.6,42.137,42.137,0,0,1,.075-16.423,36.273,36.273,0,0,1,2.261-7.374,28.925,28.925,0,0,1,5.547-8.277c1.584-1.614,3.109-3.41,5.2-4.5.728-.38.79-.793.5-1.512-.161-.4-.359-.783-.557-1.166a53.548,53.548,0,0,1-5.113-17.754,40.207,40.207,0,0,1,.725-13.838,25.677,25.677,0,0,1,3.978-9.727c.547-.763.947-1.628,1.46-2.415a30.568,30.568,0,0,1,6.659-6.768,26.325,26.325,0,0,1,5.876-4.138c2.664-1.166,5.233-2.545,8.154-3.068,1.426-.253,2.794-.773,4.244-1.029a36.565,36.565,0,0,1,11.293-.065,52.685,52.685,0,0,1,9.46,2.51,1.942,1.942,0,0,0,2.432-.684,22.052,22.052,0,0,1,4.822-4.214c2.25-1.409,4.313-3.143,6.638-4.395,3.3-1.778,6.591-3.622,10.336-4.508,1.724-.407,3.454-.858,5.175-1.31a20.936,20.936,0,0,1,5.352-.691c3.105,0,6.211-.044,9.313,0a39.912,39.912,0,0,1,20.09,5.842c1.926,1.146,3.817,2.343,5.64,3.642a38.917,38.917,0,0,1,8.475,8.625c1.385,1.861,2.579,3.861,3.9,5.773a8.2,8.2,0,0,1,1.091,2.6,2.689,2.689,0,0,1-.489,2.445c-1.481,1.888-2.24,1.912-3.752.051a12.019,12.019,0,0,1-1.139-1.713,44.786,44.786,0,0,0-9.946-12.442,45.329,45.329,0,0,0-9.368-5.924,44.476,44.476,0,0,0-4.3-1.758,36.776,36.776,0,0,0-6.755-1.57c-3.512-.6-7.063-.106-10.544-.752-1.611.318-3.266.188-4.874.417-2.548.363-5.062.941-7.593,1.426a.861.861,0,0,0-.25.058,29.671,29.671,0,0,1-4.72,2c-2.623.889-4.826,2.531-7.2,3.882a27.031,27.031,0,0,0-5.691,4.809c-.486.486-.414.927.178,1.235,1.375.711,2.787,1.348,4.138,2.1A56.212,56.212,0,0,1-21.4,140.655a33.585,33.585,0,0,1,7.781,11.17c2.353,5.848,2.534,11.793-.728,17.419a18.066,18.066,0,0,1-10.161,8.3,13.132,13.132,0,0,1-5.079.516c-5.274-.383-9.477-2.972-13.246-6.375-4.665-4.214-7.066-9.614-8.106-15.75a40.221,40.221,0,0,1-.41-8.5,23.053,23.053,0,0,1,.65-4.846c.763-2.893,1.173-5.92,2.828-8.526a1.14,1.14,0,0,0,.089-.243c.626-2.1,1.18-2.415-1.56-3.314a35.794,35.794,0,0,0-15.538-1.621,20.611,20.611,0,0,0-6.72,1.577,1.552,1.552,0,0,1-.469.212c-2.657.359-4.7,1.929-6.823,3.372a22.937,22.937,0,0,0-3.69,2.791,32.4,32.4,0,0,0-5.708,8.232,33.319,33.319,0,0,0-3.133,10.821c-.722,5.342.192,10.452,1.327,15.579a49.264,49.264,0,0,0,3.612,9.651c.339.746.691.882,1.426.619.325-.113.646-.236.961-.38a40.684,40.684,0,0,1,16.782-3.482,42.252,42.252,0,0,1,11.728,1.474A30.555,30.555,0,0,1-39.6,189.733a19.56,19.56,0,0,1,4.71,13.615,9.945,9.945,0,0,1-1.238,4.152c-1.464,2.781-3.841,4.614-6.341,6.293-1.365.917-3.1.992-4.679,1.341-6.4,1.416-12.3-.123-17.819-3.369a61.068,61.068,0,0,1-13.191-10.3,70.461,70.461,0,0,1-8.325-10.192c-.376-.575-.756-1.156-1.183-1.693a1.067,1.067,0,0,0-1.392-.315,7.646,7.646,0,0,0-1.949,1.245,28.865,28.865,0,0,0-8.085,14.631,40.051,40.051,0,0,0-.985,7.918,44.356,44.356,0,0,0,2.784,15.408A50.961,50.961,0,0,0-83.9,248.142c2.233,2.086,2.291,2.1,4.5-.055a72.277,72.277,0,0,1,5.9-5.359,33.579,33.579,0,0,0,4.644-3.666c3.933-2.411,7.651-5.14,11.974-6.943a88.522,88.522,0,0,1,9.764-3.208,42.655,42.655,0,0,1,15.1-1.17,22.272,22.272,0,0,1,11.806,4.09c2.76,2.038,4.983,4.494,5.708,8.02a11.609,11.609,0,0,1-.783,8.041,24.4,24.4,0,0,1-2.781,4.627,14.194,14.194,0,0,1-2.093,1.9c-2.893,2.3-5.8,4.6-9.45,5.653a25.13,25.13,0,0,0-2.391.964,11.379,11.379,0,0,1-4.963,1.262,2.731,2.731,0,0,0-1.005.2C-42.436,264.045-47.074,264.226-52.676,264.319Zm1.881-5.2a35.3,35.3,0,0,0,5.664-.431c2.124-.308,4.275-.441,6.409-.674a2.813,2.813,0,0,0,.982-.294,21.2,21.2,0,0,1,3.69-1.135,25.129,25.129,0,0,0,4.388-1.423,35.67,35.67,0,0,0,6.337-3.94,10.5,10.5,0,0,0,3.851-6.467,7.633,7.633,0,0,0-2.733-7.6,17.234,17.234,0,0,0-8.085-3.793,49.733,49.733,0,0,0-5.893-.568,40.832,40.832,0,0,0-5.127.335,42.423,42.423,0,0,0-12.477,2.859c-.643.243-1.31.421-1.949.674a32.683,32.683,0,0,0-3.088,1.3c-2.052,1.06-3.974,2.339-5.924,3.581A48.373,48.373,0,0,0-72,247.29a7.762,7.762,0,0,1-1.341,1.2c-1.484.831-2.305,2.295-3.447,3.451-.534.54-.4,1,.366,1.426a36.178,36.178,0,0,0,4.908,2.292A58.915,58.915,0,0,0-50.8,259.123ZM-46.27,149.69a25.026,25.026,0,0,0,.783,6.9,20.656,20.656,0,0,0,7.955,12.586c2.818,2.182,5.92,3.759,9.693,3.632,3.906-.13,7.059-1.348,8.742-5.158.243-.551.527-1.084.78-1.628a13.45,13.45,0,0,0,.363-10.548,30.109,30.109,0,0,0-8.82-12.507c-1.939-1.686-4.043-3.188-6.1-4.744a45.493,45.493,0,0,0-8.1-4.5c-.79-.38-1-.308-1.5.414a5.143,5.143,0,0,0-1.306,2.75,4.485,4.485,0,0,1-.472,1.467A33.237,33.237,0,0,0-46.27,149.69ZM-51.513,210.5a15.524,15.524,0,0,0,7.073-1.187,6.314,6.314,0,0,0,4.354-6.095,13.875,13.875,0,0,0-2.432-8.277,21.433,21.433,0,0,0-3.854-4.487,25.367,25.367,0,0,0-11.184-6.125c-2.1-.465-4.21-.807-6.324-1.166a15.537,15.537,0,0,0-3.543-.322c-2.647.174-5.277.633-7.924.766-2.664.133-4.894,1.5-7.333,2.261-.393.123-.363.575-.246.9a4.464,4.464,0,0,0,.581,1.146,91.8,91.8,0,0,0,6.909,8.66,75.24,75.24,0,0,0,8.909,7.815,29.54,29.54,0,0,0,6.614,3.971C-57.225,209.47-54.53,210.674-51.513,210.5Z" transform="translate(110.562 -110.618)" fill="#fff388"/>
      </g>
      <g id="그룹_814" data-name="그룹 814" transform="matrix(0.602, 0.799, -0.799, 0.602, 1552.656, 3609.41)">
        <path id="패스_6895" data-name="패스 6895" d="M-172.225,164.017c-13.6-5-26.448-3.9-38.955,2.685.151.9.756,1.17,1.224,1.594,3.8,3.42,7.582,6.871,9.645,11.714,2.613,6.149,2.818,12.316-.246,18.356-1.354,2.668-3.783,4.391-6.331,5.807-4.59,2.551-9.169,2.377-13.735-.256-1.074-.622-2.079-1.525-3.437-1.6a.948.948,0,0,1-.657-.26,14.065,14.065,0,0,0-3.783-3.16c-1.891-1.334-2.6-3.413-3.064-5.534-1.843-8.536.291-16.05,5.876-22.7,1.293-1.539,2.562-3.088,4.094-4.593a15.429,15.429,0,0,0-4.559-2.548,38.917,38.917,0,0,0-8.831-2.811c-1.187-.192-2.387-.359-3.55-.664-4.812-1.259-9.758-.876-14.624-.951a42.709,42.709,0,0,0-8.6.934c-.315.062-.622.188-.94.226a1.536,1.536,0,0,1-1.69-.664c-.38-.766.335-1.17.852-1.5A9.494,9.494,0,0,1-261.384,157c4.833-1.532,9.751-2.743,14.86-2.565a51.871,51.871,0,0,1,10.917,1.064c5.855,1.457,11.6,3.188,16.635,6.669a1.991,1.991,0,0,0,2.61.034c4.867-3.369,10.462-4.969,16.133-6.16a51.717,51.717,0,0,1,18.944-.315,48.831,48.831,0,0,1,9.71,2.753,21.756,21.756,0,0,1,3.943,2.309,3.106,3.106,0,0,0,2.965.356c7.558-2.8,15.233-2.124,22.863-.54a60.266,60.266,0,0,1,15.756,5.226c3.232,1.683,6.635,3.242,9.34,5.643,2.213,1.96,4.7,3.649,6.4,6.355,1.283,2.035,3.331,3.724,4.641,5.879.711,1.166,1.57,2.216,2.309,3.338,1.518,2.309,2.466,4.956,3.9,7.336.4.664-.185,1.474-.742,1.864a1.692,1.692,0,0,1-2.223-.048,18.053,18.053,0,0,1-4.22-4.863A50.815,50.815,0,0,0-112.5,182.6a23.418,23.418,0,0,0-5.971-5.445c-1.1-.643-2.021-1.59-3.075-2.329a56.868,56.868,0,0,0-13.1-6.389,51.727,51.727,0,0,0-11.967-2.815,35.048,35.048,0,0,0-13.208.479c-1.6.421-1.655.51-1.081,2.09a12.8,12.8,0,0,1,1.016,6.738,10.647,10.647,0,0,1-4.412,7.193,14.61,14.61,0,0,1-7.08,2.921c-3.116.277-6.112-.164-8.1-3.058a2.182,2.182,0,0,0-1.07-.94,2.041,2.041,0,0,1-1.255-1.915,9.9,9.9,0,0,1,1.69-7.654,25.964,25.964,0,0,1,5.547-5.318A7,7,0,0,0-172.225,164.017Zm-32.686,27.132c.91-5.106-1.019-9.323-3.14-13.335a25.588,25.588,0,0,0-5.486-6.512c-1.5-1.389-2.1-1.45-3.53.038-3.759,3.923-7.045,8.184-8.379,13.574-1.081,4.381-.862,8.612,2.466,12.145,1.474,1.566,3.509,2.059,5.4,2.873,2.74,1.173,5.178.547,7.569-.8A10.322,10.322,0,0,0-204.911,191.149Zm31.041-11.119a10.128,10.128,0,0,0,6.915-2.309,7.18,7.18,0,0,0,1.717-8.167c-.6-1.276-.978-1.471-2.2-.633a54.075,54.075,0,0,0-6.207,4.545,7.924,7.924,0,0,0-2.192,3.4C-176.514,178.946-175.984,179.692-173.87,180.03Z" transform="translate(264.493 -154.417)" fill="#fff388"/>
      </g>
      <g id="그룹_836" data-name="그룹 836" transform="translate(0 2912.484) rotate(-90)">
        <path id="패스_6922" data-name="패스 6922" d="M-89.582,152.894c29.006-4.744,52.328-31.855,54-61.206.581-10.414-1.194-20.934-1.611-31.321H-1.935C6.659,86.151.931,116.682-16.529,137.914c-21.321,25.918-57.745,37.44-90.752,31.3-34.348-6.385-64.325-30.5-80.53-61.1-7.059-13.325-13.968-27.6-12.357-42.912a45.017,45.017,0,0,1,.807-4.836h39.451c.643,16.622-2.1,33.6,2.254,49.643C-149.971,138.376-118.575,157.628-89.582,152.894Z" transform="translate(200.404 -60.367)" fill="#fff388"/>
        <path id="패스_6923" data-name="패스 6923" d="M-143.785,114.2c5.462.315,10.49-2.818,14.847-6.132,5.058-3.82,9.894-8.147,13.055-13.636,5.807-10.1,5.151-22.487,3.181-34.068h21.037c-.014,2.268-.044,4.521-.058,6.789-.089,11.327-.2,22.8-3.133,33.739s-9.06,21.471-18.728,27.364c-13.622,8.283-32.125,5.523-44.855-4.073S-178.673,99.329-182,83.733a156.5,156.5,0,0,1-3.208-23.366h28.53c-.12.626-.284,1.255-.462,1.867-2.268,7.7-7.654,14.488-8.328,22.484-.564,7.028,2.657,13.848,6.85,19.519C-154.962,109.192-149.934,113.847-143.785,114.2Z" transform="translate(237.178 -60.367)" fill="#fff388"/>
        <path id="패스_6924" data-name="패스 6924" d="M-173.455,60.367h22.665a63.792,63.792,0,0,1-1.6,18.219,13.889,13.889,0,0,1-2.907,6.238c-3.718,3.984-10.773,3.013-14.549-.91s-4.805-9.744-4.566-15.175C-174.276,65.932-173.858,63.144-173.455,60.367Z" transform="translate(263.236 -60.367)" fill="#fff388"/>
      </g>
      <g id="그룹_837" data-name="그룹 837" transform="translate(35.24 2933.229)">
        <path id="패스_6927" data-name="패스 6927" d="M-183.98,129.624a13.832,13.832,0,0,0-4.3,1.765,10.242,10.242,0,0,0-3.441,3.177,6.175,6.175,0,0,0-.592,5.807,5.983,5.983,0,0,0,6.1,3.078,9.014,9.014,0,0,0,5.982-3.831c1.546-2.127,3.964-5.91,2.011-8.461a4.714,4.714,0,0,0-3.328-1.683A8.469,8.469,0,0,0-183.98,129.624Z" transform="translate(192.791 -103.457)" fill="#fff388"/>
        <path id="패스_6928" data-name="패스 6928" d="M-188.3,140.907a4.743,4.743,0,0,0,4.066,5.01,4.743,4.743,0,0,0,5.017-4.056C-178.592,136.03-187.7,135.069-188.3,140.907Z" transform="translate(203.604 -85.224)" fill="#fff388"/>
        <path id="패스_6929" data-name="패스 6929" d="M-184.709,134.041a5.312,5.312,0,0,0,.841,4.169,6.113,6.113,0,0,0,2.377,2.548,2.755,2.755,0,0,0,3.252-.434,3.7,3.7,0,0,0,.718-1.874c.321-1.936.862-6.392-1.481-7.4C-180.936,130.22-184.107,132.214-184.709,134.041Z" transform="translate(211.957 -100.038)" fill="#fff388"/>
        <path id="패스_6930" data-name="패스 6930" d="M-186.894,130.652a5.008,5.008,0,0,0,.838,3.188,3.885,3.885,0,0,0,3.66.927,7.178,7.178,0,0,0,4.6-2.856c2.329-3.338.4-7.938-3.393-9.2C-185.916,121.148-186.993,127.444-186.894,130.652Z" transform="translate(207.049 -120.341)" fill="#fff388"/>
        <path id="패스_6931" data-name="패스 6931" d="M-179.854,133.057A6.916,6.916,0,0,0-176,135.6a18.308,18.308,0,0,0,4.672.527,2.487,2.487,0,0,0,2.049-.6,2.148,2.148,0,0,0-.01-2.182,15.18,15.18,0,0,0-6.864-6.279C-179.817,125.707-181.735,130.355-179.854,133.057Z" transform="translate(222.326 -109.804)" fill="#fff388"/>
        <path id="패스_6932" data-name="패스 6932" d="M-175.642,133.471a3.115,3.115,0,0,0-2.88,2.285c-.763,2.948,2.876,4.88,5.069,2.955a3.021,3.021,0,0,0-.749-4.949A2.976,2.976,0,0,0-175.642,133.471Z" transform="translate(227.074 -93.723)" fill="#fff388"/>
        <path id="패스_6933" data-name="패스 6933" d="M-180,124.308a1.971,1.971,0,0,0,1,1.477,4.779,4.779,0,0,0,1.751.557,4.922,4.922,0,0,0,2.514-.089c2.555-.954,1.067-3.759-.927-4.313C-177.131,121.534-180.127,122.451-180,124.308Z" transform="translate(223.73 -121.846)" fill="#fff388"/>
      </g>
      <path id="패스_6934" data-name="패스 6934" d="M11.589,252.238a3.229,3.229,0,0,0-2.709-.274c-1.149.427-2.486-.2-3.543.667-.766-1.655-2.291-.92-3.454-.947-1.648-.038-3.461-.568-4.891-.168-2.825.787-5.537.321-8.307.287a26.242,26.242,0,0,0-6.033.274,7.585,7.585,0,0,1-4.241-.123,2.04,2.04,0,0,0-1.751.2,11.9,11.9,0,0,1-6.594,1.047c-2.025-.161-3.967-.062-5.961-.058-1.46,0-3.068,1.156-4.491-.236-.185-.185-.523.021-.817.195a13.861,13.861,0,0,1-4.915,1.433c-2.394.417-4.675,1.594-7.213,1.07-.075-.017-.209.127-.28.226-1.471,2.042-4.039,1.71-5.985,2.179a7.383,7.383,0,0,0-3.663,1.813c-.773.01-1.163-.578-1.895-.554-2.637.075-4.289,2.346-6.751,2.873-1.625.349-3.441.537-4.576,2.134-.161.229-.848.2-1.259.116-1.566-.311-2.3,1.276-3.636,1.69-1.06.328-2.285,1.693-3.612,2.216-2.688,1.06-5.027,3.051-8.116,3.085-.441,0-1.245.062-1.153.657.25,1.607-.674,1.614-1.816,1.686a3.538,3.538,0,0,0-1.977.971c-1.19,1.029-2.425,1.9-4.149,1.334a1.047,1.047,0,0,0-.852.222c-1.772,1.59-3.718,2.77-6.009,2.681-.554.5.352.947-.058,1.033-1.515.321-2.363,1.717-3.786,2.161-2.11.664-4.234,1.31-6.266,2.165a4.66,4.66,0,0,1-2.633.537,9.326,9.326,0,0,0-3.872-.075,9.885,9.885,0,0,1-1.922.5,13.167,13.167,0,0,1-6.272-.664c-1.149-.431-2.586-.188-3.854-.325-1.436-.157-2.74-.465-3.858.875-.855-1.276-1.843-1.85-3.263-1.484a1.713,1.713,0,0,1-1.837-.677c-.889-1.419-1.83-1.262-2.907-.28a4.823,4.823,0,0,0-2.774-1.306c-3.112.044-5.735-1.512-8.475-2.521-1.293-.475-2.339-1.033-3.742-.7-.534.127-1.272.243-1.676-.427-1.313-2.172-3.841-2.668-5.653-4.135-1.433-1.163-4.1-.94-4.015-3.663a5.131,5.131,0,0,1-2.315-.8c-1.259-.845-1.614-2.288-2.818-3.191-2.979-2.233-6.2-4.06-8.636-7.169-2.917-3.718-5.346-7.7-8.01-11.789-.445,1.59-3.324,1.012-2.6,3.355-.643.554-1.317-.3-1.85.277-.328,2.582-1.317,4.07-2.4,4.077-1.081,2.394-1.177,5.116-3.7,6.642a6.345,6.345,0,0,0-2.548,3.04,19.1,19.1,0,0,1-3.482,5.766c-1.806,1.806-2.4,4.19-3.854,6.129-1.317,1.755-2.179,3.841-3.427,5.653a32.122,32.122,0,0,0-2.541,4.371c-.838,1.755-1.573,3.745-3.687,4.562-.168,1.057.311,2.285-.6,3.174a5.2,5.2,0,0,0-1.782,3.188,3,3,0,0,1-.674,1.662c-2.377,2.712-2.367,3.858-.13,6.249a1.743,1.743,0,0,1,.216.3c1.495,2.456,3.776,4.07,6.043,5.718a29.985,29.985,0,0,0,3.341,1.662,7.3,7.3,0,0,1,2.945,3.4c.951,2.517,3.55,3.119,5.089,4.9.735.855,1.874,1.04,2.74,1.8,1.56,1.382,2.493,3.81,5.2,3.619.161-.014.362.462.54.715a7.8,7.8,0,0,0,1.515,1.3c1.648,1.419,3.954,1.765,5.424,3.509.328.386,1.142,1.358,2.237.612.667-.455,1.009.256,1.351.831.947,1.594,2.059,3.4,3.755,3.868,1.365.38,2.541.971,3.817,1.46,1.56.6,2.428,1.96,3.639,2.722.585-.151.178-.8.616-.841,1.313.643,2.271,2.141,4.019,1.18.4-.222.9.151,1.159.441,1.392,1.546,2.945,1.375,4.631.393,2.1,2.887,5.469,1.679,8.188,2.579,2.014.667,4.282,1.44,6.642.845,2.517-.639,4.532,1.385,6.922,1.58,2,.164,3.947.814,6,.513a8.543,8.543,0,0,1,3.489.41c.349.1.821.3,1.053.157,1.607-.988,3.359-.246,5.024-.5,2.3-.352,4.648-.455,6.919-.927a7.955,7.955,0,0,1,3.776.048,5.127,5.127,0,0,0,3.854-.482c1.084-.653,2.278-.906,3.341-1.481.646-.349,1.2.578,1.717-.017,1.088-1.265,2.411-.975,3.759-.557.161-.766.5-1.563,1.228-1.382.752.188.982-.267,1.467-.506a18.452,18.452,0,0,1,6.974-1.467c1.259-.1,2.09-.126,2.562-1.4a2.912,2.912,0,0,1,3.341-2.011c.551.068.852-.027,1.016-.482a2.694,2.694,0,0,1,1.98-1.56c2.315-.7,4.1-2.274,6.132-3.434a17.3,17.3,0,0,1,3.509-1.939c2.767-.773,4.727-2.873,7.155-4.19,2.353-1.276,4.367-3.147,7.165-3.557.352-.051.913-.157,1-.38,1.412-3.742,4.987-1.905,7.449-2.907.127-.051.345.092.516-.219-.13-.4-.889-.807-.311-1.378,1.173-1.159,2.421-.161,3.53,0,.691-.51.393-1.625,1.44-1.744.732.291,1.2,1.252,2.326,1.029.1-1.365,1.488-1.785,2.2-2.839.571.335,1.218,1.5,1.758.657.975-1.539,2.332-1.18,3.69-1.457,1.211-.25,2.7-.051,3.475-1.214,1.159.154.687,1.426,1.659,1.949-.287-2.6,1.187-2.678,2.955-2.36a1.272,1.272,0,0,0,.7-.092c2.165-1.019,3.194-.882,4.621.759.345-1.146,1.2-1.231,2.185-1.214,1.97.034,3.926.25,5.886.342a64.562,64.562,0,0,0,7.049.072,38.716,38.716,0,0,1,4.494-.133c1.337.075,2.716,1.354,4.087.01.205-.2.561.075.776.332,1.272,1.488,3,1.317,4.494.8,1.32-.458,2.155-.561,2.544.923,1.272-.465,1.238-.332,4.241.424a53.821,53.821,0,0,1,8.284,2.647,43.7,43.7,0,0,1,5.79,2.767c1.683,1.04,3.714,1.676,5.216,3.006a32.762,32.762,0,0,0,7.288,4.781c2.6,1.286,4.2,3.759,6.8,5.055a6.162,6.162,0,0,1,2.945,2.377c.564,1.111,1.778,1.512,2.524,2.394.534.633,1.556-.438,1.881.66.417,1.409,1.231.8,2.172.551.968-.25.862-1.252,1.457-1.676,3.013,2.353,3.451,2.25,5.363-1.19.154-.28.462-.164.6-.3,1.85-1.84,3.311-3.817,2.678-6.7-.113-.523-.629-1.347.3-1.809.732-.362,1.132.157,1.625.534a1.984,1.984,0,0,0,.739.28,10.665,10.665,0,0,0,4.248-5.058,34.587,34.587,0,0,1,3.67-5.66c2.134-2.787,4.9-5.065,6.594-8.2.3-.571.91-.557,1.478-.92-1.149-.756-.239-1.283.2-1.772,1.666-1.878,2.042-4.22.458-6.214a14.61,14.61,0,0,1-2.644-6.1c1.3.821,2.435,1.566,3.6,2.268a3.156,3.156,0,0,1,1.354,3.6c-.3,1.4.349,2.11,1.142,2.962a5.407,5.407,0,0,0,1.481-3.276,3.453,3.453,0,0,0,3.133-.605c-.92-.246-1.936-.554-1.525-1.683a3.414,3.414,0,0,1,1.286-1.837c.944-.157.835.858,1.457.821.732-2-1.337-3.044-1.423-4.744-.109-2.12-2.637-3.129-2.6-5.373,0-.109-.424-.205-.622-.345a21.974,21.974,0,0,1-4.244-3.978c-1.885-2.281-2.842-5.339-5.6-6.95a3.149,3.149,0,0,1-1.194-2.346c-1.177.722-1.727.12-1.943-.978-.144-.722-.407-1.477-1.173-1.447-2.227.089-3.8-.982-5.281-2.466a8.39,8.39,0,0,0-2.763-1.939c-2.4-.923-4.956-1.495-7.1-2.958-1.2-.817-3.075-.335-3.571-.817-1.231-1.211-2.712-1.2-3.988-1.854-3.249-1.662-7.042-2.185-9.884-4.682-.8-.7-1.406-.106-2,.581-.575-1.385-1.7-1.31-2.736-1.382-.345-.024-.9.332-1.029.195-1.536-1.553-3.7-.985-5.445-1.259-2.244-.359-4.634.349-6.344-2C14.223,253.209,13.5,253.288,11.589,252.238Zm48.152,57c-.239-.831-.469-1.5-1.508-1.508-.369,0-.626-.311-.865-.629-1-1.324-1.737-2.928-3.574-3.376-.157-.038-.39-.236-.4-.369-.082-2.247-2.527-2.384-3.43-3.868-.486-.8-1.724.52-1.922-.786-1.474.246-1.546-1.122-1.631-1.82-.277-2.257-2.124-2.846-3.636-3.721a39.445,39.445,0,0,0-3.916-1.6c-.988-.434-2.172-.667-2.517-1.973-.048-.181-.39-.452-.534-.417-1.8.421-2.917-1.057-4.388-1.529-.787-.253-1.477-.865-2.442-.5a.627.627,0,0,1-.793-.749c.113-.554.636-1.153,1.149-.841a7.044,7.044,0,0,0,3.5.8c2.2.123,3.848,1.471,5.7,2.538,2.291,1.317,4.33,3.181,6.861,3.957,1.3.4,1.248,1.659,2.274,2.223,1.56.855,3.393,1.419,4.515,2.941.79,1.074,1.392,2.179,3,2.363a2.776,2.776,0,0,1,1.751,1.737c.561,1.867,2.114,2.555,3.451,3.608,1.4,1.1,1.094,3.3,2.9,4.432C61.451,311.173,60.165,310.725,59.741,309.241Zm-115.48-39.235c1.775,1.17,3.2.674,4.867-.308,1.142-.67,2.863-.568,4.306-.482a38.25,38.25,0,0,0,9.262-.246c2.172-.414,3.978.735,6.04.646-4.108,2.127-8.738,1.837-13.075,2.818-4.508,1.016-9.214.489-13.851-.185A2.793,2.793,0,0,0-55.739,270.005Zm-16.632,3.317c-3.892,3.215-8.437,4.354-13.157,4.9C-83.791,275.8-75.275,272.471-72.371,273.323ZM57.152,279.6c-2.545-.52-5.031-.91-5.879-3.882-.188-.66-.469-1.221.28-1.536s1.2.386,1.392.9a4.984,4.984,0,0,0,4.333,3.533c1.341.164,1.991,1.843,1.436,3.683A3.866,3.866,0,0,1,57.152,279.6Zm-91.173-17.094c-.068-.38.151-1.118.537-.968,1.409.544,2.791-.551,4.2.133a3.016,3.016,0,0,0,2.5-.41,2.493,2.493,0,0,1,2.945.51C-27.15,262.639-30.478,263.329-34.021,262.505Zm28.284,9.217c.055.513-.1,1.2-.636,1.009-2.418-.882-5.082-.127-7.538-1.368C-12.67,270.2-9.7,270.327-5.737,271.722Zm-154.257,42.313c-.54-.855-1.358-.181-1.994-.428.311-1.269,3.051-1.074,4.624.369C-158.325,314.833-159.2,315.291-159.994,314.036ZM47.442,330.853c2.079-.352,2.709.2,2.692,2.51A3.882,3.882,0,0,1,47.442,330.853Z" transform="translate(1898.171 3342.015)" fill="#ff5646"/>
      <path id="패스_6935" data-name="패스 6935" d="M-321.707,123.893c-2.565,2.613-5.441,5.031-6.32,8.855a4.153,4.153,0,0,1-.917,1.491c-.694.951-1.806,2.018-1.44,3.2.664,2.144-2.076,3.482-1.067,5.575-3.307,3.208-2.51,8.013-4.556,11.717-.058.1,0,.3.055.431,1.177,2.989.4,6.04.376,9.077-.014,2.295-1.546,4.1-1.077,6.768a22.509,22.509,0,0,1-.192,10.489,1.405,1.405,0,0,0,.058,1.088c1.5,1.919,1.529,4.176,1.457,6.413a8.221,8.221,0,0,0,.585,3.27,25.692,25.692,0,0,1,1.484,6.245c.2,1.919.451,3.471,1.9,4.768a1.85,1.85,0,0,1,.8,1.782c-.612,2.579-.345,4.932,1.761,6.768,1.259,1.1.759,2.818,1.8,4.19,1.156,1.515,1.891,3.307,3.707,4.265a.705.705,0,0,1,.345.547c-.623,3.29,2.517,4.049,4.06,5.77,1.59,1.772,4.138,2.531,6,3.957a38.118,38.118,0,0,0,7.1,4.2c2.011.951,4.347,1.563,6.04,2.7a38.066,38.066,0,0,0,10.8,5.346c1.837.52,2.931,2.155,4.709,2.811.735.267,1.891-.667,2.127.534.342,1.744,1.437,1.142,2.558,1.231,2.042.168,4.532-1.016,5.951,1.693.25.482,1.522.66,1.84.075.906-1.655,1.895-.6,3.013-.472,2.38.277,4.559,2.49,7.127.872a2.707,2.707,0,0,1,3.557.308,2.631,2.631,0,0,0,3.307.226c1.108-.612,2.185-1.272,3.28-1.915.462,1.279,1.707,1.129,2.589,1.683.79-2.432,2.445-3.2,4.737-3.369a13.44,13.44,0,0,0,5.493-1.2c2.982-1.7,6.577-1.132,9.45-2.958a.692.692,0,0,1,.636-.031c1.351,1.221,2.073.044,2.8-.773a6.648,6.648,0,0,1,1.276-1.262c3.612-2.37,8.126-3.324,10.613-7.483,1.532-2.565,5.339-3.2,6.245-6.488a5.6,5.6,0,0,1,3.468-3.656c2.083-.684,2.2-2.36,2.569-3.636a9.715,9.715,0,0,1,1.286-2.657c1.542-2.439,4.217-4.381,4.59-7.278.506-3.93,1.97-7.511,3.129-11.2.328-1.047-.626-1.375-.571-2.073.445-.267.845-.222,1.115-.77,1.159-2.353,1.043-5,1.365-7.432.5-3.783,2.055-7.35,1.953-11.252-.068-2.616-.315-5.339.9-7.853.058-.12-.209-.373-.274-.578a19.328,19.328,0,0,1-.807-6.416c.229-5.007-.072-7.47-1.717-11.755-1.283-3.338-2.141-6.864-3.129-10.308s-2.066-6.638-4.35-9.491c-1.173-1.467-2.729-2.88-2.8-5.089-1.019.147-1.765.123-2.274-.817-1.464-2.712-4.354-4.036-6.4-6.225-.855-.917-1.867-2.312-3.239-2.62-3.328-.752-5.626-3.242-7.976-5.216-1.833-1.539-3.4-2.521-5.643-2.466a1.384,1.384,0,0,1-1.536-.913c-.434-.876-1.361-1.337-2.079-1.967-1.443-1.262-3.475-1.416-4.744-2.685-1.522-1.515-3.482-1.912-5.281-2.709-2.469-1.091-5.205-1.3-7.746-2.309-1.385-.547-2.863-1.59-4.367-1.433-1.881.2-3.615-.345-5.414-.482-4.573-.342-9.142-.811-13.41,1.45-.985.52-1.761,1.153-2.692-.154-.455-.64-1.2-.687-1.9.106-1.241,1.4-3.578.127-4.775,1.809-2.555-1.546-4.856.434-6.98,1.04-2.463.7-4.9,1.973-7.428,2.849-1.081.376-2.179.992-3.2,1.436-2.6,1.139-4.562,3.475-7.617,3.807-1.3.144-2.982.657-2.685,2.651-1.139.434-2.613-.034-3.17,1.166-.886,1.908-2.64,2.681-4.272,3.523a2.844,2.844,0,0,0-1.491,1.536c-.65,1.843-2.151,2.627-3.837,3.424C-321.375,121.119-320.445,122.6-321.707,123.893ZM-236.6,163.83c1.573.708,1.943,2.678,3.085,3.536,1.693,1.269,2.11,2.979,3.058,4.556,2.12,3.519,1.094,7.189.879,10.811a20.963,20.963,0,0,1-4.3,11.362c-3.635,4.8-7.22,9.925-13.622,11.6-2.261.592-4.162-.831-5.5-1.943-1.631-1.354-2.951-1.081-4.491-.711-.992.236-1.837.646-2.565-.5a1.3,1.3,0,0,0-1.2-.4,2.82,2.82,0,0,1-3.1-.267c-.985.414-.109,1.057-.575,1.546-1.741-2.148-4.443-1.943-6.649-2.876-5.79-2.449-11.05-5.438-14.648-10.746-1.289-1.9-1.512-4.258-2.254-6.4-.865-2.5-.52-4.98-.41-7.531a61.653,61.653,0,0,1,2.35-15.944c1.2-3.827,4.084-6.474,6.354-9.532a23.888,23.888,0,0,1,4.573-4.333c2.63-2.052,5.763-3.974,8.677-2.852,3.448,1.324,7.439-.065,10.462,2.572a1.267,1.267,0,0,0,1.625.339c1.125-.715,2.086-.711,2.651.828.342.937,1.443.807,2.185.876a6.742,6.742,0,0,1,4.7,2.6c.612.7.982,2.456,2.712,1.71.414-.181.294.383.448.585,2.339,3.061,4.275,6.4,6.443,9.826C-235.777,163.1-236.642,163.087-236.6,163.83Z" transform="translate(297.616 3180.509)" fill="#ff5646"/>
      <g id="마스크_그룹_26" data-name="마스크 그룹 26" clip-path="url(#clip-path-2)">
        <g id="vector" transform="translate(-294.479 3706.146)">
          <g id="그룹_845" data-name="그룹 845" transform="translate(494.478 -59.145)">
            <path id="패스_6943" data-name="패스 6943" d="M192.777,362.479l-2.446-5.757a1.117,1.117,0,0,0-2.054,0l-2.4,5.644a1.117,1.117,0,0,1-.591.591l-5.757,2.444a1.116,1.116,0,0,0,0,2.054l5.642,2.4a1.113,1.113,0,0,1,.589.591l2.444,5.757a1.116,1.116,0,0,0,2.054,0l2.4-5.644a1.113,1.113,0,0,1,.589-.591l5.759-2.444a1.116,1.116,0,0,0,0-2.054l-5.644-2.4A1.113,1.113,0,0,1,192.777,362.479Z" transform="translate(-338.552 67.375)" fill="#fff"/>
            <path id="패스_6944" data-name="패스 6944" d="M562.186,354.462l-1.578-3.716a.721.721,0,0,0-1.327,0l-1.547,3.643a.722.722,0,0,1-.38.383l-3.716,1.578a.72.72,0,0,0,0,1.325l3.642,1.547a.723.723,0,0,1,.381.383l1.578,3.718a.722.722,0,0,0,1.327,0l1.549-3.645a.719.719,0,0,1,.381-.381l3.718-1.578a.722.722,0,0,0,0-1.327l-3.644-1.547A.733.733,0,0,1,562.186,354.462Z" transform="translate(1042.066 177.14)" fill="#fff"/>
            <path id="패스_6945" data-name="패스 6945" d="M69.39,34.3l-2.446-5.755a1.116,1.116,0,0,0-2.054,0l-2.4,5.642a1.117,1.117,0,0,1-.591.591l-5.757,2.444a1.116,1.116,0,0,0,0,2.054l5.642,2.4a1.123,1.123,0,0,1,.591.591l2.442,5.757a1.116,1.116,0,0,0,2.054,0l2.4-5.644a1.11,1.11,0,0,1,.589-.589l5.759-2.446a1.116,1.116,0,0,0,0-2.054l-5.644-2.4A1.113,1.113,0,0,1,69.39,34.3Z" transform="translate(-19.151 -20.11)" fill="#fff"/>
            <path id="패스_6946" data-name="패스 6946" d="M170.068,306.925l6.172,1a1.117,1.117,0,0,0,1.1-1.737l-3.494-5.04a1.118,1.118,0,0,1-.184-.815l1.006-6.174a1.116,1.116,0,0,0-1.737-1.1l-5.04,3.49a1.109,1.109,0,0,1-.815.184l-6.174-1.006a1.115,1.115,0,0,0-1.1,1.737l3.492,5.042a1.118,1.118,0,0,1,.184.815l-1.006,6.174a1.117,1.117,0,0,0,1.737,1.1l5.042-3.492A1.109,1.109,0,0,1,170.068,306.925Z" transform="translate(-197.118 400.722)" fill="#fff"/>
            <path id="패스_6947" data-name="패스 6947" d="M479.075,124.436l-2.446-5.757a1.116,1.116,0,0,0-2.054,0l-2.4,5.644a1.116,1.116,0,0,1-.591.591l-5.757,2.444a1.117,1.117,0,0,0,0,2.054l5.642,2.4a1.116,1.116,0,0,1,.591.591l2.442,5.757a1.116,1.116,0,0,0,2.054,0l2.4-5.644a1.117,1.117,0,0,1,.591-.591l5.757-2.444a1.116,1.116,0,0,0,0-2.054l-5.642-2.4A1.113,1.113,0,0,1,479.075,124.436Z" transform="translate(549.718 21.143)" fill="#fff"/>
            <path id="패스_6948" data-name="패스 6948" d="M729.861,223.992l-2.444-5.755a1.116,1.116,0,0,0-2.054,0l-2.4,5.642a1.11,1.11,0,0,1-.591.591l-5.757,2.444a1.116,1.116,0,0,0,0,2.054l5.64,2.4a1.11,1.11,0,0,1,.591.591l2.444,5.757a1.116,1.116,0,0,0,2.054,0l2.4-5.644a1.113,1.113,0,0,1,.591-.589l5.759-2.446a1.117,1.117,0,0,0,0-2.054l-5.644-2.4A1.117,1.117,0,0,1,729.861,223.992Z" transform="translate(835.58 -90.928)" fill="#fff"/>
            <path id="패스_6949" data-name="패스 6949" d="M444.852,180.875l-2.444-5.757a1.116,1.116,0,0,0-2.054,0l-2.4,5.644a1.12,1.12,0,0,1-.589.591l-5.757,2.444a1.114,1.114,0,0,0,0,2.052l5.64,2.4a1.117,1.117,0,0,1,.591.591l2.444,5.757a1.116,1.116,0,0,0,2.054,0l2.4-5.644a1.117,1.117,0,0,1,.591-.591l5.757-2.446a1.115,1.115,0,0,0,0-2.052l-5.644-2.4A1.113,1.113,0,0,1,444.852,180.875Z" transform="translate(323.488 113.647)" fill="#fff"/>
            <path id="패스_6950" data-name="패스 6950" d="M456.728,377.318,455.15,373.6a.719.719,0,0,0-1.324,0l-1.545,3.64a.723.723,0,0,1-.383.381l-3.712,1.576a.72.72,0,0,0,0,1.325l3.638,1.547a.717.717,0,0,1,.383.381l1.576,3.712a.719.719,0,0,0,1.323,0l1.547-3.642a.729.729,0,0,1,.383-.381l3.712-1.578a.718.718,0,0,0,0-1.323l-3.64-1.547A.726.726,0,0,1,456.728,377.318Z" transform="translate(1075.836 344.001)" fill="#fff"/>
            <path id="패스_6951" data-name="패스 6951" d="M115.089,33.119l-1.578-3.712a.719.719,0,0,0-1.323,0l-1.547,3.64a.723.723,0,0,1-.381.383L106.547,35a.72.72,0,0,0,0,1.325l3.638,1.545a.719.719,0,0,1,.381.381l1.576,3.714a.72.72,0,0,0,1.325,0l1.547-3.64a.719.719,0,0,1,.381-.381l3.714-1.578a.72.72,0,0,0,0-1.325L115.47,33.5A.713.713,0,0,1,115.089,33.119Z" transform="translate(52.043 34.626)" fill="#fff"/>
            <path id="패스_6952" data-name="패스 6952" d="M186.254,138.941l-1.578-3.712a.72.72,0,0,0-1.325,0l-1.545,3.64a.719.719,0,0,1-.381.381l-3.712,1.578a.719.719,0,0,0,0,1.324l3.64,1.547a.72.72,0,0,1,.381.381l1.576,3.714a.72.72,0,0,0,1.325,0l1.547-3.64a.713.713,0,0,1,.381-.381l3.714-1.578a.721.721,0,0,0,0-1.325l-3.64-1.547A.713.713,0,0,1,186.254,138.941Z" transform="translate(49.868 222.399)" fill="#fff"/>
            <path id="패스_6953" data-name="패스 6953" d="M604.1,477.914l-1.578-3.712a.718.718,0,0,0-1.323,0l-1.547,3.64a.713.713,0,0,1-.381.381l-3.712,1.576a.72.72,0,0,0,0,1.325l3.638,1.547a.713.713,0,0,1,.381.381l1.576,3.714a.721.721,0,0,0,1.325,0l1.547-3.641a.725.725,0,0,1,.381-.381l3.714-1.576a.72.72,0,0,0,0-1.325l-3.64-1.547A.713.713,0,0,1,604.1,477.914Z" transform="translate(473.32 386.803)" fill="#fff"/>
            <path id="패스_6954" data-name="패스 6954" d="M721.406,27.961l-1.578-3.712a.721.721,0,0,0-1.325,0l-1.545,3.64a.723.723,0,0,1-.381.383l-3.714,1.576a.721.721,0,0,0,0,1.325l3.64,1.545a.716.716,0,0,1,.381.383l1.576,3.712a.72.72,0,0,0,1.325,0l1.547-3.64a.713.713,0,0,1,.381-.381l3.714-1.578a.721.721,0,0,0,0-1.325l-3.64-1.545A.723.723,0,0,1,721.406,27.961Z" transform="translate(707.575 153.309)" fill="#fff"/>
            <path id="패스_6955" data-name="패스 6955" d="M566.414,321.252l-1.245-2.93a.568.568,0,0,0-1.046,0l-1.22,2.873a.57.57,0,0,1-.3.3l-2.93,1.245a.568.568,0,0,0,0,1.046l2.873,1.22a.566.566,0,0,1,.3.3l1.245,2.93a.568.568,0,0,0,1.046,0l1.222-2.875a.563.563,0,0,1,.3-.3l2.932-1.247a.569.569,0,0,0,0-1.046l-2.875-1.22A.572.572,0,0,1,566.414,321.252Z" transform="translate(440.657 244.636)" fill="#fff"/>
            <path id="패스_6956" data-name="패스 6956" d="M320.781,331.984l-1.245-2.932a.569.569,0,0,0-1.046,0l-1.22,2.875a.566.566,0,0,1-.3.3l-2.93,1.245a.568.568,0,0,0,0,1.046l2.875,1.222a.563.563,0,0,1,.3.3l1.245,2.932a.569.569,0,0,0,1.046,0l1.22-2.875a.573.573,0,0,1,.3-.3l2.932-1.245a.569.569,0,0,0,0-1.046l-2.875-1.222A.563.563,0,0,1,320.781,331.984Z" transform="translate(1189.498 198.512)" fill="#fff"/>
            <path id="패스_6957" data-name="패스 6957" d="M278.362,457.568l-1.245-2.932a.569.569,0,0,0-1.046,0l-1.22,2.875a.579.579,0,0,1-.3.3l-2.932,1.243a.569.569,0,0,0,0,1.046l2.873,1.222a.563.563,0,0,1,.3.3l1.245,2.932a.568.568,0,0,0,1.046,0l1.222-2.875a.57.57,0,0,1,.3-.3l2.932-1.245a.568.568,0,0,0,0-1.046l-2.873-1.222A.566.566,0,0,1,278.362,457.568Z" transform="translate(177.788 369.033)" fill="#fff"/>
            <path id="패스_6958" data-name="패스 6958" d="M41.808,263.383l3.144.511a.568.568,0,0,0,.558-.884l-1.779-2.567a.561.561,0,0,1-.094-.415l.511-3.144a.568.568,0,0,0-.884-.558L40.7,258.1a.57.57,0,0,1-.415.094l-3.144-.513a.568.568,0,0,0-.558.884l1.779,2.569a.561.561,0,0,1,.094.415l-.513,3.144a.569.569,0,0,0,.886.559l2.567-1.779A.569.569,0,0,1,41.808,263.383Z" transform="translate(-36.478 188.282)" fill="#fff"/>
            <path id="패스_6959" data-name="패스 6959" d="M135.935,406.911l3.144.513a.569.569,0,0,0,.558-.886l-1.781-2.567a.578.578,0,0,1-.094-.415l.513-3.142a.567.567,0,0,0-.884-.558l-2.567,1.777a.561.561,0,0,1-.415.094l-3.144-.513a.569.569,0,0,0-.558.886l1.779,2.567a.57.57,0,0,1,.094.415l-.513,3.144a.569.569,0,0,0,.886.558L135.52,407A.569.569,0,0,1,135.935,406.911Z" transform="translate(49.419 319.263)" fill="#fff"/>
            <path id="패스_6960" data-name="패스 6960" d="M275.255,196.962l-1.245-2.932a.569.569,0,0,0-1.046,0l-1.22,2.875a.57.57,0,0,1-.3.3l-2.932,1.245a.567.567,0,0,0,0,1.044l2.875,1.222a.576.576,0,0,1,.3.3l1.245,2.932a.568.568,0,0,0,1.046,0l1.222-2.873a.566.566,0,0,1,.3-.3l2.932-1.245a.569.569,0,0,0,0-1.046l-2.875-1.22A.573.573,0,0,1,275.255,196.962Z" transform="translate(174.951 131.211)" fill="#fff"/>
            <path id="패스_6961" data-name="패스 6961" d="M363.654,168.926l-1.245-2.932a.569.569,0,0,0-1.046,0l-1.22,2.875a.57.57,0,0,1-.3.3l-2.932,1.245a.568.568,0,0,0,0,1.046l2.873,1.22a.573.573,0,0,1,.3.3l1.245,2.932a.569.569,0,0,0,1.046,0l1.222-2.875a.563.563,0,0,1,.3-.3l2.932-1.245a.568.568,0,0,0,0-1.046l-2.873-1.222A.573.573,0,0,1,363.654,168.926Z" transform="translate(676.567 -10.419)" fill="#fff"/>
            <path id="패스_6962" data-name="패스 6962" d="M154.169,148.257l-1.245-2.932a.569.569,0,0,0-1.046,0l-1.22,2.875a.566.566,0,0,1-.3.3l-2.93,1.245a.568.568,0,0,0,0,1.046l2.873,1.22a.573.573,0,0,1,.3.3l1.245,2.932a.569.569,0,0,0,1.046,0l1.22-2.875a.573.573,0,0,1,.3-.3l2.932-1.245a.569.569,0,0,0,0-1.046l-2.875-1.222A.569.569,0,0,1,154.169,148.257Z" transform="translate(-42.548 141.764)" fill="#fff"/>
          </g>
          <path id="패스_6964" data-name="패스 6964" d="M276.386,67.484a13,13,0,0,1-2.863-.281q-.2,1.28-.392,2.559c-.243,1.593-2.8,1.021-2.458-.58q.261-1.228.52-2.456a21.458,21.458,0,0,0-2.706-.461,1.123,1.123,0,0,1-.088-2.243c1.084-.126,2.255-.239,3.429-.285l.884-4.162c.266-1.251,2.1-.78,1.913.449q-.29,1.893-.581,3.787a8.5,8.5,0,0,1,3.026.778A1.554,1.554,0,0,1,276.386,67.484Zm-16-3.466a8.536,8.536,0,0,0-3.026-.778q.29-1.893.581-3.787c.187-1.23-1.647-1.7-1.913-.449l-.884,4.162c-1.174.046-2.347.159-3.427.285a1.123,1.123,0,0,0,.084,2.243,21.423,21.423,0,0,1,2.708.461q-.261,1.228-.52,2.456c-.34,1.6,2.215,2.173,2.458.58q.2-1.28.394-2.559a12.748,12.748,0,0,0,2.861.281A1.554,1.554,0,0,0,260.39,64.018Zm32.946,1.6a8.483,8.483,0,0,0-3.024-.777l.579-3.787c.189-1.232-1.647-1.7-1.913-.449q-.439,2.08-.882,4.16c-1.176.048-2.347.161-3.429.287a1.122,1.122,0,0,0,.086,2.242,21.9,21.9,0,0,1,2.708.463l-.522,2.456c-.339,1.6,2.215,2.171,2.46.578q.2-1.28.392-2.557a12.992,12.992,0,0,0,2.863.281A1.554,1.554,0,0,0,293.336,65.615Zm19.336,1.2a8.515,8.515,0,0,0-3.024-.778q.29-1.891.581-3.785c.189-1.232-1.649-1.7-1.913-.449l-.884,4.16c-1.174.046-2.347.161-3.429.287a1.122,1.122,0,0,0,.086,2.242,21.491,21.491,0,0,1,2.708.463l-.522,2.456c-.339,1.6,2.217,2.171,2.46.578q.2-1.28.392-2.559a12.892,12.892,0,0,0,2.863.283A1.554,1.554,0,0,0,312.672,66.813ZM282.333,87.491a12.866,12.866,0,0,1-2.863-.281q-.2,1.279-.392,2.559c-.245,1.593-2.8,1.019-2.46-.58q.261-1.228.52-2.456a21.452,21.452,0,0,0-2.706-.461,1.123,1.123,0,0,1-.086-2.243c1.083-.126,2.253-.239,3.427-.285l.884-4.162c.266-1.251,2.1-.782,1.913.449l-.579,3.787a8.526,8.526,0,0,1,3.024.778A1.553,1.553,0,0,1,282.333,87.491Zm-16-3.466a8.456,8.456,0,0,0-3.024-.778l.579-3.787c.189-1.232-1.647-1.7-1.913-.449l-.884,4.162c-1.174.046-2.345.159-3.427.287a1.122,1.122,0,0,0,.086,2.242,21.458,21.458,0,0,1,2.706.461q-.258,1.228-.52,2.456c-.339,1.6,2.215,2.173,2.46.58q.2-1.28.392-2.559a12.981,12.981,0,0,0,2.863.281A1.553,1.553,0,0,0,266.334,84.026Zm32.948,1.6a8.536,8.536,0,0,0-3.024-.778q.29-1.891.58-3.785c.189-1.232-1.647-1.7-1.913-.449l-.884,4.16c-1.174.048-2.345.161-3.427.287A1.123,1.123,0,0,0,290.7,87.3a21.112,21.112,0,0,1,2.706.461q-.261,1.228-.52,2.456c-.34,1.6,2.215,2.171,2.46.578q.2-1.28.392-2.559a12.87,12.87,0,0,0,2.863.283A1.555,1.555,0,0,0,299.282,85.623Zm19.336,1.2a8.535,8.535,0,0,0-3.026-.778q.293-1.891.581-3.785c.189-1.232-1.647-1.7-1.913-.449l-.884,4.16c-1.174.046-2.345.159-3.427.287a1.122,1.122,0,0,0,.086,2.242,21.465,21.465,0,0,1,2.706.463q-.258,1.228-.52,2.456c-.34,1.6,2.215,2.171,2.46.578q.2-1.28.392-2.559a12.869,12.869,0,0,0,2.863.283A1.554,1.554,0,0,0,318.618,86.82Zm-47.376,16.93a12.894,12.894,0,0,1-2.865-.281l-.39,2.559c-.245,1.593-2.8,1.019-2.46-.58q.258-1.228.52-2.454a21.1,21.1,0,0,0-2.708-.463,1.123,1.123,0,0,1-.084-2.243c1.083-.126,2.253-.239,3.427-.285l.884-4.162c.266-1.251,2.1-.782,1.913.449q-.29,1.893-.581,3.787a8.535,8.535,0,0,1,3.026.778A1.553,1.553,0,0,1,271.242,103.75Zm-16-3.466a8.474,8.474,0,0,0-3.024-.778q.29-1.893.581-3.787c.189-1.232-1.647-1.7-1.913-.449L250,99.43c-1.174.048-2.345.161-3.429.287a1.123,1.123,0,0,0,.086,2.243,21.483,21.483,0,0,1,2.708.461q-.261,1.228-.52,2.456c-.34,1.6,2.215,2.173,2.458.58q.2-1.279.392-2.559a12.889,12.889,0,0,0,2.863.281A1.553,1.553,0,0,0,255.241,100.285Zm32.948,1.6a8.525,8.525,0,0,0-3.024-.778q.29-1.891.58-3.785c.189-1.232-1.645-1.7-1.911-.449l-.884,4.16c-1.176.048-2.347.159-3.429.287a1.123,1.123,0,0,0,.086,2.243,21.2,21.2,0,0,1,2.708.461l-.522,2.456c-.339,1.6,2.215,2.171,2.46.578q.2-1.28.392-2.557a12.981,12.981,0,0,0,2.863.281A1.554,1.554,0,0,0,288.189,101.882Zm19.338,1.2a8.535,8.535,0,0,0-3.026-.778q.29-1.891.581-3.785c.187-1.232-1.649-1.7-1.913-.451q-.442,2.083-.884,4.162c-1.174.046-2.347.159-3.429.287a1.122,1.122,0,0,0,.086,2.242,21.486,21.486,0,0,1,2.708.463l-.522,2.456c-.339,1.6,2.215,2.171,2.46.578q.2-1.279.392-2.559a12.9,12.9,0,0,0,2.865.283A1.555,1.555,0,0,0,307.527,103.079Z" transform="translate(96.778 -15.82)" fill="#3eff43"/>
          <path id="패스_6965" data-name="패스 6965" d="M388.464,158.543c2.3-4.454,82.122,30.934,92.8,37.177,3.24,1.893,7.432,2.743,11.049.845-21.888-17.911-75.8-35.534-75.945-37.794s24.5,6.74,34.813,13.082c15.075,8,29.794,11.992,42.6,21,4.544,2.668,4.99-.425,6.268-1.352,5.468-4.873,10.029-19.678,6.306-21.237s-2.678-1.469-4.789-1.821c-3.186-.532,5.112-5.107,2.94-7.425s-69.447-30.559-67.032-33.621,24.609,12.747,37,18.7c10.313,4.263,20.834,8.3,31.246,12.715,1.446-2.75,2.339-5.371.681-8-1.863-4.866-14.562-5.436-20.61-8.995-16.1-11.387-36.2-16.9-53.1-26.508-12.39-6.767-26.063-9.706-39.728-12.449-18.977-3.016-37.626-13.639-54.072-12.648-14.748,1.452-8.086,25.615-2.813,30.182s2.133,4.523-1.364,5.015-12.814,7.608-12.556,14.132,98.5,31.645,133.909,46.732c-22.459-10.615-40.77-18.749-64.834-24.854C389.881,161.188,387.36,160.677,388.464,158.543Z" transform="translate(154.096 376.26)" fill="#f2b705"/>
          <path id="패스_6966" data-name="패스 6966" d="M253.582,51.956c-3.007,11.03-2.169,23.528-7.013,34.053-7.692,16.706-18.65-10.173-24.653-15.582-7.13-6.422-18.533-13.482-26.384-6.082-7.826,7.379-8.685,21.371-10.9,31.288-1.654,7.4-3.94,25.929-13.742,27.489-10.192,1.622-18.621-17.3-29.63-10.856-8.84,5.175-12.908,23.888-13.333,33.147-.358,7.826.9,27.765,12.606,27.222,1.752-.082,4.829-1.574,6.885-3.41a9.158,9.158,0,0,0,2.62-3.074c4.384-8.052-4.751-27.639,7.306-30.632,12.147-3.014,17.948,16.027,28.507,19.174,11.707,3.487,18.94-11.225,19.449-21.493.339-6.824-7.142-25.03-1.048-31.23,8.1-8.247,21.222,10.483,26.392,14.159,8.079,5.747,21.191,12.317,28.3,1.96,7.189-10.468,4.512-24.16,8-35.765,1.3-4.313,2.924-9.108,7.832-10.213,5.761-1.3,8.66,5.221,12.357,8.828,3.967,3.871,8.234,8.345,13.845,4.657A10.8,10.8,0,0,0,305.3,73.352C300.811,56.982,261.6,22.535,253.582,51.956Z" transform="translate(260.278 27.447)" fill="#cf63bd"/>
          <g id="그룹_849" data-name="그룹 849" transform="translate(1364.09 421.987)">
            <path id="패스_6981" data-name="패스 6981" d="M508.418,207.244c-1.229-8.85,7.171-10.656,14.045-11.534-6.994-.476-21.35-2.62-22.028-11.1-.973-12.185,13.794-5.647,20.108-4.58-5.847-3.6-14.039-21.233-.864-20.948,7.538.164,19.024,11.307,22.024,17.47-4.556-10.583,6.683-12.79,12.9-6.038,4.8,5.207,7.652,10.763,10.521,17.335-1.116-6.278,6.243-10.887,12.1-9.445,5.261,1.3,6.863,6.76,7.238,11.8.529,7.114-1.647,14.412-1.222,21.364a28.483,28.483,0,0,0,1.264,5.652l-.091-.711c.045.3.089.582.133.871a12.535,12.535,0,0,1,.583,4.751l-.093-.733c.314,4.542-.658,8.145-6.218,11.267-6.021,3.38-14.217,1.662-20.8,1.289-7.218-.407-15.081.06-22.233-1.156-8.767-1.493-15.177-12.143-4.92-16.8C523.284,217.431,509.8,217.186,508.418,207.244Z" transform="translate(0)" fill="#03a678"/>
            <path id="패스_6982" data-name="패스 6982" d="M532.393,186.264a1.606,1.606,0,0,1-1.025-.265c-5.792-3.734-13.147-3.5-19.392-6.165-1.925-.824-.764-3.865,1.169-3.04,4,1.709,8.341,2.314,12.508,3.42-3.193-2.938-6.372-5.9-9.663-8.763-1.573-1.365.318-4.018,1.9-2.643,9.759,8.478,19.021,16.964,29.353,24.715a69.319,69.319,0,0,0-2.838-6.841,76.554,76.554,0,0,0-3.945-8.743c-1.025-1.827,1.958-3.138,2.976-1.324a84.915,84.915,0,0,1,4.9,11.17c.776,2.023,2.744,5.741,2.254,8.209a139.672,139.672,0,0,1,11.557,8.936c-.5-4.809.153-9.8-.524-14.6-.293-2.071,2.927-2.567,3.22-.484.9,6.381-.778,13.35,1.615,19.448a27.719,27.719,0,0,1,3.682,5.345c.956,1.865-2.022,3.183-2.976,1.322a23.223,23.223,0,0,0-1.769-2.853,1.687,1.687,0,0,1-.345.165c-4.1,1.049-8.174.644-12.357.825-4.912.211-9.81,1.025-14.714,1.411-2.076.162-2.582-3.056-.485-3.222,4.907-.385,9.8-1.171,14.715-1.411,3.685-.18,7.34.125,10.963-.527-3.789-4.225-8.919-8.05-13.808-11.441a1.55,1.55,0,0,1-.435.149c-8.472,1.074-16.87-.993-25.346-.94-2.091.013-1.718-3.223.36-3.236,7.118-.045,14.2,1.491,21.306,1.211-1.322-.9-2.591-1.767-3.754-2.593C538.315,191.242,535.315,188.8,532.393,186.264Z" transform="translate(8.672 7.641)" fill="#35343d"/>
          </g>
          <g id="그룹_850" data-name="그룹 850" transform="translate(1758.24 445.126)">
            <path id="패스_6983" data-name="패스 6983" d="M262.483,139.377c3.3-2.387-.221-3.99-2.657-4.147-2.538-.165-5.349.523-7.78.112-.2-1.83,5.239-8.3,2.294-9.478-1.376-.55-4.154,1.849-5.012,2.7-1.22,1.206-1.728,3.463-3.212,4.289-1.466-1.536-3.121-9.42-6.685-7.772-1.991.921-1.522,8.7-.539,9.073l.359.18c-1.694,0-3.49.176-5.174,0-1.307-.135-4.16-1.1-5.174.084-2.295,2.69,5.083,7.416,6.478,8.673-.893,1.471-11.441,5.612-7.1,7.071,1.351.454,3.753-.033,5.1-.174,1.793-.188,3.98-1.716,5.66-1.436.33,3.509-2.243,6.965-2.64,10.543a1.367,1.367,0,0,0,1.97,1.388c2.15-1.055,3.787-4.477,4.82-5.979,1.17-1.7,1.688-1.4,2.706.1.995,1.471,1.907,2.944,2.974,4.372.688.922,1.35,2.576,2.829,2.158,1.158-.328,1.5-2.361,1.578-3.406.126-1.643-1.316-5.654.268-6.675,1.633-1.052,5.608.957,7.315,1.037,3.752.176,1.7-2.958.5-4.678a10.075,10.075,0,0,0-3.056-3.017c-1.1-.714-2.788-1.084-1.89-2.429C257.408,140.493,260.995,140.452,262.483,139.377Z" fill="#cf3a3a"/>
            <path id="패스_6984" data-name="패스 6984" d="M250,139.977a5.366,5.366,0,0,0-5.785-1.312c-2.021.837-2.631,2.2-2.37,3.793a4.667,4.667,0,0,0-.109,1.267c.177,3.285,4.207,5.015,6.917,3.438C250.908,145.852,251.913,142,250,139.977Z" fill="#0455bf"/>
          </g>
        </g>
      </g>
    </g>
  </g>
</svg>
