<svg xmlns="http://www.w3.org/2000/svg" xmlns:xlink="http://www.w3.org/1999/xlink" width="1920" height="189" viewBox="0 0 1920 189">
  <defs>
    <clipPath id="clip-path">
      <rect id="사각형_185" data-name="사각형 185" width="1920" height="189" transform="translate(0 3584)" fill="#fff" stroke="#707070" stroke-width="1"/>
    </clipPath>
    <clipPath id="clip-path-2">
      <path id="backgorund" d="M-7789.29,264.363V-542.025c19.561-6.933,39.144-13.008,58.665-18.39,59.394-16.492,118.452-26.175,176.668-31.685,58.194-5.824,115.636-7.325,172.283-5.916,113.307,2.784,223.572,16.156,331.5,35.735,53.987,9.628,107.409,20.865,160.324,33.361l39.583,9.652,39.4,10.114,37.895,9.6c12.484,3.236,25,6.179,37.538,9.068,50.117,11.722,100.506,21.976,151.112,30.327l38,5.9,38.057,5.133,38.127,4.14,38.158,3.3a1496.147,1496.147,0,0,0,152.524,3.888,1117.583,1117.583,0,0,0,150.786-14.333c16.354-2.818,32.654-5.916,48.838-9.433l209.549-78.38V264.363Z" transform="translate(7789.789 4182.137)" fill="#264bf2" stroke="rgba(0,0,0,0)" stroke-miterlimit="10" stroke-width="1"/>
    </clipPath>
  </defs>
  <g id="마스크_그룹_27" data-name="마스크 그룹 27" transform="translate(0 -3584)" clip-path="url(#clip-path)">
    <g id="그룹_1337" data-name="그룹 1337">
      <path id="backgorund-2" data-name="backgorund" d="M-7789.29,264.363V-542.025c19.561-6.933,39.144-13.008,58.665-18.39,59.394-16.492,118.452-26.175,176.668-31.685,58.194-5.824,115.636-7.325,172.283-5.916,113.307,2.784,223.572,16.156,331.5,35.735,53.987,9.628,107.409,20.865,160.324,33.361l39.583,9.652,39.4,10.114,37.895,9.6c12.484,3.236,25,6.179,37.538,9.068,50.117,11.722,100.506,21.976,151.112,30.327l38,5.9,38.057,5.133,38.127,4.14,38.158,3.3a1496.147,1496.147,0,0,0,152.524,3.888,1117.583,1117.583,0,0,0,150.786-14.333c16.354-2.818,32.654-5.916,48.838-9.433l209.549-78.38V264.363Z" transform="translate(7789.789 4182.137)" fill="#264bf2" stroke="rgba(0,0,0,0)" stroke-miterlimit="10" stroke-width="1"/>
      <g id="마스크_그룹_26" data-name="마스크 그룹 26" clip-path="url(#clip-path-2)">
        <g id="vector" transform="translate(-294.479 3706.146)">
          <g id="그룹_845" data-name="그룹 845" transform="translate(494.478 -59.145)">
            <path id="패스_6943" data-name="패스 6943" d="M192.777,362.479l-2.446-5.757a1.117,1.117,0,0,0-2.054,0l-2.4,5.644a1.117,1.117,0,0,1-.591.591l-5.757,2.444a1.116,1.116,0,0,0,0,2.054l5.642,2.4a1.113,1.113,0,0,1,.589.591l2.444,5.757a1.116,1.116,0,0,0,2.054,0l2.4-5.644a1.113,1.113,0,0,1,.589-.591l5.759-2.444a1.116,1.116,0,0,0,0-2.054l-5.644-2.4A1.113,1.113,0,0,1,192.777,362.479Z" transform="translate(-338.552 67.375)" fill="#fff"/>
            <path id="패스_6944" data-name="패스 6944" d="M562.186,354.462l-1.578-3.716a.721.721,0,0,0-1.327,0l-1.547,3.643a.722.722,0,0,1-.38.383l-3.716,1.578a.72.72,0,0,0,0,1.325l3.642,1.547a.723.723,0,0,1,.381.383l1.578,3.718a.722.722,0,0,0,1.327,0l1.549-3.645a.719.719,0,0,1,.381-.381l3.718-1.578a.722.722,0,0,0,0-1.327l-3.644-1.547A.733.733,0,0,1,562.186,354.462Z" transform="translate(1042.066 177.14)" fill="#fff"/>
            <path id="패스_6945" data-name="패스 6945" d="M69.39,34.3l-2.446-5.755a1.116,1.116,0,0,0-2.054,0l-2.4,5.642a1.117,1.117,0,0,1-.591.591l-5.757,2.444a1.116,1.116,0,0,0,0,2.054l5.642,2.4a1.123,1.123,0,0,1,.591.591l2.442,5.757a1.116,1.116,0,0,0,2.054,0l2.4-5.644a1.11,1.11,0,0,1,.589-.589l5.759-2.446a1.116,1.116,0,0,0,0-2.054l-5.644-2.4A1.113,1.113,0,0,1,69.39,34.3Z" transform="translate(-19.151 -20.11)" fill="#fff"/>
            <path id="패스_6946" data-name="패스 6946" d="M170.068,306.925l6.172,1a1.117,1.117,0,0,0,1.1-1.737l-3.494-5.04a1.118,1.118,0,0,1-.184-.815l1.006-6.174a1.116,1.116,0,0,0-1.737-1.1l-5.04,3.49a1.109,1.109,0,0,1-.815.184l-6.174-1.006a1.115,1.115,0,0,0-1.1,1.737l3.492,5.042a1.118,1.118,0,0,1,.184.815l-1.006,6.174a1.117,1.117,0,0,0,1.737,1.1l5.042-3.492A1.109,1.109,0,0,1,170.068,306.925Z" transform="translate(-197.118 400.722)" fill="#fff"/>
            <path id="패스_6947" data-name="패스 6947" d="M479.075,124.436l-2.446-5.757a1.116,1.116,0,0,0-2.054,0l-2.4,5.644a1.116,1.116,0,0,1-.591.591l-5.757,2.444a1.117,1.117,0,0,0,0,2.054l5.642,2.4a1.116,1.116,0,0,1,.591.591l2.442,5.757a1.116,1.116,0,0,0,2.054,0l2.4-5.644a1.117,1.117,0,0,1,.591-.591l5.757-2.444a1.116,1.116,0,0,0,0-2.054l-5.642-2.4A1.113,1.113,0,0,1,479.075,124.436Z" transform="translate(549.718 21.143)" fill="#fff"/>
            <path id="패스_6948" data-name="패스 6948" d="M729.861,223.992l-2.444-5.755a1.116,1.116,0,0,0-2.054,0l-2.4,5.642a1.11,1.11,0,0,1-.591.591l-5.757,2.444a1.116,1.116,0,0,0,0,2.054l5.64,2.4a1.11,1.11,0,0,1,.591.591l2.444,5.757a1.116,1.116,0,0,0,2.054,0l2.4-5.644a1.113,1.113,0,0,1,.591-.589l5.759-2.446a1.117,1.117,0,0,0,0-2.054l-5.644-2.4A1.117,1.117,0,0,1,729.861,223.992Z" transform="translate(835.58 -90.928)" fill="#fff"/>
            <path id="패스_6949" data-name="패스 6949" d="M444.852,180.875l-2.444-5.757a1.116,1.116,0,0,0-2.054,0l-2.4,5.644a1.12,1.12,0,0,1-.589.591l-5.757,2.444a1.114,1.114,0,0,0,0,2.052l5.64,2.4a1.117,1.117,0,0,1,.591.591l2.444,5.757a1.116,1.116,0,0,0,2.054,0l2.4-5.644a1.117,1.117,0,0,1,.591-.591l5.757-2.446a1.115,1.115,0,0,0,0-2.052l-5.644-2.4A1.113,1.113,0,0,1,444.852,180.875Z" transform="translate(323.488 113.647)" fill="#fff"/>
            <path id="패스_6950" data-name="패스 6950" d="M456.728,377.318,455.15,373.6a.719.719,0,0,0-1.324,0l-1.545,3.64a.723.723,0,0,1-.383.381l-3.712,1.576a.72.72,0,0,0,0,1.325l3.638,1.547a.717.717,0,0,1,.383.381l1.576,3.712a.719.719,0,0,0,1.323,0l1.547-3.642a.729.729,0,0,1,.383-.381l3.712-1.578a.718.718,0,0,0,0-1.323l-3.64-1.547A.726.726,0,0,1,456.728,377.318Z" transform="translate(1075.836 344.001)" fill="#fff"/>
            <path id="패스_6951" data-name="패스 6951" d="M115.089,33.119l-1.578-3.712a.719.719,0,0,0-1.323,0l-1.547,3.64a.723.723,0,0,1-.381.383L106.547,35a.72.72,0,0,0,0,1.325l3.638,1.545a.719.719,0,0,1,.381.381l1.576,3.714a.72.72,0,0,0,1.325,0l1.547-3.64a.719.719,0,0,1,.381-.381l3.714-1.578a.72.72,0,0,0,0-1.325L115.47,33.5A.713.713,0,0,1,115.089,33.119Z" transform="translate(52.043 34.626)" fill="#fff"/>
            <path id="패스_6952" data-name="패스 6952" d="M186.254,138.941l-1.578-3.712a.72.72,0,0,0-1.325,0l-1.545,3.64a.719.719,0,0,1-.381.381l-3.712,1.578a.719.719,0,0,0,0,1.324l3.64,1.547a.72.72,0,0,1,.381.381l1.576,3.714a.72.72,0,0,0,1.325,0l1.547-3.64a.713.713,0,0,1,.381-.381l3.714-1.578a.721.721,0,0,0,0-1.325l-3.64-1.547A.713.713,0,0,1,186.254,138.941Z" transform="translate(49.868 222.399)" fill="#fff"/>
            <path id="패스_6953" data-name="패스 6953" d="M604.1,477.914l-1.578-3.712a.718.718,0,0,0-1.323,0l-1.547,3.64a.713.713,0,0,1-.381.381l-3.712,1.576a.72.72,0,0,0,0,1.325l3.638,1.547a.713.713,0,0,1,.381.381l1.576,3.714a.721.721,0,0,0,1.325,0l1.547-3.641a.725.725,0,0,1,.381-.381l3.714-1.576a.72.72,0,0,0,0-1.325l-3.64-1.547A.713.713,0,0,1,604.1,477.914Z" transform="translate(473.32 386.803)" fill="#fff"/>
            <path id="패스_6954" data-name="패스 6954" d="M721.406,27.961l-1.578-3.712a.721.721,0,0,0-1.325,0l-1.545,3.64a.723.723,0,0,1-.381.383l-3.714,1.576a.721.721,0,0,0,0,1.325l3.64,1.545a.716.716,0,0,1,.381.383l1.576,3.712a.72.72,0,0,0,1.325,0l1.547-3.64a.713.713,0,0,1,.381-.381l3.714-1.578a.721.721,0,0,0,0-1.325l-3.64-1.545A.723.723,0,0,1,721.406,27.961Z" transform="translate(707.575 153.309)" fill="#fff"/>
            <path id="패스_6955" data-name="패스 6955" d="M566.414,321.252l-1.245-2.93a.568.568,0,0,0-1.046,0l-1.22,2.873a.57.57,0,0,1-.3.3l-2.93,1.245a.568.568,0,0,0,0,1.046l2.873,1.22a.566.566,0,0,1,.3.3l1.245,2.93a.568.568,0,0,0,1.046,0l1.222-2.875a.563.563,0,0,1,.3-.3l2.932-1.247a.569.569,0,0,0,0-1.046l-2.875-1.22A.572.572,0,0,1,566.414,321.252Z" transform="translate(440.657 244.636)" fill="#fff"/>
            <path id="패스_6956" data-name="패스 6956" d="M320.781,331.984l-1.245-2.932a.569.569,0,0,0-1.046,0l-1.22,2.875a.566.566,0,0,1-.3.3l-2.93,1.245a.568.568,0,0,0,0,1.046l2.875,1.222a.563.563,0,0,1,.3.3l1.245,2.932a.569.569,0,0,0,1.046,0l1.22-2.875a.573.573,0,0,1,.3-.3l2.932-1.245a.569.569,0,0,0,0-1.046l-2.875-1.222A.563.563,0,0,1,320.781,331.984Z" transform="translate(1189.498 198.512)" fill="#fff"/>
            <path id="패스_6957" data-name="패스 6957" d="M278.362,457.568l-1.245-2.932a.569.569,0,0,0-1.046,0l-1.22,2.875a.579.579,0,0,1-.3.3l-2.932,1.243a.569.569,0,0,0,0,1.046l2.873,1.222a.563.563,0,0,1,.3.3l1.245,2.932a.568.568,0,0,0,1.046,0l1.222-2.875a.57.57,0,0,1,.3-.3l2.932-1.245a.568.568,0,0,0,0-1.046l-2.873-1.222A.566.566,0,0,1,278.362,457.568Z" transform="translate(177.788 369.033)" fill="#fff"/>
            <path id="패스_6958" data-name="패스 6958" d="M41.808,263.383l3.144.511a.568.568,0,0,0,.558-.884l-1.779-2.567a.561.561,0,0,1-.094-.415l.511-3.144a.568.568,0,0,0-.884-.558L40.7,258.1a.57.57,0,0,1-.415.094l-3.144-.513a.568.568,0,0,0-.558.884l1.779,2.569a.561.561,0,0,1,.094.415l-.513,3.144a.569.569,0,0,0,.886.559l2.567-1.779A.569.569,0,0,1,41.808,263.383Z" transform="translate(-36.478 188.282)" fill="#fff"/>
            <path id="패스_6959" data-name="패스 6959" d="M135.935,406.911l3.144.513a.569.569,0,0,0,.558-.886l-1.781-2.567a.578.578,0,0,1-.094-.415l.513-3.142a.567.567,0,0,0-.884-.558l-2.567,1.777a.561.561,0,0,1-.415.094l-3.144-.513a.569.569,0,0,0-.558.886l1.779,2.567a.57.57,0,0,1,.094.415l-.513,3.144a.569.569,0,0,0,.886.558L135.52,407A.569.569,0,0,1,135.935,406.911Z" transform="translate(49.419 319.263)" fill="#fff"/>
            <path id="패스_6960" data-name="패스 6960" d="M275.255,196.962l-1.245-2.932a.569.569,0,0,0-1.046,0l-1.22,2.875a.57.57,0,0,1-.3.3l-2.932,1.245a.567.567,0,0,0,0,1.044l2.875,1.222a.576.576,0,0,1,.3.3l1.245,2.932a.568.568,0,0,0,1.046,0l1.222-2.873a.566.566,0,0,1,.3-.3l2.932-1.245a.569.569,0,0,0,0-1.046l-2.875-1.22A.573.573,0,0,1,275.255,196.962Z" transform="translate(174.951 131.211)" fill="#fff"/>
            <path id="패스_6961" data-name="패스 6961" d="M363.654,168.926l-1.245-2.932a.569.569,0,0,0-1.046,0l-1.22,2.875a.57.57,0,0,1-.3.3l-2.932,1.245a.568.568,0,0,0,0,1.046l2.873,1.22a.573.573,0,0,1,.3.3l1.245,2.932a.569.569,0,0,0,1.046,0l1.222-2.875a.563.563,0,0,1,.3-.3l2.932-1.245a.568.568,0,0,0,0-1.046l-2.873-1.222A.573.573,0,0,1,363.654,168.926Z" transform="translate(676.567 -10.419)" fill="#fff"/>
            <path id="패스_6962" data-name="패스 6962" d="M154.169,148.257l-1.245-2.932a.569.569,0,0,0-1.046,0l-1.22,2.875a.566.566,0,0,1-.3.3l-2.93,1.245a.568.568,0,0,0,0,1.046l2.873,1.22a.573.573,0,0,1,.3.3l1.245,2.932a.569.569,0,0,0,1.046,0l1.22-2.875a.573.573,0,0,1,.3-.3l2.932-1.245a.569.569,0,0,0,0-1.046l-2.875-1.222A.569.569,0,0,1,154.169,148.257Z" transform="translate(-42.548 141.764)" fill="#fff"/>
          </g>
          <path id="패스_6964" data-name="패스 6964" d="M276.386,67.484a13,13,0,0,1-2.863-.281q-.2,1.28-.392,2.559c-.243,1.593-2.8,1.021-2.458-.58q.261-1.228.52-2.456a21.458,21.458,0,0,0-2.706-.461,1.123,1.123,0,0,1-.088-2.243c1.084-.126,2.255-.239,3.429-.285l.884-4.162c.266-1.251,2.1-.78,1.913.449q-.29,1.893-.581,3.787a8.5,8.5,0,0,1,3.026.778A1.554,1.554,0,0,1,276.386,67.484Zm-16-3.466a8.536,8.536,0,0,0-3.026-.778q.29-1.893.581-3.787c.187-1.23-1.647-1.7-1.913-.449l-.884,4.162c-1.174.046-2.347.159-3.427.285a1.123,1.123,0,0,0,.084,2.243,21.423,21.423,0,0,1,2.708.461q-.261,1.228-.52,2.456c-.34,1.6,2.215,2.173,2.458.58q.2-1.28.394-2.559a12.748,12.748,0,0,0,2.861.281A1.554,1.554,0,0,0,260.39,64.018Zm32.946,1.6a8.483,8.483,0,0,0-3.024-.777l.579-3.787c.189-1.232-1.647-1.7-1.913-.449q-.439,2.08-.882,4.16c-1.176.048-2.347.161-3.429.287a1.122,1.122,0,0,0,.086,2.242,21.9,21.9,0,0,1,2.708.463l-.522,2.456c-.339,1.6,2.215,2.171,2.46.578q.2-1.28.392-2.557a12.992,12.992,0,0,0,2.863.281A1.554,1.554,0,0,0,293.336,65.615Zm19.336,1.2a8.515,8.515,0,0,0-3.024-.778q.29-1.891.581-3.785c.189-1.232-1.649-1.7-1.913-.449l-.884,4.16c-1.174.046-2.347.161-3.429.287a1.122,1.122,0,0,0,.086,2.242,21.491,21.491,0,0,1,2.708.463l-.522,2.456c-.339,1.6,2.217,2.171,2.46.578q.2-1.28.392-2.559a12.892,12.892,0,0,0,2.863.283A1.554,1.554,0,0,0,312.672,66.813ZM282.333,87.491a12.866,12.866,0,0,1-2.863-.281q-.2,1.279-.392,2.559c-.245,1.593-2.8,1.019-2.46-.58q.261-1.228.52-2.456a21.452,21.452,0,0,0-2.706-.461,1.123,1.123,0,0,1-.086-2.243c1.083-.126,2.253-.239,3.427-.285l.884-4.162c.266-1.251,2.1-.782,1.913.449l-.579,3.787a8.526,8.526,0,0,1,3.024.778A1.553,1.553,0,0,1,282.333,87.491Zm-16-3.466a8.456,8.456,0,0,0-3.024-.778l.579-3.787c.189-1.232-1.647-1.7-1.913-.449l-.884,4.162c-1.174.046-2.345.159-3.427.287a1.122,1.122,0,0,0,.086,2.242,21.458,21.458,0,0,1,2.706.461q-.258,1.228-.52,2.456c-.339,1.6,2.215,2.173,2.46.58q.2-1.28.392-2.559a12.981,12.981,0,0,0,2.863.281A1.553,1.553,0,0,0,266.334,84.026Zm32.948,1.6a8.536,8.536,0,0,0-3.024-.778q.29-1.891.58-3.785c.189-1.232-1.647-1.7-1.913-.449l-.884,4.16c-1.174.048-2.345.161-3.427.287A1.123,1.123,0,0,0,290.7,87.3a21.112,21.112,0,0,1,2.706.461q-.261,1.228-.52,2.456c-.34,1.6,2.215,2.171,2.46.578q.2-1.28.392-2.559a12.87,12.87,0,0,0,2.863.283A1.555,1.555,0,0,0,299.282,85.623Zm19.336,1.2a8.535,8.535,0,0,0-3.026-.778q.293-1.891.581-3.785c.189-1.232-1.647-1.7-1.913-.449l-.884,4.16c-1.174.046-2.345.159-3.427.287a1.122,1.122,0,0,0,.086,2.242,21.465,21.465,0,0,1,2.706.463q-.258,1.228-.52,2.456c-.34,1.6,2.215,2.171,2.46.578q.2-1.28.392-2.559a12.869,12.869,0,0,0,2.863.283A1.554,1.554,0,0,0,318.618,86.82Zm-47.376,16.93a12.894,12.894,0,0,1-2.865-.281l-.39,2.559c-.245,1.593-2.8,1.019-2.46-.58q.258-1.228.52-2.454a21.1,21.1,0,0,0-2.708-.463,1.123,1.123,0,0,1-.084-2.243c1.083-.126,2.253-.239,3.427-.285l.884-4.162c.266-1.251,2.1-.782,1.913.449q-.29,1.893-.581,3.787a8.535,8.535,0,0,1,3.026.778A1.553,1.553,0,0,1,271.242,103.75Zm-16-3.466a8.474,8.474,0,0,0-3.024-.778q.29-1.893.581-3.787c.189-1.232-1.647-1.7-1.913-.449L250,99.43c-1.174.048-2.345.161-3.429.287a1.123,1.123,0,0,0,.086,2.243,21.483,21.483,0,0,1,2.708.461q-.261,1.228-.52,2.456c-.34,1.6,2.215,2.173,2.458.58q.2-1.279.392-2.559a12.889,12.889,0,0,0,2.863.281A1.553,1.553,0,0,0,255.241,100.285Zm32.948,1.6a8.525,8.525,0,0,0-3.024-.778q.29-1.891.58-3.785c.189-1.232-1.645-1.7-1.911-.449l-.884,4.16c-1.176.048-2.347.159-3.429.287a1.123,1.123,0,0,0,.086,2.243,21.2,21.2,0,0,1,2.708.461l-.522,2.456c-.339,1.6,2.215,2.171,2.46.578q.2-1.28.392-2.557a12.981,12.981,0,0,0,2.863.281A1.554,1.554,0,0,0,288.189,101.882Zm19.338,1.2a8.535,8.535,0,0,0-3.026-.778q.29-1.891.581-3.785c.187-1.232-1.649-1.7-1.913-.451q-.442,2.083-.884,4.162c-1.174.046-2.347.159-3.429.287a1.122,1.122,0,0,0,.086,2.242,21.486,21.486,0,0,1,2.708.463l-.522,2.456c-.339,1.6,2.215,2.171,2.46.578q.2-1.279.392-2.559a12.9,12.9,0,0,0,2.865.283A1.555,1.555,0,0,0,307.527,103.079Z" transform="translate(96.778 -15.82)" fill="#3eff43"/>
          <path id="패스_6965" data-name="패스 6965" d="M388.464,158.543c2.3-4.454,82.122,30.934,92.8,37.177,3.24,1.893,7.432,2.743,11.049.845-21.888-17.911-75.8-35.534-75.945-37.794s24.5,6.74,34.813,13.082c15.075,8,29.794,11.992,42.6,21,4.544,2.668,4.99-.425,6.268-1.352,5.468-4.873,10.029-19.678,6.306-21.237s-2.678-1.469-4.789-1.821c-3.186-.532,5.112-5.107,2.94-7.425s-69.447-30.559-67.032-33.621,24.609,12.747,37,18.7c10.313,4.263,20.834,8.3,31.246,12.715,1.446-2.75,2.339-5.371.681-8-1.863-4.866-14.562-5.436-20.61-8.995-16.1-11.387-36.2-16.9-53.1-26.508-12.39-6.767-26.063-9.706-39.728-12.449-18.977-3.016-37.626-13.639-54.072-12.648-14.748,1.452-8.086,25.615-2.813,30.182s2.133,4.523-1.364,5.015-12.814,7.608-12.556,14.132,98.5,31.645,133.909,46.732c-22.459-10.615-40.77-18.749-64.834-24.854C389.881,161.188,387.36,160.677,388.464,158.543Z" transform="translate(154.096 376.26)" fill="#f2b705"/>
          <path id="패스_6966" data-name="패스 6966" d="M253.582,51.956c-3.007,11.03-2.169,23.528-7.013,34.053-7.692,16.706-18.65-10.173-24.653-15.582-7.13-6.422-18.533-13.482-26.384-6.082-7.826,7.379-8.685,21.371-10.9,31.288-1.654,7.4-3.94,25.929-13.742,27.489-10.192,1.622-18.621-17.3-29.63-10.856-8.84,5.175-12.908,23.888-13.333,33.147-.358,7.826.9,27.765,12.606,27.222,1.752-.082,4.829-1.574,6.885-3.41a9.158,9.158,0,0,0,2.62-3.074c4.384-8.052-4.751-27.639,7.306-30.632,12.147-3.014,17.948,16.027,28.507,19.174,11.707,3.487,18.94-11.225,19.449-21.493.339-6.824-7.142-25.03-1.048-31.23,8.1-8.247,21.222,10.483,26.392,14.159,8.079,5.747,21.191,12.317,28.3,1.96,7.189-10.468,4.512-24.16,8-35.765,1.3-4.313,2.924-9.108,7.832-10.213,5.761-1.3,8.66,5.221,12.357,8.828,3.967,3.871,8.234,8.345,13.845,4.657A10.8,10.8,0,0,0,305.3,73.352C300.811,56.982,261.6,22.535,253.582,51.956Z" transform="translate(260.278 27.447)" fill="#cf63bd"/>
          <g id="그룹_849" data-name="그룹 849" transform="translate(1364.09 421.987)">
            <path id="패스_6981" data-name="패스 6981" d="M508.418,207.244c-1.229-8.85,7.171-10.656,14.045-11.534-6.994-.476-21.35-2.62-22.028-11.1-.973-12.185,13.794-5.647,20.108-4.58-5.847-3.6-14.039-21.233-.864-20.948,7.538.164,19.024,11.307,22.024,17.47-4.556-10.583,6.683-12.79,12.9-6.038,4.8,5.207,7.652,10.763,10.521,17.335-1.116-6.278,6.243-10.887,12.1-9.445,5.261,1.3,6.863,6.76,7.238,11.8.529,7.114-1.647,14.412-1.222,21.364a28.483,28.483,0,0,0,1.264,5.652l-.091-.711c.045.3.089.582.133.871a12.535,12.535,0,0,1,.583,4.751l-.093-.733c.314,4.542-.658,8.145-6.218,11.267-6.021,3.38-14.217,1.662-20.8,1.289-7.218-.407-15.081.06-22.233-1.156-8.767-1.493-15.177-12.143-4.92-16.8C523.284,217.431,509.8,217.186,508.418,207.244Z" transform="translate(0)" fill="#03a678"/>
            <path id="패스_6982" data-name="패스 6982" d="M532.393,186.264a1.606,1.606,0,0,1-1.025-.265c-5.792-3.734-13.147-3.5-19.392-6.165-1.925-.824-.764-3.865,1.169-3.04,4,1.709,8.341,2.314,12.508,3.42-3.193-2.938-6.372-5.9-9.663-8.763-1.573-1.365.318-4.018,1.9-2.643,9.759,8.478,19.021,16.964,29.353,24.715a69.319,69.319,0,0,0-2.838-6.841,76.554,76.554,0,0,0-3.945-8.743c-1.025-1.827,1.958-3.138,2.976-1.324a84.915,84.915,0,0,1,4.9,11.17c.776,2.023,2.744,5.741,2.254,8.209a139.672,139.672,0,0,1,11.557,8.936c-.5-4.809.153-9.8-.524-14.6-.293-2.071,2.927-2.567,3.22-.484.9,6.381-.778,13.35,1.615,19.448a27.719,27.719,0,0,1,3.682,5.345c.956,1.865-2.022,3.183-2.976,1.322a23.223,23.223,0,0,0-1.769-2.853,1.687,1.687,0,0,1-.345.165c-4.1,1.049-8.174.644-12.357.825-4.912.211-9.81,1.025-14.714,1.411-2.076.162-2.582-3.056-.485-3.222,4.907-.385,9.8-1.171,14.715-1.411,3.685-.18,7.34.125,10.963-.527-3.789-4.225-8.919-8.05-13.808-11.441a1.55,1.55,0,0,1-.435.149c-8.472,1.074-16.87-.993-25.346-.94-2.091.013-1.718-3.223.36-3.236,7.118-.045,14.2,1.491,21.306,1.211-1.322-.9-2.591-1.767-3.754-2.593C538.315,191.242,535.315,188.8,532.393,186.264Z" transform="translate(8.672 7.641)" fill="#35343d"/>
          </g>
          <g id="그룹_850" data-name="그룹 850" transform="translate(1758.24 445.126)">
            <path id="패스_6983" data-name="패스 6983" d="M262.483,139.377c3.3-2.387-.221-3.99-2.657-4.147-2.538-.165-5.349.523-7.78.112-.2-1.83,5.239-8.3,2.294-9.478-1.376-.55-4.154,1.849-5.012,2.7-1.22,1.206-1.728,3.463-3.212,4.289-1.466-1.536-3.121-9.42-6.685-7.772-1.991.921-1.522,8.7-.539,9.073l.359.18c-1.694,0-3.49.176-5.174,0-1.307-.135-4.16-1.1-5.174.084-2.295,2.69,5.083,7.416,6.478,8.673-.893,1.471-11.441,5.612-7.1,7.071,1.351.454,3.753-.033,5.1-.174,1.793-.188,3.98-1.716,5.66-1.436.33,3.509-2.243,6.965-2.64,10.543a1.367,1.367,0,0,0,1.97,1.388c2.15-1.055,3.787-4.477,4.82-5.979,1.17-1.7,1.688-1.4,2.706.1.995,1.471,1.907,2.944,2.974,4.372.688.922,1.35,2.576,2.829,2.158,1.158-.328,1.5-2.361,1.578-3.406.126-1.643-1.316-5.654.268-6.675,1.633-1.052,5.608.957,7.315,1.037,3.752.176,1.7-2.958.5-4.678a10.075,10.075,0,0,0-3.056-3.017c-1.1-.714-2.788-1.084-1.89-2.429C257.408,140.493,260.995,140.452,262.483,139.377Z" fill="#cf3a3a"/>
            <path id="패스_6984" data-name="패스 6984" d="M250,139.977a5.366,5.366,0,0,0-5.785-1.312c-2.021.837-2.631,2.2-2.37,3.793a4.667,4.667,0,0,0-.109,1.267c.177,3.285,4.207,5.015,6.917,3.438C250.908,145.852,251.913,142,250,139.977Z" fill="#0455bf"/>
          </g>
        </g>
      </g>
    </g>
  </g>
</svg>
