<svg xmlns="http://www.w3.org/2000/svg" width="42.25" height="41.764" viewBox="0 0 42.25 41.764">
  <g id="A105_Office_Building_Real_Estate" data-name="A105 ,Office ,Building ,Real ,Estate" transform="translate(-2865.517 -6139.13)">
    <g id="그룹_683" data-name="그룹 683" transform="translate(2865.517 6139.13)">
      <path id="패스_4668" data-name="패스 4668" d="M2893.218,6144.621h-9.669a.923.923,0,0,0-.911.9v19.911a.923.923,0,0,0,.911.9h9.669a.924.924,0,0,0,.912-.9v-19.911A1.037,1.037,0,0,0,2893.218,6144.621Zm-5.255,9.573v-7.838h.841v7.838Zm4.344,1.735v.9h-7.848v-.9Zm0,2.567v.9h-7.848v-.9Zm-7.848,2.637h7.848v.832h-7.848Zm7.848-6.939h-1.751v-7.838h1.751Zm-7.848-7.838h1.753v7.838h-1.753Zm0,18.245v-.9h7.848v.9Z" transform="translate(-2855.384 -6135.88)" fill="#fff"/>
      <path id="패스_4669" data-name="패스 4669" d="M2906.855,6144.4h-11.42v-4.371a.923.923,0,0,0-.911-.9H2880.51a.922.922,0,0,0-.91.9v23.449h-3.5a.923.923,0,0,0-.91.9v7.769a.922.922,0,0,0,.91.9h.912v6.036h-6.1V6175.9l2.453-3.26a.893.893,0,0,0-.21-1.25.859.859,0,0,0-1.262.208l-1.05,1.389v-2.15l3.153-2.359a.882.882,0,0,0,.21-1.248.9.9,0,0,0-1.261-.209l-2.523,1.873-.49-1.457a.863.863,0,0,0-1.121-.554.851.851,0,0,0-.561,1.109l.841,2.5v.693l-2.1-1.6a.912.912,0,0,0-1.261.208.894.894,0,0,0,.21,1.25l3.154,2.357v5.688h-2.663a.9.9,0,1,0,0,1.8h40.428a.924.924,0,0,0,.912-.9V6145.3A1.038,1.038,0,0,0,2906.855,6144.4Zm-13.173-3.468v3.468h-3.5a.923.923,0,0,0-.912.9v1.736h-3.5V6145.3a.922.922,0,0,0-.911-.9h-3.5v-3.468Zm7.918,35.59h-19.268v-.9H2901.6Zm-19.268,1.733H2901.6v.832h-19.268Zm19.268-4.37h-19.268v-.9h19.337v.9Zm-17.517-26.849h-2.662v-.9h2.662Zm1.752,5.2v-.9h3.5v.9Zm3.5,1.733v.833h-3.5v-.9h3.5Zm-5.254-1.733h-2.662v-.9h2.662Zm0,1.733v.833h-2.662v-.9h2.662Zm0,2.567v.9h-2.662v-.9Zm1.752,0h3.5v.9h-3.5Zm3.5-6.937h-3.5v-.9h3.5Zm-5.254,0h-2.662v-.9h2.662Zm-2.662,9.573h2.662v.9h-2.662Zm4.414,0h3.5v.9h-3.5Zm3.5,2.567v1.733h-3.5v-1.733Zm-7.916,0h2.662v1.733h-2.662Zm-4.344,3.469h12.26v6.1h-12.33v-6.1Zm1.75,13.874v-6.1h1.751v6.1Zm24.522,0v-6.937a.923.923,0,0,0-.911-.9h-11.35v-25.114h14.854v32.954Z" transform="translate(-2865.517 -6139.129)" fill="#fff"/>
      <path id="패스_4670" data-name="패스 4670" d="M2868.35,6146.786h.491a2.245,2.245,0,0,0,2.171,1.734h4.414a2.151,2.151,0,1,0,0-4.3h-2.241a2.246,2.246,0,0,0-2.173-1.733h-2.662a2.15,2.15,0,1,0,0,4.3Zm0-2.637h2.662a.451.451,0,0,1,.42.417v.139a.749.749,0,0,0,.14.763.868.868,0,0,0,.7.348h3.152a.416.416,0,1,1,0,.832h-4.414a.449.449,0,0,1-.421-.416v-.139a.751.751,0,0,0-.14-.764.866.866,0,0,0-.7-.345h-1.4a.451.451,0,0,1-.42-.418A.4.4,0,0,1,2868.35,6144.149Z" transform="translate(-2865.126 -6137.144)" fill="#fff"/>
    </g>
  </g>
</svg>
