<svg xmlns="http://www.w3.org/2000/svg" width="41.02" height="39.118" viewBox="0 0 41.02 39.118">
  <g id="icon" transform="translate(-2804.22 -2027.132)">
    <path id="패스_6985" data-name="패스 6985" d="M2843.644,2046.114a18.818,18.818,0,0,0-1.752-7.928c-.025-.055-.049-.11-.074-.164-.221-.465-.452-.922-.708-1.365-.046-.08-.091-.161-.138-.24-.218-.368-.451-.724-.691-1.074-.1-.144-.2-.286-.3-.427q-.326-.449-.676-.875c-.145-.176-.3-.346-.448-.516-.136-.154-.277-.305-.418-.454-.262-.278-.533-.546-.811-.807q-.185-.172-.373-.341c-.293-.261-.6-.512-.906-.755-.145-.113-.289-.227-.437-.336-.2-.148-.4-.294-.611-.434q-.417-.282-.847-.542c-.189-.114-.381-.223-.574-.331-.294-.163-.591-.321-.894-.469-.18-.088-.363-.171-.546-.253-.308-.138-.619-.27-.935-.392-.138-.053-.275-.108-.415-.159-.4-.141-.8-.268-1.2-.384-.115-.033-.229-.067-.344-.1-.442-.117-.891-.218-1.344-.3-.1-.02-.207-.038-.31-.056-.473-.081-.951-.147-1.434-.192-.075-.008-.151-.012-.226-.018-.517-.042-1.038-.069-1.564-.069s-1.048.027-1.565.069c-.075.006-.151.01-.226.018-.483.045-.961.111-1.434.192-.1.018-.207.036-.31.056-.453.085-.9.186-1.344.3-.115.031-.229.065-.344.1-.405.116-.806.243-1.2.384-.14.051-.279.106-.417.159-.316.122-.626.254-.934.392-.184.083-.368.166-.549.254-.3.148-.6.305-.89.468-.193.108-.386.217-.575.331q-.431.26-.846.541c-.208.141-.411.287-.613.436-.147.108-.29.221-.433.333q-.468.366-.911.758-.187.167-.37.338-.42.393-.815.812c-.14.148-.279.3-.414.449-.152.171-.3.343-.45.519q-.349.426-.675.872-.156.213-.306.431c-.24.349-.473.7-.69,1.071-.048.08-.093.161-.139.242-.256.443-.487.9-.708,1.365-.025.054-.05.109-.074.164a18.828,18.828,0,0,0-1.752,7.927c0,.05.005.1.007.148a4.82,4.82,0,0,0,.562,7.389v3.02a5.924,5.924,0,0,0,5.917,5.917h2.149a16.453,16.453,0,0,0,20.7,0h2.287a5.923,5.923,0,0,0,5.916-5.917v-3.02a4.818,4.818,0,0,0,.43-7.51Zm-.431,4.994a3.1,3.1,0,0,1-2.334,1.713,16.016,16.016,0,0,0,0-6.16,3.169,3.169,0,0,1,1.375.591c.021.016.046.025.069.04a.879.879,0,0,0,.15.081,3.078,3.078,0,0,1,.738,3.735Zm-1.69,5.563a4.231,4.231,0,0,1-4.226,4.226h-.5a16.5,16.5,0,0,0,3.657-6.34,4.824,4.824,0,0,0,1.067-.134Zm-9.5,5.917a14.71,14.71,0,0,1-14.715,0,14.922,14.922,0,0,1-1.3-.846q-.552-.4-1.066-.845a14.853,14.853,0,0,1-4.368-6.582c-.089-.272-.16-.55-.233-.829s-.15-.54-.205-.817a14.722,14.722,0,0,1,0-5.84c0-.017,0-.035.008-.052.055-.274.134-.538.2-.806l0-.012c.07-.265.137-.53.221-.789l.014-.038c.142-.435.3-.862.481-1.278.143-.329.3-.649.466-.965s.333-.6.511-.885c.043-.07.084-.142.129-.211.326-.1.648-.206.98-.3-.022.165-.04.334-.06.5-.032.279-.063.559-.088.845s-.042.561-.06.845c-.042.666-.072,1.343-.072,2.042a.837.837,0,0,0,.081.357.824.824,0,0,0,.21.281.843.843,0,0,0,.554.208.773.773,0,0,0,.118-.009,50.907,50.907,0,0,0,6.784-1.53c1.244-.368,2.568-.816,3.893-1.349.648-.26,1.294-.542,1.933-.845.559-.265,1.11-.545,1.649-.845a21.678,21.678,0,0,0,2.493-1.608,40.814,40.814,0,0,1,6.586,1.4c.043.067.083.136.124.205.176.285.349.572.505.87s.312.618.451.936a14.613,14.613,0,0,1,.52,1.366l0,.007c.084.26.151.528.221.794l.007.028c.071.272.148.541.2.819l0,.011a14.711,14.711,0,0,1,0,5.8c-.055.277-.131.547-.2.819s-.14.554-.227.823a14.842,14.842,0,0,1-4.384,6.627q-.513.447-1.065.845A15.07,15.07,0,0,1,2832.019,2062.588Zm-24.082-5.917v-2.248a4.828,4.828,0,0,0,.927.126,16.493,16.493,0,0,0,3.66,6.348h-.36A4.231,4.231,0,0,1,2807.937,2056.671Zm.558-16.626c.051-.136.1-.27.158-.4.188-.459.386-.912.608-1.351.145-.288.291-.575.451-.853.073-.125.153-.243.228-.366.2-.331.414-.657.638-.973.064-.089.13-.175.2-.263.255-.344.52-.678.8-1l.156-.179q.468-.528.976-1.016c.029-.028.058-.058.088-.086a17.279,17.279,0,0,1,3.548-2.595c.111-.06.221-.119.333-.177h0q.61-.318,1.247-.588c.039-.017.079-.03.119-.046.11-.046.222-.087.333-.13q.54-.211,1.1-.388c.155-.049.312-.1.469-.139.34-.1.684-.181,1.032-.257.174-.038.347-.078.523-.11.358-.067.72-.117,1.085-.161.163-.019.323-.046.487-.061.527-.048,1.058-.078,1.6-.078s1.069.03,1.6.078c.163.015.324.042.486.061.365.044.728.095,1.086.161.176.032.348.072.522.11q.523.112,1.035.257.234.066.465.139c.373.117.74.248,1.1.389.109.043.22.083.328.128a17.233,17.233,0,0,1,5.25,3.409c.029.026.056.054.084.081q.51.491.98,1.021l.153.175q.419.487.8,1.007c.064.086.13.171.192.259.225.317.437.644.641.977.074.121.154.239.225.362.162.279.308.568.454.858.221.437.419.889.606,1.346q.083.2.161.41c.156.412.3.832.422,1.261.016.053.032.106.047.16-.986-.415-2.011-.779-3.055-1.115-.447-.143-.9-.28-1.352-.408-.49-.138-.98-.277-1.482-.4-1.028-.248-2.084-.449-3.151-.623-.347-.057-.691-.121-1.041-.17-.371-.052-.749-.088-1.124-.131a47.8,47.8,0,0,0-5.432-.318,46.369,46.369,0,0,0-9.433.958c-.3.062-.6.125-.9.193-.139.033-.282.058-.421.091-.162.04-.32.087-.481.128-.336.085-.669.176-1,.27-.456.128-.905.265-1.351.408-1.045.336-2.07.7-3.056,1.115.014-.05.029-.1.044-.149C2808.192,2040.888,2808.336,2040.463,2808.5,2040.045Zm33.43,5.089,0,.028a4.249,4.249,0,0,0-.469-.13,4.648,4.648,0,0,0-1-.127l0-.017c-.132-.428-.289-.843-.454-1.255-.14-.351-.3-.693-.46-1.032.374.142.744.288,1.109.441s.747.322,1.113.492c.029.189.037.383.06.573C2841.858,2044.449,2841.906,2044.788,2841.925,2045.134Zm-34.442-.824c.027-.259.042-.521.08-.776.517-.24,1.037-.477,1.573-.693.212-.086.435-.158.65-.24-.182.376-.351.758-.5,1.149s-.292.755-.412,1.145h0a4.489,4.489,0,0,0-.479.042c-.122.015-.243.032-.362.057a4.776,4.776,0,0,0-.635.168C2807.41,2044.874,2807.453,2044.594,2807.483,2044.31Zm14.393-1.467c-.957.324-1.889.6-2.766.845-1.916.526-3.559.861-4.542,1.04.012-.352.031-.7.054-1.04.019-.286.044-.566.07-.845s.057-.567.09-.845c.039-.317.08-.629.126-.934a44.4,44.4,0,0,1,9.754-1.065c1.1,0,2.2.052,3.277.128a28.041,28.041,0,0,1-3.8,1.871C2823.385,2042.307,2822.625,2042.589,2821.876,2042.843Zm-15.629,5.493a3.25,3.25,0,0,1,1.541-1.488c.05-.022.1-.039.153-.058s.123-.039.185-.058c.04-.012.08-.026.121-.037.064-.015.129-.023.194-.034a16.026,16.026,0,0,0,0,6.146,3.073,3.073,0,0,1-.5-.154,3.105,3.105,0,0,1-1.69-4.317Z" fill="#fff"/>
    <path id="패스_6986" data-name="패스 6986" d="M2817.467,2036.861a.846.846,0,0,0,.739.3,63.123,63.123,0,0,1,12.775,0,.864.864,0,0,0,.088,0,.846.846,0,0,0,.651-.306.91.91,0,0,0,.076-.119.84.84,0,0,0,.082-.663c-.03-.1-.067-.2-.1-.3a9.554,9.554,0,0,0-.475-1.161,9.055,9.055,0,0,0-.547-.972,8.662,8.662,0,0,0-.725-.951,8.108,8.108,0,0,0-1.039-.995,7.028,7.028,0,0,0-4.4-1.586,6.831,6.831,0,0,0-2.792.6,7.392,7.392,0,0,0-1.217.688,7.842,7.842,0,0,0-.894.731,8.67,8.67,0,0,0-1.85,2.567,9.459,9.459,0,0,0-.457,1.152c-.024.074-.052.145-.074.22a.842.842,0,0,0,.12.722C2817.443,2036.821,2817.452,2036.843,2817.467,2036.861Zm1.935-1.506c.08-.164.176-.314.266-.468a6.917,6.917,0,0,1,.8-1.111,6.073,6.073,0,0,1,1.631-1.308,5.273,5.273,0,0,1,1.8-.607,4.774,4.774,0,0,1,2.683.366,5.787,5.787,0,0,1,1.688,1.083c.141.13.273.274.4.419a6.929,6.929,0,0,1,.808,1.095c.1.174.211.345.3.531-.675-.055-1.359-.09-2.045-.123-2.029-.1-4.085-.1-6.116-.011C2820.878,2035.255,2820.135,2035.3,2819.4,2035.355Z" fill="#fff"/>
    <path id="패스_6987" data-name="패스 6987" d="M2818.812,2049.064a.7.7,0,0,0-.694.693v1.377a.693.693,0,0,0,1.387,0v-1.377A.7.7,0,0,0,2818.812,2049.064Z" fill="#fff"/>
    <path id="패스_6988" data-name="패스 6988" d="M2830.772,2049.064a.7.7,0,0,0-.694.693v1.377a.694.694,0,0,0,1.387,0v-1.377A.7.7,0,0,0,2830.772,2049.064Z" fill="#fff"/>
    <path id="패스_6989" data-name="패스 6989" d="M2826.785,2049.914a.762.762,0,0,0-1.048.244,1.225,1.225,0,0,1-2.014,0,.761.761,0,0,0-1.293.8,2.708,2.708,0,0,0,4.6,0A.762.762,0,0,0,2826.785,2049.914Z" fill="#fff"/>
  </g>
</svg>
