<svg xmlns="http://www.w3.org/2000/svg" width="42.232" height="39.297" viewBox="0 0 42.232 39.297">
  <g id="A106_Home_House_Building_Real_Estate" data-name="A106 ,Home ,House ,Building ,Real Estate" transform="translate(-2931.179 -6132.634)">
    <g id="그룹_689" data-name="그룹 689">
      <path id="패스_4676" data-name="패스 4676" d="M2973,6154.087l-11.212-7.628a.834.834,0,0,0-.963,0l-7.222,4.972v-8.514h1.72a.905.905,0,0,0,.893-.885.937.937,0,0,0-.412-.749l-11.212-7.628a.836.836,0,0,0-.963,0l-11.142,7.7a.992.992,0,0,0-.344.953.885.885,0,0,0,.825.613h1.72v23.837h-2.614a.906.906,0,0,0-.894.886v3.4a.906.906,0,0,0,.894.886h37.9a.906.906,0,0,0,.894-.886v-15.392h1.72a.96.96,0,0,0,.825-.613A1.231,1.231,0,0,0,2973,6154.087Zm-11.694-5.925,3.44,2.383h-3.44a.886.886,0,1,0,0,1.771h5.916l2.476,1.7h-16.783Zm-23.11-8.65h5.915a.885.885,0,1,0,0-1.77h-3.439l3.439-2.384,8.391,5.789h-16.783Zm-5.228,28.945h11.211v1.7h-11.211Zm26.619,1.7v-5.517a2.132,2.132,0,0,1,4.264,0v5.517Zm9.492-12.8H2962.2a.886.886,0,1,0,0,1.771h6.878v11.1h-3.439v-5.517a3.852,3.852,0,0,0-7.7,0v5.517h-12.106v-2.656a.905.905,0,0,0-.894-.885h-8.529v-7.628h22.354a.907.907,0,0,0,.9-.886.849.849,0,0,0-.9-.817h-22.354v-14.439h15.476v9.672l-2.2,1.5a1,1,0,0,0-.344.953c0,.069,0,.069.069.136a.845.845,0,0,0,.757.477h18.915Z" fill="#fff"/>
      <path id="패스_4677" data-name="패스 4677" d="M2950.163,6152.248v-6.811a.906.906,0,0,0-.9-.885h-10.317a.906.906,0,0,0-.894.885v6.811a.906.906,0,0,0,.894.885h10.317A.906.906,0,0,0,2950.163,6152.248Zm-1.72-4.223h-1.72v-1.7h1.72Zm-3.439,0h-1.72v-1.7H2945Zm-5.159-1.7h1.72v1.7h-1.72Zm0,3.4h1.72v1.7h-1.72Zm3.439,0H2945v1.7h-1.72Zm5.159,1.7h-1.72v-1.7h1.72Z" fill="#fff"/>
      <path id="패스_4678" data-name="패스 4678" d="M2949.268,6160.761h-10.317a.906.906,0,0,0-.894.885v3.406a.906.906,0,0,0,.894.885h10.317a.906.906,0,0,0,.9-.885v-3.406A.906.906,0,0,0,2949.268,6160.761Zm-.825,3.406h-8.6v-1.7h8.6Z" fill="#fff"/>
      <path id="패스_4679" data-name="패스 4679" d="M2960.067,6140.738a2.133,2.133,0,0,0,2.133,2.111h1.788a2.2,2.2,0,0,0,2.132,1.7h4.334a2.132,2.132,0,0,0,2.132-2.111,2.194,2.194,0,0,0-2.2-2.112h-.482a2.2,2.2,0,0,0-2.132-1.7H2962.2A2.132,2.132,0,0,0,2960.067,6140.738Zm2.133-.409h5.571a.443.443,0,0,1,.413.409v.136a.736.736,0,0,0,.137.749.848.848,0,0,0,.688.341h1.376a.408.408,0,1,1,0,.817h-4.333a.441.441,0,0,1-.413-.408v-.137a.735.735,0,0,0-.138-.749.961.961,0,0,0-.688-.34h-2.682a.443.443,0,0,1-.413-.409A.515.515,0,0,1,2962.2,6140.329Z" fill="#fff"/>
      <path id="패스_4680" data-name="패스 4680" d="M2958.348,6138.627a3,3,0,1,0-3.026-3A2.993,2.993,0,0,0,2958.348,6138.627Zm0-4.223a1.3,1.3,0,0,1,1.307,1.294,1.243,1.243,0,0,1-1.307,1.226,1.3,1.3,0,0,1-1.307-1.294A1.205,1.205,0,0,1,2958.348,6134.4Z" fill="#fff"/>
    </g>
  </g>
</svg>
