<svg xmlns="http://www.w3.org/2000/svg" width="58.921" height="40.647" viewBox="0 0 58.921 40.647">
  <g id="icon" transform="translate(-2934.349 -2025.697)">
    <path id="패스_6990" data-name="패스 6990" d="M2957.387,2047.247h-.154a.7.7,0,0,0-.693.694v1.683a.7.7,0,0,0,.693.694h.154a.7.7,0,0,0,.694-.694v-1.683A.7.7,0,0,0,2957.387,2047.247Z" fill="#fff"/>
    <path id="패스_6991" data-name="패스 6991" d="M2970.677,2047.247h-.154a.7.7,0,0,0-.694.694v1.683a.7.7,0,0,0,.694.694h.154a.7.7,0,0,0,.694-.694v-1.683A.7.7,0,0,0,2970.677,2047.247Z" fill="#fff"/>
    <path id="패스_6992" data-name="패스 6992" d="M2966.17,2048.192a.847.847,0,0,0-1.164.271,1.361,1.361,0,0,1-2.238,0,.846.846,0,0,0-1.437.894,3.009,3.009,0,0,0,5.111,0A.846.846,0,0,0,2966.17,2048.192Z" fill="#fff"/>
    <path id="패스_6993" data-name="패스 6993" d="M2990.076,2028.423a17.572,17.572,0,0,0-13.16,2.564,19.481,19.481,0,0,0-26.489-.189,17.648,17.648,0,0,0-12.866-2.377,4.228,4.228,0,0,0-2.678,1.638,3.48,3.48,0,0,0-.405,2.843,39.144,39.144,0,0,0,1.434,4.835,3.568,3.568,0,0,0,1.943,2.032,3.071,3.071,0,0,0,1.123.208,4.578,4.578,0,0,0,2.144-.608,19.127,19.127,0,0,1,4.34-1.625,19.352,19.352,0,0,0-1.012,3.129,5.369,5.369,0,0,0,1.287,10.295,18.349,18.349,0,0,0,36.141.024,5.37,5.37,0,0,0,.725-10.551,19.327,19.327,0,0,0-1.011-3.031,19.537,19.537,0,0,1,4.906,1.759,4.576,4.576,0,0,0,2.144.608,3.078,3.078,0,0,0,1.124-.208,3.559,3.559,0,0,0,1.932-2,39.115,39.115,0,0,0,1.444-4.863,3.48,3.48,0,0,0-.405-2.843A4.228,4.228,0,0,0,2990.076,2028.423Zm-.921,9.77a2.272,2.272,0,0,1-1.86-.315,21.206,21.206,0,0,0-6.453-2.126l-.2-.036a19.673,19.673,0,0,0-2.521-3.506,16.16,16.16,0,0,1,11.667-2.12,2.639,2.639,0,0,1,1.538.909,1.839,1.839,0,0,1,.167,1.512,38.724,38.724,0,0,1-1.383,4.663A1.945,1.945,0,0,1,2989.155,2038.193Zm-7.039,11.047c.028-.413.047-.829.047-1.249a18.285,18.285,0,0,0-.888-5.635.238.238,0,0,1,.026,0,3.491,3.491,0,0,1,.815,6.887Zm-2.128,1.815a16.464,16.464,0,0,1-32.35.038c-.06-.309-.1-.623-.144-.938s-.074-.63-.1-.949c-.03-.4-.062-.805-.062-1.215a16.377,16.377,0,0,1,.845-5.174c.068-.206.147-.406.223-.608.2,0,.39-.006.588-.006.472,0,.949,0,1.405-.015,12.113-.417,18.607-5.539,20.673-7.52,1.223,1.581,4.118,5.011,7.332,6.663.2.1.4.19.6.277.054.127.093.261.143.39.115.293.227.587.326.888a16.4,16.4,0,0,1,.819,5.1c0,.394-.032.78-.059,1.168-.023.319-.052.636-.093.951S2980.047,2050.743,2979.988,2051.055Zm-37.012-5.206a3.493,3.493,0,0,1,3.366-3.483,18.266,18.266,0,0,0-.885,5.625c0,.4.017.8.043,1.2A3.489,3.489,0,0,1,2942.976,2045.849Zm37.521-5.486a7.433,7.433,0,0,1-1.3-.527,12.6,12.6,0,0,1-1.783-1.128,27.451,27.451,0,0,1-4.5-4.442c-.436-.534-.8-1.012-1.062-1.388a.849.849,0,0,0-.656-.359.785.785,0,0,0-.684.3l-.081.09c-.771.842-7.316,7.491-21.278,7.612q-.516,0-1.046,0c-.339,0-.685-.016-1.032-.029-.258-.009-.511-.015-.773-.028a17.606,17.606,0,0,1,1.227-3.128c.162-.321.324-.643.5-.952.193-.333.4-.654.615-.972a17.992,17.992,0,0,1,1.289-1.691c.234-.273.469-.544.718-.8s.485-.479.735-.71a17.813,17.813,0,0,1,24.788.406q.374.37.725.761c.245.272.486.546.714.832.283.356.555.722.811,1.1.215.316.419.641.614.972.183.31.35.631.514.953a17.634,17.634,0,0,1,1.277,3.227C2980.716,2040.434,2980.606,2040.4,2980.5,2040.363Zm-42.021-2.166a1.931,1.931,0,0,1-.981-1.051,38.563,38.563,0,0,1-1.373-4.635,1.843,1.843,0,0,1,.162-1.505,2.608,2.608,0,0,1,1.561-.918,17.531,17.531,0,0,1,3.121-.284,15.994,15.994,0,0,1,8.218,2.214,19.67,19.67,0,0,0-2.761,3.79,21.4,21.4,0,0,0-6.1,2.07A2.277,2.277,0,0,1,2938.476,2038.2Z" fill="#fff"/>
  </g>
</svg>
