<svg xmlns="http://www.w3.org/2000/svg" width="44.498" height="42" viewBox="0 0 44.498 42">
  <g id="icon" transform="translate(-3122.736 -2025.132)">
    <path id="패스_6994" data-name="패스 6994" d="M3146.821,2050.572a.8.8,0,0,0-1.093.255,1.278,1.278,0,0,1-2.1,0,.794.794,0,1,0-1.348.839,2.824,2.824,0,0,0,4.8,0A.8.8,0,0,0,3146.821,2050.572Z" fill="#fff"/>
    <path id="패스_6995" data-name="패스 6995" d="M3137.168,2046.443a2.7,2.7,0,0,0-2.693,2.693v.442a.845.845,0,1,0,1.69,0v-.442a1,1,0,0,1,2.006,0v.442a.846.846,0,0,0,1.691,0v-.442A2.7,2.7,0,0,0,3137.168,2046.443Z" fill="#fff"/>
    <path id="패스_6996" data-name="패스 6996" d="M3152.186,2046.443a2.7,2.7,0,0,0-2.693,2.693v.442a.845.845,0,1,0,1.69,0v-.442a1,1,0,0,1,2.006,0v.442a.845.845,0,0,0,1.691,0v-.442A2.7,2.7,0,0,0,3152.186,2046.443Z" fill="#fff"/>
    <path id="패스_6997" data-name="패스 6997" d="M3165.309,2047.4a20.586,20.586,0,0,0-1.992-7.447,7.963,7.963,0,0,0-7.9-13.829,4.9,4.9,0,0,0-6.385,2.471,20.469,20.469,0,0,0-8.181-.173,4.9,4.9,0,0,0-6.3-2.3,7.961,7.961,0,0,0-8.6,13.36,20.6,20.6,0,0,0-2.227,7.915,1.054,1.054,0,0,0,.087.474,4.98,4.98,0,0,0-.687,2.5,5.051,5.051,0,0,0,5.045,5.046c.016,0,.031,0,.048,0a17.194,17.194,0,0,0,32.6,0c.016,0,.031,0,.047,0a5.051,5.051,0,0,0,5.045-5.046,4.968,4.968,0,0,0-.687-2.5A1.041,1.041,0,0,0,3165.309,2047.4Zm-35.745,6.382a15.64,15.64,0,0,1-.5-3.638c0-.08-.009-.161-.009-.24a15.437,15.437,0,0,1,.507-3.853c0-.015.006-.03.01-.045a15.415,15.415,0,0,1,.845-2.408,3.925,3.925,0,0,1,3.36-1.822h.083c.787.013,1.55.043,2.275.072,3.272.13,5.853.231,7.15-1.294.342-.4.61-.75.836-1.041a.568.568,0,1,1,1.117,0c.226.291.494.639.836,1.041,1.3,1.525,3.877,1.424,7.15,1.294.725-.029,1.488-.059,2.275-.072h.083a3.83,3.83,0,0,1,2.621.972,15.461,15.461,0,0,1,1.265,3.258c0,.015.006.03.01.045a15.436,15.436,0,0,1,.507,3.853c0,.079-.007.16-.008.24a15.63,15.63,0,0,1-.5,3.638,15.444,15.444,0,0,1-29.908,0Zm-4.693-20.68a5.82,5.82,0,0,1,7.761-5.5,4.86,4.86,0,0,0-.736,4.782,21.12,21.12,0,0,0-4.865,5.248A5.824,5.824,0,0,1,3124.871,2033.1Zm11.608-5.238c.083,0,.161.017.242.024a2.759,2.759,0,0,1,1.935,1.051q-.492.146-.974.314c-.341.12-.677.25-1.01.386s-.661.283-.985.436a21.02,21.02,0,0,0-1.934,1.041,2.765,2.765,0,0,1,1.673-3.042A2.754,2.754,0,0,1,3136.479,2027.864Zm-8.136,11.717c.183-.315.377-.622.577-.925a18.917,18.917,0,0,1,4.161-4.483c.289-.224.575-.45.876-.657s.629-.4.949-.6c.5-.3,1.013-.584,1.541-.839.329-.159.666-.3,1-.441s.662-.268,1-.385c.252-.087.507-.166.763-.242.362-.108.727-.2,1.1-.289.354-.082.708-.165,1.069-.227a18.027,18.027,0,0,1,7.2.2c.37.083.737.171,1.1.276.381.11.76.224,1.131.358.213.077.419.17.629.254.34.137.68.274,1.011.43s.673.337,1,.518c.379.208.747.433,1.111.666q.5.322.984.675c.3.222.6.444.889.683a18.93,18.93,0,0,1,3.805,4.294c.2.317.4.643.581.972s.354.638.515.968a18.442,18.442,0,0,1,1.481,4.261,5.175,5.175,0,0,0-.6-.2l-.673-.792a7,7,0,0,0-2.046-2.994c-.137-.115-.28-.226-.431-.332a5.792,5.792,0,0,0-1.637-.814,6.1,6.1,0,0,0-1.353-.249c-.163-.012-.327-.024-.5-.024h-.123c-.241,0-.476.012-.713.019-.55.016-1.091.035-1.609.055-2.369.094-4.815.191-5.439-.543-.316-.372-.565-.694-.774-.964-.632-.819-1.178-1.525-2.247-1.525s-1.614.706-2.246,1.525c-.209.27-.458.592-.774.964-.625.735-3.071.638-5.44.543l-1.015-.038c-.427-.015-.862-.028-1.307-.036h-.122a6.405,6.405,0,0,0-.848.061,5.77,5.77,0,0,0-3.035,1.329c-.076.063-.153.125-.225.19a7.009,7.009,0,0,0-1.849,2.811l-.7.757a5.31,5.31,0,0,0-.906.275,18.506,18.506,0,0,1,1.606-4.543C3127.979,2040.2,3128.162,2039.891,3128.343,2039.581Zm24.907-11.693c.081-.007.159-.024.242-.024a2.754,2.754,0,0,1,2.585,3.76,20.927,20.927,0,0,0-2-1.189c-.316-.164-.635-.322-.959-.471s-.65-.284-.981-.415-.662-.252-1-.366A2.763,2.763,0,0,1,3153.25,2027.888Zm6.014-.622a5.83,5.83,0,0,1,3.031,10.814,21.079,21.079,0,0,0-4.466-5.147,4.887,4.887,0,0,0-.489-5.334A5.786,5.786,0,0,1,3159.264,2027.266Zm-33.756,21.2a3.271,3.271,0,0,1,2.019-1.29,16.769,16.769,0,0,0-.237,2.723c0,.095.008.192.01.287,0,.064-.01.129-.01.192a16.938,16.938,0,0,0,.319,3.223,3.269,3.269,0,0,1-2.1-5.135Zm35.919,5.135a16.86,16.86,0,0,0,.319-3.223c0-.063-.009-.128-.01-.191,0-.1.01-.193.01-.288a16.8,16.8,0,0,0-.24-2.741,3.277,3.277,0,0,1-.079,6.443Z" fill="#fff"/>
  </g>
</svg>
