<svg id="그룹_833" data-name="그룹 833" xmlns="http://www.w3.org/2000/svg" width="76.289" height="84.831" viewBox="0 0 76.289 84.831">
  <path id="패스_6913" data-name="패스 6913" d="M-149.5,94.3a19.276,19.276,0,0,0-6.009,2.469,14.33,14.33,0,0,0-4.809,4.436,8.629,8.629,0,0,0-.824,8.116c1.447,3.082,5.151,4.72,8.53,4.3a12.615,12.615,0,0,0,8.359-5.356c2.158-2.972,5.537-8.26,2.811-11.82a6.6,6.6,0,0,0-4.651-2.353A11.75,11.75,0,0,0-149.5,94.3Z" transform="translate(161.809 -57.737)" fill="#3eff43"/>
  <path id="패스_6914" data-name="패스 6914" d="M-155.536,110.06a6.629,6.629,0,0,0,5.677,7,6.63,6.63,0,0,0,7.015-5.664C-141.972,103.247-154.695,101.907-155.536,110.06Z" transform="translate(176.92 -32.26)" fill="#3eff43"/>
  <path id="패스_6915" data-name="패스 6915" d="M-150.516,100.468c-.636,1.943.157,4.056,1.177,5.828a8.536,8.536,0,0,0,3.321,3.557,3.845,3.845,0,0,0,4.542-.605,5.177,5.177,0,0,0,1.009-2.62c.445-2.705,1.2-8.93-2.073-10.336C-145.242,95.13-149.678,97.917-150.516,100.468Z" transform="translate(188.589 -52.96)" fill="#3eff43"/>
  <path id="패스_6916" data-name="패스 6916" d="M-153.568,95.731c.048,1.566.147,3.27,1.166,4.456,1.2,1.4,3.3,1.621,5.113,1.293a10.047,10.047,0,0,0,6.437-3.988c3.249-4.665.564-11.091-4.744-12.849C-152.2,82.455-153.708,91.251-153.568,95.731Z" transform="translate(181.733 -81.327)" fill="#3eff43"/>
  <path id="패스_6917" data-name="패스 6917" d="M-143.733,99.091a9.688,9.688,0,0,0,5.387,3.557,25.506,25.506,0,0,0,6.529.735,3.469,3.469,0,0,0,2.859-.838,2.992,2.992,0,0,0-.014-3.047c-1.464-3.218-6.255-7.538-9.593-8.776C-143.682,88.827-146.36,95.319-143.733,99.091Z" transform="translate(203.077 -66.604)" fill="#3eff43"/>
  <path id="패스_6918" data-name="패스 6918" d="M-137.847,99.671a4.362,4.362,0,0,0-4.025,3.194c-1.064,4.121,4.022,6.82,7.083,4.131a4.226,4.226,0,0,0-1.047-6.919A4.182,4.182,0,0,0-137.847,99.671Z" transform="translate(209.711 -44.136)" fill="#3eff43"/>
  <path id="패스_6919" data-name="패스 6919" d="M-143.941,86.87a2.765,2.765,0,0,0,1.389,2.066,6.692,6.692,0,0,0,2.449.776,6.9,6.9,0,0,0,3.512-.123c3.567-1.334,1.491-5.25-1.3-6.026C-139.926,83-144.116,84.278-143.941,86.87Z" transform="translate(205.039 -83.43)" fill="#3eff43"/>
</svg>
