<svg xmlns="http://www.w3.org/2000/svg" width="132" height="132" viewBox="0 0 132 132">
  <g id="그룹_1339" data-name="그룹 1339" transform="translate(-1225 -3933)">
    <circle id="icon" cx="66" cy="66" r="66" transform="translate(1225 3933)" fill="#fff"/>
    <g id="그룹_705" data-name="그룹 705" transform="translate(-1775.847 -1981.007)">
      <g id="그룹_703" data-name="그룹 703">
        <path id="패스_4710" data-name="패스 4710" d="M3109.236,5962.812c0-2.689-1.462-4.39-3.682-4.328-2.158.06-3.493,1.7-3.5,4.331-.007,4.428.015,8.856-.018,13.283a2.141,2.141,0,0,0,.9,1.934,7.029,7.029,0,0,1,.792,10.462c-2.944,3.141-6.07,6.112-9.114,9.159-.893.893-1.907,1.127-2.828.184-.955-.977-.538-1.936.336-2.8q4.267-4.236,8.5-8.506c1.613-1.634,1.853-3.2.821-4.817a3.46,3.46,0,0,0-5.417-.681c-1.084.937-2.074,1.987-3.067,3.023-3.851,4.016-8.721,5.944-14.082,6.734-3.981.587-6.617,3.35-6.63,7.361-.022,6.642.019,13.283-.032,19.924-.008,1.129.228,1.522,1.446,1.5,4.247-.082,8.5-.061,12.743-.01.992.012,1.338-.23,1.3-1.271-.077-2.391.016-4.787-.042-7.179a2.3,2.3,0,0,1,1.454-2.4c1.936-.916,3.867-1.85,5.743-2.882a4.163,4.163,0,0,1,.734-.32c7.616-3.407,10.8-8.7,11.858-10.93a22.322,22.322,0,0,0,1.8-9.509C3109.193,5977.65,3109.242,5970.231,3109.236,5962.812Z" fill="#fad1c2"/>
        <path id="패스_4711" data-name="패스 4711" d="M3061.469,6007.939c0-3.232.013-6.463,0-9.695-.019-3.8-2.169-6.665-5.838-7.288-6.887-1.169-12.811-3.924-17.4-9.374-1.709-2.029-3.92-2.049-5.49-.488s-1.428,3.631.437,5.517q4.1,4.151,8.25,8.253c.955.943,1.587,1.964.412,3.055-1.055.978-2.07.439-2.966-.466-2.862-2.893-5.779-5.732-8.611-8.653a7.089,7.089,0,0,1,.611-10.857,1.672,1.672,0,0,0,.807-1.436c-.032-4.787-.01-9.575-.023-14.362a3.492,3.492,0,0,0-1.762-3.127c-2.485-1.514-5.391.282-5.4,3.39q-.048,11.67-.005,23.34.039,12.867,11.547,18.68c2.816,1.422,5.621,2.868,8.465,4.232a2.416,2.416,0,0,1,1.551,2.523c-.066,2.392.024,4.788-.04,7.18-.026.942.255,1.207,1.2,1.2q6.552-.07,13.1,0c.962.011,1.2-.29,1.183-1.209C3061.44,6014.882,3061.47,6011.41,3061.469,6007.939Z" fill="#fad1c2"/>
      </g>
      <path id="패스_4712" data-name="패스 4712" d="M3084.966,5964.538c2.753-3.263,4.685-6.909,4.526-11.352,0-.538.03-1.077,0-1.613-.313-4.875-3.9-9.483-8.264-10.643-4.681-1.243-8.562.322-11.573,4.667-2.774,4-2.813,4.009-5.592-.013-2.292-3.317-5.288-5.394-9.465-5.009a10.545,10.545,0,0,0-9.265,6.887c-2.373,5.724-1.214,11.016,2.44,15.8,5.2,6.812,12.173,11.782,18.482,17.44a.769.769,0,0,0,1.215,0C3073.406,5975.428,3079.809,5970.65,3084.966,5964.538Z" fill="#e13944"/>
      <g id="그룹_704" data-name="그룹 704">
        <path id="패스_4713" data-name="패스 4713" d="M3056.85,5987.543c-.985-.226-1.994-.347-2.985-.55a21.868,21.868,0,0,1-12.637-7.57,7.509,7.509,0,0,0-4.8-2.883c-1.03-.124-1.205-.481-1.194-1.416.051-4.187.027-8.374.021-12.561-.007-4.477-3.026-7.684-7.212-7.672-4.167.011-7.15,3.23-7.152,7.732,0,7.9-.083,15.792.02,23.687.123,9.492,4.516,16.483,12.825,21,2.4,1.306,4.867,2.5,7.353,3.64a2.075,2.075,0,0,1,1.381,2.316c-.1,2.389-.036,4.784-.029,7.177,0,2.2.494,2.679,2.755,2.682q4.307.006,8.613,0c2.931,0,5.862.01,8.793,0,1.867-.008,2.458-.586,2.46-2.434.01-7.657.024-15.313,0-22.97A10.458,10.458,0,0,0,3056.85,5987.543Zm3.456,32.018q-6.552-.078-13.1,0c-.941.011-1.222-.254-1.2-1.2.064-2.392-.026-4.788.04-7.18a2.416,2.416,0,0,0-1.551-2.523c-2.844-1.364-5.649-2.81-8.465-4.232q-11.49-5.8-11.547-18.68-.036-11.67.005-23.34c.013-3.108,2.919-4.9,5.4-3.39a3.492,3.492,0,0,1,1.762,3.127c.013,4.787-.009,9.575.023,14.362a1.672,1.672,0,0,1-.807,1.436,7.089,7.089,0,0,0-.611,10.857c2.832,2.921,5.749,5.76,8.611,8.653.9.9,1.911,1.444,2.966.466,1.175-1.091.543-2.112-.412-3.055q-4.152-4.1-8.25-8.253c-1.865-1.886-2.009-3.954-.437-5.517s3.781-1.541,5.49.488c4.591,5.45,10.515,8.205,17.4,9.374,3.669.623,5.819,3.49,5.838,7.288.016,3.232,0,6.463,0,9.695,0,3.471-.029,6.943.02,10.413C3061.5,6019.271,3061.268,6019.572,3060.306,6019.561Z" fill="#070304"/>
        <path id="패스_4714" data-name="패스 4714" d="M3112.825,5962.287a7.184,7.184,0,1,0-14.359.082c-.012,4.249.011,8.5-.023,12.745,0,.441.382,1.243-.435,1.3-3.355.223-5.252,2.648-7.284,4.795a20.354,20.354,0,0,1-12.463,6.013c-5.24.739-9.451,4.764-9.555,9.791-.167,8.015-.051,16.036-.051,24.054a1.85,1.85,0,0,0,2.116,2.066q9.246,0,18.49,0a1.8,1.8,0,0,0,2.014-1.984c.021-1.256,0-2.513.006-3.769.01-1.854-.619-4.115.221-5.45.706-1.123,2.338-1.664,3.822-2.3.277-.1,11.05-3.817,15-12.589a23.283,23.283,0,0,0,2.492-9.977C3112.855,5978.8,3112.839,5970.544,3112.825,5962.287Zm-17.957,43.541c-1.876,1.032-3.807,1.966-5.743,2.882a2.3,2.3,0,0,0-1.454,2.4c.058,2.392-.035,4.788.042,7.179.033,1.041-.313,1.283-1.3,1.271-4.247-.051-8.5-.072-12.743.01-1.218.023-1.454-.37-1.446-1.5.051-6.641.01-13.282.032-19.924.013-4.011,2.649-6.774,6.63-7.361,5.361-.79,10.231-2.718,14.082-6.734.993-1.036,1.983-2.086,3.067-3.023a3.46,3.46,0,0,1,5.417.681c1.032,1.617.792,3.183-.821,4.817q-4.225,4.278-8.5,8.506c-.874.868-1.291,1.827-.336,2.8.921.943,1.935.709,2.828-.184,3.044-3.047,6.17-6.018,9.114-9.159a7.029,7.029,0,0,0-.792-10.462,2.141,2.141,0,0,1-.9-1.934c.033-4.427.011-8.855.018-13.283,0-2.629,1.339-4.271,3.5-4.331,2.22-.062,3.679,1.639,3.682,4.328.006,7.419-.043,14.838.021,22.257a22.322,22.322,0,0,1-1.8,9.509c-1.054,2.23-4.242,7.523-11.858,10.93A4.163,4.163,0,0,0,3094.868,6005.828Z" fill="#070304"/>
        <path id="패스_4715" data-name="패스 4715" d="M3087.691,5966.97c4.76-5.65,6.9-11.985,4.63-19.272-1.648-5.292-5-9.092-10.592-10.377a13.078,13.078,0,0,0-14.144,5.027c-.923,1.181-1.172.276-1.631-.273a13.43,13.43,0,0,0-15.137-4.436c-6.164,1.97-10.307,8.275-10.288,15.657.013,4.824,1.856,9.372,5.46,13.652,5.043,5.99,11.27,10.7,17.115,15.814,4.169,3.65,3.385,3.6,7.478.03C3076.435,5977.682,3082.648,5972.956,3087.691,5966.97Zm-21.44,13.731c-6.309-5.658-13.278-10.628-18.482-17.44-3.654-4.783-4.813-10.075-2.44-15.8a10.545,10.545,0,0,1,9.265-6.887c4.177-.385,7.173,1.692,9.465,5.009,2.779,4.022,2.818,4.015,5.592.013,3.011-4.345,6.892-5.91,11.573-4.667,4.368,1.16,7.951,5.768,8.264,10.643.034.536,0,1.075,0,1.613.159,4.443-1.773,8.089-4.526,11.352-5.157,6.112-11.56,10.89-17.5,16.163A.769.769,0,0,1,3066.251,5980.7Z" fill="#070304"/>
      </g>
    </g>
  </g>
</svg>
