<svg xmlns="http://www.w3.org/2000/svg" width="182" height="138.358" viewBox="0 0 182 138.358">
  <g id="vector" transform="translate(-454.776 -49.275)">
    <g id="그룹_843" data-name="그룹 843" transform="translate(483.632 49.275)">
      <g id="그룹_842" data-name="그룹 842">
        <g id="그룹_838" data-name="그룹 838">
          <path id="패스_6937" data-name="패스 6937" d="M572.861,63.94c27.555,18.34,33.161,46.057,32.767,66.417-.175,9.053-2.765,19.208-4.175,25.814-1.02.048-2.038.095-3.056.151-2.3.126-4.6.346-6.907.6a115.629,115.629,0,0,0,2.933-23.6c.406-26.1-8.991-46.383-27.928-60.289-34.843-25.583-65.486-9.968-90.879,6.394-.544-1.624-1.1-3.24-1.683-4.844-.552-1.515-1.163-2.986-1.81-4.426C498.993,52.9,531.582,36.466,572.861,63.94Z" transform="translate(-472.123 -49.275)" fill="#cf3a3a"/>
        </g>
        <g id="그룹_839" data-name="그룹 839" transform="translate(2.723 8.541)">
          <path id="패스_6938" data-name="패스 6938" d="M567.5,67.327c25.551,17.659,29.771,44.488,28.815,63.886a120.506,120.506,0,0,1-3.237,22.034c-3.255.3-6.518.712-9.781,1.2a109.893,109.893,0,0,0,3.347-21.865c1.131-24.861-7.492-43.821-25.629-56.357-31.293-21.63-59.991-8.9-84.308,6.4-.966-2.948-1.933-5.9-2.943-8.821C499.772,57.518,532.376,43.054,567.5,67.327Z" transform="translate(-473.76 -54.41)" fill="#03a678"/>
        </g>
        <g id="그룹_840" data-name="그룹 840" transform="translate(5.197 17.917)">
          <path id="패스_6939" data-name="패스 6939" d="M561.851,70.819c24.435,15.751,27.758,41.046,26.243,59.492a114.643,114.643,0,0,1-3.553,20.066c-3.189.441-6.381.948-9.57,1.484a104.505,104.505,0,0,0,3.635-19.873c1.847-23.638-6.012-41.291-23.355-52.474-27.763-17.9-54.226-7.817-77.24,6.087-.971-2.69-1.871-5.416-2.763-8.149C500.211,62.375,530.461,50.581,561.851,70.819Z" transform="translate(-475.247 -60.046)" fill="#cf63bd"/>
        </g>
        <g id="그룹_841" data-name="그룹 841" transform="translate(7.206 27.637)">
          <path id="패스_6940" data-name="패스 6940" d="M554.132,75.4c23.753,14.584,26.524,38.939,24.669,56.8A108.28,108.28,0,0,1,576,147.687c-.7.115-1.392.223-2.088.341-2.427.408-4.859.835-7.294,1.263a98.1,98.1,0,0,0,2.811-15.217c2.286-22.888-5.105-39.742-21.964-50.1C523.57,69.307,500.251,75.8,479.3,87.223c-.7-1.7-1.337-3.41-1.945-5.075-.313-.857-.6-1.725-.9-2.59C499.7,66.7,526.72,58.57,554.132,75.4Z" transform="translate(-476.455 -65.889)" fill="#0455bf"/>
        </g>
      </g>
    </g>
    <path id="패스_6941" data-name="패스 6941" d="M592.845,153.692c1.539-1.342,6.667-10.738,7.135-15.856s-2.044-10.573-6.6-12.955-9.319-1.266-11.99,3.126c1.61-4.317,4.022-9.871,3.58-15.194-.581-6.985-4.285-10.536-9.369-12.178a14.465,14.465,0,0,0-13.225,2.881c-3.407,3-5.652,7.065-7.77,11.075,2.387-3.663,1.331-8.994-1.978-11.851a11.7,11.7,0,0,0-12.326-1.4,15.478,15.478,0,0,0-8,9.881c.444-5.16-4.749-9.74-9.921-9.465s-9.588,4.576-10.937,9.577-1.772,14.013-.637,16.35C511.724,129.565,586.535,156.756,592.845,153.692Z" transform="translate(36.741 33.701)" fill="#f2b705"/>
    <path id="패스_6942" data-name="패스 6942" d="M537.2,111.584c1.549-1.329,6.759-10.68,7.269-15.795s-1.953-10.59-6.488-13.012-9.306-1.344-12.015,3.024c1.649-4.3,4.106-9.836,3.71-15.164-.521-6.988-4.2-10.571-9.264-12.256a14.465,14.465,0,0,0-13.249,2.768c-3.432,2.966-5.712,7.017-7.865,11.009,2.42-3.641,1.409-8.984-1.876-11.867a11.7,11.7,0,0,0-12.313-1.509,15.478,15.478,0,0,0-8.086,9.811c.489-5.157-4.664-9.78-9.839-9.548s-9.627,4.493-11.019,9.482-1.891,14-.775,16.345C456.286,86.765,530.863,114.595,537.2,111.584Z" transform="translate(0 5.589)" fill="#f2b705"/>
  </g>
</svg>
