<svg xmlns="http://www.w3.org/2000/svg" xmlns:xlink="http://www.w3.org/1999/xlink" width="114" height="114" viewBox="0 0 114 114">
  <defs>
    <filter id="illust." x="0" y="0" width="114" height="114" filterUnits="userSpaceOnUse">
      <feOffset dx="3" dy="3" input="SourceAlpha"/>
      <feGaussianBlur stdDeviation="2.5" result="blur"/>
      <feFlood flood-opacity="0.161"/>
      <feComposite operator="in" in2="blur"/>
      <feComposite in="SourceGraphic"/>
    </filter>
  </defs>
  <g id="그룹_1351" data-name="그룹 1351" transform="translate(-994.5 -957.5)">
    <g transform="matrix(1, 0, 0, 1, 994.5, 957.5)" filter="url(#illust.)">
      <path id="illust.-2" data-name="illust." d="M49.5,0A49.5,49.5,0,1,1,0,49.5,49.5,49.5,0,0,1,49.5,0Z" transform="translate(4.5 4.5)" fill="#fff"/>
    </g>
    <g id="그룹_541" data-name="그룹 541" transform="translate(-1846.856 -2553.075)">
      <circle id="타원_154" data-name="타원 154" cx="27.573" cy="27.573" r="27.573" transform="translate(2868.463 3537.502)" fill="#0061b1" stroke="#1a1311" stroke-linecap="round" stroke-linejoin="round" stroke-width="1.698"/>
      <path id="패스_3502" data-name="패스 3502" d="M2881.772,3580.357c1.528,0,3.644-1.411,8.111-2.351s5.525,1.058,5.172,2.822c-.127.635-1.12,1.193-1.593,1.525a35.426,35.426,0,0,1-3.707,2.213c-3.9,2.08-8.669,4.675-13.226,4.585a29.388,29.388,0,0,1-4.61-.793,20.156,20.156,0,0,0-4.605-.359l-2.352-10.815a14.67,14.67,0,0,0,6.113-1.763,45.755,45.755,0,0,0,7.86-5.952l3.777-2.865,9.052,10.462.823,3.174" transform="translate(-0.435 -1.932)" fill="#fad1c2" stroke="#1a1311" stroke-linecap="round" stroke-linejoin="round" stroke-width="1.459"/>
      <path id="패스_3503" data-name="패스 3503" d="M2858.415,3577.231l6.112-1.058s2.939,7.717,2.469,13.615l-5.878,1.313Z" transform="translate(0 -2.568)" fill="#5da71e" stroke="#1a1311" stroke-linecap="round" stroke-linejoin="round" stroke-width="1.459"/>
      <path id="패스_3504" data-name="패스 3504" d="M2919.3,3564.307c-1.246.884-3.789.958-7.977,2.775s-3.894,4.059-2.586,5.293c.47.446,1.6.326,2.181.323a35.3,35.3,0,0,0,4.3-.34c4.388-.562,9.775-1.2,13.441-3.912a29.339,29.339,0,0,0,3.3-3.314,20.226,20.226,0,0,1,3.55-2.958l-4.338-10.181a14.676,14.676,0,0,1-6.007,2.1s-5.987.2-9.632-.035-4.819.118-6.935,4.819.822,6.818.822,6.818l1.293,4.011" transform="translate(-3.282 -0.962)" fill="#fad1c2" stroke="#1a1311" stroke-linecap="round" stroke-linejoin="round" stroke-width="1.459"/>
      <path id="패스_3505" data-name="패스 3505" d="M2937.411,3547.693l-5.6,2.673s2.067,8,5.863,12.534l5.554-2.329Z" transform="translate(-4.874 -0.676)" fill="#5da71e" stroke="#1a1311" stroke-linecap="round" stroke-linejoin="round" stroke-width="1.459"/>
      <path id="패스_3506" data-name="패스 3506" d="M2915.455,3563.136a58.41,58.41,0,0,1-26.331-9.717,9.7,9.7,0,0,0-9.058,13.219h0s.6,5.041,17.522,18.559c0,0,16.1-13.138,17.219-18.559h-.011A9.673,9.673,0,0,0,2915.455,3563.136Z" transform="translate(-1.394 -1.057)" fill="#ffc500" stroke="#1a1311" stroke-linecap="round" stroke-linejoin="round" stroke-width="1.459"/>
      <path id="패스_3507" data-name="패스 3507" d="M2882.267,3581.151c1.528,0,3.644-1.411,8.111-2.351s5.525,1.058,5.172,2.822c-.127.635-1.12,1.193-1.593,1.525a35.426,35.426,0,0,1-3.707,2.213c-3.9,2.08-8.669,4.675-13.226,4.585a29.388,29.388,0,0,1-4.61-.793" transform="translate(-0.93 -2.726)" fill="#fad1c2" stroke="#1a1311" stroke-linecap="round" stroke-linejoin="round" stroke-width="1.459"/>
      <path id="패스_3508" data-name="패스 3508" d="M2919.3,3565.183c-1.246.884-3.789.958-7.977,2.775s-3.894,4.059-2.586,5.293c.47.446,1.6.326,2.181.323a35.3,35.3,0,0,0,4.3-.34c4.388-.562,9.775-1.2,13.441-3.912a29.339,29.339,0,0,0,3.3-3.314" transform="translate(-3.284 -1.838)" fill="#fad1c2" stroke="#1a1311" stroke-linecap="round" stroke-linejoin="round" stroke-width="1.459"/>
    </g>
  </g>
</svg>
