<svg xmlns="http://www.w3.org/2000/svg" xmlns:xlink="http://www.w3.org/1999/xlink" width="114" height="114" viewBox="0 0 114 114">
  <defs>
    <filter id="illust." x="0" y="0" width="114" height="114" filterUnits="userSpaceOnUse">
      <feOffset dx="3" dy="3" input="SourceAlpha"/>
      <feGaussianBlur stdDeviation="2.5" result="blur"/>
      <feFlood flood-opacity="0.161"/>
      <feComposite operator="in" in2="blur"/>
      <feComposite in="SourceGraphic"/>
    </filter>
  </defs>
  <g id="그룹_1350" data-name="그룹 1350" transform="translate(-644.5 -957.5)">
    <g transform="matrix(1, 0, 0, 1, 644.5, 957.5)" filter="url(#illust.)">
      <path id="illust.-2" data-name="illust." d="M49.5,0A49.5,49.5,0,1,1,0,49.5,49.5,49.5,0,0,1,49.5,0Z" transform="translate(4.5 4.5)" fill="#fff"/>
    </g>
    <g id="그룹_552" data-name="그룹 552" transform="translate(-2453.938 -2552.88)">
      <g id="그룹_547" data-name="그룹 547" transform="translate(3155.227 3540.422)">
        <g id="그룹_545" data-name="그룹 545">
          <path id="패스_3509" data-name="패스 3509" d="M3195.632,3567.267V3556a14.5,14.5,0,0,0-14.453-14.454h-.335A14.5,14.5,0,0,0,3166.39,3556v11.364a5.55,5.55,0,0,0,.937,10.975v.011H3194.7v-.023c.15.012.3.023.454.023a5.553,5.553,0,0,0,.483-11.084Z" transform="translate(-3161.992 -3541.547)" fill="#696767" stroke="#1a1311" stroke-linecap="round" stroke-linejoin="round" stroke-width="1.698"/>
          <path id="패스_3510" data-name="패스 3510" d="M3197.582,3598.676v-9.435a8.859,8.859,0,0,0-8.833-8.833h-13.517a8.859,8.859,0,0,0-8.833,8.833v9.435Z" transform="translate(-3162.635 -3547.218)" fill="#fff" stroke="#1a1311" stroke-linecap="round" stroke-linejoin="round" stroke-width="1.698"/>
          <rect id="사각형_104" data-name="사각형 104" width="7.695" height="6.892" rx="3.446" transform="translate(15.508 29.376)" fill="#fad1c2" stroke="#1a1311" stroke-linecap="round" stroke-linejoin="round" stroke-width="1.698"/>
          <rect id="사각형_105" data-name="사각형 105" width="22.145" height="26.632" rx="11.072" transform="translate(8.283 5.287)" fill="#fad1c2" stroke="#1a1311" stroke-linecap="round" stroke-linejoin="round" stroke-width="1.698"/>
          <g id="그룹_542" data-name="그룹 542" transform="translate(5.921 1.94)">
            <path id="패스_3511" data-name="패스 3511" d="M3177.8,3549.722a5.516,5.516,0,0,1,.036.622c0,1.64-3.011,5.989-6.725,5.989l-2.191-2.241,10.724-10.272,10.706,3.346,4.668,7.427-1.42,2.191c-6.325,0-13.59-2.906-15.8-7.062" transform="translate(-3168.924 -3543.819)" fill="#696767"/>
          </g>
          <g id="그룹_544" data-name="그룹 544" transform="translate(8.112 7.843)">
            <g id="그룹_543" data-name="그룹 543">
              <path id="패스_3512" data-name="패스 3512" d="M3178.179,3550.73a5.573,5.573,0,0,1,.036.622c0,1.64-3.01,5.989-6.725,5.989" transform="translate(-3171.49 -3550.73)" fill="none" stroke="#1a1311" stroke-linecap="round" stroke-linejoin="round" stroke-width="1.698"/>
              <path id="패스_3513" data-name="패스 3513" d="M3195.118,3557.792c-6.325,0-13.59-2.906-15.8-7.062" transform="translate(-3172.633 -3550.73)" fill="none" stroke="#1a1311" stroke-linecap="round" stroke-linejoin="round" stroke-width="1.698"/>
            </g>
          </g>
        </g>
        <g id="그룹_546" data-name="그룹 546" transform="translate(12.999 18.603)">
          <circle id="타원_155" data-name="타원 155" cx="1.037" cy="1.037" r="1.037" fill="#1a1311"/>
          <circle id="타원_156" data-name="타원 156" cx="1.037" cy="1.037" r="1.037" transform="translate(10.64)" fill="#1a1311"/>
        </g>
        <path id="패스_3514" data-name="패스 3514" d="M3181.1,3571.163a3.448,3.448,0,0,0,6.064,0" transform="translate(-3164.781 -3545.868)" fill="none" stroke="#000" stroke-linecap="round" stroke-linejoin="round" stroke-width="1.41"/>
        <line id="선_27" data-name="선 27" y2="2.81" transform="translate(19.356 20.677)" fill="none" stroke="#000" stroke-linecap="round" stroke-linejoin="round" stroke-width="1.41"/>
      </g>
      <g id="그룹_551" data-name="그룹 551" transform="translate(3115.627 3533.838)">
        <path id="패스_3515" data-name="패스 3515" d="M3146.81,3598.353v-10.806a8.859,8.859,0,0,0-8.833-8.833H3124.46a8.859,8.859,0,0,0-8.833,8.833v10.806Z" transform="translate(-3115.627 -3540.386)" fill="#fff" stroke="#1a1311" stroke-linecap="round" stroke-linejoin="round" stroke-width="1.698"/>
        <g id="그룹_548" data-name="그룹 548" transform="translate(0.913 21.527)">
          <circle id="타원_157" data-name="타원 157" cx="3.621" cy="3.621" r="3.621" fill="#fad1c2" stroke="#1a1311" stroke-linecap="round" stroke-linejoin="round" stroke-width="1.698"/>
          <circle id="타원_158" data-name="타원 158" cx="3.621" cy="3.621" r="3.621" transform="translate(22.115)" fill="#fad1c2" stroke="#1a1311" stroke-linecap="round" stroke-linejoin="round" stroke-width="1.698"/>
        </g>
        <rect id="사각형_106" data-name="사각형 106" width="7.695" height="6.892" rx="3.446" transform="translate(11.744 33.418)" fill="#fad1c2" stroke="#1a1311" stroke-linecap="round" stroke-linejoin="round" stroke-width="1.698"/>
        <path id="패스_3516" data-name="패스 3516" d="M3145.311,3544.959a10.612,10.612,0,0,0-3.868-5c.845-2.467-2.841-6.116-2.841-6.116s-1.753,4.473-4.9,4.05-8.28-.968-11.785,2.9c0,0-6.6,5.278-4,15.361h27.386S3146.7,3549.311,3145.311,3544.959Z" transform="translate(-3115.873 -3533.838)" fill="#696767" stroke="#1a1311" stroke-linecap="round" stroke-linejoin="round" stroke-width="1.698"/>
        <rect id="사각형_107" data-name="사각형 107" width="22.145" height="26.632" rx="11.072" transform="translate(4.52 9.328)" fill="#fad1c2" stroke="#1a1311" stroke-linecap="round" stroke-linejoin="round" stroke-width="1.698"/>
        <g id="그룹_549" data-name="그룹 549" transform="translate(9.235 22.644)">
          <circle id="타원_159" data-name="타원 159" cx="1.037" cy="1.037" r="1.037" fill="#1a1311"/>
          <circle id="타원_160" data-name="타원 160" cx="1.037" cy="1.037" r="1.037" transform="translate(10.64)" fill="#1a1311"/>
        </g>
        <path id="패스_3517" data-name="패스 3517" d="M3130.333,3568.186a3.447,3.447,0,0,0,6.063,0" transform="translate(-3117.773 -3538.85)" fill="none" stroke="#000" stroke-linecap="round" stroke-linejoin="round" stroke-width="1.41"/>
        <line id="선_28" data-name="선 28" y2="2.81" transform="translate(15.644 24.719)" fill="none" stroke="#000" stroke-linecap="round" stroke-linejoin="round" stroke-width="1.41"/>
        <path id="패스_3518" data-name="패스 3518" d="M3120.875,3553.5c3.505-1.33,6.044-5.318,6.044-5.318a4.793,4.793,0,0,0,5.2,1.813,6.855,6.855,0,0,0,4.412,3.2,7.343,7.343,0,0,0,6.043-1.049l2.167-2.094-8.733-9.054-13.572,2.762-3.174,9.737Z" transform="translate(-3116.157 -3534.883)" fill="#696767"/>
        <path id="패스_3519" data-name="패스 3519" d="M3121.151,3554.725c3.505-1.33,6.043-5.318,6.043-5.318a4.793,4.793,0,0,0,5.2,1.813,6.855,6.855,0,0,0,4.412,3.2,7.343,7.343,0,0,0,6.043-1.049" transform="translate(-3116.433 -3536.11)" fill="none" stroke="#1a1311" stroke-linecap="round" stroke-linejoin="round" stroke-width="1.698"/>
        <g id="그룹_550" data-name="그룹 550" transform="translate(8.123 36.203)">
          <path id="패스_3520" data-name="패스 3520" d="M3128.522,3576.226l-3.385,2.357,4.291,6.83,3.324-4.594Z" transform="translate(-3125.138 -3576.226)" fill="#5da71e" stroke="#1a1311" stroke-linecap="round" stroke-linejoin="round" stroke-width="1.698"/>
          <path id="패스_3521" data-name="패스 3521" d="M3137.941,3576.226l3.385,2.357-4.291,6.83-3.324-4.594Z" transform="translate(-3126.389 -3576.226)" fill="#5da71e" stroke="#1a1311" stroke-linecap="round" stroke-linejoin="round" stroke-width="1.698"/>
        </g>
      </g>
      <rect id="사각형_108" data-name="사각형 108" width="19.985" height="22.475" transform="translate(3142.946 3569.33)" fill="#5da71e" stroke="#1a1311" stroke-linecap="round" stroke-linejoin="round" stroke-width="1.698"/>
      <rect id="사각형_109" data-name="사각형 109" width="13.971" height="4.814" transform="translate(3145.898 3573.144)" fill="#fff"/>
      <path id="패스_3522" data-name="패스 3522" d="M3164.557,3567.834a20.514,20.514,0,0,1-9.24-3.409,3.4,3.4,0,0,0-3.178,4.638h0s.209,1.769,6.148,6.512c0,0,5.649-4.61,6.042-6.512h0A3.414,3.414,0,0,0,3164.557,3567.834Z" transform="translate(-5.294 -4.463)" fill="#ffc500" stroke="#1a1311" stroke-linecap="round" stroke-linejoin="round" stroke-width="1.698"/>
    </g>
  </g>
</svg>
