<svg xmlns="http://www.w3.org/2000/svg" width="150" height="150" viewBox="0 0 150 150">
  <g id="icon_vision" transform="translate(-784 -2322)">
    <circle id="icon-background" cx="75" cy="75" r="75" transform="translate(784 2322)" fill="#fff"/>
    <g id="icon" transform="translate(-576.035 1625.389)">
      <g id="그룹_267" data-name="그룹 267" transform="translate(1425.014 722.278)">
        <g id="그룹_265" data-name="그룹 265" transform="translate(6.22)">
          <rect id="사각형_80" data-name="사각형 80" width="6.868" height="64.792" rx="3.434" transform="translate(1.555 1.555)" fill="#d68c67"/>
          <path id="패스_2082" data-name="패스 2082" d="M1520.447,790.18a4.994,4.994,0,0,1-4.989-4.989V727.267a4.989,4.989,0,0,1,9.978,0v57.924A4.994,4.994,0,0,1,1520.447,790.18Zm0-64.792a1.881,1.881,0,0,0-1.879,1.879v57.924a1.879,1.879,0,0,0,3.758,0V727.267A1.881,1.881,0,0,0,1520.447,725.388Z" transform="translate(-1515.458 -722.278)"/>
        </g>
        <g id="그룹_266" data-name="그룹 266" transform="translate(0 58.961)">
          <rect id="사각형_81" data-name="사각형 81" width="19.308" height="13.477" rx="6.738" transform="translate(1.555 1.555)" fill="#f5f8ff"/>
          <path id="패스_2083" data-name="패스 2083" d="M1517.211,890.531h-13.088a4.67,4.67,0,0,1-4.665-4.665v-7.257a4.67,4.67,0,0,1,4.665-4.665h13.088a4.67,4.67,0,0,1,4.665,4.665v7.257A4.67,4.67,0,0,1,1517.211,890.531Zm-13.088-13.477a1.557,1.557,0,0,0-1.555,1.555v7.257a1.557,1.557,0,0,0,1.555,1.555h13.088a1.557,1.557,0,0,0,1.555-1.555v-7.257a1.557,1.557,0,0,0-1.555-1.555Z" transform="translate(-1499.458 -873.944)"/>
        </g>
      </g>
      <g id="그룹_270" data-name="그룹 270" transform="translate(1394.497 732.904)">
        <g id="그룹_268" data-name="그룹 268" transform="translate(0)">
          <rect id="사각형_82" data-name="사각형 82" width="80.342" height="6.868" rx="3.434" transform="translate(1.555 1.555)" fill="#d68c67"/>
          <path id="패스_2084" data-name="패스 2084" d="M1499.421,759.589h-73.474a4.989,4.989,0,1,1,0-9.978h73.474a4.989,4.989,0,0,1,0,9.978Zm-73.474-6.868a1.879,1.879,0,1,0,0,3.758h73.474a1.879,1.879,0,0,0,0-3.758Z" transform="translate(-1420.958 -749.611)"/>
        </g>
        <g id="그룹_269" data-name="그룹 269" transform="translate(36.737)">
          <circle id="타원_102" data-name="타원 102" cx="3.434" cy="3.434" r="3.434" transform="translate(1.555 1.555)" fill="#f5f8ff"/>
          <path id="패스_2085" data-name="패스 2085" d="M1520.447,759.589a4.989,4.989,0,1,1,4.989-4.989A4.994,4.994,0,0,1,1520.447,759.589Zm0-6.868a1.879,1.879,0,1,0,1.879,1.879A1.881,1.881,0,0,0,1520.447,752.721Z" transform="translate(-1515.458 -749.611)"/>
        </g>
      </g>
      <g id="그룹_273" data-name="그룹 273" transform="translate(1395.031 739.772)">
        <g id="그룹_271" data-name="그룹 271" transform="translate(0 19.308)">
          <path id="패스_2086" data-name="패스 2086" d="M1446.419,837.013h-9.2a10.917,10.917,0,0,1-10.885-10.885v-5.183H1457.3v5.183A10.917,10.917,0,0,1,1446.419,837.013Z" transform="translate(-1424.778 -819.39)" fill="#fff050"/>
          <path id="패스_2087" data-name="패스 2087" d="M1443.974,836.123h-9.2a12.454,12.454,0,0,1-12.44-12.44V818.5a1.555,1.555,0,0,1,1.555-1.555h30.971a1.555,1.555,0,0,1,1.555,1.555v5.184A12.454,12.454,0,0,1,1443.974,836.123Zm-18.531-16.069v3.629a9.341,9.341,0,0,0,9.33,9.33h9.2a9.341,9.341,0,0,0,9.33-9.33v-3.629Z" transform="translate(-1422.333 -816.944)"/>
        </g>
        <g id="그룹_272" data-name="그룹 272" transform="translate(0)">
          <path id="패스_2088" data-name="패스 2088" d="M1426.333,790.586l15.485-19.308,15.485,19.308Z" transform="translate(-1424.778 -769.723)" fill="#fff"/>
          <path id="패스_2089" data-name="패스 2089" d="M1454.859,789.7h-30.971a1.555,1.555,0,0,1-1.213-2.528l15.486-19.308a1.555,1.555,0,0,1,1.213-.582h0a1.554,1.554,0,0,1,1.213.582l15.485,19.308a1.555,1.555,0,0,1-1.213,2.528Zm-27.73-3.11h24.49l-12.244-15.267Z" transform="translate(-1422.333 -767.278)"/>
        </g>
      </g>
      <g id="그룹_276" data-name="그룹 276" transform="translate(1444.322 739.772)">
        <g id="그룹_274" data-name="그룹 274" transform="translate(0 19.308)">
          <path id="패스_2090" data-name="패스 2090" d="M1573.211,837.013h-9.2a10.917,10.917,0,0,1-10.885-10.885v-5.183H1584.1v5.183A10.917,10.917,0,0,1,1573.211,837.013Z" transform="translate(-1551.57 -819.39)" fill="#fff050"/>
          <path id="패스_2091" data-name="패스 2091" d="M1570.766,836.123h-9.2a12.454,12.454,0,0,1-12.44-12.44V818.5a1.555,1.555,0,0,1,1.555-1.555h30.971a1.555,1.555,0,0,1,1.555,1.555v5.184A12.454,12.454,0,0,1,1570.766,836.123Zm-18.531-16.069v3.629a9.341,9.341,0,0,0,9.33,9.33h9.2a9.341,9.341,0,0,0,9.33-9.33v-3.629Z" transform="translate(-1549.125 -816.944)"/>
        </g>
        <g id="그룹_275" data-name="그룹 275" transform="translate(0)">
          <path id="패스_2092" data-name="패스 2092" d="M1553.125,790.586l15.485-19.308,15.485,19.308Z" transform="translate(-1551.57 -769.723)" fill="#fff"/>
          <path id="패스_2093" data-name="패스 2093" d="M1581.651,789.7H1550.68a1.555,1.555,0,0,1-1.213-2.528l15.485-19.308a1.554,1.554,0,0,1,2.426,0l15.486,19.308a1.555,1.555,0,0,1-1.213,2.528Zm-27.73-3.11h24.49l-12.245-15.267Z" transform="translate(-1549.125 -767.278)"/>
        </g>
      </g>
      <g id="그룹_277" data-name="그룹 277" transform="translate(1406.046 787.555)">
        <path id="패스_2094" data-name="패스 2094" d="M1520.281,896.3c-2.2-.781-4.446,1.068-6.029,2.366-2.181,1.787-4.432,3.439-6.717,5.1l-11.272,8.213s-1.037,1.684-2.721,0-6.82-6.482-6.82-6.482l-.821-.012c1.377.016,2.754.032,4.131.042,2.855.02,5.711.033,8.566-.011,1.915-.029,5.449.377,6.857-1.062a2.786,2.786,0,0,0,.173-3.752,6.208,6.208,0,0,0-3.389-2.132c-8.82-1.918-18.017-3.177-26.968-4.344-2.981-.389-5.7,2.851-7.127,4.017s-4.146,1.037-4.146,1.037h-8.812l-.518,16.587h10.108a9.731,9.731,0,0,1,4.406,1.166c1.944,1.166,18.789,7,18.789,7s4.665,1.555,8.294-1.166c8.01-6.008,15.465-12.738,23.318-18.944,1.126-.89,2.448-1.57,2.9-3.042A3.8,3.8,0,0,0,1520.281,896.3Z" transform="translate(-1453.112 -892.639)" fill="#ffdcdc"/>
        <path id="패스_2095" data-name="패스 2095" d="M1499.415,904.658c-.446,0-.882-.01-1.3-.019s-.793-.018-1.122-.013c-2.937.044-5.859.03-8.6.011-3.925-.028-7.983-.081-12.059-.157a1.555,1.555,0,0,1,.028-3.11h.03c4.065.077,8.11.129,12.023.157,2.724.019,5.627.034,8.531-.011.365-.005.786,0,1.24.014,1.346.029,3.849.086,4.529-.608a1.233,1.233,0,0,0,.049-1.719,4.652,4.652,0,0,0-2.485-1.558c-8.714-1.895-17.668-3.126-26.839-4.321-1.7-.226-3.665,1.6-4.959,2.8-.366.341-.683.635-.982.88-1.775,1.453-4.672,1.408-5.164,1.388h-8.779a1.555,1.555,0,1,1,0-3.11h8.812l.074,0a5.713,5.713,0,0,0,3.088-.687c.223-.183.507-.446.834-.751,1.721-1.6,4.317-4.016,7.48-3.6,9.24,1.205,18.264,2.446,27.1,4.367a7.8,7.8,0,0,1,4.293,2.706,4.339,4.339,0,0,1-.3,5.785C1503.606,904.456,1501.431,904.658,1499.415,904.658Z" transform="translate(-1451.482 -890.193)"/>
        <path id="패스_2096" data-name="패스 2096" d="M1488.644,926.588a12.362,12.362,0,0,1-3.611-.522c-1.757-.608-17.074-5.925-19.1-7.139a8.2,8.2,0,0,0-3.611-.945h-10.1a1.555,1.555,0,1,1,0-3.11h10.108a11.328,11.328,0,0,1,5.206,1.388c1.315.789,12.044,4.627,18.5,6.861.016,0,3.941,1.242,6.852-.941,4.618-3.463,9.14-7.244,13.513-10.9,3.178-2.657,6.463-5.4,9.773-8.02.239-.188.486-.369.733-.549.888-.647,1.443-1.076,1.642-1.728a2.258,2.258,0,0,0-1.23-2.66c-1.366-.485-3.18,1-4.5,2.085-2.186,1.791-4.375,3.4-6.807,5.174l-11.081,8.073a3.131,3.131,0,0,1-2.043,1.167A3.452,3.452,0,0,1,1490,913.64c-1.647-1.647-6.73-6.4-6.781-6.445a1.555,1.555,0,1,1,2.123-2.272c.211.2,5.174,4.834,6.858,6.518a1.655,1.655,0,0,0,.315.258,1.538,1.538,0,0,1,.392-.415l11.272-8.213c2.393-1.743,4.545-3.327,6.646-5.049,1.811-1.483,4.513-3.7,7.534-2.629a5.349,5.349,0,0,1,3.166,6.5,6.534,6.534,0,0,1-2.785,3.332c-.214.156-.428.311-.635.475-3.276,2.59-6.545,5.323-9.707,7.966-4.4,3.682-8.959,7.49-13.642,11A10.048,10.048,0,0,1,1488.644,926.588Z" transform="translate(-1450.667 -893.199)"/>
      </g>
      <g id="그룹_280" data-name="그룹 280" transform="translate(1377.667 788.755)">
        <g id="그룹_278" data-name="그룹 278" transform="translate(16.829 2.203)">
          <rect id="사각형_83" data-name="사각형 83" width="13.752" height="20.086" rx="6.876" transform="translate(1.555 1.555)" fill="#fff"/>
          <path id="패스_2097" data-name="패스 2097" d="M1433.155,922.14h-7.532a4.67,4.67,0,0,1-4.665-4.665V903.609a4.67,4.67,0,0,1,4.665-4.665h7.532a4.67,4.67,0,0,1,4.665,4.665v13.866A4.67,4.67,0,0,1,1433.155,922.14Zm-7.532-20.086a1.557,1.557,0,0,0-1.555,1.555v13.866a1.557,1.557,0,0,0,1.555,1.555h7.532a1.557,1.557,0,0,0,1.555-1.555V903.609a1.557,1.557,0,0,0-1.555-1.555Z" transform="translate(-1420.958 -898.944)"/>
        </g>
        <g id="그룹_279" data-name="그룹 279" transform="translate(4.701)">
          <rect id="사각형_84" data-name="사각형 84" width="18.883" height="24.491" transform="translate(1.555 1.555)" fill="#505f64"/>
          <path id="패스_2098" data-name="패스 2098" d="M1395.817,920.879H1381.51c-2.119,0-3.844-2.092-3.844-4.665V897.943c0-2.572,1.724-4.665,3.844-4.665h14.306c2.119,0,3.844,2.093,3.844,4.665v18.271C1399.66,918.787,1397.936,920.879,1395.817,920.879Zm-14.306-24.491a1.44,1.44,0,0,0-1.281,1.555v18.271a1.44,1.44,0,0,0,1.281,1.555h14.306a1.44,1.44,0,0,0,1.281-1.555V897.943a1.44,1.44,0,0,0-1.281-1.555Z" transform="translate(-1377.667 -893.278)"/>
        </g>
      </g>
    </g>
  </g>
</svg>
