<svg xmlns="http://www.w3.org/2000/svg" width="146" height="146" viewBox="0 0 146 146">
  <g id="icon_together" transform="translate(-496 -1934)">
    <circle id="illust." cx="73" cy="73" r="73" transform="translate(496 1934)" fill="#fff"/>
    <g id="icon" transform="translate(418.539 1733.212)">
      <path id="패스_2059" data-name="패스 2059" d="M328.131,452.442c0-.512-.172-.6-.633-.6a24.673,24.673,0,0,0-4.344.449,31.385,31.385,0,0,0-15.08,7.857c-2.736,2.457-4.993,5.429-8.216,7.373a3.113,3.113,0,0,0-.946,3.864,3.342,3.342,0,0,0,3.4,2.1,5.592,5.592,0,0,0,2.708-1.2,37.614,37.614,0,0,0,5.85-5.279,1.731,1.731,0,0,1,2.635-.234c.755.745.7,1.729-.2,2.643-1,1.023-2.011,2.036-3.043,3.026a20.921,20.921,0,0,1-12,5.919,60.057,60.057,0,0,0-8.433,1.494,7.56,7.56,0,0,0-5.475,5.643c3.125,0,6.157.035,9.188-.008a32.422,32.422,0,0,0,15.249-3.708c1.134-.614,1.82-.418,2.646.66.229,1.36.007,1.813-1.228,2.471a33.9,33.9,0,0,1-10.807,3.539,17.707,17.707,0,0,0-3.225.486,46.266,46.266,0,0,0,5.322-.624,34.918,34.918,0,0,0,8.824-3.194,2.073,2.073,0,0,0,1.285-2.711c-.035-.058-.072-.113-.108-.167a1.151,1.151,0,0,1,.343-.307q1.474-1.066,2.946-2.135c-.013-.024-.023-.047-.035-.071-.632-1.245-.315-2.319.806-2.718a1.807,1.807,0,0,1,1.8.427l.076.058a25.689,25.689,0,0,1,2.853-2.884c.042-.037.083-.075.125-.112-.716-1.048-.737-1.765.018-2.535a24.754,24.754,0,0,1,7.138-5.406.785.785,0,0,0,.562-.819Q328.1,459.1,328.131,452.442Z" transform="translate(-137.137 -171.192)" fill="#fbe7cf"/>
      <path id="패스_2060" data-name="패스 2060" d="M122.1,278.48a25.9,25.9,0,0,0,5.846-.791,33.048,33.048,0,0,0,15.476-9.379,30.949,30.949,0,0,1,6.108-5.348,3.223,3.223,0,0,0,1.232-3.8,3.476,3.476,0,0,0-3.252-2.351,4.911,4.911,0,0,0-2.816,1.115,37.013,37.013,0,0,0-6.047,5.437,1.726,1.726,0,1,1-2.446-2.4q1.4-1.455,2.838-2.865a21.119,21.119,0,0,1,12.338-6.157,59.165,59.165,0,0,0,8.345-1.476,7.627,7.627,0,0,0,5.514-5.677c-4.063.117-8.034-.141-12,.179a30.562,30.562,0,0,0-15.608,5.563,60.18,60.18,0,0,0-8.017,7.352,26.329,26.329,0,0,1-7.776,5.962c-.387.177-.377.436-.376.755,0,4.405.011,8.81-.011,13.215C121.444,278.333,121.554,278.495,122.1,278.48Z" transform="translate(-11.525 -11.54)" fill="#fbe7cf"/>
      <path id="패스_2061" data-name="패스 2061" d="M145.357,430.241c-2.06-2.056-4.258-3.975-5.771-6.536a3.214,3.214,0,0,0-3.806-1.2,3.383,3.383,0,0,0-2.314,3.265,5.415,5.415,0,0,0,1.264,3.034,38.18,38.18,0,0,0,5.237,5.77,1.732,1.732,0,1,1-2.389,2.461c-1.008-.973-2-1.968-2.973-2.973a20.852,20.852,0,0,1-6-12.052,64.583,64.583,0,0,0-1.486-8.432,7.584,7.584,0,0,0-4.993-5.35c-.451-.167-.7-.195-.687.46.094,3.744-.123,7.492.164,11.235a30.62,30.62,0,0,0,6.539,17.009,107.315,107.315,0,0,0,7.649,7.989,23.169,23.169,0,0,1,4.655,6.425c.2.448.494.462.881.461,2.174-.008,4.348,0,6.522,0,2.2,0,4.405-.018,6.607.013.536.008.676-.144.662-.671a25.429,25.429,0,0,0-.613-5.1A32.465,32.465,0,0,0,145.357,430.241Z" transform="translate(-11.516 -137.478)" fill="#cb9d82"/>
      <path id="패스_2062" data-name="패스 2062" d="M338.98,267.16a27.391,27.391,0,0,1,4.93,5.679,3.253,3.253,0,0,0,3.847,1.312,3.476,3.476,0,0,0,2.357-3.25,4.883,4.883,0,0,0-1.119-2.815,36.141,36.141,0,0,0-5.37-5.991,1.726,1.726,0,0,1-.236-2.634c.746-.758,1.724-.7,2.642.188q1.477,1.434,2.911,2.914a20.932,20.932,0,0,1,6.033,12.128,65.627,65.627,0,0,0,1.486,8.431,7.35,7.35,0,0,0,5.68,5.388c-.119-3.951.139-7.9-.177-11.837a30.606,30.606,0,0,0-5.641-15.763,64.261,64.261,0,0,0-7.552-8.184,25.494,25.494,0,0,1-5.669-7.47c-.192-.418-.473-.413-.824-.413-4.376,0-8.753.014-13.129-.011-.581,0-.708.179-.7.722a25.753,25.753,0,0,0,1.15,7.079A33.947,33.947,0,0,0,338.98,267.16Z" transform="translate(-171.137 -11.572)" fill="#cb9d82"/>
      <g id="그룹_260" data-name="그룹 260" transform="translate(106.5 229.822)">
        <path id="패스_2063" data-name="패스 2063" d="M194.415,270.234c0-1.144.015-2.289-.027-3.432a34.24,34.24,0,0,0-4.945-17.246,50.421,50.421,0,0,0-8.308-9.776,41.293,41.293,0,0,1-4-4.244,15.778,15.778,0,0,1-2.477-4.28,1.818,1.818,0,0,0-2.063-1.417c-9.183,0-18.366.054-27.548-.015-10.607-.08-19.453,3.856-26.784,11.419-1.751,1.807-3.453,3.665-5.375,5.3a15.83,15.83,0,0,1-5.02,3.05,2.707,2.707,0,0,0-1.373,1.194v31.938a9.167,9.167,0,0,1,.412,2.557,34.36,34.36,0,0,0,9.57,19.221c2.116,2.252,4.47,4.266,6.5,6.6a16.4,16.4,0,0,1,3.306,5.358,2.7,2.7,0,0,0,1.161,1.292h31.595a17.707,17.707,0,0,1,3.225-.486,33.9,33.9,0,0,0,10.807-3.539c1.235-.657,1.457-1.11,1.228-2.471-.826-1.078-1.512-1.273-2.646-.66a32.423,32.423,0,0,1-15.249,3.708c-3.031.043-6.063.008-9.188.008a7.56,7.56,0,0,1,5.475-5.643,60.049,60.049,0,0,1,8.433-1.494,20.921,20.921,0,0,0,12-5.919c1.032-.99,2.043-2,3.043-3.026.893-.913.951-1.9.2-2.643a1.731,1.731,0,0,0-2.635.234,37.618,37.618,0,0,1-5.85,5.279,5.593,5.593,0,0,1-2.708,1.2,3.342,3.342,0,0,1-3.4-2.1,3.113,3.113,0,0,1,.946-3.864c3.223-1.944,5.48-4.916,8.216-7.373a31.385,31.385,0,0,1,15.08-7.857,24.67,24.67,0,0,1,4.344-.449c.461-.007.636.083.634.6q-.031,6.653,0,13.306a.785.785,0,0,1-.562.819,24.755,24.755,0,0,0-7.138,5.406c-.755.77-.734,1.487-.018,2.535a1.828,1.828,0,0,0,2.665-.345,20.852,20.852,0,0,1,7.406-5.129c.872-.321,1.077-1.073,1.076-1.949Q194.405,283.064,194.415,270.234Zm-84.483-17.175c0-.319-.011-.578.376-.755a26.329,26.329,0,0,0,7.776-5.962,60.182,60.182,0,0,1,8.017-7.352,30.562,30.562,0,0,1,15.608-5.563c3.967-.319,7.938-.061,12-.179a7.627,7.627,0,0,1-5.514,5.677,59.165,59.165,0,0,1-8.345,1.476,21.119,21.119,0,0,0-12.338,6.157q-1.442,1.41-2.838,2.865a1.726,1.726,0,1,0,2.446,2.4,37.014,37.014,0,0,1,6.047-5.437,4.91,4.91,0,0,1,2.816-1.115,3.476,3.476,0,0,1,3.252,2.351,3.223,3.223,0,0,1-1.232,3.8,30.95,30.95,0,0,0-6.108,5.348,33.048,33.048,0,0,1-15.476,9.379,25.9,25.9,0,0,1-5.846.791c-.546.015-.655-.147-.653-.665C109.943,261.87,109.935,257.465,109.933,253.059Zm33.006,61.273c-2.2-.031-4.4-.013-6.607-.013-2.174,0-4.348,0-6.522,0-.387,0-.677-.013-.881-.461a23.17,23.17,0,0,0-4.655-6.425,107.307,107.307,0,0,1-7.649-7.989,30.619,30.619,0,0,1-6.539-17.009c-.287-3.743-.07-7.491-.164-11.235-.016-.654.236-.626.687-.46a7.584,7.584,0,0,1,4.993,5.35,64.584,64.584,0,0,1,1.486,8.432,20.852,20.852,0,0,0,6,12.052c.977,1,1.965,2,2.973,2.973a1.732,1.732,0,1,0,2.389-2.461,38.181,38.181,0,0,1-5.237-5.77,5.415,5.415,0,0,1-1.264-3.034,3.383,3.383,0,0,1,2.314-3.265,3.214,3.214,0,0,1,3.806,1.2c1.512,2.561,3.711,4.48,5.771,6.536a32.464,32.464,0,0,1,9.147,15.8,25.429,25.429,0,0,1,.613,5.1C143.614,314.188,143.474,314.34,142.938,314.332ZM183.6,278.121a36.72,36.72,0,0,0-17.261,10.518,31.456,31.456,0,0,1-5.4,4.727c-3.056,2-4.169,6.752-.828,10.459-1.481.24-2.894.458-4.3.7a24.546,24.546,0,0,0-5.477,1.334,11.709,11.709,0,0,0-3.819,2.69,33.725,33.725,0,0,0-2.086-6.532,38.694,38.694,0,0,0-8.813-12.337,31.318,31.318,0,0,1-4.727-5.4c-1.994-3.046-6.733-4.178-10.46-.829-.242-1.51-.462-2.953-.706-4.391a35.609,35.609,0,0,0-.884-4.189,11.985,11.985,0,0,0-3.073-5c.605-.153,1.166-.288,1.722-.438a36.33,36.33,0,0,0,16.187-9.568c1.081-1.063,2.122-2.167,3.195-3.239A8.834,8.834,0,0,1,139,254.9a6.971,6.971,0,0,0,1.814-11.136c1.506-.241,2.953-.459,4.394-.707a32.426,32.426,0,0,0,4.351-.937,11.242,11.242,0,0,0,4.816-3.061c.275,1.031.495,1.985.784,2.917a37.134,37.134,0,0,0,10.093,15.881,33.37,33.37,0,0,1,4.79,5.463,6.732,6.732,0,0,0,9.7,1.433c.224-.172.437-.357.754-.617.243,1.519.463,2.965.707,4.407a34.421,34.421,0,0,0,.886,4.188,11.26,11.26,0,0,0,3.125,4.992C184.611,277.87,184.106,277.988,183.6,278.121Zm1.718-6.572a65.628,65.628,0,0,1-1.486-8.431,20.932,20.932,0,0,0-6.033-12.128q-1.434-1.477-2.911-2.914c-.918-.891-1.9-.946-2.642-.188a1.726,1.726,0,0,0,.236,2.634,36.141,36.141,0,0,1,5.37,5.991,4.883,4.883,0,0,1,1.119,2.815,3.476,3.476,0,0,1-2.357,3.25,3.253,3.253,0,0,1-3.847-1.312,27.391,27.391,0,0,0-4.93-5.679,33.947,33.947,0,0,1-9.375-14.529,25.753,25.753,0,0,1-1.15-7.079c-.013-.544.115-.726.7-.722,4.376.025,8.752.015,13.129.011.351,0,.632-.005.824.413a25.5,25.5,0,0,0,5.669,7.47,64.26,64.26,0,0,1,7.552,8.184,30.606,30.606,0,0,1,5.641,15.763c.315,3.942.058,7.886.177,11.837A7.35,7.35,0,0,1,185.323,271.549Z" transform="translate(-106.5 -229.822)"/>
        <path id="패스_2064" data-name="패스 2064" d="M418.738,561.961l-.076-.058a1.807,1.807,0,0,0-1.8-.427c-1.12.4-1.438,1.473-.806,2.718.012.024.022.047.035.07a1.825,1.825,0,0,0,1.881.439c1.1-.425,1.395-1.47.762-2.743Z" transform="translate(-344.94 -485.471)"/>
        <path id="패스_2065" data-name="패스 2065" d="M265.82,381.132a6.276,6.276,0,0,0-7.489,1.631c-.342.365-.481.187-.715-.072a6.648,6.648,0,0,0-11.314,2.968c-.9,3.139.113,5.794,2.153,8.145,2.523,2.909,5.62,5.191,8.52,7.686a1.578,1.578,0,0,0,2.192-.1c.736-.589,1.45-1.206,2.161-1.825a49.6,49.6,0,0,0,6.5-6.085,8.826,8.826,0,0,0,2.187-5.161C270.047,384.943,268.4,382.176,265.82,381.132Zm-.2,9.53a18.389,18.389,0,0,1-3.517,3.738c-1.188,1.031-2.4,2.036-3.6,3.054-.264.224-.482.469-.868.128a65.2,65.2,0,0,1-6.587-6.009c-1.2-1.393-2.009-2.936-1.471-4.866a3.326,3.326,0,0,1,2.8-2.67,3.17,3.17,0,0,1,3.281,1.726,6.752,6.752,0,0,1,.661,1.388,1.7,1.7,0,0,0,1.709,1.3,1.719,1.719,0,0,0,1.644-1.278,8.449,8.449,0,0,1,.475-1.1c.874-1.588,2.192-2.318,3.616-2.029a3.636,3.636,0,0,1,2.795,3.3c.022.17.02.342.03.515A5.352,5.352,0,0,1,265.622,390.661Z" transform="translate(-214.042 -346.035)"/>
      </g>
      <path id="패스_2066" data-name="패스 2066" d="M270.078,409.057c1.2-1.018,2.411-2.023,3.6-3.054a18.389,18.389,0,0,0,3.517-3.738,5.352,5.352,0,0,0,.968-2.8c-.009-.172-.008-.345-.03-.515a3.636,3.636,0,0,0-2.795-3.3c-1.424-.289-2.742.442-3.616,2.029a8.453,8.453,0,0,0-.475,1.1,1.719,1.719,0,0,1-1.644,1.278,1.7,1.7,0,0,1-1.709-1.3,6.751,6.751,0,0,0-.661-1.388,3.17,3.17,0,0,0-3.281-1.726,3.326,3.326,0,0,0-2.8,2.67c-.538,1.93.273,3.473,1.471,4.866a65.2,65.2,0,0,0,6.587,6.009C269.6,409.526,269.813,409.281,270.078,409.057Z" transform="translate(-119.113 -127.816)" fill="#cb0023"/>
    </g>
  </g>
</svg>
