<svg xmlns="http://www.w3.org/2000/svg" width="150" height="150" viewBox="0 0 150 150">
  <g id="icon_mission" transform="translate(-1400 -2322)">
    <path id="icon-background" d="M75,0A75,75,0,1,1,0,75,75,75,0,0,1,75,0Z" transform="translate(1400 2322)" fill="#fff"/>
    <g id="icon" transform="translate(390.417 2221.582)">
      <g id="그룹_262" data-name="그룹 262" transform="translate(1030.181 158.369)">
        <circle id="타원_100" data-name="타원 100" cx="30.057" cy="30.057" r="30.057" transform="translate(2.213 2.214)" fill="#ffc400"/>
        <path id="패스_2067" data-name="패스 2067" d="M1062.451,312.971a32.27,32.27,0,1,1,32.27-32.27A32.307,32.307,0,0,1,1062.451,312.971Zm0-60.113a27.843,27.843,0,1,0,27.843,27.843A27.875,27.875,0,0,0,1062.451,252.858Z" transform="translate(-1030.181 -248.431)"/>
      </g>
      <g id="그룹_263" data-name="그룹 263" transform="translate(1072.444 123.918)">
        <circle id="타원_101" data-name="타원 101" cx="30.057" cy="30.057" r="30.057" transform="translate(2.213 2.213)" fill="#ff7b84"/>
        <path id="패스_2068" data-name="패스 2068" d="M1215.2,188.458a32.27,32.27,0,1,1,32.27-32.27A32.307,32.307,0,0,1,1215.2,188.458Zm0-60.113a27.843,27.843,0,1,0,27.843,27.843A27.875,27.875,0,0,0,1215.2,128.345Z" transform="translate(-1182.931 -123.918)"/>
      </g>
      <path id="패스_2069" data-name="패스 2069" d="M1307.026,419.269a2.041,2.041,0,0,0-2.584,3.043,27.8,27.8,0,0,0,2.49,2.478,1.822,1.822,0,0,0,2.132.193,1.926,1.926,0,0,0,1.125-1.829,1.571,1.571,0,0,0-.241-.989A13.25,13.25,0,0,0,1307.026,419.269Z" transform="translate(-198.052 -213.428)"/>
      <path id="패스_2070" data-name="패스 2070" d="M1250.8,442.017c-1.4.116-1.879.994-1.859,3.43.012,1.512.685,2.378,1.909,2.456,1.477.094,2.241-.883,2.229-2.867a10.272,10.272,0,0,0-.006-1.134A2.044,2.044,0,0,0,1250.8,442.017Z" transform="translate(-158.231 -230.08)"/>
      <path id="패스_2071" data-name="패스 2071" d="M1330.654,364c-.24-.007-.482,0-.722,0s-.482,0-.722,0a2.045,2.045,0,0,0-2.265,2,2.1,2.1,0,0,0,2.256,2.144c.481.017.964.02,1.444,0a2.1,2.1,0,0,0,2.225-2.08A2.064,2.064,0,0,0,1330.654,364Z" transform="translate(-214.653 -173.653)" fill="#010101"/>
      <path id="패스_2072" data-name="패스 2072" d="M1122.339,169.681a1.931,1.931,0,0,0,2.438-.478,1.969,1.969,0,0,0,.162-2.485,14.531,14.531,0,0,0-2.7-2.692,1.828,1.828,0,0,0-2.059-.062,2.021,2.021,0,0,0-1.061,1.957,1.821,1.821,0,0,0,.187.705A11.359,11.359,0,0,0,1122.339,169.681Z" transform="translate(-64.327 -28.759)" fill="#010101"/>
      <path id="패스_2073" data-name="패스 2073" d="M1183.7,147.838a2,2,0,0,0,1.946-2c.019-.309,0-.619,0-.929s.014-.62,0-.929a2.012,2.012,0,0,0-2.013-2.042,2.033,2.033,0,0,0-2.113,1.954,12.328,12.328,0,0,0,.008,2.062A2.023,2.023,0,0,0,1183.7,147.838Z" transform="translate(-109.439 -13.033)"/>
      <path id="패스_2074" data-name="패스 2074" d="M1099.182,230.373c.308.019.619,0,.928,0v.007c.241,0,.482.006.722,0a2.045,2.045,0,0,0,2.248-2.022,2.066,2.066,0,0,0-2.172-2.12,12.279,12.279,0,0,0-1.855.023,2.058,2.058,0,0,0,.129,4.11Z" transform="translate(-48.447 -73.994)" fill="#010101"/>
      <path id="패스_2075" data-name="패스 2075" d="M1236.149,215.216a2.021,2.021,0,0,0,1.9,2.064,1.971,1.971,0,0,0,2.184-1.756,23.045,23.045,0,0,0-.011-3.924,1.984,1.984,0,0,0-2.117-1.73,2.068,2.068,0,0,0-1.949,2.034c-.027.551,0,1.1,0,1.656h0C1236.145,214.112,1236.126,214.665,1236.149,215.216Z" transform="translate(-148.972 -62.168)" fill="#010000"/>
      <path id="패스_2076" data-name="패스 2076" d="M1297.036,217.28a2.008,2.008,0,0,0,1.842-2.009c.027-.551,0-1.1,0-1.656h0c0-.586.029-1.174-.006-1.759a2.036,2.036,0,0,0-1.891-1.977,2,2,0,0,0-2.161,1.674,15.277,15.277,0,0,0-.009,4.023A1.979,1.979,0,0,0,1297.036,217.28Z" transform="translate(-191.318 -62.171)" fill="#010000"/>
      <path id="패스_2077" data-name="패스 2077" d="M1132.285,381.965a2.093,2.093,0,0,0,.3,3.032,11.447,11.447,0,0,0,15.822-.035,2.05,2.05,0,0,0,.234-3.031,1.979,1.979,0,0,0-2.952-.064,7.457,7.457,0,0,1-10.376.038A2,2,0,0,0,1132.285,381.965Z" transform="translate(-73.477 -186.123)"/>
      <path id="패스_2078" data-name="패스 2078" d="M1128.26,325.8a2.009,2.009,0,0,0,1.988-1.756,144.82,144.82,0,0,0,0-3.926,1.953,1.953,0,0,0-1.874-1.743,1.932,1.932,0,0,0-2.113,1.579,14.161,14.161,0,0,0,0,4.224A2,2,0,0,0,1128.26,325.8Z" transform="translate(-69.383 -140.65)" fill="#010100"/>
      <path id="패스_2079" data-name="패스 2079" d="M1185.213,323.783a2.086,2.086,0,0,0,1.975,2.018,2.045,2.045,0,0,0,2.126-1.858,27.866,27.866,0,0,0,0-3.725,2.057,2.057,0,0,0-4.1.147c-.03.551-.005,1.1-.005,1.657C1185.208,322.609,1185.182,323.2,1185.213,323.783Z" transform="translate(-112.126 -140.657)"/>
      <path id="패스_2080" data-name="패스 2080" d="M1257.3,261.54q-6.55-.034-13.1,0a1.611,1.611,0,0,0-1.7,1.654,8.625,8.625,0,0,0,.217,2.551,8.257,8.257,0,0,0,16.312-1.9C1259.056,262.292,1258.536,261.546,1257.3,261.54Z" transform="translate(-153.562 -99.533)" fill="#fff"/>
      <path id="패스_2081" data-name="패스 2081" d="M1254.144,256.713q-8.189-.043-16.378,0a2.015,2.015,0,0,0-2.129,2.068,10.768,10.768,0,0,0,.272,3.189,10.322,10.322,0,0,0,20.393-2.38C1256.336,257.654,1255.686,256.722,1254.144,256.713Zm-2.282,4.819a6.176,6.176,0,0,1-11.779.041c-.218-.681-.005-.744.576-.736,1.795.024,3.59.009,5.385.009,1.76,0,3.521.014,5.281-.008C1251.877,260.831,1252.048,260.92,1251.862,261.533Z" transform="translate(-148.595 -96.039)"/>
    </g>
  </g>
</svg>
