<svg xmlns="http://www.w3.org/2000/svg" width="146.956" height="136.245" viewBox="0 0 146.956 136.245">
  <g id="vector_rainbow" transform="translate(-966.018 -692.894)">
    <path id="패스_7791" data-name="패스 7791" d="M1009.334,779.466a23.972,23.972,0,0,1,1.6-5.956,47.766,47.766,0,0,1,17.076-19.1c3.63-2.429,7.277-3.875,11.532-1.578a7.75,7.75,0,0,0,2.382.622,19.379,19.379,0,0,1,14.407,10.558,50.751,50.751,0,0,0,4.224,6.075c2.566,3.458,5.75,6.716,6.477,11.114.747,4.524,2.621,8.695,3.505,13.138,1.218,6.11,5.231,9.583,10.657,11.845,1.549.646,3.107,1.171,4.765.347a5.1,5.1,0,0,0,2.776-3.874c.314-1.828.7-3.648.915-5.487a4.606,4.606,0,0,0-.806-3.558c-2.225-2.659-2.745-5.959-3.652-9.13-1.544-5.4-4.128-10.328-6.6-15.356a88.852,88.852,0,0,0-9.832-14.953c-5.422-7.04-11.81-12.708-20.882-14.52a12,12,0,0,1-2.957-.937c-5.554-2.746-11.3-1.429-17-.851a3.457,3.457,0,0,0-1.753.573c-4.3,3.467-10.174,4.69-13.512,9.553a15.328,15.328,0,0,1-3.015,3.124c-5.2,4.218-7.777,10.12-10.335,16.015a14.377,14.377,0,0,0-1.464,5.359c-.052,6.7-2.122,13.038-3.178,19.551a78.049,78.049,0,0,0-.191,21.018,27.737,27.737,0,0,1,.633,4.273c-.157,2.879,1.121,5.186,2.444,7.525h0c.607.636,1.41,1.158,1.979.235.38-.615-.078-1.759.313-2.357,2.762-4.217,2.772-8.974,2.947-13.728a46.668,46.668,0,0,1,2.543-13.971A101.706,101.706,0,0,0,1009.334,779.466Z" transform="translate(1.091 1.73)" fill="#31a0d3"/>
    <path id="패스_7792" data-name="패스 7792" d="M1104.188,775.929a33.864,33.864,0,0,0-1.732-6.559,36.677,36.677,0,0,1-2.787-8.82c-.854-4.943-3.281-9.31-4.945-13.943a32.472,32.472,0,0,0-5.331-9.006c-3.221-4.029-6.661-7.869-9.525-12.188a12.348,12.348,0,0,0-7.961-5.477,13.732,13.732,0,0,1-4.031-1.515c-6.659-3.9-13.919-4.781-21.462-4.778-3.952,0-7.793.974-11.685,1.007-6.312.055-11.668,2.771-16.643,5.983-4.456,2.877-8.26,6.768-12.35,10.211a4.52,4.52,0,0,0-3.426,2.852h0l-.075.069a6.468,6.468,0,0,0-4.042,4.708v0c-3.9,4.07-6.255,9.177-9.184,13.884a29.483,29.483,0,0,0-4.838,13.871c-.183,2.859-.581,5.725-.554,8.609.045,4.753-.088,9.494-1.456,14.088a34.9,34.9,0,0,0-1.19,8.546c-.287,6.439-1.459,12.674-4.818,18.318-.014.111-.028.221-.042.333q-.153,1.186-.3,2.372h0c.424,1.107.933,2.189,1.255,3.324.7,2.488,2.449,3.476,4.86,3.489a24.436,24.436,0,0,0,2.93-.323v0h0c-2.62-3.219-2.1-6.874-1.44-10.548.136-2.97-.314-6.019,1.2-8.8a62.367,62.367,0,0,1,2.449-8.242c.737-1.666.267-3.212.406-4.766.87-9.741,4.1-18.824,7.318-27.925a6.043,6.043,0,0,1,2.122-5.142c-.089-1.133.078-2.145,1.263-2.685.17-1.26.26-2.554,1.406-3.413a3.166,3.166,0,0,1,1.248-2.5,4.183,4.183,0,0,1,2.451-3.791,9.5,9.5,0,0,1,1.424-2.02c7.805-6.507,15.828-12.762,25.835-15.5a55.688,55.688,0,0,1,20.8-2.111,18.991,18.991,0,0,1,13.309,7.094c5.183,6.429,10.348,12.876,15.379,19.423a42.846,42.846,0,0,1,7.357,14.307c1.952,6.938,4.513,13.78,5.213,21.038.3,3.081.425,6.178.631,9.273v0h0c1.463,2.039,3.114,3.562,5.961,3.247a7.789,7.789,0,0,0,5.846-3.768,25.871,25.871,0,0,0,1.384-2.669h0A106.683,106.683,0,0,0,1104.188,775.929Z" transform="translate(0.384 0.813)" fill="#ffb200"/>
    <path id="패스_7793" data-name="패스 7793" d="M1112.492,785.272a4.78,4.78,0,0,1-.613-2.376c-1.574-12.167-7.132-23.25-9.57-35.181a7.076,7.076,0,0,0-.408-1.17,128.582,128.582,0,0,0-9.2-17.534c-2.79-4.684-6.761-8.306-10.361-12.271a4.625,4.625,0,0,0-2.833-3.353c-1.405-1.51-2.764-3.065-4.221-4.522-4.417-4.418-9.221-8.291-15.086-10.674a50.873,50.873,0,0,1-6.788-3.006c-3-1.771-6.286-2.125-9.566-2.256a102.441,102.441,0,0,0-10.538.395,14.945,14.945,0,0,0-3.615.755c-3.343,1.085-6.685,2.187-9.975,3.421a39.487,39.487,0,0,0-16.684,11.451c-5.068,6.007-10.1,12.051-14.943,18.237a150.364,150.364,0,0,0-10.838,15.877c-2.682,4.514-3.717,9.659-6.022,14.266-1.7,3.4-1.3,7.259-3,10.613-.525,1.037-.275,2.444-.506,3.658-1.4,7.363-.89,14.866-1.657,22.275a9.307,9.307,0,0,0,.355,3.681c1.448,4.559,1.534,9.344,2.488,13.98-.144,1.434-.085,2.806,1.132,3.837v0l-.016.009h0c.6,3.59,3.454,3.651,6.167,3.924q.151-1.186.3-2.372c.013-.111.028-.221.042-.333,3.359-5.644,4.531-11.879,4.818-18.318a34.89,34.89,0,0,1,1.19-8.546c1.368-4.594,1.5-9.335,1.456-14.088-.027-2.884.371-5.75.554-8.609a29.482,29.482,0,0,1,4.839-13.871c2.929-4.706,5.284-9.814,9.184-13.884v0a6.467,6.467,0,0,1,4.041-4.708l.075-.069h0a4.52,4.52,0,0,1,3.426-2.852c4.09-3.443,7.894-7.334,12.35-10.211,4.974-3.212,10.331-5.927,16.643-5.983,3.892-.033,7.733-1,11.685-1.007,7.544,0,14.8.882,21.462,4.778a13.733,13.733,0,0,0,4.031,1.515,12.349,12.349,0,0,1,7.961,5.477c2.864,4.319,6.3,8.159,9.525,12.188a32.468,32.468,0,0,1,5.331,9.006c1.664,4.633,4.09,9,4.945,13.943a36.683,36.683,0,0,0,2.787,8.82,33.873,33.873,0,0,1,1.732,6.559,106.7,106.7,0,0,1,2.233,19.563h0c2.6.058,4.137-1.6,5.53-3.46.229-.3.5-.987.415-1.055C1110.088,789.728,1114.339,787.417,1112.492,785.272Z" transform="translate(0 0)" fill="#d24245"/>
    <path id="패스_7794" data-name="패스 7794" d="M1092.33,788.89c-.7-7.259-3.261-14.1-5.213-21.038a42.841,42.841,0,0,0-7.357-14.307c-5.031-6.548-10.2-12.995-15.379-19.423a18.991,18.991,0,0,0-13.309-7.094,55.686,55.686,0,0,0-20.8,2.111c-10.007,2.733-18.03,8.988-25.835,15.5a9.5,9.5,0,0,0-1.424,2.02h0a4.183,4.183,0,0,0-2.451,3.791,3.166,3.166,0,0,0-1.248,2.5c-1.146.858-1.236,2.153-1.406,3.413-1.185.54-1.352,1.552-1.263,2.685a6.042,6.042,0,0,0-2.122,5.142c-3.219,9.1-6.448,18.184-7.318,27.925-.139,1.554.331,3.1-.406,4.766a62.355,62.355,0,0,0-2.449,8.242c-1.516,2.781-1.066,5.83-1.2,8.8h0c-.663,3.674-1.179,7.328,1.44,10.548h0c4.084,3.923,5.727,4.2,10.607,1.848.893-.43,1.858-.707,2.792-1.054h0c-1.323-2.339-2.6-4.647-2.444-7.525a27.783,27.783,0,0,0-.633-4.274,78.039,78.039,0,0,1,.191-21.017c1.056-6.514,3.126-12.852,3.177-19.551a14.4,14.4,0,0,1,1.465-5.359c2.557-5.9,5.137-11.8,10.335-16.015a15.329,15.329,0,0,0,3.015-3.124c3.338-4.863,9.211-6.087,13.511-9.553a3.456,3.456,0,0,1,1.753-.573c5.705-.578,11.448-1.894,17,.851a12,12,0,0,0,2.956.937c9.072,1.811,15.46,7.48,20.884,14.52a88.916,88.916,0,0,1,9.83,14.953c2.47,5.029,5.053,9.956,6.6,15.356.907,3.172,1.427,6.47,3.652,9.13a4.607,4.607,0,0,1,.806,3.558c-.213,1.839-.6,3.659-.916,5.487,2.618-.581,3.272-2.683,3.791-4.9v0C1092.756,795.067,1092.627,791.971,1092.33,788.89Z" transform="translate(0.65 1.328)" fill="#4fc2f6"/>
  </g>
</svg>
