<svg xmlns="http://www.w3.org/2000/svg" width="155.851" height="157.426" viewBox="0 0 155.851 157.426">
  <path id="vector_heart" d="M224.389,1009.981c-.836-3.646-1.835-7.324-4.337-10.316h0c-.851-1.775-1.586-3.616-2.572-5.312a17.628,17.628,0,0,0-13.347-8.8c-9.539-1.3-18.377,1.172-26.526,6.209a4.209,4.209,0,0,0-2.333,3.224h0q-.54.618-1.081,1.234a1.349,1.349,0,0,0-1.264,1.128,1.47,1.47,0,0,0-1.147,1.252,1.368,1.368,0,0,0-1.085,1.258h0a34.516,34.516,0,0,0-4.579,6.205c-1.023,1.747-1.924,1.812-3.152.313-4.011-4.9-9.313-7.849-15.044-10.185h0a29.5,29.5,0,0,0-17.947-4.167c-4.036.258-7.141,2.068-10.145,3.951a10.165,10.165,0,0,0-4.644,7.245h0c-3.089,3.9-4.115,8.54-4.567,13.32-.143,1.524.618,3.128.5,4.66-.9,11.971,2.086,23.112,6.686,34.019,1.923,4.559,4.606,8.681,6.661,13.129a18.236,18.236,0,0,0,5.309,6.952h0c2.1,2.434,3.842,5.284,7.184,6.306h0a36.415,36.415,0,0,0,7.421,8.35,63.918,63.918,0,0,1,6.071,5.6c4.705,5.366,10.716,7.766,17.632,8.355,1.759.167,3.56.519,4.907-1.119h0c2.083-1.479,4.421-2.635,5.474-5.27a4.807,4.807,0,0,1,2.1-2,13.061,13.061,0,0,0,3.584-3.11c5.161-6.286,10.4-12.511,15.382-18.936a81.456,81.456,0,0,0,7.6-11.368c3.558-6.66,8.152-12.665,11.72-19.3,2.151-4,4.557-7.864,5.929-12.259C226.948,1023.627,225.948,1016.778,224.389,1009.981Z" transform="matrix(0.899, 0.438, -0.438, 0.899, 384.582, -933.98)" fill="#278e2a"/>
</svg>
