<svg xmlns="http://www.w3.org/2000/svg" width="91.005" height="99.39" viewBox="0 0 91.005 99.39">
  <path id="vector_twinkle" d="M-2765.288-2258.959a2.91,2.91,0,0,1-1.617-2.328c.318.16.747.239.934.5l.06.081-.06-.081c-.187-.257-.616-.336-.934-.5-1.136-1.459-1.2-3.22-1.341-4.94a71.185,71.185,0,0,0-2.341-12.787c-.26-.956-.608-1.888-.954-2.818-.516-1.392-1.239-2.4-3.021-1.914-1.7.465-2.876-.881-3.219-2.327-.222-.933.073-2.151-.925-2.7-1.135-.629-2.407-.276-3.627-.052a32.769,32.769,0,0,1-4.019.665c-2.5.142-3.124-.346-4.14-2.826a7.939,7.939,0,0,1-.279-1.079,3.88,3.88,0,0,1-2.235-2.7,1.183,1.183,0,0,1,.434-1.3,1.208,1.208,0,0,1,.987-.1,11.5,11.5,0,0,0,4.566,1.1c-1.271.791-3.793.012-3.8,2.395,0-2.382,2.525-1.6,3.8-2.395-1.209.989-3.025,1.216-3.705,2.87.68-1.654,2.5-1.881,3.706-2.87a4.218,4.218,0,0,1,.623-.383,18.4,18.4,0,0,0,6.68-4.937h0a9.689,9.689,0,0,1,2.325-3.8l.008,0c-.741,1.288-1.127,2.8-2.333,3.8,1.206-1,1.591-2.51,2.334-3.8l-.008,0c.006-.005.011-.013.019-.019l-.011.022.011-.022c-.007.006-.013.014-.019.019l-.031-.008h0l.029-.018-.029.018a8.817,8.817,0,0,1,.691-2.874c.973-2.545,1.923-5.1,2.805-7.679a6.807,6.807,0,0,1,1.734-2.8c-.545,1.983-1.382,3.865-2.007,5.819-.471,1.472-.192,2.813,1.309,2.823-1.5-.01-1.779-1.351-1.308-2.823.625-1.955,1.461-3.837,2.007-5.819a1.811,1.811,0,0,1,.219.129,1.811,1.811,0,0,0-.219-.129c-.17-3.362,1.158-6.265,2.849-9.026a1.8,1.8,0,0,1,2.665-.231,3.759,3.759,0,0,1,1.406,3.3c.007,3.868.044,7.736.068,11.605.01,1.623.041,3.245.023,4.868a18.3,18.3,0,0,0,.76,4.793,4.709,4.709,0,0,0,1.993,3.046,5.361,5.361,0,0,1,1.377,1.256,6.221,6.221,0,0,0,6.161,2.641c2.146-.249,3.554,2.361,2.5,4.21-.431.76-.9,1.6-1.815,1.791-1.92.406-2.5,1.811-2.939,3.462-1.622,6.153-3.224,12.3-3.193,18.741a8,8,0,0,1-.347,3.324v0a2.812,2.812,0,0,1-.123.427,2.812,2.812,0,0,0,.123-.427v0a2.01,2.01,0,0,1,.172.81,2.01,2.01,0,0,0-.172-.81c.942,1.573.317,2.822-.824,3.963h0v0a3.679,3.679,0,0,1-2.382,1.312A2.69,2.69,0,0,1-2765.288-2258.959Zm1.692.148h0Zm-.044,0c-1.289-.01-2.24-1.256-3.214-2.416C-2765.88-2260.067-2764.928-2258.821-2763.64-2258.811Zm.218-.645h0Zm-.073,0a2.9,2.9,0,0,1-2.381-1.209A2.9,2.9,0,0,0-2763.494-2259.456Zm1.987-.35-.218.064.218-.064h0l.005,0-.006,0Zm-.055.053.057-.049Zm.058-.049v0h0Zm-7.557-19.764h0Zm.185-.748a4.719,4.719,0,0,0-.391.52h0a4.719,4.719,0,0,1,.391-.52Zm.341.412a.373.373,0,0,0,.032-.151A.373.373,0,0,1-2768.535-2279.9Zm-5.73-20.3a5.543,5.543,0,0,0,.98-.176,5.538,5.538,0,0,1-.981.176,7.4,7.4,0,0,1-1.638.3A7.406,7.406,0,0,0-2774.265-2300.2Zm-2.158.167Zm0,0c-.328-.256-.246-.9.105-2.111C-2776.672-2300.939-2776.754-2300.3-2776.426-2300.039Zm3.232-.4c1.191-.925,3.074-1.109,3.338-3.046h0c-.481.183-.952.426-1.442.563.49-.137.961-.381,1.443-.563C-2770.119-2301.547-2772-2301.363-2773.193-2300.438Zm-3.1-1.793.022-.076Zm.055-.187q.013-.042.024-.083Q-2776.228-2302.46-2776.241-2302.418Zm4.667-.438a1.106,1.106,0,0,1-.208.02A1.106,1.106,0,0,0-2771.573-2302.856Zm-.346.011q-.047-.006-.092-.016Q-2771.966-2302.851-2771.919-2302.845Zm-.126-.024c.239-.306.479-.64.72-.979l.025-.085-.025.085c-.241.339-.481.673-.72.979Zm-.7-1.021a.924.924,0,0,0,.7,1.021.923.923,0,0,1-.7-1.021,16.9,16.9,0,0,1,1.92-4.86h0A16.969,16.969,0,0,0-2772.747-2303.89Zm-4.586-.354h0Zm6.315-.072a1.589,1.589,0,0,1-.121-.218c.1-.411.2-.823.3-1.237,0-.022.005-.046.006-.068,0,.022-.006.047-.006.068-.1.413-.2.824-.3,1.234h0A1.658,1.658,0,0,0-2771.018-2304.316Zm.956-1.067h0Zm-.091-.007a1.131,1.131,0,0,1-.541-.32A1.131,1.131,0,0,0-2770.152-2305.39Zm.249-.021a.6.6,0,0,0,.056-.023h0A.6.6,0,0,1-2769.9-2305.411Zm.056-.025a3.281,3.281,0,0,1-.533-1.913c-.009-.081-.019-.162-.031-.244.012.081.022.163.031.244A3.281,3.281,0,0,0-2769.847-2305.436Zm-.886-.311-.06-.057Zm-.1-.093Zm0,0a1.543,1.543,0,0,0-.152-.132A1.543,1.543,0,0,1-2770.831-2305.84Zm-.257-.175h0Zm.725-1.381.018-.053Zm.025-.074c.274-.82.3-1.522-1.17-1.528C-2770.034-2308.992-2770.064-2308.29-2770.338-2307.47Zm.243-3.477a7.109,7.109,0,0,0,.8,1.581,2.1,2.1,0,0,1,.6,1.344,2.1,2.1,0,0,0-.6-1.344,7.109,7.109,0,0,1-.8-1.581Zm-2.775,2.047h0Zm.477-.038.1-.012Zm.854-.06h0Zm-.837-.691a1.176,1.176,0,0,0,.166-.049,1.176,1.176,0,0,1-.166.049,1.437,1.437,0,0,1-.3.03A1.439,1.439,0,0,0-2772.375-2309.689Zm-1.385-.987c0-.016,0-.032,0-.047C-2773.762-2310.708-2773.761-2310.692-2773.76-2310.676Zm3.62-.271h0Zm-1.417-3.478c-.007-.445-.835-.538-.842-.979C-2772.393-2314.964-2771.565-2314.87-2771.558-2314.425Zm43.635,25.329a6.068,6.068,0,0,1-.371-2.932c.173-2.61.227-5.23.469-7.833a12.3,12.3,0,0,0-1.679-7.524,4.987,4.987,0,0,1-.965-3.511,1.755,1.755,0,0,0-.858-1.931c-1.745-.943-3.257-2.33-5.264-2.78a7.2,7.2,0,0,1-3.856-2.11,13.052,13.052,0,0,0-2.515-1.544,1.206,1.206,0,0,1,.166-1.914,7.426,7.426,0,0,1,2.093-.744,7.062,7.062,0,0,0,4.162-2.314c5.611-5.86,9.116-12.688,9.721-20.894a66.3,66.3,0,0,0,.465-7.084,7.052,7.052,0,0,1,.146-1.486,2.515,2.515,0,0,1,1.969-2.022,2.617,2.617,0,0,1,2.919,1.163,4.98,4.98,0,0,1,.823,2.824c-.027,3.241-.01,6.482-.01,9.723l-.138,0c.1,3.364.181,6.729.316,10.091a3.908,3.908,0,0,0,.445,1.788,34.575,34.575,0,0,0,4.485,5.968,1.644,1.644,0,0,0,2.364.176,26.077,26.077,0,0,0,2.18-2.034c.886-.876,1.738-1.787,2.617-2.668a2.588,2.588,0,0,1,3.074-.635,3.231,3.231,0,0,1,2.127,3.2,5.385,5.385,0,0,1-2.177,4.562c-4.274,2.9-6.964,7.052-9.347,11.461-1.776,3.287-3.731,6.469-5.331,9.863a13.513,13.513,0,0,0-1.364,6.105,14.839,14.839,0,0,1-.6,4.806,3.179,3.179,0,0,1-2.915,2.469h-.016A3.4,3.4,0,0,1-2727.923-2289.1Zm8.587-25.787h0Zm-.019,0a1.8,1.8,0,0,1-.265-.022A1.8,1.8,0,0,0-2719.354-2314.883Zm1.6-1.408.016-.03Zm-2.363-2.461a2.11,2.11,0,0,0-.919,1.748,2.11,2.11,0,0,1,.919-1.748,1.507,1.507,0,0,1,.9-.336h0A1.5,1.5,0,0,0-2720.12-2318.753Zm1.709-.066c.513.34,1.027.674,1.034,1.478-.008-.8-.521-1.139-1.034-1.478Zm-11.132-1.556c.052.226.189.334.4.289-.21.045-.348-.063-.4-.289Zm.412.286h0Zm.319-.324c.051-.22-.039-.4-.215-.4C-2728.851-2320.812-2728.76-2320.634-2728.811-2320.414Zm5.056-.339h0Zm-5.35-.058-.031.01.031-.01a.324.324,0,0,1,.07-.008h0A.324.324,0,0,0-2729.105-2320.81Zm5.917-1.579c0,.03.006.061.01.093,0-.032-.008-.063-.01-.093-.014-.188-.017-.379-.017-.571C-2723.205-2322.769-2723.2-2322.578-2723.188-2322.39Zm-1.661-.276c0-.3.032-.6.044-.9C-2724.817-2323.267-2724.85-2322.965-2724.849-2322.665Zm1.648-.9a3.075,3.075,0,0,0-.735-2.347c-.428-.848-.817-1.723-1.319-2.525l-.006-.009.006.009c.5.8.891,1.677,1.319,2.525A3.075,3.075,0,0,1-2723.2-2323.565Zm-1.6,0Zm0,0c-.042-.437-.082-.873-.124-1.31Q-2724.867-2324.22-2724.8-2323.567Zm.053-.039a1.843,1.843,0,0,0,.565-2.1h0A1.843,1.843,0,0,1-2724.752-2323.606Zm.2-1.473a.492.492,0,0,1-.386.133h0A.494.494,0,0,0-2724.548-2325.079Zm0,0,.01-.01Zm.012-.012.009-.009Zm.013-.015.006-.006Zm.016-.018Zm.018-.023v0Zm.01-.013h0Zm.007-.01,0,0Zm.019-.08a.917.917,0,0,1,.1-.282l.167-.17-.167.17a.825.825,0,0,1,.418-.379.825.825,0,0,0-.418.379A.917.917,0,0,0-2724.452-2325.252Zm-1.744-3.243c-.249.147-.545.688-.454.855.418.764.911,1.487,1.4,2.213-.485-.727-.978-1.449-1.4-2.213-.093-.167.2-.708.453-.855a.928.928,0,0,1,.437-.088h0A.925.925,0,0,0-2726.2-2328.494Zm-51.224,24.3h0Z" transform="translate(2793.543 2356.351)" fill="#ffd401" stroke="rgba(0,0,0,0)" stroke-miterlimit="10" stroke-width="1"/>
</svg>
