<svg xmlns="http://www.w3.org/2000/svg" width="143.211" height="129.289" viewBox="0 0 143.211 129.289">
  <g id="vector" transform="translate(-315.613 -107.342)">
    <path id="패스_3527" data-name="패스 3527" d="M320.368,206.2a.887.887,0,0,0-.194.113c.065-.036.129-.075.194-.113Z" fill="none"/>
    <path id="패스_3528" data-name="패스 3528" d="M454.66,108.015a24.357,24.357,0,0,0-8.861-.435,52.779,52.779,0,0,0-20.265,8.324c-5.252,3.409-9.685,7.58-12.2,13.52-1.392,3.293-3.3,6.392-4.457,9.756-1.064,3.081-2.749,4.688-6.025,4.631a26.07,26.07,0,0,0-10.977,2.436,30.83,30.83,0,0,1-3.963,1.317A54.131,54.131,0,0,0,372.92,154.8c-3.782,2.5-7.583,5.176-10.506,8.733-3.524,4.289-7.28,8.434-9.464,13.685a41.624,41.624,0,0,1-2.479,4.073,3.455,3.455,0,0,1-3.382,2.022c-3.645-.3-7.14.676-10.6,1.406-6.39,1.349-11.869,4.382-15.232,10.353-.834,2.015,1.227,4.193.133,5.846-.978,1.477-3.224,1.968-4.36,3.6a1.73,1.73,0,0,1-.451.336,5.769,5.769,0,0,0,.224,1.071c.8,1.95.871,1.962,2.653.807.232-.15.476-.283.717-.42a.887.887,0,0,1,.194-.113,2.194,2.194,0,0,1,2.133-2.578h0l.047-.041q.519-.548,1.035-1.1l0,0c1.361-1.43,2.667-2.918,4.1-4.274a14.751,14.751,0,0,1,7.187-3.955,70.805,70.805,0,0,1,8.808-1c1.82-.132,2.924.943,2.914,2.918-.027,5.949,1.213,11.713,2.259,17.519.924,5.128,2.444,9.96,5.826,14.045a2.426,2.426,0,0,1,1.525,2.127h0l.043.032c.189-.014.379-.026.568-.041,2.64-.2,2.64-.2,2.881,2.542h0c.672,1.66,2.224,2.219,3.674,2.839,7.819,3.345,22.128.345,28.119-5.183,3.4-3.139,5.258-7.237,4.538-11.822-1-6.371-3.389-12.285-8.079-16.971-2.518-2.517-5.232-4.839-7.722-7.382a26.032,26.032,0,0,0-7.929-5.208c-2.157-1-4.359-1.907-6.487-2.964-2.239-1.112-2.524-2.125-.934-4.185,2.788-3.611,5.559-7.163,9.247-10.07,8.457-6.667,17.469-11.733,28.465-12.464,1.858-.124,2.935.508,2.611,2.069-1.249,6.032.289,11.853,1.075,17.741a24.478,24.478,0,0,0,2.039,6.206c2.01,4.8,5.858,8.006,9.658,11.144a14.2,14.2,0,0,0,9.318,3.606c4.775-.132,9.569-.5,13.721-3.337h0a7.688,7.688,0,0,1-.6-1.6c-.182-1.288.326-1.665,1.688-1.268a10.546,10.546,0,0,1,1.555.73h0c2.659-2.25,3.336-5.332,3.435-8.573.312-10.2-3.139-19.056-9.717-26.77a61.384,61.384,0,0,0-12.135-11.408,2.787,2.787,0,0,1-1.213-3.552c2.118-7.218,6.89-12.027,13.669-14.784,4.765-1.938,9.388-4.324,14.55-5.231,3.063-.537,4.817-2.665,5.642-5.544a23.63,23.63,0,0,0,.919-4.674A5.083,5.083,0,0,0,454.66,108.015ZM378.823,209.66a2.589,2.589,0,0,1,1.289,2.289l.026.05.006.009.449.6a4.015,4.015,0,0,1,.548.735l-.029.018c.947-.254,1.89-.535,2.846-.752.574-.13,1.2-.065,1.328.624a1.233,1.233,0,0,1-.518.924c-.781.569-1.628,1.047-2.449,1.562.1.988.123,1.99.308,2.961.671,3.529.542,4.209-2.56,5.465-9.071,3.672-14.967,1.54-18.406-5.228a25.348,25.348,0,0,1-3.056-11.411c.011-2.586.07-5.178-.061-7.758-.243-4.8,1.32-4.741,4.9-2.892A41.582,41.582,0,0,1,378.823,209.66Zm45.471-42.2c3.135,4.582,5.955,9.344,7.144,14.871a8.6,8.6,0,0,1,.091,1.184c.069,2.222-1.248,3.194-3.461,2.6-2.376-.639-4.578-1.651-5.628-3.988a28.875,28.875,0,0,1-2.655-16.176,1.157,1.157,0,0,1,1.792-.772A11.579,11.579,0,0,1,424.294,167.459Z" fill="#6bab79"/>
    <path id="패스_3529" data-name="패스 3529" d="M381.111,213.362h0Z" fill="#6bab79"/>
    <path id="패스_3530" data-name="패스 3530" d="M323.584,202.481q-.516.549-1.035,1.1A3.723,3.723,0,0,0,323.584,202.481Z" fill="#6bab79"/>
    <path id="패스_3531" data-name="패스 3531" d="M380.144,212.008a3.658,3.658,0,0,0,.449.6Z" fill="#6bab79"/>
    <path id="패스_3532" data-name="패스 3532" d="M316.579,204.844a93.585,93.585,0,0,0,4.679-9.775c-3.289,2.433-4.4,5.909-4.686,9.783l.007-.01Z" fill="#80b58c"/>
    <path id="패스_3533" data-name="패스 3533" d="M316.58,204.852a1.73,1.73,0,0,0,.451-.336c1.136-1.633,3.382-2.124,4.36-3.6,1.094-1.653-.967-3.831-.133-5.846a93.585,93.585,0,0,1-4.679,9.775Z" fill="#80b58c"/>
    <path id="패스_3534" data-name="패스 3534" d="M320.368,206.2c-.065.038-.129.077-.194.113-.871.674-.56,2.823-2.367,2.142-1.608-.607-2.293-1.895-1.235-3.6v0c-1.521,1.811-1.026,3.646.052,5.4a2.183,2.183,0,0,0,2.411,1.246c.948-.222,1.08-1.046,1.159-1.811.121-1.158.146-2.324.209-3.488-.013.007-.022.017-.035.023A.207.207,0,0,1,320.368,206.2Z" fill="#80b58c"/>
    <path id="패스_3535" data-name="패스 3535" d="M316.571,204.858h0Z" fill="#80b58c"/>
    <path id="패스_3536" data-name="패스 3536" d="M316.571,204.857h0c-1.058,1.7-.373,2.989,1.235,3.6,1.807.681,1.5-1.468,2.367-2.142-.241.137-.485.27-.717.42-1.782,1.155-1.851,1.143-2.653-.807a5.769,5.769,0,0,1-.224-1.071l-.009.006Z" fill="#80b58c"/>
    <path id="패스_3537" data-name="패스 3537" d="M316.579,204.842l-.007.01v0Z" fill="#80b58c"/>
    <path id="패스_3538" data-name="패스 3538" d="M316.571,204.857l.008-.013v0l-.008.015Z" fill="#80b58c"/>
    <path id="패스_3539" data-name="패스 3539" d="M316.571,204.857h0l.009-.006v-.008Z" fill="#80b58c"/>
    <path id="패스_3540" data-name="패스 3540" d="M316.579,204.842l-.007.014h0Z" fill="#80b58c"/>
    <path id="패스_3541" data-name="패스 3541" d="M441.01,196.408h0a3.864,3.864,0,0,0,2.643-2.141A3.081,3.081,0,0,0,441.01,196.408Z" fill="#81b68d"/>
    <path id="패스_3542" data-name="패스 3542" d="M442.1,193.536c-1.362-.4-1.87-.02-1.688,1.268a7.688,7.688,0,0,0,.6,1.6,3.081,3.081,0,0,1,2.643-2.141h0A10.546,10.546,0,0,0,442.1,193.536Z" fill="#81b68d"/>
    <path id="패스_3543" data-name="패스 3543" d="M356.247,229.888c.678,1.484,2.2,1.806,3.449,2.5h0C359.395,230.384,357.343,230.8,356.247,229.888Z" fill="#8cbb97"/>
    <path id="패스_3544" data-name="패스 3544" d="M356.815,229.847c-.189.015-.379.027-.568.041,1.1.908,3.148.5,3.449,2.5C359.455,229.644,359.455,229.644,356.815,229.847Z" fill="#8cbb97"/>
    <path id="패스_3545" data-name="패스 3545" d="M320.381,206.19h0l.022-.013h0l0,0v.021a4.406,4.406,0,0,0,2.1-2.58h0C321.664,204.369,320.663,204.985,320.381,206.19Z" fill="#80b58c"/>
    <path id="패스_3546" data-name="패스 3546" d="M320.381,206.19h0l-.013.007h0Z" fill="#80b58c"/>
    <path id="패스_3547" data-name="패스 3547" d="M320.382,206.189h0Z" fill="#80b58c"/>
    <path id="패스_3548" data-name="패스 3548" d="M320.368,206.2l.013-.007c.282-1.205,1.283-1.821,2.12-2.571A2.194,2.194,0,0,0,320.368,206.2Z" fill="#80b58c"/>
    <path id="패스_3549" data-name="패스 3549" d="M320.406,206.176h0Z" fill="#80b58c"/>
    <path id="패스_3550" data-name="패스 3550" d="M320.4,206.176l-.022.013c.008,0,.014-.009.022-.012Z" fill="#80b58c"/>
    <path id="패스_3551" data-name="패스 3551" d="M320.368,206.2a.207.207,0,0,0,0,.025c0-.012.01-.02.013-.032Z" fill="#80b58c"/>
    <path id="패스_3552" data-name="패스 3552" d="M320.368,206.222c.013-.006.022-.016.035-.023v-.021Z" fill="#80b58c"/>
    <path id="패스_3553" data-name="패스 3553" d="M320.368,206.222l.036-.044h0c-.008,0-.014.009-.022.012h0C320.378,206.2,320.371,206.21,320.368,206.222Z" fill="#80b58c"/>
    <path id="패스_3554" data-name="패스 3554" d="M354.678,227.728a2.406,2.406,0,0,0,1.525,2.128h0C355.326,229.411,355.631,228.118,354.678,227.728Z" fill="#8cbb97"/>
    <path id="패스_3555" data-name="패스 3555" d="M354.678,227.728c.953.39.648,1.683,1.525,2.127A2.426,2.426,0,0,0,354.678,227.728Z" fill="#8cbb97"/>
    <path id="패스_3556" data-name="패스 3556" d="M380.593,212.609l.548.735A4.015,4.015,0,0,0,380.593,212.609Z" fill="#d7dfd8"/>
    <path id="패스_3557" data-name="패스 3557" d="M381.111,213.363c1.091.432.665,1.643,1.208,2.357.821-.515,1.668-.993,2.449-1.562a1.233,1.233,0,0,0,.518-.924c-.132-.689-.754-.754-1.328-.624-.956.217-1.9.5-2.846.752h0Z" fill="#8cbb96"/>
    <path id="패스_3558" data-name="패스 3558" d="M381.111,213.363a3.363,3.363,0,0,0,1.208,2.357C381.776,215.006,382.2,213.795,381.111,213.363Z" fill="#8cbb96"/>
    <path id="패스_3559" data-name="패스 3559" d="M381.111,213.362h0Z" fill="#8cbb96"/>
    <path id="패스_3560" data-name="패스 3560" d="M380.112,211.949a2.589,2.589,0,0,0-1.289-2.289C379.537,210.263,379.262,211.423,380.112,211.949Z" fill="#8cbb96"/>
    <path id="패스_3561" data-name="패스 3561" d="M380.112,211.949c-.85-.526-.575-1.686-1.289-2.289A2.611,2.611,0,0,0,380.112,211.949Z" fill="#8cbb96"/>
  </g>
</svg>
