<svg id="vector" xmlns="http://www.w3.org/2000/svg" width="117.586" height="127.161" viewBox="0 0 117.586 127.161">
  <path id="패스_3562" data-name="패스 3562" d="M886.167,128.156a3.382,3.382,0,0,0-4.016.83c-1.149,1.153-2.262,2.342-3.419,3.487a34.475,34.475,0,0,1-2.848,2.657,2.149,2.149,0,0,1-3.09-.231,45.181,45.181,0,0,1-5.859-7.8,5.106,5.106,0,0,1-.582-2.336c-.177-4.393-.282-8.789-.412-13.185l.181,0c0-4.235-.022-8.469.013-12.7a6.512,6.512,0,0,0-1.075-3.69,3.421,3.421,0,0,0-3.814-1.52,3.287,3.287,0,0,0-2.572,2.643,9.257,9.257,0,0,0-.192,1.941,86.577,86.577,0,0,1-.606,9.256c-.791,10.721-5.37,19.642-12.7,27.3a9.223,9.223,0,0,1-5.437,3.023A9.721,9.721,0,0,0,837,138.8a1.576,1.576,0,0,0-.216,2.5c1.079.705,2.439,1.113,3.285,2.017a9.4,9.4,0,0,0,5.038,2.757c2.623.588,4.6,2.4,6.878,3.632a2.294,2.294,0,0,1,1.12,2.524c-.318,1.758.424,3.152,1.26,4.586a16.07,16.07,0,0,1,2.2,9.83c-.317,3.4-.387,6.824-.613,10.234a7.926,7.926,0,0,0,.485,3.83,4.441,4.441,0,0,0,4.119,2.924,4.153,4.153,0,0,0,3.808-3.225,19.367,19.367,0,0,0,.778-6.279,17.655,17.655,0,0,1,1.782-7.977c2.09-4.435,4.645-8.592,6.965-12.886,3.113-5.761,6.628-11.183,12.213-14.974a7.032,7.032,0,0,0,2.844-5.96A4.223,4.223,0,0,0,886.167,128.156Zm-30.907,11.7a.564.564,0,0,1-.284.327.432.432,0,0,1-.656-.337c.188-.2.349-.517.571-.567C855.205,139.207,855.369,139.5,855.259,139.855Zm6.573-.5c-1.152-.013-1.306-1.242-1.372-2.228a13.863,13.863,0,0,1,.049-1.449h0q-.086-.9-.17-1.8c-.762-1.165-1.574-2.3-2.24-3.52-.12-.219.268-.925.592-1.117.308-.182,1.093-.142,1.229.074.656,1.049,1.164,2.191,1.724,3.3h0c1.291,1.327.863,3.027.977,4.6C862.683,138.042,863.465,139.373,861.832,139.353Zm7.93,5.746c-.537.992-1.035,2.118-2.477,1.893a2.037,2.037,0,0,1-1.677-1.565,2.927,2.927,0,0,1,1.023-3.461,1.78,1.78,0,0,1,2.234-.088c.681.451,1.363.895,1.351,1.981A8.033,8.033,0,0,1,869.762,145.1Z" transform="translate(-771.361 -93.539)" fill="#ffd401"/>
  <path id="패스_3563" data-name="패스 3563" d="M766.353,190.2a42.867,42.867,0,0,0,5.252-.868c1.593-.293,3.256-.755,4.739.068,1.3.723.917,2.315,1.208,3.534.449,1.888,1.99,3.647,4.206,3.039,2.328-.639,3.274.683,3.948,2.5.451,1.215.906,2.433,1.246,3.681a92.941,92.941,0,0,1,3.059,16.707c.186,2.247.268,4.548,1.752,6.454.414.21.976.313,1.219.647,1.585,2.179,3.653,1.945,5.832,1.288-1.12-2.032.737-3.446,1.08-5.174l0,0v0a10.459,10.459,0,0,0,.453-4.343c-.04-8.409,2.053-16.446,4.172-24.486.568-2.157,1.332-3.993,3.84-4.523,1.19-.251,1.808-1.348,2.372-2.34,1.375-2.417-.466-5.826-3.269-5.5a8.133,8.133,0,0,1-8.051-3.45,6.959,6.959,0,0,0-1.8-1.643,6.154,6.154,0,0,1-2.6-3.978,23.919,23.919,0,0,1-.993-6.263c.024-2.12-.016-4.239-.029-6.36-.032-5.055-.08-10.108-.088-15.163a4.912,4.912,0,0,0-1.837-4.3,2.358,2.358,0,0,0-3.482.3c-2.208,3.608-3.943,7.4-3.721,11.793.667.339.993.814.542,1.532-.251.4-.724.733-.807,1.155-.158.793,1.575.787.955,1.787a10.972,10.972,0,0,1-1.7,1.668,4.332,4.332,0,0,0-1.039,2.648,1.6,1.6,0,0,0,.479,1.246,1.763,1.763,0,0,0,1.325.223c1.1-.239,1.565-1.662,2.979-1.643a9.281,9.281,0,0,0,1.045,2.066c1.207,1.4.946,2.562-.249,3.786-.3.309-.323.892-.473,1.35h0q-.006,1.276-.011,2.549c-.344,2.531-2.806,2.771-4.361,3.98-.34.265-.935.184-1.4.305-3.253.841-3.607.517-2.581-2.892.476-1.581-.292-2-1.479-2.3-.151,2.187-.8,4.072-3.062,4.96h0a24.052,24.052,0,0,1-8.728,6.45,5.591,5.591,0,0,0-.814.5c-1.618,1.323-4.068,1.6-4.9,3.908a10.348,10.348,0,0,0,.365,1.41C762.271,189.752,763.09,190.391,766.353,190.2Zm22.833,10.257c.354-.013.587.2.446.539-.088.21-.435.326-.686.438-.042.019-.293-.259-.272-.3A6.327,6.327,0,0,1,789.186,200.462Z" transform="translate(-757.618 -101.814)" fill="#ffd401"/>
  <path id="패스_3564" data-name="패스 3564" d="M781.894,175.953h0Z" transform="translate(-761.488 -108.503)" fill="#ffd401"/>
  <path id="패스_3565" data-name="패스 3565" d="M784.31,172.508c1.571,4.238,3.084,3.243,4.605,1.3a1.207,1.207,0,0,1-.915-1.333c.3-2.264,1.48-4.154,2.509-6.352a3.949,3.949,0,0,1,.583,1.833c.475-1.336.59-2.5-2.746-2.062-2.423.316-2.906-1.569-2.239-3.653.817-2.553,1.909-5.012,2.622-7.6a8.892,8.892,0,0,0-2.266,3.654c-1.152,3.368-2.395,6.707-3.665,10.032a11.484,11.484,0,0,0-.9,3.755C782.835,171.5,783.937,171.5,784.31,172.508Z" transform="translate(-761.488 -104.634)" fill="#fdd409"/>
  <path id="패스_3566" data-name="패스 3566" d="M781.895,175.95h0l.04.011c.009-.007.016-.016.025-.025Z" transform="translate(-761.488 -108.5)" fill="#fdd409"/>
  <path id="패스_3567" data-name="패스 3567" d="M789.221,165.9c3.336-.435,3.221.726,2.746,2.062a4.287,4.287,0,0,0,.7,2.5c.15-.457.172-1.04.473-1.35,1.195-1.224,1.456-2.382.249-3.786a9.278,9.278,0,0,1-1.045-2.066c-1.414-.019-1.874,1.4-2.979,1.643a1.763,1.763,0,0,1-1.325-.223,1.6,1.6,0,0,1-.479-1.246,4.332,4.332,0,0,1,1.039-2.648,10.978,10.978,0,0,0,1.7-1.668c.62-1-1.113-.994-.955-1.787.083-.421.556-.754.807-1.155.451-.719.125-1.193-.542-1.532-.713,2.59-1.806,5.049-2.622,7.6C786.314,164.329,786.8,166.214,789.221,165.9Z" transform="translate(-762.362 -104.634)" fill="#fdd409"/>
  <path id="패스_3568" data-name="패스 3568" d="M781.956,175.883c1.187.3,1.954.719,1.479,2.3-1.026,3.41-.673,3.733,2.581,2.892.467-.121,1.062-.04,1.4-.305,1.555-1.209,4.017-1.449,4.361-3.98a13.682,13.682,0,0,1-2.244.821,1.416,1.416,0,0,1-.618-.018c-1.521,1.94-3.035,2.934-4.605-1.3-.373-1.007-1.476-1.01-2.415-.425h0l.065-.013C781.959,175.863,781.957,175.873,781.956,175.883Z" transform="translate(-761.488 -108.415)" fill="#fdd409"/>
  <path id="패스_3569" data-name="패스 3569" d="M764.825,190.19a15.014,15.014,0,0,1-5.966-1.441,1.572,1.572,0,0,0-1.29.124,1.544,1.544,0,0,0-.567,1.7,5.07,5.07,0,0,0,2.919,3.527C759.362,190.04,763.038,191.3,764.825,190.19Z" transform="translate(-756.961 -110.81)" fill="#f8d523"/>
  <path id="패스_3570" data-name="패스 3570" d="M765.469,190.53c-1.787,1.111-5.463-.15-4.9,3.908C761.4,192.132,763.851,191.853,765.469,190.53Z" transform="translate(-757.605 -111.15)" fill="#f8d523"/>
  <path id="패스_3571" data-name="패스 3571" d="M798.681,244.446a3.8,3.8,0,0,0,2.112,3.042c1.745,1.066,2.966.765,4.943-1.1h0C802.412,249.3,800.59,246.71,798.681,244.446Z" transform="translate(-764.536 -120.939)" fill="#fad51c"/>
  <path id="패스_3572" data-name="패스 3572" d="M805.735,246.386l0,0c-2.18.656-4.247.891-5.832-1.288-.244-.335-.805-.438-1.219-.647C800.59,246.71,802.412,249.3,805.735,246.386Z" transform="translate(-764.536 -120.939)" fill="#fad51c"/>
  <path id="패스_3573" data-name="패스 3573" d="M807.3,245.662l.008,0v0l-.009.011c1.491-1.491,2.308-3.122,1.077-5.178C809.23,242.467,807.39,243.882,807.3,245.662Z" transform="translate(-766.101 -120.222)" fill="#fad51c"/>
  <path id="패스_3574" data-name="패스 3574" d="M807.3,246.817v0Z" transform="translate(-766.101 -121.37)" fill="#fad51c"/>
  <path id="패스_3575" data-name="패스 3575" d="M807.31,246.807l-.008.007v0l.009-.011Z" transform="translate(-766.101 -121.368)" fill="#fad51c"/>
  <path id="패스_3576" data-name="패스 3576" d="M807.218,245.663l0,0c.087-1.78,1.927-3.2,1.076-5.169l0,0C807.955,242.218,806.1,243.631,807.218,245.663Z" transform="translate(-766.022 -120.221)" fill="#fad51c"/>
  <path id="패스_3577" data-name="패스 3577" d="M807.31,246.807h0l-.008,0v0Z" transform="translate(-766.101 -121.368)" fill="#fad51c"/>
  <path id="패스_3578" data-name="패스 3578" d="M807.3,246.815h0Z" transform="translate(-766.101 -121.369)" fill="#fad51c"/>
  <path id="패스_3579" data-name="패스 3579" d="M807.3,246.814l.008-.007-.007.006Z" transform="translate(-766.101 -121.368)" fill="#fad51c"/>
  <path id="패스_3580" data-name="패스 3580" d="M807.3,246.814v0H807.3l0,.005Z" transform="translate(-766.101 -121.368)" fill="#fad51c"/>
  <path id="패스_3581" data-name="패스 3581" d="M781.279,175.97l-.011,0a12.654,12.654,0,0,0-3.039,4.967C779.807,179.624,780.31,177.654,781.279,175.97Z" transform="translate(-760.823 -108.506)" fill="#fdd409"/>
  <path id="패스_3582" data-name="패스 3582" d="M781.291,175.974l-.011,0c-.969,1.684-1.472,3.653-3.049,4.964h0C780.494,180.046,781.139,178.161,781.291,175.974Z" transform="translate(-760.823 -108.506)" fill="#fdd409"/>
  <path id="패스_3583" data-name="패스 3583" d="M781.968,175.937c-.009.008-.016.017-.025.025l.011,0Z" transform="translate(-761.497 -108.5)" fill="#fdd409"/>
  <path id="패스_3584" data-name="패스 3584" d="M781.956,175.965l.011,0c0-.011,0-.02,0-.031Z" transform="translate(-761.499 -108.5)" fill="#fdd409"/>
  <path id="패스_3585" data-name="패스 3585" d="M875.334,152.525a1.78,1.78,0,0,0-2.234.088,2.927,2.927,0,0,0-1.023,3.461,2.037,2.037,0,0,0,1.677,1.565c1.442.225,1.94-.9,2.477-1.893a8.033,8.033,0,0,0,.453-1.239C876.7,153.419,876.015,152.976,875.334,152.525Z" transform="translate(-777.83 -104.185)" fill="#dfddae"/>
  <path id="패스_3586" data-name="패스 3586" d="M866.873,141.614h0Z" transform="translate(-776.918 -102.268)" fill="#ebd96c"/>
  <path id="패스_3587" data-name="패스 3587" d="M867.01,141.28h0l-.328.273a2.394,2.394,0,0,1-.807,2.791h0a13.846,13.846,0,0,0-.049,1.449c.065.986.219,2.215,1.372,2.228,1.633.02.85-1.311.79-2.139C867.873,144.307,868.3,142.607,867.01,141.28Z" transform="translate(-776.726 -102.207)" fill="#ebd96c"/>
  <path id="패스_3588" data-name="패스 3588" d="M866.483,140.506c-.561-1.108-1.068-2.25-1.724-3.3-.136-.217-.922-.256-1.229-.074-.324.192-.712.9-.592,1.117.666,1.218,1.478,2.355,2.24,3.52l.758-.769A1.075,1.075,0,0,1,866.483,140.506Z" transform="translate(-776.199 -101.433)" fill="#e9da7c"/>
  <path id="패스_3589" data-name="패스 3589" d="M866.606,141.775l.219-.222h0l.328-.273h0A1.075,1.075,0,0,0,866.606,141.775Z" transform="translate(-776.869 -102.207)" fill="#e9da7c"/>
  <path id="패스_3590" data-name="패스 3590" d="M866.313,142.412a.646.646,0,0,1-.633.337q.085.9.17,1.8C866.493,143.939,866.33,143.16,866.313,142.412Z" transform="translate(-776.701 -102.413)" fill="#dfddb0"/>
  <path id="패스_3591" data-name="패스 3591" d="M866.695,141.614h0c-.143.19-.217.448-.344.653.017.748.18,1.527-.462,2.138h0A2.394,2.394,0,0,0,866.695,141.614Z" transform="translate(-776.739 -102.268)" fill="#dfddb0"/>
  <path id="패스_3592" data-name="패스 3592" d="M866.313,142.316l0-.063a1.184,1.184,0,0,1,.127-.368l-.758.769A.646.646,0,0,0,866.313,142.316Z" transform="translate(-776.701 -102.317)" fill="#dfddb0"/>
  <path id="패스_3593" data-name="패스 3593" d="M866.451,142.2l0,.063c.127-.205.2-.463.344-.653l-.219.222A1.182,1.182,0,0,0,866.451,142.2Z" transform="translate(-776.841 -102.268)" fill="#dfddb0"/>
  <path id="패스_3594" data-name="패스 3594" d="M866.873,141.614h0Z" transform="translate(-776.918 -102.268)" fill="#dfddb0"/>
  <path id="패스_3595" data-name="패스 3595" d="M858.9,149.423c-.222.05-.383.368-.571.567a.432.432,0,0,0,.656.337.564.564,0,0,0,.284-.327C859.374,149.645,859.211,149.352,858.9,149.423Z" transform="translate(-775.366 -103.684)" fill="#f3d73e"/>
  <path id="패스_3596" data-name="패스 3596" d="M791.854,173.136a2.4,2.4,0,0,0,.024,1.841c.137-.537.266-1.075.394-1.615,0-.029.007-.061.008-.09C792.073,173.075,791.921,172.947,791.854,173.136Z" transform="translate(-763.265 -107.975)" fill="#e1dca4"/>
  <path id="패스_3597" data-name="패스 3597" d="M792.324,173.323c0,.029-.008.061-.008.09-.129.539-.257,1.078-.394,1.615A2.709,2.709,0,0,0,793.6,176.4q0-1.273.011-2.549h0v0C793.1,174.093,792.641,173.626,792.324,173.323Z" transform="translate(-763.309 -108.025)" fill="#e1dca4"/>
  <path id="패스_3598" data-name="패스 3598" d="M791.453,174.184a2.4,2.4,0,0,1-.024-1.841c.067-.189.219-.061.426.136a7.986,7.986,0,0,1,.589-1.971,3.949,3.949,0,0,0-.583-1.833c-1.03,2.2-2.212,4.088-2.509,6.352a1.207,1.207,0,0,0,.915,1.333c.313-.4.626-.836.941-1.279C791.3,174.784,791.375,174.484,791.453,174.184Z" transform="translate(-762.84 -107.182)" fill="#e1dca4"/>
  <path id="패스_3599" data-name="패스 3599" d="M791.658,175.406c-.078.3-.153.6-.244.9-.315.443-.629.879-.941,1.279a1.416,1.416,0,0,0,.618.018,13.682,13.682,0,0,0,2.244-.821A2.709,2.709,0,0,1,791.658,175.406Z" transform="translate(-763.046 -108.404)" fill="#e1dca4"/>
  <path id="패스_3600" data-name="패스 3600" d="M792.413,172.886c.318.3.772.77,1.285.53v0a4.287,4.287,0,0,1-.7-2.5A7.989,7.989,0,0,0,792.413,172.886Z" transform="translate(-763.398 -107.588)" fill="#e1dca4"/>
  <path id="패스_3601" data-name="패스 3601" d="M795.179,215.048c.251-.112.6-.228.686-.438.141-.338-.092-.552-.446-.539a6.327,6.327,0,0,0-.512.68C794.886,214.789,795.138,215.067,795.179,215.048Z" transform="translate(-763.851 -115.424)" fill="#f2d84a"/>
</svg>
