<svg id="vector" xmlns="http://www.w3.org/2000/svg" width="84.556" height="100.726" viewBox="0 0 84.556 100.726">
  <path id="패스_3602" data-name="패스 3602" d="M1079.3,983.615a25.582,25.582,0,0,0-6.764-.7,7.188,7.188,0,0,1-2.9-.09c-2.377-.9-4.507-.17-6.605.728a26.108,26.108,0,0,0-10.266,7.275h0q-.059,1.42-.118,2.838h.059l-.031.028.031-.028c.013.037.025.075.037.113a7.072,7.072,0,0,1,1.1.7c.144.124.1.469.14.714-.266-.065-.668-.045-.772-.211a5.6,5.6,0,0,1-.468-1.2c-.032-.019-.066-.037-.1-.056h0c0-.019,0-.037,0-.056l-1.928.047c-.329.557-.64,1.125-.99,1.668-1.555,2.41-1.657,2.447-4.247,1.689l-8.374-2.452a1.933,1.933,0,0,1-2.094-.826h0l-.032-.021c-1.4,1.5-2.782-.652-4.237-.016-.492.216-.557-.554-.7-.966-.258-.729-.539-1.45-.809-2.175h0c-1.882-1.68-4.28-.77-6.407-1.241a9.653,9.653,0,0,0-7.292,1.311c-.873.606-1.462,1.632-2.86,1.381a5.944,5.944,0,0,0-2.279.574h0c-3.469.539-4.557,3.158-5.319,6.076-.612,2.348.011,4.719-.222,7.1a65.013,65.013,0,0,0,3.77,29.026c.627.164,1.344.29,1.591.957.613,1.65,1.486,3.257,1.13,5.126h0c1.276,2.268,2.45,4.511,5.552,4.86a2.955,2.955,0,0,1,2.435,3.218,5.838,5.838,0,0,0,2.119,4.647c4.434,4.036,8.9,8,14.309,10.723,1.046.009,2.148-.5,2.736,1.1.712,1.927,2.229,2.362,4.256,1.814,2.247-.607,3.093.466,2.148,2.725a3.773,3.773,0,0,0-.124,2.269h0c1.266,1.928,3.2,3.406,3.852,5.748,1.354.376,2.269,1.806,3.977,1.434a2.058,2.058,0,0,1,2.487,1.677,1.508,1.508,0,0,0,1.174.489c1.481-1.606,3.271-.1,4.848-.542a7.58,7.58,0,0,1,1.427-.129h0c.278-.163.656-.258.818-.5,2.6-3.882,5.7-7.471,6.824-12.2a13.49,13.49,0,0,1,1.332-3.133,113.754,113.754,0,0,0,7.1-15.428c.431-1.218,1.158-2.328,1.625-3.536.7-1.81,1.765-3.436,2.119-5.435a36.893,36.893,0,0,1,2.146-7.974,58.889,58.889,0,0,0,3.859-14.519c1.255-8.461.736-16.928-.349-25.305A10.27,10.27,0,0,0,1079.3,983.615Zm-67.675,39.618a1.1,1.1,0,0,1-.858.131.777.777,0,0,1-.508-1.087,3.492,3.492,0,0,1,1.223-1.3c.487-.275.814.16.916.674A1.759,1.759,0,0,1,1011.63,1023.233Zm2.549,14.854a3.843,3.843,0,0,1-.3-.661c-.015-.056.242-.275.305-.249a3.212,3.212,0,0,1,.586.386Zm20.135,14.258c-.4-.06-.465-.344-.194-.6.1-.091.313-.175.406-.129a3.577,3.577,0,0,1,.595.475C1034.829,1052.193,1034.554,1052.381,1034.313,1052.344Zm4.133-54.392c-.06-.11-.172-.226-.162-.329s.146-.188.228-.281l.177.331Zm7.519,44.31c-.187.074-.505-.178-.767-.287.116-.263.171-.662.365-.749.176-.078.5.186.764.3C1046.213,1041.785,1046.154,1042.187,1045.965,1042.262Zm12.854-33.746a1.289,1.289,0,0,1-1.723-.167,4.153,4.153,0,0,1-.345-.327c-.429-.481-.86-1-.6-1.686s.9-.8,1.591-.791a6.789,6.789,0,0,1,.9.147,1.408,1.408,0,0,1,1.172,1.3A1.789,1.789,0,0,1,1058.82,1008.516Zm24.42-12.358c-.178.066-.471-.177-.714-.283q.163-.363.329-.726c.241.106.621.164.683.336A.734.734,0,0,1,1083.24,996.157Z" transform="translate(-1004.547 -982.416)" fill="#3152fe"/>
  <path id="패스_3603" data-name="패스 3603" d="M1042.692,1082.562c2.2,3.556,5.471,5.886,9.017,7.9C1049.965,1086.391,1045.035,1085.953,1042.692,1082.562Z" transform="translate(-1011.473 -1000.599)" fill="#4361f9"/>
  <path id="패스_3604" data-name="패스 3604" d="M1051.832,1088.182c.945-2.259.1-3.332-2.148-2.725-2.026.548-3.544.113-4.256-1.814-.588-1.594-1.69-1.088-2.736-1.1,2.343,3.391,7.273,3.829,9.017,7.9h0A3.774,3.774,0,0,1,1051.832,1088.182Z" transform="translate(-1011.473 -1000.584)" fill="#4361f9"/>
  <path id="패스_3605" data-name="패스 3605" d="M1058.416,1099.243c-.07,1.747,1.339,2.526,2.416,3.394a7.915,7.915,0,0,0,5.9,1.67c2.056-.2,4.27-.006,5.591-2.136C1066.616,1104.519,1062.8,1103.716,1058.416,1099.243Z" transform="translate(-1014.328 -1003.628)" fill="#5874f5"/>
  <path id="패스_3606" data-name="패스 3606" d="M1070.9,1102.3c-1.576.442-3.367-1.063-4.848.543a1.507,1.507,0,0,1-1.174-.489,2.058,2.058,0,0,0-2.487-1.677c-1.707.372-2.623-1.058-3.977-1.434,4.387,4.473,8.2,5.276,13.912,2.928h0A7.59,7.59,0,0,0,1070.9,1102.3Z" transform="translate(-1014.328 -1003.628)" fill="#5874f5"/>
  <path id="패스_3607" data-name="패스 3607" d="M1034.718,992.434a13.457,13.457,0,0,0,5.75,3.157C1038.7,994.259,1037.237,992.387,1034.718,992.434Z" transform="translate(-1010.025 -984.234)" fill="#5873f5"/>
  <path id="패스_3608" data-name="패스 3608" d="M1035.527,994.609c.146.412.211,1.182.7.966,1.455-.637,2.842,1.516,4.237.016a13.457,13.457,0,0,1-5.75-3.157h0C1034.989,993.159,1035.27,993.88,1035.527,994.609Z" transform="translate(-1010.025 -984.235)" fill="#5873f5"/>
  <path id="패스_3609" data-name="패스 3609" d="M1012.257,1052.562c-.914-2.024-1.067-4.389-2.721-6.082C1009.867,1048.765,1010.459,1050.933,1012.257,1052.562Z" transform="translate(-1005.453 -994.048)" fill="#6e85f0"/>
  <path id="패스_3610" data-name="패스 3610" d="M1011.127,1047.437c-.247-.667-.964-.793-1.591-.957,1.655,1.693,1.807,4.058,2.721,6.082h0C1012.613,1050.694,1011.74,1049.087,1011.127,1047.437Z" transform="translate(-1005.453 -994.048)" fill="#6e85f0"/>
  <path id="패스_3611" data-name="패스 3611" d="M1014.77,991.692c-1.269.544-2.873.769-3.07,2.6,1.374-1.544,3.346-1.512,5.139-1.955A1.562,1.562,0,0,0,1014.77,991.692Z" transform="translate(-1005.846 -984.071)" fill="#627cf2"/>
  <path id="패스_3612" data-name="패스 3612" d="M1013.979,993.9c1.4.251,1.987-.775,2.86-1.381-1.792.443-3.765.411-5.139,1.955h0A5.944,5.944,0,0,1,1013.979,993.9Z" transform="translate(-1005.846 -984.25)" fill="#627cf2"/>
  <path id="패스_3613" data-name="패스 3613" d="M1062.184,994.148a2.8,2.8,0,0,1,.833-1.453,2.975,2.975,0,0,0-2.046,2.885,2.425,2.425,0,0,1,.767-.6A1.015,1.015,0,0,0,1062.184,994.148Z" transform="translate(-1014.792 -984.282)" fill="#96a7e7"/>
  <path id="패스_3614" data-name="패스 3614" d="M1063.354,996.19l.031-.028h-.059c0,.019,0,.037,0,.056Z" transform="translate(-1015.219 -984.911)" fill="#96a7e7"/>
  <path id="패스_3615" data-name="패스 3615" d="M1063.017,992.7h0a2.8,2.8,0,0,0-.833,1.453,1.015,1.015,0,0,1-.446.832,2.425,2.425,0,0,0-.767.6l1.928-.047Q1062.958,994.114,1063.017,992.7Z" transform="translate(-1014.792 -984.282)" fill="#96a7e7"/>
  <path id="패스_3616" data-name="패스 3616" d="M1041.782,996.317h0c.613.492,1.477.343,2.094.826A2.317,2.317,0,0,0,1041.782,996.317Z" transform="translate(-1011.308 -984.939)" fill="#5873f5"/>
  <path id="패스_3617" data-name="패스 3617" d="M1043.875,997.143c-.616-.483-1.48-.334-2.094-.826A1.933,1.933,0,0,0,1043.875,997.143Z" transform="translate(-1011.308 -984.94)" fill="#5873f5"/>
  <path id="패스_3618" data-name="패스 3618" d="M1070.072,1010.824a6.789,6.789,0,0,0-.9-.147c-.692-.007-1.331.093-1.591.791s.174,1.2.6,1.686a4.153,4.153,0,0,0,.345.327,1.289,1.289,0,0,0,1.723.167,1.789,1.789,0,0,0,.994-1.521A1.408,1.408,0,0,0,1070.072,1010.824Z" transform="translate(-1015.978 -987.547)" fill="#4f6bf7"/>
  <path id="패스_3619" data-name="패스 3619" d="M1012.735,1029.513a3.492,3.492,0,0,0-1.223,1.3.777.777,0,0,0,.508,1.087,1.1,1.1,0,0,0,.858-.131,1.759,1.759,0,0,0,.773-1.582C1013.549,1029.673,1013.222,1029.238,1012.735,1029.513Z" transform="translate(-1005.796 -990.952)" fill="#526ff6"/>
  <path id="패스_3620" data-name="패스 3620" d="M1054.582,1054.27c-.194.087-.249.486-.365.749.262.109.579.362.767.287s.247-.477.362-.736C1055.085,1054.456,1054.758,1054.192,1054.582,1054.27Z" transform="translate(-1013.566 -995.459)" fill="#6981f1"/>
  <path id="패스_3621" data-name="패스 3621" d="M1100.155,997.973q-.166.363-.329.726c.242.106.535.349.714.283a.734.734,0,0,0,.3-.673C1100.776,998.137,1100.4,998.079,1100.155,997.973Z" transform="translate(-1021.847 -985.24)" fill="#5671f5"/>
  <path id="패스_3622" data-name="패스 3622" d="M1040.644,1067.1c-.271.252-.2.536.194.6.241.037.516-.151.807-.25a3.577,3.577,0,0,0-.595-.475C1040.957,1066.923,1040.742,1067.008,1040.644,1067.1Z" transform="translate(-1011.072 -997.766)" fill="#637cf3"/>
  <path id="패스_3623" data-name="패스 3623" d="M1015.943,1049.573a3.847,3.847,0,0,0,.3.661l.587-.524a3.207,3.207,0,0,0-.586-.386C1016.185,1049.3,1015.928,1049.517,1015.943,1049.573Z" transform="translate(-1006.616 -994.564)" fill="#4f6cf7"/>
  <path id="패스_3624" data-name="패스 3624" d="M1064.684,997.709c-.041-.245,0-.589-.14-.714a7.083,7.083,0,0,0-1.1-.7,5.594,5.594,0,0,0,.468,1.2C1064.016,997.664,1064.418,997.645,1064.684,997.709Z" transform="translate(-1015.241 -984.937)" fill="#95a6e7"/>
  <path id="패스_3625" data-name="패스 3625" d="M1063.324,996.218h0c.032.02.066.038.1.056-.012-.038-.024-.076-.037-.113l-.031.028-.03.029Z" transform="translate(-1015.219 -984.911)" fill="#95a6e7"/>
  <path id="패스_3626" data-name="패스 3626" d="M1063.324,996.225l.03-.029-.03.029Z" transform="translate(-1015.219 -984.918)" fill="#95a6e7"/>
  <path id="패스_3627" data-name="패스 3627" d="M1045.769,1000.935c-.01.1.1.219.162.329l.242-.279-.177-.331C1045.915,1000.746,1045.779,1000.834,1045.769,1000.935Z" transform="translate(-1012.032 -985.727)" fill="#5b75f5"/>
</svg>
