<svg xmlns="http://www.w3.org/2000/svg" width="168.04" height="168.455" viewBox="0 0 168.04 168.455">
  <g id="vector" transform="translate(-872.792 -47.711) rotate(-43)">
    <path id="패스_3707" data-name="패스 3707" d="M620.217,808.965l-.009-.067A.516.516,0,0,0,620.217,808.965Z" fill="#ffc400"/>
    <path id="패스_3708" data-name="패스 3708" d="M578.775,759.184l-.04-.035.027.033Z" fill="#ffc400"/>
    <path id="패스_3709" data-name="패스 3709" d="M620.222,808.8l.006-.009,0-.009Z" fill="#ffc400"/>
    <path id="패스_3710" data-name="패스 3710" d="M625.782,779.244l-.492-.17A1.2,1.2,0,0,0,625.782,779.244Z" fill="#ffc400"/>
    <path id="패스_3711" data-name="패스 3711" d="M621.635,775.753l.037.053,0-.016Z" fill="#ffc400"/>
    <path id="패스_3712" data-name="패스 3712" d="M667.209,745.948q-.586.622-1.172,1.247A10.55,10.55,0,0,0,667.209,745.948Z" fill="#ffc400"/>
    <path id="패스_3713" data-name="패스 3713" d="M578.735,759.149c-.031-.026-.063-.05-.092-.079.012.032.024.061.037.094l.007,0,.007.008c.023,0,.045.007.068.008Z" fill="#ffc400"/>
    <path id="패스_3714" data-name="패스 3714" d="M553.561,744.788l1.193-1.178h0C554.364,744.009,553.93,744.366,553.561,744.788Z" fill="#ffc400"/>
    <path id="패스_3715" data-name="패스 3715" d="M580.984,760.365h0c.026.023.046.051.071.074v-.006C581.028,760.411,581.009,760.385,580.984,760.365Z" fill="#ffc400"/>
    <path id="패스_3716" data-name="패스 3716" d="M581.057,760.375c-.025,0-.048-.008-.073-.01.025.02.044.046.067.067l.006-.057Z" fill="#ffc400"/>
    <path id="패스_3717" data-name="패스 3717" d="M600.8,809.854l.026.108.023-.1A.492.492,0,0,1,600.8,809.854Z" fill="#ffc400"/>
    <path id="패스_3718" data-name="패스 3718" d="M578.735,759.149c-.04-.048-.087-.1-.117-.142.008.022.016.041.025.063C578.672,759.1,578.7,759.123,578.735,759.149Z" fill="#ffc400"/>
    <path id="패스_3719" data-name="패스 3719" d="M621.751,775.949l.014-.012h0l-.014.012,0-.034-.077-.109a.41.41,0,0,1,.016.082c.037.041.064.093.1.135v-.036Z" fill="#ffc400"/>
    <path id="패스_3720" data-name="패스 3720" d="M642.673,757.793a4.789,4.789,0,0,1,.136-1.143c1.737-.166,2.3,2.095,4.086,1.932,1.487-.135,2.557.827,3.7,1.658.552.4,1.488.244,2.237.4a2.466,2.466,0,0,0,3.161-1.915c.353-1.132.5-2.326.852-3.46a3.788,3.788,0,0,1,2.005-2.061c0-.009.005-.02.008-.03h0l.012,0a6.489,6.489,0,0,1-.463-1.609A1.348,1.348,0,0,1,659.8,750.1a1.229,1.229,0,0,1,.927.473,1.372,1.372,0,0,1-.3,2,6.21,6.21,0,0,1-1.552.6l.006.017-.026.016c-.686,1.989-.345,4.041-.3,6.063.019.887.908,1,1.613,1.182l-.1-1.284h0a2.9,2.9,0,0,1,2.4-1.191,4.112,4.112,0,0,0,2.426-3.6h0a3.7,3.7,0,0,1-1.131-.294c-.283-.179-.625-.586-.6-.864.059-.7.653-.878,1.248-.723a12.894,12.894,0,0,1,1.64.665l-.044-2.339h0c-1.3-.054-2.654.062-3.574-1.161h0c.385-1.907.389-1.943,2.361-1.223l1.2-.067c0-.39.017-.779.054-1.167h0q.585-.624,1.172-1.247l-1.163-1.12h0c-1.065.294-2.126.606-3.2.877-1.665.423-1.839.181-1.567-2.111a2.308,2.308,0,0,1,2.326-2.416h0l1.209-2.359c-.459-.28-.967-.857-1.367-.79-2.472.415-2.238-1.229-2.224-2.747h0l-.016-.024h0a4.893,4.893,0,0,1-3.768-1.451c-1.619-1.716-3.75-2.095-6.009-2.113-3.179-.024-6.357-.109-9.536-.168h0c-1.172.05-2.345.091-3.516.152-4.279.219-8.561.8-12.825-.165h0c-.732-.36-1.414-.843-1.429-1.713-.078-4.644-1.2-9.282-.063-13.94a1.962,1.962,0,0,0-.951-2h0c-.436.421-.984.556-1.223-.065-.326-.85.175-1.262,1.04-1.251,1.492-1.365,1.362-3.1,1.049-4.842-.373-2.077-.731-4.168-1.306-6.193a6.229,6.229,0,0,1,.208-3.39h0l-1.14-1.278q-.59-.535-1.159-1.093h0l1.159,1.094-1.159-1.094v.028h0c-1.011-.42-.785-.846-.007-1.276q-.566-1.262-1.133-2.523l-.228-2.242a7.161,7.161,0,0,0-1.04-1.186h-.006a2.143,2.143,0,0,1-2.587-.19,7.466,7.466,0,0,0-1.981-.931v0a7.735,7.735,0,0,1-.12,1.176c-.43,1.713-.781,1.784-2.232.467a2.341,2.341,0,0,1-.321-.5h0l-3.526,2.351h0l0,0c-.4.394-.832.757-1.212,1.172l1.212-1.172-1.212,1.172q-.588,0-1.174-.032a13.747,13.747,0,0,1-.169,1.763,1.589,1.589,0,0,1-.559.985.965.965,0,0,1-1.408-.518c-.732-1.606-1.142-3.39-2.643-4.546h0a10.524,10.524,0,0,0-.035,1.095h0v0c-1.132,1.642-2.855,2.184-4.691,2.513-.025.383-.034.767-.03,1.15a11.74,11.74,0,0,0,1.172,1.167l.031.025a1.009,1.009,0,0,1,.209.492,2.015,2.015,0,0,1,.124.378c.018.091-.233.234-.361.353l0,.005h0c1.851,2.141,1.865,2.148.772,4.135-.914,1.661-1.857,3.306-2.79,4.956a1.384,1.384,0,0,1-.262.467c-.365.793-1.137,1.567-.119,2.428h0c1.389.774,1.2,1.532-.025,2.277-.24.524-.49,1.043-.719,1.572-.5,1.164-.715,2.22.912,2.685a1.505,1.505,0,0,1,1.065,1.777l.351.254c-.147-.055-.294-.111-.441-.165h0c-1.323,2.53-1.085,5.288-1.141,8a2.951,2.951,0,0,0,1.174,2.6,3.577,3.577,0,0,1,1.344,2.553h0c.881,1.651.814,1.772-1.3,2.386a8.125,8.125,0,0,0-3.588,1.551,1.389,1.389,0,0,1-2.266-.668l.009.12h0v0l-2.544.192h0c-.425.6-.866.56-1.318.032l-2.249-.042h0c-.377,2.915-.483,3.065-2.773,2.952a10.885,10.885,0,0,1-2.106-.5l0,.007-.067-.012c-.8,1.293-1.572,1.342-2.3-.075l.074.079h0c0-.036.009-.069.01-.105l-.084.026-2.364.01v.027h-.018c.068.162.137.323.2.485.184.466.628,1.051-.018,1.364-.571.278-.968-.236-1.14-.778a6.9,6.9,0,0,1-.176-1.052h-.062l.041-.042a2.519,2.519,0,0,1-2.5-2.363q-.488.02-.975.021l0,0q-.578,1.239-1.156,2.479v0a13.7,13.7,0,0,1-2.145,1.951c-1.62.955-2.773,2.121-2.87,4.11a1.142,1.142,0,0,1-1.019,1.214c-2.438.047-4.939,1.739-7.311-.229v-.005l-1.193,1.178c-1.933,4.1-1.764,4.631,2.275,7.073q.582-.6,1.164-1.2v0a7.444,7.444,0,0,1-1.128-1.331,1.186,1.186,0,0,1,.843-1.715c2.744.02,4.2,1.45,4.361,4.048.1,1.586.423,3.145-1.338,4.076h0l1.034,1.077h0a3.886,3.886,0,0,1,1.1.009h0c1.117.767,1.144,1.528-.015,2.281l-.559.031-.56-.018a13.284,13.284,0,0,0,8.739,1.712,2.3,2.3,0,0,1,2.062.714h0l9.4-.065,0,.005,0-.005.108-1.042c-.025-.023-.045-.051-.071-.074a2.834,2.834,0,0,1-2.286-1.19l-.011,0,0-.008a2.95,2.95,0,0,0-2.759-.148c-.76.435-1.656,1.549-2.4.231-.4-.7.525-1.343,1.067-1.874,2-1.965,2.736-1.682,4.033,1.634.03.038.077.094.117.142l.04.035a2.83,2.83,0,0,1,2.3,1.163h0l1.2.016q.576.6,1.194,1.164l.038.025h0l3.554.018,2.409-.02h0c.393.006.787.014,1.181.021,1.412.55,2.4,2.108,4.276,1.6a2.3,2.3,0,0,1,2.485,1.24c.924,1.434,1.884.93,2.957.231.266-.174.9-.226,1.05-.056.533.6-.028,1.048-.4,1.487-.969,1.143-2.352,1.318-3.7,1.65s-1.162,1.112-.712,2.227c.717,1.774.59,1.827-1.735,2.385a3.715,3.715,0,0,1-.589.051h0c.022.363.039.725.052,1.089a8.714,8.714,0,0,0,1.094,1.255q.027.572.059,1.141l0,0,1.315.653-1.321.652q-.027.567-.045,1.134h0c1.039.8,1.078,1.607,0,2.409l-1.152,1.149.008.01q.569.615,1.138,1.229,0,.6-.01,1.2h0c.48,1.006,1.04,1.983,1.42,3.026.445,1.216-.353,1.632-1.389,1.781q.039.559.092,1.119l.008.011,1.088,1.239c2.127,2.586,3.22,5.328,1.208,8.493-1.079,1.7.551,2.4,1.216,3.462q1.188-1.78,2.377-3.558h0a5.532,5.532,0,0,1,.967-.472c.484-.133,1.164-.416,1.459-.207.758.535.12,1.256-.045,1.9-.28,1.089-.892,2.215-.773,3.258.276,2.426-.763,2.491-2.6,1.943-.36-.107-.924.47-1.393.732l-.006.016c.377.41.768.806,1.177,1.185l.016.011h0l1.14,1.147h0l1.218.072c.382.414.809.779,1.228,1.154l-1.228-1.154,1.228,1.154.067-.016h0a7,7,0,0,0,4.592-1.228c-.217-.716-.449-1.429-.613-2.157-.009-.041.638-.383.8-.286.909.543,1.016,1.525,1.17,2.461h0l2.353,1.261h0a10.111,10.111,0,0,1,1.181-.006l3.583-1.185h0l1.189-.026c0-.389.006-.777.013-1.166h0a2.675,2.675,0,0,1-1.214-2.472h0c.831-1.041,1.634-1.015,2.412.061a2.92,2.92,0,0,1,1.223,2.366l-.079.1v.016l.078-.119a2.948,2.948,0,0,0,2.684-2.054c1.262-4.59,2.527-9.382.171-13.811-1.04-1.956-.705-3.041-.131-4.8.489-1.5,2.052-2.559,1.775-4.273-.227-1.4-.468-2.75.578-3.941v0l.106-.1a1.2,1.2,0,0,1-.492-.17l-2.414-.837h0a1.156,1.156,0,0,1-1.059-1.054h0q-.015-.579-.029-1.16c-.036-.042-.063-.094-.1-.135a.41.41,0,0,0-.016-.082l-.037-.053-.986-1.09h0a1.424,1.424,0,0,1,1.118-1.124v0l.005,0c.081-.149.2-.43.236-.419.359.09.274.252-.236.419v0h0a3.731,3.731,0,0,1-.069,1.125q.026.606.052,1.213l.037.042,0,.049.05.071.8.84a1.26,1.26,0,0,1,.282.3,5.418,5.418,0,0,0,2.491-2.478c-1.935-1-.2-3.238-1.5-4.577-.288-.3.779-1.09,1.541-1.313q.021-.676.043-1.352a7.868,7.868,0,0,1-1.82-1.336,1.6,1.6,0,0,1,0-1.553,28.587,28.587,0,0,1,4.729-3.41c1.212-.638,1.589.545,1.746,1.563a2.93,2.93,0,0,0,2.33.217,14.228,14.228,0,0,1,8.32-2.438C643.022,760.49,643.012,760.446,642.673,757.793Zm11.852-21.866a1.964,1.964,0,0,1,.689-.893c.39-.272.715-.08.839.375a1.21,1.21,0,0,1-.98,1.263C654.645,736.754,654.366,736.371,654.525,735.927ZM649.876,750.6a1.053,1.053,0,0,1,.991-.315c.584.278.815.843.317,2.013a1.551,1.551,0,0,1-.75-.189A1.129,1.129,0,0,1,649.876,750.6ZM584.65,746.84c-.125-.012-.234-.181-.35-.28q.442-.481.757.078C584.921,746.712,584.778,746.852,584.65,746.84Zm2.917,5.884.039-.33.314.2Zm11.419-28.892a.8.8,0,0,1-.673-1.17,1.009,1.009,0,0,1,.957-.244c.256.118.35.585.515.9C599.516,723.5,599.218,723.87,598.986,723.832Zm1.515-29.326c-.286.369-.629.444-.927.125a.569.569,0,0,1,.913-.672C600.577,694.049,600.5,694.3,600.5,694.506Zm-.727,84.169c-.092-.153-.294-.4-.258-.444a7.137,7.137,0,0,1,.75-.667c.1.147.192.295.289.442Q600.165,778.342,599.774,778.675Zm1.621-9.089-.3-.276c.122-.067.25-.2.364-.185s.207.167.309.26Zm3.911,24.571a.523.523,0,0,1,.083-.444c.054-.078.239-.066.365-.094.056.139.183.3.153.415C605.791,794.487,605.544,794.538,605.306,794.157Zm1.135-4.754a6.851,6.851,0,0,1-.538-.787c-.024-.046.274-.353.323-.329a6.133,6.133,0,0,1,.795.507C606.828,789,606.635,789.2,606.441,789.4Zm.678-93.343a4.06,4.06,0,0,1-.454-.742c-.03-.079.249-.389.317-.368a4.719,4.719,0,0,1,.8.4Zm5.643,112.59q-.476-.431.073-.739c.073.133.213.272.2.4S612.859,808.537,612.762,808.65Zm2-106.083-.434-.156c.045-.127.086-.36.137-.362a.64.64,0,0,1,.42.15C614.927,702.233,614.812,702.439,614.766,702.567Zm1.17,5.979a1.4,1.4,0,0,1-.454-.141c.048-.132.092-.373.144-.374a1.388,1.388,0,0,1,.455.141C616.033,708.3,615.988,708.545,615.936,708.546Zm.256-9.907c-.09-.121.256-.567.691-1.453a8.5,8.5,0,0,1,.852,1.584c.067.237-.252.583-.4.879A6.559,6.559,0,0,1,616.192,698.639Zm3.318,104.472-.443-.285.505-.178Zm-.908-4.643c-.661-.025-1.165-.44-.974-1.158a1.114,1.114,0,0,1,.93-.518A1.091,1.091,0,0,1,619.6,798C619.272,798.165,618.931,798.481,618.6,798.468Zm12.713-54.6c-.394.251-.745.129-.74-.317,0-.236.354-.467.549-.7a3.788,3.788,0,0,1,.486.643C631.642,743.554,631.447,743.78,631.315,743.865Zm1.17-5.44-.7-.583a3.8,3.8,0,0,1,.643-.486c.063-.032.289.163.376.3C633.058,738.049,632.938,738.315,632.485,738.425Z" fill="#ffc400"/>
    <path id="패스_3721" data-name="패스 3721" d="M621.765,775.937l.02-.018-.02.018Z" fill="#ffc400"/>
    <path id="패스_3722" data-name="패스 3722" d="M621.837,776.039l-.05-.071v.019Z" fill="#ffc400"/>
    <path id="패스_3723" data-name="패스 3723" d="M621.748,775.877l-.079-.087,0,.016.077.109Z" fill="#ffc400"/>
    <path id="패스_3724" data-name="패스 3724" d="M594.3,781.884a10.583,10.583,0,0,0,1.138,1.229Q594.87,782.5,594.3,781.884Z" fill="#ffc400"/>
    <path id="패스_3725" data-name="패스 3725" d="M589.622,733.736h0Z" fill="#ffc400"/>
    <path id="패스_3726" data-name="패스 3726" d="M595.561,790.247a7.021,7.021,0,0,0,1.088,1.239Z" fill="#ffc400"/>
    <path id="패스_3727" data-name="패스 3727" d="M572.945,762.564c-.177.025-.355.042-.532.078-3.807-.5-7.608-1.059-11.356-1.875a2.354,2.354,0,0,1-.845-1.148c-.135-.432-.247-.883-.373-1.326-.207-.416-.373-.848-.546-1.283a4.358,4.358,0,0,1-.3-1.436c-2.2,1.082-2.914.709-3.071-1.608a7.624,7.624,0,0,1,.287-1.755h0l-.044-.041a3.014,3.014,0,0,1-1.316.3c-4.5-1.384-4.282-4.41-2.759-7.892.455-.388.918-.773,1.376-1.156a4.877,4.877,0,0,1,1.575-.747h.012a2.8,2.8,0,0,0,.2-1.22c-.245-1.791.236-2.526,2.115-2,1.545.432,1.951-.6,2.164-1.818-.452-.121-1.075.09-1.208-.623,0-.018.34-.175.418-.12a8.447,8.447,0,0,1,.809.72h0c.514-.2,1.27-.252,1.494-.625.454-.756.2-2.177,1.368-2.213,1.4-.043,2.979-1.227,4.269.333h0l.412.043a6.4,6.4,0,0,1,1.663-1.355,2.415,2.415,0,0,1,1.511-.173,8.909,8.909,0,0,1,.774.454l2.975.038h0a.946.946,0,0,1,.147.4,1.894,1.894,0,0,1,.1.405c.01.088-.235.205-.364.309v.384a2.279,2.279,0,0,0,.627-.011,8.2,8.2,0,0,1,1.919-.194c.026,0,.052,0,.078,0a2.243,2.243,0,0,1,1.09-1.343l2.138.018h0a4.469,4.469,0,0,0,2.158.4q.458-.26.9-.56a4.046,4.046,0,0,1,1.995-.5c.607-.064,1.19.26,1.812.152.164-.034.329-.036.494-.057.017-.322.035-.643.053-.965h0c-7.886.071-15.773.121-23.658.228a9.243,9.243,0,0,0-5.57,1.747c-3.111,2.278-6.62,4.143-6.636,8.734-2.706,1.821-.681,4.889-1.825,7.148-.1.2.669.833,1.014,1.281s.913.888.946,1.364c.349,4.882,3.352,7.323,7.74,8.319,4.03.915,8.114,1.6,12.185,2.321a3.777,3.777,0,0,0,2.81-.767h0C573.762,762.811,573.343,762.708,572.945,762.564Z" fill="#ffc400"/>
    <path id="패스_3728" data-name="패스 3728" d="M587.086,734.049Z" fill="#ffc400"/>
    <path id="패스_3729" data-name="패스 3729" d="M576.446,735.407a8.2,8.2,0,0,0-1.919.194,2.279,2.279,0,0,1-.627.011l0,.81,2.364-.01.084-.026a3.594,3.594,0,0,1,.174-.975C576.5,735.409,576.472,735.41,576.446,735.407Z" fill="#ffc400"/>
    <path id="패스_3730" data-name="패스 3730" d="M570.264,733.62a2.415,2.415,0,0,0-1.511.173,6.4,6.4,0,0,0-1.663,1.355l.823.085h0q.67-.574,1.341-1.148v0l0,0q.488,0,.975-.021l.807.01A8.909,8.909,0,0,0,570.264,733.62Z" fill="#ffc400"/>
    <path id="패스_3731" data-name="패스 3731" d="M587.107,733.53c-.165.021-.33.023-.494.057-.622.108-1.2-.216-1.812-.152a4.046,4.046,0,0,0-1.995.5q-.438.3-.9.56a3.94,3.94,0,0,0,1.608-.452h0l2.249.042,1.31-.033C587.088,733.876,587.1,733.7,587.107,733.53Z" fill="#ffc400"/>
    <path id="패스_3732" data-name="패스 3732" d="M559.332,755.41h0c-.124.065-.225.107-.34.164a4.358,4.358,0,0,0,.3,1.436c.173.435.339.867.546,1.283.126.443.238.894.373,1.326a2.354,2.354,0,0,0,.845,1.148c3.748.816,7.549,1.374,11.356,1.875.177-.036.355-.053.532-.078a2.641,2.641,0,0,1-1.408-1.019h0a2.3,2.3,0,0,0-2.062-.714,13.284,13.284,0,0,1-8.739-1.712q.018-1.152.036-2.3l-1.034-1.077h0Z" fill="#ffc400"/>
    <path id="패스_3733" data-name="패스 3733" d="M554.754,743.609c.078-.309.194-.623.3-.937h-.012a4.877,4.877,0,0,0-1.575.747c-.458.383-.921.768-1.376,1.156-1.523,3.482-1.739,6.508,2.759,7.892a3.014,3.014,0,0,0,1.316-.3l-.328-.309c-4.039-2.442-4.208-2.968-2.275-7.073C553.93,744.366,554.364,744.009,554.754,743.609Z" fill="#ffc400"/>
    <path id="패스_3734" data-name="패스 3734" d="M603.7,682.4h0l2.473.042h0c1.643-1.369,3.247-1.394,4.806.142l0-.013a10.194,10.194,0,0,1,1.155,1.214q-.578-.607-1.154-1.214.576.608,1.154,1.214l0,.038h0v0l1.474-.095h0c.343-.633.676-.517,1.006-.037,1.075.169,2.394-.184,2.9,1.248.344.964,1.324,1.821,1.008,2.909.108.071.219.136.325.211a5.751,5.751,0,0,1,1.446,1.652,7.514,7.514,0,0,1,.756,2,8.224,8.224,0,0,1,.156.967c1.361.888,1.741,2.325,1.748,3.972.052.067.109.131.159.2a4.668,4.668,0,0,1,.821,2.127c-.072,4.478,1.686,8.889.479,13.394-.935.581-.708,1.107.108,1.613.615,5.835-.859,11.78,1.038,17.527-.337-10.276.8-20.57-.391-30.834.963-5.957-2.447-10.643-4.6-15.684a3.419,3.419,0,0,0-1.575-1.691c-3.692-1.587-7.109-4.242-11.531-3.227l-3.523.213h0l0,.014h0q-.119,1.05-.238,2.1Z" fill="#ffc400"/>
    <path id="패스_3735" data-name="패스 3735" d="M621.049,691.71a7.514,7.514,0,0,0-.756-2,5.751,5.751,0,0,0-1.446-1.652c-.106-.075-.217-.14-.325-.211a1.971,1.971,0,0,1-.353.693h.006l1.041,1.186-1.041-1.186a7.161,7.161,0,0,1,1.04,1.186l.228,2.242a5.285,5.285,0,0,1,1.762.707A8.224,8.224,0,0,0,621.049,691.71Z" fill="#ffc400"/>
    <path id="패스_3736" data-name="패스 3736" d="M624.52,713.984c-.816-.506-1.043-1.032-.108-1.613,1.207-4.5-.551-8.916-.479-13.394a4.668,4.668,0,0,0-.821-2.127c-.05-.07-.107-.134-.159-.2,0,.474-.025.964-.07,1.463h0a6.229,6.229,0,0,0-.208,3.39c.575,2.025.933,4.116,1.306,6.193.313,1.737.443,3.477-1.049,4.842l.183,1.316h0a1.962,1.962,0,0,1,.951,2c-1.137,4.658-.015,9.3.063,13.94.015.87.7,1.353,1.429,1.713h0C623.661,725.764,625.135,719.819,624.52,713.984Z" fill="#ffc400"/>
    <path id="패스_3737" data-name="패스 3737" d="M599.674,808.864c-.175-.2-.349-.392-.524-.587a2.93,2.93,0,0,1-.592-1.411c.019-.084.039-.17.059-.255a1.8,1.8,0,0,1-.033-2.7c-2.26-.59-2.446-2.31-2.184-4.346a11.574,11.574,0,0,0-.76-6.852c-.193-.754-.333-1.522-.6-2.254a7.284,7.284,0,0,1-.221-1.483c.017-.42.01-.837-.011-1.252a3.129,3.129,0,0,1-.328-2.044c-.029-.1-.048-.205-.082-.306a12.759,12.759,0,0,1-.166-1.419,6.164,6.164,0,0,0-.523-2.017,2.883,2.883,0,0,1,.437-1.9,4.732,4.732,0,0,0,.318-1.819,8.369,8.369,0,0,1,.178-1.151,4.078,4.078,0,0,0-.184-1.14,8.522,8.522,0,0,1-.281-1.22,8.63,8.63,0,0,1-.442-1.98,9.335,9.335,0,0,1,.527-1.4l.01-.046q-.023-1.508-.046-3.014a3.5,3.5,0,0,0-1.352-3.092h0c-.239,5.94.476,11.89-.191,17.83a7.149,7.149,0,0,0,.117,3.552c2,4.331,1.312,9.01,1.868,13.5a14.727,14.727,0,0,0,4.331,9.4h0l1.132-.069Z" fill="#ffc400"/>
    <path id="패스_3738" data-name="패스 3738" d="M594.275,771.283l-.01.046a9.335,9.335,0,0,0-.527,1.4,8.63,8.63,0,0,0,.442,1.98,8.522,8.522,0,0,0,.281,1.22,4.078,4.078,0,0,1,.184,1.14,8.369,8.369,0,0,0-.178,1.151,4.732,4.732,0,0,1-.318,1.819,2.883,2.883,0,0,0-.437,1.9,6.164,6.164,0,0,1,.523,2.017,12.759,12.759,0,0,0,.166,1.419c.034.1.053.2.082.306a2.672,2.672,0,0,1,.947-1.375h0q.014-.6.01-1.2a10.583,10.583,0,0,1-1.138-1.229l-.009-.009.009.009-.008-.01,1.152-1.149q0-1.2,0-2.41h0q.018-.567.045-1.134,0-.653,0-1.306h0l0,0q-.031-.57-.059-1.141-.549-.627-1.095-1.255.546.628,1.095,1.255a8.714,8.714,0,0,1-1.094-1.255c-.013-.364-.03-.726-.052-1.089h0Q594.283,771.836,594.275,771.283Z" fill="#ffc400"/>
    <path id="패스_3739" data-name="패스 3739" d="M594.822,788.981a7.284,7.284,0,0,0,.221,1.483c.264.732.4,1.5.6,2.254a11.574,11.574,0,0,1,.76,6.852c-.262,2.036-.076,3.756,2.184,4.346a4.536,4.536,0,0,1,.489-.475h0c-.665-1.062-2.295-1.765-1.216-3.462,2.012-3.165.919-5.907-1.208-8.493a7.021,7.021,0,0,1-1.088-1.239l-.009-.011.009.011-.008-.011q-.052-.56-.092-1.119c-.2-.463-.445-.925-.65-1.388C594.832,788.144,594.839,788.561,594.822,788.981Z" fill="#ffc400"/>
    <path id="패스_3740" data-name="패스 3740" d="M598.558,806.866a2.93,2.93,0,0,0,.592,1.411c.175.2.349.392.524.587l.46.531.129-.008q-.02-.57-.013-1.14h0l-.016-.011-1.177-1.185,1.177,1.185c-.409-.379-.8-.775-1.177-1.185l.006-.016a4.362,4.362,0,0,1-.446-.424C598.6,806.7,598.577,806.782,598.558,806.866Z" fill="#ffc400"/>
    <path id="패스_3741" data-name="패스 3741" d="M660.161,760.455c-3.256-.42-3.346-.733-1.955-6.254.037-.03.079-.075.119-.111-.045-.038-.106-.012-.21.283-1.882,8.233-1.878,8.217-10.227,5.98-.933-.249-2.3-.964-2.8-.489-3.66,3.479-8.467,1.847-12.6,3.072,3.365.537,6.683,1.539,10.128.069.922-.394,2.24.208,3.379.237a2.54,2.54,0,0,0,2.271-1.536l-1.291-.712c.156-.031.374-.143.457-.079a9.744,9.744,0,0,1,.836.792h0c2.593,1.5,5.5,1.516,8.354,1.727,2.045.151,3.206-.935,3.558-2.91l-.008,0Z" fill="#ffc400"/>
    <path id="패스_3742" data-name="패스 3742" d="M658.859,753.176h0c0,.01-.005.021-.008.03l.026-.016Z" fill="#ffc400"/>
    <path id="패스_3743" data-name="패스 3743" d="M658.525,753.9c-.066.071-.133.127-.2.187C658.4,754.153,658.426,754.389,658.525,753.9Z" fill="#ffc400"/>
    <path id="패스_3744" data-name="패스 3744" d="M647.888,760.353c8.349,2.237,8.345,2.253,10.227-5.98.1-.295.165-.321.21-.283.067-.06.134-.116.2-.187-.1.486-.127.25-.2.187-.04.036-.082.081-.119.111-1.391,5.521-1.3,5.834,1.955,6.254v0c-.705-.178-1.594-.295-1.613-1.182-.042-2.022-.383-4.074.3-6.063a3.788,3.788,0,0,0-2.005,2.061c-.349,1.134-.5,2.328-.852,3.46a2.466,2.466,0,0,1-3.161,1.915c-.749-.158-1.685,0-2.237-.4-1.144-.831-2.214-1.793-3.7-1.658-1.782.163-2.349-2.1-4.086-1.932a4.789,4.789,0,0,0-.136,1.143c.339,2.653.349,2.7-1.87,2.7a14.228,14.228,0,0,0-8.32,2.438c4.133-1.225,8.94.407,12.6-3.072C645.584,759.389,646.955,760.1,647.888,760.353Z" fill="#ffc400"/>
    <path id="패스_3745" data-name="패스 3745" d="M666.1,736.345h0l-3.081-.672a6.742,6.742,0,0,1,2.569,2.854,3.439,3.439,0,0,1-.129,1.605.486.486,0,0,1-.178.425,5.8,5.8,0,0,1-.537.971,9.27,9.27,0,0,0-1.1,1.618c.016.015.034.024.05.038a3.108,3.108,0,0,1,1.04.42,5.623,5.623,0,0,1,1.294.188,2.716,2.716,0,0,1,1.635,1.447,4.748,4.748,0,0,1-.408,2.113,3.364,3.364,0,0,1-.549,1.154c-.084.1-.186.168-.278.258a1.109,1.109,0,0,1-.061,1.731,2.88,2.88,0,0,1,.36.575,2.744,2.744,0,0,1-.15,2,4.6,4.6,0,0,0-.737,2.111,4.754,4.754,0,0,1-2.092,3.257,14.147,14.147,0,0,1-2.535,1.265,2.917,2.917,0,0,0-1.038.806l0,.014c.74.18,1.479.543,2.242.108a11.926,11.926,0,0,0,6.234-9.369c.306-2.508,1.285-5.291.548-7.473C668.363,741.312,667.956,738.467,666.1,736.345Z" fill="#ffc400"/>
    <path id="패스_3746" data-name="패스 3746" d="M660.19,760.458h0Z" fill="#ffc400"/>
    <path id="패스_3747" data-name="패스 3747" d="M666.046,744.827h0l1.163,1.12a10.55,10.55,0,0,1-1.172,1.247h0c-.037.388-.054.777-.054,1.167a3.039,3.039,0,0,1,.45.4c.092-.09.194-.161.278-.258a3.364,3.364,0,0,0,.549-1.154,4.748,4.748,0,0,0,.408-2.113,2.716,2.716,0,0,0-1.635-1.447,5.623,5.623,0,0,0-1.294-.188A4.911,4.911,0,0,1,666.046,744.827Z" fill="#ffc400"/>
    <path id="패스_3748" data-name="패스 3748" d="M665.995,750.814h0l.044,2.339-1.155,1.216h0a4.112,4.112,0,0,1-2.426,3.6,2.941,2.941,0,0,1-2.4,1.192h0l.1,1.284.029.008h0c0,.018-.009.033-.012.051a2.917,2.917,0,0,1,1.038-.806,14.147,14.147,0,0,0,2.535-1.265,4.754,4.754,0,0,0,2.092-3.257,4.6,4.6,0,0,1,.737-2.111,2.744,2.744,0,0,0,.15-2,2.88,2.88,0,0,0-.36-.575A3.37,3.37,0,0,1,665.995,750.814Z" fill="#ffc400"/>
    <path id="패스_3749" data-name="패스 3749" d="M663.61,741.177h0a2.308,2.308,0,0,0-2.326,2.416,3.683,3.683,0,0,1,2.414-.409c-.016-.014-.034-.023-.05-.038a9.27,9.27,0,0,1,1.1-1.618,5.8,5.8,0,0,0,.537-.971A4.35,4.35,0,0,1,663.61,741.177Z" fill="#ffc400"/>
    <path id="패스_3750" data-name="패스 3750" d="M661.228,735.28c-.014,1.518-.248,3.162,2.224,2.747.4-.067.908.51,1.367.79a3.756,3.756,0,0,1,.645,1.315,3.439,3.439,0,0,0,.129-1.605,6.742,6.742,0,0,0-2.569-2.854l-1.8-.393Z" fill="#ffc400"/>
    <path id="패스_3751" data-name="패스 3751" d="M660.167,760.521l.008,0,0-.014Z" fill="#ffc400"/>
    <path id="패스_3752" data-name="패스 3752" d="M660.19,760.459l-.029,0,.006.066.023-.062Z" fill="#ffc400"/>
    <path id="패스_3753" data-name="패스 3753" d="M660.167,760.521l.011-.011c0-.018.009-.033.012-.051Z" fill="#ffc400"/>
    <path id="패스_3754" data-name="패스 3754" d="M660.19,760.459l-.029-.008v0l.029,0Z" fill="#ffc400"/>
    <path id="패스_3755" data-name="패스 3755" d="M620.208,808.9l.009.067a.5.5,0,0,0,.037.139c.1.216.2.319.293.343l.018,0h0a7.348,7.348,0,0,1-.34-.652l-.006.009A.472.472,0,0,0,620.208,808.9Z" fill="#ffc400"/>
    <path id="패스_3756" data-name="패스 3756" d="M625.075,803.481c-.237,2.244-.5,4.336-2.813,5.433a3.083,3.083,0,0,1-1.727-.292q.021.411.045.821l3.515-.021c2.969-3.562,2.714-7.869,2.517-12.038a92.578,92.578,0,0,1-.168-11.162c.169-2.308.519-4.7-.768-6.878C624.857,787.373,625.923,795.447,625.075,803.481Z" fill="#ffc400"/>
    <path id="패스_3757" data-name="패스 3757" d="M625.1,783.283c.277,1.714-1.286,2.771-1.775,4.273-.574,1.764-.909,2.849.131,4.8,2.356,4.429,1.091,9.221-.171,13.811a2.948,2.948,0,0,1-2.684,2.054l-.078.119c0,.093.01.185.015.277a3.083,3.083,0,0,0,1.727.292c2.31-1.1,2.576-3.189,2.813-5.433.848-8.034-.218-16.108.6-24.137v0C624.629,780.533,624.87,781.88,625.1,783.283Z" fill="#ffc400"/>
    <path id="패스_3758" data-name="패스 3758" d="M594.023,731.6a2.056,2.056,0,0,0,.565-1.986c-1.927-3.757-1.311-7.737-1.076-11.666a7.756,7.756,0,0,0,.569-.979c.08-.206-.133-.362-.4-.361-1.97-1.453-1.172-3.354-.883-5.171a3.4,3.4,0,0,0,.146-2.166c-.489-1.44.311-2.409,1.219-3.344.025-.06.042-.121.066-.182q-.07-.345-.142-.69a3.651,3.651,0,0,0-2.4,3.089,43.336,43.336,0,0,0-.152,8.282c.415,4.117.735,8.245,1.241,12.35a4.108,4.108,0,0,1-3.153,4.957C592.051,735,592.424,732.019,594.023,731.6Z" fill="#ffc400"/>
    <path id="패스_3759" data-name="패스 3759" d="M589.622,733.736Z" fill="#ffc400"/>
    <path id="패스_3760" data-name="패스 3760" d="M591.888,734.4a8.125,8.125,0,0,1,3.588-1.551c-.678-2-.642-2.006,1.3-2.387h0a3.577,3.577,0,0,0-1.344-2.553,2.951,2.951,0,0,1-1.174-2.6c.056-2.708-.182-5.466,1.141-8h0l.09-.088a1.505,1.505,0,0,0-1.065-1.777c-1.627-.465-1.414-1.521-.912-2.685.229-.529.479-1.048.719-1.572q.012-1.138.025-2.277c-1.018-.861-.246-1.635.119-2.428a1.384,1.384,0,0,0,.262-.467c-.088.155-.175.311-.263.467-.05-.246-.1-.493-.151-.74-.024.061-.041.122-.066.182-.908.935-1.708,1.9-1.219,3.344a3.4,3.4,0,0,1-.146,2.166c-.289,1.817-1.087,3.718.883,5.171.268,0,.481.155.4.361a7.756,7.756,0,0,1-.569.979c-.235,3.929-.851,7.909,1.076,11.666a2.056,2.056,0,0,1-.565,1.986c-1.6.416-1.972,3.4-4.4,2.133h0A1.389,1.389,0,0,0,591.888,734.4Z" fill="#ffc400"/>
    <path id="패스_3761" data-name="패스 3761" d="M595.76,697.415a8.627,8.627,0,0,0-.264-1.038,9.2,9.2,0,0,1-.536-1.27,3.649,3.649,0,0,1-.131-1.436,3.252,3.252,0,0,1,.721-1.307c.046-.04.1-.075.142-.114a8.7,8.7,0,0,1,2.658-3.8l.94,1.218.014-.01a3.1,3.1,0,0,1,1.169-.341,5.569,5.569,0,0,0,.2-3.988c-.191-.752.646-.483,1.206-.39,1.646.276,1.654.233,1.073-1.655a5.609,5.609,0,0,0-.226-.532l-2.595-.385h0c-2.57,2.409-5.118,4.8-5.666,8.585-.1.7-.918,1.275-1.167,1.99-1.084,3.112-1.9,6.283-1.25,9.622a2.431,2.431,0,0,0,2.018,1.869C592.913,701.495,593.129,699.037,595.76,697.415Z" fill="#ffc400"/>
    <path id="패스_3762" data-name="패스 3762" d="M600.473,689.312a3.1,3.1,0,0,0-1.169.341l-.014.01.913,1.181h0a10.524,10.524,0,0,1,.035-1.095h0A4.78,4.78,0,0,0,600.473,689.312Z" fill="#ffc400"/>
    <path id="패스_3763" data-name="패스 3763" d="M595.55,692.364a3.252,3.252,0,0,0-.721,1.307,3.649,3.649,0,0,0,.131,1.436,9.2,9.2,0,0,0,.536,1.27,8.627,8.627,0,0,1,.264,1.038,8.237,8.237,0,0,1,.9-.486h0l0-.005q.013-.612.028-1.223c.068.164.142.327.209.492a1.009,1.009,0,0,0-.209-.492l-.031-.025q-.587-.582-1.173-1.167.586.584,1.173,1.167a11.74,11.74,0,0,1-1.172-1.167c0-.383.005-.767.03-1.15a4.982,4.982,0,0,1,.179-1.109C595.646,692.289,595.6,692.324,595.55,692.364Z" fill="#ffc400"/>
    <path id="패스_3764" data-name="패스 3764" d="M595.221,767.583a2.671,2.671,0,0,1,2.59-.907c-1.968-1.714-4.651-2.135-6.749-3.631a6.8,6.8,0,0,0-1.525-.258c-.755-.023-1.514-.025-2.27-.027-.988-.007-1.978.006-2.967-.069a4.137,4.137,0,0,1-1.418-.417,3.717,3.717,0,0,1-1.051-1.029,6.963,6.963,0,0,0-.554-.573,1.874,1.874,0,0,1,.206.333,1.676,1.676,0,0,1-1.127,1.207c-.032.01-.064.012-.1.021l-.623.687c2.106,1.418,4.437.683,6.7.737s4.692-.4,6.542,1.52h0C594.457,765.822,595.074,766.656,595.221,767.583Z" fill="#ffc400"/>
    <path id="패스_3765" data-name="패스 3765" d="M581.057,760.375h0l-.006.057a1.844,1.844,0,0,1,.226.24,6.963,6.963,0,0,1,.554.573,3.717,3.717,0,0,0,1.051,1.029,4.137,4.137,0,0,0,1.418.417c.989.075,1.979.062,2.967.069.756,0,1.515,0,2.27.027a6.8,6.8,0,0,1,1.525.258c2.1,1.5,4.781,1.917,6.749,3.631a2.671,2.671,0,0,0-2.59.907c.238,1.494-.751,3.23-.929,4.806a3.715,3.715,0,0,0,.589-.051c2.325-.558,2.452-.611,1.735-2.385-.45-1.115-.626-1.9.712-2.227s2.727-.507,3.7-1.65c.371-.439.932-.888.4-1.487-.151-.17-.784-.118-1.05.056-1.073.7-2.033,1.2-2.957-.231a2.3,2.3,0,0,0-2.485-1.24c-1.878.506-2.864-1.052-4.276-1.6-.4.55-.8.541-1.182-.021h0l-2.409.02c-1.192,1.344-2.377,1.4-3.555-.018h0l-.038-.025q-.618-.559-1.194-1.164l-1.2-.016h0Z" fill="#ffc400"/>
    <path id="패스_3766" data-name="패스 3766" d="M581.051,760.432v.006c.08.073.15.156.226.234A1.844,1.844,0,0,0,581.051,760.432Z" fill="#ffc400"/>
    <path id="패스_3767" data-name="패스 3767" d="M580.356,762.212a1.676,1.676,0,0,0,1.127-1.207,1.874,1.874,0,0,0-.206-.333c-.076-.078-.146-.161-.226-.234l-.108,1.042,0,.005-.679.748C580.292,762.224,580.324,762.222,580.356,762.212Z" fill="#ffc400"/>
    <path id="패스_3768" data-name="패스 3768" d="M594.229,768.269q.025,1.508.046,3.014c.3-1.246.259-2.753.946-3.7-.147-.927-.764-1.761-2.344-2.406h0A3.5,3.5,0,0,1,594.229,768.269Z" fill="#ffc400"/>
    <path id="패스_3769" data-name="패스 3769" d="M595.221,767.583c-.687.947-.646,2.454-.946,3.7q.008.553.017,1.106h0C594.47,770.813,595.459,769.077,595.221,767.583Z" fill="#ffc400"/>
    <path id="패스_3770" data-name="패스 3770" d="M606.905,813.026a4.705,4.705,0,0,1-2.128-1.177,6.6,6.6,0,0,1-1.36-.266,8.271,8.271,0,0,1-1.435-.621,6.137,6.137,0,0,1-1.279-.909c-.16-.183-.319-.368-.478-.552a.889.889,0,0,1-1.223-.037h0c1.491,6.358,9.64,8.866,15.545,7.1h0q-.069-.639-.137-1.278C611.909,814.527,609.424,813.715,606.905,813.026Z" fill="#ffc400"/>
    <path id="패스_3771" data-name="패스 3771" d="M601.435,809.468h0a.81.81,0,0,1-.585.4l-.023.1-.026-.108a.77.77,0,0,1-.522-.436l0-.006c-.019.03-.028.059-.05.088h0c.159.184.318.369.478.552a6.137,6.137,0,0,0,1.279.909,8.271,8.271,0,0,0,1.435.621,6.6,6.6,0,0,0,1.36.266,3.926,3.926,0,0,1-.874-1.244h0l-.067.016c-.419-.375-.846-.74-1.228-1.154l-1.218-.072h0Z" fill="#ffc400"/>
    <path id="패스_3772" data-name="패스 3772" d="M600.225,809.5l-.091-.106-1.132.069A.889.889,0,0,0,600.225,809.5Z" fill="#ffc400"/>
    <path id="패스_3773" data-name="패스 3773" d="M600.276,809.412l-.013-.025-.129.008.091.106h0C600.248,809.471,600.257,809.442,600.276,809.412Z" fill="#ffc400"/>
    <path id="패스_3774" data-name="패스 3774" d="M654.322,730.576c.09,0,.18,0,.27,0,2.6-.023,4.493,1.382,6.275,2.97a.787.787,0,0,1,.2.415c.188.126.376.253.552.394.105.132.222.252.338.374,1.726-1.04,2.974.107,4.144,1.614h0c-.268-.722-.321-1.738-.839-2.118-3.48-2.553-6.928-5.257-11.621-5.1-1.97.067-3.944.014-5.915.065a4.22,4.22,0,0,0-3.2,1.276c.961.012,1.923.029,2.884.046A19.979,19.979,0,0,1,654.322,730.576Z" fill="#ffc400"/>
    <path id="패스_3775" data-name="패스 3775" d="M661.623,734.357c-.176-.141-.364-.268-.552-.394.091.381.069.889.141,1.293h0l.016.024h0a4.793,4.793,0,0,1,.733-.549C661.845,734.609,661.728,734.489,661.623,734.357Z" fill="#ffc400"/>
    <path id="패스_3776" data-name="패스 3776" d="M647.412,730.517c2.3.039,4.607.075,6.91.059A19.979,19.979,0,0,0,647.412,730.517Z" fill="#ffc400"/>
    <path id="패스_3777" data-name="패스 3777" d="M661.961,734.731a10.174,10.174,0,0,0,1.063.942l3.081.672C664.935,734.838,663.687,733.691,661.961,734.731Z" fill="#ffc400"/>
    <path id="패스_3778" data-name="패스 3778" d="M661.961,734.731a4.793,4.793,0,0,0-.733.549l1.8.393A10.174,10.174,0,0,1,661.961,734.731Z" fill="#ffc400"/>
    <path id="패스_3779" data-name="패스 3779" d="M644.528,730.471c-.918.247-1.954.2-2.629,1.053,1.37-.271,2.742-.554,4.108-.788C645.508,730.668,645.013,730.587,644.528,730.471Z" fill="#ffc400"/>
    <path id="패스_3780" data-name="패스 3780" d="M651.435,731.692c2.259.018,4.39.4,6.009,2.113a4.893,4.893,0,0,0,3.768,1.451c-3.979-5.309-9.912-3.8-15.2-4.52-1.366.234-2.738.517-4.108.788h0C645.078,731.583,648.256,731.668,651.435,731.692Z" fill="#ffc400"/>
    <path id="패스_3781" data-name="패스 3781" d="M647.412,730.517c-.961-.017-1.923-.034-2.884-.046.485.116.98.2,1.479.265C646.476,730.656,646.945,730.582,647.412,730.517Z" fill="#ffc400"/>
    <path id="패스_3782" data-name="패스 3782" d="M661.071,733.963a.787.787,0,0,0-.2-.415c-1.782-1.588-3.672-2.993-6.275-2.97-.09,0-.18,0-.27,0a13.119,13.119,0,0,1,5.8,2.84A7.061,7.061,0,0,1,661.071,733.963Z" fill="#ffc400"/>
    <path id="패스_3783" data-name="패스 3783" d="M661.071,733.963a7.061,7.061,0,0,0-.946-.547,13.119,13.119,0,0,0-5.8-2.84c-2.3.016-4.606-.02-6.91-.059-.467.065-.936.139-1.4.219,5.293.723,11.226-.789,15.2,4.52h0C661.14,734.852,661.162,734.344,661.071,733.963Z" fill="#ffc400"/>
    <path id="패스_3784" data-name="패스 3784" d="M595.818,699.123c-.592,1.765-1.055,3.575-1.748,5.3a1.038,1.038,0,0,0,.016.631,1.443,1.443,0,0,1,.311.222C595.07,703.269,595.165,701.121,595.818,699.123Z" fill="#ffc400"/>
    <path id="패스_3785" data-name="패스 3785" d="M594.4,705.28a.665.665,0,0,1,.245.741c.933-1.65,1.876-3.295,2.79-4.956,1.093-1.987,1.079-1.994-.772-4.135a23.111,23.111,0,0,0-.842,2.193C595.165,701.121,595.07,703.269,594.4,705.28Z" fill="#ffc400"/>
    <path id="패스_3786" data-name="패스 3786" d="M594.4,705.28a1.443,1.443,0,0,0-.311-.222q.072.345.142.69Q594.318,705.516,594.4,705.28Z" fill="#ffc400"/>
    <path id="패스_3787" data-name="패스 3787" d="M594.4,705.28q-.079.235-.169.468c.05.247.1.494.151.74.088-.156.175-.312.263-.467A.665.665,0,0,0,594.4,705.28Z" fill="#ffc400"/>
    <path id="패스_3788" data-name="패스 3788" d="M595.85,699.018c-.043-.452-.042-.916-.04-1.368-.016-.078-.034-.157-.05-.235-2.631,1.622-2.847,4.08-1.69,7.012.693-1.729,1.156-3.539,1.748-5.3C595.829,699.089,595.838,699.053,595.85,699.018Z" fill="#ffc400"/>
    <path id="패스_3789" data-name="패스 3789" d="M595.76,697.415c.016.078.034.157.05.235,0,.452,0,.916.04,1.368-.012.035-.021.071-.032.1a23.111,23.111,0,0,1,.842-2.193h0A8.237,8.237,0,0,0,595.76,697.415Z" fill="#ffc400"/>
    <path id="패스_3790" data-name="패스 3790" d="M617.846,812.6c.087.259.176.39.268.39-.089-.212-.19-.422-.26-.637A.528.528,0,0,0,617.846,812.6Z" fill="#ffc400"/>
    <path id="패스_3791" data-name="패스 3791" d="M621.484,810.361a2.554,2.554,0,0,1-1.051-.684,4.714,4.714,0,0,1-2.286,2.172h0c-.007.381-.018.763-.033,1.144l-1.232,1.347h0c1.281,1.565,2.523.158,3.78-.049h0a8.676,8.676,0,0,0,3.433-4.87A3.01,3.01,0,0,1,621.484,810.361Z" fill="#ffc400"/>
    <path id="패스_3792" data-name="패스 3792" d="M620.582,809.466c-.008,0-.015-.012-.022-.013-.038.08-.087.147-.127.224a2.554,2.554,0,0,0,1.051.684,3.01,3.01,0,0,0,2.611-.939l-3.515.021Z" fill="#ffc400"/>
    <path id="패스_3793" data-name="패스 3793" d="M620.565,809.443l-.018,0s.008.005.013.006l.005-.01.017.023-.014-.023Z" fill="#ffc400"/>
    <path id="패스_3794" data-name="패스 3794" d="M625.5,767.407h0Z" fill="#ffc400"/>
    <path id="패스_3795" data-name="패스 3795" d="M625.519,767.42l.022.016a6.055,6.055,0,0,1,4.612-4.717C627.287,763,624.485,763.346,625.519,767.42Z" fill="#ffc400"/>
    <path id="패스_3796" data-name="패스 3796" d="M628.407,761.156a28.587,28.587,0,0,0-4.729,3.41,1.6,1.6,0,0,0,0,1.553,7.868,7.868,0,0,0,1.82,1.336v-.048h0l.018.012c-1.034-4.074,1.768-4.419,4.634-4.7C630,761.7,629.619,760.518,628.407,761.156Z" fill="#ffc400"/>
    <path id="패스_3797" data-name="패스 3797" d="M580.052,762.278c-2.067.5-4.181.085-6.265.2a1.1,1.1,0,0,1,.379.461h0a5.93,5.93,0,0,0,5.471-.02A1.1,1.1,0,0,1,580.052,762.278Z" fill="#ffc400"/>
    <path id="패스_3798" data-name="패스 3798" d="M573.787,762.479c2.084-.116,4.2.3,6.265-.2a3.941,3.941,0,0,0,.887-.793l0-.005-9.4.065C572.051,762.3,573.128,762,573.787,762.479Z" fill="#ffc400"/>
    <path id="패스_3799" data-name="패스 3799" d="M573.787,762.479c-.281.016-.562.046-.842.085.4.144.817.247,1.221.376h0A1.1,1.1,0,0,0,573.787,762.479Z" fill="#ffc400"/>
    <path id="패스_3800" data-name="패스 3800" d="M572.945,762.564c.28-.039.561-.069.842-.085-.659-.483-1.736-.177-2.249-.934h0A2.641,2.641,0,0,0,572.945,762.564Z" fill="#ffc400"/>
    <path id="패스_3801" data-name="패스 3801" d="M580.052,762.278a1.1,1.1,0,0,0-.415.642l.623-.687C580.191,762.252,580.121,762.261,580.052,762.278Z" fill="#ffc400"/>
    <path id="패스_3802" data-name="패스 3802" d="M580.052,762.278c.069-.017.139-.026.208-.045l.679-.748A3.941,3.941,0,0,1,580.052,762.278Z" fill="#ffc400"/>
    <path id="패스_3803" data-name="패스 3803" d="M616.681,815.229a2.761,2.761,0,0,1-.226-.858l-1.741.126a1.841,1.841,0,0,1-.07.275c.085.1.173.193.254.3a1.388,1.388,0,0,1-.351,1.49h0a32.249,32.249,0,0,0,3.361.044,2.66,2.66,0,0,0,2.754-2.318C619.552,815.522,618.477,816.9,616.681,815.229Z" fill="#ffc400"/>
    <path id="패스_3804" data-name="패스 3804" d="M614.9,815.076c-.081-.111-.169-.2-.254-.3a1.8,1.8,0,0,1-.234.516h0q.068.639.137,1.278A1.388,1.388,0,0,0,614.9,815.076Z" fill="#ffc400"/>
    <path id="패스_3805" data-name="패스 3805" d="M616.882,814.341h0l-.427.031a2.761,2.761,0,0,0,.226.858c1.8,1.668,2.871.293,3.981-.937h0C619.405,814.5,618.163,815.906,616.882,814.341Z" fill="#ffc400"/>
    <path id="패스_3806" data-name="패스 3806" d="M625.43,774.686l.007.009c1.362-1.943,1.094-3.9.06-5.866l-.016.01A47.531,47.531,0,0,0,625.43,774.686Z" fill="#ffc400"/>
    <path id="패스_3807" data-name="패스 3807" d="M625.425,774.68h0Z" fill="#ffc400"/>
    <path id="패스_3808" data-name="패스 3808" d="M625.425,774.68h0l.005.006a47.531,47.531,0,0,1,.051-5.847c-.01.005-.016.011-.026.016v-.048c-.762.223-1.829,1.015-1.541,1.313,1.3,1.339-.436,3.575,1.5,4.577l.011-.017Z" fill="#ffc400"/>
    <path id="패스_3809" data-name="패스 3809" d="M624.546,777.147a2.225,2.225,0,0,1-1.273.393,1.773,1.773,0,0,1-.364-.211c0,.056-.005.112-.006.168.444.237.962.293,1.4.559.348.321.588.771.991,1.018l.492.17c.012-1.526,1.051-3.132-.345-4.549l0,.006C626.064,775.851,625.172,776.455,624.546,777.147Z" fill="#ffc400"/>
    <path id="패스_3810" data-name="패스 3810" d="M624.3,778.056c-.434-.266-.952-.322-1.4-.559-.005.247-.007.494-.027.74l2.414.837C624.887,778.827,624.647,778.377,624.3,778.056Z" fill="#ffc400"/>
    <path id="패스_3811" data-name="패스 3811" d="M622.914,777.18c0,.049-.005.1-.005.149a1.773,1.773,0,0,0,.364.211,2.225,2.225,0,0,0,1.273-.393c.626-.692,1.518-1.3.888-2.446l0,.006-.016-.01a5.418,5.418,0,0,1-2.491,2.478l0,0Z" fill="#ffc400"/>
    <path id="패스_3812" data-name="패스 3812" d="M625.43,774.691l0,.01,0-.005-.008-.009Z" fill="#ffc400"/>
    <path id="패스_3813" data-name="패스 3813" d="M625.425,774.68l.005.027v-.016l-.005-.011Z" fill="#ffc400"/>
    <path id="패스_3814" data-name="패스 3814" d="M625.425,774.68h0l-.011.017.016.01Z" fill="#ffc400"/>
    <path id="패스_3815" data-name="패스 3815" d="M625.434,774.7l0-.01v.016Z" fill="#ffc400"/>
    <path id="패스_3816" data-name="패스 3816" d="M625.43,774.691v-.005l-.005-.006Z" fill="#ffc400"/>
    <path id="패스_3817" data-name="패스 3817" d="M602.477,681.98c.241.219.442.427.632.632.1-.035.193-.07.291-.1a1.74,1.74,0,0,1,.534-2.205h0a3.48,3.48,0,0,0-3.8,2.059A3.021,3.021,0,0,1,602.477,681.98Z" fill="#ffc400"/>
    <path id="패스_3818" data-name="패스 3818" d="M603.4,682.508c.1-.034.2-.073.3-.1h0q.119-1.051.238-2.1A1.74,1.74,0,0,0,603.4,682.508Z" fill="#ffc400"/>
    <path id="패스_3819" data-name="패스 3819" d="M602.73,682.747c.125-.049.253-.089.379-.135-.19-.205-.391-.413-.632-.632a3.021,3.021,0,0,0-2.342.381h0Z" fill="#ffc400"/>
    <path id="패스_3820" data-name="패스 3820" d="M607.462,680.075c-1.838-1.366-1.838-1.366-3.524.213h0C605.051,679.181,606.244,679.425,607.462,680.075Z" fill="#ffc400"/>
    <path id="패스_3821" data-name="패스 3821" d="M603.939,680.288l3.523-.213C606.244,679.425,605.051,679.181,603.939,680.288Z" fill="#ffc400"/>
    <path id="패스_3822" data-name="패스 3822" d="M587.6,733.473c.075-.005.148-.023.223-.025a4.821,4.821,0,0,1,1.8.407,2.289,2.289,0,0,0-2.469-1.29C587.574,732.882,587.7,733.184,587.6,733.473Z" fill="#ffc400"/>
    <path id="패스_3823" data-name="패스 3823" d="M587.6,733.473a1.105,1.105,0,0,1-.524.575h.006l2.544-.192v0a4.821,4.821,0,0,0-1.8-.407C587.752,733.45,587.679,733.468,587.6,733.473Z" fill="#ffc400"/>
    <path id="패스_3824" data-name="패스 3824" d="M587.107,733.53c.165-.021.33-.047.5-.057.1-.289-.03-.591-.443-.908h0C587.142,732.887,587.124,733.208,587.107,733.53Z" fill="#ffc400"/>
    <path id="패스_3825" data-name="패스 3825" d="M587.087,734.048h0Z" fill="#ffc400"/>
    <path id="패스_3826" data-name="패스 3826" d="M587.08,734.048a1.105,1.105,0,0,0,.524-.575c-.167.01-.332.036-.5.057-.01.173-.019.346-.029.518Z" fill="#ffc400"/>
    <path id="패스_3827" data-name="패스 3827" d="M625.523,767.471a1.486,1.486,0,0,1-.044,1.328l0,0h0l.015.032c.788-.44.8-.9.044-1.393,0,.014-.008.026-.01.04Z" fill="#ffc400"/>
    <path id="패스_3828" data-name="패스 3828" d="M625.523,767.471l-.024-.016q-.023.676-.043,1.352l.023-.008A1.486,1.486,0,0,0,625.523,767.471Z" fill="#ffc400"/>
    <path id="패스_3829" data-name="패스 3829" d="M625.482,768.8Z" fill="#ffc400"/>
    <path id="패스_3830" data-name="패스 3830" d="M625.531,767.476c0-.014.008-.026.01-.04l-.022-.016C625.524,767.44,625.525,767.456,625.531,767.476Z" fill="#ffc400"/>
    <path id="패스_3831" data-name="패스 3831" d="M625.531,767.476l-.03-.068h0c.01.021.013.042.022.063Z" fill="#ffc400"/>
    <path id="패스_3832" data-name="패스 3832" d="M625.5,767.408h0v.048l.024.016C625.514,767.45,625.511,767.429,625.5,767.408Z" fill="#ffc400"/>
    <path id="패스_3833" data-name="패스 3833" d="M625.519,767.42l-.018-.012.03.068C625.525,767.456,625.524,767.44,625.519,767.42Z" fill="#ffc400"/>
    <path id="패스_3834" data-name="패스 3834" d="M625.481,768.839l.016-.01-.015-.032Z" fill="#ffc400"/>
    <path id="패스_3835" data-name="패스 3835" d="M625.482,768.8h0l0,0c-.01.018-.014.037-.024.056Z" fill="#ffc400"/>
    <path id="패스_3836" data-name="패스 3836" d="M625.479,768.8l-.023.008v.048C625.465,768.836,625.469,768.817,625.479,768.8Z" fill="#ffc400"/>
    <path id="패스_3837" data-name="패스 3837" d="M625.481,768.839V768.8h0l-.027.058C625.465,768.85,625.471,768.844,625.481,768.839Z" fill="#ffc400"/>
    <path id="패스_3838" data-name="패스 3838" d="M611.616,684.311a8.585,8.585,0,0,1-1.281-.445c-.215-.088-.418-.191-.629-.281-1.408-.764-2.818.134-4.229,0a2.885,2.885,0,0,1-1.9-.9.505.505,0,0,1-.209.215c2.632,3.139-.723,4.556-2.668,6.378.023,0,.045-.009.069-.009,1.433.127,2.083,1.773,3.548,1.813.175-.062.346-.127.515-.2a3.2,3.2,0,0,0-.147-.515c-.59-1.477-.505-2.581,1.245-3.16A12.443,12.443,0,0,0,608.037,686a3.016,3.016,0,0,1-.152,2.85,8.162,8.162,0,0,1,2.846-1.185c.158-.038.308-.1.463-.146q.4-1.569.794-3.136C611.865,684.357,611.742,684.332,611.616,684.311Z" fill="#ffc400"/>
    <path id="패스_3839" data-name="패스 3839" d="M604.312,691.087c-1.465-.04-2.115-1.686-3.548-1.813-.024,0-.046.008-.069.009a6.241,6.241,0,0,0-.457.466c1.5,1.156,1.911,2.94,2.643,4.546a.965.965,0,0,0,1.408.518,1.589,1.589,0,0,0,.559-.985,13.747,13.747,0,0,0,.169-1.763c-.074-.388-.11-.791-.19-1.176C604.658,690.96,604.487,691.025,604.312,691.087Z" fill="#ffc400"/>
    <path id="패스_3840" data-name="패스 3840" d="M610.731,687.664a8.162,8.162,0,0,0-2.846,1.185,4.019,4.019,0,0,0-.484,2.072l3.526-2.351h0l.267-1.051C611.039,687.564,610.889,687.626,610.731,687.664Z" fill="#ffc400"/>
    <path id="패스_3841" data-name="패스 3841" d="M605.477,683.587c1.411.132,2.821-.766,4.229,0,.211.09.414.193.629.281a8.585,8.585,0,0,0,1.281.445c.126.021.249.046.372.071l.141-.556h0l0-.038a10.194,10.194,0,0,0-1.155-1.214l0,.013c-1.633.987-3.211.059-4.809-.139l0,0h0L603.7,682.4h0a1.149,1.149,0,0,1-.124.287A2.885,2.885,0,0,0,605.477,683.587Z" fill="#ffc400"/>
    <path id="패스_3842" data-name="패스 3842" d="M603.363,682.905c-.164.078-.372.035-.633-.158a5.609,5.609,0,0,1,.226.532c.581,1.888.573,1.931-1.073,1.655-.56-.093-1.4-.362-1.206.39a5.569,5.569,0,0,1-.2,3.988c.075-.008.146-.026.222-.029C602.64,687.461,605.995,686.044,603.363,682.905Z" fill="#ffc400"/>
    <path id="패스_3843" data-name="패스 3843" d="M600.7,689.283c-.076,0-.147.021-.222.029a4.78,4.78,0,0,1-.235.437h0A6.241,6.241,0,0,1,600.7,689.283Z" fill="#ffc400"/>
    <path id="패스_3844" data-name="패스 3844" d="M603.572,682.69a2.406,2.406,0,0,1-.171-.178v0c-.1.034-.2.069-.291.1.092.1.173.2.254.293A.505.505,0,0,0,603.572,682.69Z" fill="#ffc400"/>
    <path id="패스_3845" data-name="패스 3845" d="M603.572,682.69a1.149,1.149,0,0,0,.124-.287c-.1.032-.2.071-.3.1v0A2.406,2.406,0,0,0,603.572,682.69Z" fill="#ffc400"/>
    <path id="패스_3846" data-name="패스 3846" d="M603.363,682.905c-.081-.1-.162-.193-.254-.293-.126.046-.254.086-.379.135C602.991,682.94,603.2,682.983,603.363,682.905Z" fill="#ffc400"/>
    <path id="패스_3847" data-name="패스 3847" d="M560.3,739.479a17.633,17.633,0,0,1-4.059,3.329c4.594.2,6.512-4.084,9.538-6.5a8.367,8.367,0,0,0-4.465,2.072C560.97,738.739,560.618,739.092,560.3,739.479Z" fill="#ffc400"/>
    <path id="패스_3848" data-name="패스 3848" d="M554.754,743.609h0l0,0Z" fill="#ffc400"/>
    <path id="패스_3849" data-name="패스 3849" d="M567.829,736.316h0a1.387,1.387,0,0,1-.623-.314,4.764,4.764,0,0,1-.959.273c-.161,0-.315.019-.471.033-3.026,2.416-4.944,6.7-9.538,6.5q-.72.432-1.485.807c2.372,1.968,4.873.276,7.311.229a1.142,1.142,0,0,0,1.019-1.214c.1-1.989,1.25-3.155,2.87-4.11a13.7,13.7,0,0,0,2.145-1.951v0h0Z" fill="#ffc400"/>
    <path id="패스_3850" data-name="패스 3850" d="M554.754,743.61v0l0-.008Z" fill="#ffc400"/>
    <path id="패스_3851" data-name="패스 3851" d="M556.238,742.808a17.633,17.633,0,0,0,4.059-3.329c.321-.387.673-.74,1.014-1.1a8.367,8.367,0,0,1,4.465-2.072c.211-.169.427-.329.65-.477.126-.126.25-.256.374-.386a2.312,2.312,0,0,1-.123-.34h0c-1.29-1.56-2.864-.376-4.269-.333-1.164.036-.914,1.457-1.368,2.213-.224.373-.98.427-1.494.625h0l-.019.023c-.213,1.214-.619,2.25-2.164,1.818-1.879-.524-2.36.211-2.115,2a2.8,2.8,0,0,1-.2,1.22A8.018,8.018,0,0,0,556.238,742.808Z" fill="#ffc400"/>
    <path id="패스_3852" data-name="패스 3852" d="M555.052,742.672c-.1.314-.22.628-.3.937l0,0,0,.008q.765-.373,1.485-.807A8.018,8.018,0,0,1,555.052,742.672Z" fill="#ffc400"/>
    <path id="패스_3853" data-name="패스 3853" d="M566.8,735.445c-.124.13-.248.26-.374.386-.223.148-.439.308-.65.477.156-.014.31-.031.471-.033a4.764,4.764,0,0,0,.959-.273A1.5,1.5,0,0,1,566.8,735.445Z" fill="#ffc400"/>
    <path id="패스_3854" data-name="패스 3854" d="M614.655,813.9q-.042-.4-.081-.807h0q-.5-.511-.992-1.026c-.044,0-.086.01-.13.011a5.788,5.788,0,0,1-1.465-.194,7.4,7.4,0,0,1-2.36-1.376,1.733,1.733,0,0,0-1.184.126,6.094,6.094,0,0,1-1.868,1.006c2.7.642,5.672.608,7.756,2.764A1.284,1.284,0,0,1,614.655,813.9Z" fill="#ffc400"/>
    <path id="패스_3855" data-name="패스 3855" d="M608.443,810.636a1.733,1.733,0,0,1,1.184-.126,7.4,7.4,0,0,0,2.36,1.376,5.788,5.788,0,0,0,1.465.194c.044,0,.086-.01.13-.011l-.219-.227h0l-1.155-1.187-2.353-1.261h0l-.124.109h0c-.392.642-.759.592-1.107-.037l-.128-.09a7,7,0,0,1-4.592,1.228,8.883,8.883,0,0,0,2.67,1.037A6.094,6.094,0,0,0,608.443,810.636Z" fill="#ffc400"/>
    <path id="패스_3856" data-name="패스 3856" d="M614.331,814.406c-2.084-2.156-5.058-2.122-7.756-2.764a4.493,4.493,0,0,1-1.624.229c-.059,0-.116-.017-.174-.022a4.705,4.705,0,0,0,2.128,1.177c2.519.689,5,1.5,7.5,2.262h0A1.1,1.1,0,0,1,614.331,814.406Z" fill="#ffc400"/>
    <path id="패스_3857" data-name="패스 3857" d="M604.777,811.849c.058.005.115.019.174.022a4.493,4.493,0,0,0,1.624-.229,8.883,8.883,0,0,1-2.67-1.037h0A3.926,3.926,0,0,0,604.777,811.849Z" fill="#ffc400"/>
    <path id="패스_3858" data-name="패스 3858" d="M614.331,814.406c.109.111.21.241.313.366a1.841,1.841,0,0,0,.07-.275c-.02-.2-.039-.4-.059-.594A1.284,1.284,0,0,0,614.331,814.406Z" fill="#ffc400"/>
    <path id="패스_3859" data-name="패스 3859" d="M614.331,814.406a1.1,1.1,0,0,0,.079.881h0a1.8,1.8,0,0,0,.234-.516C614.541,814.647,614.44,814.517,614.331,814.406Z" fill="#ffc400"/>
    <path id="패스_3860" data-name="패스 3860" d="M598.724,806.147l.005-.023c.791-1.307,2.643-1.656,2.984-3.3-.05.04-.422-.02-.452.045a3.084,3.084,0,0,1-2.089,1.1C599.177,804.7,598.706,805.423,598.724,806.147Z" fill="#ffc400"/>
    <path id="패스_3861" data-name="패스 3861" d="M599.172,803.976a3.084,3.084,0,0,0,2.089-1.1c.03-.065.4-.005.452-.045-.341,1.64-2.193,1.989-2.984,3.3l-.005.023a1.407,1.407,0,0,0,.339.888c.469-.262,1.033-.839,1.393-.732,1.838.548,2.877.483,2.6-1.943-.119-1.043.493-2.169.773-3.258a2.725,2.725,0,0,1-2.38-1.219q-1.19,1.779-2.377,3.558h0A1.372,1.372,0,0,1,599.172,803.976Z" fill="#ffc400"/>
    <path id="패스_3862" data-name="패스 3862" d="M599.172,803.976a2.6,2.6,0,0,1-.282.028c-.115-.022-.2-.061-.306-.088a1.8,1.8,0,0,0,.033,2.7c.036-.155.073-.309.107-.464C598.706,805.423,599.177,804.7,599.172,803.976Z" fill="#ffc400"/>
    <path id="패스_3863" data-name="패스 3863" d="M598.584,803.916c.106.027.191.066.306.088a2.6,2.6,0,0,0,.282-.028,1.372,1.372,0,0,0-.1-.535h0A4.536,4.536,0,0,0,598.584,803.916Z" fill="#ffc400"/>
    <path id="패스_3864" data-name="패스 3864" d="M598.617,806.611a4.362,4.362,0,0,0,.446.424,1.407,1.407,0,0,1-.339-.888C598.69,806.3,598.653,806.456,598.617,806.611Z" fill="#ffc400"/>
    <path id="패스_3865" data-name="패스 3865" d="M558.66,751.11a1.356,1.356,0,0,1,.213.1A.449.449,0,0,0,558.66,751.11Z" fill="#ffc400"/>
    <path id="패스_3866" data-name="패스 3866" d="M557.318,750.995h0a2.658,2.658,0,0,1,1.342.115.449.449,0,0,1,.213.1,1.6,1.6,0,0,1,.656,1.459,22.56,22.56,0,0,1-.162,2.36c.126.234.249.469.371.7,1.761-.931,1.438-2.49,1.338-4.076-.162-2.6-1.617-4.028-4.361-4.048a1.186,1.186,0,0,0-.843,1.715A7.444,7.444,0,0,0,557,750.66v0h0Z" fill="#ffc400"/>
    <path id="패스_3867" data-name="패스 3867" d="M559.332,755.41l.405.328h0c-.122-.236-.245-.471-.371-.7C559.356,755.159,559.342,755.284,559.332,755.41Z" fill="#ffc400"/>
    <path id="패스_3868" data-name="패스 3868" d="M614.816,812.4a3.1,3.1,0,0,1,.352.65,1.92,1.92,0,0,1-.064.7,1.656,1.656,0,0,1,1.325.187,4.081,4.081,0,0,1,.179-1.08,5.852,5.852,0,0,1,.72-1.419,6.4,6.4,0,0,1,2.965-1.943c-.026-.177-.051-.355-.076-.532a.516.516,0,0,1-.009-.067l-.009-.063.023-.035,0-.018a1.245,1.245,0,0,1-.054-.117c-.012-.034.048-.091.124-.154a4.816,4.816,0,0,1-.507-.318c.029.038-.4-.3-.374-.248s-.363.25-.34.289c-.077.355-.176.671-.274,1.016a2.377,2.377,0,0,1-.651,1.047,5.407,5.407,0,0,1-1.11.824,7.909,7.909,0,0,1-2.481.847A.355.355,0,0,1,614.816,812.4Z" fill="#ffc400"/>
    <path id="패스_3869" data-name="패스 3869" d="M613.565,811.412l.693.376c.053.044.089.1.138.147a.967.967,0,0,1,.162.033,7.909,7.909,0,0,0,2.481-.847,5.407,5.407,0,0,0,1.11-.824,2.377,2.377,0,0,0,.651-1.047c.1-.345.2-.661.274-1.016-.023-.039.37-.237.34-.289s.4.286.374.248a4.816,4.816,0,0,0,.507.318c.074-.06.164-.126.224-.182h0l.079-.1a2.92,2.92,0,0,0-1.223-2.366q-.6,1.206-1.2,2.412h0c-.007.389-.012.777-.013,1.166-.383.578-.78.577-1.189.027h0l-3.583,1.185,0,.69C613.452,811.36,613.5,811.393,613.565,811.412Z" fill="#ffc400"/>
    <path id="패스_3870" data-name="패스 3870" d="M620.254,809.1a.5.5,0,0,1-.037-.139c.025.177.05.355.076.532.084-.017.166-.039.254-.05C620.452,809.423,620.355,809.32,620.254,809.1Z" fill="#ffc400"/>
    <path id="패스_3871" data-name="패스 3871" d="M620.2,808.835l.009.063a.472.472,0,0,1,.014-.1Z" fill="#ffc400"/>
    <path id="패스_3872" data-name="패스 3872" d="M620.293,809.5a6.4,6.4,0,0,0-2.965,1.943,5.852,5.852,0,0,0-.72,1.419,4.081,4.081,0,0,0-.179,1.08,2.034,2.034,0,0,1,.453.4h0l1.232-1.347c-.092,0-.181-.131-.268-.39a.528.528,0,0,1,.008-.247,1.576,1.576,0,0,1-.059-.175c-.017-.083.227-.219.352-.331h0a4.714,4.714,0,0,0,2.286-2.172c-.041-.044-.092-.073-.132-.12Z" fill="#ffc400"/>
    <path id="패스_3873" data-name="패스 3873" d="M620.293,809.5l.008.06c.04.047.091.076.132.12.04-.077.089-.144.127-.224-.005,0-.009-.006-.013-.006C620.459,809.458,620.377,809.48,620.293,809.5Z" fill="#ffc400"/>
    <path id="패스_3874" data-name="패스 3874" d="M620.56,809.453c.007,0,.014.013.022.013l-.017-.023Z" fill="#ffc400"/>
    <path id="패스_3875" data-name="패스 3875" d="M616.429,813.939a1.656,1.656,0,0,0-1.325-.187,2.04,2.04,0,0,1-.39.745l1.741-.126A2.974,2.974,0,0,1,616.429,813.939Z" fill="#ffc400"/>
    <path id="패스_3876" data-name="패스 3876" d="M616.455,814.371l.427-.031a2.034,2.034,0,0,0-.453-.4A2.974,2.974,0,0,0,616.455,814.371Z" fill="#ffc400"/>
    <path id="패스_3877" data-name="패스 3877" d="M614.816,812.4a1.876,1.876,0,0,1-.242.695h0q.039.4.081.807c.011-.012.017-.024.029-.036a2.693,2.693,0,0,1,.42-.115,1.92,1.92,0,0,0,.064-.7A3.1,3.1,0,0,0,614.816,812.4Z" fill="#ffc400"/>
    <path id="패스_3878" data-name="패스 3878" d="M614.4,811.935c-.049-.046-.085-.1-.138-.147l-.693-.376c-.061-.019-.113-.052-.172-.073,0,.171,0,.341,0,.511A4.785,4.785,0,0,0,614.4,811.935Z" fill="#ffc400"/>
    <path id="패스_3879" data-name="패스 3879" d="M614.684,813.867c-.012.012-.018.024-.029.036.02.2.039.4.059.594a2.04,2.04,0,0,0,.39-.745A2.693,2.693,0,0,0,614.684,813.867Z" fill="#ffc400"/>
    <path id="패스_3880" data-name="패스 3880" d="M615.409,685.458a8.438,8.438,0,0,1-.9-.828.8.8,0,0,0-.137-.087q-.276,1.024-.553,2.048a5.646,5.646,0,0,1,3.253.531A7.952,7.952,0,0,0,615.409,685.458Z" fill="#ffc400"/>
    <path id="패스_3881" data-name="패스 3881" d="M613.824,686.591q-.112.414-.224.828v0a7.466,7.466,0,0,1,1.981.931,2.143,2.143,0,0,0,2.587.19c-.371-.468-.723-.952-1.092-1.42A5.646,5.646,0,0,0,613.824,686.591Z" fill="#ffc400"/>
    <path id="패스_3882" data-name="패스 3882" d="M614.594,683.739q-.108.4-.217.8a.8.8,0,0,1,.137.087,8.438,8.438,0,0,0,.9.828,7.952,7.952,0,0,1,1.668,1.664c.162.066.325.135.487.206a6.031,6.031,0,0,1,.958.521c.316-1.088-.664-1.945-1.008-2.909-.511-1.432-1.83-1.079-2.9-1.248.011.017.023.03.034.048Z" fill="#ffc400"/>
    <path id="패스_3883" data-name="패스 3883" d="M618.522,687.849a6.031,6.031,0,0,0-.958-.521c-.162-.071-.325-.14-.487-.206.369.468.721.952,1.092,1.42h0A1.971,1.971,0,0,0,618.522,687.849Z" fill="#ffc400"/>
    <path id="패스_3884" data-name="패스 3884" d="M606.008,690.16c.148-.107.3-.211.446-.326.113-.089.226-.17.339-.252a3.633,3.633,0,0,0-.175-1.128A3.66,3.66,0,0,0,606.008,690.16Z" fill="#ffc400"/>
    <path id="패스_3885" data-name="패스 3885" d="M606.793,689.582c-.113.082-.226.163-.339.252-.146.115-.3.219-.446.326a2.552,2.552,0,0,1-.991,1.905q.586.035,1.174.032c.38-.415.811-.778,1.212-1.172l0,0h0A1.557,1.557,0,0,1,606.793,689.582Z" fill="#ffc400"/>
    <path id="패스_3886" data-name="패스 3886" d="M608.037,686a12.443,12.443,0,0,1-2.112,1.215c-1.75.579-1.835,1.683-1.245,3.16a3.2,3.2,0,0,1,.147.515,4.284,4.284,0,0,0,.586-.295c.2-.145.4-.291.595-.434a3.66,3.66,0,0,1,.61-1.706,3.633,3.633,0,0,1,.175,1.128c.067-.049.134-.1.2-.149.294-.2.59-.4.892-.584A3.016,3.016,0,0,0,608.037,686Z" fill="#ffc400"/>
    <path id="패스_3887" data-name="패스 3887" d="M606.993,689.433c-.066.052-.133.1-.2.149a1.557,1.557,0,0,0,.608,1.339h0a4.019,4.019,0,0,1,.484-2.072C607.583,689.035,607.287,689.232,606.993,689.433Z" fill="#ffc400"/>
    <path id="패스_3888" data-name="패스 3888" d="M606.008,690.16c-.2.143-.394.289-.595.434a4.284,4.284,0,0,1-.586.295c.08.385.116.788.19,1.176A2.552,2.552,0,0,0,606.008,690.16Z" fill="#ffc400"/>
    <path id="패스_3889" data-name="패스 3889" d="M614.04,684.382a3.418,3.418,0,0,0-1.129.058c-.138,0-.272,0-.407,0a2.4,2.4,0,0,1-.175,2.7c.309-.124.617-.251.924-.386A2.362,2.362,0,0,1,614.04,684.382Z" fill="#ffc400"/>
    <path id="패스_3890" data-name="패스 3890" d="M612.329,687.132a7.913,7.913,0,0,1-1.4,1.437h0a2.341,2.341,0,0,0,.321.5c1.451,1.317,1.8,1.246,2.232-.467a7.735,7.735,0,0,0,.12-1.176v0a2.575,2.575,0,0,1-.347-.673C612.946,686.881,612.638,687.008,612.329,687.132Z" fill="#ffc400"/>
    <path id="패스_3891" data-name="패스 3891" d="M612.911,684.44a3.418,3.418,0,0,1,1.129-.058c.18-.214.363-.427.53-.644l-.448-.012-.519,0-1.474.095v0a4.327,4.327,0,0,1,.375.61C612.639,684.439,612.773,684.442,612.911,684.44Z" fill="#ffc400"/>
    <path id="패스_3892" data-name="패스 3892" d="M612.5,684.436h-.238c-.095-.017-.186-.035-.278-.053q-.4,1.567-.794,3.136c.383-.114.763-.238,1.135-.386A2.4,2.4,0,0,0,612.5,684.436Z" fill="#ffc400"/>
    <path id="패스_3893" data-name="패스 3893" d="M612.329,687.132c-.372.148-.752.272-1.135.386l-.267,1.051A7.913,7.913,0,0,0,612.329,687.132Z" fill="#ffc400"/>
    <path id="패스_3894" data-name="패스 3894" d="M612.266,684.435h.238a4.327,4.327,0,0,0-.375-.61l-.141.556C612.08,684.4,612.171,684.418,612.266,684.435Z" fill="#ffc400"/>
    <path id="패스_3895" data-name="패스 3895" d="M614.04,684.382a2.362,2.362,0,0,0-.787,2.364c.026-.012.054-.022.081-.034a3.944,3.944,0,0,1,.49-.121q.276-1.024.553-2.048A1,1,0,0,0,614.04,684.382Z" fill="#ffc400"/>
    <path id="패스_3896" data-name="패스 3896" d="M613.334,686.712c-.027.012-.055.022-.081.034a2.575,2.575,0,0,0,.347.673q.111-.414.224-.828A3.944,3.944,0,0,0,613.334,686.712Z" fill="#ffc400"/>
    <path id="패스_3897" data-name="패스 3897" d="M614.594,683.739h-.024c-.167.217-.35.43-.53.644a1,1,0,0,1,.337.161Q614.487,684.141,614.594,683.739Z" fill="#ffc400"/>
    <path id="패스_3898" data-name="패스 3898" d="M578.4,758.762a.143.143,0,0,1,.1.088c.029.039.069.09.122.157-1.3-3.316-2.029-3.6-4.033-1.634-.542.531-1.462,1.177-1.067,1.874.747,1.318,1.643.2,2.4-.231a2.95,2.95,0,0,1,2.759.148c-.013-.033-.025-.062-.037-.094A1.679,1.679,0,0,1,578.4,758.762Z" fill="#ffc400"/>
    <path id="패스_3899" data-name="패스 3899" d="M578.4,758.762a1.679,1.679,0,0,0,.248.308c-.009-.022-.017-.041-.025-.063-.053-.067-.093-.118-.122-.157A.143.143,0,0,0,578.4,758.762Z" fill="#ffc400"/>
    <path id="패스_3900" data-name="패스 3900" d="M578.68,759.164l0,.008,0-.006Z" fill="#ffc400"/>
    <path id="패스_3901" data-name="패스 3901" d="M595.513,693.359c1.836-.329,3.559-.871,4.691-2.513v0A5.093,5.093,0,0,0,595.513,693.359Z" fill="#ffc400"/>
    <path id="패스_3902" data-name="패스 3902" d="M598.35,688.445a8.7,8.7,0,0,0-2.658,3.8c1.136-.954,2.409-1.713,3.6-2.587Z" fill="#ffc400"/>
    <path id="패스_3903" data-name="패스 3903" d="M595.692,692.25a4.982,4.982,0,0,0-.179,1.109,5.093,5.093,0,0,1,4.69-2.515l-.913-1.181C598.1,690.537,596.828,691.3,595.692,692.25Z" fill="#ffc400"/>
    <path id="패스_3904" data-name="패스 3904" d="M580.335,735.581a4.059,4.059,0,0,0-1.215-.13l-.481,1.041a10.885,10.885,0,0,0,2.106.5c2.29.113,2.4-.037,2.773-2.952C582.757,735.177,581.808,735.924,580.335,735.581Z" fill="#ffc400"/>
    <path id="패스_3905" data-name="패스 3905" d="M579.276,735.3a5.63,5.63,0,0,0,2.634-.809,4.469,4.469,0,0,1-2.158-.4l-.566,1.221Z" fill="#ffc400"/>
    <path id="패스_3906" data-name="패스 3906" d="M581.91,734.491a5.63,5.63,0,0,1-2.634.809l-.09.008-.066.143a4.059,4.059,0,0,1,1.215.13c1.473.343,2.422-.4,3.183-1.541h0A3.94,3.94,0,0,1,581.91,734.491Z" fill="#ffc400"/>
    <path id="패스_3907" data-name="패스 3907" d="M661.283,743.593c-.272,2.292-.1,2.534,1.567,2.111,1.07-.271,2.131-.583,3.2-.877C664.72,743.406,662.6,745.039,661.283,743.593Z" fill="#ffc400"/>
    <path id="패스_3908" data-name="패스 3908" d="M663.7,743.184a1.8,1.8,0,0,0,1.04.42A3.108,3.108,0,0,0,663.7,743.184Z" fill="#ffc400"/>
    <path id="패스_3909" data-name="패스 3909" d="M661.283,743.593c1.32,1.446,3.437-.187,4.763,1.234h0a4.911,4.911,0,0,0-1.309-1.223,1.8,1.8,0,0,1-1.04-.42A3.683,3.683,0,0,0,661.283,743.593Z" fill="#ffc400"/>
    <path id="패스_3910" data-name="패스 3910" d="M621.045,694.971a5.486,5.486,0,0,1,.809.551,11.6,11.6,0,0,0-.654-1.616C621.091,694.252,620.149,694.491,621.045,694.971Z" fill="#ffc400"/>
    <path id="패스_3911" data-name="패스 3911" d="M621.045,694.971c-.9-.48.046-.719.155-1.065a4.58,4.58,0,0,0-1.757-1.936q.567,1.262,1.133,2.523,0,.624.007,1.248.568.556,1.159,1.093l1.14,1.278a14.509,14.509,0,0,1-1.028-2.59A5.486,5.486,0,0,0,621.045,694.971Z" fill="#ffc400"/>
    <path id="패스_3912" data-name="패스 3912" d="M620.583,695.77h0Z" fill="#ffc400"/>
    <path id="패스_3913" data-name="패스 3913" d="M621.184,693.736a.207.207,0,0,1,.016.17,11.6,11.6,0,0,1,.654,1.616c.1.079.2.154.3.239a6.415,6.415,0,0,1,.8.888c-.007-1.647-.387-3.084-1.748-3.972A4.272,4.272,0,0,1,621.184,693.736Z" fill="#ffc400"/>
    <path id="패스_3914" data-name="패스 3914" d="M621.2,693.906a.207.207,0,0,0-.016-.17,4.272,4.272,0,0,0,.021-1.059,5.285,5.285,0,0,0-1.762-.707A4.58,4.58,0,0,1,621.2,693.906Z" fill="#ffc400"/>
    <path id="패스_3915" data-name="패스 3915" d="M622.953,696.649a6.415,6.415,0,0,0-.8-.888c-.1-.085-.2-.16-.3-.239a14.509,14.509,0,0,0,1.028,2.59h0C622.928,697.613,622.955,697.123,622.953,696.649Z" fill="#ffc400"/>
    <path id="패스_3916" data-name="패스 3916" d="M660.724,750.574a1.229,1.229,0,0,0-.927-.473,1.348,1.348,0,0,0-1.389,1.463,6.489,6.489,0,0,0,.463,1.609,6.21,6.21,0,0,0,1.552-.6A1.372,1.372,0,0,0,660.724,750.574Z" fill="#ffc400"/>
    <path id="패스_3917" data-name="패스 3917" d="M658.871,753.173l-.012,0,.018.014Z" fill="#ffc400"/>
    <path id="패스_3918" data-name="패스 3918" d="M658.877,753.19l-.017-.014h0Z" fill="#ffc400"/>
    <path id="패스_3919" data-name="패스 3919" d="M595.461,789.117c1.036-.149,1.834-.565,1.389-1.781-.38-1.043-.94-2.02-1.42-3.026h0C594.257,785.92,596.637,787.507,595.461,789.117Z" fill="#ffc400"/>
    <path id="패스_3920" data-name="패스 3920" d="M594.811,787.729a9.009,9.009,0,0,0-.328-2.044A3.129,3.129,0,0,0,594.811,787.729Z" fill="#ffc400"/>
    <path id="패스_3921" data-name="패스 3921" d="M594.483,785.685a9.009,9.009,0,0,1,.328,2.044c.205.463.451.925.65,1.388,1.176-1.61-1.2-3.2-.031-4.807A2.672,2.672,0,0,0,594.483,785.685Z" fill="#ffc400"/>
    <path id="패스_3922" data-name="패스 3922" d="M665.762,749.718c.046.061.1.118.144.177-.011-.214-.01-.428,0-.642l-.013.012C665.94,749.265,665.714,749.726,665.762,749.718Z" fill="#ffc400"/>
    <path id="패스_3923" data-name="패스 3923" d="M665.762,749.718c-.048.008.178-.453.13-.453l.013-.012a6.674,6.674,0,0,1,.076-.89l-1.2.067a2.577,2.577,0,0,1-2.361,1.223h0c.92,1.223,2.274,1.107,3.574,1.161a6.789,6.789,0,0,1-.088-.919C665.858,749.836,665.808,749.779,665.762,749.718Z" fill="#ffc400"/>
    <path id="패스_3924" data-name="패스 3924" d="M665.906,749.9c.161.2.314.4.464.6a1.109,1.109,0,0,0,.061-1.731c-.175.17-.348.347-.526.489C665.9,749.467,665.9,749.681,665.906,749.9Z" fill="#ffc400"/>
    <path id="패스_3925" data-name="패스 3925" d="M665.994,750.814h0a3.37,3.37,0,0,0,.375-.319c-.15-.2-.3-.4-.464-.6A6.789,6.789,0,0,0,665.994,750.814Z" fill="#ffc400"/>
    <path id="패스_3926" data-name="패스 3926" d="M665.981,748.363a6.674,6.674,0,0,0-.076.89c.178-.142.351-.319.526-.489A3.039,3.039,0,0,0,665.981,748.363Z" fill="#ffc400"/>
    <path id="패스_3927" data-name="패스 3927" d="M573.483,734.755c-.136-.971-.31.163-.45-.008-.607.518.234-.242-.406.243a1.787,1.787,0,0,1-.206.008c.118.087.242.172.359.259a3.67,3.67,0,0,0,.583.241c-.007-.047-.011-.095-.017-.143C573.392,735.157,573.446,734.955,573.483,734.755Z" fill="#ffc400"/>
    <path id="패스_3928" data-name="패스 3928" d="M573.363,735.5a3.67,3.67,0,0,1-.583-.241c-.117-.087-.241-.172-.359-.259a2.707,2.707,0,0,1-2.19-.934,2.519,2.519,0,0,0,2.5,2.363l.662-.682C573.383,735.663,573.373,735.58,573.363,735.5Z" fill="#ffc400"/>
    <path id="패스_3929" data-name="패스 3929" d="M574.014,734.112h0c.046.135.1.268.148.4A.946.946,0,0,0,574.014,734.112Z" fill="#ffc400"/>
    <path id="패스_3930" data-name="패스 3930" d="M572.627,734.99c.64-.485-.2.275.406-.243.14.171.314-.963.45.008-.037.2-.091.4-.137.6.006.048.01.1.017.143.069.022.137.047.208.063l.328-.338v.005a6.957,6.957,0,0,1,.114-1.116l-2.975-.038q.715.437,1.383.924A1.787,1.787,0,0,0,572.627,734.99Z" fill="#ffc400"/>
    <path id="패스_3931" data-name="패스 3931" d="M572.421,735q-.666-.489-1.383-.924l-.807-.01A2.707,2.707,0,0,0,572.421,735Z" fill="#ffc400"/>
    <path id="패스_3932" data-name="패스 3932" d="M573.363,735.5c.01.082.02.165.029.247l.179-.184C573.5,735.545,573.432,735.52,573.363,735.5Z" fill="#ffc400"/>
    <path id="패스_3933" data-name="패스 3933" d="M595.476,732.853c2.118-.614,2.185-.735,1.3-2.386A2.134,2.134,0,0,0,595.476,732.853Z" fill="#ffc400"/>
    <path id="패스_3934" data-name="패스 3934" d="M595.476,732.853a2.134,2.134,0,0,1,1.3-2.386h0C594.834,730.847,594.8,730.852,595.476,732.853Z" fill="#ffc400"/>
    <path id="패스_3935" data-name="패스 3935" d="M618.558,796.792a1.114,1.114,0,0,0-.93.518c-.191.718.313,1.133.974,1.158.329.013.67-.3,1-.467A1.091,1.091,0,0,0,618.558,796.792Z" fill="#ffc400"/>
    <path id="패스_3936" data-name="패스 3936" d="M666.038,753.154a12.894,12.894,0,0,0-1.64-.665c-.6-.155-1.189.018-1.248.723-.024.278.318.685.6.864a3.7,3.7,0,0,0,1.131.294h0C664.908,753.623,665.541,753.453,666.038,753.154Z" fill="#ffc400"/>
    <path id="패스_3937" data-name="패스 3937" d="M664.883,754.37l1.155-1.216C665.541,753.453,664.908,753.623,664.883,754.37Z" fill="#ffc400"/>
    <path id="패스_3938" data-name="패스 3938" d="M650.434,752.113a1.551,1.551,0,0,0,.75.189c.5-1.17.267-1.735-.317-2.013a1.053,1.053,0,0,0-.991.315A1.129,1.129,0,0,0,650.434,752.113Z" fill="#ffc400"/>
    <path id="패스_3939" data-name="패스 3939" d="M616.883,697.186c-.435.886-.781,1.332-.691,1.453a6.559,6.559,0,0,0,1.146,1.01c.145-.3.464-.642.4-.879A8.5,8.5,0,0,0,616.883,697.186Z" fill="#ffc400"/>
    <path id="패스_3940" data-name="패스 3940" d="M655.073,736.672a1.21,1.21,0,0,0,.98-1.263c-.124-.455-.449-.647-.839-.375a1.964,1.964,0,0,0-.689.893C654.366,736.371,654.645,736.754,655.073,736.672Z" fill="#ffc400"/>
    <path id="패스_3941" data-name="패스 3941" d="M603.83,801.1c.165-.643.8-1.364.045-1.9-.295-.209-.975.074-1.459.207a5.532,5.532,0,0,0-.967.472h0C602.1,800.563,603.351,800.082,603.83,801.1Z" fill="#ffc400"/>
    <path id="패스_3942" data-name="패스 3942" d="M603.83,801.1c-.479-1.02-1.728-.539-2.38-1.22h0A2.725,2.725,0,0,0,603.83,801.1Z" fill="#ffc400"/>
    <path id="패스_3943" data-name="패스 3943" d="M599.27,722.418a1.009,1.009,0,0,0-.957.244.8.8,0,0,0,.673,1.17c.232.038.53-.329.8-.513C599.62,723,599.526,722.536,599.27,722.418Z" fill="#ffc400"/>
    <path id="패스_3944" data-name="패스 3944" d="M609.015,809.48c.108,0,.215.006.323.011l.028-.037.49-.059c-.154-.936-.261-1.918-1.17-2.461-.164-.1-.811.245-.8.286.164.728.4,1.441.613,2.157,0,0,.5-.009.5-.014S609.006,809.415,609.015,809.48Z" fill="#ffc400"/>
    <path id="패스_3945" data-name="패스 3945" d="M609.338,809.491c.131.006.263,0,.394.013l.124-.109h0l-.49.059Z" fill="#ffc400"/>
    <path id="패스_3946" data-name="패스 3946" d="M609.015,809.48c-.009-.065-.017-.118-.016-.117s-.5.014-.5.014l.128.09C608.755,809.466,608.885,809.478,609.015,809.48Z" fill="#ffc400"/>
    <path id="패스_3947" data-name="패스 3947" d="M587.064,761.57l-3.554-.018A2.719,2.719,0,0,0,587.064,761.57Z" fill="#ffc400"/>
    <path id="패스_3948" data-name="패스 3948" d="M587.064,761.57a2.719,2.719,0,0,1-3.554-.018h0C584.687,762.969,585.872,762.914,587.064,761.57Z" fill="#ffc400"/>
    <path id="패스_3949" data-name="패스 3949" d="M606.665,695.318a4.06,4.06,0,0,0,.454.742l.667-.707a4.719,4.719,0,0,0-.8-.4C606.914,694.929,606.635,695.239,606.665,695.318Z" fill="#ffc400"/>
    <path id="패스_3950" data-name="패스 3950" d="M599.539,694.1a.56.56,0,0,0,.035.529c.3.319.641.244.927-.125,0-.2.076-.457-.014-.547A.558.558,0,0,0,599.539,694.1Z" fill="#ffc400"/>
    <path id="패스_3951" data-name="패스 3951" d="M599.516,778.231c-.036.04.166.291.258.444q.391-.333.781-.669c-.1-.147-.193-.295-.289-.442A7.137,7.137,0,0,0,599.516,778.231Z" fill="#ffc400"/>
    <path id="패스_3952" data-name="패스 3952" d="M605.9,788.616a6.851,6.851,0,0,0,.538.787c.194-.2.387-.405.58-.609a6.133,6.133,0,0,0-.795-.507C606.177,788.263,605.879,788.57,605.9,788.616Z" fill="#ffc400"/>
    <path id="패스_3953" data-name="패스 3953" d="M619.375,805.86l-2.413-.06h0a2.675,2.675,0,0,0,1.214,2.472C617.46,806.913,618.3,806.326,619.375,805.86Z" fill="#ffc400"/>
    <path id="패스_3954" data-name="패스 3954" d="M619.375,805.86c-1.079.466-1.915,1.053-1.2,2.412h0Q618.775,807.066,619.375,805.86Z" fill="#ffc400"/>
    <path id="패스_3955" data-name="패스 3955" d="M572.927,737.52c.172.542.569,1.056,1.14.778.646-.313.2-.9.018-1.364-.064-.162-.133-.323-.2-.485l-1.133.019A6.9,6.9,0,0,0,572.927,737.52Z" fill="#ffc400"/>
    <path id="패스_3956" data-name="패스 3956" d="M572.689,736.469h0Z" fill="#ffc400"/>
    <path id="패스_3957" data-name="패스 3957" d="M632.424,737.356a3.8,3.8,0,0,0-.643.486l.7.583c.453-.11.573-.376.315-.772C632.713,737.519,632.487,737.324,632.424,737.356Z" fill="#ffc400"/>
    <path id="패스_3958" data-name="패스 3958" d="M664.781,748.43c-1.972-.72-1.976-.684-2.361,1.223h0C662.93,748.709,664.1,749.045,664.781,748.43Z" fill="#ffc400"/>
    <path id="패스_3959" data-name="패스 3959" d="M664.781,748.43c-.679.615-1.851.279-2.361,1.223A2.577,2.577,0,0,0,664.781,748.43Z" fill="#ffc400"/>
    <path id="패스_3960" data-name="패스 3960" d="M664.819,738.817l-1.209,2.359C664.28,740.527,665.735,740.28,664.819,738.817Z" fill="#ffc400"/>
    <path id="패스_3961" data-name="패스 3961" d="M665.464,740.132a4.349,4.349,0,0,1-.178.425A.486.486,0,0,0,665.464,740.132Z" fill="#ffc400"/>
    <path id="패스_3962" data-name="패스 3962" d="M663.61,741.176h0a1.456,1.456,0,0,0,1.854-1.045,3.756,3.756,0,0,0-.645-1.315C665.735,740.28,664.28,740.527,663.61,741.176Z" fill="#ffc400"/>
    <path id="패스_3963" data-name="패스 3963" d="M630.575,743.548c-.005.446.346.568.74.317.132-.085.327-.311.295-.375a3.788,3.788,0,0,0-.486-.643C630.929,743.081,630.578,743.312,630.575,743.548Z" fill="#ffc400"/>
    <path id="패스_3964" data-name="패스 3964" d="M584.3,746.56c.116.1.225.268.35.28s.271-.128.407-.2Q584.742,746.08,584.3,746.56Z" fill="#ffc400"/>
    <path id="패스_3965" data-name="패스 3965" d="M577.56,736.3h0q-.609.095-1.219.193h0l-.074-.079c.73,1.417,1.5,1.368,2.3.075q-.505-.091-1.008-.19Z" fill="#ffc400"/>
    <path id="패스_3966" data-name="패스 3966" d="M567.882,735.641c-.006.1-.013.194-.023.291.08.212.159.423.238.635q.578-1.241,1.156-2.479C568.689,734.508,568.417,735.191,567.882,735.641Z" fill="#ffc400"/>
    <path id="패스_3967" data-name="패스 3967" d="M567.913,735.233h0c0,.137-.024.272-.031.408.535-.45.807-1.133,1.371-1.553v0Q568.582,734.658,567.913,735.233Z" fill="#ffc400"/>
    <path id="패스_3968" data-name="패스 3968" d="M567.829,736.316l.268.252h0c-.079-.212-.158-.423-.238-.635C567.846,736.06,567.85,736.189,567.829,736.316Z" fill="#ffc400"/>
    <path id="패스_3969" data-name="패스 3969" d="M560.737,759.119l.56.018.559-.031q.008-1.142.015-2.28h0a3.886,3.886,0,0,0-1.1-.009h0A1.54,1.54,0,0,1,560.737,759.119Z" fill="#ffc400"/>
    <path id="패스_3970" data-name="패스 3970" d="M560.773,756.816h0q-.018,1.151-.036,2.3A1.54,1.54,0,0,0,560.773,756.816Z" fill="#ffc400"/>
    <path id="패스_3971" data-name="패스 3971" d="M561.856,759.106c1.159-.753,1.132-1.514.015-2.281h0A1.406,1.406,0,0,1,561.856,759.106Z" fill="#ffc400"/>
    <path id="패스_3972" data-name="패스 3972" d="M561.871,756.826q-.006,1.14-.015,2.28A1.406,1.406,0,0,0,561.871,756.826Z" fill="#ffc400"/>
    <path id="패스_3973" data-name="패스 3973" d="M660.058,759.166c.646-.706,1.77-.45,2.4-1.191A2.9,2.9,0,0,0,660.058,759.166Z" fill="#ffc400"/>
    <path id="패스_3974" data-name="패스 3974" d="M662.457,757.975c-.629.741-1.753.485-2.4,1.191h0A2.941,2.941,0,0,0,662.457,757.975Z" fill="#ffc400"/>
    <path id="패스_3975" data-name="패스 3975" d="M578.826,759.26c.654.482,1.521.594,2.135,1.085-.053-.047-.093-.108-.148-.153a17.567,17.567,0,0,1-2.038-1.008l-.013,0Z" fill="#ffc400"/>
    <path id="패스_3976" data-name="패스 3976" d="M578.826,759.26l-.064-.078c-.023,0-.045-.007-.068-.008a2.834,2.834,0,0,0,2.286,1.19l-.019-.019C580.347,759.854,579.48,759.742,578.826,759.26Z" fill="#ffc400"/>
    <path id="패스_3977" data-name="패스 3977" d="M580.961,760.345l.019.019h0Z" fill="#ffc400"/>
    <path id="패스_3978" data-name="패스 3978" d="M580.961,760.345l.023.02c.025,0,.048.009.073.01l.023-.028a2.83,2.83,0,0,0-2.3-1.163,17.567,17.567,0,0,0,2.038,1.008C580.868,760.237,580.908,760.3,580.961,760.345Z" fill="#ffc400"/>
    <path id="패스_3979" data-name="패스 3979" d="M578.683,759.172h.01l-.006-.007Z" fill="#ffc400"/>
    <path id="패스_3980" data-name="패스 3980" d="M581.057,760.375l.023-.028h0l-.023.028Z" fill="#ffc400"/>
    <path id="패스_3981" data-name="패스 3981" d="M622.932,712.537c-.865-.011-1.366.4-1.04,1.251.239.621.787.486,1.223.065Q622.056,713.33,622.932,712.537Z" fill="#ffc400"/>
    <path id="패스_3982" data-name="패스 3982" d="M622.932,712.537q-.876.792.183,1.316h0Z" fill="#ffc400"/>
    <path id="패스_3983" data-name="패스 3983" d="M594.236,711.193c1.227-.745,1.414-1.5.025-2.277h0A1.494,1.494,0,0,1,594.236,711.193Z" fill="#ffc400"/>
    <path id="패스_3984" data-name="패스 3984" d="M594.261,708.916h0q-.013,1.138-.025,2.277A1.494,1.494,0,0,0,594.261,708.916Z" fill="#ffc400"/>
    <path id="패스_3985" data-name="패스 3985" d="M615.482,708.405a1.4,1.4,0,0,0,.454.141c.052,0,.1-.242.145-.374a1.388,1.388,0,0,0-.455-.141C615.574,708.032,615.53,708.273,615.482,708.405Z" fill="#ffc400"/>
    <path id="패스_3986" data-name="패스 3986" d="M614.332,702.411l.434.156c.046-.128.161-.334.123-.368a.64.64,0,0,0-.42-.15C614.418,702.051,614.377,702.284,614.332,702.411Z" fill="#ffc400"/>
    <path id="패스_3987" data-name="패스 3987" d="M601.454,769.125c-.114-.012-.242.118-.364.185l.3.276.368-.2C601.661,769.292,601.565,769.137,601.454,769.125Z" fill="#ffc400"/>
    <path id="패스_3988" data-name="패스 3988" d="M612.762,808.65c.1-.113.263-.221.274-.343s-.128-.263-.2-.4Q612.287,808.22,612.762,808.65Z" fill="#ffc400"/>
    <path id="패스_3989" data-name="패스 3989" d="M595.494,777.181l1.321-.652-1.315-.653Q596.574,776.531,595.494,777.181Z" fill="#ffc400"/>
    <path id="패스_3990" data-name="패스 3990" d="M595.494,777.181q1.082-.65.006-1.305h0Q595.495,776.527,595.494,777.181Z" fill="#ffc400"/>
    <path id="패스_3991" data-name="패스 3991" d="M619.375,805.86c-.778-1.076-1.581-1.1-2.412-.061A1.717,1.717,0,0,1,619.375,805.86Z" fill="#ffc400"/>
    <path id="패스_3992" data-name="패스 3992" d="M619.375,805.86a1.717,1.717,0,0,0-2.412-.061h0Z" fill="#ffc400"/>
    <path id="패스_3993" data-name="패스 3993" d="M619.51,803.111l.061-.463-.5.178Z" fill="#ffc400"/>
    <path id="패스_3994" data-name="패스 3994" d="M595.446,780.725c1.081-.8,1.042-1.6,0-2.409A1.652,1.652,0,0,1,595.446,780.725Z" fill="#ffc400"/>
    <path id="패스_3995" data-name="패스 3995" d="M595.446,780.725a1.652,1.652,0,0,0,0-2.409h0Q595.448,779.521,595.446,780.725Z" fill="#ffc400"/>
    <path id="패스_3996" data-name="패스 3996" d="M605.389,793.713a.523.523,0,0,0-.083.444c.238.381.485.33.6-.123.03-.118-.1-.276-.153-.415C605.628,793.647,605.443,793.635,605.389,793.713Z" fill="#ffc400"/>
    <path id="패스_3997" data-name="패스 3997" d="M622.78,777.255c-.031-.025-.058-.052-.087-.079h-.149c.033.054.061.11.095.164.018.014.039.02.056.034A.767.767,0,0,1,622.78,777.255Z" fill="#ffc400"/>
    <path id="패스_3998" data-name="패스 3998" d="M622.6,777.521a1.151,1.151,0,0,1,.09-.148c-.017-.014-.038-.02-.056-.034-.034-.054-.062-.11-.095-.164h-.172l-.555.009h0a1.156,1.156,0,0,0,1.059,1.054h0Q622.445,777.868,622.6,777.521Z" fill="#ffc400"/>
    <path id="패스_3999" data-name="패스 3999" d="M622.923,777.175a1.26,1.26,0,0,0-.282-.3l.282.3Z" fill="#ffc400"/>
    <path id="패스_4000" data-name="패스 4000" d="M622.78,777.255a.212.212,0,0,1,.134-.075l0,0-.223,0C622.722,777.2,622.749,777.23,622.78,777.255Z" fill="#ffc400"/>
    <path id="패스_4001" data-name="패스 4001" d="M622.7,777.373a1.836,1.836,0,0,0,.208.124c0-.056.006-.112.006-.168-.041-.027-.091-.044-.129-.074A.767.767,0,0,0,622.7,777.373Z" fill="#ffc400"/>
    <path id="패스_4002" data-name="패스 4002" d="M622.7,777.373a1.151,1.151,0,0,0-.09.148q-.16.347.27.716h0c.02-.246.022-.493.027-.74A1.836,1.836,0,0,1,622.7,777.373Z" fill="#ffc400"/>
    <path id="패스_4003" data-name="패스 4003" d="M622.78,777.255c.038.03.088.047.129.074,0-.05.006-.1.005-.149A.212.212,0,0,0,622.78,777.255Z" fill="#ffc400"/>
    <path id="패스_4004" data-name="패스 4004" d="M622.927,777.179h0Z" fill="#ffc400"/>
    <path id="패스_4005" data-name="패스 4005" d="M622.927,777.179l0,0h0Z" fill="#ffc400"/>
    <path id="패스_4006" data-name="패스 4006" d="M622.34,776.771c-.046-.077-.112-.142-.161-.218.045.083.095.162.142.243.011,0,.021-.01.031-.011A.08.08,0,0,1,622.34,776.771Z" fill="#ffc400"/>
    <path id="패스_4007" data-name="패스 4007" d="M622.179,776.553c.049.076.115.141.161.218a.08.08,0,0,0,.012.014.476.476,0,0,1,.289.094l-.8-.84c.079.114.162.222.239.339C622.108,776.439,622.146,776.494,622.179,776.553Z" fill="#ffc400"/>
    <path id="패스_4008" data-name="패스 4008" d="M621.751,775.949l.036.038v-.019l-.022-.031Z" fill="#ffc400"/>
    <path id="패스_4009" data-name="패스 4009" d="M621.787,775.968l0-.049-.02.018Z" fill="#ffc400"/>
    <path id="패스_4010" data-name="패스 4010" d="M622.321,776.8c-.047-.081-.1-.16-.142-.243a5.214,5.214,0,0,0-.391-.53q.015.58.029,1.16h0A.747.747,0,0,1,622.321,776.8Z" fill="#ffc400"/>
    <path id="패스_4011" data-name="패스 4011" d="M622.076,776.378c-.077-.117-.16-.225-.239-.339l-.05-.052v.036a5.214,5.214,0,0,1,.391.53C622.146,776.494,622.108,776.439,622.076,776.378Z" fill="#ffc400"/>
    <path id="패스_4012" data-name="패스 4012" d="M622.352,776.785c-.01,0-.02.01-.031.011.073.127.145.255.223.379h.149A1.941,1.941,0,0,1,622.352,776.785Z" fill="#ffc400"/>
    <path id="패스_4013" data-name="패스 4013" d="M622.352,776.785a1.941,1.941,0,0,0,.341.391l.223,0,.007,0-.282-.3A.476.476,0,0,0,622.352,776.785Z" fill="#ffc400"/>
    <path id="패스_4014" data-name="패스 4014" d="M622.544,777.175c-.078-.124-.15-.252-.223-.379a.747.747,0,0,0-.5.387l.555-.009Z" fill="#ffc400"/>
    <path id="패스_4015" data-name="패스 4015" d="M622.923,777.175l-.007,0h.01Z" fill="#ffc400"/>
    <path id="패스_4016" data-name="패스 4016" d="M621.574,775.4a3.08,3.08,0,0,1-.43-.238c.011-.008.332.367.335.37.054.072.1.148.156.221l.034.037C621.636,775.645,621.574,775.391,621.574,775.4Z" fill="#ffc400"/>
    <path id="패스_4017" data-name="패스 4017" d="M621.751,775.949l.014-.012-.016-.022Z" fill="#ffc400"/>
    <path id="패스_4018" data-name="패스 4018" d="M621.144,775.162a3.08,3.08,0,0,0,.43.238c0-.009.062.245.1.39l.079.087q-.025-.606-.052-1.213l-.525.012-.522-.013.986,1.09c-.053-.073-.1-.149-.156-.221C621.476,775.529,621.155,775.154,621.144,775.162Z" fill="#ffc400"/>
    <path id="패스_4019" data-name="패스 4019" d="M621.765,775.937l.02-.018-.037-.042v.038Z" fill="#ffc400"/>
    <path id="패스_4020" data-name="패스 4020" d="M600.287,809.394l.105.029.751.032.248-.06-1.14-1.147A.96.96,0,0,1,600.287,809.394Z" fill="#ffc400"/>
    <path id="패스_4021" data-name="패스 4021" d="M600.263,809.387l.024.007a.96.96,0,0,0-.036-1.146h0Q600.244,808.817,600.263,809.387Z" fill="#ffc400"/>
    <path id="패스_4022" data-name="패스 4022" d="M600.279,809.418l.113,0-.105-.029-.011.018Z" fill="#ffc400"/>
    <path id="패스_4023" data-name="패스 4023" d="M601.435,809.468Z" fill="#ffc400"/>
    <path id="패스_4024" data-name="패스 4024" d="M601.435,809.468l-.043-.073h0l-.248.06Z" fill="#ffc400"/>
    <path id="패스_4025" data-name="패스 4025" d="M600.287,809.394l-.024-.007.013.025Z" fill="#ffc400"/>
    <path id="패스_4026" data-name="패스 4026" d="M618.163,809.438l-1.189.026h0A.714.714,0,0,0,618.163,809.438Z" fill="#ffc400"/>
    <path id="패스_4027" data-name="패스 4027" d="M618.163,809.438a.714.714,0,0,1-1.189.027C617.383,810.015,617.78,810.016,618.163,809.438Z" fill="#ffc400"/>
    <path id="패스_4028" data-name="패스 4028" d="M621.766,773.536v0h0Z" fill="#ffc400"/>
    <path id="패스_4029" data-name="패스 4029" d="M621.7,774.664a3.731,3.731,0,0,0,.069-1.125,1.424,1.424,0,0,0-1.118,1.124h0A.593.593,0,0,1,621.7,774.664Z" fill="#ffc400"/>
    <path id="패스_4030" data-name="패스 4030" d="M621.7,774.664a.593.593,0,0,0-1.048,0h0l.522.013Z" fill="#ffc400"/>
    <path id="패스_4031" data-name="패스 4031" d="M613.063,811.2a.592.592,0,0,1,.026-.143c.1-.273.2-.409.3-.409a10.111,10.111,0,0,0-1.181.006h0A3.461,3.461,0,0,0,613.063,811.2Z" fill="#ffc400"/>
    <path id="패스_4032" data-name="패스 4032" d="M613.366,811.843a.777.777,0,0,1-.3-.642,3.461,3.461,0,0,1-.853-.545h0l1.155,1.187Z" fill="#ffc400"/>
    <path id="패스_4033" data-name="패스 4033" d="M613.089,811.058a.592.592,0,0,0-.026.143c.108.05.217.1.33.138l0-.69C613.29,810.649,613.19,810.785,613.089,811.058Z" fill="#ffc400"/>
    <path id="패스_4034" data-name="패스 4034" d="M613.393,811.339c-.113-.04-.222-.088-.33-.138a.777.777,0,0,0,.3.642c.008,0,.02,0,.028.007C613.394,811.68,613.394,811.51,613.393,811.339Z" fill="#ffc400"/>
    <path id="패스_4035" data-name="패스 4035" d="M620.28,694.92c.1-.284.2-.427.3-.427-.778.43-1,.856.007,1.276A.786.786,0,0,1,620.28,694.92Z" fill="#ffc400"/>
    <path id="패스_4036" data-name="패스 4036" d="M620.583,695.769h0v-.028l-.057-.053Z" fill="#ffc400"/>
    <path id="패스_4037" data-name="패스 4037" d="M620.583,695.741h0c-.019-.018-.039-.035-.057-.053Z" fill="#ffc400"/>
    <path id="패스_4038" data-name="패스 4038" d="M620.28,694.92a.786.786,0,0,0,.3.849h0l-.057-.081c.018.018.038.035.057.053q0-.624-.007-1.248C620.477,694.493,620.378,694.636,620.28,694.92Z" fill="#ffc400"/>
    <path id="패스_4039" data-name="패스 4039" d="M621.768,773.538h0l0,0,0,0,0,0Z" fill="#ffc400"/>
    <path id="패스_4040" data-name="패스 4040" d="M622.006,773.115c-.041-.011-.155.27-.236.419C622.28,773.367,622.365,773.205,622.006,773.115Z" fill="#ffc400"/>
    <path id="패스_4041" data-name="패스 4041" d="M621.769,773.538l0,0,0,0Z" fill="#ffc400"/>
    <path id="패스_4042" data-name="패스 4042" d="M596.658,696.924c.128-.119.379-.262.361-.353a2.015,2.015,0,0,0-.124-.378A.907.907,0,0,1,596.658,696.924Z" fill="#ffc400"/>
    <path id="패스_4043" data-name="패스 4043" d="M596.658,696.924a.907.907,0,0,0,.237-.731c-.067-.165-.141-.328-.209-.492Q596.671,696.313,596.658,696.924Z" fill="#ffc400"/>
    <path id="패스_4044" data-name="패스 4044" d="M590.655,761.572c-.394-.007-.788-.015-1.181-.021A.684.684,0,0,0,590.655,761.572Z" fill="#ffc400"/>
    <path id="패스_4045" data-name="패스 4045" d="M590.655,761.572a.684.684,0,0,1-1.181-.021h0C589.857,762.113,590.251,762.122,590.655,761.572Z" fill="#ffc400"/>
    <path id="패스_4046" data-name="패스 4046" d="M595.845,717.481l-.351-.254-.09.089C595.551,717.37,595.7,717.426,595.845,717.481Z" fill="#ffc400"/>
    <path id="패스_4047" data-name="패스 4047" d="M595.4,717.315l.089-.089-.089.089Z" fill="#ffc400"/>
    <path id="패스_4048" data-name="패스 4048" d="M587.567,752.724l.352-.125-.314-.2Z" fill="#ffc400"/>
    <path id="패스_4049" data-name="패스 4049" d="M585.768,734.081c.452.528.893.565,1.318-.032A.911.911,0,0,1,585.768,734.081Z" fill="#ffc400"/>
    <path id="패스_4050" data-name="패스 4050" d="M587.078,734.05v0l-1.31.033a.911.911,0,0,0,1.318-.032h-.008Z" fill="#ffc400"/>
    <path id="패스_4051" data-name="패스 4051" d="M587.087,734.048h-.007l0,0Z" fill="#ffc400"/>
    <path id="패스_4052" data-name="패스 4052" d="M587.078,734.05l0,0h0Z" fill="#ffc400"/>
    <path id="패스_4053" data-name="패스 4053" d="M587.086,734.049h0l-.009,0Z" fill="#ffc400"/>
    <path id="패스_4054" data-name="패스 4054" d="M556.323,752.084l0,0h0Z" fill="#ffc400"/>
    <path id="패스_4055" data-name="패스 4055" d="M556.323,752.084l.832-.91-.155-.512q-.581.6-1.164,1.2c.16.076.322.15.484.225Z" fill="#ffc400"/>
    <path id="패스_4056" data-name="패스 4056" d="M556.32,752.086c-.052.028-.1.059-.156.084l.044.041.113-.124Z" fill="#ffc400"/>
    <path id="패스_4057" data-name="패스 4057" d="M556.32,752.086c-.162-.075-.324-.149-.484-.225l.328.309C556.217,752.145,556.268,752.114,556.32,752.086Z" fill="#ffc400"/>
    <path id="패스_4058" data-name="패스 4058" d="M557.318,750.995l-.317-.334h0l.155.512Z" fill="#ffc400"/>
    <path id="패스_4059" data-name="패스 4059" d="M556.491,752.166l.077.036a16.025,16.025,0,0,1,1.386,1.5c-.257-.7-.393-1.466-.674-2.154A.881.881,0,0,1,556.491,752.166Z" fill="#ffc400"/>
    <path id="패스_4060" data-name="패스 4060" d="M558.988,755.17a3.083,3.083,0,0,1-1.034-1.467,16.025,16.025,0,0,0-1.386-1.5l-.077-.036a1.8,1.8,0,0,1-.283.045h0a7.624,7.624,0,0,0-.287,1.755c.157,2.317.869,2.69,3.071,1.608C558.985,755.44,558.984,755.306,558.988,755.17Z" fill="#ffc400"/>
    <path id="패스_4061" data-name="패스 4061" d="M559.332,755.41h0a2.549,2.549,0,0,1-.344-.239c0,.136,0,.27,0,.4.115-.057.216-.1.34-.164Z" fill="#ffc400"/>
    <path id="패스_4062" data-name="패스 4062" d="M557.294,751.461a.813.813,0,0,1-.014.088c.281.688.417,1.453.674,2.154a8.858,8.858,0,0,0,1.054,1.032c.178-2.169.22-3.194-.135-3.521a1.356,1.356,0,0,0-.213-.1A2.739,2.739,0,0,0,557.294,751.461Z" fill="#ffc400"/>
    <path id="패스_4063" data-name="패스 4063" d="M557.294,751.461a2.739,2.739,0,0,1,1.366-.351,2.658,2.658,0,0,0-1.342-.115h0A1.54,1.54,0,0,1,557.294,751.461Z" fill="#ffc400"/>
    <path id="패스_4064" data-name="패스 4064" d="M559.008,754.735c.12.1.227.207.358.3v0a22.56,22.56,0,0,0,.162-2.36,1.6,1.6,0,0,0-.656-1.459C559.228,751.541,559.186,752.566,559.008,754.735Z" fill="#ffc400"/>
    <path id="패스_4065" data-name="패스 4065" d="M559.008,754.735a8.858,8.858,0,0,1-1.054-1.032,3.083,3.083,0,0,0,1.034,1.467c0-.1,0-.2.01-.31C559,754.816,559,754.778,559.008,754.735Z" fill="#ffc400"/>
    <path id="패스_4066" data-name="패스 4066" d="M559.008,754.735c0,.043-.007.081-.01.125-.009.105-.008.207-.01.31a2.549,2.549,0,0,0,.344.239h0c.01-.126.024-.251.035-.377v0C559.235,754.942,559.128,754.833,559.008,754.735Z" fill="#ffc400"/>
    <path id="패스_4067" data-name="패스 4067" d="M556.491,752.166a.881.881,0,0,0,.789-.617c-.009-.023-.017-.047-.027-.071l-.169.072a3.719,3.719,0,0,1-.761.534l0,0Z" fill="#ffc400"/>
    <path id="패스_4068" data-name="패스 4068" d="M557.253,751.478c-.011-.026-.019-.053-.031-.079l-.067-.225-.832.91a3.719,3.719,0,0,0,.761-.534Z" fill="#ffc400"/>
    <path id="패스_4069" data-name="패스 4069" d="M556.491,752.166l-.17-.079-.113.124h0A1.8,1.8,0,0,0,556.491,752.166Z" fill="#ffc400"/>
    <path id="패스_4070" data-name="패스 4070" d="M557.253,751.478c.01.024.018.048.027.071a.813.813,0,0,0,.014-.088Z" fill="#ffc400"/>
    <path id="패스_4071" data-name="패스 4071" d="M557.253,751.478l.041-.017a1.54,1.54,0,0,0,.024-.465h0l-.163.179.067.225C557.234,751.425,557.242,751.452,557.253,751.478Z" fill="#ffc400"/>
    <path id="패스_4072" data-name="패스 4072" d="M578.568,736.487l.067.012-.059-.024Z" fill="#ffc400"/>
    <path id="패스_4073" data-name="패스 4073" d="M578.635,736.5l0-.007-.011,0Z" fill="#ffc400"/>
    <path id="패스_4074" data-name="패스 4074" d="M577.764,735.817a1.474,1.474,0,0,1,.785.569q-.1-.315-.193-.63a1.7,1.7,0,0,1,.073-.2c-.074.019-.149.029-.223.053C578.057,735.673,577.912,735.749,577.764,735.817Z" fill="#ffc400"/>
    <path id="패스_4075" data-name="패스 4075" d="M578.495,735.373a3.618,3.618,0,0,1,1.255-1.286h0l-2.138-.018q-.016.681-.033,1.363Q578.038,735.414,578.495,735.373Z" fill="#ffc400"/>
    <path id="패스_4076" data-name="패스 4076" d="M577.581,735.431c0,.113-.006.227-.008.341a1.438,1.438,0,0,1,.191.045c.148-.068.293-.144.442-.209.074-.024.149-.034.223-.053.02-.062.041-.124.066-.182Q578.039,735.415,577.581,735.431Z" fill="#ffc400"/>
    <path id="패스_4077" data-name="패스 4077" d="M578.429,735.555a1.7,1.7,0,0,0-.073.2q.1.315.193.63c.026.035.055.065.078.1l.012,0,.481-1.041A3.511,3.511,0,0,0,578.429,735.555Z" fill="#ffc400"/>
    <path id="패스_4078" data-name="패스 4078" d="M578.495,735.373c.23-.02.461-.042.691-.065l.566-1.221h0A3.618,3.618,0,0,0,578.495,735.373Z" fill="#ffc400"/>
    <path id="패스_4079" data-name="패스 4079" d="M578.429,735.555a3.511,3.511,0,0,1,.691-.1l.066-.143c-.23.023-.461.045-.691.065C578.47,735.431,578.449,735.493,578.429,735.555Z" fill="#ffc400"/>
    <path id="패스_4080" data-name="패스 4080" d="M578.549,736.386a1.474,1.474,0,0,0-.785-.569l-.2.092-.009.388h0q.5.1,1.008.19l.008-.012Z" fill="#ffc400"/>
    <path id="패스_4081" data-name="패스 4081" d="M578.576,736.475l.059.024-.008-.01Z" fill="#ffc400"/>
    <path id="패스_4082" data-name="패스 4082" d="M577.569,735.909l.2-.092a1.438,1.438,0,0,0-.191-.045C577.571,735.818,577.57,735.863,577.569,735.909Z" fill="#ffc400"/>
    <path id="패스_4083" data-name="패스 4083" d="M578.627,736.489c-.023-.038-.052-.068-.078-.1l.027.089Z" fill="#ffc400"/>
    <path id="패스_4084" data-name="패스 4084" d="M558.737,736.889c-.078-.055-.421.1-.418.12.133.713.756.5,1.208.623l.019-.023A8.447,8.447,0,0,0,558.737,736.889Z" fill="#ffc400"/>
    <path id="패스_4085" data-name="패스 4085" d="M559.546,737.609l-.019.023.019-.023Z" fill="#ffc400"/>
    <path id="패스_4086" data-name="패스 4086" d="M576.35,736.386c0,.036-.009.069-.01.105h0a1.718,1.718,0,0,1,.149-.147Z" fill="#ffc400"/>
    <path id="패스_4087" data-name="패스 4087" d="M577.614,734.068a2.243,2.243,0,0,0-1.09,1.343c.156.013.312.02.468.023A1.413,1.413,0,0,1,577.614,734.068Z" fill="#ffc400"/>
    <path id="패스_4088" data-name="패스 4088" d="M577.193,735.868a1.362,1.362,0,0,1-.2-.434c-.156,0-.312-.01-.468-.023a3.594,3.594,0,0,0-.174.975l.14-.042A1.639,1.639,0,0,1,577.193,735.868Z" fill="#ffc400"/>
    <path id="패스_4089" data-name="패스 4089" d="M577.56,736.3a2.653,2.653,0,0,1-.251-.264c-.124.06-.25.113-.372.176l-.447.135a1.718,1.718,0,0,0-.149.147q.609-.1,1.219-.193Z" fill="#ffc400"/>
    <path id="패스_4090" data-name="패스 4090" d="M576.49,736.344l.447-.135c.122-.063.248-.116.372-.176a2,2,0,0,1-.116-.165A1.639,1.639,0,0,0,576.49,736.344Z" fill="#ffc400"/>
    <path id="패스_4091" data-name="패스 4091" d="M576.992,735.434c.2.005.393,0,.589,0q.016-.683.033-1.363A1.413,1.413,0,0,0,576.992,735.434Z" fill="#ffc400"/>
    <path id="패스_4092" data-name="패스 4092" d="M577.573,735.772c0-.114.005-.228.008-.341-.2.007-.393.008-.589,0a1.362,1.362,0,0,0,.2.434,1.617,1.617,0,0,1,.306-.114C577.525,735.757,577.547,735.767,577.573,735.772Z" fill="#ffc400"/>
    <path id="패스_4093" data-name="패스 4093" d="M577.56,736.3l.009-.388c-.087.042-.174.081-.26.124A2.653,2.653,0,0,0,577.56,736.3Z" fill="#ffc400"/>
    <path id="패스_4094" data-name="패스 4094" d="M577.5,735.754a1.617,1.617,0,0,0-.306.114,2,2,0,0,0,.116.165c.086-.043.173-.082.26-.124,0-.046,0-.091,0-.137C577.547,735.767,577.525,735.757,577.5,735.754Z" fill="#ffc400"/>
    <path id="패스_4095" data-name="패스 4095" d="M573.9,735.228h0c.129-.1.374-.221.364-.309a1.894,1.894,0,0,0-.1-.405A.846.846,0,0,1,573.9,735.228Z" fill="#ffc400"/>
    <path id="패스_4096" data-name="패스 4096" d="M574.013,734.111h0Z" fill="#ffc400"/>
    <path id="패스_4097" data-name="패스 4097" d="M573.9,735.228a.846.846,0,0,0,.262-.714c-.048-.134-.1-.267-.148-.4h0a6.957,6.957,0,0,0-.114,1.116Z" fill="#ffc400"/>
    <path id="패스_4098" data-name="패스 4098" d="M567.09,735.148l-.412-.043c.083.071.173.132.259.2C566.987,735.251,567.039,735.2,567.09,735.148Z" fill="#ffc400"/>
    <path id="패스_4099" data-name="패스 4099" d="M567.531,735.712a.439.439,0,0,1,.043-.142c.118-.225.23-.337.339-.337h0l-.823-.085c-.051.052-.1.1-.153.156A6.377,6.377,0,0,0,567.531,735.712Z" fill="#ffc400"/>
    <path id="패스_4100" data-name="패스 4100" d="M567.536,735.859c-.109.052-.219.1-.33.143a1.387,1.387,0,0,0,.623.314h0A.838.838,0,0,1,567.536,735.859Z" fill="#ffc400"/>
    <path id="패스_4101" data-name="패스 4101" d="M566.8,735.445l.137-.141c-.086-.067-.176-.128-.259-.2h0A2.312,2.312,0,0,0,566.8,735.445Z" fill="#ffc400"/>
    <path id="패스_4102" data-name="패스 4102" d="M567.531,735.712a6.377,6.377,0,0,1-.594-.408l-.137.141a1.5,1.5,0,0,0,.406.557c.111-.043.221-.091.33-.143A.428.428,0,0,1,567.531,735.712Z" fill="#ffc400"/>
    <path id="패스_4103" data-name="패스 4103" d="M567.675,735.8c.059.033.113.072.173.1l.011.029c.01-.1.017-.194.023-.291a1.813,1.813,0,0,1-.145.131C567.717,735.783,567.7,735.788,567.675,735.8Z" fill="#ffc400"/>
    <path id="패스_4104" data-name="패스 4104" d="M567.574,735.57a.439.439,0,0,0-.043.142l.144.087c.02-.011.042-.016.062-.027a1.813,1.813,0,0,0,.145-.131c.007-.136.032-.271.031-.408C567.8,735.233,567.692,735.345,567.574,735.57Z" fill="#ffc400"/>
    <path id="패스_4105" data-name="패스 4105" d="M567.675,735.8c-.045.023-.093.038-.139.06a.838.838,0,0,0,.293.457h0c.021-.127.017-.256.03-.384l-.011-.029C567.788,735.871,567.734,735.832,567.675,735.8Z" fill="#ffc400"/>
    <path id="패스_4106" data-name="패스 4106" d="M567.536,735.859c.046-.022.094-.037.139-.06l-.144-.087A.428.428,0,0,0,567.536,735.859Z" fill="#ffc400"/>
    <path id="패스_4107" data-name="패스 4107" d="M573.42,735.978l0-.03c-.028.061-.061.12-.085.184a.817.817,0,0,1,.544.295l0,0,.029.026v-.027h-.029C573.722,736.273,573.572,736.124,573.42,735.978Z" fill="#ffc400"/>
    <path id="패스_4108" data-name="패스 4108" d="M573.884,736.449h.018c-.009-.01-.018-.012-.027-.022Z" fill="#ffc400"/>
    <path id="패스_4109" data-name="패스 4109" d="M572.73,736.427l-.041.042h0c.016-.018.032-.024.048-.04Z" fill="#ffc400"/>
    <path id="패스_4110" data-name="패스 4110" d="M572.69,736.469h.061l0-.037Z" fill="#ffc400"/>
    <path id="패스_4111" data-name="패스 4111" d="M573.9,735.223a2.732,2.732,0,0,0-.276.353,2.556,2.556,0,0,0,.277.036v-.384h0Z" fill="#ffc400"/>
    <path id="패스_4112" data-name="패스 4112" d="M573.623,735.576a2.7,2.7,0,0,0-.207.372l0,.03c.152.146.3.295.453.445h.029l0-.81A2.556,2.556,0,0,1,573.623,735.576Z" fill="#ffc400"/>
    <path id="패스_4113" data-name="패스 4113" d="M573.331,736.132c.024-.064.057-.123.085-.184-.007-.068-.017-.135-.024-.2l-.662.682.007,0A.793.793,0,0,1,573.331,736.132Z" fill="#ffc400"/>
    <path id="패스_4114" data-name="패스 4114" d="M573.9,735.228v0Z" fill="#ffc400"/>
    <path id="패스_4115" data-name="패스 4115" d="M573.571,735.561c.017.005.034.011.052.015a2.732,2.732,0,0,1,.276-.353Z" fill="#ffc400"/>
    <path id="패스_4116" data-name="패스 4116" d="M573.392,735.745c.007.068.017.135.024.2a2.7,2.7,0,0,1,.207-.372c-.018,0-.035-.01-.052-.015Z" fill="#ffc400"/>
    <path id="패스_4117" data-name="패스 4117" d="M573.331,736.132c-.011.029-.029.054-.039.083l-.545.216-.01,0c-.016.016-.032.022-.048.04h0l.057-.038,0,.037,1.133-.019-.009-.022A.817.817,0,0,0,573.331,736.132Z" fill="#ffc400"/>
    <path id="패스_4118" data-name="패스 4118" d="M573.875,736.427c.009.01.018.012.027.022l-.029-.026Z" fill="#ffc400"/>
    <path id="패스_4119" data-name="패스 4119" d="M572.737,736.429l.01,0,.545-.216c.01-.029.028-.054.039-.083A.793.793,0,0,0,572.737,736.429Z" fill="#ffc400"/>
    <path id="패스_4120" data-name="패스 4120" d="M573.9,735.228Z" fill="#ffc400"/>
    <path id="패스_4121" data-name="패스 4121" d="M573.9,735.228Z" fill="#ffc400"/>
    <path id="패스_4122" data-name="패스 4122" d="M610.979,682.586c-1.559-1.536-3.163-1.511-4.806-.142C607.8,681.536,609.383,682.313,610.979,682.586Z" fill="#ffc400"/>
    <path id="패스_4123" data-name="패스 4123" d="M610.979,682.586c-1.6-.273-3.176-1.05-4.806-.142l0,0C607.768,682.645,609.346,683.573,610.979,682.586Z" fill="#ffc400"/>
    <path id="패스_4124" data-name="패스 4124" d="M614.6,683.7l.009-.011h0c-.33-.48-.663-.6-1.006.037h0A.615.615,0,0,1,614.6,683.7Z" fill="#ffc400"/>
    <path id="패스_4125" data-name="패스 4125" d="M614.594,683.739h.049c-.013-.014-.027-.019-.04-.032Z" fill="#ffc400"/>
    <path id="패스_4126" data-name="패스 4126" d="M614.607,683.692l-.009.011.005.005Z" fill="#ffc400"/>
    <path id="패스_4127" data-name="패스 4127" d="M614.643,683.74c-.011-.018-.023-.031-.034-.048h0Z" fill="#ffc400"/>
    <path id="패스_4128" data-name="패스 4128" d="M614.57,683.738l.028-.035a.615.615,0,0,0-.994.026h0l.519,0Z" fill="#ffc400"/>
    <path id="패스_4129" data-name="패스 4129" d="M614.6,683.708l-.005-.005-.028.035h.024Z" fill="#ffc400"/>
    <path id="패스_4130" data-name="패스 4130" d="M614.643,683.74l-.036-.048,0,.016C614.616,683.721,614.63,683.726,614.643,683.74Z" fill="#ffc400"/>
    <path id="패스_4131" data-name="패스 4131" d="M648.263,761.707Z" fill="#ffc400"/>
    <path id="패스_4132" data-name="패스 4132" d="M647.427,760.915c-.083-.064-.3.048-.457.079l1.291.712h0A9.744,9.744,0,0,0,647.427,760.915Z" fill="#ffc400"/>
    <path id="패스_4133" data-name="패스 4133" d="M620.228,808.791l.153-.234c-.015-.008-.031-.013-.046-.022a.662.662,0,0,0-.11.247Z" fill="#ffc400"/>
    <path id="패스_4134" data-name="패스 4134" d="M620.335,808.535c.015.009.031.014.046.022l.139-.212v-.016h0A1.3,1.3,0,0,0,620.335,808.535Z" fill="#ffc400"/>
    <path id="패스_4135" data-name="패스 4135" d="M620.228,808.791a7.348,7.348,0,0,0,.34.652h.012q-.024-.41-.045-.821c-.051-.023-.1-.039-.154-.065Z" fill="#ffc400"/>
    <path id="패스_4136" data-name="패스 4136" d="M620.535,808.622c0-.092-.011-.184-.015-.277l-.139.212C620.431,808.583,620.484,808.6,620.535,808.622Z" fill="#ffc400"/>
    <path id="패스_4137" data-name="패스 4137" d="M620.582,809.466l0-.023h-.012Z" fill="#ffc400"/>
    <path id="패스_4138" data-name="패스 4138" d="M620.171,808.665a1.245,1.245,0,0,0,.054.117.662.662,0,0,1,.11-.247c-.014-.007-.026-.017-.04-.024C620.219,808.574,620.159,808.631,620.171,808.665Z" fill="#ffc400"/>
    <path id="패스_4139" data-name="패스 4139" d="M620.295,808.511c.014.007.026.017.04.024a1.3,1.3,0,0,1,.184-.2h0C620.459,808.385,620.369,808.451,620.295,808.511Z" fill="#ffc400"/>
    <path id="패스_4140" data-name="패스 4140" d="M600.764,809.7c.013.056.026.108.037.157a.492.492,0,0,0,.049.012l.037-.155A.728.728,0,0,1,600.764,809.7Z" fill="#ffc400"/>
    <path id="패스_4141" data-name="패스 4141" d="M601.435,809.468Z" fill="#ffc400"/>
    <path id="패스_4142" data-name="패스 4142" d="M600.85,809.866a.81.81,0,0,0,.585-.4.9.9,0,0,1-.548.243Z" fill="#ffc400"/>
    <path id="패스_4143" data-name="패스 4143" d="M600.279,809.418a.77.77,0,0,0,.522.436c-.011-.049-.024-.1-.037-.157A.854.854,0,0,1,600.279,809.418Z" fill="#ffc400"/>
    <path id="패스_4144" data-name="패스 4144" d="M600.764,809.7a.728.728,0,0,0,.123.014l.048-.2s.1-.026.208-.052l-.751-.032c.135.037.327.09.327.088Z" fill="#ffc400"/>
    <path id="패스_4145" data-name="패스 4145" d="M600.764,809.7l-.045-.186s-.192-.051-.327-.088l-.113,0A.854.854,0,0,0,600.764,809.7Z" fill="#ffc400"/>
    <path id="패스_4146" data-name="패스 4146" d="M600.887,809.711a.9.9,0,0,0,.548-.243h0l-.292-.013c-.106.026-.208.051-.208.052Z" fill="#ffc400"/>
    <path id="패스_4147" data-name="패스 4147" d="M618.114,812.993c.015-.381.026-.763.033-1.144h0a.782.782,0,0,0-.293.506C617.924,812.571,618.025,812.781,618.114,812.993Z" fill="#ffc400"/>
    <path id="패스_4148" data-name="패스 4148" d="M617.795,812.181a1.576,1.576,0,0,0,.059.175.782.782,0,0,1,.293-.506C618.022,811.962,617.778,812.1,617.795,812.181Z" fill="#ffc400"/>
    <path id="패스_4149" data-name="패스 4149" d="M613.663,812.062c-.027,0-.054.006-.081.007q.5.513.992,1.026C614.565,812.466,614.072,812.3,613.663,812.062Z" fill="#ffc400"/>
    <path id="패스_4150" data-name="패스 4150" d="M613.365,811.843h0l.006,0Z" fill="#ffc400"/>
    <path id="패스_4151" data-name="패스 4151" d="M613.394,811.868v.005l0,0,0,0-.032-.032.219.227c.027,0,.054,0,.081-.007A1.547,1.547,0,0,1,613.394,811.868Z" fill="#ffc400"/>
    <path id="패스_4152" data-name="패스 4152" d="M614.816,812.4a.355.355,0,0,0-.258-.432c-.037.007-.073.017-.11.023A3.086,3.086,0,0,1,614.816,812.4Z" fill="#ffc400"/>
    <path id="패스_4153" data-name="패스 4153" d="M614.558,811.968a.967.967,0,0,0-.162-.033c.018.018.034.038.052.056C614.485,811.985,614.521,811.975,614.558,811.968Z" fill="#ffc400"/>
    <path id="패스_4154" data-name="패스 4154" d="M614.816,812.4a3.086,3.086,0,0,0-.368-.409,7.838,7.838,0,0,1-.785.071c.409.242.9.4.911,1.033h0A1.876,1.876,0,0,0,614.816,812.4Z" fill="#ffc400"/>
    <path id="패스_4155" data-name="패스 4155" d="M613.394,811.868a1.547,1.547,0,0,0,.269.194,7.838,7.838,0,0,0,.785-.071c-.018-.018-.034-.038-.052-.056a4.785,4.785,0,0,1-1-.085Z" fill="#ffc400"/>
    <path id="패스_4156" data-name="패스 4156" d="M613.391,811.87l-.022-.023-.006-.005.032.032Z" fill="#ffc400"/>
    <path id="패스_4157" data-name="패스 4157" d="M613.391,811.87l0,0v-.005c-.006-.006-.015-.011-.021-.018Z" fill="#ffc400"/>
    <path id="패스_4158" data-name="패스 4158" d="M613.373,811.85l-.007-.007h0l0,0Z" fill="#ffc400"/>
    <path id="패스_4159" data-name="패스 4159" d="M613.394,811.868v-.018c-.008,0-.02,0-.028-.007l.007.007C613.379,811.857,613.388,811.862,613.394,811.868Z" fill="#ffc400"/>
    <path id="패스_4160" data-name="패스 4160" d="M613.369,811.847l.022.023-.018-.02Z" fill="#ffc400"/>
    <path id="패스_4161" data-name="패스 4161" d="M609.065,809.842l.091-.116a.727.727,0,0,1-.111-.029Z" fill="#ffc400"/>
    <path id="패스_4162" data-name="패스 4162" d="M609.156,809.726l-.091.116-.02-.145a.937.937,0,0,1-.42-.23c.348.629.715.679,1.107.037h0A.8.8,0,0,1,609.156,809.726Z" fill="#ffc400"/>
    <path id="패스_4163" data-name="패스 4163" d="M609.156,809.726l.182-.235c-.108-.005-.215-.009-.323-.011l.03.217A.727.727,0,0,0,609.156,809.726Z" fill="#ffc400"/>
    <path id="패스_4164" data-name="패스 4164" d="M609.015,809.48c-.13,0-.26-.014-.39-.013a.937.937,0,0,0,.42.23Z" fill="#ffc400"/>
    <path id="패스_4165" data-name="패스 4165" d="M609.156,809.726a.8.8,0,0,0,.575-.222h0c-.131-.01-.263-.007-.394-.013Z" fill="#ffc400"/>
  </g>
</svg>
