<svg xmlns="http://www.w3.org/2000/svg" width="137.001" height="142.535" viewBox="0 0 137.001 142.535">
  <path id="합치기_14" data-name="합치기 14" d="M-3963.466,141.109c-.06-2.04-.409-2.566-2.442-2.08a3.43,3.43,0,0,1-3.715-1.017c-1.236-1.3-2.528-2.542-3.721-3.878-5.933-6.65-11.871-13.3-17.744-20-2.614-2.983-5.643-5.625-7.544-9.212a8.758,8.758,0,0,0-1.973-2.193c-6.68-6.045-11.931-13.311-17.444-20.353-4.159-2.311-6.763-5.913-8.494-10.24,1.8,2.089,3.592,4.19,5.413,6.263l.049.055-.049-.055c-1.821-2.073-3.611-4.174-5.413-6.263-4.491-3.979-8.5-8.333-10.853-13.973h0c.753-1.047,1.307-2.38,2.307-3.069,1.346-.93,1.178-2.2,1.467-3.419a4.454,4.454,0,0,1,.949-.606,2.93,2.93,0,0,0,2.6-.545,10.8,10.8,0,0,1,5.8,3.657c7.77,8.8,14.877,18.1,22.014,27.4a27.7,27.7,0,0,0,4.223,4.9,28.7,28.7,0,0,1,4.926,5.968,68.61,68.61,0,0,0,7.469,9.208c1.986,2.012,1.931,2.077.165,5.294a1.734,1.734,0,0,0,.159,2.169,1.654,1.654,0,0,0,2.138.331c.175-.08.3-.26.474-.36,2.168-1.243,2.213-1.278,3.655.429a88.645,88.645,0,0,1,5.611,6.968,28.429,28.429,0,0,0,4.8,5.233,26.454,26.454,0,0,1,3.736,3.821c2.977,3.974,5.835,8.038,8.682,12.107a8.347,8.347,0,0,1,1.228,2.68,3.975,3.975,0,0,1-2.978,5.022,7.621,7.621,0,0,1-2.088.34C-3962.267,145.7-3963.374,144.192-3963.466,141.109Zm-8.682-17.625c.023-.17.046-.338.069-.508a5.432,5.432,0,0,1,.825.438.08.08,0,0,1,.021.066.08.08,0,0,0-.021-.066,5.432,5.432,0,0,0-.825-.438C-3972.1,123.146-3972.124,123.314-3972.147,123.484ZM-4016,79.124a1.227,1.227,0,0,1,.12.528,1.227,1.227,0,0,0-.12-.528c-.188-.4-.416-.546-.66-.559C-4016.417,78.578-4016.188,78.726-4016,79.124Zm-3.129.278h0Zm-.1,0a2.486,2.486,0,0,1-1.737-.828A2.486,2.486,0,0,0-4019.229,79.4Zm1.058-.2.052-.02Zm.052-.021.006,0Zm.161-.07-.1.044.1-.044.064-.031Zm.109-.054h0Zm.448-.251.005,0Zm.664-.238h0Zm82.2,32.468a5.445,5.445,0,0,1-4.594-3.236c.391-.012.784-.007,1.174-.038,4.137-.335,5.181-.644,5.213-1.529,0,0,0-.005,0-.008s0,.006,0,.008c-.032.885-1.076,1.194-5.213,1.529-.39.031-.783.026-1.174.038-4.122-2.635-6.62-6.855-9.953-10.258-5.567-5.682-10.947-11.546-16.4-17.336a7.178,7.178,0,0,1-.8-.885c-4.193-6.352-10.3-10.954-15.236-16.632-4.812-5.536-9.794-10.927-14.772-16.315-2.291-2.479-4.764-4.791-7.131-7.2a39.928,39.928,0,0,1-3.552-4.769c-1.49-2.053-.965-3.725.195-5.445,2.523-3.745,5.206-4.355,9.2-2.063a18.292,18.292,0,0,1,6.052,4.812c4.781,6.679,11,12.062,16.226,18.329q11.654,13.969,23.346,27.907c.764.915,1.4,1.939,2.093,2.913,2.3,1.074,3,3.531,4.456,5.311,4.475,5.47,8.641,11.19,13.012,16.745a6.97,6.97,0,0,1,1.61,4.291c.091,2.611-.876,3.853-3.2,3.853Q-3934.245,111.055-3934.533,111.033Zm-.5-1.871h0Zm-.085,0a9.171,9.171,0,0,1-3.429-1.1A9.166,9.166,0,0,0-3935.123,109.162Zm-3.5-1.138-.084-.038Zm-.229-.1-.075-.034Zm-.131-.059-.067-.03Zm6.66-.245.024-.032Zm-3.289-7.539c.417.622,1.251.982,1.544,1.76.545,1.449,2.385,2.572,2.378,4.154.008-1.581-1.833-2.7-2.378-4.154-.293-.778-1.127-1.138-1.544-1.76-4.45-6.631-10.689-11.935-14.247-19.221C-3946.3,88.141-3940.065,93.445-3935.615,100.076Zm-24.1-22.946h0Zm.069-.013a.1.1,0,0,0,.027-.016A.1.1,0,0,1-3959.645,77.117Zm-.221,0a.582.582,0,0,1-.255-.119A.582.582,0,0,0-3959.866,77.114Zm-.189-4.068a22.132,22.132,0,0,1,1.076,3.285.136.136,0,0,1,0,.039.136.136,0,0,0,0-.039,22.132,22.132,0,0,0-1.076-3.285,1,1,0,0,0-.843-.642A1,1,0,0,1-3960.055,73.045Zm-1.417-.4a2.022,2.022,0,0,0-.543,1.272,2.022,2.022,0,0,1,.543-1.272Zm.5-.244.053,0h0Zm-13.247-9.541a.949.949,0,0,1-.285.06A.95.95,0,0,0-3974.215,62.865Zm-.384.045a.2.2,0,0,1-.034-.016A.2.2,0,0,0-3974.6,62.91Zm.887-.223c-.083-.318-.167-.634-.25-.95l-.954.253.954-.253C-3973.879,62.053-3973.795,62.369-3973.712,62.687Zm64.473,28.592a6.146,6.146,0,0,1-.432-1.5,6.146,6.146,0,0,0,.432,1.5,3.2,3.2,0,0,1-2.507-1.324q-3.724-4.56-7.424-9.141c-3.279-3.977-6.622-7.9-9.8-11.955-1.3-1.652-3.2-3.029-3.065-5.549.056-.982-.91-1.066-1.612-1.388a13.512,13.512,0,0,1-6.43-5.9,30.2,30.2,0,0,0-5.141-6.458q-4.105-4.285-8.027-8.742a42.164,42.164,0,0,0-5-5.062,14.009,14.009,0,0,1-5.1-7.094q-.667-.865-1.332-1.731a15.3,15.3,0,0,1,1.937-.951,15.3,15.3,0,0,0-1.937.951,3.226,3.226,0,0,1-3.2-1.044c-2.159-2.284-4.294-4.593-6.431-6.9-2.8-3.026-4.36-6.506-3.865-10.722A2.3,2.3,0,0,1-3977,5.846c0,.014,0,.028,0,.042,0-.014,0-.028,0-.042.22.282.441.565.662.847a3.738,3.738,0,0,1-.345.241,3.738,3.738,0,0,0,.345-.241l.792,1.014h0l-.792-1.014a1.82,1.82,0,0,0,.458-.492l.066-.067-.066.067a1.82,1.82,0,0,1-.458.492c-.221-.282-.442-.565-.662-.847l.012.006v0l.012-.037-.012.037c.075-1.257.621-1.838,1.921-1.335a2.125,2.125,0,0,0-.423-.046,2.129,2.129,0,0,1,.423.046c2.67-.762,4.971-.292,6.721,2.018,3.237,1.556,5.524,3.7,5.263,7.714a2.284,2.284,0,0,0,1.792,2.174c5.233,1.166,8.3,5.239,11.731,8.733,4.024,4.094,7.784,8.438,11.78,12.572,4.239,4.385,7.805,9.42,11.658,14.176a11.051,11.051,0,0,0,.652.993c1.173,1.157-1.054,2.9.527,3.756,1.178.635,2.532.766,3.473,2.006,4.428,5.833,9.332,11.3,13.371,17.433q2.617,3.978,5.2,7.98c2.187,3.381,1.514,5.869-1.928,7.851a3.026,3.026,0,0,1-1.535.444A6.385,6.385,0,0,1-3909.238,91.279Zm-5.458-7.765c.659,2.358,2.027,4.079,4.832,4.336.452.041.592.226.591.476,0-.25-.139-.435-.591-.476-2.806-.256-4.174-1.978-4.832-4.336a3.378,3.378,0,0,0-3.694-2.724A3.378,3.378,0,0,1-3914.7,83.514Zm-3.778-2.724h0Zm-.233-11.44a.988.988,0,0,0-.5.88.988.988,0,0,1,.5-.88Zm.86.41c.005.055.008.111.008.167,0-.056,0-.111-.008-.167s-.054-.1-.13-.161C-3917.9,69.657-3917.851,69.714-3917.847,69.76Zm-.647-.409-.022-.005Zm-.137-.018h0Zm-14.334-14.4a.679.679,0,0,1,.155.42.679.679,0,0,0-.155-.42.026.026,0,0,0-.02-.008A.026.026,0,0,1-3932.965,54.931Zm-.377.125.026-.01Zm.122-.05c.058-.025.117-.051.164-.067C-3933.1,54.954-3933.162,54.981-3933.22,55.006Zm.206-.079.026,0h0Zm-30.336-26.265Zm.085-.263.006-.021Zm.028-.11c.217-.915-.188-1.351-1.139-1.367C-3963.425,26.938-3963.02,27.375-3963.237,28.289Zm-1.445-1.358.042,0Zm.249-.009h0Zm2.647-.63a.761.761,0,0,1,.229.516.761.761,0,0,0-.229-.516,1.252,1.252,0,0,0-.732-.334A1.252,1.252,0,0,1-3961.787,26.293Zm-.809-.336h0Zm-15.583-17.689c.265-.7.917-.978,1.5-1.332C-3977.261,7.289-3977.913,7.564-3978.178,8.267Zm2.645-.572.035-.04Zm.064-.073c.051-.059.1-.121.154-.182C-3975.366,7.5-3975.417,7.563-3975.469,7.622Zm4.7-.086h0Zm-.093,0a4.415,4.415,0,0,1-2.33-.841A4.414,4.414,0,0,0-3970.858,7.535Zm-2.33-.841-.033-.021Zm4.079-.035h0Zm-.068,0a5.474,5.474,0,0,1-2.107-.635A5.474,5.474,0,0,0-3969.177,6.659Zm-4.112-.027a1.264,1.264,0,0,0-.614-.2A1.265,1.265,0,0,1-3973.289,6.632Zm4.868-.073.023-.007Zm.078-.025Zm-5.6-.1h0Zm2.6-.44-.041-.019Zm-.131-.061.037.017-.037-.017-.078-.037Zm-.319-.148-.107-.048Zm-.2-.088a4.741,4.741,0,0,0-1.781-.489A4.741,4.741,0,0,1-3971.989,5.7Zm-1.869-.489h0Zm-1.668-.741h0Z" transform="translate(4038.145 -3.661)" fill="#3a7097" stroke="rgba(0,0,0,0)" stroke-miterlimit="10" stroke-width="1"/>
</svg>
