<svg xmlns="http://www.w3.org/2000/svg" width="122.137" height="125.688" viewBox="0 0 122.137 125.688">
  <path id="패스_569" data-name="패스 569" d="M1.254,85.356C.923,86.373-.619,87.135.276,88.37c.788,1.087,2.273,1.206,3.5,1.634a5.616,5.616,0,0,0,.971.165h0c.9.374,1.005,1.192,1.115,2.006h0q.444,0,.888.016h0c1.661.039,1.674-2.145,3.323-2.358,1.337-.173,1.6-1.918,2.657-2.664h0l1.019-1.047h0c.043-1.137.054-2.276.157-3.407a.9.9,0,0,1,.615-.578,1.232,1.232,0,0,1,.871.273c1.81,1.457,1.309,3.109.354,4.784q.023.49.058.978h0c1.087,1.256,2.725,2.095,2.995,3.968,3.135,1.416,4.628,4.208,5.969,7.127,1.643,1.157,3.529.765,5.33.792,6.491.1,12.985.04,19.472.249a42.1,42.1,0,0,0,10.42-.722c4.052-.878,8.164-1.829,12.335-1.653a53.21,53.21,0,0,0,12.893-.927,11.529,11.529,0,0,0,9.2-13.311,35.082,35.082,0,0,0-2.333-7.59,117.13,117.13,0,0,0-5.368-10.557c-.714-1.25-.9-2.72-2.4-3.464a1.288,1.288,0,0,1-.359-1.778,1.626,1.626,0,0,0-.255-2.229,6.1,6.1,0,0,1-1.81-2.914c-2.2-6.781-5.258-13.256-7.088-20.178a23.524,23.524,0,0,0-2.469-5.434,10.163,10.163,0,0,1-1.01-2.074c-2.082-6.636-3.427-13.51-6.29-19.9a6.227,6.227,0,0,1-.27-1.472h0L62.894,4.982c-1.62-.495-2.683-1.869-4.12-2.626-1.523-.8-3.234.614-4.813-.218h0q-.551.417-1.1.832l0,.052-.036.005a2.825,2.825,0,0,1-.226.866,1.118,1.118,0,0,1-.677.5c-.146.022-.516-.365-.489-.512a1.112,1.112,0,0,1,.523-.656,2.879,2.879,0,0,1,.869-.2c0-.01,0-.022.006-.032h0l.033-.025.051-1.044h0a3.285,3.285,0,0,1-.1-.93h0L51.894,0h0A2.037,2.037,0,0,0,49.88,1.835a3.238,3.238,0,0,1-1.034,2.191c-.354.457-.686.454-.992-.049h0c0-.321,0-.643.011-.964h0L45.921,2.1l-1.066.858c-.573.343-.132-.439-.525.074-.2.259-.643.559-.352.728.549.318,1.323.25,1.865.576A2.894,2.894,0,0,1,47.213,8.1c-.212.588-.549,1.385-1.377,1.088-2.865-1.028-4.949-.248-6.808,2.19-.681.893-2.318,1.059-3.519,1.556h0c-2.322,2.226-3.538,5.176-5.11,7.885-3.065,5.284-5.946,10.677-9.1,15.908-3.512,5.831-6.683,11.791-8.534,18.381.707,1.055,2.12.881,2.947,1.687a1.826,1.826,0,0,1,.609,1.216c-.045.562-.71.49-1.159.614-.475.131-.932.326-1.4.493l-.468.008-.466-.04c-.824.164-1.607.424-1.906,1.313-.414,1.234-.778,2.485-1.163,3.73h0v0c.935.4,1.314,2.2,2.826,1.127.385-.272.928-.725,1.2-.252.37.641-.141,1.321-.7,1.645-1.755,1.015-2.761.238-3.315-2.475l-.036-.049L7.7,64.064c.037.457.068.915.112,1.37.234,2.4.236,2.4-2.291,3.631h0A42.771,42.771,0,0,0,.676,80.026c.2,1.293.408,2.585.576,3.881A3.437,3.437,0,0,1,1.254,85.356ZM57.7,10.516c.172-.073.479.172.727.276-.116.249-.175.625-.364.711-.167.074-.48-.177-.727-.285C57.446,10.97,57.508,10.6,57.7,10.516Zm-6.672,85.93c.02-.122.231-.326.308-.306.548.137.708.6.82,1.089-.019.39-.249.6-.6.446A1.029,1.029,0,0,1,51.024,96.446Zm-6.37-4.518a5.523,5.523,0,0,1,.453.66c.02.039-.23.3-.272.278a5.223,5.223,0,0,1-.672-.427Zm-2.361,2.025c.537-.137.888.212,1.038.742-.176.246-.3.625-.544.719-.589.23-.93-.163-.946-.7A.937.937,0,0,1,42.292,93.952ZM39.954,31.561c.086-.5.472-.885.963-.542a1.591,1.591,0,0,1,.554,2.078c-.094.209-.5.276-.777.413C39.76,33.126,39.822,32.33,39.954,31.561ZM35.4,60.87a1.038,1.038,0,0,1,.119.359c-.108.028-.283.111-.311.076a1.027,1.027,0,0,1-.119-.358C35.2,60.917,35.375,60.834,35.4,60.87ZM20.392,80.49a6.982,6.982,0,0,1-.608.673,3.139,3.139,0,0,1-.236.888,1.116,1.116,0,0,1-.664.5c-.145.025-.52-.35-.495-.495a1.118,1.118,0,0,1,.5-.665,3.137,3.137,0,0,1,.888-.235c.095-.381-.086-.9.508-1.019C20.3,80.139,20.438,80.427,20.392,80.49Zm-2.912-5.619a1.082,1.082,0,0,1,.771-.521,8.8,8.8,0,0,1,1.964.033c1.057.136,1.444-.452,1.7-1.335.547-1.878-.11-3.975,1.141-5.747.407-.575-.06-1.247-.454-1.805-.643-.911-1.874-1.4-1.973-2.719,1.225-.67,1.692.677,2.557.943.79.244,1.582.492,2.349.8a1.807,1.807,0,0,0,2.246-.358h0l-.045-1.035h0c-.415-.105-1.029-.044-.855-.73.038-.151.56-.208.867-.257a8.6,8.6,0,0,1,.953-.052c.294-.363.649-.768,1.128-.529s.288.758.2,1.189c-.092.449-.166.9-.248,1.353-.7.92-1.432,1.815-2.075,2.771-.259.385-.583,1.169-.429,1.323,2.144,2.139-.413,2.391-1.278,3.307a2.946,2.946,0,0,0-1.029,2.666c.252,1.19-.2,1.695-1.285,2.233-3.062,1.524-3.219,1.6-6-.665A.936.936,0,0,1,17.481,74.871Zm-2.629,3.343c.57-.341.886.066,1.074.547.2.509.147,1.074-.434,1.2a31.492,31.492,0,0,1-3.535.253C13.539,79.111,14.17,78.62,14.852,78.214ZM6.275,87.047l.422.739-.486.69c-.142-.248-.4-.5-.393-.741S6.112,87.276,6.275,87.047Z" transform="matrix(-0.946, -0.326, 0.326, -0.946, 89.467, 125.688)" fill="#7200ff"/>
</svg>
