<svg xmlns="http://www.w3.org/2000/svg" width="179.409" height="169.813" viewBox="0 0 179.409 169.813">
  <g id="그룹_1347" data-name="그룹 1347" transform="translate(-1539 -2347.408)">
    <path id="패스_1779" data-name="패스 1779" d="M10.85,127.582c3.464-5.821,4.673-12.252,4.968-18.892a35.989,35.989,0,0,1,1.227-8.814c1.41-4.738,1.547-9.627,1.5-14.529-.028-2.974.383-5.93.571-8.878a30.405,30.405,0,0,1,4.99-14.305c3.022-4.854,5.45-10.121,9.471-14.318l0,0a6.669,6.669,0,0,1,4.168-4.855l.077-.071h0a4.658,4.658,0,0,1,3.532-2.941c4.218-3.551,8.14-7.563,12.736-10.531,5.13-3.313,10.654-6.113,17.163-6.17,4.013-.034,7.975-1.036,12.05-1.038,7.779,0,15.266.91,22.134,4.928a14.179,14.179,0,0,0,4.157,1.563,12.738,12.738,0,0,1,8.21,5.648c2.954,4.454,6.5,8.414,9.823,12.569a33.5,33.5,0,0,1,5.5,9.287c1.716,4.778,4.218,9.281,5.1,14.379a37.829,37.829,0,0,0,2.874,9.1,34.942,34.942,0,0,1,1.786,6.763,110.062,110.062,0,0,1,2.3,20.176h0c2.681.06,4.266-1.65,5.7-3.569.236-.314.518-1.018.428-1.088-2.745-2.127,1.64-4.511-.266-6.723a4.931,4.931,0,0,1-.632-2.45c-1.624-12.547-7.355-23.977-9.869-36.281a7.307,7.307,0,0,0-.421-1.207,132.608,132.608,0,0,0-9.488-18.083c-2.877-4.83-6.972-8.566-10.686-12.655a31.63,31.63,0,0,1-3.388,1.265,1.051,1.051,0,0,1-1.157-1.543c.625-1.025,1.634-1.833,1.625-3.179h0c-1.448-1.557-2.851-3.16-4.353-4.664-4.554-4.556-9.509-8.55-15.558-11.008a52.456,52.456,0,0,1-7-3.1C87.033.536,83.645.171,80.263.036A105.634,105.634,0,0,0,69.395.443a15.4,15.4,0,0,0-3.728.778C62.219,2.34,58.772,3.477,55.379,4.749A40.722,40.722,0,0,0,38.173,16.558c-5.227,6.194-10.415,12.427-15.41,18.807A155.071,155.071,0,0,0,11.586,51.739C8.819,56.394,7.753,61.7,5.376,66.451c-1.75,3.5-1.344,7.486-3.094,10.945-.541,1.07-.284,2.521-.522,3.772C.319,88.762.843,96.5.051,104.141a9.6,9.6,0,0,0,.367,3.8c1.493,4.7,1.581,9.637,2.566,14.417,1.36,1.033,1.424,2.449,1.169,3.959l0,0v0l-.016.01c1.581-.136,3.169-.219,4.741-.426C10.234,125.716,10.549,126.6,10.85,127.582Zm-5.037-7.03a.441.441,0,0,1-.525-.654c.145-.269.565-.4.879-.551a4.1,4.1,0,0,1,.295.45C6.248,120.061,6.077,120.484,5.813,120.551Z" transform="matrix(0.966, -0.259, 0.259, 0.966, 1539, 2386.633)" fill="#d24245"/>
    <path id="패스_1780" data-name="패스 1780" d="M7.843,101.747c.139-3.063-.324-6.207,1.24-9.075h0a64.333,64.333,0,0,1,2.526-8.5c.76-1.718.276-3.313.419-4.915.9-10.046,4.227-19.413,7.547-28.8a6.227,6.227,0,0,1,2.19-5.3c-.093-1.168.079-2.212,1.3-2.769.176-1.3.268-2.634,1.45-3.518A3.266,3.266,0,0,1,25.8,36.287a4.314,4.314,0,0,1,2.528-3.91A9.8,9.8,0,0,1,29.8,30.294c8.049-6.711,16.323-13.16,26.643-15.979a57.4,57.4,0,0,1,21.451-2.178,19.584,19.584,0,0,1,13.725,7.316c5.346,6.63,10.672,13.278,15.86,20.031a44.182,44.182,0,0,1,7.588,14.754c2.013,7.155,4.654,14.212,5.376,21.7.305,3.176.439,6.37.65,9.562v0h0c1.509,2.1,3.212,3.674,6.147,3.349a8.033,8.033,0,0,0,6.029-3.886,26.68,26.68,0,0,0,1.428-2.752h0c-2.4-1.464-2.226-3.942-2.447-6.25-1.4-14.6-5.782-28.413-11.329-41.862-4.216-10.226-10.628-19.666-19.414-25.743C91.515,1.446,79.39-.73,66.659.206,52.956,1.213,42.486,7.721,32.726,16.34c-1.173.924-2.659,1.375-3.725,2.468A8.662,8.662,0,0,1,27.728,20a6.192,6.192,0,0,0-.911.746,3.967,3.967,0,0,1-1.123,1.369c-.754,1.141-1.308,2.427-2.01,3.609C14.532,38.3,9.676,51.935,9.769,67.9c.055,9.355-1.977,18.961-4.1,28.284-.614,2.7-1.619,5.313-4.039,7.04a12.375,12.375,0,0,1-1.32.271Q.157,104.714,0,105.937H0c.437,1.141.962,2.257,1.294,3.428.728,2.566,2.527,3.585,5.013,3.6a25.19,25.19,0,0,0,3.021-.333v-.005C6.626,109.3,7.159,105.535,7.843,101.747Z" transform="matrix(0.966, -0.259, 0.259, 0.966, 1555.459, 2407.517)" fill="#ffb200"/>
    <path id="패스_1781" data-name="패스 1781" d="M22.775,1.292l0,0c-4.021,4.2-6.448,9.464-9.471,14.318a30.4,30.4,0,0,0-4.99,14.305c-.189,2.948-.6,5.9-.571,8.878.046,4.9-.091,9.791-1.5,14.529a35.983,35.983,0,0,0-1.227,8.814c-.3,6.64-1.5,13.07-4.968,18.892-.014.114-.029.227-.044.342A12.407,12.407,0,0,0,1.32,81.1c2.42-1.726,3.425-4.343,4.039-7.04,2.12-9.324,4.152-18.929,4.1-28.284C9.363,29.817,14.219,16.182,23.37,3.609c.7-1.182,1.256-2.468,2.01-3.609a8.371,8.371,0,0,1-2.606,1.294Z" transform="matrix(0.966, -0.259, 0.259, 0.966, 1561.486, 2428.802)" fill="#ffb200"/>
    <path id="패스_1782" data-name="패스 1782" d="M105.578,64.232a34.965,34.965,0,0,0-1.787-6.764,37.831,37.831,0,0,1-2.874-9.1c-.881-5.1-3.383-9.6-5.1-14.379a33.5,33.5,0,0,0-5.5-9.287C87,20.552,83.451,16.592,80.5,12.138a12.738,12.738,0,0,0-8.21-5.648A14.177,14.177,0,0,1,68.13,4.928C61.262.91,53.776,0,46,0c-4.076,0-8.037,1-12.05,1.038C27.436,1.1,21.913,3.9,16.783,7.208c-4.6,2.967-8.518,6.98-12.736,10.53A3.829,3.829,0,0,1,.515,20.68h0l-.077.071A4.479,4.479,0,0,1,0,22.945,6.186,6.186,0,0,1,.911,22.2,8.672,8.672,0,0,0,2.184,21c1.066-1.093,2.552-1.544,3.725-2.468C15.669,9.915,26.139,3.408,39.842,2.4c12.731-.936,24.856,1.24,34.848,8.152C83.476,16.631,89.888,26.07,94.1,36.3c5.547,13.45,9.934,27.263,11.329,41.862.221,2.309.049,4.786,2.447,6.25h0A110.088,110.088,0,0,0,105.578,64.232Z" transform="matrix(0.966, -0.259, 0.259, 0.966, 1580.794, 2398.457)" fill="#ffb200"/>
    <path id="패스_1783" data-name="패스 1783" d="M15.963,43.752a24.724,24.724,0,0,1,1.646-6.142,49.259,49.259,0,0,1,17.61-19.695c3.744-2.5,7.505-4,11.893-1.628a7.991,7.991,0,0,0,2.456.642c6.786,1.133,11.657,4.948,14.858,10.888a52.316,52.316,0,0,0,4.355,6.265c2.646,3.565,5.93,6.926,6.68,11.462.771,4.665,2.7,8.967,3.615,13.548,1.256,6.3,5.4,9.883,10.99,12.215,1.6.667,3.2,1.208,4.914.358a5.264,5.264,0,0,0,2.863-4c.324-1.885.725-3.762.944-5.659a4.751,4.751,0,0,0-.832-3.67c-2.295-2.742-2.83-6.145-3.766-9.416-1.593-5.568-4.257-10.65-6.8-15.836A91.647,91.647,0,0,0,77.247,17.671C71.654,10.411,65.067,4.565,55.711,2.7a12.377,12.377,0,0,1-3.049-.967C46.934-1.1,41.013.257,35.128.852a3.565,3.565,0,0,0-1.808.591C28.885,5.018,22.828,6.28,19.386,11.3a15.8,15.8,0,0,1-3.109,3.222c-5.361,4.35-8.021,10.436-10.658,16.516a14.823,14.823,0,0,0-1.51,5.527C4.055,43.468,1.92,50,.832,56.722A80.493,80.493,0,0,0,.634,78.4c.16,1.478.731,2.955.653,4.407-.162,2.969,1.156,5.348,2.521,7.76h0c.626.656,1.454,1.194,2.04.242.392-.634-.08-1.814.323-2.431C9.019,84.028,9.029,79.122,9.21,74.22a48.126,48.126,0,0,1,2.622-14.408A104.906,104.906,0,0,0,15.963,43.752Z" transform="matrix(0.966, -0.259, 0.259, 0.966, 1580.062, 2424.611)" fill="#31a0d3"/>
    <path id="패스_1784" data-name="패스 1784" d="M2.418,0A7.873,7.873,0,0,1,0,6.419c2.7-.6,3.375-2.767,3.91-5.049A4.658,4.658,0,0,1,2.418,0Z" transform="matrix(0.966, -0.259, 0.259, 0.966, 1690.424, 2458.453)" fill="#4fc2f6"/>
    <path id="패스_1785" data-name="패스 1785" d="M9.158,92.8c-1.592-9.561-2.466-19.2-.336-28.684,2.417-10.749,1.873-22.273,8.092-32.075,8.263-13.023,18.164-24.415,34.723-25.3,13.867-.738,25.9,4.9,35.2,15.416a96.557,96.557,0,0,1,19.225,33.76c1.068,3.2,2.254,6.365,3.271,9.576a14.475,14.475,0,0,0-.164-2.265c-2.4-13.313-5.325-26.42-13.534-37.626-4.8-6.553-10.129-12.687-15.281-18.957C76.372,1.8,70.866.418,64.921.079,49.429-.8,36.767,5.782,25.133,15.108c-1.335,1.071-2.542,2.285-3.8,3.428a13.766,13.766,0,0,0-2.92,2.957,10.449,10.449,0,0,1-.74,1.356,19.51,19.51,0,0,0-1.339,2.667c-.34.941-.68,1.882-1.035,2.818-.357.968-.78,1.9-1.212,2.841a10.578,10.578,0,0,1-.7,1.435c-.014.025-.021.049-.035.073a2.3,2.3,0,0,0,.85.553c.671.257.51,1.043-.07,1.339-.607.31-1.23.585-1.857.852a20.972,20.972,0,0,0-.469,2.733C6.091,51.174,6.494,65.7,1.734,78.944a7.094,7.094,0,0,0-.79,1.7c1.085,1.1,1.246,1.953-.479,3.145-.03,1.073.014,2.156-.008,3.229C-.131,90.81.341,94.647,0,98.451c4.212,4.044,5.906,4.326,10.939,1.9.919-.444,1.916-.729,2.88-1.087h0A8.821,8.821,0,0,1,9.158,92.8Z" transform="matrix(0.966, -0.259, 0.259, 0.966, 1568.14, 2418.795)" fill="#4fc2f6"/>
    <path id="패스_1786" data-name="패스 1786" d="M2.945,29.655c-.144,1.6.341,3.2-.419,4.915A64.326,64.326,0,0,0,0,43.069H0c.239.584.322,1.339.743,1.719.164.149.31.29.448.43a7.1,7.1,0,0,1,.79-1.7c4.76-13.244,4.357-27.77,10.073-40.784A20.961,20.961,0,0,1,12.523,0c-.676.287-1.357.565-2.031.856C7.172,10.242,3.842,19.609,2.945,29.655Z" transform="matrix(0.966, -0.259, 0.259, 0.966, 1577.07, 2453.079)" fill="#4fc2f6"/>
    <path id="패스_1788" data-name="패스 1788" d="M98.637,64.065c-.721-7.486-3.363-14.543-5.375-21.7a44.18,44.18,0,0,0-7.588-14.754c-5.188-6.753-10.514-13.4-15.86-20.031A19.585,19.585,0,0,0,56.088.266,57.4,57.4,0,0,0,34.637,2.444C24.317,5.262,16.043,11.712,7.994,18.422a9.8,9.8,0,0,0-1.468,2.083C7.084,22.9,7.084,22.9,4,24.424,4.3,25.647,4.025,26.58,2.71,27c-1.182.884-1.274,2.219-1.45,3.518A2.408,2.408,0,0,1,0,33.292a4.353,4.353,0,0,0,.878,1.7c.014-.024.021-.048.035-.073a10.584,10.584,0,0,0,.7-1.435c.432-.938.855-1.873,1.212-2.841.356-.937.7-1.878,1.035-2.818A19.511,19.511,0,0,1,5.2,25.153,10.433,10.433,0,0,0,5.937,23.8a13.771,13.771,0,0,1,2.92-2.957c1.258-1.143,2.465-2.358,3.8-3.428C24.291,8.086,36.953,1.5,52.445,2.384,58.39,2.722,63.9,4.106,67.879,8.952c5.153,6.271,10.48,12.4,15.281,18.957C91.369,39.115,94.29,52.223,96.695,65.535a14.489,14.489,0,0,1,.164,2.265c.014.043.029.085.042.127A18.063,18.063,0,0,1,97.8,72.26a4.656,4.656,0,0,0,1.492,1.371v0C99.076,70.435,98.942,67.241,98.637,64.065Z" transform="matrix(0.966, -0.259, 0.259, 0.966, 1579.594, 2413.341)" fill="#4fc2f6"/>
    <path id="패스_1789" data-name="패스 1789" d="M3.739,84.828c.078-1.452-.493-2.929-.653-4.407a80.49,80.49,0,0,1,.2-21.675c1.089-6.717,3.224-13.254,3.277-20.163a14.827,14.827,0,0,1,1.51-5.527c2.637-6.08,5.3-12.166,10.658-16.516a15.8,15.8,0,0,0,3.109-3.221c3.442-5.016,9.5-6.277,13.934-9.852a3.565,3.565,0,0,1,1.808-.591c5.885-.6,11.806-1.954,17.534.878a12.378,12.378,0,0,0,3.049.967C67.519,6.589,74.107,12.435,79.7,19.695A91.624,91.624,0,0,1,89.838,35.115c2.547,5.186,5.211,10.268,6.8,15.836.935,3.271,1.471,6.673,3.766,9.416a4.752,4.752,0,0,1,.832,3.67c-.22,1.9-.62,3.773-.944,5.659a7.874,7.874,0,0,0,2.418-6.419,7.84,7.84,0,0,1-.937-4.46c-1.017-3.211-2.2-6.375-3.271-9.576A96.558,96.558,0,0,0,79.28,15.481C69.982,4.961,57.946-.674,44.079.064,27.52.948,17.619,12.34,9.356,25.363c-6.219,9.8-5.676,21.326-8.092,32.075C-.867,66.921.008,76.561,1.6,86.122a8.821,8.821,0,0,0,4.66,6.467h0C4.9,90.176,3.578,87.8,3.739,84.828Z" transform="matrix(0.966, -0.259, 0.259, 0.966, 1577.169, 2423.291)" fill="#4fc2f6"/>
    <path id="패스_1790" data-name="패스 1790" d="M0,0A7.841,7.841,0,0,0,.936,4.46,18.076,18.076,0,0,0,.042.128C.029.085.014.043,0,0Z" transform="matrix(0.966, -0.259, 0.259, 0.966, 1690.7, 2453.761)" fill="#4fc2f6"/>
    <path id="패스_1796" data-name="패스 1796" d="M2.92,3.457A4.766,4.766,0,0,0,0,0H0C1.2.961.962,3.138,2.92,3.457Z" transform="matrix(0.966, -0.259, 0.259, 0.966, 1657.521, 2376.756)" fill="#d47776"/>
    <path id="패스_1797" data-name="패스 1797" d="M1.3,4.722A31.594,31.594,0,0,0,4.692,3.457C2.734,3.138,2.973.961,1.771,0c.01,1.346-1,2.154-1.625,3.179A1.051,1.051,0,0,0,1.3,4.722Z" transform="matrix(0.966, -0.259, 0.259, 0.966, 1655.81, 2377.215)" fill="#d47776"/>
    <path id="패스_1800" data-name="패스 1800" d="M0,4.855A47.354,47.354,0,0,0,4.168,0,6.669,6.669,0,0,0,0,4.855Z" transform="matrix(0.966, -0.259, 0.259, 0.966, 1582.563, 2419.466)" fill="#f49611"/>
    <path id="패스_1801" data-name="패스 1801" d="M1.123,0A8.052,8.052,0,0,0,0,1.369,3.967,3.967,0,0,0,1.123,0Z" transform="matrix(0.966, -0.259, 0.259, 0.966, 1585.648, 2420.91)" fill="#f49611"/>
    <path id="패스_1802" data-name="패스 1802" d="M0,4.855v0A8.373,8.373,0,0,0,2.606,3.562,8.04,8.04,0,0,1,3.729,2.194,4.48,4.48,0,0,0,4.168,0,47.354,47.354,0,0,1,0,4.855Z" transform="matrix(0.966, -0.259, 0.259, 0.966, 1582.563, 2419.466)" fill="#f49611"/>
    <path id="패스_1803" data-name="패스 1803" d="M3.532,0A4.658,4.658,0,0,0,0,2.941H0C.938,1.672,2.663,1.35,3.532,0Z" transform="matrix(0.966, -0.259, 0.259, 0.966, 1585.883, 2415.458)" fill="#f49611"/>
    <path id="패스_1804" data-name="패스 1804" d="M3.531,0C2.662,1.35.937,1.672,0,2.941A3.829,3.829,0,0,0,3.531,0Z" transform="matrix(0.966, -0.259, 0.259, 0.966, 1585.884, 2415.458)" fill="#f49611"/>
    <path id="패스_1809" data-name="패스 1809" d="M2.2.031h0V0A6.226,6.226,0,0,0,.007,5.3,10.037,10.037,0,0,0,2.216.02Z" transform="matrix(0.966, -0.259, 0.259, 0.966, 1586.047, 2446.07)" fill="#73bec4"/>
    <path id="패스_1810" data-name="패스 1810" d="M1.857,1.892c.58-.3.741-1.081.07-1.339A2.3,2.3,0,0,1,1.077,0,10.61,10.61,0,0,0,0,2.744C.627,2.477,1.251,2.2,1.857,1.892Z" transform="matrix(0.966, -0.259, 0.259, 0.966, 1588.457, 2447.188)" fill="#73bec4"/>
    <path id="패스_1811" data-name="패스 1811" d="M2.23,0,2.209.013A10.037,10.037,0,0,1,0,5.3C.674,5,1.355,4.726,2.031,4.439A10.613,10.613,0,0,1,3.108,1.7,4.353,4.353,0,0,1,2.23,0Z" transform="matrix(0.966, -0.259, 0.259, 0.966, 1586.056, 2446.076)" fill="#73bec4"/>
    <path id="패스_1812" data-name="패스 1812" d="M0,0H0Z" transform="matrix(0.966, -0.259, 0.259, 0.966, 1588.178, 2445.53)" fill="#73bec4"/>
    <path id="패스_1813" data-name="패스 1813" d="M0,3.915C.988,2.7,2.177,1.62,2.528,0A4.314,4.314,0,0,0,0,3.91l0,0Z" transform="matrix(0.966, -0.259, 0.259, 0.966, 1588.762, 2432.113)" fill="#84bdac"/>
    <path id="패스_1814" data-name="패스 1814" d="M0,3.918C3.082,2.393,3.082,2.391,2.524,0,2.172,1.62.984,2.7,0,3.915Z" transform="matrix(0.966, -0.259, 0.259, 0.966, 1588.766, 2432.112)" fill="#84bdac"/>
    <path id="패스_1815" data-name="패스 1815" d="M1.287,0A3.266,3.266,0,0,0,0,2.582C.828,1.921.611.74,1.287,0Z" transform="matrix(0.966, -0.259, 0.259, 0.966, 1588.531, 2436.222)" fill="#84bdac"/>
    <path id="패스_1816" data-name="패스 1816" d="M1.292.006l-.007,0V0C.611.737.828,1.918,0,2.58,1.315,2.163,1.59,1.229,1.292.006Z" transform="matrix(0.966, -0.259, 0.259, 0.966, 1588.531, 2436.225)" fill="#84bdac"/>
    <path id="패스_1817" data-name="패스 1817" d="M0,0,0,0H0Z" transform="matrix(0.966, -0.259, 0.259, 0.966, 1589.773, 2435.887)" fill="#84bdac"/>
    <path id="패스_1818" data-name="패스 1818" d="M0,0,0,.014.005.008Z" transform="matrix(0.966, -0.259, 0.259, 0.966, 1589.772, 2435.887)" fill="#84bdac"/>
    <path id="패스_1819" data-name="패스 1819" d="M0,0v.01L0,0Z" transform="matrix(0.966, -0.259, 0.259, 0.966, 1589.772, 2435.887)" fill="#84bdac"/>
    <path id="패스_1820" data-name="패스 1820" d="M0,.007.006,0V0Z" transform="matrix(0.966, -0.259, 0.259, 0.966, 1589.774, 2435.895)" fill="#84bdac"/>
    <path id="패스_1821" data-name="패스 1821" d="M.061,2.774C1.162,2.165.888.919,1.322,0,.1.557-.072,1.6.021,2.769l.028-.028Z" transform="matrix(0.966, -0.259, 0.259, 0.966, 1587.432, 2442.832)" fill="#73bec4"/>
    <path id="패스_1822" data-name="패스 1822" d="M0,2.774v0A2.408,2.408,0,0,0,1.261,0C.827.919,1.1,2.165,0,2.774Z" transform="matrix(0.966, -0.259, 0.259, 0.966, 1587.49, 2442.816)" fill="#73bec4"/>
    <path id="패스_1823" data-name="패스 1823" d="M.02.032.009,0C.006.016,0,.03,0,.045A.119.119,0,0,0,.02.032Z" transform="matrix(0.966, -0.259, 0.259, 0.966, 1588.181, 2445.47)" fill="#73bec4"/>
    <path id="패스_1824" data-name="패스 1824" d="M0,.014H0L.018,0V0C.012,0,.007.01,0,.014Z" transform="matrix(0.966, -0.259, 0.259, 0.966, 1588.174, 2445.518)" fill="#73bec4"/>
    <path id="패스_1825" data-name="패스 1825" d="M.028,0,0,.028v.03Z" transform="matrix(0.966, -0.259, 0.259, 0.966, 1588.162, 2445.475)" fill="#73bec4"/>
    <path id="패스_1826" data-name="패스 1826" d="M0,.013v0L.021,0V0A.116.116,0,0,1,0,.013Z" transform="matrix(0.966, -0.259, 0.259, 0.966, 1588.188, 2445.501)" fill="#73bec4"/>
    <path id="패스_1827" data-name="패스 1827" d="M.027,0,0,.058H0C.007.055.012.049.018.045S.025.016.027,0Z" transform="matrix(0.966, -0.259, 0.259, 0.966, 1588.163, 2445.474)" fill="#73bec4"/>
  </g>
</svg>
