<svg xmlns="http://www.w3.org/2000/svg" width="136.115" height="162.406" viewBox="0 0 136.115 162.406">
  <g id="그룹_1348" data-name="그룹 1348" transform="translate(-1589.755 -969.698)">
    <path id="패스_3145" data-name="패스 3145" d="M1.579,57.372a6.063,6.063,0,0,0,1.461.726c2.622.8,5.292,1.452,7.881,2.341,4.224,1.45,8.252.868,12.23-.847.839-.361,1.675-.738,2.54-1.024a1.2,1.2,0,0,1,1.422.377c.061.849-.547,1.339-1.062,1.825-3.254,3.07-5.266,6.954-7.382,10.816-2.283,4.164-1.785,8.553-1.316,12.865.348,3.2,3.662,4.145,6.166,2.062,1.261-1.051,2.432-2.211,3.687-3.271a1.159,1.159,0,0,1,1.737.658,6.529,6.529,0,0,1,.171,1.632c-.136,2.073.922,3.356,2.531,4.511a4.6,4.6,0,0,0,5.137.22,1.493,1.493,0,0,1,2.135.406c.083,1.562.087,3.385.3,5.184a8.29,8.29,0,0,0,2.586,5.314c1.357,1.252,3.023,1.114,4.668,1.1h0c.108-1.418.185-2.84.336-4.253A1.59,1.59,0,0,1,48.092,96.5c1.078-.183,1.577.482,1.8,1.467.159.692.409,1.362.618,2.04h0a9.63,9.63,0,0,0,5.2,2.847,4.792,4.792,0,0,0,6.022-3.307,15.306,15.306,0,0,0,.457-3.234c.292-3.248.534-6.5.851-9.745.025-.26.469-.479.841-.834.554,1.144,1.051,2.269,1.632,3.35a10.753,10.753,0,0,0,4.167,4.244,4.432,4.432,0,0,0,6.678-2.365c.918-2.409,1.551-4.871.6-7.476a15.1,15.1,0,0,1-.8-5.076c1.623.435,2.83.751,4.032,1.084,3.551.98,5.014.232,6.245-3.173.7-1.939,1.133-3.843-.019-5.8-.436-.742-1.028-1.541-.442-2.711,2-.272,4.139-.519,6.26-.862,2.469-.4,3.77-2.123,4.439-4.341.627-2.082-.544-3.464-2.111-4.615-1.323-.971-2.628-1.966-3.94-2.95-.69-.156-1.51-.317-1.425-1.2.086-.909.961-.9,1.663-.952a9.7,9.7,0,0,1,1.07.031v0h0a6.86,6.86,0,0,0,4.195-2.446c4.145-4.462,4.559-8.523-.176-12.775a9.424,9.424,0,0,0-8.7-2.176c-2.318.494-4.6,1.143-6.917,1.665-.2.045-.533-.323-.739-.557a.527.527,0,0,1,.067-.5,16,16,0,0,1,2-1.838,40.566,40.566,0,0,0,7.642-7.06,6.592,6.592,0,0,0,.792-7.188c-1.444-2.431-3.784-2.663-6.251-2.359a13.581,13.581,0,0,0-2.612.783c-.69.233-1.353.551-2.047.771-.632.2-1.58-.665-1.364-1.281.543-1.548,1.221-3.047,1.742-4.6a6.8,6.8,0,0,0,.215-4.821,3.5,3.5,0,0,0-4.28-2.4,8.075,8.075,0,0,0-1.521.624,1.555,1.555,0,0,1-2.258-.776,13.871,13.871,0,0,0-.794-1.442c-1.888-2.7-3.957-2.946-6.4-.837a11.878,11.878,0,0,0-3.451,5.512c-1.343,4.121-2.661,8.25-4.315,13.385-.063-3.645-.1-6.3-.158-8.952a29.226,29.226,0,0,0-1.378-9.727,5.94,5.94,0,0,0-7.6-3.588,5.6,5.6,0,0,0-3.073,2.976,9.494,9.494,0,0,0-1,1.157q-.063.514-.123,1.027c.132.6.841,1.285-.028,1.747-.269.143-.948-.223-1.28-.529a5.092,5.092,0,0,1-.773-1.3h0c-.7-.843-1.352-1.727-2.1-2.521A8.12,8.12,0,0,0,30.767.582c-2.9.735-4.177,3.289-2.707,5.863,1.087,1.9,2.431,3.65,3.626,5.49a15.513,15.513,0,0,1,2.672,6.049c-2.557-.242-3.859-2-5.646-2.78-1.832-.8-3.5-1.987-5.638-1.948-3.105.055-5.2,2.261-4.8,5.335A14.4,14.4,0,0,0,19.451,22.2c.352.831.969,1.546,1.38,2.358a1.178,1.178,0,0,1-.04,1.01,1.072,1.072,0,0,1-.909.394c-1.412-.364-2.79-.854-4.2-1.238a14.192,14.192,0,0,0-8.623.418,4.157,4.157,0,0,0-2.886,3.642c-.221,1.488.736,2.326,1.838,3.1,1.647,1.151,3.238,2.383,4.869,3.557,2.13,1.534,3.412,3.678,4.833,6.276-3.5,1.995-6.372,4.519-9.819,6.235A11.006,11.006,0,0,0,.424,53.122,3.016,3.016,0,0,0,1.579,57.372ZM36.607,81.437c.145-1.857-.08-3.932,1.971-5,.115-.06.438.009.456.074C39.648,78.747,37.817,79.928,36.607,81.437ZM78.389,71.207c-.169.03-.372.137-.5.079-2.448-1.058-4.868-2.176-6.321-4.589a1.056,1.056,0,0,1,.121-.956c.175-.22.715-.437.894-.327,2.256,1.385,4.746,2.5,6.166,4.924C78.977,70.733,78.82,71.045,78.389,71.207Zm2.128-24.2c.266.18.513.348.759.517-.188.276-.32.638-.578.812a2.186,2.186,0,0,1-2.521.26,2.359,2.359,0,0,1-.619-.792c-.021-.034.193-.3.325-.329C78.762,47.3,79.65,47.155,80.518,47.006Zm-8.29-15.46c2.043-1.7,4-3.729,6.635-4.639.266-.092.637.114.959.183.02.156.117.393.051.455q-6.139,5.705-12.32,11.362c-.191.175-.635.073-1.742.165C68.241,36.147,69.919,33.467,72.227,31.546ZM49.026,4.887a1.955,1.955,0,0,1,1.854,1.7c.351,1.361-.8,2.33-2.937,2.462-.6.065-.945-.348-1.01-.933C46.731,6.29,47.669,4.845,49.026,4.887Zm-8.673,32.8c3.483-4.983,6.918-5.283,11.294-4.025a36.874,36.874,0,0,1,11.567,5.971,15.028,15.028,0,0,0,1.168.977l-1.168-.977,1.168.977.072.063.006.007,1,1.084a11.78,11.78,0,0,0,1.165,1.85c2.8,3.044,2.447,6.737,2.123,10.388a4.358,4.358,0,0,1-1.037,2.483c-3.392,3.536-6.292,7.653-10.986,9.72l-.009,0-1.136.879-.027.02-.017,1.058.054,0h0c-.012.037-.017.073-.029.11a20.7,20.7,0,0,1,2.164,9.366c.141,5.647.356,11.328-1.54,17.16a7.383,7.383,0,0,1-2.208-6.491c.634-3.844.329-7.667.434-11.494a31.256,31.256,0,0,1,1.15-8.541l-.027-.055.053-.053-.053.053v-.058l-2.162-.122a12.976,12.976,0,0,1-11.063-.913l0,0-1.119-1.007q-.484-.081-.963-.182h0c-2.167-.578-2.373-2.733-3.4-4.227h0a12.8,12.8,0,0,1-2.156-12.847A46.837,46.837,0,0,1,40.353,37.687ZM29.938,26.043c.723-.9,1.657-.487,2.439-.026,2.79,1.647,5.285,3.569,6.282,7.419-2.971-.773-5.066-2.5-7.421-3.631-.427-.206-.7-.815-.953-1.286C29.867,27.746,29.245,26.9,29.938,26.043ZM23.823,19.12a1.067,1.067,0,0,1,.956-.181c1.076.6,2.114,1.267,3.137,1.956a1.784,1.784,0,0,1,.57,2.353c-.242.654-.459,1.316-.826,2.371a21.221,21.221,0,0,1-4.074-5.613A.962.962,0,0,1,23.823,19.12Z" transform="matrix(0.883, 0.469, -0.469, 0.883, 1638.126, 969.698)" fill="#f4ad97"/>
    <path id="합치기_13" data-name="합치기 13" d="M-4025.917,54.816a2.508,2.508,0,0,1-1.689-2.537c-.059-1.729,1.008-3.071,1.782-4.5,2.079-3.832,4.238-7.622,6.255-11.485,1.174-2.251,1-2.277-1.284-3.78-2.08-1.37-4.85-1.784-6.11-4.313.829.382,1.647.786,2.487,1.139l.035.015-.035-.015c-.84-.354-1.658-.758-2.487-1.139a25.975,25.975,0,0,1-7.114-6.5c-2.356-3.1-2.087-6.418-.912-9.81a1.872,1.872,0,0,1,1.7-1.178,8.029,8.029,0,0,1,5.633,1.5,44.444,44.444,0,0,1,10.341,11.072,3.217,3.217,0,0,1,.376,3.578h0c-1.332,1.252-.5,3.993-2.576,4.469,2.074-.476,1.244-3.216,2.576-4.469a6.134,6.134,0,0,1,.36,1c.138.771.3,1.388,1.289.811a4.082,4.082,0,0,0,1.54-2.1,82.447,82.447,0,0,1,7.214-12.587l4.437-8.863h0c.761-1.2,1.5-2.421,2.294-3.6a1.589,1.589,0,0,1,1.848-.736c1.038.345,1.167,1.167.9,2.143-.184.685-.279,1.394-.411,2.091v0c-5.478,10.829-10.906,21.687-16.463,32.477-2.412,4.684-5.088,9.232-7.653,13.838a4.634,4.634,0,0,1-2.132,2.381h0q5.475-10.422,10.946-20.846c2.037-3.879,4.04-7.777,6.135-11.625a16.135,16.135,0,0,0,1.833-5.692,2.12,2.12,0,0,0,.019-.256,2.12,2.12,0,0,1-.019.256,16.135,16.135,0,0,1-1.833,5.692c-2.095,3.848-4.1,7.746-6.135,11.625q-5.475,10.422-10.946,20.846h0a2.014,2.014,0,0,1-1.637,1.194A1.814,1.814,0,0,1-4025.917,54.816Zm6.739-22.461h0Zm-.174-.007a9.6,9.6,0,0,1-3.051-1.258A9.6,9.6,0,0,0-4019.352,32.348Zm-.731-.953h0Zm-.026,0c-1.254-.009-2.357-.925-3.507-1.607C-4022.467,30.47-4021.363,31.386-4020.109,31.395Zm-2.336-.327-.129-.069Zm-.385-.208-.156-.085Zm-.312-.17h0Zm-.345-.188-.193-.106Zm-.4-.221a8.7,8.7,0,0,1-3.072-2.076A8.692,8.692,0,0,0-4023.891,30.281Zm.135-.575-.035-.02Zm-.185-.1-.135-.071Zm-.189-.1q-.123-.062-.248-.118Q-4024.254,29.441-4024.131,29.5Zm7.155-2.426.01-.055Zm12.95-12.395a6.909,6.909,0,0,1-.743,4.168,6.9,6.9,0,0,0,.743-4.168c-.123-.826-.523-1.1-1.025-1.105C-4004.549,13.585-4004.149,13.857-4004.026,14.683Zm-2.511-.7.023-.01-.023.01Zm1.29-.4a1.686,1.686,0,0,1,.172-.009h0A1.689,1.689,0,0,0-4005.247,13.586Zm3.637-8.392h0Zm-.059,0a1.375,1.375,0,0,1-.293-.034A1.374,1.374,0,0,0-4001.669,5.195Zm4.2-.173-.06-.073Zm-.095-.114-.02-.023Zm-2.886-.071.2-.1Zm.222-.108a3.418,3.418,0,0,1,1.43-.466h0A3.415,3.415,0,0,0-4000.225,4.729Z" transform="translate(5633.242 1076.691)" fill="#245a7e" stroke="rgba(0,0,0,0)" stroke-miterlimit="10" stroke-width="1"/>
    <path id="패스_3157" data-name="패스 3157" d="M3.005,28.679h0v0l3.23-.163h0c1.1-.221,1.675-2.609,2.936-1.211.893.991-.534,2.222-1.269,3.2a1.9,1.9,0,0,1-.433.319q-.532,1.043-1.062,2.085h0q.479.1.963.182A3.866,3.866,0,0,1,8.491,34.1l0,0,0,0,0,0a12.976,12.976,0,0,0,11.063.913,2.547,2.547,0,0,1,2.179-.936h0l.027-.02a3.722,3.722,0,0,1,1.136-.879l.009-.006-.009.006.009,0C27.6,31.1,30.5,26.987,33.894,23.451a4.358,4.358,0,0,0,1.037-2.483c.323-3.651.681-7.344-2.123-10.388a11.78,11.78,0,0,1-1.165-1.85,5.9,5.9,0,0,1-1-1.084l-.007-.007.007.007-.006-.007-.072-.063A15.027,15.027,0,0,1,29.4,6.6,36.874,36.874,0,0,0,17.834.628C13.457-.63,10.022-.33,6.539,4.653a46.837,46.837,0,0,0-5.69,11.18A12.8,12.8,0,0,0,3.005,28.679ZM28.589,17.021c1.109,0,1.414.885,1.675,1.727.206.663-.332.984-.851,1.123A1.459,1.459,0,0,1,27.43,18.66,1.485,1.485,0,0,1,28.589,17.021ZM25.7,26.857c-.115.813-.788,1.1-1.541,1.2-.915-.11-1.143-.764-1.081-1.519a1.23,1.23,0,0,1,1.49-1.138A1.168,1.168,0,0,1,25.7,26.857ZM22.08,8.781a1.659,1.659,0,0,1,1.812-.8,1.5,1.5,0,0,1,1.243,1.491,3.9,3.9,0,0,1-.913,2.969c-.343.394-.8.807-1.345.493a3.142,3.142,0,0,1-1.01-1.076,4.533,4.533,0,0,1-.234-1.341A5.885,5.885,0,0,1,22.08,8.781ZM20.209,19.1a1.928,1.928,0,0,1,1.849-1.683,1.305,1.305,0,0,1,1.456,1.234,1.947,1.947,0,0,1-2.093,1.942A1.286,1.286,0,0,1,20.209,19.1Zm-5.507.277a1.318,1.318,0,0,1-.871-1.684c.125-.628.119-1.6,1.205-1.285.773.222.992.925.972,1.716C15.875,18.837,15.6,19.582,14.7,19.377Zm-.52-8.683c.066-1.139.748-1.878,1.615-1.751a2.079,2.079,0,0,1,1.659,2.477c-.13.868-.34,1.77-1.444,1.991S14.083,12.394,14.182,10.693ZM18.11,26.075a2.792,2.792,0,0,1-.421,3.052.912.912,0,0,1-1.408.088,2.213,2.213,0,0,1,.011-3.372c.228-.214.646-.226.977-.332C17.557,25.7,17.962,25.812,18.11,26.075Zm-3.205-23c1.741-.132,2.569.437,2.6,1.823-.177.64-.22,1.424-1.1,1.576a2.735,2.735,0,0,1-2.673-2.616C13.827,3.306,14.36,3.12,14.9,3.079ZM12.126,21.386a.952.952,0,0,1,.29.895c-.1.232-.561.307-.864.45-.178-.262-.524-.54-.5-.783A.666.666,0,0,1,12.126,21.386ZM8.753,10.015a2.161,2.161,0,0,1,1.436.388,1.078,1.078,0,0,1,.243,1.423c-.452.926-.717,2.041-2,2.216-.318-.143-.713-.2-.922-.434A2.1,2.1,0,0,1,8.753,10.015Zm-.605,6.723A1.3,1.3,0,0,1,9.53,18.016a2.962,2.962,0,0,1-.153.513c-.545,1.467-1.448,2.233-2.2,1.76a1.923,1.923,0,0,1-.836-1.265A2.086,2.086,0,0,1,8.148,16.738Z" transform="matrix(0.883, 0.469, -0.469, 0.883, 1652.473, 1014.74)" fill="#fffefd"/>
    <path id="패스_3173" data-name="패스 3173" d="M1.244,4.987c.541.314,1-.1,1.345-.493A3.9,3.9,0,0,0,3.5,1.524,1.5,1.5,0,0,0,2.259.034a1.659,1.659,0,0,0-1.812.8A5.885,5.885,0,0,0,0,2.569,4.533,4.533,0,0,0,.234,3.91,3.142,3.142,0,0,0,1.244,4.987Z" transform="matrix(0.883, 0.469, -0.469, 0.883, 1667.843, 1031.913)" fill="#ffc848"/>
    <path id="패스_3174" data-name="패스 3174" d="M1.838,4.483c1.1-.221,1.313-1.123,1.444-1.991A2.079,2.079,0,0,0,1.623.014C.757-.113.074.626.008,1.765-.091,3.466.728,4.7,1.838,4.483Z" transform="matrix(0.883, 0.469, -0.469, 0.883, 1660.796, 1029.278)" fill="#ffbc23"/>
    <path id="패스_3175" data-name="패스 3175" d="M1.559,4.046c1.282-.175,1.548-1.29,2-2.216A1.078,1.078,0,0,0,3.316.407,2.161,2.161,0,0,0,1.88.019,2.1,2.1,0,0,0,.637,3.611C.846,3.842,1.241,3.9,1.559,4.046Z" transform="matrix(0.883, 0.469, -0.469, 0.883, 1653.849, 1026.792)" fill="#ffcd5c"/>
    <path id="패스_3176" data-name="패스 3176" d="M.785.332A2.213,2.213,0,0,0,.773,3.7a.912.912,0,0,0,1.408-.088A2.792,2.792,0,0,0,2.6.563C2.454.3,2.049.184,1.762,0,1.43.106,1.012.118.785.332Z" transform="matrix(0.883, 0.469, -0.469, 0.883, 1654.188, 1044.547)" fill="#ffbe2b"/>
    <path id="패스_3177" data-name="패스 3177" d="M2.689,3.418c.879-.152.922-.936,1.1-1.576C3.756.456,2.929-.114,1.187.019.642.059.109.245.016.8A2.735,2.735,0,0,0,2.689,3.418Z" transform="matrix(0.883, 0.469, -0.469, 0.883, 1663.148, 1023.883)" fill="#ffc53e"/>
    <path id="패스_3178" data-name="패스 3178" d="M.844,3.567c.753.473,1.657-.293,2.2-1.76A2.962,2.962,0,0,0,3.2,1.294,1.3,1.3,0,0,0,1.817.015,2.086,2.086,0,0,0,.009,2.3,1.923,1.923,0,0,0,.844,3.567Z" transform="matrix(0.883, 0.469, -0.469, 0.883, 1650.211, 1032.477)" fill="#ffc94e"/>
    <path id="패스_3179" data-name="패스 3179" d="M1.236,3.177A1.947,1.947,0,0,0,3.329,1.235,1.305,1.305,0,0,0,1.873,0,1.928,1.928,0,0,0,.024,1.683,1.286,1.286,0,0,0,1.236,3.177Z" transform="matrix(0.883, 0.469, -0.469, 0.883, 1662.119, 1039.594)" fill="#ffc745"/>
    <path id="패스_3180" data-name="패스 3180" d="M.01,1.144C-.053,1.9.176,2.553,1.091,2.663c.753-.095,1.427-.383,1.541-1.2A1.168,1.168,0,0,0,1.5.006,1.23,1.23,0,0,0,.01,1.144Z" transform="matrix(0.883, 0.469, -0.469, 0.883, 1660.918, 1047.986)" fill="#ffdf94"/>
    <path id="패스_3181" data-name="패스 3181" d="M2.217,1.776C2.237.985,2.019.283,1.246.06.16-.252.165.717.04,1.345A1.318,1.318,0,0,0,.911,3.03C1.807,3.236,2.084,2.49,2.217,1.776Z" transform="matrix(0.883, 0.469, -0.469, 0.883, 1656.975, 1035.648)" fill="#ffbf2a"/>
    <path id="패스_3182" data-name="패스 3182" d="M1.984,2.85c.519-.14,1.057-.46.851-1.123C2.574.884,2.27,0,1.161,0A1.485,1.485,0,0,0,0,1.639,1.459,1.459,0,0,0,1.984,2.85Z" transform="matrix(0.883, 0.469, -0.469, 0.883, 1668.7, 1042.646)" fill="#ffc43c"/>
    <path id="패스_3183" data-name="패스 3183" d="M1.234,3.954a1.9,1.9,0,0,0,.433-.319C2.4,2.659,3.829,1.428,2.936.437,1.675-.962,1.1,1.426,0,1.647H0A2.521,2.521,0,0,1,1.234,3.954Z" transform="matrix(0.883, 0.469, -0.469, 0.883, 1645.366, 1041.39)" fill="#ffbe28"/>
    <path id="패스_3185" data-name="패스 3185" d="M1.365,1.026a.952.952,0,0,0-.29-.895A.666.666,0,0,0,0,.693c-.024.242.321.521.5.783C.8,1.333,1.262,1.258,1.365,1.026Z" transform="matrix(0.883, 0.469, -0.469, 0.883, 1652.251, 1038.695)" fill="#ffde93"/>
  </g>
</svg>
