<svg xmlns="http://www.w3.org/2000/svg" width="113.655" height="100" viewBox="0 0 113.655 100">
  <g id="add_illust" transform="translate(-330 -3795)">
    <circle id="icon" cx="50" cy="50" r="50" transform="translate(330 3795)" fill="#ffc400"/>
    <g id="그룹_334" data-name="그룹 334" transform="translate(117.685 3454.336)">
      <path id="패스_2192" data-name="패스 2192" d="M316.865,370.575c-.688,1.2-2.213,1.608-3.253,2.524-.182.16-.363.4-.273.622a.623.623,0,0,0,.439.3c1.041.3,2.145.376,3.164.747a5.744,5.744,0,0,1,3.028,2.591,13,13,0,0,0,1.49,2.771c.726-1.2.135-2.805.634-4.116.545-1.434,2.164-2.068,3.476-2.864.239-.145.5-.42.359-.658a.511.511,0,0,0-.246-.181c-.95-.43-2.028-.538-2.95-1.027a6.563,6.563,0,0,1-2.764-3.713,6.593,6.593,0,0,0-.786-1.707c-.264-.354-.985-.992-1.493-.813s-.495,1.155-.505,1.635C317.158,367.967,317.541,369.392,316.865,370.575Z" fill="#3a64f9"/>
      <path id="패스_2193" data-name="패스 2193" d="M325.3,358.176l-.451-.485a7.691,7.691,0,0,1-1.318-2.272c-.171-.394-.342-.789-.548-1.161a6.43,6.43,0,0,0-3.378-2.891,13.192,13.192,0,0,0-2.064-.506c-.561-.106-1.144-.217-1.712-.382a1.232,1.232,0,0,1-.851-.65,1.166,1.166,0,0,1,.46-1.311,10.656,10.656,0,0,1,1.676-1.137,5.449,5.449,0,0,0,2.135-1.775h0a5.385,5.385,0,0,0,.37-3.086c-.03-.46-.059-.917-.05-1.361l0-.1c.013-.752.034-2.01.94-2.33.972-.344,2.059.744,2.363,1.151a7.122,7.122,0,0,1,.916,1.908l.1.274c.79,2.141,1.8,3.515,3.092,4.2a9.043,9.043,0,0,0,1.821.648,12.029,12.029,0,0,1,1.7.572,1.128,1.128,0,0,1,.517.413.83.83,0,0,1,.1.642,1.515,1.515,0,0,1-.7.84c-.309.187-.632.367-.957.549-1.314.732-2.554,1.425-3.019,2.648a6.025,6.025,0,0,0-.245,2.107,5.475,5.475,0,0,1-.557,2.927Zm-9.373-8.711a1.468,1.468,0,0,1,.181.053c.524.153,1.056.253,1.621.361a14.11,14.11,0,0,1,2.218.549,7.429,7.429,0,0,1,3.911,3.345c.222.4.407.825.59,1.248a11.73,11.73,0,0,0,.634,1.311,7.907,7.907,0,0,0,.118-1.654,6.837,6.837,0,0,1,.311-2.458c.594-1.565,2.054-2.379,3.467-3.166.313-.176.626-.35.924-.532a.836.836,0,0,0,.174-.134,10.976,10.976,0,0,0-1.545-.514,9.954,9.954,0,0,1-2.018-.728c-1.519-.8-2.684-2.355-3.562-4.738l-.1-.279a6.3,6.3,0,0,0-.777-1.65c-.312-.418-.968-.9-1.23-.8-.093.033-.253.259-.272,1.4l0,.1c-.008.416.02.843.048,1.275a6.214,6.214,0,0,1-.5,3.648,6.293,6.293,0,0,1-2.5,2.14,9.7,9.7,0,0,0-1.522,1.025A.806.806,0,0,0,315.926,349.465Z" transform="translate(-11.5 6.841)" fill="#3a64f9"/>
    </g>
    <g id="그룹_468" data-name="그룹 468" transform="translate(-2804.457 1663.142)">
      <path id="패스_2640" data-name="패스 2640" d="M3172.085,2164.435a214.1,214.1,0,0,1-14.889-16.017,73.509,73.509,0,0,1,15.9-5.332,125.448,125.448,0,0,0,3.168,20.782" fill="#002f78" stroke="#1a1311" stroke-linecap="round" stroke-linejoin="round" stroke-width="1.341"/>
      <path id="패스_2641" data-name="패스 2641" d="M3229.293,2164.836a37.186,37.186,0,0,0-11.758-11.076q-4.57,6.736-9.555,13.179l4.28,6.976q9.394-2.717,18.771-5.492a3.523,3.523,0,0,0,.426-.157C3230.753,2167.041,3230.008,2165.884,3229.293,2164.836Z" transform="translate(-3)" fill="#002f78" stroke="#1a1311" stroke-linecap="round" stroke-linejoin="round" stroke-width="1.341"/>
      <path id="패스_2642" data-name="패스 2642" d="M3154.772,2188.863c-1.982-3.42-1.817-7.785-.486-11.547a35.463,35.463,0,0,1,7.7-12.377,22.593,22.593,0,0,1,8.911-5.848c5.347-1.686,11.166-.338,16.264,1.9a9.55,9.55,0,0,0,2.058.739,10.642,10.642,0,0,0,2.209.067,26.236,26.236,0,0,1,24.706,16.928,22.148,22.148,0,0,1-1.715,18.884c-1.584,2.565-2.876,4.338-5.893,3.645-3.849-.884-7.636-2.065-11.51-2.9" fill="#002f78" stroke="#1a1311" stroke-linecap="round" stroke-linejoin="round" stroke-width="1.341"/>
      <path id="패스_2643" data-name="패스 2643" d="M3206.786,2198.731a11.68,11.68,0,0,1,6.2-3.107,6.967,6.967,0,0,1,8.157,7.422,8.582,8.582,0,0,1-5.906,7.125,10.72,10.72,0,0,1-9.318-1.615" fill="#fad1c2" stroke="#1a1311" stroke-linecap="round" stroke-linejoin="round" stroke-width="1.341"/>
      <path id="패스_2644" data-name="패스 2644" d="M3207.659,2199.955a6.317,6.317,0,0,1,4.313-.939c4.849.846,4.722,7.084.088,8.22a7.675,7.675,0,0,1-4.549-.422" fill="#f7b79b"/>
      <path id="패스_2645" data-name="패스 2645" d="M3158.606,2186.18a11.689,11.689,0,0,0-4.262-5.466,6.967,6.967,0,0,0-10.553,3.2,8.583,8.583,0,0,0,2.276,8.971,10.718,10.718,0,0,0,9.108,2.541" fill="#fad1c2" stroke="#1a1311" stroke-linecap="round" stroke-linejoin="round" stroke-width="1.341"/>
      <path id="패스_2646" data-name="패스 2646" d="M3157.291,2186.911a6.318,6.318,0,0,0-3.492-2.7c-4.743-1.317-7.305,4.371-3.608,7.386a7.674,7.674,0,0,0,4.29,1.572" fill="#f7b79b"/>
      <path id="패스_2647" data-name="패스 2647" d="M3165.592,2169.725c16.682-10.463,43.223-1.531,46.3,18.592,1.545,10.1-2.74,21.6-11.3,27.724-8.239,5.9-19.784,5.55-29.03,2.117a27.324,27.324,0,0,1-18.018-26.408C3153.758,2183.174,3158.1,2174.421,3165.592,2169.725Z" fill="#fad1c2" stroke="#1a1311" stroke-linecap="round" stroke-linejoin="round" stroke-width="1.341"/>
      <path id="패스_2648" data-name="패스 2648" d="M3191.082,2185.221c.571-1.251,1.2-4.174-.632-5.084-1.965-.976-4.409.234-5.495,2.023A13.552,13.552,0,0,0,3191.082,2185.221Z" fill="#f7b79b"/>
      <g id="그룹_467" data-name="그룹 467">
        <g id="그룹_464" data-name="그룹 464">
          <path id="패스_2649" data-name="패스 2649" d="M3178,2182.524c2.268,1.253,4.21-2.264,1.942-3.516s-4.209,2.264-1.942,3.516Z" fill="#1a1311"/>
        </g>
        <g id="그룹_465" data-name="그룹 465">
          <path id="패스_2650" data-name="패스 2650" d="M3196.217,2188.149c2.267,1.253,4.21-2.264,1.942-3.516s-4.21,2.264-1.942,3.516Z" fill="#1a1311"/>
        </g>
        <g id="그룹_466" data-name="그룹 466">
          <path id="패스_2651" data-name="패스 2651" d="M3181.065,2184.663a6.167,6.167,0,0,0,3.518,6.454c2.784,1.4,6.194.009,8.127-2.136.344-.382-.227-.94-.572-.558a6.71,6.71,0,0,1-6.227,2.293,5.273,5.273,0,0,1-4.069-5.866c.071-.505-.705-.7-.777-.187Z" fill="#1a1311"/>
        </g>
      </g>
      <path id="패스_2652" data-name="패스 2652" d="M3170.3,2181.336c-4.258,1.524-10.721,3.188-14.906.714a2.768,2.768,0,0,1-1.224-1.216,3.032,3.032,0,0,1,.253-2.287c2.4-5.715,8.716-10.964,14.3-13.429a33.9,33.9,0,0,1,22.87-1.126C3187.284,2172.314,3179.129,2178.178,3170.3,2181.336Z" fill="#002f78"/>
      <path id="패스_2653" data-name="패스 2653" d="M3209,2174.239a31.577,31.577,0,0,0-9.5-8.641c-.472-.277-9.232-4.061-9.024-2.275.289,2.49-.236,4.533.459,7.019a27.049,27.049,0,0,0,3.209,6.969,46.073,46.073,0,0,0,18.949,16.98C3215.207,2187.176,3213.164,2180.006,3209,2174.239Z" fill="#002f78"/>
      <path id="패스_2654" data-name="패스 2654" d="M3178.01,2194.539a7.759,7.759,0,1,1-3.04-10.543A7.76,7.76,0,0,1,3178.01,2194.539Z" fill="#eb8896"/>
      <path id="패스_2655" data-name="패스 2655" d="M3205.074,2202.441a7.759,7.759,0,1,1-3.04-10.543A7.757,7.757,0,0,1,3205.074,2202.441Z" fill="#eb8896"/>
      <path id="패스_2656" data-name="패스 2656" d="M3191.594,2163.992c-4.31,8.322-12.465,14.186-21.289,17.344-4.258,1.524-10.721,3.188-14.906.714a2.768,2.768,0,0,1-1.224-1.216" fill="#002f78" stroke="#1a1311" stroke-linecap="round" stroke-linejoin="round" stroke-width="1.341"/>
      <path id="패스_2657" data-name="패스 2657" d="M3190.406,2166.456a13.556,13.556,0,0,0,.366,4.078,26.518,26.518,0,0,0,3.145,6.832,45.167,45.167,0,0,0,18.576,16.645" fill="#002f78" stroke="#1a1311" stroke-linecap="round" stroke-linejoin="round" stroke-width="1.341"/>
    </g>
  </g>
</svg>
