<svg xmlns="http://www.w3.org/2000/svg" xmlns:xlink="http://www.w3.org/1999/xlink" width="1920" height="665" viewBox="0 0 1920 665">
  <defs>
    <clipPath id="clip-path">
      <rect id="사각형_168" data-name="사각형 168" width="1920" height="665" transform="translate(0 3600)" fill="#fff"/>
    </clipPath>
  </defs>
  <g id="background" transform="translate(0 -3600)" clip-path="url(#clip-path)">
    <g id="background-2" data-name="background" transform="translate(3 2923.987)" opacity="0.05" style="mix-blend-mode: multiply;isolation: isolate">
      <g id="그룹_82" data-name="그룹 82" transform="translate(23.239 799.222)" opacity="0.7" style="mix-blend-mode: lighten;isolation: isolate">
        <circle id="타원_50" data-name="타원 50" cx="40.696" cy="40.696" r="40.696" transform="translate(-26.239 -1.992)" fill="none" stroke="#707070" stroke-miterlimit="10" stroke-width="35.525"/>
        <circle id="타원_51" data-name="타원 51" cx="40.696" cy="40.696" r="40.696" transform="translate(605.532 371.94)" fill="none" stroke="#707070" stroke-miterlimit="10" stroke-width="35.525"/>
        <circle id="타원_137" data-name="타원 137" cx="40.696" cy="40.696" r="40.696" transform="translate(1730.824 378.468)" fill="none" stroke="#707070" stroke-miterlimit="10" stroke-width="35.525"/>
        <circle id="타원_52" data-name="타원 52" cx="40.696" cy="40.696" r="40.696" transform="translate(760.127 -131.66)" fill="none" stroke="#707070" stroke-miterlimit="10" stroke-width="35.525"/>
        <line id="선_13" data-name="선 13" x1="23.683" y2="122.365" transform="translate(302.418 -172.632)" fill="none" stroke="#707070" stroke-miterlimit="10" stroke-width="35.525"/>
        <line id="선_14" data-name="선 14" x1="157.184" y2="45.264" transform="translate(1815.17 89.291)" fill="none" stroke="#707070" stroke-miterlimit="10" stroke-width="35.525"/>
        <line id="선_15" data-name="선 15" x1="88.131" y1="88.131" transform="translate(28.336 264.211)" fill="none" stroke="#707070" stroke-miterlimit="10" stroke-width="35.525"/>
        <path id="패스_181" data-name="패스 181" d="M1341.825,191.793a61.676,61.676,0,1,1-93.556-80.393" transform="translate(-255.471 50.937)" fill="none" stroke="#707070" stroke-miterlimit="10" stroke-width="35.525"/>
        <path id="패스_182" data-name="패스 182" d="M1795.167-25.717a63.216,63.216,0,0,1-81.727,96.465" transform="translate(-46 -147)" fill="none" stroke="#707070" stroke-miterlimit="10" stroke-width="35.525"/>
        <path id="패스_183" data-name="패스 183" d="M1525.074,462.8a53.835,53.835,0,1,1,54.28-92.986" transform="translate(-112 40.697)" fill="none" stroke="#707070" stroke-miterlimit="10" stroke-width="35.525"/>
        <path id="패스_184" data-name="패스 184" d="M622.2,114.209a54.6,54.6,0,1,1-70.586,83.314" transform="translate(-385 348.595)" fill="none" stroke="#707070" stroke-miterlimit="10" stroke-width="35.525"/>
        <path id="패스_2861" data-name="패스 2861" d="M622.2,114.209a54.6,54.6,0,1,1-70.586,83.314" transform="translate(1971.097 -81.394) rotate(164)" fill="none" stroke="#707070" stroke-miterlimit="10" stroke-width="35.525"/>
      </g>
    </g>
  </g>
</svg>
