<svg xmlns="http://www.w3.org/2000/svg" width="76" height="76" viewBox="0 0 76 76">
  <g id="그룹_1331" data-name="그룹 1331" transform="translate(-478 -3822)">
    <circle id="icon" cx="38" cy="38" r="38" transform="translate(478 3822)" fill="#fff"/>
    <g id="icon-2" data-name="icon" transform="translate(-2192.048 1987.195)">
      <path id="패스_2130" data-name="패스 2130" d="M2725.787,1882.938q-3.094-3.194-6.29-6.291a2.34,2.34,0,0,0-3.373.022c-.7.655-1.35,1.366-2.022,2.052h0c-1.686,1.181-3.146,1.282-4.4.08-2.6-2.507-5.148-5.08-7.677-7.664a2.841,2.841,0,0,1-.63-3.116.844.844,0,0,0-.292-1.059c-1.648-1.626-3.275-3.275-4.922-4.9-.414-.408-.63-.821-.295-1.372a.959.959,0,0,1,1.375.22c1.278,1.3,2.569,2.583,3.863,3.866.5.493,1.013.965,1.521,1.447.569-.57,1.184-1.1,1.7-1.719a2.266,2.266,0,0,0-.082-3.071q-3.151-3.251-6.4-6.4a2.3,2.3,0,0,0-3.409.18c-.639.713-1.186,1.509-1.775,2.269a11.622,11.622,0,0,0,.318,16.078q7.062,7.216,14.279,14.282a11.643,11.643,0,0,0,15,1.228c.413-.3.491-.457.089-.844-1.311-1.262-2.575-2.571-3.874-3.846a1,1,0,0,1-.276-1.375.974.974,0,0,1,1.375.244c1.037,1.06,2.094,2.1,3.143,3.148,1.43,1.429,1.43,1.429,2.9.027A2.364,2.364,0,0,0,2725.787,1882.938Zm-29.82-10.639c-.432.412-.845.181-1.222-.176a8.9,8.9,0,0,1-2.946-6.339,9.5,9.5,0,0,1,.26-2.367c.133-.524.426-.875.991-.725.5.133.649.54.535,1.047a7.318,7.318,0,0,0,2.263,7.277C2696.255,1871.41,2696.42,1871.868,2695.967,1872.3Z" fill="#cb0023"/>
      <g id="그룹_296" data-name="그룹 296">
        <path id="패스_2131" data-name="패스 2131" d="M2726.718,1881.631q-2.959-3-5.961-5.96a4.012,4.012,0,0,0-5.851-.008c-.615.6-1.206,1.223-1.826,1.816a1.635,1.635,0,0,1-2.541,0q-3.6-3.571-7.174-7.175a1.633,1.633,0,0,1,0-2.54c.612-.639,1.256-1.246,1.871-1.882a3.973,3.973,0,0,0,.047-5.676q-3.047-3.135-6.181-6.182a3.965,3.965,0,0,0-6.035.382c-.74.906-1.469,1.822-2.171,2.758a13.2,13.2,0,0,0,1.159,17.675q6.947,7.017,13.96,13.966a13.3,13.3,0,0,0,9.436,4,14.4,14.4,0,0,0,4.728-.865c2.381-.859,4.214-2.536,6.148-4.056A3.982,3.982,0,0,0,2726.718,1881.631Zm-1.086,4.788c-1.472,1.4-1.472,1.4-2.9-.027-1.049-1.048-2.106-2.088-3.143-3.148a.974.974,0,0,0-1.375-.244,1,1,0,0,0,.276,1.375c1.3,1.275,2.563,2.584,3.874,3.846.4.387.324.547-.089.844a11.643,11.643,0,0,1-15-1.228q-7.206-7.074-14.279-14.282a11.622,11.622,0,0,1-.318-16.078c.589-.76,1.136-1.556,1.775-2.269a2.3,2.3,0,0,1,3.409-.18q3.256,3.144,6.4,6.4a2.266,2.266,0,0,1,.082,3.071c-.512.617-1.127,1.149-1.7,1.719-.508-.482-1.025-.954-1.521-1.447-1.294-1.283-2.585-2.567-3.863-3.866a.959.959,0,0,0-1.375-.22c-.335.551-.118.964.295,1.372,1.647,1.628,3.274,3.277,4.922,4.9a.844.844,0,0,1,.292,1.059,2.841,2.841,0,0,0,.63,3.116c2.529,2.584,5.072,5.157,7.677,7.664,1.249,1.2,2.709,1.1,4.4-.08h0c.672-.686,1.321-1.4,2.022-2.052a2.34,2.34,0,0,1,3.373-.022q3.189,3.1,6.29,6.291A2.364,2.364,0,0,1,2725.632,1886.419Z" fill="#080505"/>
        <path id="패스_2132" data-name="패스 2132" d="M2712.061,1854.383c.13,0,.26.009.39.015a14.482,14.482,0,0,1,13.57,11.022,15.61,15.61,0,0,1,.446,3.393c.017.519.3.86.821.836a.759.759,0,0,0,.734-.846c0-.156,0-.312,0-.468a16.189,16.189,0,0,0-11.625-14.886,15.91,15.91,0,0,0-4.3-.626c-.517,0-.884.239-.9.763S2711.544,1854.364,2712.061,1854.383Z" fill="#080505"/>
        <path id="패스_2133" data-name="패스 2133" d="M2712.017,1859.748c.207.02.414.037.622.054a9.047,9.047,0,0,1,8.236,7.216c.134.633.163,1.288.245,1.932a.717.717,0,0,0,.782.7.744.744,0,0,0,.737-.763c.019-.206,0-.415,0-.622a11.087,11.087,0,0,0-.4-2.3,10.765,10.765,0,0,0-10.092-7.764c-.5.005-.9.175-.947.711S2711.507,1859.7,2712.017,1859.748Z" fill="#080505"/>
        <path id="패스_2134" data-name="패스 2134" d="M2711.2,1864.593c-.051.581.39.841.907.844a3.474,3.474,0,0,1,3.3,3.306c.007.517.263.948.847.906s.721-.473.713-1.01a5.025,5.025,0,0,0-4.674-4.752C2711.793,1863.828,2711.258,1863.908,2711.2,1864.593Z" fill="#080505"/>
        <path id="패스_2135" data-name="패스 2135" d="M2693.585,1863.739c.114-.507-.034-.914-.535-1.047-.565-.15-.858.2-.991.725a9.5,9.5,0,0,0-.26,2.367,8.9,8.9,0,0,0,2.946,6.339c.377.357.79.588,1.222.176.453-.431.288-.889-.119-1.283A7.318,7.318,0,0,1,2693.585,1863.739Z" fill="#080505"/>
      </g>
    </g>
  </g>
</svg>
