<svg xmlns="http://www.w3.org/2000/svg" width="76" height="76" viewBox="0 0 76 76">
  <g id="icon_hours" transform="translate(-2736.455 -1837.301)">
    <circle id="icon" cx="38" cy="38" r="38" transform="translate(2736.455 1837.301)" fill="#fff"/>
    <g id="그룹_297" data-name="그룹 297" transform="translate(2751.955 1852.801)">
      <circle id="타원_106" data-name="타원 106" cx="21.731" cy="21.731" r="21.731" transform="translate(0.77 0.769)" fill="#f8ae00"/>
      <path id="패스_2136" data-name="패스 2136" d="M2774.455,1897.8a22.5,22.5,0,1,1,22.5-22.5A22.526,22.526,0,0,1,2774.455,1897.8Zm0-43.461a20.962,20.962,0,1,0,20.962,20.961A20.985,20.985,0,0,0,2774.455,1854.34Z" transform="translate(-2751.955 -1852.801)" fill="#070304"/>
    </g>
    <g id="그룹_298" data-name="그룹 298" transform="translate(2756.763 1857.609)">
      <circle id="타원_107" data-name="타원 107" cx="16.923" cy="16.923" r="16.923" transform="translate(0.769 0.769)" fill="#fff"/>
      <path id="패스_2137" data-name="패스 2137" d="M2773.921,1892.46a17.692,17.692,0,1,1,17.693-17.693A17.712,17.712,0,0,1,2773.921,1892.46Zm0-33.847a16.154,16.154,0,1,0,16.154,16.154A16.173,16.173,0,0,0,2773.921,1858.613Z" transform="translate(-2756.229 -1857.075)" fill="#070304"/>
    </g>
    <g id="그룹_302" data-name="그룹 302" transform="translate(2759.167 1860.012)">
      <path id="패스_2138" data-name="패스 2138" d="M2772.037,1862.577a.481.481,0,0,1-.481-.481v-2.4a.481.481,0,1,1,.962,0v2.4A.48.48,0,0,1,2772.037,1862.577Z" transform="translate(-2756.717 -1859.211)" fill="#070304"/>
      <path id="패스_2139" data-name="패스 2139" d="M2766.654,1864a.481.481,0,0,1-.416-.241l-1.2-2.081a.481.481,0,0,1,.833-.481l1.2,2.082a.481.481,0,0,1-.416.721Z" transform="translate(-2757.54 -1858.992)" fill="#070304"/>
      <path id="패스_2140" data-name="패스 2140" d="M2762.706,1867.931a.482.482,0,0,1-.241-.064l-2.081-1.2a.48.48,0,0,1,.48-.833l2.083,1.2a.481.481,0,0,1-.241.9Z" transform="translate(-2758.144 -1858.391)" fill="#070304"/>
      <path id="패스_2141" data-name="패스 2141" d="M2761.25,1873.307h-2.4a.481.481,0,0,1,0-.962h2.4a.481.481,0,0,1,0,.962Z" transform="translate(-2758.366 -1857.569)" fill="#070304"/>
      <path id="패스_2142" data-name="패스 2142" d="M2760.6,1880.025a.481.481,0,0,1-.241-.9l2.083-1.2a.481.481,0,1,1,.48.833l-2.081,1.2A.479.479,0,0,1,2760.6,1880.025Z" transform="translate(-2758.147 -1856.88)" fill="#070304"/>
      <path id="패스_2143" data-name="패스 2143" d="M2765.4,1884.951a.475.475,0,0,1-.24-.064.482.482,0,0,1-.177-.657l1.2-2.081a.481.481,0,1,1,.833.48l-1.2,2.081A.481.481,0,0,1,2765.4,1884.951Z" transform="translate(-2757.546 -1856.374)" fill="#070304"/>
      <path id="패스_2144" data-name="패스 2144" d="M2771.98,1886.765a.48.48,0,0,1-.48-.481v-2.4a.48.48,0,1,1,.961,0v2.4A.48.48,0,0,1,2771.98,1886.765Z" transform="translate(-2756.724 -1856.188)" fill="#070304"/>
      <path id="패스_2145" data-name="패스 2145" d="M2778.7,1884.98a.48.48,0,0,1-.416-.241l-1.2-2.081a.481.481,0,0,1,.834-.481l1.2,2.082a.481.481,0,0,1-.417.721Z" transform="translate(-2756.035 -1856.37)" fill="#070304"/>
      <path id="패스_2146" data-name="패스 2146" d="M2783.625,1880.074a.481.481,0,0,1-.241-.064l-2.081-1.2a.481.481,0,1,1,.48-.833l2.083,1.2a.481.481,0,0,1-.241.9Z" transform="translate(-2755.529 -1856.874)" fill="#070304"/>
      <path id="패스_2147" data-name="패스 2147" d="M2785.438,1873.364h-2.4a.481.481,0,0,1,0-.962h2.4a.481.481,0,0,1,0,.962Z" transform="translate(-2755.343 -1857.562)" fill="#070304"/>
      <path id="패스_2148" data-name="패스 2148" d="M2781.572,1867.98a.481.481,0,0,1-.241-.9l2.082-1.2a.481.481,0,1,1,.48.833l-2.081,1.2A.479.479,0,0,1,2781.572,1867.98Z" transform="translate(-2755.526 -1858.385)" fill="#070304"/>
      <path id="패스_2149" data-name="패스 2149" d="M2777.545,1864.032a.474.474,0,0,1-.24-.064.481.481,0,0,1-.176-.657l1.2-2.081a.481.481,0,1,1,.833.48l-1.2,2.082A.48.48,0,0,1,2777.545,1864.032Z" transform="translate(-2756.028 -1858.989)" fill="#070304"/>
      <path id="패스_2150" data-name="패스 2150" d="M2766.368,1879.1a.481.481,0,0,1-.324-.837l6.346-5.769a.481.481,0,1,1,.647.711l-6.346,5.769A.478.478,0,0,1,2766.368,1879.1Z" transform="translate(-2757.426 -1857.566)" fill="#070304"/>
      <g id="그룹_299" data-name="그룹 299" transform="translate(13.77 4.733)">
        <rect id="사각형_87" data-name="사각형 87" width="2.308" height="10.063" rx="1.026" transform="translate(0.481 0.481)" fill="#59b3ce"/>
        <path id="패스_2151" data-name="패스 2151" d="M2772.241,1874.442a1.637,1.637,0,0,1-1.635-1.635v-7.755a1.635,1.635,0,0,1,3.269,0v7.755A1.637,1.637,0,0,1,2772.241,1874.442Zm0-10.063a.674.674,0,0,0-.673.674v7.755a.673.673,0,1,0,1.345,0v-7.755A.674.674,0,0,0,2772.241,1864.379Z" transform="translate(-2770.606 -1863.418)" fill="#070304"/>
      </g>
      <g id="그룹_300" data-name="그룹 300" transform="translate(13.237 13.622)">
        <rect id="사각형_88" data-name="사각형 88" width="2.308" height="10.063" rx="1.026" transform="translate(10.544 0.48) rotate(90)" fill="#59b3ce"/>
        <path id="패스_2152" data-name="패스 2152" d="M2779.522,1874.589h-7.756a1.635,1.635,0,0,1,0-3.269h7.756a1.635,1.635,0,0,1,0,3.269Zm-7.756-2.308a.673.673,0,0,0,0,1.346h7.756a.673.673,0,0,0,0-1.346Z" transform="translate(-2770.132 -1871.32)" fill="#070304"/>
      </g>
      <g id="그룹_301" data-name="그룹 301" transform="translate(12.5 12.468)">
        <circle id="타원_108" data-name="타원 108" cx="2.308" cy="2.308" r="2.308" transform="translate(0.48 0.481)" fill="#474646"/>
        <path id="패스_2153" data-name="패스 2153" d="M2772.265,1875.87a2.788,2.788,0,1,1,2.789-2.788A2.791,2.791,0,0,1,2772.265,1875.87Zm0-4.615a1.826,1.826,0,1,0,1.827,1.827A1.829,1.829,0,0,0,2772.265,1871.256Z" transform="translate(-2769.477 -1870.294)" fill="#070304"/>
      </g>
    </g>
  </g>
</svg>
