<svg xmlns="http://www.w3.org/2000/svg" width="110.254" height="100" viewBox="0 0 110.254 100">
  <g id="tel_illust" transform="translate(-319.746 -3795)">
    <circle id="icon" cx="50" cy="50" r="50" transform="translate(330 3795)" fill="#cb0023"/>
    <g id="그룹_338" data-name="그룹 338" transform="translate(152.033 3644.304)">
      <g id="그룹_336" data-name="그룹 336" transform="translate(6 -52)">
        <path id="패스_2196" data-name="패스 2196" d="M194.558,216.99a5.738,5.738,0,0,0-2.622-5.626,6.393,6.393,0,0,0,.425-3.268c-.315-2.693-3.049-3.723-5.465-3.314a5.583,5.583,0,0,0-3.533,2.282,4.472,4.472,0,0,0-4.6-1.034,4.914,4.914,0,0,0-3.1,3.477,5.964,5.964,0,0,0,.959,4.582,3.334,3.334,0,0,0-1.633,1.986,4.411,4.411,0,0,0,.043,2.564,4.337,4.337,0,0,0,1.614,2.336,3.8,3.8,0,0,0,3.413.425,5.712,5.712,0,0,0,5.228,3.506,4.969,4.969,0,0,0,4.661-3.824A5.092,5.092,0,0,0,194.558,216.99Z" fill="#f1bf10"/>
        <path id="패스_2197" data-name="패스 2197" d="M182.253,216.709c1.4,1.465,4.386,1.659,5.3-.46a3.444,3.444,0,0,0-.909-3.757C184.093,210.292,179.536,213.868,182.253,216.709Z" fill="#ff7182"/>
      </g>
      <g id="그룹_337" data-name="그룹 337" transform="translate(5 9)">
        <path id="패스_2198" data-name="패스 2198" d="M174.234,186.86a3.447,3.447,0,0,0-3.55-1.145,3.844,3.844,0,0,0-1.266-1.524c-1.315-.963-2.887-.18-3.694,1.052a3.351,3.351,0,0,0-.44,2.49,2.685,2.685,0,0,0-2.338,1.6,2.953,2.953,0,0,0,.265,2.787,3.583,3.583,0,0,0,2.41,1.451,2,2,0,0,0,.207,1.531,2.656,2.656,0,0,0,1.147,1.03,2.609,2.609,0,0,0,1.69.245,2.285,2.285,0,0,0,1.582-1.33,3.436,3.436,0,0,0,3.683-.869,2.987,2.987,0,0,0,.221-3.617A3.061,3.061,0,0,0,174.234,186.86Z" fill="#2ab6a7"/>
        <path id="패스_2199" data-name="패스 2199" d="M167.119,191.446c1.006,1.048,3.14,1.187,3.8-.329a2.464,2.464,0,0,0-.65-2.689C168.437,186.853,165.176,189.413,167.119,191.446Z" fill="#f1bf10"/>
      </g>
    </g>
    <g id="그룹_440" data-name="그룹 440" transform="translate(-2702.711 1669.92)">
      <path id="패스_2609" data-name="패스 2609" d="M3061.77,2191.583a11.677,11.677,0,0,0-6.724-1.679,6.966,6.966,0,0,0-6.34,9.023,8.582,8.582,0,0,0,7.319,5.664,10.718,10.718,0,0,0,8.74-3.61" fill="#fad1c2" stroke="#1a1311" stroke-linecap="round" stroke-linejoin="round" stroke-width="1.341"/>
      <path id="패스_2610" data-name="패스 2610" d="M3061.185,2192.969a6.319,6.319,0,0,0-4.414.024c-4.548,1.885-3.061,7.944,1.709,8.041a7.672,7.672,0,0,0,4.347-1.4" fill="#f7b79b"/>
      <path id="패스_2611" data-name="패스 2611" d="M3106,2168.759a11.682,11.682,0,0,1,2.945-6.275,6.967,6.967,0,0,1,11,.784,8.581,8.581,0,0,1-.232,9.252,10.717,10.717,0,0,1-8.319,4.5" fill="#fad1c2" stroke="#1a1311" stroke-linecap="round" stroke-linejoin="round" stroke-width="1.341"/>
      <path id="패스_2612" data-name="패스 2612" d="M3107.449,2169.179a6.316,6.316,0,0,1,2.807-3.406c4.333-2.335,8.092,2.644,5.154,6.4a7.679,7.679,0,0,1-3.834,2.483" fill="#f7b79b"/>
      <path id="패스_2613" data-name="패스 2613" d="M3059.067,2192.67a13.658,13.658,0,0,1-6.614-6.5,25.961,25.961,0,0,1-2.951-14.7,61.128,61.128,0,0,1,1.149-6.329,13.955,13.955,0,0,1,3.288-6.349,12.447,12.447,0,0,1,8.535-4.046,1.319,1.319,0,0,0,.654-.187,1.38,1.38,0,0,0,.376-.538,17.979,17.979,0,0,1,8.328-7.905c6-2.956,12.947-3.3,19.484-2.452,8.487,1.1,17.519,5.106,20.33,13.889a23.179,23.179,0,0,1-.346,14.121" fill="#ffd500" stroke="#1a1311" stroke-linecap="round" stroke-linejoin="round" stroke-width="1.341"/>
      <path id="패스_2614" data-name="패스 2614" d="M3104.1,2159c-16.092-12.337-43.713-5.145-48.425,15.7-2.364,10.463,1.073,22.872,9.267,29.994,7.89,6.858,19.625,7.439,29.273,4.6a28.542,28.542,0,0,0,20.358-26.214C3115.042,2174.067,3111.326,2164.534,3104.1,2159Z" fill="#fad1c2" stroke="#1a1311" stroke-linecap="round" stroke-linejoin="round" stroke-width="1.341"/>
      <circle id="타원_133" data-name="타원 133" cx="7.1" cy="7.1" r="7.1" transform="translate(3066.639 2180.16)" fill="#eb8896"/>
      <circle id="타원_134" data-name="타원 134" cx="7.1" cy="7.1" r="7.1" transform="translate(3094.991 2169.637)" fill="#eb8896"/>
      <g id="그룹_450" data-name="그룹 450">
        <path id="패스_2615" data-name="패스 2615" d="M3073.739,2178.069c2.869,0,2.869-4.449,0-4.449s-2.87,4.449,0,4.449Z" fill="#1a1311"/>
      </g>
      <g id="그룹_451" data-name="그룹 451">
        <path id="패스_2616" data-name="패스 2616" d="M3094.5,2170.712c2.869,0,2.869-4.449,0-4.449s-2.869,4.449,0,4.449Z" fill="#1a1311"/>
      </g>
      <path id="패스_2617" data-name="패스 2617" d="M3087.885,2174.663a3.789,3.789,0,0,0-1.228-3.487,2.872,2.872,0,0,0-3.608.233c-1.2.95-1.361,2.071-1.313,3.552A19.311,19.311,0,0,0,3087.885,2174.663Z" fill="#f7b79b"/>
      <g id="그룹_452" data-name="그룹 452">
        <path id="패스_2618" data-name="패스 2618" d="M3080.288,2177.7a6.5,6.5,0,0,0,11.589-4,.4.4,0,0,0-.8,0,5.706,5.706,0,0,1-10.225,3.431c-.326-.4-.888.17-.565.565Z" fill="#1a1311"/>
      </g>
      <path id="패스_2619" data-name="패스 2619" d="M3089.481,2163.094c6.424.21,13.405.38,19.709-1.431-.1-.363-.219-.719-.351-1.066a18.24,18.24,0,0,0-10.191-9.97c-4.421-1.84-9.264-2.22-14.012-2.1-4.188.1-8.476.328-12.488,1.723-3.594,1.251-6.282,2.828-7.879,6.632A59.713,59.713,0,0,0,3089.481,2163.094Z" fill="#ffd500"/>
      <path id="패스_2620" data-name="패스 2620" d="M3064.629,2170.381c1.206-4.559,2.714-10.566,2.222-15.865-3.171,1.3-6.193,4.134-8.344,6.684a24.472,24.472,0,0,0-5.083,9.91c-1.56,6.382-1.5,12.7,2.311,18.211A63.491,63.491,0,0,0,3064.629,2170.381Z" fill="#ffd500"/>
      <g id="그룹_453" data-name="그룹 453">
        <path id="패스_2621" data-name="패스 2621" d="M3066.947,2158.147a60.565,60.565,0,0,0,22.534,4.947c6.424.21,13.405.38,19.709-1.431-.1-.363-.219-.719-.351-1.066" fill="#ffd500" stroke="#1a1311" stroke-linecap="round" stroke-linejoin="round" stroke-width="1.341"/>
        <path id="패스_2622" data-name="패스 2622" d="M3055.735,2189.321a63.491,63.491,0,0,0,8.894-18.94c1.206-4.559,2.714-10.566,2.222-15.865" fill="#ffd500" stroke="#1a1311" stroke-linecap="round" stroke-linejoin="round" stroke-width="1.341"/>
      </g>
      <g id="그룹_458" data-name="그룹 458">
        <g id="그룹_454" data-name="그룹 454">
          <path id="패스_2623" data-name="패스 2623" d="M3069.439,2190.612a13.838,13.838,0,1,1,13.838-13.838A13.853,13.853,0,0,1,3069.439,2190.612Zm0-26.068a12.23,12.23,0,1,0,12.231,12.23A12.245,12.245,0,0,0,3069.439,2164.544Z" fill="#00924b"/>
        </g>
        <g id="그룹_455" data-name="그룹 455">
          <path id="패스_2624" data-name="패스 2624" d="M3099.058,2178.509a13.837,13.837,0,1,1,13.838-13.837A13.852,13.852,0,0,1,3099.058,2178.509Zm0-26.067a12.23,12.23,0,1,0,12.231,12.23A12.244,12.244,0,0,0,3099.058,2152.442Z" fill="#00924b"/>
        </g>
        <g id="그룹_457" data-name="그룹 457">
          <g id="그룹_456" data-name="그룹 456">
            <path id="패스_2625" data-name="패스 2625" d="M3079.975,2168.128a3.306,3.306,0,0,1,5.211-1.73c.851.586,1.648-.8.806-1.38a4.91,4.91,0,0,0-7.558,2.686c-.3.987,1.241,1.407,1.541.424Z" fill="#00924b"/>
          </g>
        </g>
      </g>
    </g>
  </g>
</svg>
