<svg xmlns="http://www.w3.org/2000/svg" width="30" height="28.855" viewBox="0 0 30 28.855">
  <path id="패스_2205" data-name="패스 2205" d="M2591.564,1858.788a3.327,3.327,0,0,0-4.188-2.135l-7.324,2.379v-7.7a3.324,3.324,0,1,0-6.649,0v7.7l-7.322-2.378a3.325,3.325,0,0,0-2.055,6.324l7.323,2.378-4.526,6.23a3.324,3.324,0,1,0,5.38,3.907l4.525-6.229,4.526,6.229a3.324,3.324,0,1,0,5.379-3.907l-4.525-6.23,7.323-2.378A3.325,3.325,0,0,0,2591.564,1858.788Z" transform="translate(-2561.728 -1848.009)" fill="#ffc400"/>
</svg>
