<svg xmlns="http://www.w3.org/2000/svg" width="203.017" height="192.633" viewBox="0 0 203.017 192.633">
  <g id="vector_flower-p-b" transform="translate(-91.325 -388.027)">
    <path id="패스_7833" data-name="패스 7833" d="M166.249,454.165a6.562,6.562,0,0,0-2.973.717c-6.532,2.606-8.254,8.313-8.931,14.473-.281,2.556.259,5.179-.309,7.78-.819,3.762.389,6.628,3.967,8.415a33.469,33.469,0,0,1,3.2,2.249c7.8,5.14,15.833,2.685,18.894-6.016,1.2-3.414,1.634-7.1,2.418-10.658C183.139,463.779,177.185,455.514,166.249,454.165Z" transform="translate(19.964 21.132)" fill="#fffdfd"/>
    <path id="패스_7834" data-name="패스 7834" d="M292.353,497.01c-.459-2.412-1.138-4.714-3.193-6.318h0l.005-.018a3.055,3.055,0,0,0-1.752-3h0v-.036c-.416-.62-.932-1.159-1.4-1.734-2.51-2.623-4.811-5.5-7.588-7.8a25.581,25.581,0,0,0-8.753-5.076c-6.211-1.915-6.506-3.34-2.414-8.663.478-.623,1.039-1.181,1.531-1.792,4.6-5.72,5.913-12.457,6.88-19.57.911-6.708-1.829-11.583-5.686-16.3a28.351,28.351,0,0,0-8.494-6.9,12.44,12.44,0,0,0-3.617-1.4c-10.289-1.886-20.6-4.136-30.813.412a4.451,4.451,0,0,1-1.539.227c-4.571.242-8.513,2.217-12.4,4.4-1.545.868-3.043,2.134-5.049,1.411-5.913-16.368-7.662-19.359-15.185-25.968l-1.619-1.405,0,0-.022-.024c-3.035-4.625-7.692-6.536-12.816-7.663v0h0a29.827,29.827,0,0,0-12.309-1.712,21.425,21.425,0,0,0-11.135,3.208c-8.155,5.458-12.106,13.192-12.654,22.982-.269,4.8,1.347,9.273,1.531,13.944a28.475,28.475,0,0,0,3.215,11.971c.123,1.288.141,2.6.387,3.861.97,5,.874,5.17-4.24,5.449-2.332.128-4.669.17-7,.259a4.852,4.852,0,0,0-3.493,1.44h0l-.012-.047a23.339,23.339,0,0,0-15.835,6.292h0l-.054-.021c-4.348,2.717-8.745,5.359-13.015,8.193a6.436,6.436,0,0,0-2.8,4.516l0,0a40.265,40.265,0,0,0-9.642,28.238,17.485,17.485,0,0,0,5.313,11.948,40.523,40.523,0,0,0,12.743,9.014c6.953,3.013,14.595,3.79,21.418,7.135,1.341.656,3.077.521,4.636.715,5.177.647,10.365,1.2,15.528,1.945,2.433.35,3.575,1.931,3.617,4.394a3.771,3.771,0,0,1-.055,1.558c-1.785,3.775-.777,7.829-.747,11.647.04,5.139.717,10.458,4.006,14.911,2.758,3.733,5.141,7.795,8.251,11.2,1.7,1.853,3.277,4.074,5.812,5.19,10.362,4.562,22.043,3.051,28.621-3.306,5.206-5.029,10.558-10.24,13.024-17.446,3.253-2.445,4.352-5.868,4.434-9.754h0a10.059,10.059,0,0,0,1.659-5.172,15.819,15.819,0,0,1,2.668-7.957c.42-.082.726-.248.928-.165,2.406,1.006,4.82,1.993,7.184,3.089,12.714,5.9,25.588,7.1,38.887,1.866,5.493-2.161,9.985-5.67,14.381-9.381,2.656-2.242,3.49-5.757,5.439-8.555,4.319-6.2,5.269-13.564,5.243-21A3.885,3.885,0,0,0,292.353,497.01ZM144.891,472.73c-2.473,2.444-5.6,3.816-8.721,5.146-8.823,3.758-16.568,8.781-21.21,17.585a1.8,1.8,0,0,1-1.207.784c-1.007.132-1.312-.718-1.416-1.467a13.325,13.325,0,0,1,4.642-12.658c1.576-1.361,3.137-2.736,4.7-4.105.013-.008.024-.021.037-.03.6-.4,1.042-.99,1.634-1.405l.011-.011.007.029h0a3.744,3.744,0,0,0,3.112-1.618l-.008,0h0a3.2,3.2,0,0,0,3.081-1.672l.022-.011.005-.005a12.282,12.282,0,0,0,1.6-1.518c4.043-1.031,8.073-2.195,12.292-2.142a3,3,0,0,1,1.942,1.1C146.005,471.436,145.448,472.181,144.891,472.73Zm57.591,19.527c-.784,3.56-1.218,7.243-2.418,10.657-3.06,8.7-11.1,11.157-18.894,6.017a33.473,33.473,0,0,0-3.2-2.249c-3.577-1.787-4.786-4.653-3.967-8.415.567-2.6.028-5.226.307-7.78.678-6.16,2.4-11.867,8.932-14.473a6.566,6.566,0,0,1,2.973-.717C197.149,476.646,203.1,484.911,202.483,492.257Zm46.5-48.051a35.57,35.57,0,0,1-2.363,5.768A3.988,3.988,0,0,1,243.6,452.3a98.082,98.082,0,0,0-16.965,3c-2.268-1.236-5.959.8-6.954-2.019-.728-2.064,1.978-4.3,3.695-5.579,4.757-3.551,9.475-7.516,16.252-6.384,1.969.329,4.113-.541,6.189-.67C247.754,440.529,249.511,442.471,248.982,444.206Z" fill="#ff847c"/>
  </g>
</svg>
