<svg xmlns="http://www.w3.org/2000/svg" width="132" height="132" viewBox="0 0 132 132">
  <g id="그룹_1337" data-name="그룹 1337" transform="translate(-561 -3933)">
    <circle id="icon" cx="66" cy="66" r="66" transform="translate(561 3933)" fill="#fff"/>
    <g id="그룹_702" data-name="그룹 702" transform="translate(-2183.636 -1978.008)">
      <path id="패스_4705" data-name="패스 4705" d="M2857.978,5957.387c-2.3-9.469-8.1-15.96-17.5-18.611-9.552-2.695-17.987-.062-25.187,6.666-1.364,1.275-2.6,3.544-4.032,3.663-1.657.138-2.837-2.3-4.215-3.619a25.9,25.9,0,0,0-19.249-7.7c-18.991.579-30.393,21.586-20.644,37.947a3.149,3.149,0,0,1,.294,3.331,10.757,10.757,0,0,0,.338,9.919,61.058,61.058,0,0,0,8.02,11.683,2.833,2.833,0,0,1,.912,2.264c-.569,7.461,2.81,12.7,9.4,15.911,6.024,2.937,12.47,3.6,19.091,3.268,2.434-.124,4.818-.821,7.283-.537,2.495.289,5,.52,6.814.707,6.912-.24,13-1.006,18.468-4.306,5.546-3.346,8.213-8.269,7.793-14.744a3.34,3.34,0,0,1,.969-2.669,61.364,61.364,0,0,0,7.818-11.3,10.845,10.845,0,0,0,.407-10.308,2.933,2.933,0,0,1,.309-3.133A24.159,24.159,0,0,0,2857.978,5957.387Zm-79.326,41.292a53.438,53.438,0,0,1-8.059-11.921c-2.328-5.015,1.5-11.345,6.611-11.076a6.853,6.853,0,0,1,5.46,3.379c1.561,2.323,3.083,4.673,4.626,7.008.53.8,1.1,1.512,2.242,1.316,1.219-.21,1.338-1.156,1.473-2.089.218-1.491.432-2.984.591-4.482.116-1.086.582-1.773,1.743-1.764,1.13.009,1.595.7,1.829,1.738a23.294,23.294,0,0,1-.194,12.129,3.021,3.021,0,0,0,.97,3.438,42.771,42.771,0,0,0,8.759,6.264c-7.892,1.288-15.633,1.3-23.109-1.854A7.569,7.569,0,0,1,2778.652,5998.679Zm43.661,19.719a64.7,64.7,0,0,0,19.714-12.975C2841.678,6014.1,2831.462,6018.409,2822.313,6018.4Zm29.271-31.426a58.791,58.791,0,0,1-12.606,16.524c-8.486,7.962-18.345,13.213-29.983,14.715-7.122.92-14.193.78-20.9-2.283-5.45-2.491-8.228-6.632-7.892-11.809,11.962,4.4,23.647,3.773,35.207-.805a32.743,32.743,0,0,0,10.971-7.041,2.869,2.869,0,0,0,.909-3.249,22.71,22.71,0,0,1-.234-12.116c.267-1.129.689-1.9,1.924-1.871,1.151.032,1.568.794,1.69,1.851.188,1.638.447,3.269.663,4.9a1.6,1.6,0,0,0,1.237,1.566,1.787,1.787,0,0,0,2.041-.823c1.512-2.267,3.046-4.519,4.544-6.795,2.563-3.9,5.981-5.135,9.229-3.315A8.418,8.418,0,0,1,2851.584,5986.972Zm1.055-13.871c-.525,1.018-.846,1.324-2.018.589a9.9,9.9,0,0,0-13.529,2.776c-.879,1.213-1.661,2.5-2.683,4.039-1.137-3.517-3.107-5.22-5.643-5.134a5.372,5.372,0,0,0-4.944,3.859c-.962,4.146-1.622,8.367-.412,12.56a2.808,2.808,0,0,1-1.328,3.611c-.362.231-.677.535-1.03.782-3.133,2.184-6.547,4.956-10.167,4.658-4.25-.351-8.058-3.162-11.452-6.028a2.112,2.112,0,0,1-.728-2.477c1.308-4.277.681-8.537-.167-12.777a5.461,5.461,0,0,0-4.928-4.173,5.581,5.581,0,0,0-5.246,3.463c-.179.429.062,1.016-.652,1.423-.785-1.175-1.549-2.36-2.354-3.517-3.291-4.73-8.931-6.016-13.8-3.021-1.061.652-1.394.421-1.89-.513-7.261-13.678,1.7-30.167,16.306-31.713a22.206,22.206,0,0,1,18.767,6.718c1.484,1.466,2.992,2.911,4.412,4.438,1.4,1.507,2.629,1.387,4-.049a71.2,71.2,0,0,1,5.679-5.607c7.19-6.009,15.3-7.607,23.867-3.652,8.357,3.857,12.282,10.935,12.428,20.043A20.411,20.411,0,0,1,2852.639,5973.1Z" fill="#080304"/>
      <path id="패스_4706" data-name="패스 4706" d="M2842.7,5943.356c-8.57-3.955-16.677-2.357-23.867,3.652a71.2,71.2,0,0,0-5.679,5.607c-1.373,1.436-2.6,1.556-4,.049-1.42-1.527-2.928-2.972-4.412-4.438a22.206,22.206,0,0,0-18.767-6.718c-14.609,1.546-23.567,18.035-16.306,31.713.5.934.829,1.165,1.89.513,4.866-3,10.506-1.709,13.8,3.021.805,1.157,1.569,2.342,2.354,3.517.714-.407.473-.994.652-1.423a5.581,5.581,0,0,1,5.246-3.463,5.461,5.461,0,0,1,4.928,4.173c.848,4.24,1.475,8.5.167,12.777a2.112,2.112,0,0,0,.728,2.477c3.394,2.866,7.2,5.677,11.452,6.028,3.62.3,7.034-2.474,10.167-4.658.353-.247.668-.551,1.03-.782a2.808,2.808,0,0,0,1.328-3.611c-1.21-4.193-.55-8.414.412-12.56a5.372,5.372,0,0,1,4.944-3.859c2.536-.086,4.506,1.617,5.643,5.134,1.022-1.544,1.8-2.826,2.683-4.039a9.9,9.9,0,0,1,13.529-2.776c1.172.735,1.493.429,2.018-.589a20.411,20.411,0,0,0,2.493-9.7C2854.986,5954.291,2851.061,5947.213,2842.7,5943.356Z" fill="#e13944"/>
      <path id="패스_4707" data-name="패스 4707" d="M2848.387,5976.426c-3.248-1.82-6.666-.582-9.229,3.315-1.5,2.276-3.032,4.528-4.544,6.795a1.787,1.787,0,0,1-2.041.823,1.6,1.6,0,0,1-1.237-1.566c-.216-1.636-.475-3.267-.663-4.9-.122-1.057-.539-1.819-1.69-1.851-1.235-.033-1.657.742-1.924,1.871a22.71,22.71,0,0,0,.234,12.116,2.869,2.869,0,0,1-.909,3.249,32.743,32.743,0,0,1-10.971,7.041c-11.56,4.578-23.245,5.2-35.207.805-.336,5.177,2.442,9.318,7.892,11.809,6.7,3.063,13.775,3.2,20.9,2.283,11.638-1.5,21.5-6.753,29.983-14.715a58.791,58.791,0,0,0,12.606-16.524A8.418,8.418,0,0,0,2848.387,5976.426Z" fill="#fad1c2"/>
      <path id="패스_4708" data-name="패스 4708" d="M2804.7,6002.619a42.771,42.771,0,0,1-8.759-6.264,3.021,3.021,0,0,1-.97-3.438,23.294,23.294,0,0,0,.194-12.129c-.234-1.042-.7-1.729-1.829-1.738-1.161-.009-1.627.678-1.743,1.764-.159,1.5-.373,2.991-.591,4.482-.135.933-.254,1.879-1.473,2.089-1.145.2-1.712-.514-2.242-1.316-1.543-2.335-3.065-4.685-4.626-7.008a6.853,6.853,0,0,0-5.46-3.379c-5.111-.269-8.939,6.061-6.611,11.076a53.438,53.438,0,0,0,8.059,11.921,7.569,7.569,0,0,0,2.942,2.086C2789.07,6003.923,2796.811,6003.907,2804.7,6002.619Z" fill="#fad1c2"/>
      <path id="패스_4709" data-name="패스 4709" d="M2842.027,6005.423a64.7,64.7,0,0,1-19.714,12.975C2831.462,6018.409,2841.678,6014.1,2842.027,6005.423Z" fill="#fad1c2"/>
    </g>
  </g>
</svg>
