<svg xmlns="http://www.w3.org/2000/svg" width="132" height="132" viewBox="0 0 132 132">
  <g id="그룹_1338" data-name="그룹 1338" transform="translate(-893 -3933)">
    <circle id="icon" cx="66" cy="66" r="66" transform="translate(893 3933)" fill="#fff"/>
    <g id="그룹_701" data-name="그룹 701" transform="translate(-1982.935 -1984)">
      <g id="그룹_698" data-name="그룹 698" transform="translate(2899.559 6007.451)">
        <path id="패스_4689" data-name="패스 4689" d="M2978.156,6011.167a3.775,3.775,0,0,1-1.558-2.462,7.068,7.068,0,0,0-12.506-3.106,2.414,2.414,0,0,1-2.468.979,5.281,5.281,0,0,0-6.307,5.164,2.4,2.4,0,0,1-1.4,2.251c-1.8.973-2.545,2.507-2.117,4.074a3.737,3.737,0,0,0,3.914,2.745c3.166.019,6.333.005,9.5,0,3.227,0,6.454.027,9.68-.008a5.287,5.287,0,0,0,5.235-3.82A4.961,4.961,0,0,0,2978.156,6011.167Z" transform="translate(-2895.678 -6002.867)" fill="#d0db6e"/>
        <path id="패스_4690" data-name="패스 4690" d="M2925.922,6014.031a2.456,2.456,0,0,1-1.5-2.361,5.286,5.286,0,0,0-6.2-5.113,2.393,2.393,0,0,1-2.5-.877,7.083,7.083,0,0,0-12.6,3.093,3.585,3.585,0,0,1-1.455,2.329,5.015,5.015,0,0,0-2.043,5.957,5.349,5.349,0,0,0,5.468,3.754c3.107.017,6.216,0,9.323,0,3.227,0,6.454.017,9.68-.006a3.71,3.71,0,0,0,3.864-2.812A3.5,3.5,0,0,0,2925.922,6014.031Z" transform="translate(-2899.323 -6002.866)" fill="#d0db6e"/>
      </g>
      <g id="그룹_699" data-name="그룹 699" transform="translate(2911.371 5953.608)">
        <path id="패스_4691" data-name="패스 4691" d="M2971.463,5976.915a2.113,2.113,0,0,0-.912-1.937q-14.308-10.934-28.542-21.966a1.444,1.444,0,0,0-2.144-.016q-14.234,11.032-28.542,21.968a2.113,2.113,0,0,0-.939,1.922c.029,8.2.046,16.391-.017,24.586-.008,1.1.382,1.457,1.338,1.618a9.475,9.475,0,0,1,4.853,2.507,2.509,2.509,0,0,0,1.87.792,8.19,8.19,0,0,1,6.231,2.659,2.85,2.85,0,0,0,2.344.925c4.606-.033,9.212-.016,13.818-.016,3.35,0,6.7.014,10.05,0,2.854-.014,5.715.468,8.027-2.177,1.351-1.547,3.953-.86,5.641-1.7,1.8-.9,3.3-2.479,5.4-2.961a2.656,2.656,0,0,1,.352-.071c.956-.089,1.188-.6,1.183-1.545Q2971.409,5989.208,2971.463,5976.915Zm-17.129,13.015c-3.512,4.371-8.071,7.622-12.221,11.309a1.612,1.612,0,0,1-2.286.06c-4.33-3.841-9.156-7.169-12.669-11.862-2.582-3.45-3.255-7.246-1.388-11.271a8.569,8.569,0,0,1,14.257-2.381c.366.38.618,1.556,1.514.375a8.36,8.36,0,0,1,9.994-2.5,9.6,9.6,0,0,1,5.558,9.065A11.456,11.456,0,0,1,2954.334,5989.93Z" transform="translate(-2910.366 -5952.527)" fill="#f6f9fb"/>
        <path id="패스_4692" data-name="패스 4692" d="M2952.356,6009.59c-4.179-.015-8.358-.009-12.537-.009h-2.149q-5.283,0-10.567,0c-.524,0-1.2-.125-.9.785.232.721,3.354,2.8,4.144,2.8,5.492,0,10.987-.1,16.476.045,2.409.063,4.526-.108,6.061-2.232.268-.371.829-.594.585-1.146C2953.255,6009.361,2952.735,6009.591,2952.356,6009.59Z" transform="translate(-2909.269 -5948.559)" fill="#f6f9fb"/>
      </g>
      <g id="그룹_700" data-name="그룹 700" transform="translate(2899.542 5940.651)">
        <path id="패스_4693" data-name="패스 4693" d="M2982.48,5970.886c-.365-.31-.741-.605-1.121-.9q-18.271-14.042-36.542-28.083c-2.574-1.979-3.654-1.988-6.189-.04-4.075,3.133-8.173,6.238-12.221,9.405-.115.089-.228.169-.34.242l-1.058.814-11.037,8.493-1.121.861c-.092.082-.187.162-.292.241q-5.863,4.436-11.645,8.979a3.6,3.6,0,0,0-.827,5.228c1.119,1.484,3.319,1.649,5.149.377.344-.238.667-.506,1-.761q16.709-12.84,33.394-25.706c1.477-1.146,2.546-1.242,4.073-.051,8.626,6.725,17.328,13.355,26,20.02,2.8,2.147,5.566,4.334,8.393,6.442,1.931,1.441,3.9,1.194,5.209-.526C2984.557,5974.278,2984.25,5972.395,2982.48,5970.886Z" transform="translate(-2899.308 -5940.414)" fill="#e13944"/>
        <path id="패스_4694" data-name="패스 4694" d="M2945,5975.465a6.853,6.853,0,0,0-3.385,4.212c-.345.944-.871,1.621-1.884,1.613s-1.543-.692-1.861-1.646a9.219,9.219,0,0,0-1.047-2.062,4.805,4.805,0,0,0-4.962-2.511,5.269,5.269,0,0,0-4.354,4c-.9,2.9.211,5.273,1.989,7.422,2.8,3.382,6.342,5.972,9.594,8.871.4.353.716.547,1.209.1,3.417-3.07,7.174-5.779,10.061-9.414a8.394,8.394,0,0,0,1.96-4.734C2952.277,5976.745,2948.454,5973.855,2945,5975.465Z" transform="translate(-2897.366 -5938.005)" fill="#e13944"/>
      </g>
      <path id="패스_4695" data-name="패스 4695" d="M2939.094,5995.363c.4.353.716.547,1.209.1,3.417-3.07,7.174-5.779,10.061-9.414a8.394,8.394,0,0,0,1.96-4.734c-.047-4.573-3.87-7.462-7.32-5.853a6.853,6.853,0,0,0-3.385,4.212c-.345.944-.871,1.621-1.884,1.613s-1.543-.692-1.861-1.646a9.219,9.219,0,0,0-1.047-2.062,4.805,4.805,0,0,0-4.962-2.511,5.269,5.269,0,0,0-4.354,4c-.9,2.9.211,5.273,1.989,7.422C2932.3,5989.874,2935.841,5992.463,2939.094,5995.363Z" transform="translate(2.176 2.645)" fill="none"/>
      <path id="패스_4696" data-name="패스 4696" d="M2943.7,5949.99c8.626,6.725,17.328,13.355,26,20.02,2.8,2.147,5.566,4.334,8.393,6.442,1.931,1.441,3.9,1.194,5.209-.526,1.25-1.647.943-3.531-.827-5.039-.365-.31-.741-.605-1.121-.9q-18.271-14.042-36.542-28.083c-2.574-1.979-3.654-1.988-6.189-.04-4.075,3.133-8.173,6.238-12.221,9.405-.115.089-.228.169-.34.242l-1.058.814-11.037,8.493-1.121.861c-.092.082-.187.162-.292.241q-5.863,4.436-11.645,8.979a3.6,3.6,0,0,0-.827,5.228c1.119,1.484,3.319,1.649,5.149.377.344-.238.667-.506,1-.761q16.709-12.84,33.394-25.706C2941.106,5948.9,2942.175,5948.8,2943.7,5949.99Z" transform="translate(0.235 0.237)" fill="none"/>
      <path id="패스_4697" data-name="패스 4697" d="M2911.7,6003.09a9.475,9.475,0,0,1,4.853,2.507,2.509,2.509,0,0,0,1.87.792,8.19,8.19,0,0,1,6.231,2.659,2.85,2.85,0,0,0,2.344.925c4.606-.033,9.212-.016,13.818-.016,3.35,0,6.7.014,10.05,0,2.854-.014,5.715.468,8.027-2.177,1.351-1.547,3.953-.86,5.641-1.7,1.8-.9,3.3-2.479,5.4-2.961a2.656,2.656,0,0,1,.352-.071c.956-.089,1.188-.6,1.183-1.545q-.063-12.293-.009-24.586a2.113,2.113,0,0,0-.912-1.937q-14.308-10.934-28.542-21.966a1.444,1.444,0,0,0-2.144-.016q-14.234,11.032-28.542,21.968a2.113,2.113,0,0,0-.939,1.922c.029,8.2.046,16.391-.017,24.586C2910.359,6002.57,2910.748,6002.928,2911.7,6003.09Zm14.065-24.925a8.569,8.569,0,0,1,14.257-2.381c.366.38.618,1.556,1.514.375a8.36,8.36,0,0,1,9.994-2.5,9.6,9.6,0,0,1,5.558,9.065,11.456,11.456,0,0,1-2.758,7.2c-3.512,4.371-8.071,7.622-12.221,11.309a1.612,1.612,0,0,1-2.286.06c-4.33-3.841-9.156-7.169-12.669-11.862C2924.576,5985.987,2923.9,5982.19,2925.77,5978.165Z" transform="translate(1.004 1.08)" fill="none"/>
      <path id="패스_4698" data-name="패스 4698" d="M2925.922,6014.031a2.456,2.456,0,0,1-1.5-2.361,5.286,5.286,0,0,0-6.2-5.113,2.393,2.393,0,0,1-2.5-.877,7.083,7.083,0,0,0-12.6,3.093,3.585,3.585,0,0,1-1.455,2.329,5.015,5.015,0,0,0-2.043,5.957,5.349,5.349,0,0,0,5.468,3.754c3.107.017,6.216,0,9.323,0,3.227,0,6.454.017,9.68-.006a3.71,3.71,0,0,0,3.864-2.812A3.5,3.5,0,0,0,2925.922,6014.031Z" transform="translate(0.236 4.585)" fill="none"/>
      <path id="패스_4699" data-name="패스 4699" d="M2953.466,6009.838c-.212-.477-.732-.247-1.11-.248-4.179-.015-8.358-.009-12.537-.009h-2.149q-5.283,0-10.567,0c-.524,0-1.2-.125-.9.785.232.721,3.354,2.8,4.144,2.8,5.492,0,10.987-.1,16.476.045,2.409.063,4.526-.108,6.061-2.232C2953.149,6010.613,2953.71,6010.39,2953.466,6009.838Z" transform="translate(2.101 5.049)" fill="none"/>
      <path id="패스_4700" data-name="패스 4700" d="M2978.156,6011.167a3.775,3.775,0,0,1-1.558-2.462,7.068,7.068,0,0,0-12.506-3.106,2.414,2.414,0,0,1-2.468.979,5.281,5.281,0,0,0-6.307,5.164,2.4,2.4,0,0,1-1.4,2.251c-1.8.973-2.545,2.507-2.117,4.074a3.737,3.737,0,0,0,3.914,2.745c3.166.019,6.333.005,9.5,0,3.227,0,6.454.027,9.68-.008a5.287,5.287,0,0,0,5.235-3.82A4.961,4.961,0,0,0,2978.156,6011.167Z" transform="translate(3.881 4.584)" fill="none"/>
      <path id="패스_4701" data-name="패스 4701" d="M2948.795,6016.3q-9.134-.011-18.268,0c-.366,0-.843-.179-.955.48-.171,1.011-.419,2.009-.641,3.043h21.417c-.231-1.036-.5-2-.646-2.983C2949.607,6016.184,2949.182,6016.3,2948.795,6016.3Z" transform="translate(2.297 5.518)" fill="#b19fa5"/>
      <path id="패스_4702" data-name="패스 4702" d="M2984.932,6013.393a3.636,3.636,0,0,1-1.091-1.744,10.238,10.238,0,0,0-6.548-7.066,1.64,1.64,0,0,1-1.272-1.894c.043-7.241.018-14.481.034-21.722,0-.369-.216-.822.208-1.125a1.582,1.582,0,0,1,.347.1c3.846,2.2,7.681,1.511,9.976-1.792,2.333-3.357,1.6-7.368-1.886-10.1-2.4-1.881-4.774-3.8-7.267-5.543a3.114,3.114,0,0,1-1.418-2.967c.061-6.7.016-13.4.038-20.105.005-1.409-.46-2.354-2-2.365q-5.2-.037-10.412,0a1.8,1.8,0,0,0-1.959,2.033c-.007,1.377,0,2.753,0,4.13v7.116c-5.186-3.988-10.053-7.747-14.938-11.483-3.084-2.359-6.279-2.5-9.233-.278-4.4,3.3-8.715,6.7-13.093,10.025-.075.057-.146.114-.216.173l-14.009,10.76c-3.959,3.04-7.969,6.021-11.83,9.182a7.184,7.184,0,0,0,2.957,12.292c2.351.61,4.4-.139,6.5-1.293,0,7.929-.028,15.647.035,23.366.009.985-.488,1.183-1.164,1.426a10.42,10.42,0,0,0-6.678,7.173,3.621,3.621,0,0,1-1.116,1.727,8.779,8.779,0,0,0-2.307,9.815,8.869,8.869,0,0,0,8.477,5.755q36.89.009,73.781,0a8.963,8.963,0,0,0,6.09-15.6Zm-18.513-72.964h5.307c.52,0,.691.36.747.86l-.018,4.441c0,.224-.009.443-.008.646,0-.074,0-.153.007-.229h0c0,.075-.007.154-.007.229,0,.416,0,.833,0,1.249v.2c.007,3.4,0,6.791-.014,10.186,0,.09-.1.18-.233.389-2.126-1.623-4.227-3.255-6.365-4.839a1.64,1.64,0,0,1-.569-1.569c.008-3.342.034-6.685-.016-10.026C2965.237,5941.012,2965.338,5940.326,2966.419,5940.428Zm-59.95,35.556c-.331.255-.654.522-1,.761-1.83,1.272-4.03,1.107-5.149-.377a3.6,3.6,0,0,1,.827-5.228q5.773-4.553,11.645-8.979c.1-.079.2-.16.292-.241l1.121-.861,11.037-8.493,1.058-.814c.112-.073.226-.153.34-.242,4.048-3.167,8.146-6.272,12.221-9.405,2.535-1.948,3.614-1.939,6.189.04q18.27,14.043,36.542,28.083c.38.292.756.587,1.121.9,1.77,1.508,2.077,3.392.827,5.039-1.306,1.72-3.278,1.967-5.209.526-2.827-2.108-5.6-4.295-8.393-6.442-8.675-6.665-17.376-13.294-26-20.02-1.527-1.191-2.6-1.095-4.073.051Q2923.213,5963.19,2906.469,5975.984Zm4.918,1.982a2.113,2.113,0,0,1,.939-1.922q14.308-10.936,28.542-21.968a1.444,1.444,0,0,1,2.144.016q14.236,11.029,28.542,21.966a2.113,2.113,0,0,1,.912,1.937q-.037,12.292.009,24.586c.005.943-.227,1.457-1.183,1.545a2.656,2.656,0,0,0-.352.071c-2.1.482-3.593,2.065-5.4,2.961-1.688.838-4.29.151-5.641,1.7-2.313,2.645-5.174,2.163-8.027,2.177-3.35.018-6.7,0-10.05,0-4.606,0-9.213-.017-13.818.016a2.85,2.85,0,0,1-2.344-.925,8.19,8.19,0,0,0-6.231-2.659,2.509,2.509,0,0,1-1.87-.792,9.475,9.475,0,0,0-4.853-2.507c-.956-.162-1.346-.52-1.338-1.618C2911.434,5994.357,2911.417,5986.161,2911.388,5977.966Zm16.81,44.618a3.71,3.71,0,0,1-3.864,2.812c-3.226.023-6.453.006-9.68.006-3.107,0-6.216.013-9.323,0a5.349,5.349,0,0,1-5.468-3.754,5.015,5.015,0,0,1,2.043-5.957,3.585,3.585,0,0,0,1.455-2.329,7.083,7.083,0,0,1,12.6-3.093,2.393,2.393,0,0,0,2.5.877,5.286,5.286,0,0,1,6.2,5.113,2.456,2.456,0,0,0,1.5,2.361A3.5,3.5,0,0,1,2928.2,6022.584Zm3.03,2.76c.221-1.035.47-2.033.641-3.043.112-.659.589-.48.955-.48q9.134-.017,18.268,0c.387,0,.812-.115.907.543.142.983.415,1.948.646,2.983Zm23.755-9.311c-1.536,2.124-3.652,2.3-6.061,2.232-5.489-.144-10.984-.045-16.476-.045-.79,0-3.912-2.084-4.144-2.8-.294-.91.38-.785.9-.785q5.283,0,10.567,0h2.149c4.179,0,8.358-.006,12.537.009.379,0,.9-.229,1.11.248C2955.812,6015.439,2955.25,6015.662,2954.983,6016.033Zm29.028,5.54a5.287,5.287,0,0,1-5.235,3.82c-3.226.035-6.453.008-9.68.008-3.167,0-6.334.015-9.5,0a3.737,3.737,0,0,1-3.914-2.745c-.429-1.567.317-3.1,2.117-4.074a2.4,2.4,0,0,0,1.4-2.251,5.281,5.281,0,0,1,6.307-5.164,2.414,2.414,0,0,0,2.468-.979,7.068,7.068,0,0,1,12.506,3.106,3.775,3.775,0,0,0,1.558,2.462A4.961,4.961,0,0,1,2984.011,6021.573Z" transform="translate(0 0)" fill="#070304"/>
      <path id="패스_4703" data-name="패스 4703" d="M2967.989,5942.423c-.01-.344,0-.7-.006-1.025-.02-.663-.139-1.191-.768-1.191h-5.307c-1.081-.1-1.182.584-1.168,1.539.05,3.341.023,6.684.016,10.026a1.64,1.64,0,0,0,.569,1.569c2.138,1.584,4.239,3.216,6.365,4.839.128-.209.232-.3.233-.389.012-3.879.027-7.758.013-11.637C2967.932,5945.12,2968.027,5943.765,2967.989,5942.423Z" transform="translate(4.511 0.222)" fill="#b19fa5"/>
      <path id="패스_4704" data-name="패스 4704" d="M2938.894,5999.969a1.612,1.612,0,0,0,2.286-.06c4.15-3.687,8.708-6.937,12.221-11.309a11.456,11.456,0,0,0,2.758-7.2,9.6,9.6,0,0,0-5.558-9.065,8.36,8.36,0,0,0-9.994,2.5c-.9,1.18-1.148,0-1.514-.375a8.569,8.569,0,0,0-14.257,2.381c-1.867,4.025-1.194,7.822,1.388,11.271C2929.739,5992.8,2934.564,5996.128,2938.894,5999.969Zm-11.145-20.664a5.269,5.269,0,0,1,4.354-4,4.805,4.805,0,0,1,4.962,2.511,9.219,9.219,0,0,1,1.047,2.062c.318.953.847,1.637,1.861,1.646s1.538-.668,1.884-1.613a6.853,6.853,0,0,1,3.385-4.212c3.45-1.609,7.272,1.28,7.32,5.853a8.394,8.394,0,0,1-1.96,4.734c-2.887,3.635-6.644,6.343-10.061,9.414-.494.445-.814.25-1.209-.1-3.253-2.9-6.8-5.489-9.594-8.871C2927.959,5984.579,2926.85,5982.208,2927.749,5979.306Z" transform="translate(1.938 2.409)" fill="#070304"/>
    </g>
  </g>
</svg>
