<?xml version="1.0" encoding="utf-8"?>
<!-- Generator: Adobe Illustrator 22.1.0, SVG Export Plug-In . SVG Version: 6.00 Build 0)  -->
<svg version="1.1" id="Layer_1" xmlns="http://www.w3.org/2000/svg" xmlns:xlink="http://www.w3.org/1999/xlink" x="0px" y="0px"
	 viewBox="0 0 66 66" style="enable-background:new 0 0 66 66;" xml:space="preserve">
<style type="text/css">
	.st0{fill:#FFFFFF;}
</style>
<g>
	<path class="st0" d="M54.7,29.7c0,1.4-0.1,2.9-0.3,4.4c0,0.1,0,0.1,0,0.2c0.3,0.2,0.5,0.5,0.5,0.6c0.3,0.8,0.1,1.6-0.6,2.3
		c-0.9,1.1-1.7,2.3-2.3,3.6c-0.2,0.5-0.8,0.7-1.3,0.5c-0.5-0.2-0.7-0.8-0.5-1.3c0.7-1.5,1.6-2.8,2.6-4.1c0,0,0,0,0.1-0.1
		c0,0,0,0,0,0c-0.1,0-0.2,0-0.4,0c-1.3,0.2-3.5,3-4.5,4.2l-0.3,0.4c-0.7,1-1.9,1.7-3.1,1.9c-4.3,0.6-5.2,0.9-7.4,4.3
		c-1.2,1.9-1.6,3.5-1,4.4c0.4,0.7,1.4,1,2.6,0.9c1.6-0.1,3.2-0.6,4.4-1.6c0,0,0.1,0,0.1-0.1c0.2-0.1,4.7-2.9,6.5-3.8
		c1.1-0.5,4.6-7.1,6.1-10.8c0.7-1.8,0.2-7.3-0.4-8.6C55.1,27.2,54.7,27.6,54.7,29.7z"/>
	<path class="st0" d="M46.1,22.8C46.1,22.8,46.1,22.8,46.1,22.8l0-0.4c-0.1-3.5-2.9-6.3-6.4-6.3c-2.5,0.1-4.7,1.5-5.8,3.8
		c-0.2,0.4-0.5,0.6-0.9,0.6s-0.7-0.2-0.9-0.6c-1.1-2.3-3.3-3.8-5.9-3.8c-3.5,0-6.3,2.9-6.4,6.4c0,0.1,0,0.1,0,0.2c0,0.1,0,0.1,0,0.2
		c0,0.2-0.3,4.3,4.5,9c2.7,2.7,5.7,5.2,8.7,7.6c3-2.4,5.9-4.9,8.7-7.6C46.5,27.1,46.1,22.9,46.1,22.8z"/>
	<path class="st0" d="M33,0C14.8,0,0,14.8,0,33s14.8,33,33,33s33-14.8,33-33S51.2,0,33,0z M31.6,52c-0.7,1.2-2.2,1.9-4,1.9
		c-0.2,0-0.3,0-0.5,0c-2-0.1-3.9-0.8-5.5-2c-0.5-0.3-4.6-2.9-6.2-3.6c-2.5-1.2-7.1-11.7-7.2-11.8c-0.9-2.3-0.5-9,0.8-10.7
		c0.5-0.7,1-0.7,1.3-0.7c2.6,0.1,3,2.6,3,4.7c0,1.4,0.1,2.7,0.3,4.1c0.1,0,0.2,0,0.3,0c1.9,0.3,3.9,2.6,5.7,4.9l0.3,0.4
		c0.5,0.7,1.2,1.1,1.9,1.2c4.6,0.7,6.1,1.1,8.7,5.2C32.7,48.8,32.3,50.8,31.6,52z M33,41.7c-0.2,0-0.4-0.1-0.6-0.2
		c-3.3-2.6-6.5-5.3-9.4-8.2c-5.1-5-5.1-9.8-5.1-10.5c0-0.1,0-0.2,0-0.3c0.1-4.6,3.8-8.3,8.4-8.3c2.7,0.1,5.2,1.3,6.7,3.4
		c1.6-2.1,4-3.4,6.7-3.4c4.6,0,8.4,3.8,8.4,8.3l0,0.3c0,0.6,0.1,5.4-5.1,10.5c-3,2.9-6.2,5.7-9.4,8.2C33.4,41.6,33.2,41.7,33,41.7z
		 M50.6,48.3c-1.6,0.7-5.7,3.3-6.2,3.6c-1.6,1.2-3.5,2-5.5,2c-0.2,0-0.3,0-0.5,0c-1.8,0-3.2-0.7-4-1.9c-0.7-1.1-1-3.2,1.1-6.5
		c2.6-4.1,4.2-4.5,8.8-5.2c0.7-0.1,1.4-0.5,1.9-1.2l0.3-0.4c1.9-2.3,3.9-4.6,5.7-4.9c0.1,0,0.2,0,0.3,0c0.2-1.3,0.3-2.7,0.3-4
		c0-2.1,0.3-4.6,3-4.7c0.3,0,0.8,0.1,1.3,0.7c1.2,1.7,1.7,8.5,0.8,10.7C57.7,36.5,53.1,47.1,50.6,48.3z"/>
	<path class="st0" d="M21.5,42.2c-1.3-0.2-2.4-0.9-3.2-2L18,39.9c-1-1.2-3.2-4-4.5-4.2c-0.2,0-0.3,0-0.4,0c0,0,0,0,0.1,0.1
		c1,1.2,1.9,2.6,2.6,4.1c0.2,0.5,0,1.1-0.5,1.3c-0.5,0.2-1.1,0-1.3-0.5c-0.6-1.3-1.4-2.5-2.3-3.6c-0.7-0.6-1-1.5-0.6-2.3
		c0.1-0.1,0.2-0.4,0.5-0.6c0-0.1,0-0.1,0-0.2c-0.2-1.4-0.3-2.9-0.3-4.4c0-2-0.3-2.5-0.7-2.6c-0.6,1.3-1.2,6.9-0.4,8.6
		c1.5,3.7,5,10.3,6.1,10.8c1.8,0.8,6.3,3.7,6.5,3.8c0,0,0.1,0,0.1,0.1c1.2,1,2.8,1.6,4.4,1.6c1.3,0.1,2.3-0.3,2.7-0.9
		c0.5-0.9,0.2-2.5-1-4.4C26.7,43.1,25.7,42.9,21.5,42.2z"/>
</g>
</svg>
