<svg xmlns="http://www.w3.org/2000/svg" width="221" height="55.201" viewBox="0 0 221 55.201">
  <g id="그룹_1162" data-name="그룹 1162" transform="translate(-228.97 -122.492)">
    <g id="그룹_1155" data-name="그룹 1155" transform="translate(228.97 122.492)">
      <g id="그룹_1154" data-name="그룹 1154" transform="translate(0.455 0.453)">
        <path id="패스_7990" data-name="패스 7990" d="M240.4,137.068a18.981,18.981,0,0,1,1.712,1.41c.22.213.412.435.612.655a24.02,24.02,0,0,1,2.194-1.867c-.681-1.063-1.367-2.145-2.061-3.3-.03-.05-.054-.093-.082-.142-.39.556-.757,1.123-1.16,1.673S240.8,136.542,240.4,137.068Z" transform="translate(-216.222 -109.848)" fill="none"/>
        <path id="패스_7991" data-name="패스 7991" d="M237.442,132.32l.032-.052c.47-.832.129-1.436-1.3-2.3-.2-.114-.44-.194-.655-.289l-1.147,4.378A3.8,3.8,0,0,0,237.442,132.32Z" transform="translate(-223.187 -114.642)" fill="#fff"/>
        <path id="패스_7992" data-name="패스 7992" d="M232.193,127.634a2.128,2.128,0,0,0-.726.129,1.953,1.953,0,0,0-1.25,1.25,3.214,3.214,0,0,0,.483,2.2c.052.108.127.2.188.3l3.46-3A3.9,3.9,0,0,0,232.193,127.634Z" transform="translate(-228.056 -117.003)" fill="#fff"/>
        <path id="패스_7993" data-name="패스 7993" d="M234.425,128.3l-3.692,3.205c.138.17.274.341.422.513l.287.334a8.507,8.507,0,0,0,1.837,1.561l2.772-4.466C235.447,129.047,234.885,128.65,234.425,128.3Z" transform="translate(-227.388 -116.235)" fill="#fff"/>
        <path id="패스_7994" data-name="패스 7994" d="M237.054,130.009a12.491,12.491,0,0,1-1.6-.7c-.144-.08-.269-.172-.412-.257l-2.77,4.458a13.657,13.657,0,0,0,2.619,1.117,5.334,5.334,0,0,0,.959.151l1.244-4.751Z" transform="translate(-225.608 -115.362)" fill="#fff"/>
        <path id="패스_7995" data-name="패스 7995" d="M240.554,132.935c1.955-1.464-2.628-3.511-2.628-3.511S238.6,134.4,240.554,132.935Z" transform="translate(-219.076 -114.935)" fill="#fff"/>
        <path id="패스_7996" data-name="패스 7996" d="M251.779,132.973c.252.069.556-.078.9-.435.384-.4.537-.759.451-1.067-.177-.647-1.237-1.129-1.849-1.343l-.035.034a8.118,8.118,0,0,1,1.405,1.47.454.454,0,0,1-.136.627.464.464,0,0,1-.246.071.454.454,0,0,1-.382-.207,7.955,7.955,0,0,0-1.347-1.371l-.082.065C250.693,131.615,251.184,132.807,251.779,132.973Z" transform="translate(-204.595 -114.121)" fill="#db3d88"/>
        <path id="패스_7997" data-name="패스 7997" d="M250.829,130.252l.1-.373h0l-.317.261c.039.015.082,0,.116.032Z" transform="translate(-204.412 -114.409)" fill="#db3d88"/>
        <path id="패스_7998" data-name="패스 7998" d="M250.435,130.368c.013.054.032.114.05.172l.082-.065C250.519,130.437,250.472,130.4,250.435,130.368Z" transform="translate(-204.621 -113.844)" fill="#db3d88"/>
        <path id="패스_7999" data-name="패스 7999" d="M250.782,130.108l.088.078.035-.034Z" transform="translate(-204.22 -114.144)" fill="#db3d88"/>
        <path id="패스_8000" data-name="패스 8000" d="M250.5,130.225l-.291.235v0l.375-.086A.456.456,0,0,1,250.5,130.225Z" transform="translate(-204.886 -114.009)" fill="#db3d88"/>
        <g id="그룹_1149" data-name="그룹 1149" transform="translate(21.38)">
          <path id="패스_8001" data-name="패스 8001" d="M248.451,122.714a6.677,6.677,0,0,1,2.444,2.847l1.007,2.231,4.389-1.979A12.147,12.147,0,0,0,248.451,122.714Z" transform="translate(-228.294 -122.688)" fill="#ffc400"/>
          <path id="패스_8002" data-name="패스 8002" d="M249.9,132.111l-.455-1.007-.006-.015v0a6.851,6.851,0,0,1,2.49-8.385H241.911c-.047.063-.1.119-.147.181-.093.129-.2.244-.289.375s-.194.246-.278.379a14.333,14.333,0,0,0-1.218,2.466,15.672,15.672,0,0,0-.565,8.174,14.623,14.623,0,0,0,.673,2.007c.088.226.131.461.231.683l.354.782,3.776-1.7,2.414-1.091,2.328-1.05.44-.2.438-.2.386-.175-.259-.569Z" transform="translate(-239.1 -122.702)" fill="#ffc400"/>
          <path id="패스_8003" data-name="패스 8003" d="M249.587,124.394l-.564.254.826,1.831.564-.255-.046-.1Z" transform="translate(-227.633 -120.746)" fill="#ffc400"/>
          <rect id="사각형_170" data-name="사각형 170" width="7.649" height="2.009" transform="matrix(0.911, -0.411, 0.411, 0.911, 11.354, 8.431)" fill="#ffc400"/>
        </g>
        <g id="그룹_1150" data-name="그룹 1150" transform="translate(23.237)">
          <path id="패스_8004" data-name="패스 8004" d="M251.326,127.16a.446.446,0,0,1-.011-.345.454.454,0,0,1,.237-.252l2.238-1.011a.455.455,0,0,1,.6.226l.524-.237A5.761,5.761,0,0,0,251.9,122.9a5.885,5.885,0,0,0-.729-.2h-2.729a5.9,5.9,0,0,0-.992.336,5.8,5.8,0,0,0-3.059,7.249Z" transform="translate(-235.229 -122.702)" fill="#278e2a"/>
          <path id="패스_8005" data-name="패스 8005" d="M266.834,124.46l-5.16,2.33-.979.442.078.17a.451.451,0,0,1-.228.6l-2.237,1.011a.469.469,0,0,1-.185.039.454.454,0,0,1-.414-.267l-.078-.17-7.385,3.332-1.1.5-.476.216-.481.218-2.345,1.058-2.013.908-3.867,1.746c.535,1.2,1.106,2.41,1.774,3.611.487.871,1.054,1.824,1.606,2.761.086.147.164.285.252.433s.162.282.252.433c.1.17.183.323.289.5.681,1.134,1.356,2.2,2.022,3.242a33.8,33.8,0,0,1,3.768-2.3,28.073,28.073,0,0,1,9.014-3.08c.056-.009.108-.009.164-.015-.272-.151-.528-.261-.789-.388a13.411,13.411,0,0,0-2.763-1.028,10.564,10.564,0,0,0-1.188-.177,9.257,9.257,0,0,0-3.895.336,5.012,5.012,0,0,0-.707.291.453.453,0,1,1-.446-.789,9.392,9.392,0,0,1,6.132-.606,12.892,12.892,0,0,1,1.752.5,14.845,14.845,0,0,1,2.669,1.224.439.439,0,0,1,.172.552,17.991,17.991,0,0,1,7.546.834,16.755,16.755,0,0,1,2.694,1.259v-6.167a2.492,2.492,0,0,0-.729-.356h-.006c-.071,0-.168.149-.276.328a1.516,1.516,0,0,1-1.263.862,1.085,1.085,0,0,1-1.093-.586,1.2,1.2,0,0,1-.119-.39,2.013,2.013,0,0,1-.668.093,2.43,2.43,0,0,1-2.084,2.481,1.434,1.434,0,0,1-.377-.052c-.974-.272-1.558-1.578-1.847-2.436-.121-.362-.2-.653-.216-.739l.442-.1v0l.291-.235a.412.412,0,0,1,.593-.485l.317-.261h0l.123-.438a7.564,7.564,0,0,1,.754.272,6.237,6.237,0,0,1,.563.269,1.392,1.392,0,0,1,.526-.994,1.641,1.641,0,0,1-.233-.257,1.368,1.368,0,0,1-.121-.131,1.238,1.238,0,0,1-.151-.877,1.3,1.3,0,0,1,.075-.39,1.908,1.908,0,0,1,1.134-1,1.424,1.424,0,0,1,1.16.108,1.45,1.45,0,0,1,.25-.394,1.544,1.544,0,0,1,1.558-.487,1.225,1.225,0,0,1,.879,1.037,2.714,2.714,0,0,1-.007.7,2.226,2.226,0,0,0-.019.414.82.82,0,0,0,.543.595v-1.64A12.2,12.2,0,0,0,266.834,124.46Z" transform="translate(-239.961 -120.671)" fill="#278e2a"/>
          <path id="패스_8006" data-name="패스 8006" d="M255.116,129.655a3.193,3.193,0,0,1,.019-.591,1.909,1.909,0,0,0,.013-.466c-.037-.226-.151-.285-.233-.308a.652.652,0,0,0-.625.213.691.691,0,0,0-.05.77.454.454,0,0,1-.819.39,1.413,1.413,0,0,0-.515-.573.52.52,0,0,0-.435-.032,1,1,0,0,0-.58.5.389.389,0,0,0,.011.405,1.338,1.338,0,0,0,1.02.463.454.454,0,0,1,0,.907h0a1.455,1.455,0,0,0-.882.235.552.552,0,0,0-.2.451.692.692,0,0,0,.261.554c.343.248,1.071-.028,1.38-.422a.453.453,0,1,1,.716.556v0a.857.857,0,0,0-.183.739c.011.022.022.108.261.086.123,0,.274-.047.468-.36.231-.375.552-.886,1.179-.828a1.825,1.825,0,0,1,.649.22V131.14A1.833,1.833,0,0,1,255.116,129.655Z" transform="translate(-226.243 -116.265)" fill="#278e2a"/>
        </g>
        <g id="그룹_1151" data-name="그룹 1151">
          <path id="패스_8007" data-name="패스 8007" d="M253.4,142.671a45.079,45.079,0,0,1-2.123-4.318,10.291,10.291,0,0,1-.612-1.862,14.96,14.96,0,0,1-.073-10.709,15.4,15.4,0,0,1,1.214-2.457c-.071-.019-.142-.06-.216-.078a10.849,10.849,0,0,0-3.16-.336.378.378,0,0,1-.379-.209h-6.609a12.285,12.285,0,0,0-12.233,11.97,1.238,1.238,0,0,1,.565.287,1.673,1.673,0,0,1,.4,1.724,1.549,1.549,0,0,1-.267.5l.037.019a1.537,1.537,0,0,1,.752,1.03,2.074,2.074,0,0,1-.306,1.615,1.388,1.388,0,0,1-1.209.621v4.766a20.294,20.294,0,0,1,5.559-1.093,21.938,21.938,0,0,1,2.729.045,2.093,2.093,0,0,1,.614-.239,11.511,11.511,0,0,1,1.384-.923,5.892,5.892,0,0,1-1.265-.183,14.378,14.378,0,0,1-3.08-1.345.436.436,0,0,1-.177-.05c-.032-.019-.034-.06-.06-.084a9.794,9.794,0,0,1-2.345-1.953l-.278-.328A7.672,7.672,0,0,1,231,137.3a3.961,3.961,0,0,1-.541-2.819,2.835,2.835,0,0,1,1.815-1.869c1.768-.647,3.253.487,4.443,1.4a22.223,22.223,0,0,0,2.744,1.845,11.627,11.627,0,0,0,1.487.647,12.256,12.256,0,0,1,1.671.739c.819.5,2.709,1.638,1.632,3.539l-.037.06a4.14,4.14,0,0,1-.681.83,9.1,9.1,0,0,1,3.041.123.453.453,0,0,1-.237.875,5.451,5.451,0,0,0-.58-.108,9.3,9.3,0,0,0-6.41,1.561c-.1.067-.2.151-.3.224.325.043.651.093.983.149.183.03.373.073.558.11.2.037.405.078.61.121.08.015.16.028.239.045a.408.408,0,0,0-.06-.131l.451-.211.416-.2a1.384,1.384,0,0,1,.188.765c.782.2,1.571.412,2.382.673a34.335,34.335,0,0,1,5.473,2.268,23.12,23.12,0,0,1,2.345,1.44c.4-.522.817-1.024,1.207-1.558.483-.66.925-1.334,1.388-2C254.59,144.738,253.954,143.662,253.4,142.671Zm-16.186-10.812a.435.435,0,0,1-.2.05.452.452,0,0,1-.4-.248,2.48,2.48,0,0,0-2.356-1.358.454.454,0,0,1-.114-.9,3.389,3.389,0,0,1,3.279,1.849A.452.452,0,0,1,237.215,131.859Zm1.222-3.649a6.487,6.487,0,0,1-1.063.086,3.2,3.2,0,0,1-1.548-.319.454.454,0,0,1,.457-.785,3.823,3.823,0,0,0,2,.123.459.459,0,0,1,.524.373A.452.452,0,0,1,238.437,128.209Zm8.715,8.592a.439.439,0,0,1-.28.1.454.454,0,0,1-.356-.172,2.478,2.478,0,0,0-2.632-.683.452.452,0,0,1-.573-.285.456.456,0,0,1,.282-.576,3.369,3.369,0,0,1,3.636.983A.451.451,0,0,1,247.152,136.8Zm-.407-4.29a.454.454,0,0,1,.9-.125,3.83,3.83,0,0,0,.72,1.871.454.454,0,0,1-.306.789.447.447,0,0,1-.3-.119A4.687,4.687,0,0,1,246.744,132.512Zm3.914,8.191c-1.955,1.464-2.628-3.511-2.628-3.511S252.614,139.239,250.659,140.7Z" transform="translate(-229.181 -122.702)" fill="#004b9e"/>
          <path id="패스_8008" data-name="패스 8008" d="M229.181,128.72v.9a.72.72,0,0,0,.134-.177A.79.79,0,0,0,229.181,128.72Z" transform="translate(-229.181 -115.748)" fill="#004b9e"/>
          <path id="패스_8009" data-name="패스 8009" d="M229.647,131.156a1.177,1.177,0,0,0,.166-.886.647.647,0,0,0-.3-.438,1.663,1.663,0,0,0-.328-.067v1.619l.026.011A.469.469,0,0,0,229.647,131.156Z" transform="translate(-229.181 -114.539)" fill="#004b9e"/>
        </g>
        <path id="패스_8010" data-name="패스 8010" d="M246.382,141.447a1.014,1.014,0,1,0-1.369-.429A1.016,1.016,0,0,0,246.382,141.447Z" transform="translate(-211.019 -103.251)" fill="#ffc400"/>
        <path id="패스_8011" data-name="패스 8011" d="M265.314,133.9a17.4,17.4,0,0,0-8.221-.7,27.242,27.242,0,0,0-8.719,2.985,32.972,32.972,0,0,0-3.708,2.261c-.121.086-.257.168-.375.254s-.239.185-.362.278a23.574,23.574,0,0,0-2.087,1.78,10.781,10.781,0,0,1,1.815,3.276,9.622,9.622,0,0,1,.347,4.91,10.3,10.3,0,0,1-1.688,3.934c-.2.289-.418.576-.651.851a.81.81,0,0,1,.037.075c.162-.1.31-.2.487-.293,1.267-.66,2.449-.9,2.641-.535s-.681,1.2-1.949,1.86c-.207.108-.405.188-.6.272a10.894,10.894,0,0,1,.748,3.473,10.719,10.719,0,0,1-.515,3.716,14.969,14.969,0,0,1-.845,2.043H256.05a12.3,12.3,0,0,0,12.261-12.261V135.347A15.915,15.915,0,0,0,265.314,133.9Zm.05,7.512c1.267-.662,2.449-.9,2.638-.535s-.681,1.2-1.946,1.858-2.447.9-2.638.537S264.1,142.079,265.364,141.417Zm-15.246,7.57a1.014,1.014,0,1,1,.429-1.369A1.016,1.016,0,0,1,250.118,148.987Zm6.908,4.787a11.4,11.4,0,0,1-4.953,1.22,4.373,4.373,0,0,1-2.729-.735,2.033,2.033,0,0,1-.593-2.317c.541-1.873,1.774-1.8,2.962-1.735a5.626,5.626,0,0,0,3.24-.532,5.017,5.017,0,0,0,2.145-2.462c.082-.16.168-.319.257-.476a4.443,4.443,0,0,1,.319-.483,2.082,2.082,0,0,1,.509-.5,1.612,1.612,0,0,1,1.069-.213,3.205,3.205,0,0,1,.869.248c.1.041.188.065.3.116a3.066,3.066,0,0,1,.3.2,2.232,2.232,0,0,1,1.114,1.877C261.85,150,259.352,152.559,257.026,153.775Z" transform="translate(-214.754 -110.791)" fill="#ffc400"/>
        <path id="패스_8012" data-name="패스 8012" d="M249.433,141.822a4.493,4.493,0,0,0-2.153,2.494,10.166,10.166,0,0,0,2.839-.946,10.918,10.918,0,0,0,2.546-1.9A4.493,4.493,0,0,0,249.433,141.822Z" transform="translate(-208.267 -101.192)" fill="#db3d88"/>
        <path id="패스_8013" data-name="패스 8013" d="M242.258,144.5c.2-.084.4-.164.6-.272,1.267-.662,2.138-1.494,1.949-1.86s-1.373-.125-2.641.535c-.177.095-.325.194-.487.293.17.319.328.64.466.964C242.2,144.27,242.215,144.389,242.258,144.5Z" transform="translate(-214.735 -100.174)" fill="#db3d88"/>
        <path id="패스_8014" data-name="패스 8014" d="M251.771,139.149c.192.366,1.373.125,2.638-.537s2.138-1.494,1.946-1.858-1.371-.127-2.638.535S251.579,138.782,251.771,139.149Z" transform="translate(-203.108 -106.663)" fill="#db3d88"/>
        <g id="그룹_1152" data-name="그룹 1152" transform="translate(0 3.864)">
          <path id="패스_8015" data-name="패스 8015" d="M250.507,127.151l-.187-.414-.826-1.831-.186-.411-1.41.636.186.412.826,1.831.187.414.077.171,1.41-.636Z" transform="translate(-207.551 -124.495)" fill="#cb0023"/>
          <path id="패스_8016" data-name="패스 8016" d="M255.58,141.384c-.093-.119-.2-.233-.293-.349s-.188-.235-.291-.349c-.2-.218-.338-.455-.556-.664a18.313,18.313,0,0,0-1.638-1.349c-.123-.093-.224-.2-.351-.289s-.252-.168-.375-.254a23.108,23.108,0,0,0-2.214-1.358,33.467,33.467,0,0,0-5.326-2.205c-.78-.252-1.543-.461-2.3-.649-.144-.037-.293-.08-.435-.114s-.3-.056-.446-.088c-.366-.082-.724-.149-1.082-.213-.149-.028-.3-.065-.448-.088l0,0c-.041-.006-.084-.017-.125-.024-.183-.03-.364-.058-.545-.084-.373-.054-.733-.08-1.1-.114-.108-.011-.218-.026-.323-.034s-.187-.022-.278-.03c-.071,0-.144-.017-.213-.022-.129-.009-.257-.015-.384-.022-.037,0-.073,0-.11,0-.668-.028-1.326-.037-1.957,0a19.231,19.231,0,0,0-5.609,1.145v13.054c.379.159.774.3,1.129.489.138.075.257.168.39.248s.269.188.407.278a10.45,10.45,0,0,1,4.464,11.871,9.723,9.723,0,0,1-.957,2.041,12.185,12.185,0,0,0,6.827,2.091h3.412a9.681,9.681,0,0,1,.366-1.694,10.042,10.042,0,0,1,4.984-5.8c.138-.073.265-.16.407-.226s.287-.1.427-.155a11.07,11.07,0,0,1,4.884-.826c-.026-.073-.043-.151-.071-.224-.037-.095-.054-.194-.093-.289-.112-.263-.257-.524-.392-.785-.075-.144-.134-.293-.218-.438a.452.452,0,0,1,.054-.528,10.762,10.762,0,0,0,.8-1.013,9.393,9.393,0,0,0,1.539-3.589,8.693,8.693,0,0,0-.317-4.449A9.96,9.96,0,0,0,255.58,141.384Z" transform="translate(-229.181 -114.601)" fill="#cb0023"/>
        </g>
        <path id="패스_8017" data-name="패스 8017" d="M234.684,134.616c-.257-.741-2.184-.752-4.307-.019a10.962,10.962,0,0,0-1.2.5v2.658a9.268,9.268,0,0,0,2.125-.461C233.43,136.556,234.941,135.359,234.684,134.616Z" transform="translate(-229.181 -109.586)" fill="#fff" opacity="0.3"/>
        <path id="패스_8018" data-name="패스 8018" d="M231.108,140.669c-.138-.091-.265-.192-.407-.278s-.252-.172-.39-.248c-.356-.192-.75-.33-1.129-.489v4.757a12.276,12.276,0,0,0,5.434,10.17,9.723,9.723,0,0,0,.957-2.041A10.45,10.45,0,0,0,231.108,140.669Z" transform="translate(-229.181 -103.114)" fill="#db3d88"/>
        <path id="패스_8019" data-name="패스 8019" d="M247.521,143.519a11.07,11.07,0,0,0-4.884.826c-.14.058-.291.093-.427.155s-.269.153-.407.226a10.042,10.042,0,0,0-4.984,5.8,9.68,9.68,0,0,0-.366,1.694h10.234a15.763,15.763,0,0,0,.987-2.324,9.742,9.742,0,0,0,.47-3.4A9.907,9.907,0,0,0,247.521,143.519Z" transform="translate(-220.779 -98.667)" fill="#db3d88"/>
        <g id="그룹_1153" data-name="그룹 1153">
          <path id="패스_8020" data-name="패스 8020" d="M230.7,131.812a1.537,1.537,0,0,0-.752-1.03l-.037-.019a1.549,1.549,0,0,0,.267-.5,1.673,1.673,0,0,0-.4-1.724,1.237,1.237,0,0,0-.565-.287c0,.1-.028.192-.028.293v.709a.79.79,0,0,1,.134.722.72.72,0,0,1-.134.177v1.356a1.664,1.664,0,0,1,.328.067.647.647,0,0,1,.3.438,1.177,1.177,0,0,1-.166.886.469.469,0,0,1-.44.239l-.026-.011v.916a1.388,1.388,0,0,0,1.209-.621A2.074,2.074,0,0,0,230.7,131.812Z" transform="translate(-229.181 -116.285)"/>
          <path id="패스_8021" data-name="패스 8021" d="M233.933,125.921a6.488,6.488,0,0,0,1.063-.086.452.452,0,0,0,.371-.522.459.459,0,0,0-.524-.373,3.823,3.823,0,0,1-2-.123.454.454,0,0,0-.457.785A3.2,3.2,0,0,0,233.933,125.921Z" transform="translate(-225.74 -120.328)"/>
          <path id="패스_8022" data-name="패스 8022" d="M231.807,126.725a2.48,2.48,0,0,1,2.356,1.358.452.452,0,0,0,.4.248.435.435,0,0,0,.2-.05.452.452,0,0,0,.2-.608,3.389,3.389,0,0,0-3.279-1.849.454.454,0,0,0,.114.9Z" transform="translate(-226.737 -119.125)"/>
          <path id="패스_8023" data-name="패스 8023" d="M238.644,130.064a.454.454,0,0,0,.306-.789,3.83,3.83,0,0,1-.72-1.871.454.454,0,0,0-.9.125,4.687,4.687,0,0,0,1.009,2.416A.447.447,0,0,0,238.644,130.064Z" transform="translate(-219.768 -117.719)"/>
          <path id="패스_8024" data-name="패스 8024" d="M236.322,129.446a2.478,2.478,0,0,1,2.632.683.454.454,0,0,0,.356.172.439.439,0,0,0,.28-.1.451.451,0,0,0,.078-.636,3.369,3.369,0,0,0-3.636-.983.456.456,0,0,0-.282.576A.452.452,0,0,0,236.322,129.446Z" transform="translate(-221.619 -116.105)"/>
          <path id="패스_8025" data-name="패스 8025" d="M246.617,132.594a.487.487,0,0,0,.134.019.453.453,0,0,0,.433-.323,3.811,3.811,0,0,1,1.709-1.8.455.455,0,0,0-.082-.839,4.083,4.083,0,0,0-3.563.269.45.45,0,0,0-.086.629.456.456,0,0,0,.632.1,2.679,2.679,0,0,1,1.746-.321,3.737,3.737,0,0,0-1.222,1.7A.454.454,0,0,0,246.617,132.594Z" transform="translate(-210.82 -114.955)"/>
          <path id="패스_8026" data-name="패스 8026" d="M250.293,126.956a1.347,1.347,0,1,0,1.849.459A1.35,1.35,0,0,0,250.293,126.956Z" transform="translate(-205.539 -118.009)"/>
          <path id="패스_8027" data-name="패스 8027" d="M282.194,136.01a2.226,2.226,0,0,1,.019-.414,2.715,2.715,0,0,0,.007-.7,1.225,1.225,0,0,0-.879-1.037,1.544,1.544,0,0,0-1.558.487,1.45,1.45,0,0,0-.25.394,1.423,1.423,0,0,0-1.16-.108,1.908,1.908,0,0,0-1.134,1,1.3,1.3,0,0,0-.075.39c-.047.028-.1.035-.138.082a15.542,15.542,0,0,1-9.122,5.744,9.392,9.392,0,0,0-6.133.606.453.453,0,1,0,.446.789,5.015,5.015,0,0,1,.707-.291,9.257,9.257,0,0,1,3.895-.336,10.567,10.567,0,0,1,1.188.177,13.41,13.41,0,0,1,2.763,1.028c.261.127.517.237.789.388-.056.006-.108.006-.164.015a28.074,28.074,0,0,0-9.014,3.08,33.8,33.8,0,0,0-3.768,2.3c-.666-1.045-1.341-2.108-2.022-3.242-.106-.172-.187-.325-.289-.5-.091-.151-.166-.287-.252-.433s-.166-.287-.252-.433c-.552-.938-1.119-1.89-1.606-2.761-.668-1.2-1.239-2.41-1.774-3.611l3.867-1.746,2.013-.907,2.345-1.058.481-.218.476-.216,1.1-.5,7.385-3.332.078.17a.454.454,0,0,0,.414.267.469.469,0,0,0,.185-.039L273,130.033a.451.451,0,0,0,.228-.6l-.078-.17.979-.442,5.16-2.33c-.112-.116-.224-.228-.343-.343s-.263-.209-.39-.321l-4.389,1.979-1.007-2.231a6.677,6.677,0,0,0-2.444-2.847c-.084,0-.16-.026-.241-.026h-2.112a5.886,5.886,0,0,1,.729.2,5.761,5.761,0,0,1,3.009,2.641l-.524.237a.455.455,0,0,0-.6-.226l-2.238,1.011a.454.454,0,0,0-.237.252.446.446,0,0,0,.011.345l-6.93,3.128a5.8,5.8,0,0,1,3.059-7.249,5.9,5.9,0,0,1,.992-.336h-2.246a6.851,6.851,0,0,0-2.49,8.385v0l.006.015.455,1.007.3.657.259.569-.386.175-.438.2-.44.2-2.328,1.05-2.414,1.091-3.776,1.7-.354-.782c-.1-.222-.142-.457-.231-.683a14.621,14.621,0,0,1-.673-2.007,14.2,14.2,0,0,1,1.783-10.64c.084-.134.192-.248.278-.379s.2-.246.289-.375c.045-.063.1-.119.147-.181H248.05a.378.378,0,0,0,.379.209,10.849,10.849,0,0,1,3.16.336c.073.017.144.058.216.078a15.4,15.4,0,0,0-1.214,2.457,14.96,14.96,0,0,0,.073,10.709,10.291,10.291,0,0,0,.612,1.862,45.079,45.079,0,0,0,2.123,4.318c.554.992,1.19,2.067,1.826,3.143-.463.668-.905,1.343-1.388,2-.39.535-.806,1.037-1.207,1.558a23.12,23.12,0,0,0-2.345-1.44,34.335,34.335,0,0,0-5.473-2.268c-.81-.261-1.6-.476-2.382-.673a1.384,1.384,0,0,0-.188-.765l-.416.2-.451.211a.408.408,0,0,1,.06.131c-.08-.017-.16-.03-.239-.045-.2-.043-.407-.084-.61-.121-.185-.037-.375-.08-.558-.11-.332-.056-.657-.106-.983-.149.1-.073.2-.157.3-.224a9.3,9.3,0,0,1,6.41-1.561,5.451,5.451,0,0,1,.58.108.453.453,0,0,0,.237-.875,9.1,9.1,0,0,0-3.041-.123,4.14,4.14,0,0,0,.681-.83l.037-.06c1.078-1.9-.813-3.044-1.632-3.539a12.256,12.256,0,0,0-1.671-.739,11.627,11.627,0,0,1-1.487-.647,22.223,22.223,0,0,1-2.744-1.845c-1.19-.912-2.675-2.046-4.443-1.4a2.835,2.835,0,0,0-1.815,1.869A3.961,3.961,0,0,0,231,137.3a7.672,7.672,0,0,0,1.257,1.778l.278.328a9.794,9.794,0,0,0,2.345,1.953c.026.024.028.065.06.084a.436.436,0,0,0,.177.05,14.378,14.378,0,0,0,3.08,1.345,5.892,5.892,0,0,0,1.265.183,11.511,11.511,0,0,0-1.384.923,2.093,2.093,0,0,0-.614.239,21.938,21.938,0,0,0-2.729-.045,20.294,20.294,0,0,0-5.559,1.093v.959a19.231,19.231,0,0,1,5.609-1.145c.632-.035,1.289-.026,1.957,0,.037,0,.073,0,.11,0,.127.006.254.013.384.022.069,0,.142.017.213.022.091.009.185.022.278.03s.216.024.323.034c.364.035.724.06,1.1.114.181.026.362.054.545.084.041.006.084.017.125.024l0,0c.147.024.3.06.448.088.358.065.716.132,1.082.213.151.032.293.052.446.088s.291.078.435.114c.752.188,1.515.4,2.3.649a33.467,33.467,0,0,1,5.326,2.205,23.1,23.1,0,0,1,2.214,1.358c.123.086.254.168.375.254s.228.2.351.289a18.313,18.313,0,0,1,1.638,1.349c.218.209.358.446.556.664.1.114.194.233.291.349s.2.231.293.349a9.96,9.96,0,0,1,1.643,2.891,8.693,8.693,0,0,1,.317,4.449A9.393,9.393,0,0,1,256,164.278a10.762,10.762,0,0,1-.8,1.013.452.452,0,0,0-.054.528c.084.144.142.293.218.438.136.261.28.522.392.785.039.095.056.194.093.289.028.073.045.151.071.224a9.908,9.908,0,0,1,.623,2.981,9.743,9.743,0,0,1-.47,3.4,15.763,15.763,0,0,1-.987,2.324h1a14.967,14.967,0,0,0,.845-2.043,10.719,10.719,0,0,0,.515-3.716,10.894,10.894,0,0,0-.748-3.473c-.043-.112-.062-.231-.11-.341-.138-.323-.3-.644-.466-.964a.8.8,0,0,0-.037-.075c.233-.276.451-.563.651-.851a10.3,10.3,0,0,0,1.688-3.934,9.622,9.622,0,0,0-.347-4.91,10.78,10.78,0,0,0-1.815-3.276,23.569,23.569,0,0,1,2.087-1.78c.123-.093.235-.188.362-.278s.254-.168.375-.254A32.968,32.968,0,0,1,262.8,148.1a27.242,27.242,0,0,1,8.719-2.985,17.4,17.4,0,0,1,8.221.7,15.912,15.912,0,0,1,3,1.442v-1.041a16.755,16.755,0,0,0-2.694-1.259,17.991,17.991,0,0,0-7.547-.834.439.439,0,0,0-.172-.552,14.845,14.845,0,0,0-2.669-1.224,17.3,17.3,0,0,0,3.464-1.582c.4-.241.78-.5,1.155-.772.289.858.873,2.164,1.847,2.436a1.433,1.433,0,0,0,.377.052A2.43,2.43,0,0,0,278.583,140a2.014,2.014,0,0,0,.668-.093,1.2,1.2,0,0,0,.119.39,1.085,1.085,0,0,0,1.093.586,1.516,1.516,0,0,0,1.263-.862c.108-.179.2-.328.276-.328h.006a2.492,2.492,0,0,1,.729.356v-1.041a1.825,1.825,0,0,0-.649-.22c-.627-.058-.948.453-1.179.828-.194.313-.345.358-.468.36-.239.022-.25-.065-.261-.086a.857.857,0,0,1,.183-.739v0a.453.453,0,1,0-.716-.556c-.308.394-1.037.67-1.38.422a.692.692,0,0,1-.261-.554.552.552,0,0,1,.2-.451,1.455,1.455,0,0,1,.882-.235h0a.454.454,0,0,0,0-.907,1.338,1.338,0,0,1-1.02-.463.389.389,0,0,1-.011-.405,1,1,0,0,1,.58-.5.519.519,0,0,1,.435.032,1.412,1.412,0,0,1,.515.573.454.454,0,0,0,.819-.39.691.691,0,0,1,.05-.77.652.652,0,0,1,.625-.213c.082.024.2.082.233.308a1.91,1.91,0,0,1-.013.466,3.193,3.193,0,0,0-.019.591,1.833,1.833,0,0,0,1.446,1.485v-.972A.819.819,0,0,1,282.194,136.01Zm-26.382,10.812c.694,1.153,1.38,2.235,2.061,3.3a24.022,24.022,0,0,0-2.194,1.867c-.2-.22-.392-.442-.612-.655a18.984,18.984,0,0,0-1.712-1.41c.4-.526.821-1.03,1.216-1.569s.769-1.117,1.16-1.673C255.759,146.73,255.782,146.773,255.813,146.822Zm16.7-20.473.78,1.731.045.1-.563.254-.826-1.832Zm-9.773,6.615-.828-1.832,6.973-3.145.826,1.83Zm7.8-3.52-.826-1.83-.187-.412,1.412-.636.185.412.826,1.83.185.414.078.17-1.41.636-.078-.17Zm-32.076,12.524a13.657,13.657,0,0,1-2.619-1.117l2.77-4.458c.142.084.267.177.412.257a12.494,12.494,0,0,0,1.6.7l.041.019-1.244,4.751A5.334,5.334,0,0,1,238.465,141.968Zm-7.124-7.256a1.953,1.953,0,0,1,1.25-1.25,2.128,2.128,0,0,1,.726-.129,3.9,3.9,0,0,1,2.153.879l-3.46,3c-.06-.1-.136-.2-.188-.3A3.215,3.215,0,0,1,231.341,134.713Zm4.878.054c.459.351,1.022.748,1.625,1.147l-2.772,4.466a8.508,8.508,0,0,1-1.837-1.561l-.287-.334c-.149-.172-.285-.343-.422-.513Zm5.945,3.259c1.433.866,1.774,1.47,1.3,2.3l-.032.052a3.8,3.8,0,0,1-3.074,1.735l1.147-4.378A7.16,7.16,0,0,1,242.164,138.026Zm32.88,1.373.082-.065a7.956,7.956,0,0,1,1.347,1.371.454.454,0,0,0,.382.207.463.463,0,0,0,.246-.071.454.454,0,0,0,.136-.627,8.118,8.118,0,0,0-1.405-1.47l.035-.034c.612.213,1.673.7,1.849,1.343.086.308-.067.668-.451,1.067-.343.358-.647.5-.9.435C275.771,141.388,275.279,140.2,275.044,139.4Zm2.391-2.373a1.64,1.64,0,0,0,.233.257,1.392,1.392,0,0,0-.526.994c-.2-.108-.384-.194-.563-.269C276.885,137.689,277.167,137.362,277.435,137.025Z" transform="translate(-229.181 -122.702)"/>
          <path id="패스_8028" data-name="패스 8028" d="M246.382,141.447a1.014,1.014,0,1,0-1.369-.429A1.016,1.016,0,0,0,246.382,141.447Z" transform="translate(-211.019 -103.251)"/>
          <path id="패스_8029" data-name="패스 8029" d="M249.408,139.864a1.013,1.013,0,1,0-1.367-.429A1.009,1.009,0,0,0,249.408,139.864Z" transform="translate(-207.52 -105.078)"/>
          <path id="패스_8030" data-name="패스 8030" d="M256.984,139.4a3.064,3.064,0,0,0-.3-.2c-.108-.052-.194-.075-.3-.116a3.205,3.205,0,0,0-.869-.248,1.612,1.612,0,0,0-1.069.213,2.082,2.082,0,0,0-.509.5,4.449,4.449,0,0,0-.319.483c-.088.157-.175.317-.257.476a5.017,5.017,0,0,1-2.145,2.462,5.626,5.626,0,0,1-3.24.532c-1.188-.069-2.421-.138-2.962,1.735a2.033,2.033,0,0,0,.593,2.317,4.372,4.372,0,0,0,2.729.735,11.4,11.4,0,0,0,4.953-1.22c2.326-1.216,4.824-3.774,4.8-5.79A2.232,2.232,0,0,0,256.984,139.4Zm-6.949,7.807a4.47,4.47,0,0,1,5.384-2.847,10.917,10.917,0,0,1-2.546,1.9A10.166,10.166,0,0,1,250.034,147.205Z" transform="translate(-211.021 -104.082)"/>
          <path id="패스_8031" data-name="패스 8031" d="M234.4,141.854a1.013,1.013,0,1,0,.623-1.927.43.43,0,0,0-.052-.006.986.986,0,0,0-.554.019,1,1,0,0,0-.67.638A1.016,1.016,0,0,0,234.4,141.854Z" transform="translate(-223.966 -102.841)"/>
          <path id="패스_8032" data-name="패스 8032" d="M239.119,141.258a1.014,1.014,0,1,0,.653,1.276A1.011,1.011,0,0,0,239.119,141.258Z" transform="translate(-219.227 -101.318)"/>
          <path id="패스_8033" data-name="패스 8033" d="M242.64,144.367a12.146,12.146,0,0,1-8.31-2.684.453.453,0,1,0-.586.692,12.47,12.47,0,0,0,4.212,2.287,12.838,12.838,0,0,0,3.919.642c.282,0,.56-.011.836-.032a.454.454,0,0,0,.416-.489A.459.459,0,0,0,242.64,144.367Z" transform="translate(-224.094 -100.892)"/>
        </g>
      </g>
      <path id="패스_8034" data-name="패스 8034" d="M270.72,176.956H241.685A12.729,12.729,0,0,1,228.97,164.24V135.207a12.729,12.729,0,0,1,12.715-12.715H270.72a12.73,12.73,0,0,1,12.715,12.715V164.24A12.73,12.73,0,0,1,270.72,176.956ZM241.685,123.4a11.82,11.82,0,0,0-11.808,11.808V164.24a11.822,11.822,0,0,0,11.808,11.81H270.72a11.823,11.823,0,0,0,11.808-11.81V135.207A11.822,11.822,0,0,0,270.72,123.4Z" transform="translate(-228.97 -122.492)" fill="#1a1311"/>
    </g>
    <g id="그룹_1161" data-name="그룹 1161" transform="translate(295.811 125.956)">
      <g id="그룹_1157" data-name="그룹 1157" transform="translate(0.192 43.014)">
        <g id="그룹_1156" data-name="그룹 1156">
          <path id="패스_8035" data-name="패스 8035" d="M260.068,144.09h.554v2.2h.017l1.821-2.2h.621l-1.364,1.666,1.578,2.7h-.612l-1.311-2.274-.75.895v1.38h-.554Z" transform="translate(-260.068 -144.012)" fill="#fff"/>
          <path id="패스_8036" data-name="패스 8036" d="M261.536,146.3c0-1.4.767-2.25,1.862-2.25s1.865.851,1.865,2.25-.77,2.274-1.865,2.274S261.536,147.7,261.536,146.3Zm3.16,0c0-1.1-.517-1.768-1.3-1.768s-1.3.673-1.3,1.768.513,1.791,1.3,1.791S264.7,147.4,264.7,146.3Z" transform="translate(-258.372 -144.054)" fill="#fff"/>
          <path id="패스_8037" data-name="패스 8037" d="M263.561,144.09h1.369c.886,0,1.524.321,1.524,1.233a1.183,1.183,0,0,1-.987,1.227l1.119,1.91h-.625l-1.061-1.852h-.785v1.852h-.554Zm1.285,2.071c.685,0,1.06-.274,1.06-.839s-.375-.78-1.06-.78h-.731v1.619Z" transform="translate(-256.032 -144.012)" fill="#fff"/>
          <path id="패스_8038" data-name="패스 8038" d="M265.177,144.09h2.518v.47h-1.964v1.369h1.655v.472h-1.655v1.589h2.028v.47h-2.582Z" transform="translate(-254.164 -144.012)" fill="#fff"/>
          <path id="패스_8039" data-name="패스 8039" d="M267.876,144.09h.614l1.481,4.369h-.582l-.418-1.332h-1.6l-.422,1.332h-.56Zm-.364,2.6h1.324l-.209-.666c-.162-.5-.3-.97-.44-1.477h-.024c-.138.513-.28.981-.435,1.477Z" transform="translate(-252.759 -144.012)" fill="#fff"/>
          <path id="패스_8040" data-name="패스 8040" d="M268.679,144.09h.571l1.589,2.757.463.9h.03c-.03-.44-.071-.929-.071-1.382V144.09h.524v4.369h-.565L269.63,145.7l-.47-.9h-.024c.024.442.065.905.065,1.364v2.291h-.522Z" transform="translate(-250.118 -144.012)" fill="#fff"/>
          <path id="패스_8041" data-name="패스 8041" d="M271.747,144.09h.612l1.483,4.369h-.584l-.416-1.332h-1.6l-.423,1.332h-.56Zm-.364,2.6H272.7l-.207-.666c-.162-.5-.3-.97-.442-1.477h-.024c-.136.513-.28.981-.433,1.477Z" transform="translate(-248.286 -144.012)" fill="#fff"/>
          <path id="패스_8042" data-name="패스 8042" d="M273.031,144.56H271.71v-.47h3.2v.47h-1.321v3.9h-.554Z" transform="translate(-246.615 -144.012)" fill="#fff"/>
          <path id="패스_8043" data-name="패스 8043" d="M273.415,144.09h.554v4.369h-.554Z" transform="translate(-244.645 -144.012)" fill="#fff"/>
          <path id="패스_8044" data-name="패스 8044" d="M273.969,146.3c0-1.4.77-2.25,1.862-2.25s1.865.851,1.865,2.25-.767,2.274-1.865,2.274S273.969,147.7,273.969,146.3Zm3.162,0c0-1.1-.519-1.768-1.3-1.768s-1.3.673-1.3,1.768.513,1.791,1.3,1.791S277.131,147.4,277.131,146.3Z" transform="translate(-244.005 -144.054)" fill="#fff"/>
          <path id="패스_8045" data-name="패스 8045" d="M275.994,144.09h.571l1.589,2.757.466.9h.028c-.028-.44-.071-.929-.071-1.382V144.09h.524v4.369h-.565l-1.589-2.757-.47-.9h-.026c.026.442.067.905.067,1.364v2.291h-.524Z" transform="translate(-241.665 -144.012)" fill="#fff"/>
          <path id="패스_8046" data-name="패스 8046" d="M279.061,144.09h.614l1.483,4.369h-.584l-.416-1.332h-1.6l-.423,1.332h-.56Zm-.362,2.6h1.321l-.207-.666c-.162-.5-.3-.97-.442-1.477h-.024c-.136.513-.28.981-.433,1.477Z" transform="translate(-239.832 -144.012)" fill="#fff"/>
          <path id="패스_8047" data-name="패스 8047" d="M279.385,144.09h.552v3.9h1.905v.47h-2.457Z" transform="translate(-237.747 -144.012)" fill="#fff"/>
          <path id="패스_8048" data-name="패스 8048" d="M281.109,146.322a2.006,2.006,0,0,1,1.934-2.268,1.614,1.614,0,0,1,1.2.541l-.3.358a1.188,1.188,0,0,0-.892-.416c-.828,0-1.375.679-1.375,1.768s.524,1.791,1.358,1.791a1.328,1.328,0,0,0,1.013-.487l.3.345a1.686,1.686,0,0,1-1.339.625C281.924,148.578,281.109,147.74,281.109,146.322Z" transform="translate(-235.755 -144.054)" fill="#fff"/>
          <path id="패스_8049" data-name="패스 8049" d="M282.848,144.09h2.516v.47H283.4v1.369h1.655v.472H283.4v1.589h2.03v.47h-2.582Z" transform="translate(-233.745 -144.012)" fill="#fff"/>
          <path id="패스_8050" data-name="패스 8050" d="M284.331,144.09h.573l1.589,2.757.463.9h.03c-.03-.44-.071-.929-.071-1.382V144.09h.524v4.369h-.565l-1.591-2.757-.47-.9h-.024c.024.442.065.905.065,1.364v2.291h-.524Z" transform="translate(-232.031 -144.012)" fill="#fff"/>
          <path id="패스_8051" data-name="패스 8051" d="M287.317,144.56h-1.323v-.47h3.2v.47h-1.321v3.9h-.554Z" transform="translate(-230.11 -144.012)" fill="#fff"/>
          <path id="패스_8052" data-name="패스 8052" d="M287.7,144.09h2.518v.47h-1.966v1.369h1.655v.472h-1.655v1.589h2.031v.47H287.7Z" transform="translate(-228.138 -144.012)" fill="#fff"/>
          <path id="패스_8053" data-name="패스 8053" d="M289.184,144.09h1.369c.886,0,1.524.321,1.524,1.233a1.183,1.183,0,0,1-.987,1.227l1.119,1.91h-.625l-1.06-1.852h-.785v1.852h-.554Zm1.285,2.071c.685,0,1.061-.274,1.061-.839s-.375-.78-1.061-.78h-.731v1.619Z" transform="translate(-226.424 -144.012)" fill="#fff"/>
          <path id="패스_8054" data-name="패스 8054" d="M291.281,144.09H293.8v.47h-1.966v1.477H293.5v.466h-1.666v1.957h-.552Z" transform="translate(-224 -144.012)" fill="#fff"/>
          <path id="패스_8055" data-name="패스 8055" d="M292.519,146.3c0-1.4.767-2.25,1.862-2.25s1.865.851,1.865,2.25-.77,2.274-1.865,2.274S292.519,147.7,292.519,146.3Zm3.162,0c0-1.1-.519-1.768-1.3-1.768s-1.3.673-1.3,1.768.513,1.791,1.3,1.791S295.681,147.4,295.681,146.3Z" transform="translate(-222.57 -144.054)" fill="#fff"/>
          <path id="패스_8056" data-name="패스 8056" d="M294.544,144.09h1.371c.886,0,1.524.321,1.524,1.233a1.184,1.184,0,0,1-.989,1.227l1.119,1.91h-.625l-1.061-1.852H295.1v1.852h-.554Zm1.285,2.071c.685,0,1.06-.274,1.06-.839s-.375-.78-1.06-.78H295.1v1.619Z" transform="translate(-220.23 -144.012)" fill="#fff"/>
          <path id="패스_8057" data-name="패스 8057" d="M297.771,144.56H296.45v-.47h3.2v.47h-1.321v3.9h-.554Z" transform="translate(-218.028 -144.012)" fill="#fff"/>
          <path id="패스_8058" data-name="패스 8058" d="M298.155,144.09h.554v1.832h2.035V144.09h.548v4.369h-.548V146.4h-2.035v2.059h-.554Z" transform="translate(-216.057 -144.012)" fill="#fff"/>
          <path id="패스_8059" data-name="패스 8059" d="M300.026,144.09h2.518v.47H300.58v1.369h1.653v.472H300.58v1.589h2.028v.47h-2.582Z" transform="translate(-213.895 -144.012)" fill="#fff"/>
          <path id="패스_8060" data-name="패스 8060" d="M301.99,144.09h1.369c.886,0,1.524.321,1.524,1.233a1.183,1.183,0,0,1-.987,1.227l1.119,1.91h-.625l-1.061-1.852h-.785v1.852h-.554Zm1.285,2.071c.685,0,1.06-.274,1.06-.839s-.375-.78-1.06-.78h-.731v1.619Z" transform="translate(-211.626 -144.012)" fill="#fff"/>
          <path id="패스_8061" data-name="패스 8061" d="M303.606,144.09h.554v4.369h-.554Z" transform="translate(-209.759 -144.012)" fill="#fff"/>
          <path id="패스_8062" data-name="패스 8062" d="M304.161,146.322a2.025,2.025,0,0,1,2-2.268,1.661,1.661,0,0,1,1.255.541l-.3.358a1.221,1.221,0,0,0-.946-.416c-.875,0-1.446.679-1.446,1.768s.517,1.791,1.457,1.791a1.2,1.2,0,0,0,.787-.254V146.7h-.922v-.457h1.429v1.832a1.867,1.867,0,0,1-1.352.507A1.993,1.993,0,0,1,304.161,146.322Z" transform="translate(-209.117 -144.054)" fill="#fff"/>
          <path id="패스_8063" data-name="패스 8063" d="M306.039,144.09h.554v1.832h2.037V144.09h.545v4.369h-.545V146.4h-2.037v2.059h-.554Z" transform="translate(-206.947 -144.012)" fill="#fff"/>
          <path id="패스_8064" data-name="패스 8064" d="M309.04,144.56h-1.321v-.47h3.2v.47h-1.324v3.9h-.554Z" transform="translate(-205.006 -144.012)" fill="#fff"/>
          <path id="패스_8065" data-name="패스 8065" d="M309.157,147.93l.332-.375a1.69,1.69,0,0,0,1.2.541c.571,0,.916-.285.916-.713,0-.446-.315-.588-.726-.774l-.629-.274a1.167,1.167,0,0,1,.487-2.281,1.8,1.8,0,0,1,1.287.541l-.293.351a1.419,1.419,0,0,0-.994-.41c-.494,0-.815.25-.815.642,0,.422.382.584.72.726l.625.267a1.218,1.218,0,0,1,.9,1.168,1.317,1.317,0,0,1-1.481,1.237A2.081,2.081,0,0,1,309.157,147.93Z" transform="translate(-203.344 -144.054)" fill="#fff"/>
          <path id="패스_8066" data-name="패스 8066" d="M311.176,146.3c0-1.4.77-2.25,1.862-2.25s1.865.851,1.865,2.25-.767,2.274-1.865,2.274S311.176,147.7,311.176,146.3Zm3.162,0c0-1.1-.519-1.768-1.3-1.768s-1.3.673-1.3,1.768.513,1.791,1.3,1.791S314.338,147.4,314.338,146.3Z" transform="translate(-201.011 -144.054)" fill="#fff"/>
          <path id="패스_8067" data-name="패스 8067" d="M313.2,144.09h2.515v.47h-1.964v1.477h1.666v.466h-1.666v1.957H313.2Z" transform="translate(-198.67 -144.012)" fill="#fff"/>
          <path id="패스_8068" data-name="패스 8068" d="M316.2,144.56h-1.321v-.47h3.2v.47h-1.321v3.9H316.2Z" transform="translate(-196.736 -144.012)" fill="#fff"/>
          <path id="패스_8069" data-name="패스 8069" d="M316.581,144.09h.554v1.832h2.035V144.09h.547v4.369h-.547V146.4h-2.035v2.059h-.554Z" transform="translate(-194.766 -144.012)" fill="#fff"/>
          <path id="패스_8070" data-name="패스 8070" d="M318.452,144.09h2.516v.47H319v1.369h1.655v.472H319v1.589h2.03v.47h-2.582Z" transform="translate(-192.604 -144.012)" fill="#fff"/>
          <path id="패스_8071" data-name="패스 8071" d="M320.3,146.322a2,2,0,0,1,1.934-2.268,1.614,1.614,0,0,1,1.2.541l-.3.358a1.192,1.192,0,0,0-.892-.416c-.828,0-1.375.679-1.375,1.768s.524,1.791,1.358,1.791a1.321,1.321,0,0,0,1.011-.487l.3.345a1.686,1.686,0,0,1-1.339.625C321.115,148.578,320.3,147.74,320.3,146.322Z" transform="translate(-190.468 -144.054)" fill="#fff"/>
          <path id="패스_8072" data-name="패스 8072" d="M322.038,144.09h.554v1.832h2.035V144.09h.548v4.369h-.548V146.4h-2.035v2.059h-.554Z" transform="translate(-188.46 -144.012)" fill="#fff"/>
          <path id="패스_8073" data-name="패스 8073" d="M323.909,144.09h.552v4.369h-.552Z" transform="translate(-186.298 -144.012)" fill="#fff"/>
          <path id="패스_8074" data-name="패스 8074" d="M324.578,144.09h.554v3.9h1.905v.47h-2.459Z" transform="translate(-185.525 -144.012)" fill="#fff"/>
          <path id="패스_8075" data-name="패스 8075" d="M325.939,144.09h1.1a2.189,2.189,0,0,1,.024,4.369h-1.119Zm1.048,3.917c1.03,0,1.535-.642,1.535-1.744s-.5-1.72-1.535-1.72h-.494v3.464Z" transform="translate(-183.952 -144.012)" fill="#fff"/>
        </g>
      </g>
      <g id="그룹_1159" data-name="그룹 1159" transform="translate(0.528)">
        <g id="그룹_1158" data-name="그룹 1158">
          <path id="패스_8076" data-name="패스 8076" d="M263.548,125.206h-3.324v-.414h1.4v-.69h.515v.69h1.408Zm-1.664,2.408c-.8,0-1.347-.416-1.347-1.05s.548-1.043,1.347-1.043,1.349.416,1.349,1.043S262.681,127.613,261.884,127.613Zm0-.4c.509,0,.86-.25.86-.647s-.351-.64-.86-.64-.856.25-.856.64S261.373,127.21,261.884,127.21Zm-.3,1.979h3.242v.42h-3.757v-1.614h.515Zm3.817-3.229v.433h-.828v1.936h-.515V124.1h.515v1.858Z" transform="translate(-260.224 -124.096)" fill="#fff"/>
          <path id="패스_8077" data-name="패스 8077" d="M265.564,126.658v1.03h1.677v1.9h-.515V128.1H263.3v-.414h1.752v-1.03h-2.293v-.423h3.8a6.8,6.8,0,0,0,.149-1.6H263.41v-.414h3.8v.407a7.2,7.2,0,0,1-.14,1.6h.8v.423Z" transform="translate(-257.299 -123.951)" fill="#fff"/>
          <path id="패스_8078" data-name="패스 8078" d="M268.169,126.5c0,1.2-.586,1.966-1.414,1.966s-1.42-.765-1.42-1.966.591-1.966,1.42-1.966S268.169,125.3,268.169,126.5Zm-.491,0c0-.912-.384-1.5-.923-1.5s-.929.591-.929,1.5.384,1.507.929,1.507S267.678,127.414,267.678,126.5Zm2.841.282h-.931v2.953h-.513V124.1h.513v2.242h.931Z" transform="translate(-254.318 -124.092)" fill="#fff"/>
          <path id="패스_8079" data-name="패스 8079" d="M272.938,126.747v.414h-5.1v-.414h2.293v-.655H268.48v-1.871h3.826v.414h-3.313v1.043h3.35v.414h-1.7v.655Zm-.627,1.834c0,.653-.726,1.017-1.921,1.017s-1.936-.364-1.936-1.017.729-1.017,1.936-1.017S272.311,127.926,272.311,128.582Zm-.522,0c0-.4-.519-.616-1.4-.616s-1.414.22-1.414.616.522.614,1.414.614S271.789,128.976,271.789,128.582Z" transform="translate(-251.426 -123.958)" fill="#fff"/>
          <path id="패스_8080" data-name="패스 8080" d="M271.949,126.717c-.545.026-1.067.032-1.52.032l-.069-.422c.722-.006,1.615-.013,2.5-.075a8.172,8.172,0,0,0,.138-1.395h-2.123v-.414H273.5v.213a8.85,8.85,0,0,1-.118,1.552c.213-.019.433-.039.634-.069l.039.371a14.644,14.644,0,0,1-1.591.181v1.3h-.515Zm3.229,2.468v.42h-3.983v-1.714h.511v1.293Zm-.653-2.018V124.1h.517v4.253h-.517v-.78H273.3v-.41Z" transform="translate(-248.512 -124.092)" fill="#fff"/>
          <path id="패스_8081" data-name="패스 8081" d="M273.6,127.955a16.488,16.488,0,0,0,2.737-.2l.052.42a16.279,16.279,0,0,1-2.841.207h-.463v-2.16h2.074v-1.175h-2.093v-.423h2.615v2.011H273.6Zm3.783-3.856v5.648h-.515V124.1Z" transform="translate(-245.387 -124.099)" fill="#fff"/>
          <path id="패스_8082" data-name="패스 8082" d="M280.569,128.377v.42h-5.106v-.42h2.287v-1.211h-1.681v-2.878h.507v1h2.878v-1h.5v2.878h-1.684v1.211Zm-3.994-1.627h2.878v-1.035h-2.878Z" transform="translate(-242.615 -123.881)" fill="#fff"/>
          <path id="패스_8083" data-name="패스 8083" d="M281.041,127.226a2.182,2.182,0,0,1-1.365-1.214,2.322,2.322,0,0,1-1.418,1.382l-.265-.407a2,2,0,0,0,1.414-1.834v-.22h-1.263v-.414h3.02v.414H279.92v.22a1.832,1.832,0,0,0,1.364,1.671Zm1.412,1.457c0,.66-.709,1.043-1.852,1.043-1.158,0-1.862-.384-1.862-1.043s.7-1.037,1.862-1.037C281.744,127.647,282.453,128.03,282.453,128.683Zm-.515,0c0-.4-.509-.627-1.336-.627-.843,0-1.347.231-1.347.627s.5.634,1.347.634C281.429,129.317,281.938,129.086,281.938,128.683Zm1.287-3.16v.433h-.834V127.5h-.515v-3.4h.515v1.418Z" transform="translate(-239.691 -124.092)" fill="#fff"/>
          <path id="패스_8084" data-name="패스 8084" d="M282.164,127.1c-.556.024-1.1.03-1.563.03l-.069-.427a30.574,30.574,0,0,0,3.63-.164l.045.371c-.5.075-1.017.131-1.526.164v1.112h-.517Zm-1.185-1.8c0-.591.565-.979,1.388-.979s1.388.388,1.388.979-.565.987-1.388.987S280.978,125.91,280.978,125.307Zm4.339,3.882v.42h-3.981v-1.638h.515v1.218Zm-3.85-3.882c0,.364.364.6.9.6s.9-.239.9-.6-.364-.6-.9-.6S281.467,124.949,281.467,125.307Zm3.192,2.123V124.1h.515v4.29h-.515v-.578h-1.145v-.384Z" transform="translate(-236.758 -124.096)" fill="#fff"/>
        </g>
      </g>
      <g id="그룹_1160" data-name="그룹 1160" transform="translate(0 8.536)">
        <path id="패스_8085" data-name="패스 8085" d="M294.418,156.73H259.979v-5.777h8.93V139.493h7.538v11.461h17.971Zm-2.222-8.573h-7.234v-14.38H262.089v-5.369H292.2Z" transform="translate(-259.979 -127.655)" fill="#fff"/>
        <path id="패스_8086" data-name="패스 8086" d="M301.917,158.644h-6.633V154.4l-17.749,1.789v-27.38h7.236v21.2l10.512-1.037v-5.714H289.37v-5.025h5.915v-9.859h6.633Zm9.344.565h-7.083V128.059h7.083Z" transform="translate(-239.691 -128.059)" fill="#fff"/>
        <path id="패스_8087" data-name="패스 8087" d="M328.661,156.73H294.22v-5.777h8.933V139.493h7.536v11.461h17.973Zm-2.225-8.573H319.2v-14.38h-22.87v-5.369h30.1Z" transform="translate(-220.413 -127.655)" fill="#fff"/>
        <path id="패스_8088" data-name="패스 8088" d="M336.156,158.644h-6.633V154.4l-17.746,1.789v-27.38h7.234v21.2l10.513-1.037v-5.714h-5.915v-5.025h5.915v-9.859h6.633Zm9.344.565h-7.083V128.059H345.5Z" transform="translate(-200.125 -128.059)" fill="#fff"/>
      </g>
    </g>
    <path id="패스_8089" data-name="패스 8089" d="M299.31,130.022a3.392,3.392,0,1,1,3.391-3.393A3.4,3.4,0,0,1,299.31,130.022Zm0-4.723a1.331,1.331,0,1,0,1.33,1.33A1.332,1.332,0,0,0,299.31,125.3Z" transform="translate(77.359 0.863)" fill="#fff"/>
    <path id="패스_8090" data-name="패스 8090" d="M258.314,131.268a4.687,4.687,0,0,1-3.035-1.112l1.332-1.571a2.638,2.638,0,1,0,3.41-4.027l1.332-1.571a4.7,4.7,0,0,1-3.039,8.282Z" transform="translate(30.401 0.571)" fill="#fff"/>
    <path id="패스_8091" data-name="패스 8091" d="M258.963,151.737a3.392,3.392,0,1,1,3.393-3.391A3.393,3.393,0,0,1,258.963,151.737Zm0-4.723a1.331,1.331,0,1,0,1.332,1.332A1.334,1.334,0,0,0,258.963,147.015Z" transform="translate(30.739 25.955)" fill="#fff"/>
    <path id="패스_8092" data-name="패스 8092" d="M328.836,152.718a4.782,4.782,0,0,1-.606-.039l.263-2.043a2.637,2.637,0,0,0,.67-5.231l.261-2.046a4.7,4.7,0,0,1-.588,9.359Z" transform="translate(114.698 24.112)" fill="#fff"/>
    <rect id="사각형_171" data-name="사각형 171" width="2.06" height="7.231" transform="translate(363.926 124.108) rotate(-45)" fill="#fff"/>
    <path id="패스_8093" data-name="패스 8093" d="M332.338,131.421a4.609,4.609,0,0,1-3.488-7.613l1.563,1.343a2.548,2.548,0,1,0,3.865,3.322l1.563,1.343a4.578,4.578,0,0,1-3.149,1.591C332.573,131.415,332.456,131.421,332.338,131.421Z" transform="translate(114.129 1.521)" fill="#fff"/>
  </g>
</svg>
