<svg xmlns="http://www.w3.org/2000/svg" width="221.333" height="55.284" viewBox="0 0 221.333 55.284">
  <g id="그룹_1162" data-name="그룹 1162" transform="translate(-228.97 -122.492)">
    <g id="그룹_1155" data-name="그룹 1155" transform="translate(228.97 122.492)">
      <g id="그룹_1154" data-name="그룹 1154" transform="translate(0.455 0.453)">
        <path id="패스_7990" data-name="패스 7990" d="M240.4,137.073a19.006,19.006,0,0,1,1.714,1.412c.22.214.412.436.613.656a24.053,24.053,0,0,1,2.2-1.87c-.682-1.064-1.369-2.148-2.064-3.3-.03-.05-.054-.093-.082-.142-.391.557-.758,1.125-1.161,1.675S240.8,136.546,240.4,137.073Z" transform="translate(-216.185 -109.812)" fill="none"/>
        <path id="패스_7991" data-name="패스 7991" d="M237.446,132.324l.032-.052c.471-.833.13-1.438-1.306-2.306a7.172,7.172,0,0,0-.656-.289l-1.148,4.384A3.808,3.808,0,0,0,237.446,132.324Z" transform="translate(-223.17 -114.62)" fill="#fff"/>
        <path id="패스_7992" data-name="패스 7992" d="M232.2,127.634a2.132,2.132,0,0,0-.728.13,1.956,1.956,0,0,0-1.252,1.252,3.219,3.219,0,0,0,.484,2.2c.052.108.127.2.188.3l3.465-3.007A3.905,3.905,0,0,0,232.2,127.634Z" transform="translate(-228.053 -116.987)" fill="#fff"/>
        <path id="패스_7993" data-name="패스 7993" d="M234.431,128.3l-3.7,3.21c.138.171.274.341.423.514l.287.335a8.521,8.521,0,0,0,1.839,1.563l2.776-4.473C235.454,129.048,234.891,128.651,234.431,128.3Z" transform="translate(-227.383 -116.216)" fill="#fff"/>
        <path id="패스_7994" data-name="패스 7994" d="M237.061,130.01a12.511,12.511,0,0,1-1.6-.7c-.145-.08-.27-.173-.412-.257l-2.774,4.464a13.677,13.677,0,0,0,2.623,1.118,5.341,5.341,0,0,0,.961.151l1.246-4.758Z" transform="translate(-225.598 -115.341)" fill="#fff"/>
        <path id="패스_7995" data-name="패스 7995" d="M240.558,132.941c1.958-1.466-2.632-3.517-2.632-3.517S238.6,134.406,240.558,132.941Z" transform="translate(-219.048 -114.913)" fill="#fff"/>
        <path id="패스_7996" data-name="패스 7996" d="M251.781,132.978c.253.069.557-.078.9-.436.384-.4.538-.76.451-1.069-.177-.648-1.239-1.131-1.852-1.345l-.035.035a8.13,8.13,0,0,1,1.408,1.472.454.454,0,0,1-.136.628.464.464,0,0,1-.246.071.455.455,0,0,1-.382-.207,7.967,7.967,0,0,0-1.349-1.373l-.082.065C250.693,131.618,251.185,132.811,251.781,132.978Z" transform="translate(-204.526 -114.097)" fill="#db3d88"/>
        <path id="패스_7997" data-name="패스 7997" d="M250.83,130.252l.1-.373h0l-.317.261c.039.015.082,0,.117.032Z" transform="translate(-204.343 -114.385)" fill="#db3d88"/>
        <path id="패스_7998" data-name="패스 7998" d="M250.435,130.368c.013.054.032.114.05.173l.082-.065C250.519,130.437,250.472,130.4,250.435,130.368Z" transform="translate(-204.552 -113.819)" fill="#db3d88"/>
        <path id="패스_7999" data-name="패스 7999" d="M250.782,130.108l.089.078.035-.035Z" transform="translate(-204.15 -114.12)" fill="#db3d88"/>
        <path id="패스_8000" data-name="패스 8000" d="M250.5,130.225l-.291.235v0l.376-.086A.457.457,0,0,1,250.5,130.225Z" transform="translate(-204.818 -113.985)" fill="#db3d88"/>
        <g id="그룹_1149" data-name="그룹 1149" transform="translate(21.413)">
          <path id="패스_8001" data-name="패스 8001" d="M248.451,122.714a6.687,6.687,0,0,1,2.448,2.852l1.008,2.234,4.4-1.982A12.165,12.165,0,0,0,248.451,122.714Z" transform="translate(-228.264 -122.688)" fill="#ffc400"/>
          <path id="패스_8002" data-name="패스 8002" d="M249.916,132.125l-.455-1.008-.007-.015v0a6.861,6.861,0,0,1,2.493-8.4H241.915c-.048.063-.1.119-.147.181-.093.13-.2.244-.289.376s-.194.246-.278.38a14.356,14.356,0,0,0-1.22,2.47,15.7,15.7,0,0,0-.566,8.186,14.646,14.646,0,0,0,.674,2.01c.089.227.132.462.231.684l.354.784,3.782-1.705,2.418-1.092,2.331-1.051.44-.2.438-.2.386-.175-.259-.57Z" transform="translate(-239.1 -122.702)" fill="#ffc400"/>
          <path id="패스_8003" data-name="패스 8003" d="M249.588,124.394l-.565.255.827,1.834.565-.255-.046-.1Z" transform="translate(-227.601 -120.741)" fill="#ffc400"/>
          <rect id="사각형_170" data-name="사각형 170" width="7.66" height="2.012" transform="matrix(0.911, -0.411, 0.411, 0.911, 11.371, 8.444)" fill="#ffc400"/>
        </g>
        <g id="그룹_1150" data-name="그룹 1150" transform="translate(23.272)">
          <path id="패스_8004" data-name="패스 8004" d="M251.337,127.166a.446.446,0,0,1-.011-.345.455.455,0,0,1,.237-.253l2.241-1.012a.455.455,0,0,1,.6.227l.525-.237a5.77,5.77,0,0,0-3.014-2.645,5.893,5.893,0,0,0-.73-.2h-2.733a5.914,5.914,0,0,0-.993.337,5.813,5.813,0,0,0-3.063,7.26Z" transform="translate(-235.216 -122.702)" fill="#278e2a"/>
          <path id="패스_8005" data-name="패스 8005" d="M266.874,124.46l-5.168,2.334-.98.443.078.171a.452.452,0,0,1-.229.6l-2.241,1.012a.469.469,0,0,1-.186.039.454.454,0,0,1-.414-.268l-.078-.171-7.4,3.337-1.1.5-.477.216-.481.218-2.349,1.06-2.016.909-3.873,1.749c.535,1.2,1.107,2.414,1.777,3.616.488.872,1.056,1.826,1.608,2.765.086.147.164.285.253.434s.162.283.253.434c.1.171.183.324.289.5.682,1.136,1.358,2.2,2.025,3.247a33.852,33.852,0,0,1,3.774-2.3,28.116,28.116,0,0,1,9.028-3.085c.056-.009.108-.009.164-.015-.272-.151-.529-.261-.79-.389a13.431,13.431,0,0,0-2.768-1.03,10.581,10.581,0,0,0-1.189-.177,9.271,9.271,0,0,0-3.9.337,5.019,5.019,0,0,0-.708.291.454.454,0,1,1-.447-.79,9.406,9.406,0,0,1,6.142-.607,12.911,12.911,0,0,1,1.755.505,14.869,14.869,0,0,1,2.673,1.226.439.439,0,0,1,.173.553,18.018,18.018,0,0,1,7.558.835,16.779,16.779,0,0,1,2.7,1.261v-6.176a2.5,2.5,0,0,0-.73-.356h-.007c-.071,0-.168.149-.276.328a1.518,1.518,0,0,1-1.265.863,1.087,1.087,0,0,1-1.095-.587,1.2,1.2,0,0,1-.119-.391,2.016,2.016,0,0,1-.669.093,2.434,2.434,0,0,1-2.088,2.485,1.437,1.437,0,0,1-.378-.052c-.976-.272-1.561-1.58-1.85-2.439-.121-.363-.2-.654-.216-.74l.443-.1v0l.291-.235a.413.413,0,0,1,.594-.486l.317-.261h0l.123-.438a7.574,7.574,0,0,1,.756.272,6.244,6.244,0,0,1,.563.27,1.394,1.394,0,0,1,.527-1,1.642,1.642,0,0,1-.233-.257,1.372,1.372,0,0,1-.121-.132,1.24,1.24,0,0,1-.151-.879,1.305,1.305,0,0,1,.076-.391,1.911,1.911,0,0,1,1.135-1,1.426,1.426,0,0,1,1.161.108,1.451,1.451,0,0,1,.25-.4,1.546,1.546,0,0,1,1.561-.488,1.227,1.227,0,0,1,.881,1.038,2.718,2.718,0,0,1-.007.7,2.23,2.23,0,0,0-.019.415.821.821,0,0,0,.544.6v-1.643A12.215,12.215,0,0,0,266.874,124.46Z" transform="translate(-239.961 -120.665)" fill="#278e2a"/>
          <path id="패스_8006" data-name="패스 8006" d="M255.121,129.657a3.2,3.2,0,0,1,.019-.591,1.912,1.912,0,0,0,.013-.466c-.037-.227-.151-.285-.233-.309a.653.653,0,0,0-.626.214.692.692,0,0,0-.05.771.455.455,0,0,1-.82.391,1.415,1.415,0,0,0-.516-.574.52.52,0,0,0-.436-.032,1,1,0,0,0-.581.505.389.389,0,0,0,.011.406,1.34,1.34,0,0,0,1.021.464.454.454,0,0,1,0,.909h0a1.457,1.457,0,0,0-.883.235.553.553,0,0,0-.2.451.693.693,0,0,0,.261.555c.343.248,1.073-.028,1.382-.423a.454.454,0,1,1,.717.557v0a.859.859,0,0,0-.183.74c.011.022.022.108.261.086.123,0,.274-.048.468-.361.231-.376.553-.887,1.181-.829a1.827,1.827,0,0,1,.65.22v-1.433A1.836,1.836,0,0,1,255.121,129.657Z" transform="translate(-226.204 -116.246)" fill="#278e2a"/>
        </g>
        <g id="그룹_1151" data-name="그룹 1151">
          <path id="패스_8007" data-name="패스 8007" d="M253.437,142.7a45.15,45.15,0,0,1-2.126-4.324,10.306,10.306,0,0,1-.613-1.865,14.982,14.982,0,0,1-.073-10.725,15.428,15.428,0,0,1,1.215-2.461c-.071-.019-.142-.06-.216-.078a10.865,10.865,0,0,0-3.165-.337.379.379,0,0,1-.38-.209H241.46a12.3,12.3,0,0,0-12.251,11.988,1.239,1.239,0,0,1,.566.287,1.676,1.676,0,0,1,.4,1.727,1.552,1.552,0,0,1-.268.5l.037.019a1.539,1.539,0,0,1,.753,1.032,2.077,2.077,0,0,1-.307,1.617,1.39,1.39,0,0,1-1.211.622v4.773a20.325,20.325,0,0,1,5.567-1.095,21.969,21.969,0,0,1,2.733.045,2.1,2.1,0,0,1,.615-.24,11.53,11.53,0,0,1,1.386-.924,5.9,5.9,0,0,1-1.267-.184,14.4,14.4,0,0,1-3.085-1.347.437.437,0,0,1-.177-.05c-.032-.019-.035-.06-.06-.084a9.809,9.809,0,0,1-2.349-1.956l-.278-.328a7.684,7.684,0,0,1-1.259-1.781,3.967,3.967,0,0,1-.542-2.824,2.84,2.84,0,0,1,1.818-1.872c1.77-.648,3.258.488,4.449,1.4a22.258,22.258,0,0,0,2.748,1.848,11.646,11.646,0,0,0,1.49.648,12.274,12.274,0,0,1,1.673.74c.82.5,2.714,1.641,1.634,3.545l-.037.06a4.147,4.147,0,0,1-.682.831,9.112,9.112,0,0,1,3.046.123.454.454,0,0,1-.237.876,5.454,5.454,0,0,0-.581-.108,9.314,9.314,0,0,0-6.42,1.563c-.1.067-.2.151-.3.225.326.043.652.093.984.149.183.03.373.073.559.11.2.037.406.078.611.121.08.015.16.028.24.045a.409.409,0,0,0-.06-.132l.451-.212.417-.2a1.386,1.386,0,0,1,.188.766c.784.2,1.574.412,2.385.674a34.386,34.386,0,0,1,5.481,2.271,23.154,23.154,0,0,1,2.349,1.442c.4-.522.818-1.025,1.209-1.561.484-.661.926-1.336,1.39-2.005C254.629,144.771,253.992,143.694,253.437,142.7Zm-16.21-10.828a.435.435,0,0,1-.205.05.453.453,0,0,1-.4-.248,2.483,2.483,0,0,0-2.36-1.36.455.455,0,0,1-.114-.9,3.394,3.394,0,0,1,3.283,1.852A.452.452,0,0,1,237.227,131.872Zm1.224-3.655a6.5,6.5,0,0,1-1.064.086,3.207,3.207,0,0,1-1.55-.32.455.455,0,0,1,.458-.786,3.828,3.828,0,0,0,2,.123.459.459,0,0,1,.525.373A.453.453,0,0,1,238.451,128.218Zm8.728,8.6a.439.439,0,0,1-.281.1.455.455,0,0,1-.356-.173,2.482,2.482,0,0,0-2.636-.684.452.452,0,0,1-.574-.285.457.457,0,0,1,.283-.576,3.374,3.374,0,0,1,3.642.984A.452.452,0,0,1,247.179,136.823Zm-.408-4.3a.454.454,0,0,1,.9-.125,3.836,3.836,0,0,0,.721,1.874.454.454,0,0,1-.307.79.448.448,0,0,1-.3-.119A4.694,4.694,0,0,1,246.771,132.527Zm3.92,8.2c-1.958,1.466-2.632-3.517-2.632-3.517S252.649,139.264,250.691,140.73Z" transform="translate(-229.181 -122.702)" fill="#004b9e"/>
          <path id="패스_8008" data-name="패스 8008" d="M229.181,128.72v.9a.721.721,0,0,0,.134-.177A.792.792,0,0,0,229.181,128.72Z" transform="translate(-229.181 -115.728)" fill="#004b9e"/>
          <path id="패스_8009" data-name="패스 8009" d="M229.647,131.158a1.179,1.179,0,0,0,.166-.887.648.648,0,0,0-.3-.438,1.666,1.666,0,0,0-.328-.067v1.621l.026.011A.469.469,0,0,0,229.647,131.158Z" transform="translate(-229.181 -114.516)" fill="#004b9e"/>
        </g>
        <path id="패스_8010" data-name="패스 8010" d="M246.385,141.45a1.016,1.016,0,1,0-1.371-.43A1.018,1.018,0,0,0,246.385,141.45Z" transform="translate(-210.968 -103.197)" fill="#ffc400"/>
        <path id="패스_8011" data-name="패스 8011" d="M265.35,133.906a17.429,17.429,0,0,0-8.234-.7,27.283,27.283,0,0,0-8.732,2.99,33.02,33.02,0,0,0-3.713,2.265c-.121.086-.257.168-.376.255s-.24.186-.363.278a23.605,23.605,0,0,0-2.09,1.783,10.8,10.8,0,0,1,1.818,3.281,9.636,9.636,0,0,1,.348,4.918,10.317,10.317,0,0,1-1.69,3.94c-.2.289-.419.576-.652.853a.809.809,0,0,1,.037.076c.162-.1.311-.2.488-.294,1.269-.661,2.452-.9,2.645-.535s-.682,1.2-1.952,1.863c-.207.108-.406.188-.6.272a10.909,10.909,0,0,1,.749,3.478,10.735,10.735,0,0,1-.516,3.722,14.992,14.992,0,0,1-.846,2.047h14.406a12.315,12.315,0,0,0,12.279-12.279V135.35A15.937,15.937,0,0,0,265.35,133.906Zm.05,7.523c1.269-.663,2.452-.9,2.642-.535s-.682,1.2-1.949,1.861-2.45.9-2.642.538S264.132,142.092,265.4,141.43Zm-15.269,7.582a1.016,1.016,0,1,1,.43-1.371A1.017,1.017,0,0,1,250.131,149.011Zm6.919,4.795a11.421,11.421,0,0,1-4.961,1.222,4.379,4.379,0,0,1-2.733-.736,2.036,2.036,0,0,1-.594-2.321c.542-1.876,1.777-1.807,2.966-1.738a5.634,5.634,0,0,0,3.245-.533,5.024,5.024,0,0,0,2.148-2.465c.082-.16.168-.319.257-.477a4.457,4.457,0,0,1,.319-.484,2.086,2.086,0,0,1,.51-.5,1.614,1.614,0,0,1,1.071-.214,3.21,3.21,0,0,1,.87.248c.1.041.188.065.3.117a3.067,3.067,0,0,1,.3.205,2.235,2.235,0,0,1,1.116,1.88C261.881,150.026,259.379,152.588,257.049,153.806Z" transform="translate(-214.714 -110.758)" fill="#ffc400"/>
        <path id="패스_8012" data-name="패스 8012" d="M249.437,141.822a4.5,4.5,0,0,0-2.157,2.5,10.182,10.182,0,0,0,2.843-.948,10.934,10.934,0,0,0,2.55-1.9A4.5,4.5,0,0,0,249.437,141.822Z" transform="translate(-208.208 -101.132)" fill="#db3d88"/>
        <path id="패스_8013" data-name="패스 8013" d="M242.259,144.5c.2-.084.4-.164.6-.272,1.269-.663,2.142-1.5,1.952-1.863s-1.375-.125-2.645.535c-.177.1-.326.194-.488.294.171.32.328.641.466.965C242.2,144.273,242.216,144.392,242.259,144.5Z" transform="translate(-214.694 -100.111)" fill="#db3d88"/>
        <path id="패스_8014" data-name="패스 8014" d="M251.771,139.153c.192.367,1.375.125,2.642-.538s2.142-1.5,1.949-1.861-1.373-.127-2.642.535S251.579,138.786,251.771,139.153Z" transform="translate(-203.035 -106.618)" fill="#db3d88"/>
        <g id="그룹_1152" data-name="그룹 1152" transform="translate(0 3.87)">
          <path id="패스_8015" data-name="패스 8015" d="M250.511,127.155l-.187-.414-.827-1.834-.186-.412-1.412.637.186.412.827,1.834.187.414.077.171,1.412-.637Z" transform="translate(-207.49 -124.495)" fill="#cb0023"/>
          <path id="패스_8016" data-name="패스 8016" d="M255.62,141.4c-.093-.119-.2-.233-.294-.35s-.188-.235-.292-.35c-.2-.218-.339-.456-.557-.665a18.342,18.342,0,0,0-1.641-1.351c-.123-.093-.224-.2-.352-.289s-.253-.168-.376-.255a23.14,23.14,0,0,0-2.217-1.36,33.517,33.517,0,0,0-5.334-2.208c-.781-.253-1.546-.462-2.3-.65-.145-.037-.294-.08-.436-.114s-.3-.056-.447-.089c-.367-.082-.725-.149-1.084-.214-.149-.028-.3-.065-.449-.088l0,0c-.041-.006-.084-.017-.125-.024-.183-.03-.365-.058-.546-.084-.373-.054-.734-.08-1.1-.114-.108-.011-.218-.026-.324-.035s-.188-.022-.278-.03c-.071,0-.145-.017-.214-.022-.129-.009-.257-.015-.384-.022-.037,0-.073,0-.11,0-.669-.028-1.328-.037-1.96,0a19.26,19.26,0,0,0-5.617,1.146V147.3c.38.16.775.3,1.131.49.138.076.257.168.391.248s.27.188.408.278a10.466,10.466,0,0,1,4.471,11.888,9.737,9.737,0,0,1-.958,2.044,12.2,12.2,0,0,0,6.837,2.094h3.417a9.7,9.7,0,0,1,.367-1.7,10.057,10.057,0,0,1,4.991-5.814c.138-.073.265-.16.408-.227s.287-.1.427-.155a11.087,11.087,0,0,1,4.892-.827c-.026-.073-.043-.151-.071-.224-.037-.095-.054-.194-.093-.289-.112-.263-.257-.525-.393-.786-.076-.145-.134-.294-.218-.438a.453.453,0,0,1,.054-.529,10.776,10.776,0,0,0,.8-1.015,9.408,9.408,0,0,0,1.541-3.594,8.706,8.706,0,0,0-.317-4.456A9.975,9.975,0,0,0,255.62,141.4Z" transform="translate(-229.181 -114.574)" fill="#cb0023"/>
        </g>
        <path id="패스_8017" data-name="패스 8017" d="M234.692,134.616c-.257-.743-2.187-.753-4.313-.019a10.977,10.977,0,0,0-1.2.5v2.662a9.282,9.282,0,0,0,2.129-.462C233.436,136.559,234.949,135.361,234.692,134.616Z" transform="translate(-229.181 -109.549)" fill="#fff" opacity="0.3"/>
        <path id="패스_8018" data-name="패스 8018" d="M231.111,140.671c-.138-.091-.265-.192-.408-.278s-.253-.173-.391-.248c-.356-.192-.751-.33-1.131-.49v4.764a12.3,12.3,0,0,0,5.442,10.185,9.737,9.737,0,0,0,.958-2.044A10.466,10.466,0,0,0,231.111,140.671Z" transform="translate(-229.181 -103.058)" fill="#db3d88"/>
        <path id="패스_8019" data-name="패스 8019" d="M247.537,143.519a11.087,11.087,0,0,0-4.892.827c-.14.058-.291.093-.427.155s-.27.153-.408.227a10.057,10.057,0,0,0-4.991,5.814,9.7,9.7,0,0,0-.367,1.7H246.7a15.787,15.787,0,0,0,.989-2.327,9.757,9.757,0,0,0,.471-3.407A9.923,9.923,0,0,0,247.537,143.519Z" transform="translate(-220.756 -98.599)" fill="#db3d88"/>
        <g id="그룹_1153" data-name="그룹 1153">
          <path id="패스_8020" data-name="패스 8020" d="M230.7,131.817a1.539,1.539,0,0,0-.753-1.032l-.037-.019a1.552,1.552,0,0,0,.268-.5,1.676,1.676,0,0,0-.4-1.727,1.239,1.239,0,0,0-.566-.287c0,.1-.028.192-.028.294v.71a.792.792,0,0,1,.134.723.721.721,0,0,1-.134.177v1.358a1.666,1.666,0,0,1,.328.067.648.648,0,0,1,.3.438,1.179,1.179,0,0,1-.166.887.469.469,0,0,1-.44.24l-.026-.011v.917a1.39,1.39,0,0,0,1.211-.622A2.077,2.077,0,0,0,230.7,131.817Z" transform="translate(-229.181 -116.267)"/>
          <path id="패스_8021" data-name="패스 8021" d="M233.935,125.923a6.5,6.5,0,0,0,1.064-.086.453.453,0,0,0,.371-.522.459.459,0,0,0-.525-.373,3.829,3.829,0,0,1-2-.123.455.455,0,0,0-.458.786A3.207,3.207,0,0,0,233.935,125.923Z" transform="translate(-225.73 -120.321)"/>
          <path id="패스_8022" data-name="패스 8022" d="M231.807,126.726a2.483,2.483,0,0,1,2.36,1.36.453.453,0,0,0,.4.248.436.436,0,0,0,.205-.05.452.452,0,0,0,.2-.609,3.394,3.394,0,0,0-3.283-1.852.455.455,0,0,0,.114.9Z" transform="translate(-226.73 -119.114)"/>
          <path id="패스_8023" data-name="패스 8023" d="M238.646,130.069a.454.454,0,0,0,.307-.79,3.836,3.836,0,0,1-.721-1.874.454.454,0,0,0-.9.125,4.694,4.694,0,0,0,1.01,2.42A.448.448,0,0,0,238.646,130.069Z" transform="translate(-219.742 -117.705)"/>
          <path id="패스_8024" data-name="패스 8024" d="M236.323,129.448a2.482,2.482,0,0,1,2.636.684.455.455,0,0,0,.356.173.439.439,0,0,0,.281-.1.452.452,0,0,0,.078-.637,3.374,3.374,0,0,0-3.642-.984.457.457,0,0,0-.283.576A.452.452,0,0,0,236.323,129.448Z" transform="translate(-221.598 -116.087)"/>
          <path id="패스_8025" data-name="패스 8025" d="M246.619,132.6a.488.488,0,0,0,.134.019.454.454,0,0,0,.434-.324,3.817,3.817,0,0,1,1.712-1.8.455.455,0,0,0-.082-.84,4.089,4.089,0,0,0-3.568.27.45.45,0,0,0-.086.63.457.457,0,0,0,.633.1,2.682,2.682,0,0,1,1.749-.322,3.743,3.743,0,0,0-1.224,1.7A.454.454,0,0,0,246.619,132.6Z" transform="translate(-210.768 -114.933)"/>
          <path id="패스_8026" data-name="패스 8026" d="M250.294,126.957a1.349,1.349,0,1,0,1.852.46A1.352,1.352,0,0,0,250.294,126.957Z" transform="translate(-205.473 -117.996)"/>
          <path id="패스_8027" data-name="패스 8027" d="M282.274,136.03a2.228,2.228,0,0,1,.019-.415,2.718,2.718,0,0,0,.006-.7,1.227,1.227,0,0,0-.881-1.038,1.546,1.546,0,0,0-1.561.488,1.452,1.452,0,0,0-.25.4,1.426,1.426,0,0,0-1.161-.108,1.911,1.911,0,0,0-1.135,1,1.3,1.3,0,0,0-.076.391c-.047.028-.1.035-.138.082a15.565,15.565,0,0,1-9.136,5.753,9.406,9.406,0,0,0-6.142.607.454.454,0,1,0,.447.79,5.021,5.021,0,0,1,.708-.291,9.272,9.272,0,0,1,3.9-.337,10.583,10.583,0,0,1,1.189.177,13.431,13.431,0,0,1,2.768,1.03c.261.127.518.237.79.389-.056.006-.108.006-.164.015a28.116,28.116,0,0,0-9.028,3.085,33.857,33.857,0,0,0-3.774,2.3c-.667-1.047-1.343-2.111-2.025-3.247-.106-.173-.188-.326-.289-.5-.091-.151-.166-.287-.253-.434s-.166-.287-.253-.434c-.553-.939-1.12-1.893-1.608-2.765-.669-1.2-1.241-2.413-1.777-3.616l3.873-1.749,2.016-.909,2.349-1.06.481-.218.477-.216,1.1-.5,7.4-3.337.078.171a.454.454,0,0,0,.414.268.469.469,0,0,0,.186-.039l2.241-1.012a.452.452,0,0,0,.229-.6l-.078-.171.98-.443,5.168-2.334c-.112-.117-.224-.229-.343-.343s-.263-.209-.391-.322l-4.4,1.982-1.008-2.234a6.687,6.687,0,0,0-2.448-2.852c-.084,0-.16-.026-.242-.026h-2.116a5.893,5.893,0,0,1,.73.2,5.77,5.77,0,0,1,3.014,2.645l-.525.237a.455.455,0,0,0-.6-.227l-2.241,1.012a.455.455,0,0,0-.237.253.446.446,0,0,0,.011.345l-6.94,3.132a5.813,5.813,0,0,1,3.063-7.26,5.914,5.914,0,0,1,.993-.337h-2.249a6.861,6.861,0,0,0-2.493,8.4v0l.006.015.455,1.008.3.658.259.57-.386.175-.438.2-.44.2-2.331,1.051-2.418,1.092-3.782,1.705-.354-.784c-.1-.222-.142-.458-.231-.684a14.646,14.646,0,0,1-.674-2.01,14.217,14.217,0,0,1,1.785-10.656c.084-.134.192-.248.278-.38s.2-.246.289-.376c.045-.063.1-.119.147-.181h-5.33a.379.379,0,0,0,.38.209,10.865,10.865,0,0,1,3.165.337c.073.017.145.058.216.078a15.428,15.428,0,0,0-1.215,2.461,14.982,14.982,0,0,0,.073,10.725,10.306,10.306,0,0,0,.613,1.865,45.15,45.15,0,0,0,2.126,4.324c.555.993,1.192,2.07,1.828,3.147-.464.669-.907,1.345-1.39,2.005-.391.535-.807,1.038-1.209,1.561a23.154,23.154,0,0,0-2.349-1.442,34.386,34.386,0,0,0-5.481-2.271c-.812-.261-1.6-.477-2.385-.674a1.386,1.386,0,0,0-.188-.766l-.417.2-.451.212a.409.409,0,0,1,.06.132c-.08-.017-.16-.03-.24-.045-.205-.043-.408-.084-.611-.121-.186-.037-.376-.08-.559-.11-.332-.056-.658-.106-.984-.149.1-.073.2-.158.3-.225a9.314,9.314,0,0,1,6.42-1.563,5.454,5.454,0,0,1,.581.108.454.454,0,0,0,.237-.876,9.112,9.112,0,0,0-3.046-.123,4.147,4.147,0,0,0,.682-.831l.037-.06c1.079-1.9-.814-3.048-1.634-3.545a12.274,12.274,0,0,0-1.673-.74,11.646,11.646,0,0,1-1.49-.648,22.258,22.258,0,0,1-2.748-1.848c-1.192-.913-2.679-2.049-4.449-1.4a2.84,2.84,0,0,0-1.818,1.872,3.967,3.967,0,0,0,.542,2.824,7.684,7.684,0,0,0,1.259,1.781l.278.328a9.809,9.809,0,0,0,2.349,1.956c.026.024.028.065.06.084a.437.437,0,0,0,.177.05,14.4,14.4,0,0,0,3.085,1.347,5.9,5.9,0,0,0,1.267.184,11.53,11.53,0,0,0-1.386.924,2.1,2.1,0,0,0-.615.24,21.969,21.969,0,0,0-2.733-.045,20.325,20.325,0,0,0-5.567,1.095v.961a19.26,19.26,0,0,1,5.617-1.146c.633-.035,1.291-.026,1.96,0,.037,0,.073,0,.11,0,.127.006.255.013.384.022.069,0,.142.017.214.022.091.009.186.022.278.03s.216.024.324.035c.365.035.725.06,1.1.114.181.026.363.054.546.084.041.006.084.017.125.024l0,0c.147.024.3.06.449.088.358.065.717.132,1.084.214.151.032.294.052.447.089s.291.078.436.114c.753.188,1.518.4,2.3.65a33.519,33.519,0,0,1,5.334,2.208,23.14,23.14,0,0,1,2.217,1.36c.123.086.255.168.376.255s.229.2.352.289a18.342,18.342,0,0,1,1.641,1.351c.218.209.358.447.557.665.1.114.194.233.292.35s.2.231.294.35a9.975,9.975,0,0,1,1.645,2.895,8.706,8.706,0,0,1,.317,4.456,9.408,9.408,0,0,1-1.541,3.594,10.776,10.776,0,0,1-.8,1.015.453.453,0,0,0-.054.529c.084.145.142.294.218.438.136.261.281.522.393.786.039.095.056.194.093.289.028.073.045.151.071.224a9.922,9.922,0,0,1,.624,2.986,9.756,9.756,0,0,1-.471,3.407,15.788,15.788,0,0,1-.989,2.327h1.006a14.988,14.988,0,0,0,.846-2.047,10.735,10.735,0,0,0,.516-3.722,10.909,10.909,0,0,0-.749-3.478c-.043-.112-.063-.231-.11-.341-.138-.324-.3-.645-.466-.965a.8.8,0,0,0-.037-.076c.233-.276.451-.563.652-.853a10.317,10.317,0,0,0,1.69-3.94,9.636,9.636,0,0,0-.348-4.918,10.8,10.8,0,0,0-1.818-3.281,23.6,23.6,0,0,1,2.09-1.783c.123-.093.235-.188.363-.279s.255-.168.376-.255a33.026,33.026,0,0,1,3.713-2.265,27.283,27.283,0,0,1,8.732-2.99,17.428,17.428,0,0,1,8.234.7,15.937,15.937,0,0,1,3,1.444v-1.043a16.779,16.779,0,0,0-2.7-1.261,18.018,18.018,0,0,0-7.558-.835.439.439,0,0,0-.173-.553,14.868,14.868,0,0,0-2.673-1.226,17.32,17.32,0,0,0,3.469-1.585c.4-.242.781-.5,1.157-.773.289.859.874,2.167,1.85,2.439a1.436,1.436,0,0,0,.378.052,2.434,2.434,0,0,0,2.088-2.485,2.016,2.016,0,0,0,.669-.093,1.2,1.2,0,0,0,.119.391,1.087,1.087,0,0,0,1.094.587,1.519,1.519,0,0,0,1.265-.863c.108-.179.205-.328.276-.328h.006a2.5,2.5,0,0,1,.73.356v-1.043a1.827,1.827,0,0,0-.65-.22c-.628-.058-.95.453-1.181.829-.194.313-.345.358-.468.361-.24.022-.25-.065-.261-.086a.859.859,0,0,1,.183-.74v0a.454.454,0,1,0-.717-.557c-.309.4-1.038.671-1.382.423a.693.693,0,0,1-.261-.555.553.553,0,0,1,.2-.451,1.457,1.457,0,0,1,.883-.235h0a.454.454,0,0,0,0-.909,1.34,1.34,0,0,1-1.021-.464.389.389,0,0,1-.011-.406,1,1,0,0,1,.581-.505.52.52,0,0,1,.436.032,1.415,1.415,0,0,1,.516.574.455.455,0,0,0,.82-.391.692.692,0,0,1,.05-.771.653.653,0,0,1,.626-.214c.082.024.2.082.233.309a1.912,1.912,0,0,1-.013.466,3.2,3.2,0,0,0-.019.591,1.836,1.836,0,0,0,1.449,1.487v-.974A.821.821,0,0,1,282.274,136.03Zm-26.421,10.828c.7,1.155,1.382,2.239,2.064,3.3a24.055,24.055,0,0,0-2.2,1.87c-.2-.22-.393-.443-.613-.656a19.008,19.008,0,0,0-1.714-1.412c.4-.527.823-1.032,1.218-1.572s.771-1.118,1.161-1.675C255.8,146.766,255.822,146.809,255.853,146.859Zm16.728-20.5.781,1.733.045.1-.563.255-.827-1.835Zm-9.788,6.625-.829-1.835,6.984-3.15.827,1.833Zm7.81-3.525-.827-1.833-.188-.412,1.414-.637.186.412.827,1.833.186.414.078.171-1.412.637-.078-.171ZM238.479,142a13.677,13.677,0,0,1-2.623-1.118l2.774-4.464c.142.084.268.177.412.257a12.51,12.51,0,0,0,1.6.7l.041.019-1.246,4.758A5.341,5.341,0,0,1,238.479,142Zm-7.135-7.266a1.956,1.956,0,0,1,1.252-1.252,2.132,2.132,0,0,1,.728-.13,3.905,3.905,0,0,1,2.157.881l-3.465,3.007c-.06-.1-.136-.2-.188-.3A3.219,3.219,0,0,1,231.344,134.731Zm4.885.054c.46.352,1.023.749,1.628,1.148l-2.776,4.473a8.521,8.521,0,0,1-1.839-1.563l-.287-.335c-.149-.173-.285-.343-.423-.514Zm5.954,3.264c1.436.868,1.777,1.472,1.306,2.306l-.032.052a3.808,3.808,0,0,1-3.078,1.738l1.148-4.384C241.743,137.854,241.982,137.934,242.183,138.049Zm32.93,1.375.082-.065a7.968,7.968,0,0,1,1.349,1.373.455.455,0,0,0,.382.207.464.464,0,0,0,.246-.071.454.454,0,0,0,.136-.628,8.131,8.131,0,0,0-1.408-1.472l.035-.035c.613.214,1.675.7,1.852,1.345.086.309-.067.669-.451,1.069-.343.358-.648.505-.9.436C275.841,141.416,275.349,140.223,275.113,139.424Zm2.394-2.377a1.643,1.643,0,0,0,.233.257,1.394,1.394,0,0,0-.527,1,6.244,6.244,0,0,0-.563-.27C276.957,137.712,277.24,137.384,277.507,137.047Z" transform="translate(-229.181 -122.702)"/>
          <path id="패스_8028" data-name="패스 8028" d="M246.385,141.45a1.016,1.016,0,1,0-1.371-.43A1.018,1.018,0,0,0,246.385,141.45Z" transform="translate(-210.968 -103.197)"/>
          <path id="패스_8029" data-name="패스 8029" d="M249.411,139.867a1.014,1.014,0,1,0-1.369-.43A1.011,1.011,0,0,0,249.411,139.867Z" transform="translate(-207.459 -105.029)"/>
          <path id="패스_8030" data-name="패스 8030" d="M257,139.4a3.073,3.073,0,0,0-.3-.205c-.108-.052-.194-.076-.3-.117a3.21,3.21,0,0,0-.87-.248,1.614,1.614,0,0,0-1.071.214,2.086,2.086,0,0,0-.51.5,4.453,4.453,0,0,0-.319.484c-.089.158-.175.317-.257.477a5.024,5.024,0,0,1-2.148,2.465,5.634,5.634,0,0,1-3.245.533c-1.189-.069-2.424-.138-2.966,1.738a2.036,2.036,0,0,0,.594,2.321,4.379,4.379,0,0,0,2.733.736,11.42,11.42,0,0,0,4.961-1.222c2.329-1.218,4.831-3.78,4.812-5.8A2.235,2.235,0,0,0,257,139.4Zm-6.96,7.819a4.477,4.477,0,0,1,5.393-2.852,10.934,10.934,0,0,1-2.55,1.9A10.181,10.181,0,0,1,250.042,147.218Z" transform="translate(-210.97 -104.029)"/>
          <path id="패스_8031" data-name="패스 8031" d="M234.4,141.857a1.014,1.014,0,1,0,.624-1.93.428.428,0,0,0-.052-.006.988.988,0,0,0-.555.019,1,1,0,0,0-.671.639A1.017,1.017,0,0,0,234.4,141.857Z" transform="translate(-223.951 -102.785)"/>
          <path id="패스_8032" data-name="패스 8032" d="M239.121,141.258a1.015,1.015,0,1,0,.654,1.278A1.012,1.012,0,0,0,239.121,141.258Z" transform="translate(-219.199 -101.258)"/>
          <path id="패스_8033" data-name="패스 8033" d="M242.654,144.371a12.165,12.165,0,0,1-8.322-2.688.454.454,0,1,0-.587.693,12.489,12.489,0,0,0,4.218,2.29,12.858,12.858,0,0,0,3.925.643c.283,0,.561-.011.838-.032a.455.455,0,0,0,.417-.49A.46.46,0,0,0,242.654,144.371Z" transform="translate(-224.08 -100.831)"/>
        </g>
      </g>
      <path id="패스_8034" data-name="패스 8034" d="M270.783,177.038H241.7A12.748,12.748,0,0,1,228.97,164.3V135.227A12.748,12.748,0,0,1,241.7,122.492h29.079a12.75,12.75,0,0,1,12.735,12.735V164.3A12.75,12.75,0,0,1,270.783,177.038ZM241.7,123.4a11.838,11.838,0,0,0-11.826,11.826V164.3A11.84,11.84,0,0,0,241.7,176.131h29.079A11.841,11.841,0,0,0,282.609,164.3V135.227A11.839,11.839,0,0,0,270.783,123.4Z" transform="translate(-228.97 -122.492)" fill="#1a1311"/>
    </g>
    <g id="그룹_1161" data-name="그룹 1161" transform="translate(295.911 125.961)">
      <g id="그룹_1157" data-name="그룹 1157" transform="translate(0.192 43.078)">
        <g id="그룹_1156" data-name="그룹 1156">
          <path id="패스_8035" data-name="패스 8035" d="M260.068,144.09h.555v2.2h.017l1.824-2.2h.622l-1.366,1.669,1.58,2.707h-.613l-1.313-2.278-.751.9v1.382h-.555Z" transform="translate(-260.068 -144.012)" fill="#3b3938"/>
          <path id="패스_8036" data-name="패스 8036" d="M261.536,146.308c0-1.4.768-2.254,1.865-2.254s1.867.853,1.867,2.254-.771,2.277-1.867,2.277S261.536,147.709,261.536,146.308Zm3.165,0c0-1.1-.518-1.77-1.3-1.77s-1.3.674-1.3,1.77.514,1.794,1.3,1.794S264.7,147.4,264.7,146.308Z" transform="translate(-258.367 -144.054)" fill="#3b3938"/>
          <path id="패스_8037" data-name="패스 8037" d="M263.561,144.09h1.371c.887,0,1.526.322,1.526,1.235a1.184,1.184,0,0,1-.989,1.228l1.12,1.913h-.626l-1.062-1.854h-.786v1.854h-.555Zm1.287,2.075c.686,0,1.062-.274,1.062-.84s-.376-.781-1.062-.781h-.732v1.621Z" transform="translate(-256.02 -144.012)" fill="#3b3938"/>
          <path id="패스_8038" data-name="패스 8038" d="M265.177,144.09H267.7v.471h-1.967v1.371h1.658v.473h-1.658V148h2.031v.471h-2.586Z" transform="translate(-254.148 -144.012)" fill="#3b3938"/>
          <path id="패스_8039" data-name="패스 8039" d="M267.878,144.09h.615l1.483,4.376h-.583l-.419-1.334h-1.6l-.423,1.334h-.561Zm-.365,2.6h1.326l-.209-.667c-.162-.5-.3-.971-.44-1.479h-.024c-.138.514-.281.982-.436,1.479Z" transform="translate(-252.739 -144.012)" fill="#3b3938"/>
          <path id="패스_8040" data-name="패스 8040" d="M268.679,144.09h.572l1.591,2.761.464.9h.03c-.03-.44-.071-.93-.071-1.384V144.09h.525v4.376h-.566l-1.593-2.761-.471-.9h-.024c.024.443.065.907.065,1.367v2.295h-.522Z" transform="translate(-250.09 -144.012)" fill="#3b3938"/>
          <path id="패스_8041" data-name="패스 8041" d="M271.749,144.09h.613l1.485,4.376h-.585l-.417-1.334h-1.6l-.423,1.334h-.561Zm-.365,2.6h1.323l-.207-.667c-.162-.5-.3-.971-.442-1.479h-.024c-.136.514-.281.982-.434,1.479Z" transform="translate(-248.253 -144.012)" fill="#3b3938"/>
          <path id="패스_8042" data-name="패스 8042" d="M273.033,144.561H271.71v-.471h3.2v.471h-1.323v3.905h-.555Z" transform="translate(-246.578 -144.012)" fill="#3b3938"/>
          <path id="패스_8043" data-name="패스 8043" d="M273.415,144.09h.555v4.376h-.555Z" transform="translate(-244.602 -144.012)" fill="#3b3938"/>
          <path id="패스_8044" data-name="패스 8044" d="M273.969,146.308c0-1.4.771-2.254,1.865-2.254s1.867.853,1.867,2.254-.769,2.277-1.867,2.277S273.969,147.709,273.969,146.308Zm3.167,0c0-1.1-.52-1.77-1.3-1.77s-1.3.674-1.3,1.77.514,1.794,1.3,1.794S277.136,147.4,277.136,146.308Z" transform="translate(-243.96 -144.054)" fill="#3b3938"/>
          <path id="패스_8045" data-name="패스 8045" d="M275.994,144.09h.572l1.591,2.761.466.9h.028c-.028-.44-.071-.93-.071-1.384V144.09h.525v4.376h-.566l-1.591-2.761-.471-.9h-.026c.026.443.067.907.067,1.367v2.295h-.525Z" transform="translate(-241.613 -144.012)" fill="#3b3938"/>
          <path id="패스_8046" data-name="패스 8046" d="M279.063,144.09h.615l1.485,4.376h-.585l-.417-1.334h-1.6l-.423,1.334h-.561Zm-.363,2.6h1.323l-.207-.667c-.162-.5-.3-.971-.443-1.479h-.024c-.136.514-.281.982-.434,1.479Z" transform="translate(-239.775 -144.012)" fill="#3b3938"/>
          <path id="패스_8047" data-name="패스 8047" d="M279.385,144.09h.553V148h1.908v.471h-2.461Z" transform="translate(-237.684 -144.012)" fill="#3b3938"/>
          <path id="패스_8048" data-name="패스 8048" d="M281.109,146.325a2.009,2.009,0,0,1,1.936-2.271,1.616,1.616,0,0,1,1.2.542l-.3.358a1.19,1.19,0,0,0-.894-.417c-.829,0-1.377.68-1.377,1.77s.525,1.794,1.36,1.794a1.33,1.33,0,0,0,1.015-.488l.3.345a1.689,1.689,0,0,1-1.341.626C281.925,148.585,281.109,147.746,281.109,146.325Z" transform="translate(-235.686 -144.054)" fill="#3b3938"/>
          <path id="패스_8049" data-name="패스 8049" d="M282.848,144.09h2.519v.471H283.4v1.371h1.658v.473H283.4V148h2.034v.471h-2.586Z" transform="translate(-233.671 -144.012)" fill="#3b3938"/>
          <path id="패스_8050" data-name="패스 8050" d="M284.331,144.09h.574l1.591,2.761.464.9h.03c-.03-.44-.071-.93-.071-1.384V144.09h.525v4.376h-.566l-1.593-2.761-.471-.9h-.024c.024.443.065.907.065,1.367v2.295h-.525Z" transform="translate(-231.953 -144.012)" fill="#3b3938"/>
          <path id="패스_8051" data-name="패스 8051" d="M287.319,144.561h-1.325v-.471h3.2v.471h-1.323v3.905h-.555Z" transform="translate(-230.026 -144.012)" fill="#3b3938"/>
          <path id="패스_8052" data-name="패스 8052" d="M287.7,144.09h2.521v.471h-1.969v1.371h1.658v.473h-1.658V148h2.034v.471H287.7Z" transform="translate(-228.049 -144.012)" fill="#3b3938"/>
          <path id="패스_8053" data-name="패스 8053" d="M289.184,144.09h1.371c.887,0,1.526.322,1.526,1.235a1.184,1.184,0,0,1-.989,1.228l1.12,1.913h-.626l-1.062-1.854h-.786v1.854h-.555Zm1.287,2.075c.687,0,1.062-.274,1.062-.84s-.376-.781-1.062-.781h-.732v1.621Z" transform="translate(-226.329 -144.012)" fill="#3b3938"/>
          <path id="패스_8054" data-name="패스 8054" d="M291.281,144.09H293.8v.471h-1.969v1.479H293.5v.466h-1.669v1.96h-.553Z" transform="translate(-223.899 -144.012)" fill="#3b3938"/>
          <path id="패스_8055" data-name="패스 8055" d="M292.519,146.308c0-1.4.768-2.254,1.865-2.254s1.867.853,1.867,2.254-.771,2.277-1.867,2.277S292.519,147.709,292.519,146.308Zm3.167,0c0-1.1-.52-1.77-1.3-1.77s-1.3.674-1.3,1.77.514,1.794,1.3,1.794S295.686,147.4,295.686,146.308Z" transform="translate(-222.465 -144.054)" fill="#3b3938"/>
          <path id="패스_8056" data-name="패스 8056" d="M294.544,144.09h1.373c.887,0,1.526.322,1.526,1.235a1.186,1.186,0,0,1-.991,1.228l1.12,1.913h-.626l-1.062-1.854H295.1v1.854h-.555Zm1.287,2.075c.686,0,1.062-.274,1.062-.84s-.376-.781-1.062-.781H295.1v1.621Z" transform="translate(-220.118 -144.012)" fill="#3b3938"/>
          <path id="패스_8057" data-name="패스 8057" d="M297.773,144.561H296.45v-.471h3.2v.471h-1.323v3.905h-.555Z" transform="translate(-217.909 -144.012)" fill="#3b3938"/>
          <path id="패스_8058" data-name="패스 8058" d="M298.155,144.09h.555v1.835h2.038V144.09h.548v4.376h-.548V146.4H298.71v2.062h-.555Z" transform="translate(-215.934 -144.012)" fill="#3b3938"/>
          <path id="패스_8059" data-name="패스 8059" d="M300.026,144.09h2.521v.471h-1.967v1.371h1.656v.473h-1.656V148h2.031v.471h-2.586Z" transform="translate(-213.766 -144.012)" fill="#3b3938"/>
          <path id="패스_8060" data-name="패스 8060" d="M301.99,144.09h1.371c.887,0,1.526.322,1.526,1.235a1.184,1.184,0,0,1-.989,1.228l1.12,1.913h-.626l-1.062-1.854h-.786v1.854h-.555Zm1.287,2.075c.686,0,1.062-.274,1.062-.84s-.376-.781-1.062-.781h-.732v1.621Z" transform="translate(-211.49 -144.012)" fill="#3b3938"/>
          <path id="패스_8061" data-name="패스 8061" d="M303.606,144.09h.555v4.376h-.555Z" transform="translate(-209.617 -144.012)" fill="#3b3938"/>
          <path id="패스_8062" data-name="패스 8062" d="M304.161,146.325a2.029,2.029,0,0,1,2-2.271,1.664,1.664,0,0,1,1.256.542l-.3.358a1.223,1.223,0,0,0-.948-.417c-.876,0-1.449.68-1.449,1.77s.518,1.794,1.459,1.794a1.206,1.206,0,0,0,.788-.255V146.7h-.924v-.458h1.431v1.835a1.87,1.87,0,0,1-1.354.507A2,2,0,0,1,304.161,146.325Z" transform="translate(-208.974 -144.054)" fill="#3b3938"/>
          <path id="패스_8063" data-name="패스 8063" d="M306.039,144.09h.555v1.835h2.04V144.09h.546v4.376h-.546V146.4h-2.04v2.062h-.555Z" transform="translate(-206.798 -144.012)" fill="#3b3938"/>
          <path id="패스_8064" data-name="패스 8064" d="M309.042,144.561h-1.323v-.471h3.2v.471H309.6v3.905h-.555Z" transform="translate(-204.851 -144.012)" fill="#3b3938"/>
          <path id="패스_8065" data-name="패스 8065" d="M309.157,147.935l.332-.376a1.693,1.693,0,0,0,1.2.542c.572,0,.918-.285.918-.715,0-.447-.315-.589-.727-.775l-.63-.274a1.168,1.168,0,0,1,.488-2.284,1.8,1.8,0,0,1,1.289.542l-.294.352a1.421,1.421,0,0,0-1-.41c-.494,0-.816.25-.816.643,0,.423.382.585.721.727l.626.268a1.22,1.22,0,0,1,.9,1.17,1.319,1.319,0,0,1-1.483,1.239A2.084,2.084,0,0,1,309.157,147.935Z" transform="translate(-203.185 -144.054)" fill="#3b3938"/>
          <path id="패스_8066" data-name="패스 8066" d="M311.176,146.308c0-1.4.771-2.254,1.865-2.254s1.867.853,1.867,2.254-.768,2.277-1.867,2.277S311.176,147.709,311.176,146.308Zm3.167,0c0-1.1-.52-1.77-1.3-1.77s-1.3.674-1.3,1.77.514,1.794,1.3,1.794S314.343,147.4,314.343,146.308Z" transform="translate(-200.845 -144.054)" fill="#3b3938"/>
          <path id="패스_8067" data-name="패스 8067" d="M313.2,144.09h2.519v.471h-1.967v1.479h1.669v.466h-1.669v1.96H313.2Z" transform="translate(-198.498 -144.012)" fill="#3b3938"/>
          <path id="패스_8068" data-name="패스 8068" d="M316.2,144.561h-1.323v-.471h3.2v.471h-1.323v3.905H316.2Z" transform="translate(-196.558 -144.012)" fill="#3b3938"/>
          <path id="패스_8069" data-name="패스 8069" d="M316.581,144.09h.555v1.835h2.038V144.09h.548v4.376h-.548V146.4h-2.038v2.062h-.555Z" transform="translate(-194.582 -144.012)" fill="#3b3938"/>
          <path id="패스_8070" data-name="패스 8070" d="M318.452,144.09h2.519v.471H319v1.371h1.658v.473H319V148h2.034v.471h-2.586Z" transform="translate(-192.414 -144.012)" fill="#3b3938"/>
          <path id="패스_8071" data-name="패스 8071" d="M320.3,146.325a2.008,2.008,0,0,1,1.936-2.271,1.617,1.617,0,0,1,1.2.542l-.3.358a1.194,1.194,0,0,0-.894-.417c-.829,0-1.377.68-1.377,1.77s.525,1.794,1.36,1.794a1.323,1.323,0,0,0,1.013-.488l.3.345a1.689,1.689,0,0,1-1.341.626C321.116,148.585,320.3,147.746,320.3,146.325Z" transform="translate(-190.273 -144.054)" fill="#3b3938"/>
          <path id="패스_8072" data-name="패스 8072" d="M322.038,144.09h.555v1.835h2.038V144.09h.548v4.376h-.548V146.4h-2.038v2.062h-.555Z" transform="translate(-188.259 -144.012)" fill="#3b3938"/>
          <path id="패스_8073" data-name="패스 8073" d="M323.909,144.09h.553v4.376h-.553Z" transform="translate(-186.091 -144.012)" fill="#3b3938"/>
          <path id="패스_8074" data-name="패스 8074" d="M324.578,144.09h.555V148h1.908v.471h-2.463Z" transform="translate(-185.315 -144.012)" fill="#3b3938"/>
          <path id="패스_8075" data-name="패스 8075" d="M325.939,144.09h1.1a2.193,2.193,0,0,1,.024,4.376h-1.12Zm1.049,3.923c1.032,0,1.537-.643,1.537-1.746s-.505-1.723-1.537-1.723h-.494v3.469Z" transform="translate(-183.738 -144.012)" fill="#3b3938"/>
        </g>
      </g>
      <g id="그룹_1159" data-name="그룹 1159" transform="translate(0.529)">
        <g id="그룹_1158" data-name="그룹 1158">
          <path id="패스_8076" data-name="패스 8076" d="M263.553,125.207h-3.329v-.415h1.4V124.1h.516v.691h1.41Zm-1.667,2.411c-.8,0-1.349-.417-1.349-1.051s.548-1.045,1.349-1.045,1.351.417,1.351,1.045S262.685,127.619,261.886,127.619Zm0-.4c.51,0,.861-.25.861-.648s-.352-.641-.861-.641-.857.25-.857.641S261.375,127.215,261.886,127.215Zm-.3,1.982h3.247v.421h-3.763V128h.516Zm3.823-3.234v.434h-.829v1.939h-.516V124.1h.516v1.861Z" transform="translate(-260.224 -124.096)" fill="#3b3938"/>
          <path id="패스_8077" data-name="패스 8077" d="M265.568,126.662v1.032h1.68v1.9h-.516v-1.485H263.3v-.415h1.755v-1.032h-2.3v-.423h3.8a6.81,6.81,0,0,0,.149-1.6h-3.294v-.414h3.806v.408a7.21,7.21,0,0,1-.14,1.6h.8v.423Z" transform="translate(-257.291 -123.951)" fill="#3b3938"/>
          <path id="패스_8078" data-name="패스 8078" d="M268.174,126.5c0,1.2-.587,1.969-1.416,1.969s-1.423-.766-1.423-1.969.592-1.969,1.423-1.969S268.174,125.3,268.174,126.5Zm-.492,0c0-.913-.384-1.5-.924-1.5s-.93.591-.93,1.5.384,1.509.93,1.509S267.682,127.419,267.682,126.5Zm2.845.283h-.933v2.958h-.514V124.1h.514v2.245h.933Z" transform="translate(-254.301 -124.092)" fill="#3b3938"/>
          <path id="패스_8079" data-name="패스 8079" d="M272.946,126.751v.414h-5.108v-.414h2.3v-.656h-1.654v-1.874h3.832v.414H269v1.045h3.355v.414h-1.7v.656Zm-.628,1.837c0,.654-.728,1.019-1.923,1.019s-1.939-.365-1.939-1.019.73-1.019,1.939-1.019S272.317,127.932,272.317,128.588Zm-.522,0c0-.4-.52-.617-1.4-.617s-1.416.22-1.416.617.522.615,1.416.615S271.795,128.983,271.795,128.588Z" transform="translate(-251.401 -123.958)" fill="#3b3938"/>
          <path id="패스_8080" data-name="패스 8080" d="M271.951,126.721c-.546.026-1.069.032-1.522.032l-.069-.423c.723-.006,1.617-.013,2.5-.076a8.188,8.188,0,0,0,.138-1.4h-2.126v-.414h2.629v.214a8.863,8.863,0,0,1-.119,1.554c.214-.019.434-.039.635-.069l.039.371a14.668,14.668,0,0,1-1.593.181V128h-.516Zm3.234,2.472v.421H271.2V127.9h.512v1.3Zm-.654-2.021V124.1h.518v4.259h-.518v-.781H273.3v-.41Z" transform="translate(-248.479 -124.092)" fill="#3b3938"/>
          <path id="패스_8081" data-name="패스 8081" d="M273.6,127.961a16.512,16.512,0,0,0,2.742-.2l.052.421a16.305,16.305,0,0,1-2.845.207h-.464v-2.163h2.077v-1.177h-2.1v-.423h2.619v2.014H273.6Zm3.789-3.862v5.656h-.516V124.1Z" transform="translate(-245.345 -124.099)" fill="#3b3938"/>
          <path id="패스_8082" data-name="패스 8082" d="M280.577,128.383v.421h-5.114v-.421h2.29V127.17H276.07v-2.882h.507v1.006h2.882v-1.006h.5v2.882h-1.686v1.213Zm-4-1.63h2.882v-1.036h-2.882Z" transform="translate(-242.565 -123.88)" fill="#3b3938"/>
          <path id="패스_8083" data-name="패스 8083" d="M281.046,127.231a2.186,2.186,0,0,1-1.367-1.215,2.325,2.325,0,0,1-1.42,1.384l-.266-.408a2,2,0,0,0,1.416-1.837v-.22h-1.265v-.414h3.024v.414h-1.246v.22a1.835,1.835,0,0,0,1.366,1.673Zm1.414,1.459c0,.661-.71,1.045-1.854,1.045-1.159,0-1.865-.384-1.865-1.045s.706-1.038,1.865-1.038C281.749,127.652,282.46,128.036,282.46,128.69Zm-.516,0c0-.4-.509-.628-1.338-.628-.844,0-1.349.231-1.349.628s.505.635,1.349.635C281.434,129.325,281.944,129.094,281.944,128.69Zm1.289-3.165v.434H282.4v1.548h-.516v-3.4h.516v1.42Z" transform="translate(-239.634 -124.092)" fill="#3b3938"/>
          <path id="패스_8084" data-name="패스 8084" d="M282.166,127.109c-.557.024-1.1.03-1.565.03l-.069-.427a30.621,30.621,0,0,0,3.635-.164l.045.371c-.5.076-1.019.132-1.528.164V128.2h-.518Zm-1.187-1.8c0-.592.566-.98,1.39-.98s1.39.389,1.39.98-.566.989-1.39.989S280.979,125.913,280.979,125.309Zm4.346,3.888v.421h-3.987v-1.641h.516v1.22Zm-3.856-3.888c0,.365.365.6.9.6s.9-.24.9-.6-.365-.6-.9-.6S281.469,124.95,281.469,125.309Zm3.2,2.126V124.1h.516v4.3h-.516v-.579H283.52v-.384Z" transform="translate(-236.692 -124.096)" fill="#3b3938"/>
        </g>
      </g>
      <g id="그룹_1160" data-name="그룹 1160" transform="translate(0 8.549)">
        <path id="패스_8085" data-name="패스 8085" d="M294.47,156.773H259.979v-5.786h8.944V139.509h7.549v11.478h18Zm-2.226-8.585H285v-14.4H262.092v-5.378h30.152Z" transform="translate(-259.979 -127.653)" fill="#cb0027"/>
        <path id="패스_8086" data-name="패스 8086" d="M301.954,158.69h-6.643v-4.246l-17.775,1.792V128.815h7.247v21.227L295.311,149v-5.723h-5.924v-5.032h5.924v-9.874h6.643Zm9.358.566h-7.094v-31.2h7.094Z" transform="translate(-239.634 -128.059)" fill="#ffba00"/>
        <path id="패스_8087" data-name="패스 8087" d="M328.713,156.773H294.22v-5.786h8.946V139.509h7.547v11.478h18Zm-2.228-8.585H319.24v-14.4h-22.9v-5.378h30.149Z" transform="translate(-220.301 -127.653)" fill="#278e2a"/>
        <path id="패스_8088" data-name="패스 8088" d="M336.193,158.69H329.55v-4.246l-17.773,1.792V128.815h7.245v21.227L329.55,149v-5.723h-5.924v-5.032h5.924v-9.874h6.643Zm9.358.566h-7.094v-31.2h7.094Z" transform="translate(-199.957 -128.059)" fill="#00489b"/>
      </g>
    </g>
    <path id="패스_8089" data-name="패스 8089" d="M299.315,130.033a3.4,3.4,0,1,1,3.4-3.4A3.4,3.4,0,0,1,299.315,130.033Zm0-4.73a1.333,1.333,0,1,0,1.332,1.332A1.334,1.334,0,0,0,299.315,125.3Z" transform="translate(77.576 0.866)" fill="#cb0027"/>
    <path id="패스_8090" data-name="패스 8090" d="M258.319,131.28a4.694,4.694,0,0,1-3.04-1.114l1.334-1.574a2.642,2.642,0,1,0,3.415-4.033l1.334-1.574a4.7,4.7,0,0,1-3.044,8.294Z" transform="translate(30.486 0.572)" fill="#ffba00"/>
    <path id="패스_8091" data-name="패스 8091" d="M258.968,151.748a3.4,3.4,0,1,1,3.4-3.4A3.4,3.4,0,0,1,258.968,151.748Zm0-4.73a1.333,1.333,0,1,0,1.334,1.334A1.336,1.336,0,0,0,258.968,147.018Z" transform="translate(30.826 26.028)" fill="#cb0027"/>
    <path id="패스_8092" data-name="패스 8092" d="M328.837,152.732a4.787,4.787,0,0,1-.607-.039l.263-2.047a2.641,2.641,0,0,0,.671-5.239l.261-2.049a4.706,4.706,0,0,1-.589,9.373Z" transform="translate(115.02 24.18)" fill="#ffba00"/>
    <rect id="사각형_171" data-name="사각형 171" width="2.063" height="7.242" transform="translate(364.129 124.11) rotate(-45)" fill="#278e2a"/>
    <path id="패스_8093" data-name="패스 8093" d="M332.345,131.433a4.615,4.615,0,0,1-3.493-7.625l1.565,1.345a2.552,2.552,0,1,0,3.871,3.327l1.565,1.345a4.585,4.585,0,0,1-3.154,1.593C332.58,131.426,332.463,131.433,332.345,131.433Z" transform="translate(114.45 1.525)" fill="#00489b"/>
  </g>
</svg>
