<svg xmlns="http://www.w3.org/2000/svg" width="118" height="118" viewBox="0 0 118 118">
  <g id="icon1" transform="translate(-414 -1209)">
    <circle id="타원_367" data-name="타원 367" cx="59" cy="59" r="59" transform="translate(414 1209)" fill="#fff"/>
    <g id="icon" transform="translate(-2258.736 -4265.417)">
      <path id="패스_4502" data-name="패스 4502" d="M2772.482,5545.9c-2,.085-4-.048-6,.047-1.126.053-1.415-.286-1.4-1.4.061-5.2.007-10.4.045-15.593a3.84,3.84,0,0,0-.741-2.37c-2.925-4.142-5.821-8.3-8.747-12.447-1.115-1.579-1.881-1.584-2.991-.011-2.957,4.189-5.878,8.406-8.844,12.588a3.514,3.514,0,0,0-.649,2.224c.038,2.424.014,4.85.014,7.641a23.264,23.264,0,0,0-6.709-5.716c-.617-.331-.627-.573-.21-1.135a20.756,20.756,0,0,0,3.443-18.144,1.272,1.272,0,0,1,.616-1.638A9.566,9.566,0,1,0,2727,5496.693a1.476,1.476,0,0,1-1.945.659,25.936,25.936,0,0,0-13.029-.031,1.679,1.679,0,0,1-2.189-.791,9.557,9.557,0,0,0-17.2,3.632,8.937,8.937,0,0,0,3.629,9.49,2.017,2.017,0,0,1,.871,2.481,20.459,20.459,0,0,0,3.294,17.209c.732,1.017.5,1.277-.426,1.828a20.133,20.133,0,0,0-9.721,13.227c-1.152,4.941-.794,9.228,4.333,11.795.832.417.238.9.1,1.26a13.1,13.1,0,0,0-.553,8.057c1.069,4.254,3.494,7.452,7.781,8.781,4.036,1.251,7.537-.005,10.394-3.02a1.149,1.149,0,0,1,1.584-.27,10.783,10.783,0,0,0,9.1.01,1.267,1.267,0,0,1,1.707.361c5.165,5.2,12.785,4.265,16.491-2.092a2.569,2.569,0,0,1,2.671-1.436c9.538.036,19.077,0,28.616.042,1.608.008,2.249-.523,2.231-2.181q-.1-8.822,0-17.649C2774.755,5546.377,2774.071,5545.835,2772.482,5545.9Zm-18.984-28.151c.39-.565.689-.881,1.221-.107,2.024,2.945,4.082,5.868,6.323,9.081h-13.8C2749.469,5523.53,2751.492,5520.646,2753.5,5517.751Zm-23.554-20.406a7.483,7.483,0,0,1,4.645-2.163,7.194,7.194,0,0,1,6.712,4.465,6.9,6.9,0,0,1-1.563,7.249c-.694.668-1.275,1.232-2-.15a17.208,17.208,0,0,0-7.562-7.411C2728.854,5498.654,2729.187,5498.091,2729.943,5497.345ZM2697.3,5507a7.41,7.41,0,0,1-2.131-4.616,6.868,6.868,0,0,1,11.747-5.116c.819.857,1.121,1.435-.329,2.182a17.046,17.046,0,0,0-7.425,7.342C2698.525,5508.013,2697.992,5507.724,2697.3,5507Zm17.856-7.427a22.252,22.252,0,0,1,14.038,2.435,16.813,16.813,0,0,1,8.354,16.777c-1,8.289-5.8,13.657-13.325,15.45a26.1,26.1,0,0,1-6.052.73c-6.473-.246-12.433-2.229-16.194-8.313C2695.611,5516.356,2700.641,5501.307,2715.154,5499.574Zm-19.476,54.025a5.239,5.239,0,0,1-3.212-5.012c.506-6.775,3.5-12.031,9.552-15.4a1.73,1.73,0,0,1,2.27.129,19.282,19.282,0,0,0,4.2,2.5,25.086,25.086,0,0,0-5.07,13.468,1.061,1.061,0,0,1-.963,1.01,10.968,10.968,0,0,0-5.241,3.063A1.219,1.219,0,0,1,2695.678,5553.6Zm11.265,17.974a7.6,7.6,0,0,1-8.421-2.978,10.6,10.6,0,0,1,1-13.487,7.4,7.4,0,0,1,11.729,1.412,12.1,12.1,0,0,1,1.744,5.988C2712.966,5566.618,2710.417,5570.434,2706.942,5571.573Zm14.67-5.77c.693,2.754.517,3.014-2.323,3.393-.282.038-.57.031-1.01.052-.245-.033-.645-.064-1.034-.142-2.656-.532-2.654-.535-1.95-3.075,1.872-6.753-1.844-14.317-8.154-15.714-.6-.133-.98-.4-.886-1.189a22.331,22.331,0,0,1,3.91-10.8,2.531,2.531,0,0,1,3.03-1.125,23.791,23.791,0,0,0,10.688-.024,2.361,2.361,0,0,1,2.78.964,22.083,22.083,0,0,1,4.065,11.094c.1.818-.443.973-1,1.11C2723.553,5551.865,2719.912,5559.041,2721.613,5565.8Zm15.316,4.365c-3.133,2.7-7.308,2.426-10.355-.935-5.091-5.615-2.168-14.837,4.159-16.259a7.855,7.855,0,0,1,7.831,3.374,11.684,11.684,0,0,1,1.887,6.324A10.673,10.673,0,0,1,2736.929,5570.168Zm2.1-17.517a10.553,10.553,0,0,0-4.339-2.295,1.351,1.351,0,0,1-1.16-1.4c-.511-4.464-1.673-8.712-4.532-12.319-.477-.6-.39-.938.312-1.253a14.074,14.074,0,0,0,3.6-2.271,1.3,1.3,0,0,1,1.694-.094,17.417,17.417,0,0,1,9.619,13.845c.083.677.2,1.35.305,2.045a6.491,6.491,0,0,1-1.432,3.4C2741.7,5553.905,2740.648,5553.978,2739.024,5552.651Zm3.857,6.66a9.763,9.763,0,0,1-.883-2.737c-.09-.586,4.275-2.622,4.914-2.423.49.153.357.511.366.816.02.685.006,1.371.006,2.057,0,2.616,0,2.641-2.71,2.592C2744.006,5559.606,2743.22,5560.009,2742.881,5559.311Zm8.606,5.837c-2.452-.086-4.909-.015-7.363-.037-.481,0-1.347.257-.99-.762.242-.692-.676-2.024,1.037-1.977,1.369.039,2.74-.014,4.11.013,1.224.023,1.766-.541,1.754-1.761-.025-2.4-.052-4.8.01-7.191.038-1.457-.519-2.127-2.007-2.044-.4.023-1.334.234-.974-.607.3-.7-.387-1.845.88-2.107a2.644,2.644,0,0,1,.342-.008c4.485-.316,4.485-.317,4.485,4.143v4.11c0,2.283-.044,4.567.021,6.85C2752.818,5564.768,2752.6,5565.188,2751.487,5565.148Zm-3.36-19.209c-.8.006-1.117-.205-1.375-1.026-1.531-4.859-.562-9.841-.834-14.757-.046-.834.57-.683,1.055-.685,2.4-.007,4.791,0,7.186,0,2.338,0,4.678.048,7.014-.022,1-.031,1.226.316,1.218,1.256q-.065,7.014,0,14.029c.011,1-.328,1.222-1.261,1.212C2756.8,5545.9,2752.461,5545.9,2748.127,5545.939Zm23.857,18.132c.006.814-.235,1.071-1.058,1.066q-7.181-.05-14.363,0c-.814,0-1.083-.234-1.067-1.059.047-2.393.017-4.787.017-7.181s.03-4.788-.016-7.182c-.016-.814.235-1.072,1.058-1.066q7.181.051,14.364,0c.813-.006,1.072.235,1.065,1.058Q2771.934,5556.89,2771.984,5564.071Z" transform="translate(0 0)" fill="#070304"/>
      <path id="패스_4503" data-name="패스 4503" d="M2722.093,5537.823a26.151,26.151,0,0,0,6.052-.73c7.521-1.793,12.325-7.161,13.325-15.45a16.813,16.813,0,0,0-8.354-16.777,22.252,22.252,0,0,0-14.038-2.435c-14.513,1.733-19.543,16.782-13.179,27.077C2709.66,5535.594,2715.62,5537.576,2722.093,5537.823Zm8.477-21.931c.88-.042,1.318.494,1.444,1.331-.106.844-.538,1.375-1.416,1.365a1.22,1.22,0,0,1-1.312-1.251A1.237,1.237,0,0,1,2730.57,5515.892Zm-17.736,1.188a1.23,1.23,0,0,1,1.37-1.193c.9.018,1.242.622,1.374,1.328-.184.932-.654,1.448-1.524,1.37A1.243,1.243,0,0,1,2712.834,5517.08Zm-.174,6.363c.968-.088,1.374.5,1.536,1.438a6.893,6.893,0,0,0,5.418,5.674c.985.222,1.348.02,1.47-1.122a4.217,4.217,0,0,0-2.388-4.546,3.2,3.2,0,0,1-1.634-4.085,3.255,3.255,0,0,1,3.644-2.2c.567.048,1.141.007,1.711.008.742,0,1.484.01,2.226,0a3.018,3.018,0,0,1,3.027,2.076,3.083,3.083,0,0,1-.677,3.472,3.563,3.563,0,0,1-1.038.878c-1.983.885-2.357,2.45-2.217,4.443.085,1.222.6,1.331,1.5,1.045,2.845-.9,5.014-2.472,5.387-5.7.1-.872.513-1.412,1.4-1.381.991.034,1.346.695,1.352,1.619a7.5,7.5,0,0,1-1.83,4.687c-4.4,5.675-15.11,5.171-18.935-.888a6.824,6.824,0,0,1-1.186-3.69C2711.431,5524.263,2711.663,5523.533,2712.66,5523.443Z" transform="translate(-3.924 -2.857)" fill="#af633e"/>
      <path id="패스_4504" data-name="패스 4504" d="M2736.524,5568.729c.557-.137,1.1-.292,1-1.11a22.085,22.085,0,0,0-4.065-11.094,2.36,2.36,0,0,0-2.78-.964,23.791,23.791,0,0,1-10.687.024,2.531,2.531,0,0,0-3.03,1.125,22.331,22.331,0,0,0-3.91,10.8c-.094.784.287,1.056.886,1.189,6.31,1.4,10.026,8.961,8.154,15.714-.7,2.541-.706,2.543,1.95,3.075.39.078.789.109,1.034.142.439-.022.728-.015,1.01-.052,2.84-.378,3.016-.638,2.323-3.393C2726.708,5577.426,2730.349,5570.25,2736.524,5568.729Z" transform="translate(-6.796 -18.385)" fill="#c77c51"/>
      <path id="패스_4505" data-name="패스 4505" d="M2702.337,5579.988a10.6,10.6,0,0,0-1,13.487,7.6,7.6,0,0,0,8.421,2.977c3.474-1.139,6.024-4.955,6.057-9.065a12.1,12.1,0,0,0-1.744-5.988A7.4,7.4,0,0,0,2702.337,5579.988Z" transform="translate(-2.811 -24.88)" fill="#984d30"/>
      <path id="패스_4506" data-name="패스 4506" d="M2744.832,5577.851c-6.327,1.421-9.25,10.644-4.159,16.259,3.047,3.361,7.222,3.632,10.355.935a10.673,10.673,0,0,0,3.522-7.5,11.684,11.684,0,0,0-1.887-6.324A7.855,7.855,0,0,0,2744.832,5577.851Z" transform="translate(-14.099 -24.877)" fill="#984d30"/>
      <path id="패스_4507" data-name="패스 4507" d="M2798,5571.8q-7.182.048-14.364,0c-.823-.006-1.074.252-1.058,1.066.046,2.394.016,4.788.016,7.182s.03,4.789-.017,7.182c-.016.824.253,1.063,1.067,1.059q7.181-.048,14.363,0c.823.006,1.064-.252,1.058-1.066q-.049-7.181,0-14.363C2799.067,5572.039,2798.809,5571.8,2798,5571.8Zm-3.422,13.72c-1.25.038-2.5.008-3.754.008s-2.5.03-3.754-.008c-1.552-.046-2.109-.836-1.464-2.2,1.237-2.613,2.518-5.207,3.864-7.766.745-1.417,1.959-1.418,2.7,0q2.019,3.838,3.863,7.766C2796.679,5584.688,2796.124,5585.478,2794.573,5585.524Z" transform="translate(-27.077 -23.154)" fill="#f79f25"/>
      <path id="패스_4508" data-name="패스 4508" d="M2703.574,5566.94a1.062,1.062,0,0,0,.963-1.011,25.087,25.087,0,0,1,5.07-13.468,19.263,19.263,0,0,1-4.2-2.5,1.73,1.73,0,0,0-2.27-.129c-6.054,3.364-9.047,8.62-9.552,15.4a5.239,5.239,0,0,0,3.212,5.012,1.219,1.219,0,0,0,1.536-.237A10.967,10.967,0,0,1,2703.574,5566.94Z" transform="translate(-1.119 -16.641)" fill="#af633e"/>
      <path id="패스_4509" data-name="패스 4509" d="M2759.134,5568.916a6.489,6.489,0,0,0,1.432-3.4c-.1-.7-.222-1.368-.305-2.045a17.416,17.416,0,0,0-9.619-13.845,1.3,1.3,0,0,0-1.694.094,14.071,14.071,0,0,1-3.6,2.271c-.7.314-.788.652-.312,1.253,2.86,3.606,4.021,7.855,4.532,12.319a1.351,1.351,0,0,0,1.16,1.4,10.551,10.551,0,0,1,4.339,2.295C2756.69,5570.586,2757.739,5570.513,2759.134,5568.916Z" transform="translate(-16.042 -16.608)" fill="#af633e"/>
      <path id="패스_4510" data-name="패스 4510" d="M2785.5,5559.976q-.077-7.014,0-14.029c.008-.94-.221-1.287-1.218-1.256-2.336.07-4.676.022-7.014.022-2.4,0-4.791,0-7.186,0-.485,0-1.1-.149-1.055.685.272,4.917-.7,9.9.834,14.757.259.821.576,1.033,1.375,1.026,4.334-.035,8.669-.041,13,0C2785.173,5561.2,2785.512,5560.977,2785.5,5559.976Zm-8.191-1.55a5.485,5.485,0,1,1,5.425-5.459A5.487,5.487,0,0,1,2777.31,5558.425Z" transform="translate(-23.11 -15.246)" fill="#1a7dc3"/>
      <path id="패스_4511" data-name="패스 4511" d="M2708.823,5500.612c1.45-.748,1.147-1.325.329-2.182a6.868,6.868,0,0,0-11.747,5.116,7.408,7.408,0,0,0,2.131,4.616c.694.723,1.227,1.011,1.863-.208A17.046,17.046,0,0,1,2708.823,5500.612Z" transform="translate(-2.237 -1.161)" fill="#af633e"/>
      <path id="패스_4512" data-name="패스 4512" d="M2746.461,5500.474a17.208,17.208,0,0,1,7.562,7.41c.722,1.382,1.3.818,2,.15a6.9,6.9,0,0,0,1.563-7.249,7.193,7.193,0,0,0-6.711-4.465,7.483,7.483,0,0,0-4.645,2.163C2745.469,5499.229,2745.136,5499.793,2746.461,5500.474Z" transform="translate(-16.283 -1.139)" fill="#af633e"/>
      <path id="패스_4513" data-name="패스 4513" d="M2774.722,5580.031v-4.111c0-4.459,0-4.459-4.485-4.143a2.647,2.647,0,0,0-.342.008c-1.266.263-.581,1.412-.88,2.107-.36.841.57.63.974.606,1.488-.083,2.045.588,2.007,2.045-.062,2.4-.035,4.794-.01,7.191.012,1.22-.53,1.784-1.754,1.761-1.369-.027-2.741.025-4.11-.013-1.713-.047-.795,1.285-1.037,1.977-.356,1.02.509.759.99.763,2.455.022,4.912-.05,7.363.037,1.116.039,1.331-.38,1.3-1.379C2774.678,5584.6,2774.722,5582.313,2774.722,5580.031Z" transform="translate(-21.953 -23.112)" fill="#3b915b"/>
      <path id="패스_4514" data-name="패스 4514" d="M2784.719,5536.921c-2.242-3.213-4.3-6.135-6.323-9.08-.532-.774-.831-.458-1.221.107-2.006,2.9-4.029,5.779-6.26,8.973h13.8Z" transform="translate(-23.677 -10.198)" fill="#d32c2f"/>
      <path id="패스_4515" data-name="패스 4515" d="M2766.093,5585.03c2.711.049,2.711.024,2.711-2.592,0-.686.014-1.372-.006-2.057-.009-.306.124-.663-.366-.816-.639-.2-5,1.836-4.914,2.423a9.755,9.755,0,0,0,.883,2.737C2764.739,5585.423,2765.525,5585.021,2766.093,5585.03Z" transform="translate(-21.519 -25.414)" fill="#e2e8ed"/>
      <path id="패스_4516" data-name="패스 4516" d="M2734.944,5536.485a7.5,7.5,0,0,0,1.83-4.687c-.006-.924-.361-1.585-1.352-1.619-.889-.031-1.3.509-1.4,1.381-.374,3.232-2.542,4.8-5.387,5.7-.9.285-1.417.176-1.5-1.046-.139-1.993.235-3.558,2.217-4.442a3.563,3.563,0,0,0,1.039-.879,3.082,3.082,0,0,0,.677-3.472,3.018,3.018,0,0,0-3.027-2.076c-.742.011-1.484,0-2.226,0-.571,0-1.145.041-1.711-.008a3.256,3.256,0,0,0-3.645,2.2,3.2,3.2,0,0,0,1.634,4.086,4.215,4.215,0,0,1,2.388,4.546c-.122,1.142-.485,1.345-1.47,1.122a6.892,6.892,0,0,1-5.418-5.674c-.163-.935-.568-1.526-1.536-1.438-1,.09-1.229.819-1.23,1.723a6.823,6.823,0,0,0,1.186,3.69C2719.834,5541.656,2730.543,5542.16,2734.944,5536.485Zm-11.676-7.948c.232-.9,1.49-.349,2.292-.429a16.243,16.243,0,0,1,2.2.007c.36.014.659.161.646.563-.115.919-2.658,2.149-3.369,1.621C2724.349,5529.785,2723.038,5529.429,2723.268,5528.537Z" transform="translate(-7.317 -9.598)" fill="#080404"/>
      <path id="패스_4517" data-name="패스 4517" d="M2718.02,5524.215c.87.078,1.34-.437,1.523-1.37-.132-.707-.47-1.31-1.373-1.328a1.23,1.23,0,0,0-1.37,1.193A1.243,1.243,0,0,0,2718.02,5524.215Z" transform="translate(-7.89 -8.487)" fill="#0a0706"/>
      <path id="패스_4518" data-name="패스 4518" d="M2741.341,5524.219c.878.01,1.311-.521,1.416-1.365-.125-.837-.564-1.373-1.444-1.332a1.237,1.237,0,0,0-1.284,1.445A1.22,1.22,0,0,0,2741.341,5524.219Z" transform="translate(-14.668 -8.488)" fill="#0a0706"/>
      <path id="패스_4519" data-name="패스 4519" d="M2793.308,5576.663c-.745-1.415-1.96-1.413-2.7,0-1.346,2.559-2.627,5.152-3.864,7.766-.645,1.364-.088,2.155,1.464,2.2,1.25.039,2.5.008,3.754.008s2.5.03,3.754-.008c1.551-.046,2.106-.837,1.459-2.2Q2795.317,5580.509,2793.308,5576.663Zm-3.045,7.2a22.141,22.141,0,0,1,1.679-3.718l1.885,3.718Z" transform="translate(-28.215 -24.262)" fill="#080404"/>
      <path id="패스_4520" data-name="패스 4520" d="M2778.515,5548.6a5.485,5.485,0,1,0,5.371,5.51A5.47,5.47,0,0,0,2778.515,5548.6Zm-.2,8.225a2.742,2.742,0,1,1,2.831-2.778A2.794,2.794,0,0,1,2778.312,5556.82Z" transform="translate(-24.261 -16.385)" fill="#070405"/>
      <path id="패스_4521" data-name="패스 4521" d="M2731.875,5529.786c.013-.4-.286-.549-.646-.563a16.164,16.164,0,0,0-2.2-.006c-.8.08-2.061-.471-2.293.428s1.081,1.249,1.771,1.762C2729.217,5531.935,2731.76,5530.705,2731.875,5529.786Z" transform="translate(-10.783 -10.705)" fill="#af633e"/>
      <path id="패스_4522" data-name="패스 4522" d="M2791.822,5585.739h3.563l-1.885-3.717A22.115,22.115,0,0,0,2791.822,5585.739Z" transform="translate(-29.775 -26.134)" fill="#dee3e8"/>
      <path id="패스_4523" data-name="패스 4523" d="M2779.536,5552.468a2.742,2.742,0,1,0,2.737,2.7A2.8,2.8,0,0,0,2779.536,5552.468Z" transform="translate(-25.39 -17.515)" fill="#e0e6eb"/>
    </g>
  </g>
</svg>
