<svg xmlns="http://www.w3.org/2000/svg" width="118" height="118" viewBox="0 0 118 118">
  <g id="icon5" transform="translate(-1194 -1209)">
    <circle id="타원_371" data-name="타원 371" cx="59" cy="59" r="59" transform="translate(1194 1209)" fill="#fff"/>
    <g id="icon" transform="translate(-2161.676 -4267.548)">
      <g id="그룹_634" data-name="그룹 634" transform="translate(3409.652 5554.098)">
        <path id="패스_4420" data-name="패스 4420" d="M3420.415,5597.4v-24.463h7.818V5597.4" transform="translate(-3418.885 -5571.411)" fill="#fff"/>
        <path id="패스_4421" data-name="패스 4421" d="M3427.785,5598.483a1.529,1.529,0,0,1-1.529-1.529v-22.934H3421.5v22.934a1.529,1.529,0,1,1-3.058,0v-24.462a1.53,1.53,0,0,1,1.529-1.529h7.819a1.529,1.529,0,0,1,1.529,1.529v24.462A1.529,1.529,0,0,1,3427.785,5598.483Z" transform="translate(-3418.437 -5570.963)" fill="#1a1311"/>
      </g>
      <g id="그룹_647" data-name="그룹 647" transform="translate(3379.676 5496.548)">
        <g id="그룹_644" data-name="그룹 644">
          <g id="그룹_637" data-name="그룹 637">
            <g id="그룹_635" data-name="그룹 635">
              <path id="패스_4422" data-name="패스 4422" d="M3415.539,5532.414l-33.886-33.886,33.462.914,16.7,16.7Z" transform="translate(-3380.124 -5496.997)" fill="#73b87c"/>
              <path id="패스_4423" data-name="패스 4423" d="M3415.091,5533.494h0a1.529,1.529,0,0,1-1.081-.448l-33.886-33.887a1.528,1.528,0,0,1-.323-1.685,1.484,1.484,0,0,1,1.446-.924l33.462.914a1.523,1.523,0,0,1,1.039.447l16.7,16.7a1.527,1.527,0,0,1,0,2.163l-16.274,16.274A1.529,1.529,0,0,1,3415.091,5533.494ZM3385,5499.712l30.09,30.091,14.112-14.112-15.186-15.186Z" transform="translate(-3379.676 -5496.548)" fill="#1a1311"/>
            </g>
            <g id="그룹_636" data-name="그룹 636" transform="translate(33.463 0.916)">
              <path id="패스_4424" data-name="패스 4424" d="M3424.921,5499.709s7.826,12.989.424,32.973l16.275-16.275Z" transform="translate(-3423.393 -5498.181)" fill="#a7ce8b"/>
              <path id="패스_4425" data-name="패스 4425" d="M3424.9,5533.763a1.53,1.53,0,0,1-1.434-2.06c7.033-18.985-.227-31.531-.3-31.657a1.529,1.529,0,0,1,2.393-1.866l16.7,16.7a1.528,1.528,0,0,1,0,2.163l-16.274,16.274A1.528,1.528,0,0,1,3424.9,5533.763Zm3.53-28.386a43.756,43.756,0,0,1-.246,21.412l10.829-10.83Z" transform="translate(-3422.946 -5497.733)" fill="#1a1311"/>
            </g>
          </g>
          <g id="그룹_638" data-name="그룹 638" transform="translate(0 17.631)">
            <path id="패스_4426" data-name="패스 4426" d="M3415.539,5537.575l-33.886,33.887.914-33.462,16.7-16.7Z" transform="translate(-3380.124 -5519.789)" fill="#b52b59"/>
            <path id="패스_4427" data-name="패스 4427" d="M3381.205,5572.548a1.529,1.529,0,0,1-1.528-1.571l.914-33.463a1.522,1.522,0,0,1,.447-1.039l16.7-16.7a1.574,1.574,0,0,1,2.162,0l16.274,16.274a1.53,1.53,0,0,1,0,2.163l-33.886,33.887A1.531,1.531,0,0,1,3381.205,5572.548Zm2.425-34.342-.792,29.017,30.09-30.091-14.112-14.112Z" transform="translate(-3379.677 -5519.347)" fill="#1a1311"/>
          </g>
          <g id="그룹_639" data-name="그룹 639" transform="translate(0.914 17.631)">
            <path id="패스_4428" data-name="패스 4428" d="M3382.834,5538s12.989-7.826,32.973-.424l-16.274-16.275Z" transform="translate(-3381.306 -5519.789)" fill="#e25170"/>
            <path id="패스_4429" data-name="패스 4429" d="M3382.389,5539.083a1.528,1.528,0,0,1-1.083-2.608l16.7-16.7a1.574,1.574,0,0,1,2.162,0l16.274,16.274a1.529,1.529,0,0,1-1.613,2.514c-18.985-7.03-31.531.229-31.656.3A1.521,1.521,0,0,1,3382.389,5539.083Zm16.032-6.684a47.624,47.624,0,0,1,11.493,1.449l-10.829-10.829L3388.5,5533.6A40.3,40.3,0,0,1,3398.42,5532.4Z" transform="translate(-3380.858 -5519.347)" fill="#1a1311"/>
          </g>
          <g id="그룹_640" data-name="그룹 640" transform="translate(17.612 33.888)">
            <path id="패스_4430" data-name="패스 4430" d="M3420.7,5542.344l33.886,33.887-33.462-.914-16.7-16.7Z" transform="translate(-3402.897 -5540.815)" fill="#57a8d5"/>
            <path id="패스_4431" data-name="패스 4431" d="M3454.138,5577.312h-.042l-33.462-.914a1.519,1.519,0,0,1-1.039-.447l-16.7-16.7a1.529,1.529,0,0,1,0-2.162l16.274-16.274a1.53,1.53,0,0,1,2.163,0l33.885,33.887a1.529,1.529,0,0,1-1.081,2.61Zm-32.812-3.955,29.017.793-30.09-30.091-14.113,14.111Z" transform="translate(-3402.449 -5540.367)" fill="#1a1311"/>
          </g>
          <g id="그룹_641" data-name="그룹 641" transform="translate(17.612 33.887)">
            <path id="패스_4432" data-name="패스 4432" d="M3421.125,5575.316s-7.826-12.989-.425-32.972l-16.274,16.274Z" transform="translate(-3402.897 -5540.814)" fill="#6bb8de"/>
            <path id="패스_4433" data-name="패스 4433" d="M3420.674,5576.4a1.523,1.523,0,0,1-1.079-.447l-16.7-16.7a1.53,1.53,0,0,1,0-2.163l16.274-16.274a1.529,1.529,0,0,1,2.515,1.612c-7.031,18.985.228,31.533.3,31.657a1.53,1.53,0,0,1-1.314,2.313Zm-14.534-18.227,10.584,10.583a43.764,43.764,0,0,1,.245-21.412Z" transform="translate(-3402.449 -5540.366)" fill="#1a1311"/>
          </g>
          <g id="그룹_642" data-name="그룹 642" transform="translate(33.886)">
            <path id="패스_4434" data-name="패스 4434" d="M3425.469,5532.414l33.886-33.886-.914,33.462-16.7,16.7Z" transform="translate(-3423.94 -5496.997)" fill="#f9b43d"/>
            <path id="패스_4435" data-name="패스 4435" d="M3441.3,5549.768a1.526,1.526,0,0,1-1.082-.448l-16.274-16.274a1.53,1.53,0,0,1,0-2.163L3457.826,5497a1.529,1.529,0,0,1,2.609,1.123l-.914,33.462a1.527,1.527,0,0,1-.447,1.04l-16.7,16.7A1.523,1.523,0,0,1,3441.3,5549.768Zm-14.113-17.8,14.113,14.111,15.186-15.186.792-29.017Z" transform="translate(-3423.492 -5496.548)" fill="#1a1311"/>
          </g>
          <g id="그룹_643" data-name="그룹 643" transform="translate(33.886 33.464)">
            <path id="패스_4436" data-name="패스 4436" d="M3458.442,5541.8s-12.989,7.825-32.972.424l16.275,16.274Z" transform="translate(-3423.94 -5540.268)" fill="#fde36b"/>
            <path id="패스_4437" data-name="패스 4437" d="M3441.3,5559.575a1.526,1.526,0,0,1-1.082-.448l-16.274-16.274a1.529,1.529,0,0,1,1.612-2.515c19.073,7.064,31.529-.225,31.653-.3a1.529,1.529,0,0,1,1.87,2.391l-16.7,16.7A1.523,1.523,0,0,1,3441.3,5559.575Zm-10.83-14.52,10.83,10.828,10.583-10.583A43.741,43.741,0,0,1,3430.466,5545.055Z" transform="translate(-3423.492 -5539.819)" fill="#1a1311"/>
          </g>
        </g>
        <g id="그룹_645" data-name="그룹 645" transform="translate(22.435 22.437)">
          <circle id="타원_172" data-name="타원 172" cx="11.451" cy="11.451" r="11.451" transform="translate(1.529 1.529)" fill="#fff"/>
          <path id="패스_4438" data-name="패스 4438" d="M3421.666,5551.52a12.98,12.98,0,1,1,12.98-12.979A12.993,12.993,0,0,1,3421.666,5551.52Zm0-22.9a9.922,9.922,0,1,0,9.922,9.922A9.933,9.933,0,0,0,3421.666,5528.618Z" transform="translate(-3408.686 -5525.56)" fill="#1a1311"/>
        </g>
        <g id="그룹_646" data-name="그룹 646" transform="translate(28.168 28.17)">
          <circle id="타원_173" data-name="타원 173" cx="5.717" cy="5.717" r="5.717" transform="translate(1.529 1.529)" fill="#fff"/>
          <path id="패스_4439" data-name="패스 4439" d="M3423.346,5547.466a7.246,7.246,0,1,1,7.246-7.246A7.254,7.254,0,0,1,3423.346,5547.466Zm0-11.434a4.188,4.188,0,1,0,4.188,4.188A4.193,4.193,0,0,0,3423.346,5536.032Z" transform="translate(-3416.099 -5532.974)" fill="#1a1311"/>
        </g>
      </g>
    </g>
  </g>
</svg>
