<svg xmlns="http://www.w3.org/2000/svg" width="1920" height="88.333" viewBox="0 0 1920 88.333">
  <path id="background" d="M1796.521,1021.73c-21.893-14.665-44.531-29.829-89.314-29.829s-67.421,15.164-89.314,29.829c-21.98,14.723-42.741,28.629-85.23,28.629s-63.249-13.906-85.228-28.629c-21.894-14.665-44.532-29.829-89.316-29.829s-67.422,15.164-89.314,29.829c-21.981,14.723-42.742,28.629-85.231,28.629s-63.249-13.906-85.229-28.629c-21.893-14.665-44.532-29.829-89.315-29.829s-67.42,15.164-89.313,29.829c-21.98,14.723-42.74,28.629-85.228,28.629s-63.249-13.906-85.229-28.629c-21.893-14.665-44.531-29.829-89.315-29.829s-67.422,15.164-89.315,29.829c-21.98,14.723-42.741,28.629-85.231,28.629s-63.25-13.906-85.23-28.629c-21.893-14.665-44.531-29.829-89.314-29.829s-67.425,15.164-89.319,29.829c-21.981,14.723-42.743,28.629-85.234,28.629s-63.252-13.906-85.233-28.629C29.175,1007.066,6.536,991.9-38.25,991.9v88.333h1920V1050.36C1839.262,1050.36,1818.5,1036.453,1796.521,1021.73Z" transform="translate(38.25 -991.902)" fill="#fafafa"/>
</svg>
