<svg xmlns="http://www.w3.org/2000/svg" width="69.868" height="109.708" viewBox="0 0 69.868 109.708">
  <path id="vector_lightning" d="M390.673,709.183a11.009,11.009,0,0,0-2.6,1.186c-1.126.682-2.174,1.492-3.256,2.248h0c-.63-.331-.7-.951-.806-1.556a23.035,23.035,0,0,1,1.667-3.18,87.929,87.929,0,0,0,5.14-8.67,40.106,40.106,0,0,0,3.274-7.581c.476-1.474-.3-2.552-1.245-3.532-.922-.956-2-.631-3.014-.222a43.316,43.316,0,0,0-8.341,4.2,4.947,4.947,0,0,1-2.867,1.221c-.094-1.262,1.039-1.944,1.14-3.02a1.714,1.714,0,0,0,.707-1.593,12,12,0,0,0,2.049-5.094c.85-1.432,1.74-2.843,2.54-4.3a3.419,3.419,0,0,0-.584-4.27c-.985-1.053-2.074-.865-3.283-.433-3.143,1.123-6.313,2.174-9.472,3.253h0q-2.324.027-4.649.056a2.54,2.54,0,0,1-2.25-.828c-.714-.891-1.412-.609-2.091.1-.493.517-1.021,1-1.55,1.484a3.086,3.086,0,0,0-.928,3.573,5.747,5.747,0,0,1,.521,2.744,7.462,7.462,0,0,0-1.359,4.38,2.774,2.774,0,0,0-.719,2.18,1.29,1.29,0,0,0-.209.293c-2.625,7.709-4.861,15.551-7.867,23.131a11.229,11.229,0,0,0-.663,4.261c.021,2.77,2.336,4.15,4.7,2.8a29.9,29.9,0,0,0,2.643-1.883l10.173-7.368a1.407,1.407,0,0,1,.1,1.527c-1.1,3.306-2.144,6.632-3.329,9.907-1.349,3.729-2.794,7.426-4.264,11.11a7.416,7.416,0,0,0-.554,3.872,2.947,2.947,0,0,0,2.249,2.53,2.855,2.855,0,0,0,3-.718c1.4-1.313,2.72-2.7,4.075-4.063l.919.921c-1.769,5.605-3.52,11.216-5.316,16.812-.7,2.168-.9,4.524-1.723,6.565-1.117,2.767-1.9,5.67-3.257,8.345a7.323,7.323,0,0,0-.68,2.04,3.408,3.408,0,0,0,2.985,4.108,3.594,3.594,0,0,0,3.005-1.693,10.962,10.962,0,0,0,1.465-3.274,137.6,137.6,0,0,1,11.574-25.076c2.075-3.509,4.243-6.982,6.028-10.638a126.655,126.655,0,0,1,7.656-13.817,29.107,29.107,0,0,0,3.505-7.867C395.757,710.412,393.614,708.337,390.673,709.183Z" transform="matrix(0.966, 0.259, -0.259, 0.966, -137.255, -741.844)" fill="#3152fe"/>
</svg>
