<svg xmlns="http://www.w3.org/2000/svg" width="143.674" height="155.372" viewBox="0 0 143.674 155.372">
  <g id="vector_twinkle" transform="translate(-756.961 -93.539)">
    <path id="패스_7797" data-name="패스 7797" d="M897.237,135.836a4.13,4.13,0,0,0-4.907,1.014c-1.4,1.409-2.764,2.861-4.178,4.261a41.943,41.943,0,0,1-3.48,3.246,2.625,2.625,0,0,1-3.775-.281,55.176,55.176,0,0,1-7.159-9.528,6.231,6.231,0,0,1-.711-2.852c-.216-5.368-.345-10.74-.5-16.111l.221,0c0-5.174-.027-10.348.016-15.521a7.956,7.956,0,0,0-1.313-4.509,4.18,4.18,0,0,0-4.66-1.857,4.015,4.015,0,0,0-3.143,3.229,11.314,11.314,0,0,0-.234,2.372,105.748,105.748,0,0,1-.74,11.308c-.966,13.1-6.561,24-15.519,33.354a11.265,11.265,0,0,1-6.643,3.7,11.878,11.878,0,0,0-3.341,1.188,1.926,1.926,0,0,0-.264,3.056c1.319.862,2.98,1.36,4.014,2.464a11.49,11.49,0,0,0,6.156,3.369c3.205.719,5.618,2.933,8.4,4.438a2.806,2.806,0,0,1,1.369,3.084c-.388,2.147.518,3.851,1.54,5.6a19.643,19.643,0,0,1,2.683,12.011c-.388,4.155-.474,8.338-.75,12.5a9.685,9.685,0,0,0,.592,4.68,5.426,5.426,0,0,0,5.033,3.573c2.086-.01,3.86-1.485,4.653-3.94a23.666,23.666,0,0,0,.951-7.673,21.57,21.57,0,0,1,2.177-9.746c2.553-5.419,5.675-10.5,8.51-15.745,3.8-7.039,8.1-13.664,14.921-18.3,2.431-1.649,3.4-4.344,3.476-7.282A5.16,5.16,0,0,0,897.237,135.836Z" fill="#ffd401"/>
    <path id="패스_7798" data-name="패스 7798" d="M817.865,190.158a9.937,9.937,0,0,1-9.837-4.215,8.5,8.5,0,0,0-2.2-2.007,7.519,7.519,0,0,1-3.181-4.861,29.228,29.228,0,0,1-1.213-7.653c.029-2.59-.02-5.181-.036-7.771-.039-6.176-.1-12.351-.108-18.527,0-2.1-.465-3.928-2.245-5.26-1.409-1.055-3.382-1.057-4.255.369-2.7,4.408-4.818,9.043-4.547,14.409a10.855,10.855,0,0,0-2.769,4.465c-1.408,4.115-2.926,8.2-4.478,12.258a14.033,14.033,0,0,0-1.105,4.588h0l.049.013a15.475,15.475,0,0,0-3.713,6.069h0a29.388,29.388,0,0,1-10.664,7.881,6.831,6.831,0,0,0-.995.613,18.345,18.345,0,0,1-7.289-1.761,1.925,1.925,0,0,0-1.576.151,1.891,1.891,0,0,0-.694,2.075c.357,2.1,1.825,3.33,3.568,4.31a12.694,12.694,0,0,0,.446,1.723c1.622,3.958,2.622,4.739,6.609,4.511a52.378,52.378,0,0,0,6.417-1.061c1.947-.358,3.978-.922,5.79.083,1.593.883,1.121,2.828,1.476,4.318.549,2.307,2.432,4.456,5.139,3.713,2.845-.781,4,.834,4.824,3.056.551,1.484,1.107,2.973,1.522,4.5a113.479,113.479,0,0,1,3.738,20.414c.228,2.745.328,5.557,2.141,7.886a4.641,4.641,0,0,0,2.581,3.717c2.132,1.3,3.624.935,6.039-1.346v0c1.822-1.822,2.82-3.815,1.316-6.328v0c.739-1.71.563-3.531.554-5.306-.048-10.276,2.509-20.1,5.1-29.918.694-2.636,1.627-4.879,4.692-5.526,1.454-.308,2.209-1.647,2.9-2.859C823.539,193.926,821.29,189.76,817.865,190.158Z" fill="#ffd401"/>
  </g>
</svg>
