<svg xmlns="http://www.w3.org/2000/svg" xmlns:xlink="http://www.w3.org/1999/xlink" width="170.607" height="190.367" viewBox="0 0 170.607 190.367">
  <defs>
    <clipPath id="clip-path">
      <path id="패스_2017" data-name="패스 2017" d="M156.028,662.832C163.9,673.7,144.574,681.7,130.765,681.7s-34.052-9.157-24.787-18.864c7.933-8.29,11.2,4.044,25.025,4.044S148.095,651.9,156.028,662.832Z" transform="translate(-103.632 -658.839)" fill="none"/>
    </clipPath>
  </defs>
  <g id="charactor_y__body" data-name="charactor(y)_body" transform="translate(-261.456 -666.728)">
    <path id="패스_2015" data-name="패스 2015" d="M265.558,705.3a66.842,66.842,0,0,0-15.343-27.189c-7.481-7.981-17.139-14.13-28.736-18.269-10.6-3.782-23.146-5.709-37.276-5.709s-26.678,1.928-37.288,5.709c-11.6,4.151-21.266,10.3-28.736,18.281a66.989,66.989,0,0,0-15.343,27.166A105.736,105.736,0,0,0,98.9,734.954a97.52,97.52,0,0,0,4.508,30.318,69.252,69.252,0,0,0,16,26.785,73.754,73.754,0,0,0,28.438,17.96,92.658,92.658,0,0,0,17.805,4.389c1.534,2.391,3.449,5.982,3.449,9.17,0,5.3-1.177,2.676-1.189,2.664-.523-1.189-4.139-1.725-5.174-1.677-4.734.2-7.065,7.255-4.365,10.776,1.57,2.033,4.591,1.95,6.863,1.5,1.677-.333,3.283-.963,4.972-1.261,2.652-.464,5.15.6,7.541-1.118,4.877-3.473,1.748-8.944.547-13.321-.119-.44-.559-3.2-.8-5.625,2.212.118,4.413.25,6.708.25s4.484-.131,6.7-.25c-.226,2.427-.678,5.185-.8,5.625-1.2,4.377-4.329,9.849.547,13.321,2.4,1.713,4.9.654,7.553,1.118,1.677.3,3.295.928,4.972,1.261,2.272.452,5.293.535,6.851-1.5,2.7-3.521.369-10.574-4.353-10.776-1.035-.047-4.651.488-5.186,1.677,0,.012-1.177,2.64-1.177-2.664,0-3.2,1.915-6.791,3.449-9.182a93.514,93.514,0,0,0,17.7-4.365,73.744,73.744,0,0,0,28.533-17.96,69.288,69.288,0,0,0,16-26.774,97.315,97.315,0,0,0,4.52-30.341A105.711,105.711,0,0,0,265.558,705.3Z" transform="translate(162.556 12.594)" fill="#ffc500"/>
    <ellipse id="타원_84" data-name="타원 84" cx="34.005" cy="4.817" rx="34.005" ry="4.817" transform="translate(312.752 847.46)" fill="#1a1311" opacity="0.3" style="mix-blend-mode: multiply;isolation: isolate"/>
    <circle id="타원_85" data-name="타원 85" cx="4.076" cy="4.076" r="4.076" transform="translate(325.063 709.28)" fill="#1a1311" style="mix-blend-mode: multiply;isolation: isolate"/>
    <circle id="타원_86" data-name="타원 86" cx="4.076" cy="4.076" r="4.076" transform="translate(354.689 709.28)" fill="#1a1311" style="mix-blend-mode: multiply;isolation: isolate"/>
    <path id="패스_2016" data-name="패스 2016" d="M156.028,662.832C163.9,673.7,144.574,681.7,130.765,681.7s-34.052-9.157-24.787-18.864c7.933-8.29,11.2,4.044,25.025,4.044S148.095,651.9,156.028,662.832Z" transform="translate(214.102 63.853)"/>
    <g id="그룹_241" data-name="그룹 241" transform="translate(317.734 722.692)">
      <g id="그룹_240" data-name="그룹 240" clip-path="url(#clip-path)">
        <circle id="타원_87" data-name="타원 87" cx="18.205" cy="18.205" r="18.205" transform="translate(9.367 14.233)" fill="#dc3a86"/>
      </g>
    </g>
    <ellipse id="타원_88" data-name="타원 88" cx="16.354" cy="5.728" rx="16.354" ry="5.728" transform="matrix(0.735, -0.678, 0.678, 0.735, 278.271, 702.048)" fill="#fff" opacity="0.3"/>
    <ellipse id="타원_91" data-name="타원 91" cx="10.407" cy="3.005" rx="10.407" ry="3.005" transform="translate(282.019 718.842)" fill="#dc3a86"/>
    <ellipse id="타원_92" data-name="타원 92" cx="10.407" cy="3.005" rx="10.407" ry="3.005" transform="translate(387.206 718.842)" fill="#dc3a86"/>
    <path id="패스_2033" data-name="패스 2033" d="M131.3,682.836c-10.443,0-24.275-5.043-27.178-11.823-.8-1.879-1.106-4.805,1.963-8.016,4.734-4.972,8.064-2.986,12.275-.476,3.223,1.926,7.22,4.318,13.178,4.318,5.8,0,9.765-2.783,12.929-5.019,4.341-3.022,7.743-5.436,12.572,1.224h0c2.129,2.949,2.51,5.982,1.082,8.778C154.647,678.625,141.492,682.836,131.3,682.836ZM111.864,661.1c-1.522,0-3.057.761-4.912,2.7-2.117,2.212-2.7,4.484-1.725,6.743,2.664,6.256,16.2,11.109,26.071,11.109s22.587-4.175,25.762-10.372c1.225-2.4.892-4.948-.987-7.54h0c-4.127-5.686-6.684-3.925-10.919-.952-3.307,2.331-7.434,5.222-13.619,5.222-6.292,0-10.443-2.487-13.785-4.473C115.468,662.176,113.684,661.1,111.864,661.1Z" transform="translate(213.569 63.297)"/>
  </g>
</svg>
