<svg xmlns="http://www.w3.org/2000/svg" xmlns:xlink="http://www.w3.org/1999/xlink" width="219.788" height="182.968" viewBox="0 0 219.788 182.968">
  <defs>
    <clipPath id="clip-path">
      <path id="패스_2050" data-name="패스 2050" d="M250.721,732.384a41.781,41.781,0,0,0-7.672-12.976,46.369,46.369,0,0,0-4.008-4.08,45.537,45.537,0,0,0,1.891-5.066,39.812,39.812,0,0,0,1.522-16.39,36.943,36.943,0,0,0-7.065-17.508,44.209,44.209,0,0,0-16.592-13.4,83.589,83.589,0,0,0-22.028-6.934,136.35,136.35,0,0,0-23.443-1.892c-15.272,0-28.664,2.189-39.8,6.483-11.823,4.567-21.564,11.061-28.974,19.315a68.259,68.259,0,0,0-14.963,27.154,95.332,95.332,0,0,0-2.712,13.892v-.8s-.071.808-.167,2.129a169.824,169.824,0,0,0,.25,26.274l.036.583v-.321a82.99,82.99,0,0,0,3.854,15.5,74.832,74.832,0,0,0,16.021,26.143,78.605,78.605,0,0,0,27.368,18.519,84.576,84.576,0,0,0,16.39,4.84c1.57,2.355,3.794,6.28,3.794,9.729,0,5.3-1.166,2.676-1.178,2.664-.523-1.189-4.139-1.725-5.174-1.677-4.734.2-7.065,7.255-4.365,10.776,1.57,2.033,4.591,1.95,6.863,1.5,1.677-.333,3.283-.963,4.972-1.261,2.652-.464,5.138.6,7.541-1.118,4.876-3.473,1.748-8.944.547-13.321-.119-.44-.571-3.283-.8-5.721,2.629.191,5.281.345,8.017.345,1.832,0,3.592-.119,5.388-.191-.238,2.4-.678,5.127-.8,5.567-1.2,4.377-4.329,9.849.547,13.321,2.4,1.713,4.9.654,7.541,1.118,1.689.3,3.295.928,4.972,1.261,2.272.452,5.293.535,6.863-1.5,2.7-3.521.369-10.574-4.353-10.776-1.035-.047-4.65.488-5.186,1.677,0,.012-1.178,2.64-1.178-2.664,0-3.14,1.844-6.661,3.366-9.04a92.984,92.984,0,0,0,16.425-3.889,77.949,77.949,0,0,0,26.642-15.011,64.305,64.305,0,0,0,22.158-49.027A41.167,41.167,0,0,0,250.721,732.384Z" transform="translate(-86.323 -654.134)" fill="none"/>
    </clipPath>
  </defs>
  <g id="그룹_1326" data-name="그룹 1326" transform="translate(-1010.451 -1094.321)">
    <path id="charactor_r__hand_l_" data-name="charactor(r)_hand(l)" d="M83.978,678.009c.155.785,8.195-1.522,8.944-1.879,2.724-1.308,5.876-4.687,4.722-8.016-.547-1.559-1.713-2.831-2.153-4.436-1.618-5.947,8.992-7.2,9.063.535a8.582,8.582,0,0,1,1.415-4.413c1.832-2.6,5.959-2.224,8.135-.309,3.4,3,.071,7.458-3.14,8.933a9.009,9.009,0,0,1,5.364-.821c3.092.631,4.532,4.662,2.985,7.314-1.689,2.9-6.565,3.01-9.242,1.605,2.866,1.511,5.067,5.591,1.07,7.279a4.652,4.652,0,0,1-4.543-.8c-1.261-.845-2.724-2.01-4.27-1.142-3.188,1.807-5.638,10.858-14.939,13.547" transform="translate(1110.298 481.752)" fill="#dd0031"/>
    <path id="패스_2048" data-name="패스 2048" d="M250.721,732.384a41.781,41.781,0,0,0-7.672-12.976,46.369,46.369,0,0,0-4.008-4.08,45.537,45.537,0,0,0,1.891-5.066,39.812,39.812,0,0,0,1.522-16.39,36.943,36.943,0,0,0-7.065-17.508,44.209,44.209,0,0,0-16.592-13.4,83.589,83.589,0,0,0-22.028-6.934,136.35,136.35,0,0,0-23.443-1.892c-15.272,0-28.664,2.189-39.8,6.483-11.823,4.567-21.564,11.061-28.974,19.315a68.259,68.259,0,0,0-14.963,27.154,95.332,95.332,0,0,0-2.712,13.892v-.8s-.071.808-.167,2.129a169.824,169.824,0,0,0,.25,26.274l.036.583v-.321a82.99,82.99,0,0,0,3.854,15.5,74.832,74.832,0,0,0,16.021,26.143,78.605,78.605,0,0,0,27.368,18.519,84.576,84.576,0,0,0,16.39,4.84c1.57,2.355,3.794,6.28,3.794,9.729,0,5.3-1.166,2.676-1.178,2.664-.523-1.189-4.139-1.725-5.174-1.677-4.734.2-7.065,7.255-4.365,10.776,1.57,2.033,4.591,1.95,6.863,1.5,1.677-.333,3.283-.963,4.972-1.261,2.652-.464,5.138.6,7.541-1.118,4.876-3.473,1.748-8.944.547-13.321-.119-.44-.571-3.283-.8-5.721,2.629.191,5.281.345,8.017.345,1.832,0,3.592-.119,5.388-.191-.238,2.4-.678,5.127-.8,5.567-1.2,4.377-4.329,9.849.547,13.321,2.4,1.713,4.9.654,7.541,1.118,1.689.3,3.295.928,4.972,1.261,2.272.452,5.293.535,6.863-1.5,2.7-3.521.369-10.574-4.353-10.776-1.035-.047-4.65.488-5.186,1.677,0,.012-1.178,2.64-1.178-2.664,0-3.14,1.844-6.661,3.366-9.04a92.984,92.984,0,0,0,16.425-3.889,77.949,77.949,0,0,0,26.642-15.011,64.305,64.305,0,0,0,22.158-49.027A41.167,41.167,0,0,0,250.721,732.384Z" transform="translate(952.015 440.187)" fill="#dd0031"/>
    <ellipse id="타원_95" data-name="타원 95" cx="16.354" cy="5.728" rx="16.354" ry="5.728" transform="matrix(0.799, -0.601, 0.601, 0.799, 1059.539, 1128.014)" fill="#fff" opacity="0.3"/>
    <circle id="타원_96" data-name="타원 96" cx="4.076" cy="4.076" r="4.076" transform="translate(1121.206 1138.734)" fill="#1a1311" style="mix-blend-mode: multiply;isolation: isolate"/>
    <circle id="타원_97" data-name="타원 97" cx="4.076" cy="4.076" r="4.076" transform="translate(1158.575 1138.734)" fill="#1a1311" style="mix-blend-mode: multiply;isolation: isolate"/>
    <path id="패스_2049" data-name="패스 2049" d="M113.589,666.13a50.223,50.223,0,0,1-18.935-3.544,1.787,1.787,0,1,1,1.356-3.307c10.36,4.282,24.8,4.282,35.158,0a1.789,1.789,0,0,1,1.368,3.307A50.285,50.285,0,0,1,113.589,666.13Z" transform="translate(1030.712 494.69)" style="mix-blend-mode: multiply;isolation: isolate"/>
    <g id="그룹_254" data-name="그룹 254" transform="translate(1038.338 1094.321)" clip-path="url(#clip-path)">
      <g id="그룹_253" data-name="그룹 253" transform="translate(-3.709 66.544)">
        <ellipse id="타원_98" data-name="타원 98" cx="44.032" cy="41.775" rx="44.032" ry="41.775" transform="translate(0 2.602)" fill="#dc3a86"/>
        <ellipse id="타원_99" data-name="타원 99" cx="44.032" cy="41.775" rx="44.032" ry="41.775" transform="translate(128.022)" fill="#dc3a86"/>
      </g>
    </g>
    <path id="패스_2051" data-name="패스 2051" d="M250.721,732.384a41.781,41.781,0,0,0-7.672-12.976,46.369,46.369,0,0,0-4.008-4.08,45.537,45.537,0,0,0,1.891-5.066,39.812,39.812,0,0,0,1.522-16.39,36.943,36.943,0,0,0-7.065-17.508,44.209,44.209,0,0,0-16.592-13.4,83.589,83.589,0,0,0-22.028-6.934,136.35,136.35,0,0,0-23.443-1.892c-15.272,0-28.664,2.189-39.8,6.483-11.823,4.567-21.564,11.061-28.974,19.315a68.259,68.259,0,0,0-14.963,27.154,95.332,95.332,0,0,0-2.712,13.892v-.8s-.071.808-.167,2.129a169.824,169.824,0,0,0,.25,26.274l.036.583v-.321a82.99,82.99,0,0,0,3.854,15.5,74.832,74.832,0,0,0,16.021,26.143,78.605,78.605,0,0,0,27.368,18.519,84.576,84.576,0,0,0,16.39,4.84c1.57,2.355,3.794,6.28,3.794,9.729,0,5.3-1.166,2.676-1.178,2.664-.523-1.189-4.139-1.725-5.174-1.677-4.734.2-7.065,7.255-4.365,10.776,1.57,2.033,4.591,1.95,6.863,1.5,1.677-.333,3.283-.963,4.972-1.261,2.652-.464,5.138.6,7.541-1.118,4.876-3.473,1.748-8.944.547-13.321-.119-.44-.571-3.283-.8-5.721,2.629.191,5.281.345,8.017.345,1.832,0,3.592-.119,5.388-.191-.238,2.4-.678,5.127-.8,5.567-1.2,4.377-4.329,9.849.547,13.321,2.4,1.713,4.9.654,7.541,1.118,1.689.3,3.295.928,4.972,1.261,2.272.452,5.293.535,6.863-1.5,2.7-3.521.369-10.574-4.353-10.776-1.035-.047-4.65.488-5.186,1.677,0,.012-1.178,2.64-1.178-2.664,0-3.14,1.844-6.661,3.366-9.04a92.984,92.984,0,0,0,16.425-3.889,77.949,77.949,0,0,0,26.642-15.011,64.305,64.305,0,0,0,22.158-49.027A41.167,41.167,0,0,0,250.721,732.384Z" transform="translate(952.015 440.187)" fill="none"/>
    <path id="charactor_r__hand_l_2" data-name="charactor(r)_hand(l)" d="M119.941,678.009c-.155.785-8.195-1.522-8.944-1.879-2.724-1.308-5.876-4.687-4.722-8.016.547-1.559,1.713-2.831,2.153-4.436,1.618-5.947-8.992-7.2-9.063.535a8.582,8.582,0,0,0-1.415-4.413c-1.832-2.6-5.959-2.224-8.135-.309-3.4,3-.071,7.458,3.14,8.933a9.009,9.009,0,0,0-5.364-.821c-3.092.631-4.532,4.662-2.985,7.314,1.689,2.9,6.565,3.01,9.242,1.605-2.866,1.511-5.067,5.591-1.07,7.279a4.652,4.652,0,0,0,4.543-.8c1.261-.845,2.724-2.01,4.27-1.142,3.188,1.807,5.638,10.858,14.939,13.547" transform="translate(926.473 481.752)" fill="#dd0031"/>
  </g>
</svg>
