<svg xmlns="http://www.w3.org/2000/svg" width="147.193" height="204.117" viewBox="0 0 147.193 204.117">
  <g id="charactor_g__body" data-name="charactor(g)_body" transform="translate(-577.335 -652.978)">
    <path id="패스_2034" data-name="패스 2034" d="M261.977,676.683a40.787,40.787,0,0,0-19.566-16.153,84.363,84.363,0,0,0-22.575-5.4,174.425,174.425,0,0,0-39.06.2,92.909,92.909,0,0,0-21.124,5.031,59.443,59.443,0,0,0-19.887,12.06,39.405,39.405,0,0,0-12.382,24.169,178.357,178.357,0,0,0-1.63,19.09c-.2,6.09-.3,12.56-.3,19.256s.1,13.167.3,19.233a182.458,182.458,0,0,0,1.63,19.233,39.262,39.262,0,0,0,12.382,24.037,59.562,59.562,0,0,0,19.911,12.072,93.857,93.857,0,0,0,21.04,5.019c1.511,2.379,3.354,5.9,3.354,9.028,0,5.3-1.177,2.676-1.189,2.664-.523-1.189-4.139-1.725-5.174-1.677-4.734.2-7.065,7.255-4.353,10.776,1.558,2.033,4.579,1.95,6.851,1.5,1.677-.333,3.295-.963,4.972-1.261,2.652-.464,5.15.6,7.541-1.117,4.876-3.473,1.76-8.944.547-13.322-.119-.44-.559-3.2-.785-5.626,2.593.131,5.2.25,7.791.25,1.867,0,3.735-.095,5.6-.143-.238,2.391-.678,5.09-.785,5.519-1.213,4.377-4.341,9.848.547,13.322,2.391,1.713,4.888.654,7.541,1.117,1.677.3,3.295.928,4.972,1.261,2.272.452,5.293.535,6.851-1.5,2.7-3.521.381-10.574-4.353-10.776-1.035-.047-4.65.488-5.174,1.677-.012.011-1.189,2.64-1.189-2.664,0-2.962,1.653-6.268,3.116-8.636.809-.071,1.641-.106,2.45-.19,14-1.463,28.95-5.84,39.1-16.318,9.729-10.027,12.394-23.717,13.345-37.156,1.13-15.819-.678-31.544-1.427-47.29C270.267,701.185,269.054,687.733,261.977,676.683Z" transform="translate(451.877 12.608)" fill="#5da71e"/>
    <ellipse id="타원_90" data-name="타원 90" cx="34.005" cy="4.817" rx="34.005" ry="4.817" transform="translate(617.071 847.46)" fill="#1a1311" opacity="0.3" style="mix-blend-mode: multiply;isolation: isolate"/>
    <path id="패스_2035" data-name="패스 2035" d="M131.142,672.226a1.79,1.79,0,0,1-1.2-3.117,15.287,15.287,0,0,1,7.826-3.318c-3.794-2.806-6.661-2.629-6.791-2.592a1.783,1.783,0,0,1-.381-3.545c.25,0,6.3-.619,12.822,6.47a1.77,1.77,0,0,1,.285,1.974,1.828,1.828,0,0,1-1.713,1c-.071,0-6.316-.333-9.658,2.664A1.766,1.766,0,0,1,131.142,672.226Z" transform="translate(490.771 72.574)" style="mix-blend-mode: multiply;isolation: isolate"/>
    <circle id="타원_93" data-name="타원 93" cx="5.421" cy="5.421" r="5.421" transform="translate(664.036 732.881)" fill="#1a1311" style="mix-blend-mode: multiply;isolation: isolate"/>
    <g id="그룹_248" data-name="그룹 248" transform="translate(652.643 757.801)">
      <path id="패스_2036" data-name="패스 2036" d="M133.346,662.786s-5.721,17.4,5.911,14.273.262-15.165.262-15.165" transform="translate(-130.155 -660.669)" fill="#dc3a86"/>
      <path id="패스_2037" data-name="패스 2037" d="M138.335,680.345a5.96,5.96,0,0,1-4.544-1.82c-3.973-4.186-.868-14.059-.511-15.177l3.39,1.118c-.94,2.89-2.26,9.515-.273,11.609.726.773,2.082.9,4.032.38,2.165-.583,3.437-1.522,3.806-2.77.845-3.009-2.974-7.946-4.377-9.444l2.593-2.45c.69.738,6.768,7.362,5.209,12.857-.714,2.557-2.831,4.317-6.3,5.245A11.148,11.148,0,0,1,138.335,680.345Z" transform="translate(-131.79 -661.791)" fill="#1a1311"/>
    </g>
    <path id="패스_2038" data-name="패스 2038" d="M154.847,669.551a64.689,64.689,0,0,1-24.525-4.591,1.8,1.8,0,0,1-.963-2.343,1.767,1.767,0,0,1,2.319-.963c13.69,5.674,32.661,5.674,46.339,0a1.787,1.787,0,1,1,1.356,3.307A64.643,64.643,0,0,1,154.847,669.551Z" transform="translate(492.875 93.006)" style="mix-blend-mode: multiply;isolation: isolate"/>
    <g id="그룹_249" data-name="그룹 249" transform="translate(657.209 758.484)">
      <path id="패스_2039" data-name="패스 2039" d="M132.323,662s2.153,5.732,2.248,9.051" transform="translate(-130.545 -660.231)" fill="#db3d88"/>
      <path id="패스_2040" data-name="패스 2040" d="M136.2,674.45a1.786,1.786,0,0,1-1.784-1.725c-.071-2.486-1.558-6.97-2.129-8.481a1.805,1.805,0,0,1,1.047-2.307,1.834,1.834,0,0,1,2.3,1.046c.1.25,2.248,6.054,2.355,9.622a1.8,1.8,0,0,1-1.737,1.844Z" transform="translate(-132.174 -661.848)" fill="#1a1311"/>
    </g>
    <g id="그룹_252" data-name="그룹 252" transform="translate(579.63 652.978)">
      <path id="패스_2045" data-name="패스 2045" d="M217.758,656.488l-25.965-3.093A58.983,58.983,0,0,0,126.27,705l-.618,5.234,46.493,5.531,1.38-11.6a25.225,25.225,0,0,1,50.1,5.947l-1.38,11.608,46.493,5.519.619-5.234A58.975,58.975,0,0,0,217.758,656.488Z" transform="translate(-125.651 -652.977)" fill="#ffc500"/>
      <path id="패스_2046" data-name="패스 2046" d="M130.94,657.337l-1.38,11.6,50.1,5.959,1.38-11.608v-.047l-50.085-5.959Z" transform="translate(-83.066 -606.144)" fill="#ffc500"/>
      <rect id="사각형_79" data-name="사각형 79" width="9.875" height="16.131" transform="translate(82.28 53.397) rotate(6.779)" fill="#dd0031"/>
      <path id="패스_2047" data-name="패스 2047" d="M129.56,689.26l1.38-11.6a25.225,25.225,0,0,1,50.1,5.947l-1.38,11.608" transform="translate(-83.066 -626.47)" fill="none"/>
    </g>
  </g>
</svg>
