<svg xmlns="http://www.w3.org/2000/svg" width="159.591" height="155.534" viewBox="0 0 159.591 155.534">
  <g id="vector_lightning" transform="translate(-1480.408 -954.049)">
    <path id="vector_lightning-2" data-name="vector_lightning" d="M49.06,42.093a13.264,13.264,0,0,0-3.138,1.429c-1.356.822-2.619,1.8-3.922,2.708h0c-.759-.4-.846-1.146-.971-1.874a27.744,27.744,0,0,1,2.009-3.831A105.938,105.938,0,0,0,49.23,30.08a48.317,48.317,0,0,0,3.944-9.133c.574-1.775-.362-3.075-1.5-4.255-1.111-1.152-2.4-.76-3.631-.268a52.187,52.187,0,0,0-10.049,5.065A5.96,5.96,0,0,1,34.54,22.96c-.113-1.521,1.252-2.342,1.374-3.638a2.064,2.064,0,0,0,.852-1.919,14.451,14.451,0,0,0,2.468-6.138c1.024-1.726,2.1-3.425,3.06-5.184a4.119,4.119,0,0,0-.7-5.145C40.4-.332,39.09-.106,37.634.414c-3.787,1.353-7.606,2.619-11.412,3.919h0q-2.8.033-5.6.067a3.06,3.06,0,0,1-2.711-1c-.86-1.073-1.7-.733-2.519.124-.594.623-1.23,1.209-1.868,1.789a3.717,3.717,0,0,0-1.118,4.3,6.924,6.924,0,0,1,.628,3.305A8.99,8.99,0,0,0,11.4,18.2a3.342,3.342,0,0,0-.866,2.626,1.557,1.557,0,0,0-.252.354C7.114,30.471,4.421,39.919.8,49.051A13.528,13.528,0,0,0,0,54.185c.025,3.338,2.815,5,5.665,3.378A36.045,36.045,0,0,0,8.85,55.294l12.256-8.877a1.7,1.7,0,0,1,.119,1.839c-1.323,3.983-2.583,7.99-4.011,11.936-1.626,4.493-3.366,8.946-5.137,13.385a8.935,8.935,0,0,0-.667,4.665,3.551,3.551,0,0,0,2.71,3.048,3.439,3.439,0,0,0,3.61-.865c1.684-1.582,3.277-3.258,4.909-4.9l1.107,1.11c-2.131,6.753-4.241,13.512-6.4,20.254-.839,2.612-1.083,5.45-2.076,7.909-1.346,3.333-2.292,6.831-3.924,10.053a8.822,8.822,0,0,0-.82,2.458,4.106,4.106,0,0,0,3.6,4.949,4.33,4.33,0,0,0,3.62-2.039,13.208,13.208,0,0,0,1.764-3.945A165.783,165.783,0,0,1,33.447,86.068c2.5-4.228,5.112-8.412,7.263-12.816a152.593,152.593,0,0,1,9.224-16.646,35.068,35.068,0,0,0,4.223-9.478C55.185,43.575,52.6,41.074,49.06,42.093Z" transform="translate(1586.144 954.049) rotate(8)" fill="#3152fe"/>
    <path id="vector_lightning-3" data-name="vector_lightning" d="M49.06,42.093a13.264,13.264,0,0,0-3.138,1.429c-1.356.822-2.619,1.8-3.922,2.708h0c-.759-.4-.846-1.146-.971-1.874a27.744,27.744,0,0,1,2.009-3.831A105.938,105.938,0,0,0,49.23,30.08a48.317,48.317,0,0,0,3.944-9.133c.574-1.775-.362-3.075-1.5-4.255-1.111-1.152-2.4-.76-3.631-.268a52.187,52.187,0,0,0-10.049,5.065A5.96,5.96,0,0,1,34.54,22.96c-.113-1.521,1.252-2.342,1.374-3.638a2.064,2.064,0,0,0,.852-1.919,14.451,14.451,0,0,0,2.468-6.138c1.024-1.726,2.1-3.425,3.06-5.184a4.119,4.119,0,0,0-.7-5.145C40.4-.332,39.091-.105,37.634.415c-3.787,1.353-7.606,2.619-11.412,3.919h0q-2.8.033-5.6.067a3.06,3.06,0,0,1-2.711-1c-.86-1.073-1.7-.733-2.519.124-.594.623-1.23,1.209-1.868,1.789a3.717,3.717,0,0,0-1.118,4.3,6.924,6.924,0,0,1,.628,3.305A8.99,8.99,0,0,0,11.4,18.2a3.342,3.342,0,0,0-.866,2.626,1.557,1.557,0,0,0-.252.354C7.114,30.471,4.421,39.919.8,49.051A13.528,13.528,0,0,0,0,54.185c.025,3.338,2.815,5,5.665,3.378A36.045,36.045,0,0,0,8.85,55.294l12.256-8.877a1.7,1.7,0,0,1,.119,1.839c-1.323,3.983-2.583,7.99-4.011,11.936-1.626,4.493-3.366,8.946-5.137,13.385a8.935,8.935,0,0,0-.667,4.665,3.551,3.551,0,0,0,2.71,3.048,3.439,3.439,0,0,0,3.61-.865c1.684-1.582,3.277-3.258,4.909-4.9l1.107,1.11c-2.131,6.753-4.241,13.512-6.4,20.254-.839,2.612-1.083,5.45-2.076,7.909-1.346,3.333-2.292,6.831-3.924,10.053a8.822,8.822,0,0,0-.82,2.458,4.106,4.106,0,0,0,3.6,4.949,4.33,4.33,0,0,0,3.62-2.039,13.208,13.208,0,0,0,1.764-3.945A165.783,165.783,0,0,1,33.447,86.068c2.5-4.228,5.112-8.412,7.263-12.816a152.593,152.593,0,0,1,9.224-16.646,35.068,35.068,0,0,0,4.223-9.478C55.185,43.575,52.6,41.074,49.06,42.093Z" transform="translate(1480.408 1001.629) rotate(-28)" fill="#3152fe"/>
  </g>
</svg>
