<svg xmlns="http://www.w3.org/2000/svg" width="232.696" height="202.02" viewBox="0 0 232.696 202.02">
  <g id="vector_rocket" transform="matrix(0.326, -0.946, 0.946, 0.326, 0, 172.767)">
    <path id="패스_3186" data-name="패스 3186" d="M65.8,32.906s-35.7,16.537-50.7-1.165S-1.32,10.747.752,5.041C3.456-2.441,34.2.62,34.2.62Z" transform="translate(27.231 93.194)" fill="#03a678"/>
    <path id="패스_3187" data-name="패스 3187" d="M47.652,56.121S52.939,17.132,31.6,8.009,6.706-1.5,1.855,2.159C-4.492,6.95,7.485,35.418,7.485,35.418Z" transform="translate(86.799 9.69)" fill="#03a678"/>
    <path id="패스_3188" data-name="패스 3188" d="M37.71,0C50.475,14.879,63.231,35.838,54.652,47.478,43.983,61.934,19.494,55.605,0,48.489A156.4,156.4,0,0,1,37.71,0Z" transform="translate(158.711 115.484)" fill="#ffc400"/>
    <path id="패스_3189" data-name="패스 3189" d="M55.471,89.852S11.052,77.517,8.555,59.2,27.519,47.016,27.519,47.016-8.557,30.7,1.9,12.253s34.66,5.675,34.66,5.675-2.242-5.234,4.351-14.683C52.6-13.51,90.206,40.078,90.206,40.078Z" transform="translate(0 0)" fill="#ffc400"/>
    <path id="패스_3190" data-name="패스 3190" d="M38.092,61.69S7.594,53.223,5.877,40.645,18.9,32.284,18.9,32.284-5.873,21.084,1.305,8.412s23.8,3.893,23.8,3.893S23.57,8.713,28.093,2.228C36.124-9.277,61.94,27.516,61.94,27.516Z" transform="translate(23.113 19.941)" fill="#cb0023"/>
    <path id="패스_3191" data-name="패스 3191" d="M103.242,124.188C18.383,85.675,0,50.068,0,50.068,3.9,19,34.735.294,34.735.294,32.484-1.276,74.279.807,140.949,75.7A156.365,156.365,0,0,0,103.242,124.188Z" transform="translate(55.471 39.784)" fill="#0455bf"/>
    <g id="그룹_469" data-name="그룹 469" transform="translate(98.895 73.916)">
      <path id="패스_3192" data-name="패스 3192" d="M40.81,4.605C30.632-2.505,13.626-1.772,5.734,9.547S-2.911,36.9,9.927,45.845c10.176,7.1,25.964,5.089,33.858-6.232S50.983,11.707,40.81,4.605Z" transform="translate(0 0)" fill="#03a678"/>
      <path id="패스_3193" data-name="패스 3193" d="M35.623,32.231a19.963,19.963,0,0,1-16.262,8.427A19.279,19.279,0,0,1,8.073,37.3c-10.44-7.275-9.836-20.331-3.4-29.534C9.91.236,20.12-1.532,28.186,1.231a20.045,20.045,0,0,1,5.014,2.5C41.489,9.513,42.055,23.027,35.623,32.231Z" transform="translate(4.593 4.616)" fill="#f2f2f2"/>
    </g>
  </g>
</svg>
