<svg xmlns="http://www.w3.org/2000/svg" width="95.617" height="96" viewBox="0 0 95.617 96">
  <g id="그룹_589" data-name="그룹 589" transform="translate(-2804.261 -3834.958)">
    <path id="패스_4212" data-name="패스 4212" d="M2826.022,3923.359l-.028.028c.868.9,1.766,1.767,2.665,2.634,1.573,1.517,2.627,1.55,4.182.1.959-.891,1.885-1.821,2.782-2.775,1.433-1.524,1.462-2.5-.006-3.989q-8.4-8.528-16.852-17c-1.009-1.014-2.066-1.982-3.117-2.954a2.372,2.372,0,0,0-3.621.052c-1.039.989-2.068,1.992-3.046,3.04a2.587,2.587,0,0,0,.075,3.939c.115.121.233.239.349.359l.028-.029Z" fill="#7e84be"/>
    <path id="패스_4213" data-name="패스 4213" d="M2892.22,3899.311a2.47,2.47,0,0,0-3.806-.02q-10.031,9.973-20.018,19.993a2.38,2.38,0,0,0-.048,3.649c1.063,1.142,2.194,2.22,3.3,3.32a2.409,2.409,0,0,0,1.839.634,2.371,2.371,0,0,0,1.87-.833q9.947-9.927,19.876-19.871a2.506,2.506,0,0,0,.029-3.822Q2893.791,3900.789,2892.22,3899.311Z" fill="#d0c4c8"/>
    <path id="패스_4214" data-name="패스 4214" d="M2866.865,3897.909a2.22,2.22,0,0,1,.585-.5l6.714-6.714a4.083,4.083,0,0,1,.69-.807,53.273,53.273,0,0,0,3.818-3.86,2.724,2.724,0,0,0-3.9-3.8c-.472.406-.9.867-1.337,1.311-.95.963-2,1.4-3.074.279-1-1.042-.587-2.028.333-2.924.984-.959,1.987-1.9,2.9-2.926a2.753,2.753,0,0,0-.023-4.013,2.694,2.694,0,0,0-3.866.139c-.421.371-.806.783-1.194,1.189-.981,1.027-2.088,1.849-3.338.553-1.155-1.2-.4-2.264.575-3.208.943-.912,1.885-1.826,2.778-2.786a2.84,2.84,0,0,0,.208-4.025c-1.16-1.2-2.688-1.13-4.129.205-.5.467-.97.973-1.468,1.446-.948.9-1.986,1.138-2.946.106-.892-.958-.61-1.945.242-2.811,1.007-1.023,2.043-2.02,3.038-3.054,1.323-1.375,1.426-2.989.3-4.134-1.186-1.2-2.683-1.161-4.127.211s-2.813,2.84-4.261,4.217a1.553,1.553,0,0,0-.422,1.94c1.437,4.211-.771,8.04-5.1,8.829-.919.168-1.02.541-1.162,1.292a6.063,6.063,0,0,1-4.959,5.18,1.949,1.949,0,0,0-1.726,1.735,6.062,6.062,0,0,1-5.2,4.938c-.766.142-1.1.266-1.271,1.17-.8,4.315-4.644,6.517-8.851,5.08a1.556,1.556,0,0,0-1.943.413c-1.424,1.49-2.869,2.963-4.381,4.362-.742.686-.639,1.078.033,1.747,5.485,5.465,10.93,10.969,16.524,16.6.952-1,1.776-1.936,2.664-2.8,6.593-6.423,4.538-6.214,14.636-5.842,2.5.093,4.692-.362,6.333-2.449a3.1,3.1,0,0,1,.915-.817l5.173-5.173A2.357,2.357,0,0,1,2866.865,3897.909Z" fill="#f6c0b8"/>
    <path id="패스_4215" data-name="패스 4215" d="M2883.68,3898.649c.554-.55.659-.89.033-1.481-1.587-1.5-3.122-3.049-4.636-4.622-.459-.477-.845-.635-1.359-.116q-6.565,6.615-13.175,13.185l-.9.905c-.586.585-1.176,1.154-1.793,1.711a1.844,1.844,0,0,0-.591.766c-.252.819,1.485,1.939,1.984,2.428,1,.984,1.985,1.992,2.956,3.008.572.6.918.779,1.61.08Q2875.7,3906.538,2883.68,3898.649Z" fill="#f8cfc8"/>
    <path id="패스_4216" data-name="패스 4216" d="M2846.045,3867.364a9.615,9.615,0,0,0,1.374,1.255,2.718,2.718,0,0,0,3.873-.958c.8-1.434.339-2.557-1.329-3.356a15.232,15.232,0,0,1-7.768-7.953,1.594,1.594,0,0,0-1.76-1.2,2.447,2.447,0,0,0-2.553,1.592,2.6,2.6,0,0,0,.624,3.079Q2842.265,3863.6,2846.045,3867.364Z" fill="#f8cfc8"/>
    <path id="패스_4217" data-name="패스 4217" d="M2840.564,3875a2.466,2.466,0,0,0,2.957.35,2.513,2.513,0,0,0,1.467-2.539,1.72,1.72,0,0,0-.552-1.575c-2.4-2.441-4.778-4.905-7.28-7.238a2.445,2.445,0,0,0-3.542.083,2.384,2.384,0,0,0-.286,3.642C2835.665,3870.219,2838.11,3872.616,2840.564,3875Z" fill="#f8cfc8"/>
    <path id="패스_4218" data-name="패스 4218" d="M2834.094,3881.68a2.431,2.431,0,0,0,2.8.262,2.819,2.819,0,0,0,1.573-2.492,3.358,3.358,0,0,0-.609-1.607c-1.883-1.9-3.7-3.874-5.685-5.657a2.49,2.49,0,0,0-3.554.168,2.372,2.372,0,0,0-.312,3.514C2830.135,3877.9,2832.106,3879.8,2834.094,3881.68Z" fill="#f8cfc8"/>
    <path id="패스_4219" data-name="패스 4219" d="M2827.7,3888.417c1.814,1.125,4.146-.22,4.157-2.686-.162-1.611-1.771-2.568-3.03-3.7a2.427,2.427,0,0,0-3.538.235,2.484,2.484,0,0,0-.368,3.4A9.457,9.457,0,0,0,2827.7,3888.417Z" fill="#f8cfc8"/>
    <path id="패스_4220" data-name="패스 4220" d="M2850.591,3860.4c.521.339.847.184,1.253-.21,1.373-1.332,2.784-2.625,4.533-4.262-3.651-.672-6.737-1.288-9.842-1.787-1.261-.2-.911.708-.612,1.3A12.841,12.841,0,0,0,2850.591,3860.4Z" fill="#f8cfc8"/>
    <g id="그룹_588" data-name="그룹 588">
      <path id="패스_4221" data-name="패스 4221" d="M2889.877,3894.762c-2.68.642-3.841-.487-5.276-2.023-.937-1-1.931-1.955-2.912-2.916-.419-.41-.63-.637-.146-1.31,2.985-4.143,1.927-8.269-2.628-10.427-.606-.288-.79-.47-.726-1.2.292-3.355-1.069-5.716-4.094-7-.83-.352-.936-.649-.845-1.477a6.17,6.17,0,0,0-3.811-6.619,1.561,1.561,0,0,1-1.146-1.888,6.266,6.266,0,0,0-5.649-6.909c-4.3-.333-8.451-1.482-12.687-2.149-1.955-.308-3.983-1.106-5.864-.1a6.252,6.252,0,0,1-3.52.61,6.4,6.4,0,0,0-6.7,7.19c.115.9-.112,1.141-.823,1.466-3,1.367-4.428,3.643-4.117,6.808.089.908-.21,1.133-.887,1.449-3.692,1.725-4.975,4.959-3.446,8.8.293.737.191.969-.464,1.383-3.907,2.468-4.61,6.23-1.86,10.033.43.6.407.843-.066,1.3q-2.484,2.416-4.9,4.9a1.4,1.4,0,0,1-1.622.391,6.155,6.155,0,0,0-6.087,1.421c-1.275,1.2-2.546,2.408-3.7,3.717a6.2,6.2,0,0,0,.211,8.626c1.246,1.314,2.581,2.543,3.831,3.854a3.571,3.571,0,0,0,.685.572c2.4,2.4,4.807,4.8,7.235,7.176,1.307,1.28,3.192,2.72,4.2,4.254a3.9,3.9,0,0,0,.623.725c1.235,1.146,2.376,2.393,3.592,3.561a6.21,6.21,0,0,0,8.9.183c1.162-1.039,2.248-2.168,3.323-3.3a6.044,6.044,0,0,0,1.48-6.866,1.571,1.571,0,0,1,.5-2.067c1.842-1.779,3.664-3.579,5.43-5.433a3.681,3.681,0,0,1,2.985-1.231c2.183.081,4.372.2,6.553.13a2.716,2.716,0,0,1,2.28.883c1.864,1.933,3.769,3.826,5.691,5.7a1.878,1.878,0,0,1,.674,2.371c-.908,2.317-.171,4.408,1.483,6.178.981,1.049,2.017,2.046,3.041,3.053,2.956,2.907,6.617,2.933,9.582-.011q9.84-9.769,19.627-19.593a6.578,6.578,0,0,0,2.012-3.9C2900.4,3900.782,2894.028,3893.768,2889.877,3894.762Zm-43.342-40.622c3.1.5,6.191,1.115,9.842,1.787-1.749,1.637-3.16,2.93-4.533,4.262-.406.394-.732.549-1.253.21a12.841,12.841,0,0,1-4.668-4.957C2845.624,3854.848,2845.274,3853.937,2846.535,3854.14Zm-8.653,2.606a2.447,2.447,0,0,1,2.553-1.592,1.594,1.594,0,0,1,1.76,1.2,15.232,15.232,0,0,0,7.768,7.953c1.668.8,2.13,1.922,1.329,3.356a2.718,2.718,0,0,1-3.873.958,9.615,9.615,0,0,1-1.374-1.255q-3.777-3.762-7.539-7.539A2.6,2.6,0,0,1,2837.882,3856.746Zm-4.268,7.335a2.445,2.445,0,0,1,3.542-.083c2.5,2.333,4.881,4.8,7.28,7.238a1.72,1.72,0,0,1,.552,1.575,2.513,2.513,0,0,1-1.467,2.539,2.466,2.466,0,0,1-2.957-.35c-2.454-2.384-4.9-4.781-7.236-7.277A2.384,2.384,0,0,1,2833.614,3864.081Zm-5,8.273a2.49,2.49,0,0,1,3.554-.168c1.987,1.783,3.8,3.758,5.685,5.657a3.358,3.358,0,0,1,.609,1.607,2.819,2.819,0,0,1-1.573,2.492,2.431,2.431,0,0,1-2.8-.262c-1.988-1.878-3.959-3.784-5.79-5.812A2.372,2.372,0,0,1,2828.616,3872.354Zm-3.326,9.917a2.427,2.427,0,0,1,3.538-.235c1.259,1.127,2.868,2.084,3.03,3.7-.011,2.466-2.343,3.811-4.157,2.686a9.457,9.457,0,0,1-2.779-2.747A2.484,2.484,0,0,1,2825.29,3882.271Zm10.333,41.079c-.9.954-1.823,1.884-2.782,2.775-1.555,1.446-2.609,1.413-4.182-.1-.9-.867-1.8-1.736-2.665-2.634l.028-.028-16.589-16.59-.028.029c-.116-.12-.234-.238-.349-.359a2.587,2.587,0,0,1-.075-3.939c.978-1.048,2.007-2.051,3.046-3.04a2.372,2.372,0,0,1,3.621-.052c1.051.972,2.108,1.94,3.117,2.954q8.441,8.484,16.852,17C2837.085,3920.852,2837.056,3921.826,2835.623,3923.35Zm18.614-16.712c-10.1-.372-8.043-.581-14.636,5.842-.888.865-1.712,1.8-2.664,2.8-5.594-5.629-11.039-11.133-16.524-16.6-.672-.669-.775-1.061-.033-1.747,1.512-1.4,2.957-2.872,4.381-4.362a1.556,1.556,0,0,1,1.943-.413c4.207,1.437,8.052-.765,8.851-5.08.167-.9.505-1.028,1.271-1.17a6.062,6.062,0,0,0,5.2-4.938,1.949,1.949,0,0,1,1.726-1.735,6.063,6.063,0,0,0,4.959-5.18c.142-.751.243-1.124,1.162-1.292,4.326-.789,6.534-4.618,5.1-8.829a1.553,1.553,0,0,1,.422-1.94c1.448-1.377,2.812-2.842,4.261-4.217s2.941-1.415,4.127-.211c1.127,1.145,1.024,2.759-.3,4.134-1,1.034-2.031,2.031-3.038,3.054-.852.866-1.134,1.853-.242,2.811.96,1.032,2,.792,2.946-.106.5-.473.965-.979,1.468-1.446,1.441-1.335,2.969-1.405,4.129-.205a2.84,2.84,0,0,1-.208,4.025c-.893.96-1.835,1.874-2.778,2.786-.977.944-1.73,2.011-.575,3.208,1.25,1.3,2.357.474,3.338-.553.388-.406.773-.818,1.194-1.189a2.694,2.694,0,0,1,3.866-.139,2.753,2.753,0,0,1,.023,4.013c-.915,1.022-1.918,1.967-2.9,2.926-.92.9-1.338,1.882-.333,2.924,1.078,1.117,2.124.684,3.074-.279.439-.444.865-.905,1.337-1.311a2.724,2.724,0,0,1,3.9,3.8c-2.207,2.507-4.654,4.813-7.014,7.174-3.621,3.621-7.322,7.171-10.865,10.869A8.027,8.027,0,0,1,2854.237,3906.638Zm11.958,7.8c-1.463-1.532-2.952-3.045-4.5-4.486-.768-.713-.557-1.046.108-1.7.05-.049.1-.1.155-.146l.053.053.792-.793a6.849,6.849,0,0,0,.84-.839l13.54-13.541.23-.23.622-.622c.342-.174.662.02,1.047.42,1.513,1.572,3.048,3.125,4.635,4.621.626.591.521.931-.033,1.481q-7.967,7.9-15.875,15.864C2867.113,3915.212,2866.767,3915.033,2866.2,3914.433Zm29.038-8.25q-9.906,9.967-19.876,19.871a2.371,2.371,0,0,1-1.87.833,2.409,2.409,0,0,1-1.839-.634c-1.106-1.1-2.237-2.178-3.3-3.32a2.38,2.38,0,0,1,.048-3.649q9.987-10.018,20.018-19.993a2.47,2.47,0,0,1,3.806.02q1.569,1.474,3.042,3.05A2.506,2.506,0,0,1,2895.233,3906.183Z"/>
      <path id="패스_4222" data-name="패스 4222" d="M2827.112,3845.724a1.521,1.521,0,0,0,1.914.158,1.76,1.76,0,0,0,1.009-1.651,1.647,1.647,0,0,0-.388-1.209c-2.384-2.381-4.726-4.807-7.164-7.132a1.683,1.683,0,0,0-2.514.187,1.629,1.629,0,0,0-.129,2.367C2822.213,3840.92,2824.65,3843.336,2827.112,3845.724Z"/>
      <path id="패스_4223" data-name="패스 4223" d="M2877.243,3845.313q3.24-3.245,6.482-6.488a1.782,1.782,0,0,0,.659-1.4,1.757,1.757,0,0,0-1.171-1.807,1.854,1.854,0,0,0-2.189.559q-3.248,3.237-6.484,6.486a1.827,1.827,0,0,0-.217,2.8C2875.291,3846.51,2876.314,3846.243,2877.243,3845.313Z"/>
      <path id="패스_4224" data-name="패스 4224" d="M2850.057,3845.137a1.8,1.8,0,0,0,1.826,1.966,1.766,1.766,0,0,0,1.943-1.848q.112-4.21-.006-8.427a1.878,1.878,0,1,0-3.754.068c-.05,1.371-.012,2.746-.012,4.12h-.006C2850.048,3842.39,2850.018,3843.764,2850.057,3845.137Z"/>
    </g>
  </g>
</svg>
