<svg xmlns="http://www.w3.org/2000/svg" width="76" height="76" viewBox="0 0 76 76">
  <g id="icon_address" transform="translate(-2608.66 -1834.866)">
    <circle id="icon" cx="38" cy="38" r="38" transform="translate(2608.66 1834.866)" fill="#fff"/>
    <path id="패스_2128" data-name="패스 2128" d="M2663.969,1868.521a17.255,17.255,0,0,0-34.511,0,18.6,18.6,0,0,0,.909,5.59,17.08,17.08,0,0,0,1.045,2.7c2.044,4.474,6.17,10.013,15.3,17.529,9.132-7.516,13.194-13.021,15.239-17.5a17.179,17.179,0,0,0,1.045-2.7A20.328,20.328,0,0,0,2663.969,1868.521Zm-17.256,10.2a10.2,10.2,0,1,1,10.2-10.2A10.2,10.2,0,0,1,2646.713,1878.724Z" fill="#f8ae00"/>
    <path id="패스_2129" data-name="패스 2129" d="M2646.713,1895.079a.741.741,0,0,1-.472-.169c-8.06-6.634-12.985-12.286-15.5-17.786a17.986,17.986,0,0,1-1.086-2.8,19.236,19.236,0,0,1-.939-5.809,18,18,0,0,1,36,.009,21.006,21.006,0,0,1-1.007,5.849,17.928,17.928,0,0,1-1.082,2.79c-2.524,5.519-7.43,11.16-15.438,17.751A.739.739,0,0,1,2646.713,1895.079Zm0-43.07a16.531,16.531,0,0,0-16.513,16.512v.024a18.086,18.086,0,0,0,.875,5.343,16.534,16.534,0,0,0,1,2.593l.009.017c2.335,5.111,7.122,10.635,14.625,16.874,7.552-6.277,12.186-11.638,14.563-16.84l.008-.017a16.381,16.381,0,0,0,1-2.579,19.7,19.7,0,0,0,.942-5.41v-.005A16.531,16.531,0,0,0,2646.713,1852.009Zm18,16.512h0Zm-18,10.946a10.945,10.945,0,1,1,10.946-10.946A10.958,10.958,0,0,1,2646.713,1879.467Zm0-20.406a9.461,9.461,0,1,0,9.46,9.46A9.471,9.471,0,0,0,2646.713,1859.061Z" fill="#070304"/>
  </g>
</svg>
