<svg xmlns="http://www.w3.org/2000/svg" width="107.5" height="101" viewBox="0 0 107.5 101">
  <g id="illust_hours" transform="translate(-330 -3794)">
    <circle id="icon" cx="50" cy="50" r="50" transform="translate(330 3795)" fill="#3a64f9"/>
    <g id="그룹_339" data-name="그룹 339" transform="translate(15.127 3463.811)">
      <path id="패스_2200" data-name="패스 2200" d="M412.182,358.978a10.636,10.636,0,0,1-4.574-1.026,7.681,7.681,0,0,1-3.865-3.778c-.913-2.154-.449-4.789.04-6.692a20.5,20.5,0,0,1-5.67-2.7c-.968-.659-2.272-1.711-2.416-3.234a4.459,4.459,0,0,1,.373-1.995,3.338,3.338,0,0,1,1.1-1.609c.829-.58,1.987-.533,3.445.137a16.693,16.693,0,0,1,6.43,5.217c.168-.121.316-.245.494-.4a5.456,5.456,0,0,1,2.929-1.294,16.305,16.305,0,0,1-.645-5.116,7.315,7.315,0,0,1,2.212-5.245,3.782,3.782,0,0,1,2.464-1.055h.05a3.633,3.633,0,0,1,3.167,2.7,7.649,7.649,0,0,1-.215,4.157,19.281,19.281,0,0,1-1.743,4.18,18.534,18.534,0,0,1,4.957,4.964,7.09,7.09,0,0,1,1.65,4.413,6.311,6.311,0,0,1-.756,2.59,10.683,10.683,0,0,1-6.034,5.228A10.56,10.56,0,0,1,412.182,358.978Zm-13.641-20.765a1.68,1.68,0,0,0-.984.282,2.755,2.755,0,0,0-.863,1.3,3.854,3.854,0,0,0-.33,1.689c.089.945.764,1.817,2.125,2.744a19.842,19.842,0,0,0,5.792,2.7.334.334,0,0,1,.232.409c-.489,1.823-1.039,4.488-.154,6.574a7.013,7.013,0,0,0,3.538,3.435,9.922,9.922,0,0,0,13.118-4.458,5.653,5.653,0,0,0,.684-2.314,6.46,6.46,0,0,0-1.522-3.991,17.327,17.327,0,0,0-5.037-4.95.331.331,0,0,1-.156-.2.335.335,0,0,1,.035-.255,18.655,18.655,0,0,0,1.842-4.312,7.031,7.031,0,0,0,.216-3.784,2.955,2.955,0,0,0-2.537-2.22,3.178,3.178,0,0,0-2.056.884,6.643,6.643,0,0,0-1.989,4.767,15.718,15.718,0,0,0,.736,5.294.337.337,0,0,1-.307.436,4.777,4.777,0,0,0-2.943,1.164,6.631,6.631,0,0,1-.833.634.334.334,0,0,1-.454-.088,16.023,16.023,0,0,0-6.357-5.262A4.451,4.451,0,0,0,398.541,338.212Z" fill="#ff7182"/>
      <path id="패스_2201" data-name="패스 2201" d="M416.315,359.437a.335.335,0,0,1-.271-.137l-.218-.3a.339.339,0,0,1-.062-.242q-.4-.777-.817-1.543a.335.335,0,1,1,.589-.321q.553,1.019,1.077,2.053a.335.335,0,0,1-.3.486Z" transform="translate(-6.343 -8.756)" fill="#ff7182"/>
      <path id="패스_2202" data-name="패스 2202" d="M423.161,356.659a.334.334,0,0,1-.3-.19l-1.053-2.2a.335.335,0,0,1,.605-.289l1.052,2.2a.335.335,0,0,1-.157.447A.328.328,0,0,1,423.161,356.659Z" transform="translate(-8.609 -7.789)" fill="#ff7182"/>
      <path id="패스_2203" data-name="패스 2203" d="M418.643,364.281a4.713,4.713,0,0,1-2.343-.614.335.335,0,1,1,.334-.581,4.013,4.013,0,0,0,5.929-2.662.335.335,0,0,1,.656.136,4.757,4.757,0,0,1-2.667,3.319A4.67,4.67,0,0,1,418.643,364.281Z" transform="translate(-6.747 -9.889)" fill="#ff7182"/>
    </g>
    <g id="그룹_463" data-name="그룹 463" transform="translate(-2893.111 1644.964)">
      <path id="패스_2626" data-name="패스 2626" d="M3242.651,2207.358c-1.4-6.673-2.568-13.64-1.043-20.283s6.42-12.9,12.905-13.741a6.138,6.138,0,0,0,1.719-.35,6.2,6.2,0,0,0,1.506-1.137,21.24,21.24,0,0,1,9.011-4.312c9.981-2.551,21.5-1.245,28.961,6.141a24.545,24.545,0,0,1,6.947,14.2,3.276,3.276,0,0,1-.111,1.728,2.9,2.9,0,0,1-.952,1.073,21.922,21.922,0,0,1-6.586,3.08c-12.153,4.056-24.512,7.439-36.549,11.856-3.486,1.279-7.06,2.722-9.66,5.465" fill="#00924b" stroke="#1a1311" stroke-linecap="round" stroke-linejoin="round" stroke-width="1.341"/>
      <path id="패스_2627" data-name="패스 2627" d="M3253.153,2214.487c-3.533-.518-6.864,1.848-9.177,4.568-2.448,2.881-4.312,6.672-3.5,10.364a8.216,8.216,0,0,0,5.3,5.9c3.475,1.171,7.479-.24,10.013-2.891a16.613,16.613,0,0,0,4.1-9.989" fill="#00924b" stroke="#1a1311" stroke-linecap="round" stroke-linejoin="round" stroke-width="1.341"/>
      <path id="패스_2628" data-name="패스 2628" d="M3295.049,2204.126a12.2,12.2,0,0,0,11.578,15.226,9.467,9.467,0,0,0,2.454-.251,8.756,8.756,0,0,0,6.252-8.381,10.984,10.984,0,0,0-5.573-9.2,14.855,14.855,0,0,0-10.91-1.312" fill="#00924b" stroke="#1a1311" stroke-linecap="round" stroke-linejoin="round" stroke-width="1.341"/>
      <path id="패스_2629" data-name="패스 2629" d="M3251.1,2207.648a11,11,0,0,0-5.953-2.674,6.559,6.559,0,0,0-7.375,7.308,8.08,8.08,0,0,0,5.841,6.466,10.094,10.094,0,0,0,8.7-1.893" fill="#fad1c2" stroke="#1a1311" stroke-linecap="round" stroke-linejoin="round" stroke-width="1.341"/>
      <path id="패스_2630" data-name="패스 2630" d="M3250.329,2208.835a5.946,5.946,0,0,0-4.1-.711c-4.528.99-4.157,6.852.247,7.735a7.221,7.221,0,0,0,4.262-.578" fill="#f7b79b"/>
      <path id="패스_2631" data-name="패스 2631" d="M3295.921,2193.913a10.99,10.99,0,0,1,3.79-5.312,6.559,6.559,0,0,1,10.055,2.589,8.081,8.081,0,0,1-1.782,8.53,10.091,10.091,0,0,1-8.466,2.755" fill="#fad1c2" stroke="#1a1311" stroke-linecap="round" stroke-linejoin="round" stroke-width="1.341"/>
      <path id="패스_2632" data-name="패스 2632" d="M3297.186,2194.548a5.95,5.95,0,0,1,3.177-2.68c4.409-1.429,7.047,3.82,3.69,6.8a7.227,7.227,0,0,1-3.972,1.65" fill="#f7b79b"/>
      <path id="패스_2633" data-name="패스 2633" d="M3295.812,2184.55c-12.814-14.152-39.614-12.168-47.508,6.343-3.963,9.291-2.881,21.365,3.5,29.349,6.146,7.688,16.916,10.214,26.333,9.215a26.874,26.874,0,0,0,23.3-20.831C3303.391,2200.36,3301.564,2190.9,3295.812,2184.55Z" fill="#fad1c2" stroke="#1a1311" stroke-linecap="round" stroke-linejoin="round" stroke-width="1.341"/>
      <path id="패스_2634" data-name="패스 2634" d="M3275.479,2192.189a3.922,3.922,0,0,0-.03-1.461c-.276-1.349-.674-2.4-2.1-2.725-2.571-.6-3.482,1.6-3.624,3.68-.012.166-.009.327-.011.491A11.384,11.384,0,0,0,3275.479,2192.189Z" fill="#f7b79b"/>
      <path id="패스_2635" data-name="패스 2635" d="M3261.866,2180.331c2.57,1.646,5.678,2.167,8.69,2.653a128.817,128.817,0,0,0,17.118,1.984c3.3.086,6.857-.166,9.461-2.2-3.717-3.507-7.823-6.731-12.584-8.589-11.457-4.471-28.068-1.893-35.232,8.718a29.511,29.511,0,0,0-4.934,19.349c.068.73.267,1.624.976,1.81,1.562.41,4.535-2.3,5.37-3.533,1.279-1.892,2.655-3.669,4-5.527A47.089,47.089,0,0,0,3261.866,2180.331Z" fill="#00924b"/>
      <path id="패스_2636" data-name="패스 2636" d="M3245.361,2204.053c1.562.41,4.535-2.3,5.37-3.533,1.279-1.892,2.655-3.669,4-5.527a47.089,47.089,0,0,0,7.138-14.662c2.57,1.646,5.678,2.167,8.69,2.653a128.817,128.817,0,0,0,17.118,1.984c3.3.086,6.857-.166,9.461-2.2" fill="none" stroke="#1a1311" stroke-linecap="round" stroke-linejoin="round" stroke-width="1.341"/>
      <g id="그룹_462" data-name="그룹 462">
        <g id="그룹_459" data-name="그룹 459">
          <path id="패스_2637" data-name="패스 2637" d="M3262.635,2195.235a1.892,1.892,0,0,0,0-3.782,1.892,1.892,0,0,0,0,3.782Z" fill="#1a1311"/>
        </g>
        <g id="그룹_460" data-name="그룹 460">
          <path id="패스_2638" data-name="패스 2638" d="M3281.705,2189.1a1.892,1.892,0,0,0,0-3.782,1.892,1.892,0,0,0,0,3.782Z" fill="#1a1311"/>
        </g>
        <g id="그룹_461" data-name="그룹 461">
          <path id="패스_2639" data-name="패스 2639" d="M3267.926,2193.64a4.927,4.927,0,0,0,6.272,2.931c2.626-.794,3.7-3.832,3.338-6.3-.071-.478-.8-.274-.725.2a4.973,4.973,0,0,1-2.463,5.231,4.134,4.134,0,0,1-5.7-2.258c-.181-.442-.909-.249-.726.2Z" fill="#1a1311"/>
        </g>
      </g>
      <circle id="타원_135" data-name="타원 135" cx="7.716" cy="7.716" r="7.716" transform="translate(3255.732 2197.209)" fill="#eb8896"/>
      <circle id="타원_136" data-name="타원 136" cx="7.716" cy="7.716" r="7.716" transform="translate(3277.368 2198.481) rotate(-51.696)" fill="#eb8896"/>
    </g>
  </g>
</svg>
