<svg id="charactor_g__hand_l_" data-name="charactor(g)_hand(l)" xmlns="http://www.w3.org/2000/svg" width="33.093" height="34.41" viewBox="0 0 33.093 34.41">
  <path id="패스_2043" data-name="패스 2043" d="M127.1,679.235c.131.7,7.267-1.356,7.921-1.666,2.426-1.153,5.221-4.151,4.2-7.113-.488-1.38-1.511-2.51-1.9-3.937-1.439-5.269,7.969-6.375,8.028.475a7.633,7.633,0,0,1,1.261-3.913c1.618-2.307,5.281-1.974,7.22-.273,3.009,2.653.06,6.614-2.783,7.921a8,8,0,0,1,4.745-.725c2.748.559,4.032,4.127,2.664,6.482-1.511,2.581-5.84,2.676-8.207,1.439,2.545,1.332,4.5,4.948.952,6.459a4.125,4.125,0,0,1-4.032-.726c-1.118-.737-2.414-1.772-3.782-1-2.831,1.594-5.007,9.622-13.262,12.013" transform="translate(-126.503 -660.846)" fill="#5da71e"/>
  <path id="패스_2044" data-name="패스 2044" d="M130.668,695.8a.582.582,0,0,1-.559-.428.592.592,0,0,1,.4-.738c5.245-1.511,8-5.495,10.015-8.409,1.13-1.629,2.034-2.926,3.1-3.532,1.558-.881,3.069.106,4.139.844l.262.179c1.32.88,2.426,1.105,3.473.654,1.011-.428,1.534-1.046,1.57-1.832.059-1.2-1.07-2.772-2.557-3.556h0a.593.593,0,0,1-.25-.8.6.6,0,0,1,.809-.25h0c2.07,1.094,6.09,1.083,7.4-1.2a3.977,3.977,0,0,0,.107-3.579,3.364,3.364,0,0,0-2.367-2.022,7.026,7.026,0,0,0-4.329.678l-.048.012a.591.591,0,1,1-.5-1.071l.036-.024c1.57-.749,3.366-2.5,3.628-4.329a2.731,2.731,0,0,0-1.023-2.593,5.064,5.064,0,0,0-3.925-1.19,3.331,3.331,0,0,0-2.414,1.345,6.968,6.968,0,0,0-1.154,3.616.6.6,0,0,1-.595.559h-.012a.58.58,0,0,1-.583-.6,3.951,3.951,0,0,0-2.177-3.842,3.785,3.785,0,0,0-3.949.441,2.488,2.488,0,0,0-.737,2.77,8.865,8.865,0,0,0,.94,1.987,10.264,10.264,0,0,1,.952,1.915c1.177,3.378-1.927,6.613-4.5,7.838-.262.119-7.2,2.355-8.373,1.748a.827.827,0,0,1-.393-.5.568.568,0,0,1,.464-.689.542.542,0,0,1,.5.118l.107.012a42.13,42.13,0,0,0,7.184-1.76c2.105-1,4.805-3.735,3.877-6.376a9.169,9.169,0,0,0-.844-1.713,8.843,8.843,0,0,1-1.058-2.272,3.761,3.761,0,0,1,1.106-4,5.133,5.133,0,0,1,5.221-.607,4.629,4.629,0,0,1,2.248,2.189,7,7,0,0,1,.8-1.511,4.558,4.558,0,0,1,3.259-1.867,6.439,6.439,0,0,1,4.841,1.486,3.934,3.934,0,0,1,1.427,3.663,6.385,6.385,0,0,1-1.725,3.295,6.374,6.374,0,0,1,1.986.1,4.555,4.555,0,0,1,3.211,2.7,5.135,5.135,0,0,1-.167,4.662c-1.2,2.094-3.9,2.724-6.244,2.451a4.414,4.414,0,0,1,1.011,2.819,3.212,3.212,0,0,1-2.284,2.866c-1.415.63-2.926.357-4.6-.749l-.274-.19c-1.166-.8-2-1.3-2.878-.8a11.3,11.3,0,0,0-2.724,3.176c-2.117,3.056-5.007,7.243-10.669,8.873Zm-2.45-16.129Z" transform="translate(-127.05 -661.392)" fill="#204100"/>
</svg>
