<svg id="charactor_b__hand_l_" data-name="charactor(b)_hand(l)" xmlns="http://www.w3.org/2000/svg" width="45.307" height="28.357" viewBox="0 0 45.307 28.357">
  <path id="패스_2020" data-name="패스 2020" d="M124.261,665.356c-.476.642,6.589,4.983,7.351,5.292,2.771,1.13,7.35,1.166,9.015-1.9.785-1.44.928-3.141,1.808-4.532,3.271-5.161,11.275,1.76,5.662,6.97a8.6,8.6,0,0,1,4.175-1.9c3.128-.4,5.614,2.866,5.662,5.744.083,4.484-5.4,5.032-8.623,3.675a9.041,9.041,0,0,1,4.187,3.367c1.594,2.687-.381,6.434-3.354,7.076-3.271.7-6.6-2.795-7.362-5.684.821,3.1-.7,7.445-4.6,5.649-1.594-.726-2.2-2.224-2.45-3.866-.226-1.475-.357-3.33-2.022-3.878-3.449-1.129-11.716,3.128-19.887-1.879" transform="translate(-113.221 -661.785)" fill="#0061b1"/>
  <path id="패스_2021" data-name="패스 2021" d="M140.436,690.7a4.881,4.881,0,0,1-1.963-.475c-1.546-.726-2.462-2.13-2.795-4.33l-.06-.38c-.226-1.593-.464-2.664-1.558-3.022-1.035-.356-2.735-.106-4.686.155-4.092.571-9.729,1.332-15.319-2.093a.6.6,0,0,1-.2-.821.589.589,0,0,1,.821-.2c5.233,3.211,10.621,2.486,14.534,1.938,2.188-.3,3.937-.535,5.221-.118,1.891.619,2.165,2.569,2.379,3.984l.048.381c.274,1.8.952,2.878,2.117,3.425a2.5,2.5,0,0,0,2.759-.119c1.059-.88,1.511-3.009,1.023-4.853a.61.61,0,0,1,.428-.738.594.594,0,0,1,.726.428h0c.606,2.343,3.259,5.34,5.923,5.34a3.661,3.661,0,0,0,.725-.071,4.627,4.627,0,0,0,3.081-2.664,3.865,3.865,0,0,0-.107-3.545,8.457,8.457,0,0,0-3.9-3.116h-.012a.6.6,0,0,1-.309-.785.56.56,0,0,1,.773-.309h0c1.808.761,4.674.952,6.411-.25a3.222,3.222,0,0,0,1.4-2.866,5.987,5.987,0,0,0-2-4.175,3.8,3.8,0,0,0-3-.988,7.827,7.827,0,0,0-3.877,1.772.6.6,0,0,1-.785-.9,4.485,4.485,0,0,0,1.558-4.758,4.417,4.417,0,0,0-3.4-2.985,2.966,2.966,0,0,0-2.9,1.522,9.4,9.4,0,0,0-.939,2.3,12.181,12.181,0,0,1-.856,2.2c-1.879,3.474-6.839,3.355-9.765,2.177-.309-.119-7.327-4.164-7.719-5.543a.907.907,0,0,1,.119-.654.587.587,0,0,1,.833-.108.593.593,0,0,1,.238.488c.7.963,6.244,4.436,6.97,4.71,2.438.988,6.768,1.154,8.278-1.629a11.556,11.556,0,0,0,.773-2.01,10.678,10.678,0,0,1,1.058-2.545,4.021,4.021,0,0,1,4.068-2.07,5.539,5.539,0,0,1,4.377,3.795,5.089,5.089,0,0,1-.167,3.6,8.211,8.211,0,0,1,1.986-.535,5.011,5.011,0,0,1,3.925,1.261,7.142,7.142,0,0,1,2.4,5.055,4.342,4.342,0,0,1-1.915,3.877A7.565,7.565,0,0,1,153,680.493a7.432,7.432,0,0,1,1.558,1.832,5.009,5.009,0,0,1,.178,4.6,5.772,5.772,0,0,1-3.925,3.354c-2.712.535-5.233-1.249-6.756-3.438a4.924,4.924,0,0,1-1.546,3.092A3.225,3.225,0,0,1,140.436,690.7Zm-15.153-24.43v0Z" transform="translate(-113.768 -662.341)" fill="#002447"/>
</svg>
