<svg xmlns="http://www.w3.org/2000/svg" width="35.963" height="37.46" viewBox="0 0 35.963 37.46">
  <path id="charactor_y__hand_r_" data-name="charactor(y)_hand(r)" d="M112.372,677.1c.155.785,8.195-1.522,8.944-1.88,2.724-1.308,5.876-4.686,4.722-8.016-.547-1.558-1.713-2.831-2.153-4.436-1.618-5.947,8.992-7.2,9.063.535a8.582,8.582,0,0,1,1.415-4.413c1.832-2.6,5.959-2.224,8.135-.309,3.4,3,.071,7.458-3.14,8.933a9.008,9.008,0,0,1,5.364-.82c3.092.63,4.531,4.662,2.985,7.314-1.689,2.9-6.566,3.009-9.242,1.606,2.866,1.51,5.067,5.59,1.07,7.279a4.652,4.652,0,0,1-4.543-.8c-1.261-.844-2.724-2.01-4.27-1.13-3.188,1.8-5.638,10.847-14.939,13.535" transform="translate(-112.372 -657.039)" fill="#ffc500"/>
</svg>
