<svg id="charactor_b__hand_r_" data-name="charactor(b)_hand(r)" xmlns="http://www.w3.org/2000/svg" width="45.307" height="28.343" viewBox="0 0 45.307 28.343">
  <path id="패스_2018" data-name="패스 2018" d="M154.25,665.356c.476.642-6.589,4.983-7.351,5.292-2.783,1.13-7.351,1.166-9.016-1.9-.785-1.44-.928-3.141-1.82-4.532-3.259-5.161-11.264,1.76-5.65,6.97a8.6,8.6,0,0,0-4.175-1.9c-3.128-.4-5.614,2.866-5.662,5.744-.083,4.484,5.4,5.032,8.623,3.675a9.042,9.042,0,0,0-4.187,3.367c-1.594,2.687.381,6.434,3.354,7.076,3.259.7,6.6-2.795,7.35-5.684-.809,3.1.714,7.445,4.615,5.649a4.625,4.625,0,0,0,2.45-3.866c.226-1.475.357-3.33,2.022-3.878,3.449-1.129,11.7,3.128,19.887-1.879" transform="translate(-119.982 -661.799)" fill="#0061b1"/>
  <path id="패스_2019" data-name="패스 2019" d="M139.167,690.685a3.2,3.2,0,0,1-2.07-.761,4.893,4.893,0,0,1-1.546-3.081c-1.534,2.189-4.1,4.009-6.756,3.426a5.772,5.772,0,0,1-3.925-3.354,5.009,5.009,0,0,1,.178-4.6,7.434,7.434,0,0,1,1.558-1.832,7.428,7.428,0,0,1-4.175-1.047,4.372,4.372,0,0,1-1.9-3.877,7.141,7.141,0,0,1,2.4-5.055,5.085,5.085,0,0,1,3.925-1.261,8.118,8.118,0,0,1,1.974.535,5.223,5.223,0,0,1-.167-3.6,5.554,5.554,0,0,1,4.389-3.795,4.078,4.078,0,0,1,4.068,2.07A10.277,10.277,0,0,1,138.18,667a11.082,11.082,0,0,0,.773,2c1.511,2.8,5.828,2.617,8.278,1.641.714-.3,6.268-3.758,6.97-4.721a.594.594,0,0,1,.238-.488.579.579,0,0,1,.833.119.921.921,0,0,1,.107.642c-.381,1.368-7.4,5.424-7.707,5.543-2.914,1.177-7.886,1.3-9.765-2.177a11.069,11.069,0,0,1-.856-2.2,9.4,9.4,0,0,0-.94-2.3,2.948,2.948,0,0,0-2.914-1.522,4.384,4.384,0,0,0-3.39,2.985,4.477,4.477,0,0,0,1.546,4.758.6.6,0,0,1,.048.833.583.583,0,0,1-.821.06,8.009,8.009,0,0,0-3.877-1.76,3.665,3.665,0,0,0-3,.987,5.989,5.989,0,0,0-2,4.175,3.171,3.171,0,0,0,1.4,2.866c1.737,1.166,4.591,1.011,6.4.25h.012a.567.567,0,0,1,.773.309.6.6,0,0,1-.309.785l-.012.011a8.368,8.368,0,0,0-3.9,3.1,3.864,3.864,0,0,0-.107,3.545,4.627,4.627,0,0,0,3.081,2.664,3.671,3.671,0,0,0,.725.071c2.664,0,5.3-2.985,5.923-5.328v-.012a.6.6,0,0,1,.726-.428.61.61,0,0,1,.428.738c-.488,1.843-.036,3.973,1.023,4.865a2.462,2.462,0,0,0,2.759.095c1.166-.535,1.843-1.618,2.117-3.413l.048-.381c.214-1.415.488-3.365,2.379-3.984,1.285-.416,3.021-.178,5.222.118,3.937.548,9.3,1.285,14.534-1.938a.591.591,0,0,1,.821.2.6.6,0,0,1-.2.821c-5.6,3.413-11.228,2.664-15.319,2.093-1.951-.261-3.663-.511-4.686-.155-1.094.357-1.332,1.428-1.558,3.021l-.06.38c-.345,2.2-1.261,3.616-2.795,4.33A4.881,4.881,0,0,1,139.167,690.685Zm15.153-24.43Z" transform="translate(-120.528 -662.342)" fill="#002447"/>
</svg>
