<svg id="charactor_g__hand_r_" data-name="charactor(g)_hand(r)" xmlns="http://www.w3.org/2000/svg" width="32.331" height="36.582" viewBox="0 0 32.331 36.582">
  <path id="패스_2041" data-name="패스 2041" d="M164.151,681.886c-.226.678-7.065-2.2-7.684-2.593-2.272-1.427-4.686-4.734-3.318-7.552.642-1.32,1.8-2.32,2.355-3.687,2.046-5.067-7.172-7.279-8.04-.476a7.633,7.633,0,0,0-.785-4.032c-1.344-2.486-5.019-2.581-7.136-1.118-3.307,2.283-.844,6.553,1.832,8.194a7.973,7.973,0,0,0-4.639-1.284c-2.783.238-4.484,3.627-3.4,6.125,1.189,2.747,5.483,3.342,7.981,2.391-2.688,1.023-5.055,4.388-1.713,6.3a4.153,4.153,0,0,0,4.1-.238c1.189-.606,2.593-1.486,3.865-.546,2.628,1.915,3.842,10.145,11.751,13.476" transform="translate(-132.411 -660.862)" fill="#5da71e"/>
  <path id="패스_2042" data-name="패스 2042" d="M159.865,698a.562.562,0,0,1-.238-.047c-5.424-2.284-7.8-6.779-9.539-10.062a11.259,11.259,0,0,0-2.319-3.485c-.844-.583-1.725-.2-2.973.464l-.274.131a4.767,4.767,0,0,1-4.662.238,3.261,3.261,0,0,1-1.939-3.152,4.36,4.36,0,0,1,1.344-2.651c-2.379-.013-4.972-.952-5.935-3.177a5.212,5.212,0,0,1,.4-4.662,4.531,4.531,0,0,1,3.5-2.3,7.7,7.7,0,0,1,1.986.143,6.412,6.412,0,0,1-1.32-3.473,3.977,3.977,0,0,1,1.843-3.473,6.173,6.173,0,0,1,4.984-.892,4.519,4.519,0,0,1,3.021,2.224,7.684,7.684,0,0,1,.618,1.582,4.625,4.625,0,0,1,2.474-1.891,5.043,5.043,0,0,1,5.126,1.213,3.767,3.767,0,0,1,.63,4.1,9.434,9.434,0,0,1-1.32,2.129,10.416,10.416,0,0,0-1.047,1.582c-1.225,2.522,1.13,5.555,3.1,6.815.595.369,5.911,2.558,7.017,2.593a.733.733,0,0,1,.523-.083.582.582,0,0,1,.381.75.821.821,0,0,1-.44.452.96.96,0,0,1-.345.048c-1.808,0-7.529-2.617-7.767-2.76-2.415-1.523-5.1-5.115-3.544-8.314a10.679,10.679,0,0,1,1.166-1.808,7.851,7.851,0,0,0,1.165-1.844,2.506,2.506,0,0,0-.4-2.842,3.913,3.913,0,0,0-3.877-.916,3.976,3.976,0,0,0-2.6,3.568.561.561,0,0,1-.654.524.6.6,0,0,1-.535-.643,6.828,6.828,0,0,0-.714-3.7,3.357,3.357,0,0,0-2.248-1.63,5.1,5.1,0,0,0-4.032.713,2.806,2.806,0,0,0-1.332,2.462,6.588,6.588,0,0,0,3.1,4.71l.036.024a.6.6,0,0,1,.19.833.58.58,0,0,1-.809.19h0a7.289,7.289,0,0,0-4.27-1.2,3.339,3.339,0,0,0-2.593,1.725,4.041,4.041,0,0,0-.321,3.579c1.047,2.4,5.019,2.926,7.22,2.058h0a.6.6,0,1,1,.428,1.118h-.012c-1.57.6-2.866,2.01-2.95,3.211a2.167,2.167,0,0,0,1.332,2.022,3.637,3.637,0,0,0,3.532-.262l.262-.119c1.166-.63,2.759-1.463,4.234-.38,1,.725,1.736,2.117,2.664,3.889,1.653,3.116,3.925,7.41,8.956,9.527a.6.6,0,0,1,.321.785A.614.614,0,0,1,159.865,698Zm4.27-15.747Z" transform="translate(-132.955 -661.418)" fill="#204100"/>
</svg>
