<svg xmlns="http://www.w3.org/2000/svg" width="35.963" height="37.46" viewBox="0 0 35.963 37.46">
  <path id="charactor_r__hand_l_" data-name="charactor(r)_hand(l)" d="M119.941,678.009c-.155.785-8.195-1.522-8.944-1.879-2.724-1.308-5.876-4.687-4.722-8.016.547-1.559,1.713-2.831,2.153-4.436,1.618-5.947-8.992-7.2-9.063.535a8.582,8.582,0,0,0-1.415-4.413c-1.832-2.6-5.959-2.224-8.135-.309-3.4,3-.071,7.458,3.14,8.933a9.009,9.009,0,0,0-5.364-.821c-3.092.631-4.532,4.662-2.985,7.314,1.689,2.9,6.565,3.01,9.242,1.605-2.866,1.511-5.067,5.591-1.07,7.279a4.652,4.652,0,0,0,4.543-.8c1.261-.845,2.724-2.01,4.27-1.142,3.188,1.807,5.638,10.858,14.939,13.547" transform="translate(-83.978 -657.949)" fill="#dd0031"/>
</svg>
