<svg xmlns="http://www.w3.org/2000/svg" width="159.676" height="181.671" viewBox="0 0 159.676 181.671">
  <g id="그룹_1328" data-name="그룹 1328" transform="translate(-1348.52 -1095.617)">
    <path id="패스_2014" data-name="패스 2014" d="M269.913,693.422c-.048-.357-.083-.714-.143-1.059a49.787,49.787,0,0,0-3.628-12.287,41.606,41.606,0,0,0-9.039-12.9,45.093,45.093,0,0,0-14.808-9.444,54.26,54.26,0,0,0-38.453.071,46.09,46.09,0,0,0-11.513,6.7,45.459,45.459,0,0,0-9.693-5.923,54.839,54.839,0,0,0-40.594-.844,44.96,44.96,0,0,0-14.8,9.432,40.46,40.46,0,0,0-9.17,13.345,47.3,47.3,0,0,0-3.342,12.738,355.74,355.74,0,0,0,0,81.319,48.062,48.062,0,0,0,3.283,12.632A40.111,40.111,0,0,0,127.21,800.7a44.837,44.837,0,0,0,14.832,9.48,51.839,51.839,0,0,0,19.244,3.485,56.461,56.461,0,0,0,7.315-.523c1.546,2.378,3.5,6.018,3.5,9.241,0,5.3-1.177,2.676-1.189,2.664-.523-1.189-4.139-1.725-5.174-1.677-4.734.2-7.065,7.255-4.365,10.776,1.57,2.034,4.591,1.95,6.863,1.5,1.677-.333,3.283-.963,4.972-1.261,2.652-.464,5.15.6,7.541-1.118,4.876-3.473,1.76-8.944.547-13.321-.214-.8-1.534-9.384-.631-9.384h-1.4c.369-.131.749-.238,1.118-.38a45.893,45.893,0,0,0,11.977-6.935,49.621,49.621,0,0,0,4.377,3.188,43.35,43.35,0,0,0,8.6,4.127h-1.273c.916,0-.4,8.587-.619,9.384-1.213,4.377-4.341,9.848.547,13.321,2.391,1.713,4.888.654,7.541,1.118,1.677.3,3.295.928,4.972,1.261,2.272.452,5.293.535,6.851-1.5,2.7-3.521.381-10.574-4.353-10.776-1.035-.047-4.65.488-5.186,1.677,0,.012-1.178,2.641-1.178-2.664,0-3.188,1.9-6.78,3.437-9.159a60.318,60.318,0,0,0,7.125.44,51.485,51.485,0,0,0,19.1-3.485,45.123,45.123,0,0,0,14.82-9.468,41.3,41.3,0,0,0,9.123-13.142,50.869,50.869,0,0,0,3.533-12.155c.059-.357.1-.7.143-1.059a371.373,371.373,0,0,0,2.165-40.463A371.763,371.763,0,0,0,269.913,693.422Z" transform="translate(1236.118 441.374)" fill="#0061b1"/>
    <path id="패스_2022" data-name="패스 2022" d="M118.412,666.886a1.79,1.79,0,0,1-.2-3.568c2.355-.25,5.8-3.307,6.827-4.365a1.779,1.779,0,1,1,2.545,2.486c-.488.512-4.948,5-8.98,5.436Z" transform="translate(1282.144 486.798)" fill="#1a1311"/>
    <path id="패스_2023" data-name="패스 2023" d="M118.36,665.968a1.75,1.75,0,0,1-1.3-.559,1.784,1.784,0,0,1,.059-2.521c6.375-6.078,14.653-1.963,15-1.784a1.77,1.77,0,0,1,.773,2.391,1.789,1.789,0,0,1-2.391.8c-.274-.143-6.375-3.152-10.919,1.178A1.688,1.688,0,0,1,118.36,665.968Z" transform="translate(1281.542 499.49)" fill="#1a1311"/>
    <path id="패스_2024" data-name="패스 2024" d="M130.33,666.4l-.19-.012c-4.044-.428-8.5-4.924-9-5.436a1.787,1.787,0,0,1,2.569-2.485c1.522,1.558,4.722,4.138,6.8,4.365a1.789,1.789,0,0,1-.178,3.568Z" transform="translate(1325.842 481.489)" fill="#1a1311"/>
    <path id="패스_2025" data-name="패스 2025" d="M122.111,667.744a1.8,1.8,0,0,1-1.023-.321,1.776,1.776,0,0,1-.44-2.473c.238-.322,5.614-7.791,14.094-5.447a1.785,1.785,0,0,1,1.237,2.188,1.749,1.749,0,0,1-2.2,1.25c-6.018-1.678-10.039,3.829-10.205,4.067A1.8,1.8,0,0,1,122.111,667.744Z" transform="translate(1322.465 493.707)" fill="#1a1311"/>
    <g id="그룹_244" data-name="그룹 244" transform="translate(1398.164 1167.494)">
      <path id="패스_2026" data-name="패스 2026" d="M173.519,666.858c.868,8.648-5.8,16.14-13.571,18.877s-17.4,4.235-25.489,2.272c-3.271-.8-6.565-1.356-9.539-3-3.057-1.617-6.363-3.52-7.636-6.91a9.637,9.637,0,0,1,1.261-8.73c3.628-5.447,10.4-5.34,16.176-5.209a90.775,90.775,0,0,0,13.571-.559c4.6-.594,8.932-2.474,13.523-3,5.114-.451,10.93-.428,11.68,5.995Z" transform="translate(-114.94 -658.665)" fill="#fff" fill-rule="evenodd"/>
      <path id="패스_2027" data-name="패스 2027" d="M144.124,692.29a35.988,35.988,0,0,1-8.456-.939l-1.772-.417a30.477,30.477,0,0,1-8.207-2.747c-3.461-1.832-6.97-3.95-8.445-7.838a11.422,11.422,0,0,1,1.451-10.36c4.2-6.292,11.668-6.078,17.71-5.994a90.924,90.924,0,0,0,13.286-.536,50.913,50.913,0,0,0,6.351-1.427,47.006,47.006,0,0,1,7.208-1.582c3.842-.3,12.643-1.107,13.654,7.552l.036.3c.975,9.848-6.684,17.888-14.76,20.742A55.279,55.279,0,0,1,144.124,692.29Zm-10.455-24.775c-4.662,0-9.4.536-12,4.461a7.853,7.853,0,0,0-1.094,7.065c1.035,2.772,3.818,4.425,6.815,6.007a27.489,27.489,0,0,0,7.315,2.414l1.808.428c6.827,1.653,15.759.844,24.478-2.212,6.768-2.378,13.19-9,12.393-17.032V668.6l1.772-.119h-1.8c-.44-3.924-3.021-5.031-9.753-4.471a42.716,42.716,0,0,0-6.625,1.463,54.119,54.119,0,0,1-6.815,1.522,103.285,103.285,0,0,1-13.844.571C135.453,667.539,134.561,667.515,133.669,667.515Z" transform="translate(-116.576 -660.285)" fill="#1a1311"/>
    </g>
    <path id="패스_2028" data-name="패스 2028" d="M121.834,659.318s20.006,2.76,14.106,10.61S121.834,659.318,121.834,659.318Z" transform="translate(1338.87 496.672)" fill="#fff"/>
    <g id="그룹_245" data-name="그룹 245" transform="translate(1409.945 1171.525)">
      <line id="선_17" data-name="선 17" x1="4.889" y2="21.478" transform="translate(1.792 1.782)" fill="#00489b"/>
      <path id="패스_2029" data-name="패스 2029" d="M119.358,685.674a2.215,2.215,0,0,1-.393-.048,1.784,1.784,0,0,1-1.356-2.129L122.51,662a1.787,1.787,0,0,1,3.485.8l-4.9,21.481A1.787,1.787,0,0,1,119.358,685.674Z" transform="translate(-117.566 -660.624)" fill="#1a1311"/>
    </g>
    <g id="그룹_246" data-name="그룹 246" transform="translate(1426.074 1171.061)">
      <line id="선_18" data-name="선 18" x2="1.907" y2="24.838" transform="translate(1.779 1.781)" fill="#00489b"/>
      <path id="패스_2030" data-name="패스 2030" d="M122.6,689a1.787,1.787,0,0,1-1.772-1.653l-1.9-24.846a1.77,1.77,0,0,1,1.641-1.915,2,2,0,0,1,1.9,1.641l1.9,24.835a1.78,1.78,0,0,1-1.641,1.926Z" transform="translate(-118.922 -660.585)" fill="#1a1311"/>
    </g>
    <g id="그룹_247" data-name="그룹 247" transform="translate(1438.303 1169.234)">
      <line id="선_19" data-name="선 19" x2="8.175" y2="20.684" transform="translate(1.785 1.781)" fill="#00489b"/>
      <path id="패스_2031" data-name="패스 2031" d="M129.91,684.69a1.793,1.793,0,0,1-1.653-1.142l-8.183-20.683a1.784,1.784,0,1,1,3.319-1.309l8.183,20.7a1.8,1.8,0,0,1-1.665,2.438Z" transform="translate(-119.95 -660.432)" fill="#1a1311"/>
    </g>
    <ellipse id="타원_89" data-name="타원 89" cx="5.728" cy="16.354" rx="5.728" ry="16.354" transform="translate(1467.042 1115.252) rotate(-45)" fill="#fff" opacity="0.3"/>
    <path id="패스_2020" data-name="패스 2020" d="M124.261,665.356c-.476.642,6.589,4.983,7.351,5.292,2.771,1.13,7.35,1.166,9.015-1.9.785-1.44.928-3.141,1.808-4.532,3.271-5.161,11.275,1.76,5.662,6.97a8.6,8.6,0,0,1,4.175-1.9c3.128-.4,5.614,2.866,5.662,5.744.083,4.484-5.4,5.032-8.623,3.675a9.041,9.041,0,0,1,4.187,3.367c1.594,2.687-.381,6.434-3.354,7.076-3.271.7-6.6-2.795-7.362-5.684.821,3.1-.7,7.445-4.6,5.649-1.594-.726-2.2-2.224-2.45-3.866-.226-1.475-.357-3.33-2.022-3.878-3.449-1.129-11.716,3.128-19.887-1.879" transform="translate(1251.544 530.147)" fill="#0061b1"/>
    <path id="패스_2021" data-name="패스 2021" d="M140.436,690.7a4.881,4.881,0,0,1-1.963-.475c-1.546-.726-2.462-2.13-2.795-4.33l-.06-.38c-.226-1.593-.464-2.664-1.558-3.022-1.035-.356-2.735-.106-4.686.155-4.092.571-9.729,1.332-15.319-2.093a.6.6,0,0,1-.2-.821.589.589,0,0,1,.821-.2c5.233,3.211,10.621,2.486,14.534,1.938,2.188-.3,3.937-.535,5.221-.118,1.891.619,2.165,2.569,2.379,3.984l.048.381c.274,1.8.952,2.878,2.117,3.425a2.5,2.5,0,0,0,2.759-.119c1.059-.88,1.511-3.009,1.023-4.853a.61.61,0,0,1,.428-.738.594.594,0,0,1,.726.428h0c.606,2.343,3.259,5.34,5.923,5.34a3.661,3.661,0,0,0,.725-.071,4.627,4.627,0,0,0,3.081-2.664,3.865,3.865,0,0,0-.107-3.545,8.457,8.457,0,0,0-3.9-3.116h-.012a.6.6,0,0,1-.309-.785.56.56,0,0,1,.773-.309h0c1.808.761,4.674.952,6.411-.25a3.222,3.222,0,0,0,1.4-2.866,5.987,5.987,0,0,0-2-4.175,3.8,3.8,0,0,0-3-.988,7.827,7.827,0,0,0-3.877,1.772.6.6,0,0,1-.785-.9,4.485,4.485,0,0,0,1.558-4.758,4.417,4.417,0,0,0-3.4-2.985,2.966,2.966,0,0,0-2.9,1.522,9.4,9.4,0,0,0-.939,2.3,12.181,12.181,0,0,1-.856,2.2c-1.879,3.474-6.839,3.355-9.765,2.177-.309-.119-7.327-4.164-7.719-5.543a.907.907,0,0,1,.119-.654.587.587,0,0,1,.833-.108.593.593,0,0,1,.238.488c.7.963,6.244,4.436,6.97,4.71,2.438.988,6.768,1.154,8.278-1.629a11.556,11.556,0,0,0,.773-2.01,10.678,10.678,0,0,1,1.058-2.545,4.021,4.021,0,0,1,4.068-2.07,5.539,5.539,0,0,1,4.377,3.795,5.089,5.089,0,0,1-.167,3.6,8.211,8.211,0,0,1,1.986-.535,5.011,5.011,0,0,1,3.925,1.261,7.142,7.142,0,0,1,2.4,5.055,4.342,4.342,0,0,1-1.915,3.877A7.565,7.565,0,0,1,153,680.493a7.432,7.432,0,0,1,1.558,1.832,5.009,5.009,0,0,1,.178,4.6,5.772,5.772,0,0,1-3.925,3.354c-2.712.535-5.233-1.249-6.756-3.438a4.924,4.924,0,0,1-1.546,3.092A3.225,3.225,0,0,1,140.436,690.7Zm-15.153-24.43v0Z" transform="translate(1250.998 529.591)" fill="#002447"/>
    <path id="패스_2018" data-name="패스 2018" d="M154.25,665.356c.476.642-6.589,4.983-7.351,5.292-2.783,1.13-7.351,1.166-9.016-1.9-.785-1.44-.928-3.141-1.82-4.532-3.259-5.161-11.264,1.76-5.65,6.97a8.6,8.6,0,0,0-4.175-1.9c-3.128-.4-5.614,2.866-5.662,5.744-.083,4.484,5.4,5.032,8.623,3.675a9.042,9.042,0,0,0-4.187,3.367c-1.594,2.687.381,6.434,3.354,7.076,3.259.7,6.6-2.795,7.35-5.684-.809,3.1.714,7.445,4.615,5.649a4.625,4.625,0,0,0,2.45-3.866c.226-1.475.357-3.33,2.022-3.878,3.449-1.129,11.7,3.128,19.887-1.879" transform="translate(1325.187 530.147)" fill="#0061b1"/>
    <path id="패스_2019" data-name="패스 2019" d="M139.167,690.685a3.2,3.2,0,0,1-2.07-.761,4.893,4.893,0,0,1-1.546-3.081c-1.534,2.189-4.1,4.009-6.756,3.426a5.772,5.772,0,0,1-3.925-3.354,5.009,5.009,0,0,1,.178-4.6,7.434,7.434,0,0,1,1.558-1.832,7.428,7.428,0,0,1-4.175-1.047,4.372,4.372,0,0,1-1.9-3.877,7.141,7.141,0,0,1,2.4-5.055,5.085,5.085,0,0,1,3.925-1.261,8.118,8.118,0,0,1,1.974.535,5.223,5.223,0,0,1-.167-3.6,5.554,5.554,0,0,1,4.389-3.795,4.078,4.078,0,0,1,4.068,2.07A10.277,10.277,0,0,1,138.18,667a11.082,11.082,0,0,0,.773,2c1.511,2.8,5.828,2.617,8.278,1.641.714-.3,6.268-3.758,6.97-4.721a.594.594,0,0,1,.238-.488.579.579,0,0,1,.833.119.921.921,0,0,1,.107.642c-.381,1.368-7.4,5.424-7.707,5.543-2.914,1.177-7.886,1.3-9.765-2.177a11.069,11.069,0,0,1-.856-2.2,9.4,9.4,0,0,0-.94-2.3,2.948,2.948,0,0,0-2.914-1.522,4.384,4.384,0,0,0-3.39,2.985,4.477,4.477,0,0,0,1.546,4.758.6.6,0,0,1,.048.833.583.583,0,0,1-.821.06,8.009,8.009,0,0,0-3.877-1.76,3.665,3.665,0,0,0-3,.987,5.989,5.989,0,0,0-2,4.175,3.171,3.171,0,0,0,1.4,2.866c1.737,1.166,4.591,1.011,6.4.25h.012a.567.567,0,0,1,.773.309.6.6,0,0,1-.309.785l-.012.011a8.368,8.368,0,0,0-3.9,3.1,3.864,3.864,0,0,0-.107,3.545,4.627,4.627,0,0,0,3.081,2.664,3.671,3.671,0,0,0,.725.071c2.664,0,5.3-2.985,5.923-5.328v-.012a.6.6,0,0,1,.726-.428.61.61,0,0,1,.428.738c-.488,1.843-.036,3.973,1.023,4.865a2.462,2.462,0,0,0,2.759.095c1.166-.535,1.843-1.618,2.117-3.413l.048-.381c.214-1.415.488-3.365,2.379-3.984,1.285-.416,3.021-.178,5.222.118,3.937.548,9.3,1.285,14.534-1.938a.591.591,0,0,1,.821.2.6.6,0,0,1-.2.821c-5.6,3.413-11.228,2.664-15.319,2.093-1.951-.261-3.663-.511-4.686-.155-1.094.357-1.332,1.428-1.558,3.021l-.06.38c-.345,2.2-1.261,3.616-2.795,4.33A4.881,4.881,0,0,1,139.167,690.685Zm15.153-24.43Z" transform="translate(1324.641 529.604)" fill="#002447"/>
  </g>
</svg>
