<svg xmlns="http://www.w3.org/2000/svg" xmlns:xlink="http://www.w3.org/1999/xlink" width="395" height="298" viewBox="0 0 395 298">
  <defs>
    <clipPath id="clip-path">
      <rect id="사각형_143" data-name="사각형 143" width="395" height="298" transform="translate(6 0.073)" fill="#fff" stroke="#707070" stroke-width="1"/>
    </clipPath>
  </defs>
  <g id="center_yellow-illust" transform="translate(-10602 -867)">
    <g id="vector" transform="translate(10599.212 873.996)">
      <path id="패스_7175" data-name="패스 7175" d="M342.058,91.7q-3.091,6.26-6.246,12.486a2.1,2.1,0,0,1-2.584,1.5L316.313,104.3a58.414,58.414,0,0,0,13.551,10.749l-8.228,13.4,13.03-5.738a1.789,1.789,0,0,1,.805-.213,1.814,1.814,0,0,1,1.011.541l12.631,10.83q-1.035-9.129-2.068-18.258l14.056-7.653a69.879,69.879,0,0,1-17.829-1.556A88.878,88.878,0,0,0,342.058,91.7Z" transform="translate(-299.662 -88.968)" fill="#e06fa5"/>
      <path id="패스_7176" data-name="패스 7176" d="M403.22,155.741l-3.095,4.091a1.131,1.131,0,0,1-1.576.531l-5.885-1.9,3.307,5.872a1.349,1.349,0,0,1,.245.762,1.386,1.386,0,0,1-.513.793,30.74,30.74,0,0,0-4.924,6.159,71.3,71.3,0,0,0,8.018-3.167A52.621,52.621,0,0,0,403.711,176a42.223,42.223,0,0,0,.053-8.785,34.729,34.729,0,0,0,7.694-3.416l-8.11-.731A14.911,14.911,0,0,1,403.22,155.741Z" transform="translate(-18.669 -5.099)" fill="#fff"/>
      <path id="패스_7177" data-name="패스 7177" d="M370.786,138.144q-2.133,4.427-4.265,8.856a1.95,1.95,0,0,1-2.019,1.451l-12.657,1.1a63.686,63.686,0,0,0,8.819,5.3q-2.116,6.413-4.233,12.826,5.577-3.492,10.9-7.363l9.822,9.572-1.225-12.232a76.315,76.315,0,0,0,11.47-5.77,78.2,78.2,0,0,0-14.012-2.192C372.927,145.648,372.467,141.6,370.786,138.144Z" transform="translate(-14.387 -137.828)" fill="#3a64f9"/>
      <path id="패스_7178" data-name="패스 7178" d="M357.545,135.041c-.011-.16-.046-.3-.069-.454-.014-.1-.026-.206-.047-.3-.024-.117-.054-.228-.085-.339-.02-.065-.04-.129-.063-.193-1.252-3.861-6.525-4.006-7.716.472a4.818,4.818,0,0,0,.522,3.585,2.9,2.9,0,0,0,3.23,1.4,3.793,3.793,0,0,0,1.5-.154A3.736,3.736,0,0,0,357.545,135.041Z" transform="translate(-134.73 -73.017)" fill="#fff"/>
      <path id="패스_7179" data-name="패스 7179" d="M369.191,116.385a5.409,5.409,0,0,0-1.748-.018,5.329,5.329,0,0,0-4.936,6.911c1.135,4.12,6.781,5.669,9.485,2.126C374.645,122.1,373.589,117.292,369.191,116.385Z" transform="translate(-136.311 -74.533)" fill="#e06fa5"/>
      <path id="패스_7180" data-name="패스 7180" d="M331.3,131.445a1.717,1.717,0,0,0-.518-1.747,2.22,2.22,0,0,0-.667-.564c-2.615-1.412-5.169,2.226-2.828,4.118a1.966,1.966,0,0,0,1.936.353A2.205,2.205,0,0,0,331.3,131.445Z" transform="translate(-312.219 -128.816)" fill="#3a64f9"/>
      <path id="패스_7181" data-name="패스 7181" d="M337.067,149.4a5.024,5.024,0,0,0-1.279-.11,3.045,3.045,0,0,0-2.115.253,4.714,4.714,0,0,0-2.378,5,6.156,6.156,0,0,0,4.621,3.93,4.02,4.02,0,0,0,4.066-1.885A5.159,5.159,0,0,0,337.067,149.4Z" transform="translate(-304.384 -98.54)" fill="#8ccd96"/>
      <path id="패스_7182" data-name="패스 7182" d="M398.145,144.1c-.6-2.374-4.061-2.185-4.709.07-.748,2.361,2.185,4.44,4.023,2.624a2.121,2.121,0,0,0,.618-1.268A2.573,2.573,0,0,0,398.145,144.1Z" transform="translate(-12.866 -140.028)" fill="#e06fa5"/>
      <path id="패스_7183" data-name="패스 7183" d="M422.664,155.3c-3.141,1.988-1.78,7.944,2.107,7.844a2.907,2.907,0,0,0,1.046-.248,3.579,3.579,0,0,0,1.694-.581C432.659,158.877,427.592,152.138,422.664,155.3Z" transform="translate(-39.946 -130.661)" fill="#fff"/>
      <path id="패스_7188" data-name="패스 7188" d="M422.664,155.3c-3.141,1.988-1.78,7.944,2.107,7.844a2.907,2.907,0,0,0,1.046-.248,3.579,3.579,0,0,0,1.694-.581C432.659,158.877,427.592,152.138,422.664,155.3Z" transform="translate(-413.501 85.938)" fill="#fff"/>
      <path id="패스_7184" data-name="패스 7184" d="M414.448,187.581a4.3,4.3,0,0,0-5.586-3.462,4.359,4.359,0,0,0-2.606,1.242,4.894,4.894,0,0,0-.818,5.74,3.7,3.7,0,0,0,1.75,1.6,3.8,3.8,0,0,0,1.927.731C412.088,193.555,415.136,190.633,414.448,187.581Z" transform="translate(-19.493 -54.436)" fill="#3a64f9"/>
      <path id="패스_7185" data-name="패스 7185" d="M347.145,174.366a4.3,4.3,0,0,0-5.587-3.461,4.359,4.359,0,0,0-2.6,1.242,4.89,4.89,0,0,0-.818,5.74,3.708,3.708,0,0,0,1.749,1.6,3.8,3.8,0,0,0,1.927.731C344.784,180.341,347.832,177.419,347.145,174.366Z" transform="translate(-328.093 -14.688)" fill="#e5f1e7"/>
      <path id="패스_7186" data-name="패스 7186" d="M397.015,183.039a2.369,2.369,0,0,0-3.914,2.277,1.839,1.839,0,0,0,2.749,1.233A2.016,2.016,0,0,0,397.015,183.039Z" transform="translate(-4.244 -169.392)" fill="#3a64f9"/>
      <path id="패스_7187" data-name="패스 7187" d="M373.222,182.681a3.745,3.745,0,0,0-4.494-.188c-2.9,1.848-2.564,6.5-.095,8.58,2.542,2.348,6.785.249,7.341-2.923A4.873,4.873,0,0,0,373.222,182.681Z" transform="translate(-348.666 -42.828)" fill="#e06fa5"/>
    </g>
    <g id="center_yellow-illust-2" data-name="center_yellow-illust" transform="translate(10596 866.927)" clip-path="url(#clip-path)">
      <g id="그룹_891" data-name="그룹 891" transform="translate(0.1 17.725)">
        <g id="그룹_883" data-name="그룹 883" transform="matrix(0.998, -0.07, 0.07, 0.998, 0, 18.857)">
          <path id="패스_7113" data-name="패스 7113" d="M127.147,37.627c.8-14.485-9.018-28.475-22.328-34.242S75.572-.466,62.989,6.751,41.034,26.018,35.282,39.334s-8.1,27.884-8.87,42.37-2.439,46.207-8.459,57.5C11.807,150.727,4,149.244.311,169.579c-1.6,8.818,3.111,24.355,10.444,29.506-2.545,4.158-1.225,10.009,2.41,13.255s9.057,4.033,13.753,2.724c2.947-.822,6.141-3.738,4.7-6.439a8.751,8.751,0,0,1-1.047-1.8c-.481-1.908,2.034-3,3.921-3.571a20.13,20.13,0,0,0,8.23-33.71c20.557-10.118,43.689-27.645,41.019-50.4C81.732,102.01,87.171,69.423,93.9,61.587,98.945,55.7,105,50.095,112.574,48.411c3.8-.844,7.9-.682,11.349-2.484S129.583,39.088,127.147,37.627Z" transform="translate(14.06 0)" fill="#4c342c"/>
          <path id="패스_7114" data-name="패스 7114" d="M44.445,23.031c-5.066-9.8-5.378-17.246-9.634-17.328-2.409-.045-3.116,2.6-3.06,4.634a25.015,25.015,0,0,0,.779,6.049C25.807,8.519,22.214-2.517,16.862.514c-3.777,2.137,1.287,11.765,3.28,15.491a33.984,33.984,0,0,0-6.419-9.138c-1-1.02-2.258-2.042-3.684-1.911A3.509,3.509,0,0,0,7.206,7.814a8.785,8.785,0,0,0,.406,4.242A40.2,40.2,0,0,0,10.9,20.151C9.325,17.4,4.193,11.409,1.73,12.974-.718,14.529-.188,17.362,1,21.085c9.8,30.8,37.151,68.572,49.858,77.392.39.271.633.765,1.1.86a2.086,2.086,0,0,0,1.3-.326,47.267,47.267,0,0,0,8.216-4.863,44.574,44.574,0,0,0,7.974-8.974c3.1-4.239,6.133-8.59,8.113-13.454S51.934,37.519,44.445,23.031Z" transform="translate(6.779 45.624)" fill="#f3d6c1"/>
          <path id="패스_7115" data-name="패스 7115" d="M43.084,72.752c7.108,8.434,9.062,15.628,13.23,14.766,2.357-.488,2.462-3.223,1.958-5.2a25.132,25.132,0,0,0-2.1-5.727c8.3,6.185,14.243,16.151,18.793,12.012,3.209-2.921-3.86-11.19-6.628-14.382a34,34,0,0,0,8.281,7.49c1.206.772,2.654,1.493,4.014,1.048a3.507,3.507,0,0,0,2.131-3.414A8.8,8.8,0,0,0,81.432,75.3a40.3,40.3,0,0,0-5-7.166c2.144,2.336,8.475,7.041,10.53,4.969s.9-4.7-1.08-8.072C69.513,37.166,34.478,6.385,20.135.595,19.695.417,19.35-.011,18.874,0a2.079,2.079,0,0,0-1.2.607,47.3,47.3,0,0,0-6.937,6.559A44.577,44.577,0,0,0,4.951,17.683C2.868,22.5.869,27.417.016,32.6S32.574,60.281,43.084,72.752Z" transform="translate(182.289 181.533)" fill="#f3d6c1"/>
          <path id="패스_7116" data-name="패스 7116" d="M67.1,40.034,37.838,1.2A2.718,2.718,0,0,0,36.459.04a2.62,2.62,0,0,0-1.821.467c-6.5,3.6-11.748,9.038-16.9,14.39C11.456,21.432,5.063,28.117,1.135,36.289A10.5,10.5,0,0,0,.046,39.508a9.3,9.3,0,0,0,.775,4.47,38.647,38.647,0,0,0,5.561,9.029c7.528,9.909,15.66,19.36,24.392,28.985a167.784,167.784,0,0,0-12.24,33.571c-.633,2.559-1.2,5.283-.4,7.795.847,2.659,3.077,4.612,5.286,6.314,9.135,7.04,19.566,12.219,30.216,16.639A259.392,259.392,0,0,0,96.57,159.9c13.855,3.092,33.855,5.528,46.161-1.548,1.346-11.62,0-22.253,0-32.992,8.058,6.063,17.5,16.271,18.175,15.7,17.983-15.215,26.127-41.019,25.846-42.128-1.058-4.184-25.06-32.142-47.294-38.57C115.686,53.491,76.182,52.086,67.1,40.034Z" transform="translate(39.557 94.903)" fill="#ec9ff7"/>
          <path id="패스_7117" data-name="패스 7117" d="M.025,0c-.2,5.261.733,10.7,3.546,15.146s7.712,7.76,12.976,7.81a15.574,15.574,0,0,0,10.761-4.574,23.108,23.108,0,0,0,5.876-10.3A73.394,73.394,0,0,1,.025,0Z" transform="translate(115.951 140.719)" fill="#f3d6c1"/>
          <path id="패스_7118" data-name="패스 7118" d="M38.007.049Q24.349,37.44,10.693,74.831a12.806,12.806,0,0,1-2.038,4.028c-2.57,3.019-7.94,3.824-8.6,7.734C-.386,89.23,1.823,91.6,4.181,92.859c3.44,1.838,7.423,2.323,11.307,2.69a264.928,264.928,0,0,0,30.207,1.119c4.461-.089,9.225-.4,12.786-3.085,2.707-2.044,4.323-5.184,5.815-8.232A443.932,443.932,0,0,0,87.944,26.8c.863-2.668,1.7-5.564.807-8.221-.858-2.549-3.131-4.326-5.362-5.827A75.287,75.287,0,0,0,38.007.049Z" transform="translate(0.85 284.8)" fill="#f3d6c1"/>
          <path id="패스_7119" data-name="패스 7119" d="M0,5.487Q6.892,40.55,15.437,75.259c.807,3.281,1.676,6.665,3.755,9.328,2.393,3.063,6.089,4.787,9.736,6.133a80.761,80.761,0,0,0,42.525,3.612,12.274,12.274,0,0,0,5.366-1.981,4.654,4.654,0,0,0,1.813-5.075c-.694-1.824-2.743-2.715-3.95-4.247A10.367,10.367,0,0,1,73,78.7C67.781,54.618,68.541,29.514,62.88,5.537a7.874,7.874,0,0,0-2.017-4.266C59.29-.118,56.952-.07,54.855.063,37.061,1.188,19.289,2.646,0,5.487Z" transform="translate(130.377 299.167)" fill="#f3d6c1"/>
          <path id="패스_7120" data-name="패스 7120" d="M92.192,0C88.8,13.882,73.161,49.584,50.078,60.176c-2.119.972-29.608,45.98-43.242,62.982-2.813,3.509-5.813,7.164-6.62,11.589-.847,4.643.9,9.422,3.485,13.369a33.58,33.58,0,0,0,31.544,14.6c1.716-.214,3.546-.548,5.11.192,1.95.922,2.811,3.164,3.7,5.13a32.2,32.2,0,0,0,46.282,14.11,29.785,29.785,0,0,0,51.031,1.655c6.81,4.164,14.859,6.777,22.777,5.751s18.942-8.682,21.446-16.263c-.743-14.63-17.377-80.274-17.377-80.274s-6.813-7.431-9.083-14.561c-5.177-16.26-7.113-44.373-4.94-57.315a3.748,3.748,0,0,0-.154-2.545,3.35,3.35,0,0,0-1.573-1.179c-3.042-1.395-8.316-3.084-12.8-1.055-2.048,10.488-1.969,19.76-6.019,29.425a12.618,12.618,0,0,1-5.339,5.849,23.2,23.2,0,0,1-7.246,2.738c-7.487,1.66-15.493-1.907-20.518-7.7a15.886,15.886,0,0,1-3.432-5.882c-.788-2.729-.5-5.639-.214-8.464.721-7.027,5.606-24.809,5.3-26.444C101.914,4.435,94.331-.077,92.192,0Z" transform="translate(13.025 133.808)" fill="#a46991"/>
          <path id="패스_7121" data-name="패스 7121" d="M36.107,1.374c-.111-.056-.226-.1-.34-.14l.028-.036c-.273-.117-.546-.231-.822-.342-.094-.039-.187-.073-.282-.108s-.164-.067-.248-.1-.15-.042-.226-.066l-.2-.056c-5.244-1.523-10.906.437-15.4,3.216-.782.5-1.321.838-1.74,1.067-.378.131-.758.259-1.131.395-.2,0-.393-.006-.59-.02-.335-.067-.66-.176-.989-.267C10.918,4.079,8.1,5.483,6.585,6.15A12.971,12.971,0,0,0,4.04,7.839a2.584,2.584,0,0,0-.435.374l.011-.02A15.237,15.237,0,0,0,2.326,9.5,12.764,12.764,0,0,0,.681,11.837a3.743,3.743,0,0,0-.652,2.256,1.8,1.8,0,0,0,.418,1.028,2.446,2.446,0,0,0,1.694,1.693,11.8,11.8,0,0,0,4.291-.565,194.034,194.034,0,0,0,19.9-6.461A55.34,55.34,0,0,0,31.96,7.7a25.166,25.166,0,0,1,3.331-1.521A2.626,2.626,0,0,0,36.107,1.374Z" transform="translate(108.277 26.983)" fill="#e0a3e5"/>
          <g id="그룹_881" data-name="그룹 881" transform="translate(73.718 27.85)">
            <path id="패스_7122" data-name="패스 7122" d="M88.538,3.321C84.466.529,79.286-.1,74.349.011A56.37,56.37,0,0,0,20.067,46.594C15.181,42.318,6.79,43.611,2.8,48.735s-3.563,12.926.326,18.126S13.792,74.673,20.156,75c6.469,17.685,21.507,32.277,39.713,37.084s39.061-.832,51.541-14.933c6.153.749,12.73.183,17.942-3.172s8.6-9.995,6.81-15.928c-1.967-6.5-9.672-10.124-15.295-8.133,1.481-13.405.637-27.311-4.495-39.785S99.567,10.88,88.538,3.321Z" transform="translate(0 11.864)" fill="#f3d6c1"/>
            <path id="패스_7123" data-name="패스 7123" d="M.4,57.427a34.426,34.426,0,0,1,5.673,6.728c4.841-1.1,26.89-16.146,31.592-41.138,5.209,14,38.013,49.04,61,47.174a72.747,72.747,0,0,0-.22,14.429c1.932-2.86,6.44-3.6,6.976-3.37,2.677-4.713,7.567-11.439,7.567-26.82,0-5.757-6.091-46.051-44.854-53.421C53.7-1.735,44.694,1.2,32.157,8.858a9.447,9.447,0,0,1-3.473,1.551,13.737,13.737,0,0,1-3.083-.147C18.365,9.667,11.983,15.149,8,21.22,1.451,31.188-1.061,43.725.4,57.427Z" transform="translate(18.224 0)" fill="#583c31"/>
            <path id="패스_7124" data-name="패스 7124" d="M.115,2.445A3.834,3.834,0,0,1,5.006.179,3.834,3.834,0,0,1,7.989,4.668,3.833,3.833,0,0,1,3.1,6.934,3.833,3.833,0,0,1,.115,2.445Z" transform="translate(65.34 69.589)" fill="#ca7273" opacity="0.68" style="mix-blend-mode: multiply;isolation: isolate"/>
            <g id="그룹_879" data-name="그룹 879" transform="translate(85.485 69.718)">
              <path id="패스_7125" data-name="패스 7125" d="M.138,3.946A4.953,4.953,0,0,1,6,.122,4.957,4.957,0,0,1,9.581,6.145,4.955,4.955,0,0,1,3.713,9.967,4.953,4.953,0,0,1,.138,3.946Z" transform="translate(0 0)" fill="#432831"/>
              <path id="패스_7126" data-name="패스 7126" d="M4.525.047A6.03,6.03,0,0,1,.013,1.192,4.009,4.009,0,0,0,.779,3.887a.555.555,0,0,0,.278.231.556.556,0,0,0,.3-.036,7.928,7.928,0,0,0,2.1-1.076A3.257,3.257,0,0,0,5.128.609.675.675,0,0,0,5,.153.39.39,0,0,0,4.525.047Z" transform="translate(7.825 1.645)" fill="#432831"/>
            </g>
            <g id="그룹_880" data-name="그룹 880" transform="translate(47.182 54.011)">
              <path id="패스_7127" data-name="패스 7127" d="M9.46,6.6A4.953,4.953,0,0,0,6.5.25,4.954,4.954,0,0,0,.281,3.473,4.953,4.953,0,0,0,3.244,9.819,4.952,4.952,0,0,0,9.46,6.6Z" transform="translate(0.814 1.951)" fill="#432831"/>
              <path id="패스_7128" data-name="패스 7128" d="M1.1.18A6.03,6.03,0,0,0,4.322,3.536,4,4,0,0,1,2.248,5.419a.541.541,0,0,1-.357.048.561.561,0,0,1-.239-.189A7.985,7.985,0,0,1,.44,3.257,3.26,3.26,0,0,1,.289.339.68.68,0,0,1,.635.018C.789-.03,1.036.017,1.1.18Z" transform="translate(0 0)" fill="#432831"/>
            </g>
            <path id="패스_7129" data-name="패스 7129" d="M1.55.592C2.973,13.274,14.844,20.805,26.3,13.761a.749.749,0,0,1,.942,1.151C15.785,25.456-1.207,15.743.068.719A.75.75,0,0,1,1.55.592Z" transform="translate(53.458 71.77)" fill="#432831"/>
            <ellipse id="타원_228" data-name="타원 228" cx="12.995" cy="13.256" rx="12.995" ry="13.256" transform="translate(24.604 68.749)" fill="#ca7273" opacity="0.68" style="mix-blend-mode: multiply;isolation: isolate"/>
            <ellipse id="타원_229" data-name="타원 229" cx="12.995" cy="13.256" rx="12.995" ry="13.256" transform="translate(78.966 88.551)" fill="#ca7273" opacity="0.68" style="mix-blend-mode: multiply;isolation: isolate"/>
            <path id="패스_7130" data-name="패스 7130" d="M12.857,2.954A7.182,7.182,0,0,0,6.688,0,10.17,10.17,0,0,0,1.65,1.921,4.815,4.815,0,0,0,.029,4.639C0,4.809,0,4.857.005,4.846a.841.841,0,0,0,1.253.78L1.285,5.6c1.1-.744,1.2-1.145,1.9-1.5A7.981,7.981,0,0,1,7.2,2.827c1.785.017,2.8.069,3.613.524.314.087.53.61,1.128.966A.841.841,0,0,0,12.857,2.954Z" transform="translate(117.913 87.542)" fill="#cb9480"/>
            <path id="패스_7131" data-name="패스 7131" d="M5.02.311A6.26,6.26,0,0,0,.43.567,1.1,1.1,0,0,0,1.391,2.5c2.173-.81,4.593,1.092,5.9,2.618a13.562,13.562,0,0,1,1.365,2.32c.331.805.162,1.507.505,1.944a.625.625,0,0,0,.972-.125C11.245,5.844,9.063,1.773,5.02.311Z" transform="translate(8.249 61.736)" fill="#cb9480"/>
          </g>
          <path id="패스_7132" data-name="패스 7132" d="M10.969.053c.122-.017.229-.028.323-.042A16.613,16.613,0,0,0,4.658,2.834,20.476,20.476,0,0,0,1.54,6.185,8.525,8.525,0,0,0,.022,8.619a1.247,1.247,0,0,0,2.3.8c1.36-2.25,4.209-5.177,6.066-5.637,1.541-.6,1.493-.608,3.178-1.209-.089.036-.144.059-.019.008l.12-.05a1.3,1.3,0,0,0,.75-.584A1.3,1.3,0,0,0,10.969.053Z" transform="translate(19.412 61.286)" fill="#cb9480"/>
          <path id="패스_7133" data-name="패스 7133" d="M58.112,15.721c.337-.265-.154.058-.31.114a14.728,14.728,0,0,1-1.342.668l-.017.006c-.072.016-.158.036-.271.065-.167.056-.339.1-.51.137a3.3,3.3,0,0,0-.5,0,1.722,1.722,0,0,0-.565.076c-.2.041-.537.094-.768.13l-.359.039-.028,0c-.378.022-.755-.013-1.131-.017l.621.084c-2.088-.279-4.241.229-6.355.186q-7.353.162-14.71.062a2.237,2.237,0,0,0-.041-.29h0l0-.006c-.012-.045-.03-.087-.045-.131-.17-.466-.384-.9-.044-.114a30.352,30.352,0,0,0-2.381-3.949,31.5,31.5,0,0,0-7.784-8.469c-3.368-2.726-7.751-5.03-12.2-4.1A12.676,12.676,0,0,0,6.951,1.32c-.513.337-1.273.5-1.457,1.159a.975.975,0,0,0,.331,1.033A1.184,1.184,0,0,0,6.7,4.736c1.713.354,2.053.32,3.124,1.036a6.413,6.413,0,0,1,1.986,1.835l.042.056a48.513,48.513,0,0,1,3.925,5.993,10.266,10.266,0,0,1,1.1,2.673c-2.332-.325-4.521-.736-7.9-1.3.676.087.618.092.009-.023C6.394,14.3,5.243,14.3,3.564,13.551c-.654-.278-.293-.345-1.849-1.4A1.238,1.238,0,0,0,.364,14.159C4.583,18.553,6.557,19.1,11.451,20.3c8.324,1.707,16.861,1.935,25.333,1.908,4.977-.039,9.967.022,14.929-.423a4.59,4.59,0,0,0,1.376-.3,11.905,11.905,0,0,0,1.375-.546,13.477,13.477,0,0,0,1.687-.819l.022-.009.023-.019a1.53,1.53,0,0,0,.247-.19,2.908,2.908,0,0,0,.491-.543c.236-.2.463-.407.691-.613a15.631,15.631,0,0,0,1.549-1.192c.454-.582.524-.348.654-1.117A1.014,1.014,0,0,0,58.112,15.721ZM17.77,9.426C16.191,7.414,14.6,5.274,12.409,3.89A10.277,10.277,0,0,0,9.236,2.634a3.1,3.1,0,0,1,.559-.145A9.913,9.913,0,0,1,14.15,3.2h0a19.71,19.71,0,0,1,2.677,1.423c.254.173.509.349.758.529l.084.067c.034.027.069.052.1.078-.055-.042.092.076.3.243,3.81,3.108,5.782,5.163,7.876,9.174a26.726,26.726,0,0,1,1.184,2.456c-2.293-.1-4.128-.217-5.7-.343.011-.08.03-.159.034-.239C21.1,13.86,19.325,11.6,17.77,9.426Z" transform="translate(0 362.091)" fill="#a46991"/>
          <path id="패스_7134" data-name="패스 7134" d="M1.825,6.552c-.279-.326.14.086.282.173a14.371,14.371,0,0,0,1.187.914l.014.009c.067.03.148.067.254.117.153.089.314.161.473.234a3.456,3.456,0,0,1,.488.1,1.657,1.657,0,0,1,.538.184c.19.08.509.2.729.275.114.037.229.075.345.109l.027,0c.367.1.744.136,1.114.2l-.627-.039c2.1.133,4.117,1.05,6.2,1.418q7.18,1.589,14.418,2.919a1.926,1.926,0,0,1,.1-.276l0,0,0-.008c.022-.041.047-.08.072-.119.256-.424.551-.81.064-.1a30.645,30.645,0,0,1,3.1-3.412,31.531,31.531,0,0,1,9.283-6.793C43.716.445,48.464-.963,52.644.807a12.791,12.791,0,0,1,2.166,1.563c.438.431,1.15.741,1.2,1.42a.974.974,0,0,1-.526.95,1.184,1.184,0,0,1-1.094,1.03c-1.749.014-2.077-.084-3.266.409a6.4,6.4,0,0,0-2.3,1.414l-.051.048a48.242,48.242,0,0,0-5.016,5.116,10.237,10.237,0,0,0-1.6,2.406c2.351.134,4.579.156,8,.264-.679-.047-.623-.03,0-.025,2.682-.189,3.813.034,5.6-.376.7-.145.357-.281,2.086-1.011a1.238,1.238,0,0,1,.936,2.231c-4.993,3.49-7.035,3.642-12.07,3.866-8.5.056-16.916-1.379-25.219-3.052-4.876-1.006-9.781-1.916-14.563-3.317a4.627,4.627,0,0,1-1.292-.563,12,12,0,0,1-1.242-.8,13.493,13.493,0,0,1-1.5-1.131l-.019-.014-.019-.022a1.454,1.454,0,0,1-.2-.236,2.841,2.841,0,0,1-.378-.627c-.192-.242-.376-.49-.559-.736A15.311,15.311,0,0,1,.427,8.139C.095,7.48-.019,7.7,0,6.917A1.015,1.015,0,0,1,1.825,6.552Zm40.8,1.666c1.941-1.665,3.919-3.456,6.334-4.387a10.242,10.242,0,0,1,3.358-.615,3.087,3.087,0,0,0-.52-.251,9.934,9.934,0,0,0-4.411-.154h0a19.788,19.788,0,0,0-2.9.875c-.284.12-.566.243-.847.373l-.1.048c-.037.02-.076.037-.114.056.062-.03-.106.058-.342.181-4.342,2.308-6.676,3.939-9.511,7.469a26.6,26.6,0,0,0-1.638,2.178c2.27.343,4.092.59,5.657.771,0-.08,0-.162.014-.24C38.5,11.921,40.672,10.052,42.621,8.218Z" transform="translate(149.134 376.491)" fill="#a46991"/>
          <path id="패스_7135" data-name="패스 7135" d="M6.518,3.966c-1.971-1.02-2.582-2.24-4.7-3.84A1.314,1.314,0,0,0,.385,2.258,21.79,21.79,0,0,0,5.346,6.6,1.445,1.445,0,1,0,6.518,3.966Z" transform="translate(28.08 327.232)" fill="#cb9480"/>
          <path id="패스_7136" data-name="패스 7136" d="M3.128.644A19.037,19.037,0,0,1,.791,3.873c-.47.521-1.05,1.206-.666,1.938A1.327,1.327,0,0,0,1.7,6.585c.7-.215,1.066-.927,1.532-1.435A13.693,13.693,0,0,0,5.59,1.494,1.333,1.333,0,0,0,3.128.644Z" transform="translate(190.347 340.457)" fill="#cb9480"/>
          <path id="패스_7137" data-name="패스 7137" d="M2.456.472a.974.974,0,0,0-1.669,0,9.479,9.479,0,0,0-.715.974c-.424,1.212,1.142,1.738,1.779.7C2.289,1.7,2.857,1.121,2.456.472Z" transform="translate(192.519 346.432)" fill="#cb9480"/>
          <g id="그룹_882" data-name="그룹 882" transform="translate(106.047 10.882)">
            <path id="패스_7138" data-name="패스 7138" d="M0,.03A.388.388,0,0,0,.08,0C.053.012.025.017,0,.03Z" transform="translate(20.139 22.975)" fill="#ec9ff7"/>
            <path id="패스_7139" data-name="패스 7139" d="M31.828,1.293C29.4-.651,26.112-.258,23.7,1.51A12.487,12.487,0,0,0,19.849,5.9a29.616,29.616,0,0,0-2.763,7.489A15.163,15.163,0,0,0,11,7.741C4.193,4.627-3.157,8.747,1.425,16.35c3.1,6.083,11.3,7.361,15.454,6.543l.028-.008a1.958,1.958,0,0,0,1.2-.011,1.858,1.858,0,0,0,.393.186A2.319,2.319,0,0,0,20.139,23c-.075.02-.19.05-.293.081a16.655,16.655,0,0,0,1.958-.779,25.485,25.485,0,0,0,8.238-6.16,14.041,14.041,0,0,0,4.119-7.682C34.521,5.906,33.932,2.972,31.828,1.293ZM5.243,15.124a15.129,15.129,0,0,1-.911-1.64c-.076-.168-.153-.368-.2-.5a4.3,4.3,0,0,1-.142-.64c0-.028,0-.056-.008-.084,0-.108.008-.25.023-.4l.017-.106c.749-1.733,5.791-1.555,8.815,2.351a12.8,12.8,0,0,1,2.816,4.746c-1.518.072-3.674.273-5.189-.289C7.861,17.655,6.868,17.183,5.243,15.124ZM29.655,8.548c-1,2.657-2.181,4.178-6.132,7.494a14.54,14.54,0,0,1-3.638,2.166c.8-4.418,1.556-8.186,4.133-11.639C27.511,2.308,31,3.836,29.655,8.548Z" transform="translate(0 0)" fill="#ec9ff7"/>
          </g>
        </g>
        <g id="그룹_890" data-name="그룹 890" transform="translate(204.017 15.533)">
          <path id="패스_7140" data-name="패스 7140" d="M185.183,310.2c-10.524,23.2-19.769,47.171-24.771,72.214a29.538,29.538,0,0,0-.794,8.834,3.8,3.8,0,0,0,1.208,2.763,2.834,2.834,0,0,0,3.543-.574,10.745,10.745,0,0,0,1.974-3.933c-.275,3.223.019,6.036,2.54,6.667,2.326.58,2.757-2.44,4.287-5.768-.437,4.648.515,6.024,1.8,6.547,2.635,1.073,3.258-3.456,3.754-5.281,4.016-14.758,9.973-26.347,12.533-41.439,1.192-7.035,2.231-14.121,4.233-20.964,1.378-4.712,3.208-9.289,4.33-14.073a3.735,3.735,0,0,0-.023-2.5,3.371,3.371,0,0,0-1.532-1.332C195.015,309.633,191.168,309.115,185.183,310.2Z" transform="translate(-154.571 -129.287)" fill="#cea384"/>
          <g id="그룹_886" data-name="그룹 886" transform="translate(0 307.802)">
            <g id="그룹_884" data-name="그룹 884">
              <path id="패스_7141" data-name="패스 7141" d="M217.99,403.3a266.088,266.088,0,0,1-39.83-11.971q-5.614,20.14-11.985,40.059a136,136,0,0,0,40.982,10.293Q212.906,422.583,217.99,403.3Z" transform="translate(-150.846 -391.325)" fill="#cea384"/>
              <path id="패스_7142" data-name="패스 7142" d="M168.752,423.267A17.584,17.584,0,0,1,166.6,428.1c-2.158,3.022-5.954,4.386-8.639,6.951a4.694,4.694,0,0,0-1.579,2.6c-.376,2.62,2.684,4.272,5.214,5.046a161.731,161.731,0,0,0,38.12,6.79c1.613.09,3.387.108,4.64-.91a6.747,6.747,0,0,0,1.838-3.331q2.2-6.822,4.306-13.672a141.775,141.775,0,0,1-41.347-9.548C169.019,422.437,168.888,422.854,168.752,423.267Z" transform="translate(-156.35 -374.129)" fill="#221b1c"/>
              <path id="패스_7143" data-name="패스 7143" d="M167.08,417q-1.25,3.92-2.524,7.834a141.775,141.775,0,0,0,41.347,9.548q1.091-3.541,2.159-7.09A136,136,0,0,1,167.08,417Z" transform="translate(-151.753 -376.941)" fill="#75b9fc"/>
            </g>
            <path id="패스_7144" data-name="패스 7144" d="M175.147,431.065a1.515,1.515,0,0,0-.231-.507c-.03-.045-.07-.1-.122-.176a4.178,4.178,0,0,0-1.047-.758,28.686,28.686,0,0,0-9.946-3.192c-1.059-.179-2.117-.373-3.187-.47a.754.754,0,0,0-.106,1.5c3.119.518,8.105,1.967,10.573,3.535a16.652,16.652,0,0,0,2.328,1.431,1.3,1.3,0,0,0,.4.1l.016,0-.008,0a1.224,1.224,0,0,0,.337-.013A1.259,1.259,0,0,0,175.147,431.065Z" transform="translate(-154.41 -371.923)" fill="#dedede"/>
            <path id="패스_7145" data-name="패스 7145" d="M177.927,428.33c-2.311-2.049-7.069-3.587-10.594-4.447-1.843-.345-3.861-.963-5.7-.415a.693.693,0,0,0,.5,1.258c4.261-.242,11.26,2.59,14.686,4.6.145.081.3.151.446.226l-.1-.056a.51.51,0,0,0,.217.089A.7.7,0,0,0,177.927,428.33Z" transform="translate(-153.568 -373.441)" fill="#dedede"/>
            <g id="그룹_885" data-name="그룹 885" transform="translate(4.482 39.125)">
              <path id="패스_7146" data-name="패스 7146" d="M160.588,423.278l.053.083,0,0c-.016-.023-.042-.066-.073-.112l.014.022Z" transform="translate(-158.47 -412.569)" fill="#fff"/>
              <path id="패스_7147" data-name="패스 7147" d="M181.955,435.46c-2.747-.08-5.021-.261-7.445-2.571-.591-.725-1.969-2.109-2.258-3.239-.011-.041-.017-.083-.026-.125a28.473,28.473,0,0,0,7.185-.833c2.827-.774,4.7-1.588,5.991-3.886.928-1.618,1.24-5.561-2.214-6.643-2.442-.874-5.018.133-7.038,1.551a16.068,16.068,0,0,0-4.715,4.866A7.956,7.956,0,0,0,170,421.891a20.629,20.629,0,0,0-3.72-3.757c-1.233-.958-2.74-1.892-4.361-1.708A2.161,2.161,0,0,0,160,418.346c-.215,2.629,1.236,4.9,3.373,6.67a19.392,19.392,0,0,0,4.646,3.1,8.034,8.034,0,0,1-6.372-.66l-.064-.051c-.1-.1-.184-.211-.189-.212l.006.011,0-.006.006.009-.059-.092-.066-.1.044.067a1.1,1.1,0,0,0-1.98.975c1.3,2.375,4.447,2.854,6.921,2.857a8.792,8.792,0,0,0,3.822-1.108c.693,3.64,4.01,6.618,7.528,7.564a6.747,6.747,0,0,0,4.521-.389A.854.854,0,0,0,181.955,435.46Zm-6.643-11.6c.931-1.253,4.361-4.135,6.03-3.994,1.772-.117,2.78.4,2.989,1.385a3.065,3.065,0,0,1-.977,2.991,5.235,5.235,0,0,1-.769.58.427.427,0,0,0-.062.041c-.031.02-.039.027,0,0,0,.008.008.008.037,0a3.236,3.236,0,0,0-.424.245,11.234,11.234,0,0,1-4.551,1.481,28.711,28.711,0,0,1-4.55.446A22.388,22.388,0,0,1,175.312,423.855Zm-5.843,2.464a29.488,29.488,0,0,1-4.4-2.529c-2.215-1.32-3.821-2.961-3.7-5.2l0-.008a.332.332,0,0,1,.047-.128c.023-.033.087-.13.1-.151l.017-.022.119-.086a1.6,1.6,0,0,1,1.125-.147,10.1,10.1,0,0,1,3.877,2.546,12.43,12.43,0,0,1,3.053,4.038,11.271,11.271,0,0,1,.448,1.964A5.5,5.5,0,0,1,169.469,426.319Z" transform="translate(-159.222 -416.402)" fill="#fff"/>
            </g>
          </g>
          <g id="그룹_889" data-name="그룹 889" transform="translate(108.434 316.254)">
            <g id="그룹_887" data-name="그룹 887" transform="translate(3.518)">
              <path id="패스_7148" data-name="패스 7148" d="M269.357,396.742a265.978,265.978,0,0,1-41.252,5.3q3.08,20.681,5.378,41.467a135.927,135.927,0,0,0,41.62-7.3Q272.573,416.425,269.357,396.742Z" transform="translate(-228.105 -396.742)" fill="#cea384"/>
              <path id="패스_7149" data-name="패스 7149" d="M234.2,436.178a17.535,17.535,0,0,1,0,5.291c-.74,3.64-3.649,6.433-5.057,9.868a4.7,4.7,0,0,0-.384,3.016c.724,2.545,4.192,2.807,6.818,2.481a161.685,161.685,0,0,0,37.579-9.332c1.509-.574,3.136-1.282,3.866-2.721a6.753,6.753,0,0,0,.321-3.791q-.775-7.124-1.64-14.24a141.735,141.735,0,0,1-41.648,8.127C234.11,435.311,234.161,435.745,234.2,436.178Z" transform="translate(-227.799 -379.932)" fill="#221b1c"/>
              <path id="패스_7150" data-name="패스 7150" d="M231.552,429.336q.456,4.091.888,8.182a141.732,141.732,0,0,0,41.648-8.127q-.445-3.679-.916-7.355A135.93,135.93,0,0,1,231.552,429.336Z" transform="translate(-226.174 -382.573)" fill="#75b9fc"/>
            </g>
            <path id="패스_7151" data-name="패스 7151" d="M245.393,436.784a1.509,1.509,0,0,0-.417-.368c-.047-.03-.106-.066-.184-.111a4.091,4.091,0,0,0-1.265-.267,28.689,28.689,0,0,0-10.383,1.137c-1.039.267-2.084.523-3.1.871a.754.754,0,0,0,.515,1.417c3.06-.8,8.2-1.507,11.1-1.081a16.58,16.58,0,0,0,2.708.359,1.266,1.266,0,0,0,.41-.072l.016,0-.008,0a1.3,1.3,0,0,0,.3-.148A1.259,1.259,0,0,0,245.393,436.784Z" transform="translate(-223.782 -374.798)" fill="#dedede"/>
            <path id="패스_7152" data-name="패스 7152" d="M246.811,433.215c-2.946-.928-7.918-.395-11.486.256-1.824.437-3.918.694-5.378,1.946a.693.693,0,0,0,.972.944c3.793-1.956,11.338-2.223,15.288-1.78.165.016.334.017.5.025-.058-.006-.084-.008-.114-.009a.539.539,0,0,0,.234-.009A.7.7,0,0,0,246.811,433.215Z" transform="translate(-223.624 -376.589)" fill="#dedede"/>
            <g id="그룹_888" data-name="그룹 888" transform="translate(0 42.139)">
              <path id="패스_7153" data-name="패스 7153" d="M229.009,434.724l.083.055,0,0-.112-.073.022.016Z" transform="translate(-224.1 -417.617)" fill="#fff"/>
              <path id="패스_7154" data-name="패스 7154" d="M252.988,440.083c-2.542,1.045-4.693,1.808-7.848.683-.836-.421-2.659-1.123-3.381-2.036-.028-.033-.05-.07-.076-.1a28.46,28.46,0,0,0,6.222-3.688c2.267-1.86,3.645-3.365,3.888-5.991.187-1.855-1.134-5.584-4.729-5.164-2.587.2-4.528,2.166-5.795,4.284a16.046,16.046,0,0,0-2.323,6.364,7.97,7.97,0,0,0-2.407-1.869,20.7,20.7,0,0,0-4.929-1.916c-1.515-.371-3.272-.611-4.677.219a2.16,2.16,0,0,0-.972,2.535c.875,2.49,3.125,3.974,5.8,4.716a19.417,19.417,0,0,0,5.506.936,8.043,8.043,0,0,1-6.088,1.994l-.08-.022c-.13-.05-.253-.117-.259-.117l.011.008-.006,0,.008.006-.09-.061-.1-.066.067.042a1.1,1.1,0,0,0-1.41,1.7c2.153,1.64,5.222.8,7.484-.211a8.8,8.8,0,0,0,3.039-2.57c2.114,3.042,6.359,4.411,9.957,3.84a6.734,6.734,0,0,0,3.969-2.2A.853.853,0,0,0,252.988,440.083Zm-10.8-7.891c.34-1.524,2.3-5.553,3.879-6.105,1.573-.828,2.7-.771,3.3.048a3.061,3.061,0,0,1,.326,3.128,5.164,5.164,0,0,1-.465.844.364.364,0,0,0-.041.062c-.02.031-.025.039,0,0,0,.008.009,0,.033-.017a3.066,3.066,0,0,0-.287.4,11.247,11.247,0,0,1-3.553,3.2,28.822,28.822,0,0,1-3.974,2.261A22.441,22.441,0,0,1,242.191,432.192Zm-4.333,4.631a29.522,29.522,0,0,1-5.049-.515c-2.562-.3-4.7-1.148-5.5-3.244,0,0,0,0,0-.009a.33.33,0,0,1-.009-.136c.008-.039.027-.154.034-.181l.006-.026c.023-.039.055-.1.073-.128a1.614,1.614,0,0,1,.969-.593,10.125,10.125,0,0,1,4.578.746,12.459,12.459,0,0,1,4.434,2.445,11.063,11.063,0,0,1,1.208,1.61A5.124,5.124,0,0,1,237.859,436.822Z" transform="translate(-225.85 -423.751)" fill="#fff"/>
            </g>
          </g>
          <path id="패스_7155" data-name="패스 7155" d="M179.512,352.652c-6.855,19.652-13.756,39.49-16.265,60.153a6.75,6.75,0,0,0,.184,3.4,6.406,6.406,0,0,0,2.623,2.663c6.568,4.3,14.17,6.728,21.763,8.714a229.258,229.258,0,0,0,33.427,6.135c1.293.139,2.791.2,3.68-.752a4.309,4.309,0,0,0,.858-2.549q2.172-19.558,4.266-39.122l11.151,1.579q.887,17.049,1.774,34.1a6.845,6.845,0,0,0,.919,3.715,5.516,5.516,0,0,0,2.958,1.963c47.65,13.79,80.088-2.606,78.673-9.267a326.315,326.315,0,0,1-6.823-64.307C299.174,364.772,252.958,380.67,179.512,352.652Z" transform="translate(-152.556 -105.187)" fill="#5a738c"/>
          <path id="패스_7156" data-name="패스 7156" d="M255.148,284.707a43.441,43.441,0,0,1,31.088,6.659c8.378,5.61,14.56,14.054,18.888,23.161s6.932,18.925,9.339,28.719c3.91,15.912,7.364,31.951,9.693,48.171a8.713,8.713,0,0,1-.041,3.9,7.55,7.55,0,0,1-2.646,3.348,39.126,39.126,0,0,1-9,5.211C299.8,409.453,285.9,411.7,272.1,412.855c-33.539,2.793-68.113-.818-98.818-14.6a4.288,4.288,0,0,1-2.144-1.587,4.344,4.344,0,0,1-.122-2.936A367.279,367.279,0,0,1,185,342.314a59.125,59.125,0,0,1-11.372-13.625,4.727,4.727,0,0,1-.769-1.83,4.817,4.817,0,0,1,.679-2.595,109.311,109.311,0,0,1,18.573-27.1c4.826-5.16,10.261-9.918,16.707-12.808s14.042-3.743,20.162-.378C237.875,285.064,246.841,286.117,255.148,284.707Z" transform="translate(-148.244 -144.88)" fill="#75b9fc"/>
          <path id="패스_7157" data-name="패스 7157" d="M207.793,279.99c-.922,3.883-1.8,8.172.061,11.7,1.654,3.136,5.1,4.888,8.487,5.935a19.366,19.366,0,0,0,6.512,1.017,14.809,14.809,0,0,0,10.185-4.986,18.719,18.719,0,0,0,4.5-10.534A117.577,117.577,0,0,1,207.793,279.99Z" transform="translate(-128.112 -145.892)" fill="#cea384"/>
          <path id="패스_7158" data-name="패스 7158" d="M260.4,211.277c-13.232-7.409-30.516-4.406-42.9,4.345s-20.548,22.311-26.461,36.276c-4.234,10-7.542,20.805-6.288,31.594,1.506,12.945,9.573,24.49,19.889,32.454,11.41,8.809,25.856,11.623,40.261,11.091s35.061-10.536,44.909-21.06c8.932,5.677,17.78,4.056,25.907-2.724,3.554-2.963,13.809-19.763-1.571-30.914-5.732-4.156-12.906-2.566-19.1.963,1.086-14.2-.747-29.1-8.324-41.163C280.78,222.68,270.673,217.028,260.4,211.277Z" transform="translate(-140.588 -186.734)" fill="#cea384"/>
          <path id="패스_7159" data-name="패스 7159" d="M300.294,234.209c.711-6.152-1.576-12.405-5.353-17.312s-8.948-8.587-14.407-11.513a59,59,0,0,0-19.552-6.656c-9.14-1.279-18.41.067-27.617.713s-18.821.509-27.152-3.462a19.673,19.673,0,0,0-4.437-1.816,4.724,4.724,0,0,0-4.447,1.147c-2.033,2.267-.212,5.866,1.928,8.032a31.394,31.394,0,0,0,8.436,6.077,34.2,34.2,0,0,0-13.611,4.927c-1.9,1.192-3.807,2.777-4.213,4.979-.435,2.348,1.019,4.682,2.875,6.183s4.11,2.417,6.127,3.695c-2.028.153-3.128,2.749-2.467,4.671s2.457,3.209,4.241,4.186c6.28,3.439,13.606,4.637,20.762,4.389s13.518-1.738,21.356-3.969c-5.752,3.847-5.035,6.77-3.882,8.205a9.444,9.444,0,0,0,4.688,2.768c6.408,2.011,14.4.878,21.2-2.326-8.784,7.146,3.7,13.516,17.457,9.436a53.024,53.024,0,0,0,4.465,28.733c5.585-6.428,15.923-9.773,23.225-6.456,3.212-8.055,5.963-16.409,6.62-25.057.256-3.376.228-6.063-1.014-9.213C313.326,239,307.321,235.177,300.294,234.209Z" transform="translate(-137.616 -194.04)" fill="#2d2b36"/>
          <path id="패스_7160" data-name="패스 7160" d="M264.751,220.234a22.451,22.451,0,0,0,2.822-4.791,7.55,7.55,0,0,0,.184-5.445,3.1,3.1,0,0,0-1.854-1.927,2.891,2.891,0,0,0-3.173,1.777,8.387,8.387,0,0,0-.456,3.9C262.372,216.074,262.542,218.589,264.751,220.234Z" transform="translate(-97.029 -186.225)" fill="#2d2b36"/>
          <path id="패스_7161" data-name="패스 7161" d="M265.3,220.028c3.033-3.915,7.628-7.217,12.549-6.657,1.693.193,3.551,1.092,3.9,2.76.334,1.582-.857,3.106-2.219,3.974a11.218,11.218,0,0,1-6.71,1.523A39.077,39.077,0,0,1,265.3,220.028Z" transform="translate(-95.315 -183.247)" fill="#2d2b36"/>
          <ellipse id="타원_230" data-name="타원 230" cx="39.015" cy="37.711" rx="39.015" ry="37.711" transform="translate(96.012 182.299)" fill="#ffd85a"/>
          <path id="패스_7162" data-name="패스 7162" d="M274.484,258.377c-6.066-6.869-17.961-1.994-20.32,4.376-.477,1.18-.972,2.726.725,2.971a1.169,1.169,0,0,0,.858-.4l-.022.036c.017-.017.027-.039.042-.056a1.277,1.277,0,0,0,.145-.2c.13-.2.245-.4.36-.605a9.406,9.406,0,0,1,2.517-3.234c3.2-3.008,8.342-4.326,12.063-3,.267.161,1.181.688,1.415.853.463.231.473.52,1.13.877A.994.994,0,0,0,274.484,258.377Z" transform="translate(-101.81 -159.869)" fill="#5e3937"/>
          <path id="패스_7163" data-name="패스 7163" d="M198.613,239.386a4.735,4.735,0,1,1,2.757,6.437A4.963,4.963,0,0,1,198.613,239.386Z" transform="translate(-132.849 -170.647)" fill="#2e2327"/>
          <path id="패스_7164" data-name="패스 7164" d="M260.685,320.719c3.312,5.479,5.426,11.876,4.851,18.253s-4.317,10.218-9.912,13.329c-5.8,3.223-10.026,3.281-11.179,5.908-1.234,2.808,5.812,5.121,8.306,4.464-6.609,4.239-8.53,4.729-10.822,6.2-3.035,1.946-1.662,4.985-.011,5.743s3.98.15,7.72-1.289c-2.37,1.655-4.192,2.446-4.855,3.219a2.682,2.682,0,0,0-.548,2.829,3.531,3.531,0,0,0,2.869,1.546,14.526,14.526,0,0,0,6.161-.535c-1.356.928-4.375,2.306-3.691,4.075,2.474,6.419,23.752,3.928,35.961-12.7,13.677-18.627,15.307-50.215-2.819-71.869C277.78,305.678,266.993,315.492,260.685,320.719Z" transform="translate(-109.416 -134.746)" fill="#cea384"/>
          <ellipse id="타원_231" data-name="타원 231" cx="12.806" cy="13.07" rx="12.806" ry="13.07" transform="translate(43.898 76.245)" fill="#8c3c42" opacity="0.251" style="mix-blend-mode: multiply;isolation: isolate"/>
          <path id="패스_7165" data-name="패스 7165" d="M224.3,246.8a4.735,4.735,0,1,1,2.757,6.436A4.963,4.963,0,0,1,224.3,246.8Z" transform="translate(-118.463 -166.493)" fill="#2e2327"/>
          <path id="패스_7166" data-name="패스 7166" d="M229.218,283.423c4.757.047,23.464-4.69,39.551,4.629,8.071,4.676,25.049,19.537,28.542,31.992.17.607-17.881,10.62-34.047,15.176-2.709.763-13.479-12.837-16.78-16.529A73.6,73.6,0,0,1,229.218,283.423Z" transform="translate(-115.53 -144.62)" fill="#75b9fc"/>
          <path id="패스_7167" data-name="패스 7167" d="M208.5,244.638c.554-1.935,2.882-2.966,5.2-2.3s3.751,2.768,3.2,4.7-2.882,2.964-5.2,2.3S207.951,246.573,208.5,244.638Z" transform="translate(-127.2 -167.098)" fill="#5f3326"/>
          <path id="패스_7168" data-name="패스 7168" d="M240.565,263.8c-.044-1.73-1.092-6.171-9.021-7-3.813-.4-13.5,2.409-20.607-3.59a41.082,41.082,0,0,0-4.113-3.206,6.117,6.117,0,0,0-4.94-1.064,5.124,5.124,0,0,0-2.96,2.621,9.875,9.875,0,0,0-.953,3.919,19.121,19.121,0,0,0,10.953,18.193,27.67,27.67,0,0,0,7.347,1.972,34.418,34.418,0,0,0,10.773.084,20.115,20.115,0,0,0,9.756-4.364A10.039,10.039,0,0,0,240.565,263.8Z" transform="translate(-133.053 -163.382)" fill="#fff"/>
          <ellipse id="타원_232" data-name="타원 232" cx="14.585" cy="14.585" rx="14.585" ry="14.585" transform="translate(106.894 116.682) rotate(-76.663)" fill="#8c3c42" opacity="0.251" style="mix-blend-mode: multiply;isolation: isolate"/>
          <path id="패스_7169" data-name="패스 7169" d="M198.18,299.484a119.127,119.127,0,0,0-7.946,17.7c-2.445,6.44-4.8,12.8-7.163,19.624-3.028,8.98-6.111,17.962-8.581,27.115-1.4,6.7-3.278,13.926-4.046,20.337a.747.747,0,0,0,1.256.654c.339-.431.217-.783.373-1.385,2.637-11.929,6.13-23.654,9.918-35.268q5.7-18.521,11.89-36.888a69.608,69.608,0,0,1,3.6-8.5c.39-1.009,1.379-2.329,1.524-3.283A.456.456,0,0,0,198.18,299.484Z" transform="translate(-148.463 -135.094)" fill="#709bc8"/>
          <path id="패스_7170" data-name="패스 7170" d="M286.847,312.89a.824.824,0,0,0-.986.108c-.044.033.067-.053.092-.072-.023.014-.048.031-.072.048-.523.356-1.072.671-1.605,1.008a80.3,80.3,0,0,1-10.265,5.459c-3.228,1.429-5.481,2.137-8.977,3.656-2.886,1.256-4.643,2.276-7.149,2.18-2.754-.217-8.316-7.767-11.945-12.313-.925-1.336-4.262-6.328-5.384-9.2-.384-.829-.833-2.2-1.417-3.73a1.055,1.055,0,1,0-2.044.523,54.037,54.037,0,0,0,10.895,19.872c2.359,2.791,4.76,5.852,8.2,7.341,3.5,1.136,6.915-1.038,9.995-2.462,3.862-1.751,7.877-3.158,11.642-5.122a56.632,56.632,0,0,0,7.759-4.911C286.271,314.691,288.029,313.844,286.847,312.89Z" transform="translate(-111.139 -135.107)" fill="#709bc8"/>
          <path id="패스_7171" data-name="패스 7171" d="M207.941,251.053c-2.679,3.359-5.564,6.542-8.289,9.859-.261.339-.841.847-.3,1.209.448.25.7-.289.946-.566,1.585-1.96,3.27-3.837,4.894-5.763,1.147-1.423,2.306-2.849,3.435-4.278A.421.421,0,0,0,207.941,251.053Z" transform="translate(-132.386 -162.171)" fill="#6f6864"/>
          <path id="패스_7172" data-name="패스 7172" d="M212.306,253.964a.527.527,0,0,0-.955-.125c-2.063,5.261-3.879,10.672-5.509,16.07.1.509.747.359.779-.12,1.57-4.237,3.136-8.476,4.587-12.759.253-.736.719-1.938.866-2.258C212.166,254.509,212.387,254.258,212.306,253.964Z" transform="translate(-128.625 -160.682)" fill="#6f6864"/>
          <path id="패스_7173" data-name="패스 7173" d="M215.626,258.335c-.064-1.114-.115-2.229-.125-3.345a.462.462,0,0,0-.924,0c.059,3.412.415,6.81.591,10.218a64.188,64.188,0,0,0,.479,6.664.435.435,0,0,0,.736-.306C216.14,267.155,215.941,262.741,215.626,258.335Z" transform="translate(-123.731 -160.154)" fill="#6f6864"/>
          <path id="패스_7174" data-name="패스 7174" d="M223.1,264.067c-.431-1.8-.788-3.618-1.222-5.417a45.43,45.43,0,0,0-1.548-4.312.382.382,0,0,0-.668.332,37.98,37.98,0,0,1,2.022,7.514,40.821,40.821,0,0,1,1.387,5.9c.016.339.646.354.619-.084A14.268,14.268,0,0,0,223.1,264.067Z" transform="translate(-120.893 -160.346)" fill="#6f6864"/>
        </g>
      </g>
    </g>
  </g>
</svg>
