<svg id="center_blue-illust" xmlns="http://www.w3.org/2000/svg" xmlns:xlink="http://www.w3.org/1999/xlink" width="399.692" height="318.838" viewBox="0 0 399.692 318.838">
  <defs>
    <clipPath id="clip-path">
      <rect id="사각형_139" data-name="사각형 139" width="390.862" height="122.869" fill="none"/>
    </clipPath>
  </defs>
  <path id="패스_7001" data-name="패스 7001" d="M140.027,291.559l4.861,8.888,8.888,4.861-8.888,4.861-4.861,8.888-4.861-8.888-8.888-4.861,8.888-4.861Z" transform="translate(-111.633 -244.381)" fill="#fff"/>
  <path id="패스_7000" data-name="패스 7000" d="M123.505,325.941C100.561,324.365,98.029,346.6,98.029,346.6s-13.5-7.436-21.207,5.1c0,0-13.254-3.478-13.254,7.058s14.665,5.576,14.665,5.576,8.676,12.762,20.967,1.166c0,0,11.429,14.016,24.305-1.579,0,0,12.049,11.878,23.514.827,0,0,17.247,3.409,18.59-4.958s-10.947-7.332-10.947-7.332,3.1-14.253-16.216-12.5C138.446,339.953,139.032,327.008,123.505,325.941Z" transform="translate(-51.484 -221.001)" fill="#fff"/>
  <path id="패스_6998" data-name="패스 6998" d="M142.652,291.559l5.789,10.585,10.585,5.789-10.585,5.789-5.789,10.585-5.789-10.585-10.585-5.789,10.585-5.789Z" transform="translate(198.672 -205.311)" fill="#fff"/>
  <path id="패스_7002" data-name="패스 7002" d="M134.538,291.559l2.921,5.34,5.34,2.921-5.34,2.92-2.921,5.34-2.92-5.34-5.34-2.92,5.34-2.921Z" transform="translate(220.809 -172.562)" fill="#fff"/>
  <g id="그룹_865" data-name="그룹 865" transform="translate(4.733 180.462)">
    <g id="그룹_864" data-name="그룹 864" transform="translate(0)" clip-path="url(#clip-path)">
      <g id="그룹_863" data-name="그룹 863" transform="translate(-7.019 9.118)">
        <path id="패스_7006" data-name="패스 7006" d="M-764.085,700.821a223.333,223.333,0,0,1,80.119-84.9c31.939-19.4,67.277-29.521,102.765-32.318,38.045-3,77.125,2.543,111.641,22.379s64.094,55,74.774,102.489l-27.527,4.191c-1.927.293-4.015.549-5.689-.659-1.65-1.191-2.491-3.509-3.28-5.658-7.149-19.469-18.24-36.7-31.986-49.683-10.935-10.331-23.435-17.939-36.368-23.8a161.9,161.9,0,0,0-119.859-5.885c-39.185,13.467-74.809,42.424-100.339,81.562-2.568,3.936-5.361,8.236-9.35,9.35-2.414.674-4.927.058-7.337-.618C-746.243,714.555-755.783,710.86-764.085,700.821Z" transform="translate(764.085 -582.845)" fill="#92d6f8"/>
        <path id="패스_7007" data-name="패스 7007" d="M-719.224,739.988c23.94-43.329,58.936-77.218,98.708-95.586s84.135-21.128,125.125-7.786c44.7,14.549,85.983,49.51,107.758,99.818-8.853,2.639-18.174,2.823-29.358,1.874-.781-10.993-9.031-18.506-16.552-24.445-22.61-17.855-45.88-35.208-71.559-44.9a134.275,134.275,0,0,0-93.5-.625c-30.357,11-58.019,33.175-78.526,62.952-4.188,6.08-8.481,12.811-14.668,15.109C-699.708,749.337-707.927,744.1-719.224,739.988Z" transform="translate(738.174 -605.328)" fill="#faf078"/>
        <path id="패스_7008" data-name="패스 7008" d="M-673.6,773.622c34.594-49.567,81.274-90.133,133.955-96.486,20.76-2.5,41.8.38,61.979,6.807,38.88,12.384,76.225,39.808,96.01,82.915a142.654,142.654,0,0,1-23.76,4.523,8.8,8.8,0,0,1-4.549-.359c-1.932-.859-3.3-2.944-4.607-4.9-24.56-36.767-62.948-58.818-101.606-58.364s-76.808,23.4-100.977,60.743c-4.054,6.263-8.241,13.34-14.526,15.337-3.295,1.047-6.77.526-10.121-.176C-652.224,781.481-662.407,777.6-673.6,773.622Z" transform="translate(711.823 -629.05)" fill="#e06fa5"/>
      </g>
    </g>
  </g>
  <path id="패스_7009" data-name="패스 7009" d="M140.753,325.964c-29.546-2.03-32.807,26.6-32.807,26.6s-17.379-9.576-27.31,6.562c0,0-17.068-4.478-17.068,9.089S82.453,375.4,82.453,375.4s11.172,16.435,27,1.5c0,0,14.718,18.05,31.3-2.034,0,0,15.517,15.3,30.28,1.064,0,0,22.211,4.39,23.939-6.384s-14.1-9.442-14.1-9.442,3.99-18.355-20.882-16.094C159.993,344.008,160.748,327.338,140.753,325.964Z" transform="translate(-63.568 -65.511)" fill="#fff"/>
  <path id="패스_7112" data-name="패스 7112" d="M134.866,325.956c-27.293-1.875-30.305,24.572-30.305,24.572s-16.054-8.845-25.227,6.061c0,0-15.766-4.137-15.766,8.4s17.445,6.633,17.445,6.633,10.32,15.181,24.941,1.387c0,0,13.6,16.673,28.912-1.879,0,0,14.333,14.129,27.971.983,0,0,20.517,4.055,22.113-5.9s-13.022-8.722-13.022-8.722,3.685-16.955-19.29-14.867C152.639,342.624,153.336,327.225,134.866,325.956Z" transform="translate(214.619 -61.392)" fill="#fff"/>
  <g id="그룹_878" data-name="그룹 878" transform="translate(166.524 0)">
    <g id="그룹_869" data-name="그룹 869" transform="translate(2.136 14.864)">
      <path id="패스_7044" data-name="패스 7044" d="M450.39,100.99a41.326,41.326,0,0,0-19.031-17.679A58.707,58.707,0,0,0,405.675,78.1a4.434,4.434,0,0,0-1.744.26c-1.667.728-1.851,2.98-1.78,4.8a9.252,9.252,0,0,1,2.889,1,5.488,5.488,0,0,0-3.366,7.626l4.141.4L402.051,94.3q.537,3.953,1.074,7.908c7.523-1.382,15.135-2.582,22.781-2.354s15.388,1.958,21.848,6.054C449.52,104.981,451.391,102.9,450.39,100.99Z" transform="translate(-401.104 -78.099)" fill="#7f583c"/>
      <path id="패스_7045" data-name="패스 7045" d="M440.046,94.71c-2.695-2.736-6.171-4.539-9.576-6.234a70,70,0,0,0-16.4-5.351c-.421-.125-.828-.075-.666.39.152.222.477.166.71.245a70.027,70.027,0,0,1,22.238,8.521,19.515,19.515,0,0,1,2.531,1.809,9.455,9.455,0,0,0,1.044.9A.167.167,0,0,0,440.046,94.71Z" transform="translate(-404.219 -79.361)" fill="#64452f"/>
      <path id="패스_7046" data-name="패스 7046" d="M442.636,100.908c-9.642-5.562-20.3-10.052-31.592-10.219a.4.4,0,0,0-.277.671c.447.251,1.049.114,1.551.213A63.247,63.247,0,0,1,432.022,96.2c3.477,1.426,6.975,3.352,10.357,5.147C442.649,101.51,442.93,101.072,442.636,100.908Z" transform="translate(-403.529 -81.297)" fill="#64452f"/>
      <path id="패스_7047" data-name="패스 7047" d="M439.135,103.964a57.665,57.665,0,0,0-17.069-2.416,27.723,27.723,0,0,0-7.97,1.062.394.394,0,0,0,.134.689,6.216,6.216,0,0,0,1.141-.2,47.116,47.116,0,0,1,15.138-.505,70.15,70.15,0,0,1,8.548,1.658C439.232,104.3,439.328,104.014,439.135,103.964Z" transform="translate(-404.365 -84.052)" fill="#64452f"/>
    </g>
    <g id="그룹_872" data-name="그룹 872" transform="translate(143.744 0) rotate(42)">
      <path id="패스_7048" data-name="패스 7048" d="M.692,42.712A47.534,47.534,0,0,1,2.149,20.375,38.045,38.045,0,0,1,14.777,2.039a8.79,8.79,0,0,1,3.986-2,3.609,3.609,0,0,1,3.811,1.772L21.6,4.28c.943-.811,2.081-1.676,3.3-1.426a3.676,3.676,0,0,1,1.21.562,17.982,17.982,0,0,1,3.611,3.052L28.191,9.109a2.939,2.939,0,0,1,3.632-.22,8.579,8.579,0,0,1,2.544,2.973l1.615,2.614a1.529,1.529,0,0,1,.321.923c-.049.463-.492.767-.891,1.009C24.083,23.258,13.425,32.143,7.743,44.1a2.3,2.3,0,0,1-.642.929,1.925,1.925,0,0,1-1.072.289C3.733,45.406.961,44.346.692,42.712Z" transform="translate(0 0)" fill="#7f583c"/>
      <g id="그룹_870" data-name="그룹 870" transform="translate(1.845 5.558)">
        <path id="패스_7049" data-name="패스 7049" d="M14.83.084a27.188,27.188,0,0,0-4.874,5.71A72.547,72.547,0,0,0,4.032,16.008,48.515,48.515,0,0,0,.358,25.083c-.093.57-.472,1.181-.324,1.748a.432.432,0,0,0,.783-.1,44.045,44.045,0,0,1,3.827-9.59,71.56,71.56,0,0,1,10.05-15.6,7.041,7.041,0,0,0,.8-.927A.444.444,0,0,0,14.83.084Z" transform="translate(0 0)" fill="#64452f"/>
        <path id="패스_7050" data-name="패스 7050" d="M.041,0A.464.464,0,0,0,0,.028C0,.036.019.016.041,0Z" transform="translate(14.774 0.096)" fill="#64452f"/>
        <path id="패스_7051" data-name="패스 7051" d="M0,.019.016.007.024,0Z" transform="translate(14.814 0.077)" fill="#64452f"/>
      </g>
      <g id="그룹_871" data-name="그룹 871" transform="translate(4.493 9.267)">
        <path id="패스_7052" data-name="패스 7052" d="M18.642.1c-7.153,5.743-13.177,14.1-17.27,22.608A33.492,33.492,0,0,0,.014,26.235a.4.4,0,0,0,.039.3.4.4,0,0,0,.719-.094,45.36,45.36,0,0,1,4.683-9.307A71.944,71.944,0,0,1,18.893,1.221c.2-.227.553-.389.553-.73A.5.5,0,0,0,18.642.1Z" transform="translate(0 0)" fill="#64452f"/>
        <path id="패스_7053" data-name="패스 7053" d="M.035,0C.027.007.018.011.01.019S0,.025.035,0Z" transform="translate(18.583 0.122)" fill="#64452f"/>
        <path id="패스_7054" data-name="패스 7054" d="M0,.038C.007.031.016.026.024.019L.048,0Z" transform="translate(18.618 0.084)" fill="#64452f"/>
      </g>
      <path id="패스_7055" data-name="패스 7055" d="M20.525,0a35.612,35.612,0,0,0-6.551,4.4,70.108,70.108,0,0,0-12.429,13c-.52.728-1.023,1.469-1.5,2.228a.341.341,0,1,0,.589.344A65,65,0,0,1,20.551,1.426C21.348,1.073,21.446.134,20.525,0Z" transform="translate(7.366 15.565)" fill="#64452f"/>
    </g>
    <path id="패스_7056" data-name="패스 7056" d="M577.5,258.7l13.927,35.915c1.581,4.078,3.269,8.313,6.518,11.241,4.342,3.911,13.543,6.155,14.855,9.135.375.854-.9.991-1.595.821a3.953,3.953,0,0,1,2.125,1.955c.309.938-.577,2.206-1.489,1.828.825.754-.468,1.969-1.561,2.2a9.36,9.36,0,0,1-6.946-.977c.574.487,1.133,2.025.264,2.674-2.769,2.067-12.431-2.759-14.753-3.953-4.859-2.5-8.076-7.29-10.732-12.064A114.989,114.989,0,0,1,565.3,271.148a3.159,3.159,0,0,1,0-1.566,3.321,3.321,0,0,1,1.552-1.527A38.617,38.617,0,0,0,577.5,258.7Z" transform="translate(-440.65 -109.108)" fill="#f3d6c1"/>
    <path id="패스_7057" data-name="패스 7057" d="M484.287,430.513c-1.363,2.533-4.394,6.257-4.437,8.7-.133,7.521,11.256,18.519,14.715,20.14a5.444,5.444,0,0,0,2.333.611,2.614,2.614,0,0,0,2.118-1.006,3.858,3.858,0,0,0,.3-2.986c-.354-1.733-1.748-4.95-1.429-6.851.381-2.27,3.57-7.3,3.286-7.736-1.32-2.036-11.652-7.614-14.009-10.2a3.254,3.254,0,0,0-1.416-1.07A1.514,1.514,0,0,0,484.287,430.513Z" transform="translate(-418.97 -152.636)" fill="#fff"/>
    <path id="패스_7058" data-name="패스 7058" d="M564.309,448.271c1.98,7.257,15.993,14.625,19.768,15.212a5.45,5.45,0,0,0,2.411-.067,2.615,2.615,0,0,0,1.751-1.559,3.854,3.854,0,0,0-.553-2.949c-.825-1.564-3.064-4.263-3.29-6.178-.27-2.286,1.382-8.005.987-8.346-1.837-1.585-13.317-4.046-16.307-5.872a3.248,3.248,0,0,0-1.658-.631C566.821,437.888,563.667,445.916,564.309,448.271Z" transform="translate(-440.402 -154.622)" fill="#fff"/>
    <path id="패스_7059" data-name="패스 7059" d="M548.486,360.957c.208,1.72-2.733,32.075-8.16,46.581,4.042,5.291,18.78,8.586,19.4,8.329.539-.224,22.764-49.136,18.225-68.467-3.971-16.915-29.644-38.957-33.76-47.5-23.946,14.2-51.393,19.035-77.066,14.066-1.094,7.529,1.871,14.771,6.327,20.767a59.947,59.947,0,0,0,16.687,14.763,11.782,11.782,0,0,1,3.611,2.924c1.254,1.775,1.347,4.11,1.178,6.277-.525,6.76-3.112,13.173-5.837,19.382s-5.627,12.363-8.54,18.5a3.089,3.089,0,0,0-.44,1.937,2.989,2.989,0,0,0,.767,1.255,54.719,54.719,0,0,0,13.455,11.118,3.206,3.206,0,0,0,2.023.619,3.289,3.289,0,0,0,1.847-1.358,252.722,252.722,0,0,0,35.45-56.192,75.419,75.419,0,0,0,3.442-8.636C538.79,346.572,547.938,356.416,548.486,360.957Z" transform="translate(-415.679 -119.572)" fill="#769bdc"/>
    <path id="패스_7060" data-name="패스 7060" d="M552.279,346.859a32.3,32.3,0,0,0-4.037-6.583c-1.279-1.872-2.57-3.736-3.992-5.5-1.682-2.248-3.651-4.256-5.461-6.4,1.956-2.38,4.116-5.816,6.216-8.69.076-.131.228-.232.236-.389a.177.177,0,0,0-.308-.1c-2.252,2.958-4.844,5.634-7.092,8.6a.516.516,0,0,0-.107.5.473.473,0,0,0-.006.37,31.3,31.3,0,0,0,4.031,6.045c1.294,1.749,2.451,3.589,3.636,5.411a27.48,27.48,0,0,1,3.746,7.054c1.268,2.833.305,6.8-.626,9.749-.914,2.756-3.652,10.919-11.242,22.485a188.771,188.771,0,0,1-11.77,18.15.324.324,0,0,0,.567.291c.733-.806,1.458-1.622,2.14-2.471,3.573-4.692,6.876-9.588,10.281-14.4,4.472-6.569,10.707-14.572,13.025-23.219C552.638,354.5,553.3,349.137,552.279,346.859Z" transform="translate(-430.562 -124.46)" fill="#5278bf"/>
    <path id="패스_7061" data-name="패스 7061" d="M545.4,216.84c8.736-.785,17.215,4.419,22.354,11.526s10.585,14.746,12.017,23.4a4.4,4.4,0,0,1,.058,1.653c-.181.816-.927,1.338-1.427,2.007-6.477,8.667-22.666,13.291-23.356,12.847-.718-.462-12.8-35.467-11.257-49.325C544.381,219,544.978,219.046,545.4,216.84Z" transform="translate(-435.176 -98.456)" fill="#f283a0"/>
    <path id="패스_7062" data-name="패스 7062" d="M431.48,269.424l-20.636,41.644a21.673,21.673,0,0,1-3.917,6.081c-2.194,2.145-5.2,3.268-7.52,5.275a2.835,2.835,0,0,0-1.165,1.86c-.037.751,1.389,1.383,2.418,1.583-1.19,1.19-1.6,2.53-.788,3.305s2.372.553,4.1-.266c-1.135,1.572-.126,2.337.708,2.386,4.09.243,7.082-2.79,7.733-3.5-.169.292-.78,2.145,0,2.686,2.313,1.6,12.973-5.734,14.07-6.745a20.178,20.178,0,0,0,3.64-5.138l24.041-42.828c-5.041.159-9.982-1.268-14.818-2.7A26.452,26.452,0,0,1,431.48,269.424Z" transform="translate(-398.241 -111.833)" fill="#f3d6c1"/>
    <path id="패스_7063" data-name="패스 7063" d="M489.442,214.085c-12.322-1.909-24.912,3.065-34.762,10.709s-17.419,17.779-24.86,27.783c-1.072,1.44-2.2,3.085-1.957,4.863.213,1.564,1.435,2.777,2.641,3.795A42.292,42.292,0,0,0,456.652,271.3c-.8,5.471-1.227,31.069-.684,31.9.5.768,54.027,6.667,85.456-20.441a153.192,153.192,0,0,1-10.518-41.23c-.6-5.462-6.116-24.463-13.233-26.259-4.593-1.159-9.371-1.408-14.091-1.822C497.542,212.917,490.849,212.9,489.442,214.085Z" transform="translate(-405.757 -97.527)" fill="#f283a0"/>
    <path id="패스_7064" data-name="패스 7064" d="M499.862,213.149a27.114,27.114,0,0,0,10.6,9.377,18.548,18.548,0,0,0,13.924.953,14.16,14.16,0,0,0,9.161-10.176C522.5,214.195,511.349,213.745,499.862,213.149Z" transform="translate(-424.053 -97.538)" fill="#f4c7a8"/>
    <path id="패스_7065" data-name="패스 7065" d="M514.108,93.713a40.095,40.095,0,0,0-48.833,23.376,51.72,51.72,0,0,0-3.418,17.607,149.885,149.885,0,0,0,.794,17.447,11.21,11.21,0,0,0-7.674,1.474c-3.505,2.513-4.3,7.062-3.511,11.3.762,4.08,4.239,7.309,8.194,8.57s8.286.8,12.662-.185a41.315,41.315,0,0,0,32.21,15.053c14.687-.222,31.042-7.309,39.268-19.477,3.24-4.793,3.325-12.225,1.549-17.731-.277-.859-.653-1.685-.868-2.561-.427-1.743.023-3.559.023-5.355,0-12.674,1.592-19.479-2.583-28.035-2.446-5.014-6.336-9.183-10.5-12.893C527.273,98.613,522.269,96.19,514.108,93.713Z" transform="translate(-411.689 -66.769)" fill="#f3d6c1"/>
    <path id="패스_7066" data-name="패스 7066" d="M464.727,183.05a1.393,1.393,0,0,0,.007-.177,4.772,4.772,0,0,0-6.149-3.279,5.716,5.716,0,0,0-2.345,2.128,5.775,5.775,0,0,0-1.209,3.417.848.848,0,0,0,1.694-.079,4.768,4.768,0,0,1,2.269-3.686c1.077-.569,2.654-.078,3.775,1.517.172.2.192.216.006,0,.095.112.181.232.286.334a2.392,2.392,0,0,0,.742.534.7.7,0,0,0,.091.04.69.69,0,0,0,.822-.554l0,.019c0-.015,0-.03,0-.044A.656.656,0,0,0,464.727,183.05Z" transform="translate(-412.666 -88.943)" fill="#e2b695"/>
    <path id="패스_7067" data-name="패스 7067" d="M8.144,2.4C5.888,1.375,3.534.119,1.031,0A1.285,1.285,0,0,0,.976,2.507,23.187,23.187,0,0,1,8.1,5.179c.936.47,1.922.839,2.814,1.394.207.107.972.572.508.256a1,1,0,0,0,1.667-.783C12.769,4.543,10.038,3.32,8.144,2.4Z" transform="translate(120.816 24.745) rotate(20)" fill="#d1575b"/>
    <path id="패스_7068" data-name="패스 7068" d="M467.151,106.659a1.972,1.972,0,0,0,.188-.4c0-.014.008-.028.013-.043a1.706,1.706,0,0,0,.063-.2l-.023.025a1.979,1.979,0,0,0-.248-1.579,1.874,1.874,0,0,0-.345-.394h0l-.018-.013a2.066,2.066,0,0,0-.163-.13c-.03-.021-.06-.04-.091-.059a2.085,2.085,0,0,0-.5-.228c-.057-.021-.114-.041-.174-.06-1.126-.289-2.31.48-3.282.993a14.644,14.644,0,0,0-5.581,7.5,1.6,1.6,0,0,0,2.979,1.1,10.914,10.914,0,0,1,5.081-5.2,4.181,4.181,0,0,0,1.808-.95l.009-.01a2.15,2.15,0,0,0,.275-.35Z" transform="translate(-413.155 -69.692)" fill="#d1575b"/>
    <path id="패스_7069" data-name="패스 7069" d="M470.349,86.212c-.01-.015-.025-.027-.036-.04.007,0-.011-.023-.083-.11a4.8,4.8,0,0,0-3.1-1.855A3.782,3.782,0,0,0,464,85.424c-1.593,1.687-2.053,4.19-2.052,6.774-1.891-2.931-4.571-5.128-7.921-4.581-3.944.762-3.189,4.836-1.3,7.776.053.083.106.166.158.251a.857.857,0,0,0,.116.188,18.286,18.286,0,0,0,4.752,4.433,23.214,23.214,0,0,0,4.189,2.11,5.752,5.752,0,0,0,2.538.507,1.228,1.228,0,0,0,.822-.562c.016-.014.029-.03.044-.045a1.671,1.671,0,0,0,.791-.273,5.1,5.1,0,0,0,.971-.692,16.754,16.754,0,0,0,3.212-4.272A9.554,9.554,0,0,0,471.8,93.2,9.037,9.037,0,0,0,470.349,86.212ZM455.1,94.242l-.008-.008c-1.127-1.6-1.5-2.128-1.7-3.763v-.007a3.109,3.109,0,0,1,.13-.288c.027-.035.06-.077.109-.135.615-.3.043-.174,1.122-.337,2.751.173,4.557,3.769,6.492,8.024.248.55.484,1.106.721,1.663A20.377,20.377,0,0,1,455.1,94.242ZM466.641,96.3a15.282,15.282,0,0,1-1.3,2.07,27.866,27.866,0,0,1-.42-7.12c.415-2.4.583-2.95,1.541-3.737l.046-.028c.049-.024.1-.048.15-.069h.016c.057.008.113.026.171.039a2.365,2.365,0,0,1,.234.107,3.666,3.666,0,0,1,.289.227C469.306,89.8,468.174,93.614,466.641,96.3Z" transform="translate(-411.69 -64.779)" fill="#e06f74"/>
    <g id="그룹_873" data-name="그룹 873" transform="translate(110.666 9.194)">
      <path id="패스_7070" data-name="패스 7070" d="M553.43,66.849c-.258-3.016-2.7-4.532-5.567-3.765-3.012.847-4.817,3.727-5.963,6.987-1.661-4.893-5.124-8.964-9.572-6.507-3.6,2.6-1.012,8.5,2.393,12.237a23.208,23.208,0,0,0,3.329,2.991,6.184,6.184,0,0,0,2.422,1.268,1.315,1.315,0,0,0,.377-.009c.04.015.079.032.12.043a1.077,1.077,0,0,0,.424.189,1.21,1.21,0,0,0,.466,0,4.8,4.8,0,0,0,.68-.089h.014c.092-.013.174-.028.263-.042h-.039l.031-.005c.014,0,.016,0,.016,0a8.808,8.808,0,0,0,3.948-1.455,12.948,12.948,0,0,0,5.425-6.239A12.17,12.17,0,0,0,553.43,66.849Zm-19.7,2.717c-.889-1.882-1.383-4.348.342-4.727,2.31-.591,3.819,1.385,5.006,5.018a18.191,18.191,0,0,1,1.233,6.359c-.013.289-.019.486-.024.649l-.017.1A19.4,19.4,0,0,1,533.729,69.565Zm15.15,2.524c-1.141,1.969-1.52,2.078-3.378,3.585a8.655,8.655,0,0,1-2.568,1.672c0-.048.01-.1.014-.145a52.693,52.693,0,0,1,1.6-6.274,12.084,12.084,0,0,1,2.668-4.408,3.4,3.4,0,0,1,2.158-.783,2.506,2.506,0,0,1,.532.119c.085.043.164.086.218.117C550.843,66.717,550.416,69.5,548.878,72.09Z" transform="translate(-530.592 -62.826)" fill="#e06f74"/>
      <path id="패스_7071" data-name="패스 7071" d="M546.987,86.054l-.009,0Z" transform="translate(-534.754 -68.726)" fill="#e06f74"/>
    </g>
    <g id="그룹_874" data-name="그룹 874" transform="translate(115.698 68.548)">
      <path id="패스_7072" data-name="패스 7072" d="M553.338,155.954a3.376,3.376,0,1,1,3.527,3.57A3.558,3.558,0,0,1,553.338,155.954Z" transform="translate(-553.334 -150.572)"/>
      <path id="패스_7073" data-name="패스 7073" d="M557.923,152.811a3.411,3.411,0,0,0,3.149-2.1c.106-.269.23-.6.517-.642a.487.487,0,0,1,.464.257,1.154,1.154,0,0,1,.126.542,4.032,4.032,0,0,1-2.2,3.7.744.744,0,0,1-.3.093.717.717,0,0,1-.363-.12A3.284,3.284,0,0,1,557.923,152.811Z" transform="translate(-554.499 -150.062)"/>
    </g>
    <g id="그룹_875" data-name="그룹 875" transform="translate(82.777 73.774)">
      <path id="패스_7074" data-name="패스 7074" d="M509.208,162.96a3.376,3.376,0,1,1,3.527,3.57A3.558,3.558,0,0,1,509.208,162.96Z" transform="translate(-509.204 -157.578)"/>
      <path id="패스_7075" data-name="패스 7075" d="M513.793,159.817a3.411,3.411,0,0,0,3.149-2.1c.106-.269.231-.6.517-.642a.488.488,0,0,1,.464.257,1.158,1.158,0,0,1,.126.543,4.032,4.032,0,0,1-2.2,3.7.745.745,0,0,1-.3.093.72.72,0,0,1-.363-.12A3.286,3.286,0,0,1,513.793,159.817Z" transform="translate(-510.369 -157.068)"/>
    </g>
    <path id="패스_7076" data-name="패스 7076" d="M532.735,164.544a3.779,3.779,0,1,1,3.874,2.993A3.484,3.484,0,0,1,532.735,164.544Z" transform="translate(-432.403 -84.342)" fill="#e8a19c"/>
    <path id="패스_7077" data-name="패스 7077" d="M522.834,174.7a11.8,11.8,0,0,0,5.188,4.771c4.243,1.675,9.728,1.6,13.338-1.468a10.808,10.808,0,0,0,3.692-5.913.533.533,0,0,1,1.058.056,6.359,6.359,0,0,1-.266,2.1c-1.713,6.414-8.515,9.589-14.754,8.263a11.559,11.559,0,0,1-9.2-7.3.536.536,0,0,1,.942-.5Z" transform="translate(-429.637 -86.998)" fill="#2d2119"/>
    <path id="패스_7078" data-name="패스 7078" d="M488.953,187.211A12.5,12.5,0,1,1,502,198.644,12.269,12.269,0,0,1,488.953,187.211Z" transform="translate(-421.279 -87.746)" fill="#e8a19c"/>
    <path id="패스_7079" data-name="패스 7079" d="M466.361,99.087a13.986,13.986,0,0,0-7.954,4.539,26.828,26.828,0,0,0-4.783,7.959,51.977,51.977,0,0,0,.062,39.612c2.64-2.26,9.7-3.38,13.952-.065,3.538-6.019,6.128-21.176,2.14-42.551,3.054,4.263,3.827,9.689,5.589,14.627a2.563,2.563,0,0,0,2.654,2.128,36.758,36.758,0,0,0,18.415-2.6,1.43,1.43,0,0,0,.758-.549,1.45,1.45,0,0,0,.05-.936,146.689,146.689,0,0,0-3.393-15.01c3.25,4.4,5.146,9.626,6.886,14.808a2.364,2.364,0,0,0,2.777,1.97c4.829.207,9.852.381,14.285-1.543a2.764,2.764,0,0,0,1.5-1.184,2.967,2.967,0,0,0,.09-1.715,95.883,95.883,0,0,0-4.085-16.815c4.009,5.358,6.23,11.837,7.851,18.331a55.461,55.461,0,0,0,24.752-6.041c-2.539-11.336-9.3-22.14-19.715-27.294-16.058-7.949-23.472-7.72-30.889-6.947C479.024,81.711,467.56,96.048,466.361,99.087Z" transform="translate(-411.32 -63.577)" fill="#7f583c"/>
    <path id="패스_7080" data-name="패스 7080" d="M468.33,257.569c-.539.248-.354.232-.566.489a55.719,55.719,0,0,0-4.271,8.629c-1.671,3.6-2.8,7.415-4.246,11.108-.473,1.126-.982,2.235-1.5,3.34-.048-.007-.053-.006,0,0l0,.007c-6.037-.425-14.739-3.329-20.008-5.575a22.618,22.618,0,0,1-7.413-5.439c-.46-.37-.806-1.034-1.452-1.05a.925.925,0,0,0-.65,1.567c1.808,1.819,3.4,3.876,5.529,5.346,2.763,1.945,6.058,2.959,9.218,4.069,2.476.809,5.035,1.337,7.544,2.036,2.328.559,6.017,1.312,7.5.95a2.415,2.415,0,0,0,.285-.089l.053-.016a.309.309,0,0,0,.043-.025.763.763,0,0,0,.466-.367c2.25-4.289,3.593-8.949,5.433-13.409.814-1.86,1.782-4.42,2.961-6.734.642-1.338,1.563-2.569,2.11-3.937A.82.82,0,0,0,468.33,257.569Z" transform="translate(-405.788 -108.813)" fill="#d1628b"/>
    <path id="패스_7081" data-name="패스 7081" d="M575.918,288.986c.031.072.121.292.067.144-.271-.724-.154-.4-.5-1.211a106.913,106.913,0,0,1-5.4-14.145,161.313,161.313,0,0,1-4.191-19.885c-.774-4.486-.944-7.737-2.13-11.949a21.111,21.111,0,0,0-1.073-2.913.769.769,0,0,0-1.406.592c1.271,3.2,1.322,5.473,1.673,8.639.559,5.326.97,9.962,1.805,14.5a82.83,82.83,0,0,0,6.9,21.525c.858,1.779,1.679,3.577,2.541,5.353a1.149,1.149,0,0,0,.706.72.912.912,0,0,0,1.012-1.366Z" transform="translate(-439.647 -104.015)" fill="#d1628b"/>
    <path id="패스_7082" data-name="패스 7082" d="M421.851,340.051c-.314.2-1.355.956-1.3.914-1.416,1.2-3.161,2.492-3.858,4.255a4.793,4.793,0,0,0-.2,2.363c.1.324.088.764.366.991a.361.361,0,0,0,.527-.4,3.542,3.542,0,0,1,.668-3.241,21.065,21.065,0,0,1,3.663-3.379c.393-.333.556-.383,1.083-.854a.476.476,0,0,0,.108-.407C422.845,339.748,422.18,339.7,421.851,340.051Z" transform="translate(-402.861 -129.715)" fill="#e2b695"/>
    <path id="패스_7083" data-name="패스 7083" d="M614.87,341.524c-.149-1.782-1.709-2.98-3.151-3.8a18.716,18.716,0,0,0-2.878-1.48c-.5-.136-.686-.477-1.113-.232-.356.279-.073.7.272.829.571.356,1.158.682,1.729,1.037a34.971,34.971,0,0,1,3.366,2.551c.843.634,1.263,1.26,1.148,2.064-.017.246-.278.478-.383.761a.28.28,0,0,0,.517.178A2.536,2.536,0,0,0,614.87,341.524Z" transform="translate(-451.41 -128.724)" fill="#e2b695"/>
    <path id="패스_7084" data-name="패스 7084" d="M625.242,339.119c-.443-1.667-2.434-2.163-3.787-2.9a23.878,23.878,0,0,0-4.09-1.638.38.38,0,0,0-.495.357c-.045.158.252.4.24.348-.051-.022-.048-.02.009,0l.133.056a48.931,48.931,0,0,1,6.6,3.258c.332.246.949.683.751,1.254-.01.084-.3.307-.5.542a.254.254,0,0,0,.36.317A1.42,1.42,0,0,0,625.242,339.119Z" transform="translate(-453.773 -128.377)" fill="#e2b695"/>
    <path id="패스_7085" data-name="패스 7085" d="M621.314,332.312a18.95,18.95,0,0,0-3.343-1.04c.044,0-.215-.025-.292.119-.478.656,1.919,1.138,2.679,1.513a37.263,37.263,0,0,1,3.594,1.6c.72.261,2.01.988,2.288,1.812a.97.97,0,0,1,.077.72c-.019.137-.12.28-.051.413a.194.194,0,0,0,.352-.046C627.447,334.526,623.325,333.231,621.314,332.312Z" transform="translate(-453.964 -127.542)" fill="#e2b695"/>
    <path id="패스_7086" data-name="패스 7086" d="M543.4,371.465a23.146,23.146,0,0,0-3.136,2.214c-.365.325-.948.5-1.132.974a.644.644,0,0,0,.938.721,38.04,38.04,0,0,0,3.72-2.968A.555.555,0,0,0,543.4,371.465Z" transform="translate(-434.022 -137.752)" fill="#6689c8"/>
    <path id="패스_7087" data-name="패스 7087" d="M542.8,378.035c-.321.1-.5.426-.745.639a.878.878,0,0,0-.366.638.652.652,0,0,0,1.1.458,6.456,6.456,0,0,0,.749-.885A.63.63,0,0,0,542.8,378.035Z" transform="translate(-434.679 -139.414)" fill="#6689c8"/>
    <path id="패스_7088" data-name="패스 7088" d="M577.389,421.582c-.125-.588-.33-1.156-.474-1.74a.991.991,0,0,0-.4-.723.7.7,0,0,0-1.015.78,14.593,14.593,0,0,0,.885,2.333A.6.6,0,0,0,577.389,421.582Z" transform="translate(-443.259 -149.832)" fill="#6689c8"/>
    <path id="패스_7089" data-name="패스 7089" d="M579.257,419.458a12.34,12.34,0,0,0-1.056-1.77.6.6,0,0,0-.874.767c.393.689.705,1.422,1.115,2.1a.6.6,0,0,0,.61.292C579.814,420.72,579.581,419.912,579.257,419.458Z" transform="translate(-443.708 -149.459)" fill="#6689c8"/>
    <path id="패스_7090" data-name="패스 7090" d="M501.925,336.092a.534.534,0,0,0-.88.054c-2.239,3.9-5.631,7.311-9.456,8.627-.915.1-1.252,1.186-.319,1.546a4.705,4.705,0,0,0,2.128-.647,19.139,19.139,0,0,0,4.333-3.238,26.985,26.985,0,0,0,3.689-4.782C501.614,337.171,502.281,336.617,501.925,336.092Z" transform="translate(-421.73 -128.714)" fill="#6689c8"/>
    <path id="패스_7091" data-name="패스 7091" d="M461.041,118.087a.53.53,0,0,0-.959.125,152.735,152.735,0,0,1-6.064,26.635c-.434.9.677,1.305.932.609a86.538,86.538,0,0,0,4.5-15.944c.692-3.182,1.161-7.283,1.494-10C460.954,119.042,461.217,118.534,461.041,118.087Z" transform="translate(-412.383 -73.328)" fill="#64452f"/>
    <path id="패스_7092" data-name="패스 7092" d="M466.916,118.539a91.534,91.534,0,0,1-2.073,16.07c-1.354,6.629-3.645,13-5.45,19.511-.034.313-.365.7-.1.963.489.273.526-.525.674-.821,3.3-10.178,6.988-20.423,7.577-31.2.067-1.561.292-3.15.24-4.7A.455.455,0,0,0,466.916,118.539Z" transform="translate(-413.723 -73.394)" fill="#64452f"/>
    <path id="패스_7093" data-name="패스 7093" d="M484.519,120.738c-1.208-3.5-2.44-7.059-4.585-10.109a31.787,31.787,0,0,0-2.126-2.71c-.278-.253-.477-.7-.894-.713a.555.555,0,0,0-.389.94c5.2,5.324,6.571,13.051,9.168,20.357a10.279,10.279,0,0,0,.4.947.421.421,0,0,0,.735-.143C486.421,126.79,485.3,123.507,484.519,120.738Z" transform="translate(-418.085 -70.628)" fill="#64452f"/>
    <path id="패스_7094" data-name="패스 7094" d="M495.78,123.78a39.769,39.769,0,0,0-3.769-13.25,93.77,93.77,0,0,0-6.474-11.35.5.5,0,0,0-.86.5c5.042,7.711,9.127,14.982,10.474,24C495.145,124.456,495.914,124.391,495.78,123.78Z" transform="translate(-420.177 -68.528)" fill="#64452f"/>
    <path id="패스_7095" data-name="패스 7095" d="M503.551,121.17a47.615,47.615,0,0,0-10.02-23.523,22.716,22.716,0,0,0-2.582-2.8c-.161-.137-.311-.318-.54-.31a.5.5,0,0,0-.352.85,28.765,28.765,0,0,1,4.548,5.8,52.476,52.476,0,0,1,8.4,19.356,8.088,8.088,0,0,0,.363,1.564C503.876,122.238,503.533,121.462,503.551,121.17Z" transform="translate(-421.526 -67.41)" fill="#64452f"/>
    <path id="패스_7096" data-name="패스 7096" d="M515.912,120.111a37,37,0,0,0-13.278-24.732,53.247,53.247,0,0,0-6.75-4.656.3.3,0,0,0-.19.548c10.222,6.505,17.379,15.338,19.625,27.578.239,1.045.41,2.114.659,3.153a.122.122,0,0,0,.214-.107C516.1,121.32,516.007,120.7,515.912,120.111Z" transform="translate(-422.958 -66.44)" fill="#64452f"/>
    <path id="패스_7097" data-name="패스 7097" d="M526.172,114.863A44.118,44.118,0,0,0,518.8,96.379a38.791,38.791,0,0,0-15.542-11.727.49.49,0,0,0-.494.846,40.156,40.156,0,0,1,7.066,4.179,42.563,42.563,0,0,1,8.271,7.781,42.051,42.051,0,0,1,6.23,12.821,72.319,72.319,0,0,1,2.006,9.528C527.244,120.548,526.194,115.273,526.172,114.863Z" transform="translate(-424.729 -64.881)" fill="#64452f"/>
    <path id="패스_7098" data-name="패스 7098" d="M529.67,96.576a34.064,34.064,0,0,0-5.8-7.6c-2.659-2.891-5.9-5.3-9.859-5.934a.35.35,0,0,0-.186.674,15.018,15.018,0,0,1,8.229,4.592,53.7,53.7,0,0,1,6.172,7.192c.377.434.73,1.341,1.132,1.61A.328.328,0,0,0,529.67,96.576Z" transform="translate(-427.536 -64.487)" fill="#64452f"/>
    <path id="패스_7099" data-name="패스 7099" d="M545.512,111.634a46.642,46.642,0,0,0-16.219-25.709,32.422,32.422,0,0,0-3.64-2.289.367.367,0,0,0-.234.677,34.289,34.289,0,0,1,9.893,8.75,46.729,46.729,0,0,1,9.494,17.488c.237.669.312,1.592.594,2.178C545.942,112.885,545.506,111.929,545.512,111.634Z" transform="translate(-430.5 -64.639)" fill="#64452f"/>
    <path id="패스_7100" data-name="패스 7100" d="M559.821,111.763c-.916-2.761-3.1-5.933-5-8.625a65.245,65.245,0,0,0-17.957-16.927,36.077,36.077,0,0,0-6.7-3.338.28.28,0,0,0-.148.539,43.758,43.758,0,0,1,10.058,6.151,63.522,63.522,0,0,1,17.943,21.271c.417.728.566,1.5,1.009,1.877A.637.637,0,0,0,559.821,111.763Z" transform="translate(-431.661 -64.445)" fill="#64452f"/>
    <g id="그룹_876" data-name="그룹 876" transform="translate(108.043 21.256)">
      <path id="패스_7101" data-name="패스 7101" d="M575.316,121.292l0-.008C575.339,121.345,575.33,121.353,575.316,121.292Z" transform="translate(-551.261 -95.46)" fill="#64452f"/>
      <path id="패스_7102" data-name="패스 7102" d="M568.147,112.322c-1.937-5.581-5.854-10.192-9.827-14.458-3.469-3.621-7.1-7.2-11.5-9.687a22.724,22.724,0,0,0-3.3-1.5.348.348,0,0,0-.377.128.358.358,0,0,0,.186.562c5.476,2.127,9.886,6.592,14.057,11.1,4.029,4.42,7.359,8.4,9.718,13.984.007.013.01.022.014.031-.005-.011,0-.01-.011-.026.113.262.268.648.243.583a.5.5,0,0,0,.961,0C568.385,112.794,568.214,112.56,568.147,112.322Z" transform="translate(-543.072 -86.668)" fill="#64452f"/>
    </g>
    <g id="그룹_877" data-name="그룹 877" transform="translate(1.303 208.869)">
      <path id="패스_7103" data-name="패스 7103" d="M412.823,339.757c-.224.031-.2.092-.391.2a50.668,50.668,0,0,0-4.859,4.237,11.424,11.424,0,0,0-2.269,2.814,3.087,3.087,0,0,0-.23,1.464.411.411,0,0,0,.786-.158c.012-1.17.782-1.956,1.658-2.9a55.665,55.665,0,0,1,5.436-5.033A.33.33,0,0,0,412.823,339.757Z" transform="translate(-401.274 -338.567)" fill="#e2b695"/>
      <path id="패스_7104" data-name="패스 7104" d="M407.57,338.252a.319.319,0,0,0-.445,0c-.868.746-1.754,1.47-2.63,2.207-1.346,1.226-2.992,2.115-4.165,3.7a2.267,2.267,0,0,0-.322,1.479,3.093,3.093,0,0,0,.4,1.123.2.2,0,0,0,.3-.227,2.1,2.1,0,0,1,0-1.927,6.461,6.461,0,0,1,1.063-1.117c1.787-1.539,3.687-2.945,5.577-4.6C407.551,338.747,407.805,338.492,407.57,338.252Z" transform="translate(-399.988 -338.161)" fill="#e2b695"/>
    </g>
    <path id="패스_7105" data-name="패스 7105" d="M570.888,187.535c-.448.664-.925,1.313-1.425,1.947a12.014,12.014,0,0,1,.306-24.021,12.977,12.977,0,0,1,1.619.03,7.3,7.3,0,0,0,.187,1.753c.216.873.589,1.7.865,2.559C574.215,175.308,574.133,182.738,570.888,187.535Z" transform="translate(-438.779 -85.422)" fill="#e8a19c"/>
    <path id="패스_7106" data-name="패스 7106" d="M497.78,462.322c-1.1.421-2.28-.12-3.385-.615a12.732,12.732,0,0,1-2.96-1.924,38.454,38.454,0,0,1-4.894-5.017c-3.011-3.645-5.242-8.751-6.8-13.2-.218-.621-.622.927-.509,1.567a29.534,29.534,0,0,0,6.171,13.819,30.679,30.679,0,0,0,5.688,5.506c1.786,1.309,5.127,2.513,6.979.387C498.448,462.414,499.374,461.713,497.78,462.322Z" transform="translate(-418.808 -155.522)" fill="#e5dfe1"/>
    <path id="패스_7107" data-name="패스 7107" d="M504.935,457.865a7.249,7.249,0,0,0-1.983-1.6,20.817,20.817,0,0,0-2.13-1.221,10.473,10.473,0,0,0-2.228-.862,7.59,7.59,0,0,0-2.477-.122c-.46.049-.673.816-.121.893a12.4,12.4,0,0,1,4.18,1.471,21.031,21.031,0,0,1,1.9,1.2,8.959,8.959,0,0,0,2.049,1.292C504.682,459.117,505.313,458.361,504.935,457.865Z" transform="translate(-422.988 -158.719)" fill="#e5dfe1"/>
    <path id="패스_7108" data-name="패스 7108" d="M504.941,452.934a8.051,8.051,0,0,0-1.285-1.09A11.114,11.114,0,0,0,502.28,451a12.191,12.191,0,0,0-3.079-1.116.647.647,0,0,0-.344,1.247,10.874,10.874,0,0,1,3.053,1.391,10.622,10.622,0,0,1,1.267.971c.213.187.408.4.624.582a.807.807,0,1,0,1.141-1.141Z" transform="translate(-423.681 -157.666)" fill="#e5dfe1"/>
    <path id="패스_7109" data-name="패스 7109" d="M587.888,465.549c-2.732,1.791-5.9.484-8.06-.459a31.1,31.1,0,0,1-6.09-3.549,35.589,35.589,0,0,1-9.279-10.571c-.336-.568-.638-.832-.639.4,0,4.724,4.852,9.27,9.09,12.423a30.29,30.29,0,0,0,6.924,3.827c2.381.947,5.012,1.728,7.061-.41C587.356,466.73,588.322,465.265,587.888,465.549Z" transform="translate(-440.3 -157.826)" fill="#e5dfe1"/>
    <path id="패스_7110" data-name="패스 7110" d="M591.639,461.49a3.366,3.366,0,0,0-1.532-.734,5.545,5.545,0,0,0-1.592-.153,9.112,9.112,0,0,0-1.777.275,10.2,10.2,0,0,0-1.744.65.444.444,0,0,0-.182.557.455.455,0,0,0,.526.258c.541-.079,1.073-.166,1.608-.272a7.64,7.64,0,0,1,1.519-.157,4.944,4.944,0,0,1,1.276.166,9.882,9.882,0,0,1,1.236.547.681.681,0,0,0,.768-.313A.7.7,0,0,0,591.639,461.49Z" transform="translate(-445.623 -160.392)" fill="#e5dfe1"/>
    <path id="패스_7111" data-name="패스 7111" d="M590.2,457.375a4.9,4.9,0,0,0-2.555-.588,6.668,6.668,0,0,0-1.3.135,4.723,4.723,0,0,0-1.173.495c-.456.234-.137.945.344.815a8.557,8.557,0,0,1,1.064-.152,5.459,5.459,0,0,1,1.07-.033,4.646,4.646,0,0,1,.962.162c.41.11.72.256,1.088.365a.657.657,0,0,0,.505-1.2Z" transform="translate(-445.667 -159.424)" fill="#e5dfe1"/>
  </g>
  <g id="그룹_868" data-name="그룹 868" transform="translate(41.584 2.812)">
    <path id="패스_7010" data-name="패스 7010" d="M254.8,172.234a.646.646,0,0,0,.093.07c.01.007.018.015.028.022l-.007-.007a.749.749,0,0,0,1.116-.419c.276-2.018-2.983-5.276-6.228-5.423a5.693,5.693,0,0,0-3.725,1.252c-.46.4-1.094.581-1.511,1.023a.776.776,0,0,0,1,1.141c.342-.175.606-.293.782-.369h0a5.049,5.049,0,0,1,1.816-.244" transform="translate(-189.68 -86.659)" fill="#64452f"/>
    <g id="그룹_866" data-name="그룹 866" transform="translate(139.509 155.245)">
      <path id="패스_7011" data-name="패스 7011" d="M369.459,267.591c3.923,11.951,7.849,23.915,12.659,35.537a10.387,10.387,0,0,0,1.657,3c1.849,2.088,4.984,2.405,7.294,3.969a3.23,3.23,0,0,1,1.329,1.522,1.522,1.522,0,0,1-.559,1.808,1.052,1.052,0,0,1,.2,1.6,3.039,3.039,0,0,1-1.647.81,2.289,2.289,0,0,1-1.908,2.288,8.139,8.139,0,0,1-3.343-.3,82.327,82.327,0,0,1-16.308-5.484,8.6,8.6,0,0,1-2.687-1.684c-1.327-1.372-1.646-3.4-1.964-5.281-1.805-10.721-5.587-21.138-6.108-32a1.669,1.669,0,0,1,.153-.97,1.737,1.737,0,0,1,1.035-.607A72.5,72.5,0,0,0,369.459,267.591Z" transform="translate(-358.064 -267.591)" fill="#cea384"/>
      <path id="패스_7012" data-name="패스 7012" d="M395.232,332.873a3.862,3.862,0,0,0-1.761-2.277c-.693-.355-1.649-1.129-2.411-1.116a.573.573,0,0,0-.136,1.038,5.868,5.868,0,0,1,2.1,1.557c.593.6.891.832,1.64,1.6C395.288,334.1,395.475,333.339,395.232,332.873Z" transform="translate(-366.341 -283.311)" fill="#be8a66"/>
      <path id="패스_7013" data-name="패스 7013" d="M400.186,330.942c-.468-1.183-1.837-1.561-2.8-2.251-.477-.2-.975-.85-1.476-.822a.406.406,0,0,0-.178.672c1.279,1.117,3.128,1.77,3.773,2.864C399.829,331.979,400.474,331.482,400.186,330.942Z" transform="translate(-367.603 -282.902)" fill="#be8a66"/>
      <path id="패스_7014" data-name="패스 7014" d="M401.282,327.052c-.845-.473-1.848-.554-2.717-.98-.107-.007-.663-.366-.931-.365a.2.2,0,0,0-.048.368c1.463.865,3.862,1.5,4.23,2.623.129.288.031.4.2.648.306.279.623-.119.587-.44A2.294,2.294,0,0,0,401.282,327.052Z" transform="translate(-368.078 -282.353)" fill="#be8a66"/>
    </g>
    <path id="패스_7015" data-name="패스 7015" d="M359.139,444.493a28.89,28.89,0,0,0-.824,9.228,6.738,6.738,0,0,0,.575,2.581,6.289,6.289,0,0,0,2.792,2.508,34.276,34.276,0,0,0,6.9,2.51c5.9,1.676,12.1,3.346,18.1,2.053a4.716,4.716,0,0,0,2.3-1.015,3.718,3.718,0,0,0,.379-4.342,12.389,12.389,0,0,0-3.17-3.405,3.8,3.8,0,0,1-1.19-1.438,3.918,3.918,0,0,1-.169-1.406q0-2.488.01-4.977a.813.813,0,0,0-1.018-.977,82.246,82.246,0,0,1-23.8-3.6A5.837,5.837,0,0,1,359.139,444.493Z" transform="translate(-218.599 -156.701)" fill="#fff"/>
    <path id="패스_7016" data-name="패스 7016" d="M285.938,449.676a28.885,28.885,0,0,0-1.687,9.109,6.76,6.76,0,0,0,.331,2.624,6.29,6.29,0,0,0,2.544,2.759,34.237,34.237,0,0,0,6.636,3.147c5.719,2.223,11.731,4.467,17.823,3.743a4.71,4.71,0,0,0,2.383-.795,3.719,3.719,0,0,0,.785-4.288,12.4,12.4,0,0,0-2.836-3.688,3.8,3.8,0,0,1-1.05-1.542,3.921,3.921,0,0,1-.037-1.416l.477-4.954a.813.813,0,0,0-.922-1.068,82.264,82.264,0,0,1-23.36-5.817A5.848,5.848,0,0,1,285.938,449.676Z" transform="translate(-199.805 -158.041)" fill="#fff"/>
    <path id="패스_7017" data-name="패스 7017" d="M239.1,320.027a26.856,26.856,0,0,0,1.122,27.937c6.128,8.926,17.027,13.167,27.5,15.93,4.789,1.264,10.116,2.657,12.773,6.838,2.829,4.452,1.492,10.256.063,15.334q-3.611,12.832-7.221,25.663a3.611,3.611,0,0,0-.146,2.193,3.345,3.345,0,0,0,1.364,1.471c6.638,4.576,15.106,5.306,23.147,5.892a5.752,5.752,0,0,0,2.8-.261,5.636,5.636,0,0,0,2.152-2.184A145.585,145.585,0,0,0,324.99,360.8a258.41,258.41,0,0,1,1.321,43.343c-.145,2.687-.2,5.74,1.725,7.622a8.532,8.532,0,0,0,3.916,1.866,47.127,47.127,0,0,0,19.85.868,5.777,5.777,0,0,0,2.489-.862c1.255-.921,1.618-2.607,1.889-4.14q3.683-20.859,7.366-41.718c1.625-9.2,3.334-23.749-1.508-31.739-3.591-5.925-15.666-10.282-30.087-19.988-2.272-1.528-14.073-.1-16.542.043C290.375,317.537,265.339,318.977,239.1,320.027Z" transform="translate(-187.477 -124.478)" fill="#769bdc"/>
    <path id="패스_7018" data-name="패스 7018" d="M204.148,285.067Q196.242,302.536,188.335,320c-1.294,2.859-2.659,5.814-5.043,7.855-2.034,1.74-12.357,7.82-12.239,10.375a2.014,2.014,0,0,0,1.981,1.9c-.77.632-.317,2,.574,2.451a4.557,4.557,0,0,0,2.929.062.932.932,0,0,0,.507,1.265,2.646,2.646,0,0,0,1.53.04c4.545-.8,5.74-.454,10.13-1.875-.6.283-.411,1.288.176,1.6a2.741,2.741,0,0,0,1.947-.01L195.8,342.4a10.151,10.151,0,0,0,8.493-6.444l22.413-41.8a1.067,1.067,0,0,0,.182-.8c-.128-.386-.619-.483-1.025-.525C217.794,291.994,210.529,287.758,204.148,285.067Z" transform="translate(-171.053 -116.785)" fill="#cea384"/>
    <path id="패스_7019" data-name="패스 7019" d="M351.516,358.331c-.593-3.591-1.756-5.315-4.056-8.563a37.5,37.5,0,0,0-7.549-7.678,41.75,41.75,0,0,0-10.155-7.028,49.271,49.271,0,0,0,7.362-3.349c.53-.337,1.277-.566,1.469-1.227.246-1.343-1.168-1.716-2.088-.95-2.871,1.76-5.976,3.083-8.937,4.671a.991.991,0,0,0-.5.139.97.97,0,0,0-.316.295.836.836,0,0,0,.418,1.6.9.9,0,0,0,.155.067,29.9,29.9,0,0,1,8.483,5.231c1.454,1.388,3.491,3.386,5.443,5.4,1.735,1.947,1.881,2.412,2.732,3.452,4.721,6.243,5.08,9.218,3.469,16.2q-2.663,10.911-5.69,21.737a137.673,137.673,0,0,1-7.6,19.5c-.084.219-.3.406-.257.65a.292.292,0,0,0,.424.172c.081-.037.1-.126.159-.183a40.944,40.944,0,0,0,3.843-7.255c1.363-2.881,3.484-7.5,4.305-9.637,2.557-6.251,4.249-12.8,6.246-19.241C350.072,367.771,352.052,363.127,351.516,358.331Z" transform="translate(-210.47 -127.981)" fill="#547ac1"/>
    <path id="패스_7020" data-name="패스 7020" d="M268.471,199.71c-9.385-1.378-16.028-1.752-25.515,3.34-5.018,2.693-8.691,6.68-12.168,11.19a225.975,225.975,0,0,0-21.524,33.74c-1.258,2.422-2.507,5.086-2.027,7.772.425,2.376,2.133,4.3,3.9,5.951a55.2,55.2,0,0,0,22.877,12.48q-2.663,10.656-5.327,21.314a2.725,2.725,0,0,0,0,1.922,2.677,2.677,0,0,0,1.6,1.065c14.7,5.1,30.665,5.708,46.15,4.23,37.41-3.569,52.761-13.109,53.349-14.718.651-1.778-9.392-41.232-12.221-57.176-1.67-9.409-3.413-19.028-8.132-27.338a6.036,6.036,0,0,0-2.147-2.477,5.9,5.9,0,0,0-2.68-.543c-5.528-.16-11.007,1.1-16.537,1.2C281.672,201.775,273.932,200.512,268.471,199.71Z" transform="translate(-180.217 -94.878)" fill="#8ccd96"/>
    <path id="패스_7021" data-name="패스 7021" d="M324.813,201.558c4.045.824,6.749-.889,10.862-.551,5.9.486,12.839,4.373,17.179,8.406s7.717,8.971,11.038,13.875c3.362,4.965,7.518,11.953,8.866,17.8a4.3,4.3,0,0,1,.1,2.1c-.16.576-.673.981-.91,1.529-2.224,5.137-15.746,13.978-25.2,13.874a5.924,5.924,0,0,1-3.031-.63c-1.548-.937-2.026-2.921-2.379-4.7C338.145,237.211,333.515,217.264,324.813,201.558Z" transform="translate(-210.109 -95.422)" fill="#8ccd96"/>
    <path id="패스_7022" data-name="패스 7022" d="M289.764,196.895a8.047,8.047,0,0,0-.615,6.263,12.3,12.3,0,0,0,3.471,5.371,17.261,17.261,0,0,0,20.969,1.613,10.8,10.8,0,0,0,3.849-4.322c1.046-2.332.9-5,.739-7.552A59.081,59.081,0,0,1,289.764,196.895Z" transform="translate(-200.958 -94.389)" fill="#c49b7e"/>
    <path id="패스_7023" data-name="패스 7023" d="M234.65,292.179c-3.132-.022-5.666-1.4-8.276-2.429-4.166-1.849-10.142-5.027-13.509-8.722a33.893,33.893,0,0,1-4.078-5.289,11.807,11.807,0,0,1-.824-1.97.752.752,0,1,0-1.45.4c1.506,7.684,9.173,12.855,16.434,16.23,3.829,1.649,7.749,3.747,12.021,3.669,1.012-.137,2.078.181,1.983-1.209C236.645,291.893,235.419,292.271,234.65,292.179Z" transform="translate(-180.052 -113.774)" fill="#6ea876"/>
    <path id="패스_7024" data-name="패스 7024" d="M270.91,245.348a1.112,1.112,0,0,0-2.014.263c-1.648,6.367-3.048,12.8-4.442,19.226a154.509,154.509,0,0,1-3.432,16.081c-.468,1.357-.536,1.489-1.135,1.908a24,24,0,0,1-6.468,2.093c-.405.108-.924.071-1.153.489-.432,1.015.641,1.252,1.085,1.109a30.384,30.384,0,0,0,6.069-1.323,4.769,4.769,0,0,0,3.275-2.579c2.847-7.046,3.728-14.686,5.3-22.077.945-4.579,1.825-9.172,2.865-13.731C270.984,246.327,271.2,245.806,270.91,245.348Z" transform="translate(-191.657 -106.561)" fill="#6ea876"/>
    <path id="패스_7025" data-name="패스 7025" d="M364.937,291.9c-.41-2.639-.749-6.691-1.5-10.316-2.42-10.605-6.07-20.874-9.5-31.183-2.475-7.334-4.757-14.311-8.054-21.1a.63.63,0,0,0-1.087.635,82.572,82.572,0,0,1,4.533,12.324c1.459,4.337,2.9,8.682,4.351,13.022,2.169,6.047,3.711,12.287,5.643,18.409.927,3.221,1.811,6.461,2.548,9.731.6,3.051,1.042,6.13,1.658,9.177.1.361.1.8.462,1a.724.724,0,0,0,.98-.257C365.2,292.764,364.949,292.446,364.937,291.9Z" transform="translate(-215.162 -102.542)" fill="#6ea876"/>
    <path id="패스_7026" data-name="패스 7026" d="M255.943,140.6a7.884,7.884,0,0,0-7.3-4.668,9.788,9.788,0,0,0-7.739,4.309,12.982,12.982,0,0,0-2.022,8.779,11.017,11.017,0,0,0,1.448,4.534,11.7,11.7,0,0,0,5.495,4.407c3.476,1.49,7.643,1.816,10.742-.124a48.526,48.526,0,0,0,71.453-1.482c3.568-4.049,7.283-10.774,8.27-16.081s-.2-11.188-3.938-15.085a7.073,7.073,0,0,1-1.358-1.651,5.839,5.839,0,0,1-.346-2.854,65,65,0,0,0-2.157-21.15c-4.077-13.763-15.885-23.526-29.653-27.586S269,72.026,259.532,82.81c-6.474,7.37-9.669,17.226-10.22,27.019S250.686,129.408,255.943,140.6Z" transform="translate(-188.259 -62.262)" fill="#cea384"/>
    <path id="패스_7027" data-name="패스 7027" d="M246.266,89.844c-4.835,2.2-7.373,7.629-8.335,12.853-1.973,10.715.706,22.557,4.325,32.834,4.119-3.576,10.087-1.621,13.3,2.29,3.858-13.575,3.956-28.459-1.287-41.84a216.866,216.866,0,0,0,28.665,5.042c6.651.713,13.438,1.112,19.978-.292a6.637,6.637,0,0,0,3.385-1.5c1.487-1.478,1.393-4.016.358-5.838a14.536,14.536,0,0,0-4.5-4.315,76.77,76.77,0,0,0,25.917,5.259,21.946,21.946,0,0,0,9.308-1.3,4.8,4.8,0,0,0,2.1-1.515,4.015,4.015,0,0,0-.451-4.617,11.767,11.767,0,0,0-4-2.888,9.134,9.134,0,0,0,6.83-5.081,6.58,6.58,0,0,0-2.094-7.9c-1.989-1.3-4.55-1.207-6.924-1.063l-6.768.41c1.44-.891,3.473-1.006,4.351-2.454.812-1.341.081-3.185-1.178-4.118a9.409,9.409,0,0,0-4.436-1.393c-6.013-.81-12.049-1.427-18.09-1.99a135.075,135.075,0,0,0-21.133-.788,72.631,72.631,0,0,0-31.37,9.44c-3.737,2.143-7.41,4.759-9.482,8.536S242.633,86.584,246.266,89.844Z" transform="translate(-187.871 -59.486)" fill="#513420"/>
    <path id="패스_7028" data-name="패스 7028" d="M292.442,143.236c1.047,2.192,1.97,4.37,4.148,5.258,2.771,1.054,5.335-1.711,5.482-4.436a15.271,15.271,0,0,0,0-2.437.564.564,0,0,1,1.091-.224c1.627,3.669.029,8.706-4.26,9.538-4.411.917-7.217-3.678-7.527-7.376a.565.565,0,0,1,1.067-.323Z" transform="translate(-201.614 -80.199)" fill="#37230f"/>
    <path id="패스_7029" data-name="패스 7029" d="M336.585,135.718c1.047,2.191,1.97,4.37,4.147,5.258,2.771,1.054,5.336-1.711,5.482-4.435a15.192,15.192,0,0,0,0-2.438.564.564,0,0,1,1.092-.224c1.626,3.669.028,8.706-4.26,9.538-4.412.917-7.217-3.678-7.528-7.376a.565.565,0,0,1,1.068-.322Z" transform="translate(-212.826 -78.289)" fill="#37230f"/>
    <path id="패스_7030" data-name="패스 7030" d="M319.782,147.482c0-1.507,1.57-2.727,3.507-2.727s3.507,1.22,3.507,2.727-1.57,2.727-3.507,2.727S319.782,148.988,319.782,147.482Z" transform="translate(-208.831 -81.145)" fill="#c1735e"/>
    <g id="그룹_867" data-name="그룹 867" transform="translate(97.609 69.961)">
      <path id="패스_7031" data-name="패스 7031" d="M323.747,169.071a24.873,24.873,0,0,0-13.307,9.188c.234.135.469.266.707.388a20.393,20.393,0,0,0,11.744,1.99,22.466,22.466,0,0,0,15.347-9.182A18.2,18.2,0,0,0,323.747,169.071Z" transform="translate(-304.067 -157.14)" fill="#d78074"/>
      <path id="패스_7032" data-name="패스 7032" d="M338.59,157.858a7.079,7.079,0,0,0-10.566-3.4c-1.995,1.335-3.262,3.644-5.425,4.685-2.438,1.173-5.33.431-7.894-.432s-5.313-1.838-7.908-1.071c-3.55,1.05-5.491,5.3-4.74,8.928.7,3.362,3.223,6.094,6.213,7.823a24.873,24.873,0,0,1,13.307-9.188,18.2,18.2,0,0,1,14.491,2.383q.374-.525.716-1.072C338.333,164.023,339.705,160.841,338.59,157.858Z" transform="translate(-301.897 -153.269)" fill="#473122"/>
    </g>
    <circle id="타원_227" data-name="타원 227" cx="11.548" cy="11.548" r="11.548" transform="translate(69.331 84.691) rotate(-45)" fill="#c1735e"/>
    <path id="패스_7033" data-name="패스 7033" d="M256.2,167.24c-2.062-4.718-9.194-3.789-10.437.523a.767.767,0,0,0,1.141.765,4.118,4.118,0,0,0,.745-.91,4.573,4.573,0,0,1,.543-.6,3.012,3.012,0,0,1,.914-.591c.027-.01.052-.022.08-.031a5.216,5.216,0,0,1,4.79.274l.067.045a4.852,4.852,0,0,1,.783.811l.05.069C255.229,168.625,256.619,168.286,256.2,167.24Z" transform="translate(-190.026 -86.057)" fill="#be8a66"/>
    <path id="패스_7034" data-name="패스 7034" d="M199.408,357.749A4.185,4.185,0,0,0,197,358.1a6.65,6.65,0,0,0-3.344,2.007c-.388.524-.4,1.593.444,1.61.7-.081.7-.59.715-.9l0-.009.013-.034c.171-.322.107-.247.511-.6a13.708,13.708,0,0,1,3.235-1.695,2.9,2.9,0,0,1,.5-.116c.01,0,.006-.007.008-.01a.261.261,0,0,0,.066.006c-.056-.006-.01.013.04.014A.341.341,0,0,0,199.408,357.749Z" transform="translate(-176.73 -135.225)" fill="#be8a66"/>
    <path id="패스_7035" data-name="패스 7035" d="M184.511,356.352a30.54,30.54,0,0,0-4.2,1.769,5.139,5.139,0,0,0-2.268,2.093c-.231.478-.378,1.323.187,1.615a.584.584,0,0,0,.783-.525c.116-.409.033-.435.254-.771a7.637,7.637,0,0,1,2.969-2.324c.984-.539,1.981-.756,2.721-1.278A.4.4,0,0,0,184.511,356.352Z" transform="translate(-172.776 -134.888)" fill="#be8a66"/>
    <path id="패스_7036" data-name="패스 7036" d="M179.236,353.254a26.784,26.784,0,0,0-5.209,2.427,3.814,3.814,0,0,0-1.386,1.258,1.858,1.858,0,0,0-.221,1.58.586.586,0,0,0,.965.06c.08-.075.161-.346.125-.266.348-1.354,1.6-2.051,3.609-3.218.812-.457,1.735-.755,2.512-1.25A.377.377,0,0,0,179.236,353.254Z" transform="translate(-171.374 -134.101)" fill="#be8a66"/>
    <path id="패스_7037" data-name="패스 7037" d="M364.954,159.778a34.022,34.022,0,0,1-4.154,10.279,11.549,11.549,0,0,1,2.128-22.849A18.306,18.306,0,0,1,364.954,159.778Z" transform="translate(-216.92 -81.768)" fill="#c1735e"/>
    <path id="패스_7038" data-name="패스 7038" d="M314.911,472.848c-3.343,1.726-13.777-.871-16.505-1.658s-5.42-1.625-8.065-2.641a10.8,10.8,0,0,1-5.6-4.242c-.284-.424-.474-1.4-.5-.967-.16,3.026.656,5.488,2.976,6.574a74.01,74.01,0,0,0,9.468,3.608,65.675,65.675,0,0,0,9.767,2.311,16.9,16.9,0,0,0,4.478.141C313.958,475.617,315.235,472.68,314.911,472.848Z" transform="translate(-199.798 -162.04)" fill="#d1c3c8"/>
    <path id="패스_7039" data-name="패스 7039" d="M389.722,465.79c-1.955,1.146-6.66.565-7.89.473-2.821-.213-5.638-.565-8.425-1.05-2.624-.457-5.229-1.028-7.81-1.683a20.856,20.856,0,0,1-7-3.84c-.169-.143.142.988.258,1.2a7.311,7.311,0,0,0,2.193,2.586,14.465,14.465,0,0,0,3.311,1.754,48.286,48.286,0,0,0,8.406,2.3,74.489,74.489,0,0,0,9.064,1.227,16.614,16.614,0,0,0,4.351.074A4.311,4.311,0,0,0,389.722,465.79Z" transform="translate(-218.679 -161.137)" fill="#d1c3c8"/>
    <path id="패스_7040" data-name="패스 7040" d="M318.733,466.06a6.359,6.359,0,0,0-2.066-.391,11.878,11.878,0,0,0-2.028.03,10.656,10.656,0,0,0-2,.4,8.964,8.964,0,0,0-1.855.873.492.492,0,0,0,.378.9c.589-.175,1.191-.257,1.791-.383a13.739,13.739,0,0,1,1.746-.237,11.735,11.735,0,0,1,1.832,0c.608.047,1.206.217,1.813.239C319.062,467.506,319.445,466.364,318.733,466.06Z" transform="translate(-206.487 -162.652)" fill="#d1c3c8"/>
    <path id="패스_7041" data-name="패스 7041" d="M318.063,460.905a5.165,5.165,0,0,0-2.055-.474,10.22,10.22,0,0,0-5.627,1.079.527.527,0,0,0,.4.959,12.907,12.907,0,0,1,3.419-.645,12.36,12.36,0,0,1,1.742.066c.266.027.53.063.793.112a4.862,4.862,0,0,0,.979.172A.687.687,0,0,0,318.063,460.905Z" transform="translate(-206.379 -161.317)" fill="#d1c3c8"/>
    <path id="패스_7042" data-name="패스 7042" d="M392.781,456.606a3.32,3.32,0,0,0-1.4-.045c-.447.037-.894.089-1.337.161a11.074,11.074,0,0,0-2.607.766,7.313,7.313,0,0,0-3.529,3.011c-.351.61.521,1.075.921.539a7.173,7.173,0,0,1,3.259-2.344,11.247,11.247,0,0,1,2.27-.545c.39-.055.783-.094,1.176-.12a3.846,3.846,0,0,0,1.249-.151A.666.666,0,0,0,392.781,456.606Z" transform="translate(-225.098 -160.332)" fill="#d1c3c8"/>
    <path id="패스_7043" data-name="패스 7043" d="M391.749,452.919a5.134,5.134,0,0,0-2.349-.447,12.709,12.709,0,0,0-2.176.078,11.636,11.636,0,0,0-4.321,1.338.527.527,0,0,0,.4.959,16.913,16.913,0,0,1,4.061-.879,14.66,14.66,0,0,1,2.031-.006,10.884,10.884,0,0,0,2.19.171C392.193,454.047,392.184,453.192,391.749,452.919Z" transform="translate(-224.8 -159.303)" fill="#d1c3c8"/>
  </g>
</svg>
