<svg xmlns="http://www.w3.org/2000/svg" xmlns:xlink="http://www.w3.org/1999/xlink" width="393.736" height="304.091" viewBox="0 0 393.736 304.091">
  <defs>
    <clipPath id="clip-path">
      <rect id="사각형_141" data-name="사각형 141" width="368.017" height="303.405" transform="translate(23.728 18.642)" fill="none"/>
    </clipPath>
    <clipPath id="clip-path-2">
      <path id="패스_7278" data-name="패스 7278" d="M1045.1,259.717a9.064,9.064,0,0,0-7.547-4.673,17.76,17.76,0,0,0-8.942,2.11c-2.256,1.093-4.48,2.456-6.978,2.671-5.657.487-10.347-4.969-16.021-5.161a9.623,9.623,0,0,0-8.206,4.394,10.749,10.749,0,0,0-.97,9.344c1.207,3.331,3.919,5.914,6.883,7.857a30.988,30.988,0,0,0,34.821-.582,20.234,20.234,0,0,0,6.185-6.527C1045.791,266.508,1046.766,263.181,1045.1,259.717Z" transform="translate(-995.79 -254.659)" fill="none"/>
    </clipPath>
  </defs>
  <g id="center_pink-illust" transform="translate(-11774.95 -861.944)">
    <g id="illust." transform="translate(11769.498 843.988)">
      <g id="그룹_919" data-name="그룹 919" transform="translate(0 0)" clip-path="url(#clip-path)">
        <g id="그룹_918" data-name="그룹 918" transform="translate(23.727 18.642)">
          <g id="그룹_910" data-name="그룹 910" transform="translate(99.453)">
            <path id="패스_7224" data-name="패스 7224" d="M1228.841,239.63c7.544-4.458,14.528-10.126,19.412-17.4s7.525-16.286,6.1-24.932c-1.3-7.883-5.767-14.843-10.375-21.369a21.184,21.184,0,0,0-3.509-4.141c-3.8-3.2-9.68-3.786-12.419-7.927a2.8,2.8,0,0,1-.555-1.5c0-1.394,1.6-2.185,2.969-2.442a14.669,14.669,0,0,1,7.751.653c-3.224-5.48-9.663-15.569-8.779-19.487.241-1.067,1.618-3.156,3.892-1.992,4.62,2.363,9.253,8.034,12.047,12.405a54.266,54.266,0,0,1-6.911-15.508,8.59,8.59,0,0,1-.265-4.334,3.445,3.445,0,0,1,3.089-2.654c3.345,0,5.621,7.011,13.764,16.359-1.941-4.484-3.183-11.33-2.555-15.888.4-2.891,4.182-4.42,6.4-.465,2.937,5.231,6.208,15.443,7.872,16.082,3.661,1.408,8.323,6.571,8.323,12.774,6.658,10.5,13.062,20.388,17.765,31.893s7.353,25.852,5.57,38.152c-1.987,13.708-14.094,26.865-23.953,36.593s-18.539,14.734-31.214,20.321C1237.457,271.043,1234.057,256.5,1228.841,239.63Z" transform="translate(-1030.427 -83.794)" fill="#bf7e67"/>
            <path id="패스_7225" data-name="패스 7225" d="M1040.846,389.26c-.717,2.882-.985,6.38,1.165,8.429a8.7,8.7,0,0,0,4.147,1.823,106.226,106.226,0,0,0,24.935,2.788,4.92,4.92,0,0,0,2.2-.362,5.073,5.073,0,0,0,2.052-2.82c11.067-26.764,21.37-54.408,39.315-77.142,1.517-1.923,3.145-3.935,3.5-6.358.379-2.584-.763-5.131-1.984-7.44-3.2-6.057-12.953-18.507-12.372-19.194S1057.981,320.393,1040.846,389.26Z" transform="translate(-1040.326 -75.207)" fill="#bf7e67"/>
            <g id="그룹_905" data-name="그룹 905" transform="translate(24.133)">
              <path id="패스_7226" data-name="패스 7226" d="M1203.153,183.07c-.61-2.274-1.716-24.164-2.4-37.546a15.634,15.634,0,0,1-6.1-2.022,11.483,11.483,0,0,1-6.391,3.917,10.168,10.168,0,0,1-11.3-6.159,9.643,9.643,0,0,1-9.118.821,9.793,9.793,0,0,1-5.58-8.276c-.979,4.727-5.064,8.728-9.708,8.907a9.135,9.135,0,0,1-9.16-8.8c-1.127,5-3.1,10.066-6.96,13.245s-10.034,3.769-13.519.147c-1.537,2.453-3.064,5.275-5.57,6.612a3.886,3.886,0,0,1-2.675.495c-1.916-.453-2.779-2.727-3.327-4.685a25.512,25.512,0,0,1-10.4,9.8c.147,12.182,2.064,22.332,3.38,34.587-2.169-2.474-7.086-3.738-11.455-2.253a10.73,10.73,0,0,0-3.011,1.579c-6.633,4.906-7.591,16.562-3.232,23.564s14.151,9.729,23.016,6.749c5.043,10.276,15.52,17.183,26.638,19.931.116.032.232.053.347.084q-.79,5.954-1.021,11.982c-.031.642-.053,1.274-.063,1.906a7.587,7.587,0,0,0,.221,2.485,6.925,6.925,0,0,0,3.19,3.464,31.783,31.783,0,0,0,35.64-1.6,5.36,5.36,0,0,0,1.811-2.043,5.88,5.88,0,0,0,.295-2.232c-.01-2-.084-4-.211-6q-.3-4.928-1.063-9.813a73.537,73.537,0,0,0,19.32-10.055c6.865-4.938,15.288-18.468,15.678-29.986A26.093,26.093,0,0,0,1203.153,183.07Z" transform="translate(-1062.15 -83.414)" fill="#bf7e67"/>
              <path id="패스_7227" data-name="패스 7227" d="M1230.23,342.756c.6,3.959,1.148,7.96,1.611,11.908a286.692,286.692,0,0,1-28.312-17.552,7.177,7.177,0,0,0-2.927-1.463,6.675,6.675,0,0,0-3.274.547c-9.96,3.643-18.436,11.161-28.86,13.056a7.446,7.446,0,0,1-3.337.032c-2.338-.653-3.654-3.064-4.559-5.306-4.58-11.424-4.9-24.206-9.529-35.6a142.022,142.022,0,0,1-29.723,2.043c-1.98-.074-4.2-.305-5.464-1.822-1.011-1.211-1.127-2.906-1.169-4.475-.474-17.225-.295-33.134,2.79-49.812,1.484-.632,2.969-1.232,4.432-1.769-.253,20.868,5.707,43.053,6.054,43.368a2.056,2.056,0,0,0,1.9.105c9.729-2.832,18.9-7.7,28.923-9.171,1.885-.274,4.022-.347,5.443.916a6.538,6.538,0,0,1,1.558,2.632c4.464,11.676,7.76,41.263,8.139,41.4.432,0,13.825-10.9,24.09-18.436a4.5,4.5,0,0,1,4.1-.748,5.582,5.582,0,0,1,2.011,1.6Q1217.179,328.49,1230.23,342.756Z" transform="translate(-1060.536 -77.134)" fill="#f7c147"/>
              <path id="패스_7228" data-name="패스 7228" d="M1118.308,324.694c-4.38,6.349-8.913,12.822-14.873,17.405-.484.684-35.44-15.667-39.462-39.367-.168-1.021-.853-1.948-.706-2.98a5.311,5.311,0,0,1,1.011-2.2c7.7-11.613,18.931-20.342,30.091-28.67a135.789,135.789,0,0,1,25.817-14.656c-3.085,16.678-3.264,32.587-2.791,49.812.042,1.569.158,3.264,1.169,4.475,1.263,1.516,3.485,1.748,5.465,1.822a142.016,142.016,0,0,0,29.723-2.043c4.633,11.392,4.948,24.174,9.529,35.6.906,2.243,2.222,4.654,4.559,5.307a7.448,7.448,0,0,0,3.338-.032c10.423-1.9,18.9-9.413,28.86-13.056a6.675,6.675,0,0,1,3.274-.547,7.179,7.179,0,0,1,2.927,1.464,286.673,286.673,0,0,0,28.312,17.552c1.506,12.614,2.222,24.774,1.147,33.724-.231,1.969-80.051,6.138-118.924,7.812C1113.037,370.021,1115.2,350.868,1118.308,324.694Z" transform="translate(-1063.246 -77.045)" fill="#00bbb4"/>
              <path id="패스_7229" data-name="패스 7229" d="M1133.56,252.949a7.59,7.59,0,0,0,.221,2.485,6.926,6.926,0,0,0,3.19,3.464,31.783,31.783,0,0,0,35.64-1.6,5.357,5.357,0,0,0,1.811-2.043,5.88,5.88,0,0,0,.295-2.232c-.01-2-.084-4-.21-6a161.9,161.9,0,0,0,55.982-23.543,2.646,2.646,0,0,1,1.832-.642c.727.137,1.232.874,1.653,1.558a162.618,162.618,0,0,1,21.342,54.445,8.021,8.021,0,0,1,.105,3.9,6.691,6.691,0,0,1-2.38,3.022c-8.381,7.1-21.321,14.277-30.923,18.9,1.379,5.317,2.569,10.424,3.359,14.488,1.464,7.549,3.043,16.267,4.38,25.185q-13.045-14.277-26.112-28.544a5.587,5.587,0,0,0-2.011-1.6,4.5,4.5,0,0,0-4.1.748c-10.266,7.539-23.658,18.436-24.09,18.436-.379-.137-3.674-29.723-8.139-41.4a6.537,6.537,0,0,0-1.558-2.632c-1.421-1.263-3.559-1.19-5.443-.916-10.024,1.474-19.194,6.338-28.923,9.171a2.056,2.056,0,0,1-1.9-.105c-.348-.316-6.307-22.5-6.054-43.368a51.357,51.357,0,0,1,12.013-3.074h.074C1133.592,251.685,1133.571,252.317,1133.56,252.949Z" transform="translate(-1060.164 -78.706)" fill="#00bbb4"/>
              <path id="패스_7230" data-name="패스 7230" d="M1217.518,120.848c-3.169-2.39-7.234-3.253-11.9-2.369a11.745,11.745,0,0,0,2.843-10.487,12.771,12.771,0,0,0-6.655-8.549c-5.064-2.559-11.055-1.5-16.551-.211a2.2,2.2,0,0,1-1.6-.032c-.727-.411-.8-1.432-.874-2.285-.516-5.9-5.77-10.918-11.466-10.971-4.906-.032-9.318,3.138-12.792,6.738-1.537,1.59-3.854,3.4-5.581,2.053-1-.769-1.169-2.211-1.706-3.38a7.417,7.417,0,0,0-4.759-3.717,13.269,13.269,0,0,0-12.8,3.053c-3.38,3.2-5,8.3-4.738,14.561a14.593,14.593,0,0,0-24-.19,10.332,10.332,0,0,0-2.169,6.054,6.045,6.045,0,0,0,3.022,5.38,13.877,13.877,0,0,0-12.172,5.064c-2.927,3.622-3.98,8.792-2.716,11.856a9.289,9.289,0,0,0-10.624,5.875c-1.411,4.317,1.369,9.729,5.7,10.476-3.411,3.18-3.032,9.7.726,12.414a3.538,3.538,0,0,0,2.243.79,1.311,1.311,0,0,0,.348-.042,2.608,2.608,0,0,0,.958-.463,3.691,3.691,0,0,0,1.853,1.558,5.915,5.915,0,0,0,3.032.063,22.214,22.214,0,0,0,6.022-2.032,25.513,25.513,0,0,0,10.4-9.8c.548,1.958,1.411,4.233,3.327,4.685a3.886,3.886,0,0,0,2.675-.495c2.506-1.337,4.032-4.159,5.57-6.612,3.485,3.622,9.644,3.043,13.519-.147s5.833-8.244,6.96-13.245a9.135,9.135,0,0,0,9.16,8.8c4.643-.179,8.729-4.18,9.708-8.907a9.793,9.793,0,0,0,5.58,8.276,9.643,9.643,0,0,0,9.118-.821,10.168,10.168,0,0,0,11.3,6.159,11.482,11.482,0,0,0,6.391-3.917,15.635,15.635,0,0,0,6.1,2.022c.3.042.6.074.895.105a14.274,14.274,0,0,0,8.718-1.442c2.59-1.537,4.485-4.664,3.927-7.718,3.917.063,7.36-3.58,7.834-7.623A11.937,11.937,0,0,0,1217.518,120.848Z" transform="translate(-1062.365 -85.945)" fill="#1d2c4d"/>
              <path id="패스_7231" data-name="패스 7231" d="M1091.655,160.2a5.914,5.914,0,0,0,3.032.063,22.219,22.219,0,0,0,6.022-2.032c.148,12.182,2.064,22.332,3.38,34.587-2.169-2.474-7.086-3.738-11.456-2.253a315.817,315.817,0,0,1-4.138-31.418,1.307,1.307,0,0,0,.347-.042,2.612,2.612,0,0,0,.958-.463A3.689,3.689,0,0,0,1091.655,160.2Z" transform="translate(-1061.911 -82.122)" fill="#1d2c4d"/>
              <path id="패스_7232" data-name="패스 7232" d="M1173.582,242.93c-.2-2.155-.445-4.305-.778-6.445a70.239,70.239,0,0,1-38.8,1.853q-.2,1.54-.37,3.086C1145.924,247.966,1160.745,247.76,1173.582,242.93Z" transform="translate(-1059.523 -77.983)" fill="#8a4a85" opacity="0.21" style="mix-blend-mode: multiply;isolation: isolate"/>
            </g>
            <g id="그룹_906" data-name="그룹 906" transform="translate(175.823 195.15)">
              <path id="패스_7233" data-name="패스 7233" d="M1208.251,271.54c4.481,8.882,6.82,18.568,9.636,28.052,1.159,4.1,2.456,10.2,3.487,14.407,1.027,4.167,1.9,10.273,2.713,14.545,3.242,19.418,6.7,39.165,4.491,58.913a.5.5,0,0,1-1-.12c1.173-14.678-1.041-29.392-3.046-43.912-1.109-7-2.607-14.751-3.761-21.788-1.171-7.274-3.028-14.388-4.682-21.567-2.586-9.4-4.741-19.088-8.7-28.009a.5.5,0,1,1,.858-.52Z" transform="translate(-1207.317 -271.292)" fill="#218b8a"/>
            </g>
            <path id="패스_7234" data-name="패스 7234" d="M1084.275,127.643a3.273,3.273,0,0,0-4.721-.683,1.581,1.581,0,0,0-.52.649.783.783,0,0,0,.117.792,1.075,1.075,0,0,0,.408.245A4.6,4.6,0,0,0,1084.275,127.643Z" transform="translate(-1038.282 -83.813)" fill="#1d2c4d"/>
            <path id="패스_7235" data-name="패스 7235" d="M1085.585,126.533a4.329,4.329,0,0,1-1.272-6.849,2,2,0,0,1,2.22-.682,2.146,2.146,0,0,1,.953,1.679,6.676,6.676,0,0,1-.709,4.1A12.931,12.931,0,0,1,1085.585,126.533Z" transform="translate(-1038.061 -84.204)" fill="#1d2c4d"/>
            <path id="패스_7236" data-name="패스 7236" d="M1159.209,182.784a4.318,4.318,0,0,0-3.446-2.7,7,7,0,0,0-4.424.5,6.038,6.038,0,0,0-2.722,2.221,3.8,3.8,0,0,0-.385,3.41,3.969,3.969,0,0,0,2.62,2.161,7.649,7.649,0,0,0,3.481.034,7.36,7.36,0,0,0,3.693-1.644A3.816,3.816,0,0,0,1159.209,182.784Z" transform="translate(-1034.632 -80.975)" fill="#b05e72" opacity="0.4" style="mix-blend-mode: multiply;isolation: isolate"/>
            <path id="패스_7237" data-name="패스 7237" d="M1153.564,179.642c2.236-.139,5.022.776,5.671,3.229A4.466,4.466,0,0,1,1156,188.4a.253.253,0,0,1-.162-.475c2.868-1.194,3.564-5.353.629-6.88a9.445,9.445,0,0,0-2.94-.908.253.253,0,0,1,.034-.5Z" transform="translate(-1034.35 -80.99)" fill="#82483d"/>
            <path id="패스_7238" data-name="패스 7238" d="M1151.09,187.967a1.749,1.749,0,0,0-1.464-1.608.451.451,0,0,0-.586.517,1.345,1.345,0,0,0,.7.95A1.3,1.3,0,0,0,1151.09,187.967Z" transform="translate(-1034.576 -80.634)"/>
            <g id="그룹_907" data-name="그룹 907" transform="translate(133.114 86.198)">
              <path id="패스_7239" data-name="패스 7239" d="M1166.8,175.294c0-2.815,1.961-5.1,4.38-5.1s4.38,2.283,4.38,5.1-1.961,5.1-4.38,5.1S1166.8,178.109,1166.8,175.294Z" transform="translate(-1166.75 -167.687)"/>
              <path id="패스_7240" data-name="패스 7240" d="M1167.28,177.724a7.8,7.8,0,0,1-.2-5.066,6.888,6.888,0,0,1,2.311-3.741,4.885,4.885,0,0,1,4.209-.958,1.469,1.469,0,0,1,.727.385.658.658,0,0,1,.114.767c-.239.372-.792.273-1.231.225a3.472,3.472,0,0,0-2.974,1.321,5.072,5.072,0,0,0-1.04,3.161c0,.631.082,1.261.027,1.89s1.475,1.278.98,1.669S1167.511,178.409,1167.28,177.724Z" transform="translate(-1166.753 -167.813)"/>
            </g>
            <g id="그룹_908" data-name="그룹 908" transform="translate(91.944 92.55)">
              <path id="패스_7241" data-name="패스 7241" d="M1127.7,181.327c0-2.815,1.96-5.1,4.379-5.1s4.38,2.283,4.38,5.1-1.96,5.1-4.38,5.1S1127.7,184.143,1127.7,181.327Z" transform="translate(-1127.649 -173.72)"/>
              <path id="패스_7242" data-name="패스 7242" d="M1128.178,183.757a7.8,7.8,0,0,1-.2-5.065,6.891,6.891,0,0,1,2.312-3.742,4.886,4.886,0,0,1,4.21-.958,1.469,1.469,0,0,1,.725.385.654.654,0,0,1,.114.766c-.238.372-.791.273-1.23.225a3.472,3.472,0,0,0-2.973,1.321,5.062,5.062,0,0,0-1.04,3.161c0,.631.081,1.262.026,1.89s1.475,1.278.981,1.669S1128.409,184.442,1128.178,183.757Z" transform="translate(-1127.651 -173.846)"/>
            </g>
            <path id="패스_7243" data-name="패스 7243" d="M1129.51,162.233a3.47,3.47,0,0,0-3.2-2.139,6.615,6.615,0,0,0-2.99.79,15.507,15.507,0,0,0-3.05,1.943,6.754,6.754,0,0,0-2.412,3.267,3.235,3.235,0,0,0,1.237,3.63,3.948,3.948,0,0,0,3.988-.513,36.436,36.436,0,0,1,3.448-2.447,6.826,6.826,0,0,0,2.427-1.376,4.291,4.291,0,0,0,.753-2.027A2.656,2.656,0,0,0,1129.51,162.233Z" transform="translate(-1036.232 -82.023)" fill="#131f3c"/>
            <path id="패스_7244" data-name="패스 7244" d="M1181.717,155.822a5.556,5.556,0,0,0-2.784-2.342,10.954,10.954,0,0,0-3.622-.71,7.125,7.125,0,0,0-4.036.716,3.112,3.112,0,0,0-1.539,3.515,3.456,3.456,0,0,0,2.387,1.943c1.024.3,2.1.329,3.15.532,1.024.2,2.016.561,3.052.684a3.669,3.669,0,0,0,2.939-.743A2.989,2.989,0,0,0,1181.717,155.822Z" transform="translate(-1033.489 -82.412)" fill="#131f3c"/>
            <path id="패스_7245" data-name="패스 7245" d="M1104.33,201.109a9.361,9.361,0,0,0-13.053-1.514l-1.1.446a.284.284,0,0,1-.378-.184,2.165,2.165,0,0,1,.357-1.77,8.074,8.074,0,0,1,2.879-2.552c4.531-2.644,11.255-.267,12.642,4.89a.774.774,0,0,1-1.341.684Z" transform="translate(-1037.713 -80.206)" fill="#a56450"/>
            <path id="패스_7246" data-name="패스 7246" d="M1247.948,157.541a12.764,12.764,0,0,1,12.261-9.308.777.777,0,0,1,.295,1.477,36.066,36.066,0,0,0-6.068,3.647,38.361,38.361,0,0,0-5.145,4.865.783.783,0,0,1-1.344-.682Z" transform="translate(-1029.346 -82.651)" fill="#a56450"/>
            <path id="패스_7247" data-name="패스 7247" d="M1086.172,147.792c-3.434,3.224-2.474,10.937,2.4,12.048,1.979-.084,4.816-4.555,4.419-6.559-.13-.485-.859-.574-1.3-.363a2.749,2.749,0,0,0-1.212,1.768c-.622,1.948-.332,5.024,1.617,5.966a5.3,5.3,0,0,0,3.33-.032,22.563,22.563,0,0,0,10.16-5.3,24.639,24.639,0,0,0,4.93-5.933,1.031,1.031,0,0,1,1.873.237c.561,1.76,1.07,3.819,2.925,4.038,1.859-.057,3.339-1.594,4.489-3.083.838-1.106,1.561-2.35,2.356-3.6a.965.965,0,0,1,1.332-.3c1.622,2.107,4.446,2.586,7.018,2.292,7.715-.849,13.005-10.877,12.607-18.078a.5.5,0,0,1,1-.084,18.4,18.4,0,0,1-1.22,8.458c-1.8,4.643-5.1,9.265-9.989,10.984-3.606,1-8.209.982-10.751-2.262l1.632,0c-1.591,2.569-3.093,5.442-5.946,7-4.082,2.221-6.6-1.3-7.427-4.81l1.873.238a25.951,25.951,0,0,1-12.41,10.929c-2.708.956-5.755,2.254-8.628,1.107-3.647-1.909-3.9-7.512-1.424-10.468,2.694-2.543,6.074-.091,4.729,3.26a11.3,11.3,0,0,1-3.677,5.324,3.489,3.489,0,0,1-2.391.858c-6.2-1.2-7.422-10.513-3-14.373a.5.5,0,0,1,.682.736Z" transform="translate(-1038.077 -83.596)" fill="#00122f"/>
            <path id="패스_7248" data-name="패스 7248" d="M1158.858,133.988c.538,6.732,8.1,10.633,13.676,6.786a.874.874,0,0,1,1.342.392c2.287,5.876,10.443,7.508,14.921,3.087,2.8-2.45,5.826-8.416,3.055-11.62-2.316-2.234-4.659,1.271-4.487,3.643-.076,4.829,4.555,7.858,8.952,8.5,3.108.544,6.422.6,9.209-.7a7.341,7.341,0,0,0,4.36-7.311.5.5,0,0,1,.988-.181c.717,3.578-1.566,7.175-4.705,8.778-7.375,3.471-20.619.711-20.785-9.092-.071-2.792,1.728-6.4,5.017-6.408a4.957,4.957,0,0,1,4.379,3.871c1.2,6.246-3.371,12.818-9.3,14.637a11.048,11.048,0,0,1-13.238-6.608l1.342.392a10.124,10.124,0,0,1-15.731-8.117.5.5,0,0,1,1-.056Z" transform="translate(-1034.11 -83.622)" fill="#00122f"/>
            <circle id="타원_236" data-name="타원 236" cx="13.182" cy="13.182" r="13.182" transform="translate(68.855 125.794) rotate(-45)" fill="#d67188" opacity="0.4" style="mix-blend-mode: multiply;isolation: isolate"/>
            <ellipse id="타원_237" data-name="타원 237" cx="13.182" cy="13.182" rx="13.182" ry="13.182" transform="matrix(0.474, -0.88, 0.88, 0.474, 137.696, 123.642)" fill="#d67188" opacity="0.4" style="mix-blend-mode: multiply;isolation: isolate"/>
            <g id="그룹_909" data-name="그룹 909" transform="translate(94.536 108.456)">
              <path id="패스_7249" data-name="패스 7249" d="M1174.952,207.319a39.028,39.028,0,0,1-6.932,4.2,34.842,34.842,0,0,1-6.351,2.53,34.281,34.281,0,0,1-6.459.977,36.183,36.183,0,0,1-12.205-.87,23.007,23.007,0,0,1-4.7-1.891,23.257,23.257,0,0,1,8.812-7.2,29.2,29.2,0,0,1,13-2.7C1165.434,202.447,1170.924,203.954,1174.952,207.319Z" transform="translate(-1129.68 -188.243)" fill="#da7f75"/>
              <path id="패스_7250" data-name="패스 7250" d="M1181.961,193.3c1.766,4.573-1.1,9-3.73,12.04a20.161,20.161,0,0,1-2.846,2.688c-4.027-3.365-9.518-4.872-14.828-4.946a29.193,29.193,0,0,0-13,2.7,23.257,23.257,0,0,0-8.812,7.2c-.385-.193-.747-.4-1.118-.626a16.44,16.44,0,0,1-6.235-6.275,10.248,10.248,0,0,1-.563-8.654,7.949,7.949,0,0,1,6.38-4.778c2.567-.23,5.056.919,7.287,2.235s4.4,2.827,6.906,3.448a12.281,12.281,0,0,0,10.44-2.625c1.265-1.031,2.355-2.267,3.638-3.274,2.519-1.957,5.028-3.343,8.211-3.466C1177.079,188.825,1180.877,190.479,1181.961,193.3Z" transform="translate(-1130.114 -188.953)"/>
            </g>
            <path id="패스_7251" data-name="패스 7251" d="M1133.672,249.138c1.22,6.747,8.318,9.744,14.559,10.348,6.369.711,14.092.636,19.363-2.92a14.544,14.544,0,0,0,5.987-10.858,1.271,1.271,0,0,1,1.379-1.286,1.255,1.255,0,0,1,1.12,1.054,16.058,16.058,0,0,1-.841,8.023c-2.841,8.123-12.075,11.552-20.009,11.564-10.007.5-24.6-3.641-24.066-16.021a1.258,1.258,0,0,1,2.508.1Z" transform="translate(-1035.522 -77.564)" fill="#0e8c83"/>
          </g>
          <g id="그룹_917" data-name="그룹 917" transform="translate(0 89.967)">
            <g id="그룹_912" data-name="그룹 912" transform="translate(0 15.077)">
              <g id="그룹_911" data-name="그룹 911" transform="translate(5.061 8.59)">
                <path id="패스_7252" data-name="패스 7252" d="M1084.725,250.791a11.1,11.1,0,0,0-3.693-.861,12.086,12.086,0,0,0-9.48,3.6c-1.2-3.933-10.175-10.787-8.049-24.929.218-1.418.737-5.922.261-7.276-.592-1.688-2.723-2.114-4.5-2.352-6.505-.865-15.311-1.447-20.737-5.128s-10.126-13.485-11.04-19.976c-3.351,10.115-12.643,21.571-23.171,24.068a96.476,96.476,0,0,1-11.071,1.663,2.624,2.624,0,0,0-1.439.457,2.773,2.773,0,0,0-.605,2.136c-.27,13.577-6.467,18.4-8.334,19.967a25.773,25.773,0,0,0-6.613,8.577,11.779,11.779,0,0,0-10.884-6.266c-.358.012-.7.034-1.061.077a15.914,15.914,0,0,0-11.294,7.516c-3.486,5.59-2.912,12.966.648,18.519,4.147,6.451,13.422,7.891,17.973,6.586,6.912,15.79,24.031,24,35.172,27.449-.142.848-.282,1.727-.423,2.585-.309,1.874-.609,3.675-.876,4.842-.149.595,5.729,8.812,17.021,8.449,7.008-.225,13.119-2.824,15.837-8.716-.421-1.63-.7-3.148-1.023-4.613-.042-.217-.232-.892-.458-1.678.022-.006.044-.01.066-.016a62.865,62.865,0,0,0,20.329-9.6c3-2.129,11.38-10.394,14.722-15.9,2.916,1.276,5.488.982,8.476-.125,6.329-2.373,9.938-7.082,11.489-13.221S1090.546,253.258,1084.725,250.791Z" transform="translate(-950.675 -193.87)" fill="#a85643"/>
                <path id="패스_7253" data-name="패스 7253" d="M1084.725,250.791a11.1,11.1,0,0,0-3.693-.861,12.086,12.086,0,0,0-9.48,3.6c-1.2-3.933-10.175-10.787-8.049-24.929.218-1.418.737-5.922.261-7.276-.592-1.688-2.723-2.114-4.5-2.352-6.505-.865-15.311-1.447-20.737-5.128s-10.126-13.485-11.04-19.976c-3.351,10.115-12.643,21.571-23.171,24.068a96.476,96.476,0,0,1-11.071,1.663,2.624,2.624,0,0,0-1.439.457,2.773,2.773,0,0,0-.605,2.136c-.27,13.577-6.467,18.4-8.334,19.967a25.773,25.773,0,0,0-6.613,8.577,11.779,11.779,0,0,0-10.884-6.266c-.358.012-.7.034-1.061.077a15.914,15.914,0,0,0-11.294,7.516c-3.486,5.59-2.912,12.966.648,18.519,4.147,6.451,13.422,7.891,17.973,6.586,6.912,15.79,24.031,24,35.172,27.449-.142.848-.282,1.727-.423,2.585-.309,1.874-.609,3.675-.876,4.842-.149.595,5.729,8.812,17.021,8.449,7.008-.225,13.119-2.824,15.837-8.716-.421-1.63-.7-3.148-1.023-4.613-.042-.217-.232-.892-.458-1.678.022-.006.044-.01.066-.016a62.865,62.865,0,0,0,20.329-9.6c3-2.129,11.38-10.394,14.722-15.9,2.916,1.276,5.488.982,8.476-.125,6.329-2.373,9.938-7.082,11.489-13.221S1090.546,253.258,1084.725,250.791Z" transform="translate(-950.675 -193.87)" fill="#a85643"/>
              </g>
              <path id="패스_7254" data-name="패스 7254" d="M1081.917,225.975c1.315,8.131,1.189,16.647-1.618,24.386a12.087,12.087,0,0,0-9.48,3.6c-1.2-3.933-10.175-10.787-8.049-24.929.218-1.418.737-5.922.261-7.276-.592-1.688-2.723-2.114-4.5-2.352-6.506-.865-15.31-1.447-20.737-5.128s-10.126-13.485-11.04-19.976c-3.352,10.115-12.643,21.57-23.171,24.068a96.465,96.465,0,0,1-11.071,1.663,2.624,2.624,0,0,0-1.439.457,2.774,2.774,0,0,0-.605,2.136c-.27,13.577-6.467,18.4-8.334,19.967a25.776,25.776,0,0,0-6.613,8.577,11.779,11.779,0,0,0-10.884-6.266l0-.569a52.329,52.329,0,0,1,11.084-35.678,63.56,63.56,0,0,1,13.226-12.265c10.465-7.4,23.662-12.411,36.48-8.547,5.718-3.018,12.669-2.387,18.946-.84,12.7,3.142,24.937,10.238,31.609,21.5A49.711,49.711,0,0,1,1081.917,225.975Z" transform="translate(-944.882 -185.712)" fill="#00112e"/>
              <path id="패스_7255" data-name="패스 7255" d="M1035.1,304.237c-.195-.9-.377-1.781-.564-2.634-.113-.576-.246-1.13-.392-1.694a53,53,0,0,1-25.33.445c-1.412-.323-3.038-.744-4.814-1.3-.06.357-.119.724-.178,1.089C1012.942,305.9,1024.622,306.888,1035.1,304.237Z" transform="translate(-942.804 -179.717)" fill="#8a4a85" opacity="0.21" style="mix-blend-mode: multiply;isolation: isolate"/>
              <path id="패스_7256" data-name="패스 7256" d="M980.745,353.138c-9.042-.446-14.409-4.214-21.061-9.289-1.339-1.02-2.733-2.1-4.223-3.213a2.723,2.723,0,0,1-1.1-1.292,2.644,2.644,0,0,1,.323-1.728c11.187-24.283,28.346-35.877,51.477-34.978h0c-.309,1.875-.575,2.539-.842,3.707-.15.595,5.729,8.812,17.021,8.449,7.008-.225,13.119-2.824,15.838-8.716-.421-1.63-.381-1.684-.7-3.148h0c21.374-5.27,41.828,6.093,55.323,23.483.923,1.193,1.842,2.553,1.732,4.064a6.286,6.286,0,0,1-1.154,2.775,56.736,56.736,0,0,1-3.264,4.645c-5.1,6.579-10.442,10.091-18.6,14.082,2.907,9.513,7.046,23.75,7.7,26.921a4.125,4.125,0,0,1,.164,1.207c-.347.675-18.462,11.452-61.449,9.569-21.869-.951-31.825-4.581-41.209-9.125-.279-.139-.557-.266-.835-.405-.524-.246-1.16-.363-1.45-.859a2.487,2.487,0,0,1,.005-1.823C976.092,369.933,978.137,361.8,980.745,353.138Z" transform="translate(-945.422 -179.581)" fill="#f7c147"/>
              <path id="패스_7257" data-name="패스 7257" d="M1102.74,377.473a3.958,3.958,0,0,1,.336,2.581,3.881,3.881,0,0,1-1.7,1.783c-5.095,3.4-25.5-1.827-25.955-2.37-1.337-1.59-2.546-6.092-3.882-7.682-.65-3.17-3.012-12.112-5.919-21.625,8.162-3.991,13.505-7.5,18.6-14.082C1090.106,344.842,1099.028,367.543,1102.74,377.473Z" transform="translate(-939.535 -177.759)" fill="#a85643"/>
              <path id="패스_7258" data-name="패스 7258" d="M981.191,351.018c-2.608,8.659-4.653,16.795-6.317,24.327a2.486,2.486,0,0,0-.005,1.823c.29.5.926.613,1.45.859.278.139.556.266.835.405-.767,2.026-1.523,4.062-2.279,6.089a3.482,3.482,0,0,1-.869,1.492,3.022,3.022,0,0,1-2.016.529,26.012,26.012,0,0,1-8.595-1.915,162.082,162.082,0,0,1-15.354-6.407,2.759,2.759,0,0,1-1.778-4.209,260.155,260.155,0,0,1,13.869-32.28C966.783,346.8,972.149,350.571,981.191,351.018Z" transform="translate(-945.869 -177.46)" fill="#a85643"/>
            </g>
            <path id="패스_7259" data-name="패스 7259" d="M1073.182,377.328c-4.405-14.71-10.52-35.287-15.8-49.692a.5.5,0,0,1,.916-.41c3.578,7.046,6.075,14.544,8.441,22.052,2.271,7.542,6.223,20.463,7.549,28.25a.5.5,0,0,1-.983.2Z" transform="translate(-939.973 -163.165)" fill="#b2862f"/>
            <path id="패스_7260" data-name="패스 7260" d="M987.656,329.9c-3.566,11.137-7.434,23.371-10.515,34.582l-3.209,11.626a.5.5,0,0,1-.98-.217c.651-3.985,1.483-7.938,2.406-11.869a222.2,222.2,0,0,1,6.887-23.22c1.382-3.8,2.828-7.566,4.473-11.255a.5.5,0,0,1,.939.354Z" transform="translate(-944.437 -163.043)" fill="#b2862f"/>
            <path id="패스_7261" data-name="패스 7261" d="M1046.227,193.419c-1.978-6.552.885-12.88,5.814-17.627,4.313-4.154,13.167-6.346,19.4-1.629a9.373,9.373,0,0,0,2.1,1.218,17.781,17.781,0,0,1,10.978,12.54c2.953,12.543-7.875,18.824-10.115,19.984-5.2,2.692-11.786,1.794-16.722-1.357S1047.891,198.935,1046.227,193.419Z" transform="translate(-940.594 -171.386)" fill="#00112e"/>
            <path id="패스_7262" data-name="패스 7262" d="M975.385,209.966c-6.824.515-12.384-3.648-15.954-9.487-3.123-5.109-3.349-14.227,2.6-19.293a9.307,9.307,0,0,0,1.643-1.786,17.785,17.785,0,0,1,14.617-8.006c12.885-.173,16.676,11.757,17.324,14.2,1.5,5.659-.795,11.894-4.938,16.033S981.131,209.532,975.385,209.966Z" transform="translate(-945.266 -171.392)" fill="#00112e"/>
            <ellipse id="타원_238" data-name="타원 238" cx="12.847" cy="12.409" rx="12.847" ry="12.409" transform="translate(29.984 87.795) rotate(-1.843)" fill="#d67188" opacity="0.4" style="mix-blend-mode: multiply;isolation: isolate"/>
            <ellipse id="타원_239" data-name="타원 239" cx="12.847" cy="12.409" rx="12.847" ry="12.409" transform="translate(97.884 89.015) rotate(-1.845)" fill="#d67188" opacity="0.4" style="mix-blend-mode: multiply;isolation: isolate"/>
            <path id="패스_7263" data-name="패스 7263" d="M1066.632,263.225c.807-6.012,8.9-9.863,13.379-4.958a.51.51,0,0,1-.66.757c-4.475-2.644-9.572.108-11.767,4.52a.511.511,0,0,1-.952-.319Z" transform="translate(-939.482 -166.916)" fill="#793d2e"/>
            <path id="패스_7264" data-name="패스 7264" d="M957.769,251.6c6.2-6.116,15.537.862,13.437,8.766a.508.508,0,0,1-1-.133c.153-6.307-5.912-11.468-11.775-7.883a.508.508,0,0,1-.665-.751Z" transform="translate(-945.246 -167.274)" fill="#793d2e"/>
            <path id="패스_7265" data-name="패스 7265" d="M991.457,230.772c-.71-1.987,1.63-4.58,4.018-5.941a9.858,9.858,0,0,1,6.229-1.378c1.376.205,2.882,1.044,3.006,2.431a3.1,3.1,0,0,1-2.136,2.8c-1.848.791-3.824.54-7.243,2.566C993.77,232.178,992.047,232.426,991.457,230.772Z" transform="translate(-943.464 -168.643)" fill="#00112e"/>
            <path id="패스_7266" data-name="패스 7266" d="M1046.279,229.96c.58-2.028-1.92-4.465-4.392-5.671a9.851,9.851,0,0,0-6.3-.975c-1.36.293-2.808,1.228-2.843,2.619a3.091,3.091,0,0,0,2.311,2.662c1.9.671,3.851.294,7.393,2.1C1044.062,231.512,1045.8,231.648,1046.279,229.96Z" transform="translate(-941.274 -168.655)" fill="#00112e"/>
            <g id="그룹_913" data-name="그룹 913" transform="translate(72.137 75.493)">
              <path id="패스_7267" data-name="패스 7267" d="M1025.222,245.787a4.412,4.412,0,0,0-3.333-2.477,7.754,7.754,0,0,0-5.1.493,4.235,4.235,0,0,0-2.264,2.349,3.767,3.767,0,0,0,1.352,3.944,7.015,7.015,0,0,0,8.219-.249A3.885,3.885,0,0,0,1025.222,245.787Z" transform="translate(-1014.382 -243.093)" fill="#b05e72" opacity="0.4" style="mix-blend-mode: multiply;isolation: isolate"/>
              <path id="패스_7268" data-name="패스 7268" d="M1022.706,250.258c-.313-.293.735-1.443,1.155-1.833.223-.207.528-.372.721-.255.292.176-.229.915-.331,1.057C1023.777,249.887,1022.821,250.365,1022.706,250.258Z" transform="translate(-1013.945 -242.827)" fill="#512f2b"/>
              <path id="패스_7269" data-name="패스 7269" d="M1016.05,249.981c.241-.066-.058-1.5-.881-2.067a.555.555,0,0,0-.318-.122.412.412,0,0,0-.355.378.932.932,0,0,0,.141.538,2.821,2.821,0,0,0,.44.605C1015.324,249.57,1015.854,250.035,1016.05,249.981Z" transform="translate(-1014.376 -242.845)" fill="#512f2b"/>
            </g>
            <g id="그룹_914" data-name="그룹 914" transform="translate(49.862 69.97)">
              <path id="패스_7270" data-name="패스 7270" d="M1047.536,246.611a13.632,13.632,0,0,0-1.955-2.853,7.45,7.45,0,0,0,1.252-2.294,5.979,5.979,0,0,0,.281-2.787c-.055-.353-.215-.762-.566-.822-.393-.066-.681.347-.855.705a14.343,14.343,0,0,1-2.784,4.542,3.743,3.743,0,0,1-1.979,1.02,4.142,4.142,0,0,1-2.952-.992,9.574,9.574,0,0,1-2.779-3.468,1.881,1.881,0,0,0-.392-.61.577.577,0,0,0-.67-.11.92.92,0,0,0-.363.824,6.417,6.417,0,0,0,1.518,4.262,5.817,5.817,0,0,0,2.035,1.689,16.082,16.082,0,0,0-.719,3.6c.485,1.411,1.612-1.479,2.174-3.073a6.468,6.468,0,0,0,2.422.114,15.215,15.215,0,0,0,1.45,3.3.361.361,0,0,0,.664-.2,14.936,14.936,0,0,0-.619-3.493,6.982,6.982,0,0,0,1.789-1.092,13.436,13.436,0,0,0,2.521,2.213.37.37,0,0,0,.347.022A.366.366,0,0,0,1047.536,246.611Z" transform="translate(-991.081 -237.847)" fill="#041328"/>
              <path id="패스_7271" data-name="패스 7271" d="M1006.214,239.392a.58.58,0,0,0-.662.152,1.906,1.906,0,0,0-.352.635,9.558,9.558,0,0,1-2.55,3.639A4.146,4.146,0,0,1,999.766,245a3.743,3.743,0,0,1-2.04-.891,14.363,14.363,0,0,1-3.069-4.354c-.2-.346-.512-.741-.9-.65-.348.082-.48.5-.513.857a5.992,5.992,0,0,0,.46,2.763,7.427,7.427,0,0,0,1.4,2.209,13.681,13.681,0,0,0-1.768,2.974.366.366,0,0,0,.554.43,13.434,13.434,0,0,0,2.375-2.372,6.982,6.982,0,0,0,1.854.976,14.985,14.985,0,0,0-.393,3.526.361.361,0,0,0,.676.16,15.286,15.286,0,0,0,1.236-3.383,6.452,6.452,0,0,0,2.408-.269,15.972,15.972,0,0,0,1.716,3.185c1.286.787.282-2.225-.3-3.8a5.826,5.826,0,0,0,1.922-1.817,6.42,6.42,0,0,0,1.241-4.351A.923.923,0,0,0,1006.214,239.392Z" transform="translate(-993.226 -237.782)" fill="#041328"/>
            </g>
            <path id="패스_7272" data-name="패스 7272" d="M1004.015,302.271c3.46,7.788,12.417,10.446,20.2,8.779a13.07,13.07,0,0,0,10.276-8.594,1.254,1.254,0,0,1,1.61-.742c2,.8-.1,5.824-.82,7.139-6.4,10.936-25.164,10.338-31.655-.242-.8-1.369-3.467-6.7-.925-7.068a1.27,1.27,0,0,1,1.317.729Z" transform="translate(-942.92 -164.509)" fill="#fce688"/>
            <g id="그룹_916" data-name="그룹 916" transform="translate(52.562 87.671)">
              <g id="그룹_915" data-name="그룹 915" clip-path="url(#clip-path-2)">
                <path id="패스_7273" data-name="패스 7273" d="M1045.1,259.717a9.064,9.064,0,0,0-7.547-4.673,17.76,17.76,0,0,0-8.942,2.11c-2.256,1.093-4.48,2.456-6.978,2.671-5.657.487-10.347-4.969-16.021-5.161a9.623,9.623,0,0,0-8.206,4.394,10.749,10.749,0,0,0-.97,9.344c1.207,3.331,3.919,5.914,6.883,7.857a30.988,30.988,0,0,0,34.821-.582,20.234,20.234,0,0,0,6.185-6.527C1045.791,266.508,1046.766,263.181,1045.1,259.717Z" transform="translate(-995.79 -254.659)" fill="#fff"/>
                <path id="패스_7274" data-name="패스 7274" d="M1001.15,276.457a.539.539,0,0,1-.2-.038.529.529,0,0,1-.292-.686c2.744-6.784,5.662-13.615,8.674-20.3a.526.526,0,1,1,.96.432c-3.007,6.676-5.918,13.5-8.657,20.267A.528.528,0,0,1,1001.15,276.457Z" transform="translate(-995.534 -254.635)" fill="#666563"/>
                <path id="패스_7275" data-name="패스 7275" d="M1013.76,281.436a.471.471,0,0,1-.087-.007.527.527,0,0,1-.435-.6l3.593-21.874a.526.526,0,0,1,1.038.171l-3.591,21.874A.526.526,0,0,1,1013.76,281.436Z" transform="translate(-994.868 -254.456)" fill="#666563"/>
                <path id="패스_7276" data-name="패스 7276" d="M1030.492,279.682a.526.526,0,0,1-.5-.375l-6.258-20.866a.526.526,0,1,1,1.007-.3L1031,279a.526.526,0,0,1-.353.656A.537.537,0,0,1,1030.492,279.682Z" transform="translate(-994.314 -254.495)" fill="#666563"/>
                <path id="패스_7277" data-name="패스 7277" d="M1040.432,272.389a.526.526,0,0,1-.477-.3c-2.674-5.718-5.644-11.378-8.825-16.822a.526.526,0,0,1,.909-.532c3.2,5.473,6.182,11.161,8.871,16.907a.527.527,0,0,1-.254.7A.509.509,0,0,1,1040.432,272.389Z" transform="translate(-993.925 -254.669)" fill="#666563"/>
              </g>
            </g>
          </g>
        </g>
      </g>
    </g>
    <g id="vector" transform="translate(11743.245 801.634)">
      <path id="패스_7279" data-name="패스 7279" d="M466.126,139.4q2.578,3.027,5.155,6.055a1.574,1.574,0,0,1,.413,1.969q-1.665,4.862-3.328,9.724a51.528,51.528,0,0,0,6.81-4.79l8.1,7.329q-.758-5.266-1.879-10.475l10.3-4.135-9.452-3.1a61.5,61.5,0,0,0-.516-10.375,63.325,63.325,0,0,0-6.206,9.65C472.379,140.269,469.234,139.287,466.126,139.4Z" transform="translate(-427.527 0.723)" fill="#2ca0d9"/>
      <path id="패스_7281" data-name="패스 7281" d="M690.533,281.908q-2.9,12.355-5.808,24.71a2.114,2.114,0,0,1-1.542,1.845q-7.459,3.452-14.916,6.905a123.614,123.614,0,0,0,17.676,3.358q-.328,10.419-.657,20.839c4.489-4.7,7.553-10.539,11.188-15.926a1.2,1.2,0,0,1,1.838-.582l20.412,9.182-9.117-17.5a1.3,1.3,0,0,1,.314-1.894l12.79-13.166-22.319,3.626C699.474,302.553,691.1,282.8,690.533,281.908Z" transform="translate(-305.939 19.981)" fill="#ce528b"/>
      <path id="패스_7282" data-name="패스 7282" d="M705.043,252.474q-.926,3.29-1.854,6.581a2.17,2.17,0,0,1-.439.94,2.138,2.138,0,0,1-1,.491q-5,1.446-10.128,2.419a46.063,46.063,0,0,0,8.481,3.64l-3.683,12.707q5.388-4.466,10.67-9.059l10.886,7.931a107.257,107.257,0,0,0-4.343-12.062l9.93-6.856-14.8.716a.995.995,0,0,1-1.263-.821C706.688,256.731,705.868,254.361,705.043,252.474Z" transform="translate(-298.125 3.012)" fill="#e5f1e7"/>
      <path id="패스_7283" data-name="패스 7283" d="M706.688,233.808c-1.891.818-3.286,3.147-1.758,4.941a2.646,2.646,0,0,0,4.141-.394,2.835,2.835,0,0,0,.372-.961A2.3,2.3,0,0,0,706.688,233.808Z" transform="translate(-297.676 2.393)" fill="#ffa5af"/>
      <path id="패스_7285" data-name="패스 7285" d="M722.876,279.442c-1.593-3.049-6.15-4.922-8.992-2.44a4.253,4.253,0,0,0-1.651,3.021h0c-.995,3.863,3.034,6.522,6.535,6.014C721.707,285.723,724.168,282.257,722.876,279.442Z" transform="translate(-337.076 6.949)" fill="#ffd85a"/>
      <path id="패스_7287" data-name="패스 7287" d="M484.651,66.138l-5.541,10.87a2.744,2.744,0,0,1-3.414,1.834l-14.437-1.085c1.737,4.729,6.964,6.984,10.774,10.281a2.637,2.637,0,0,1,.805.991,2.81,2.81,0,0,1-.058,1.625q-1.911,8.063-3.821,16.128a57.116,57.116,0,0,0,14.1-10.27q7.741,3.565,15.234,7.639a32.505,32.505,0,0,1-2.182-12.961,3.544,3.544,0,0,1,.338-1.63,3.762,3.762,0,0,1,1.64-1.313q6.62-3.49,13.238-6.978l-20.739-2.484a2.054,2.054,0,0,1-2.249-1.842A69.219,69.219,0,0,0,484.651,66.138Z" transform="translate(-401.509 13.104)" fill="#ce528b"/>
      <path id="패스_7288" data-name="패스 7288" d="M476.731,50.509a1.9,1.9,0,0,0-.878-.2,2.894,2.894,0,0,0-1.232-.215,3.885,3.885,0,0,0-3.721,4.68,4.106,4.106,0,0,0,6.077,2.673C479.353,55.979,479.256,51.755,476.731,50.509Z" transform="translate(-348.167 99.897)" fill="#75b9fc"/>
      <g id="그룹_921" data-name="그룹 921" transform="translate(117.397 85.478)">
        <path id="패스_7289" data-name="패스 7289" d="M459.3,100.174a2.77,2.77,0,0,0-.053-.375C459.27,99.924,459.286,100.049,459.3,100.174Z" transform="translate(-448.887 -95.748)" fill="#de5e83"/>
        <path id="패스_7290" data-name="패스 7290" d="M462.281,101.338l.008.093a5.34,5.34,0,0,0-.926-2.6,4.692,4.692,0,0,0-5.317-1.668,6,6,0,0,0-2.637,1.877c-1.775,1.754-2.214,4.865-.289,6.752,3.121,3.271,8.844,2.056,9.194-2.8A6.023,6.023,0,0,0,462.281,101.338Z" transform="translate(-451.865 -96.912)" fill="#de5e83"/>
      </g>
      <path id="패스_7291" data-name="패스 7291" d="M481.517,109.8a5.688,5.688,0,0,0-.536-.466,3.142,3.142,0,0,0-3.335-1.114,7.522,7.522,0,0,0-5.45,2.512c-1.535,1.824-1.771,4.438-1.872,6.735.114,4.976,6.449,7.17,10.228,4.466a7.23,7.23,0,0,0,2.644-2.986C485,116.01,483.985,112.038,481.517,109.8Z" transform="translate(-438.619 -26.115)" fill="#ffd85a"/>
      <path id="패스_7292" data-name="패스 7292" d="M695.816,98.091a7.627,7.627,0,0,0-.92-.049,4.076,4.076,0,0,0-4.3,1.514,9.764,9.764,0,0,0-3.58,6.911c-.119,3.09,1.72,5.955,3.445,8.387,4.079,5.005,12.313,2.207,14.031-3.568a9.378,9.378,0,0,0,.328-5.162C704.326,101.682,700.127,98.421,695.816,98.091Z" transform="translate(-293.506 -19.49)" fill="#75b9fc"/>
      <path id="패스_7293" data-name="패스 7293" d="M680.434,88c-2.144,1.81-1.764,5.565.449,7.158a3.064,3.064,0,0,0,3.477.147c.042-.029.074-.065.112-.1a3.88,3.88,0,0,0,3.181-4.285A4.414,4.414,0,0,0,680.434,88Z" transform="translate(-285.509 -23.651)" fill="#2ca0d9"/>
      <path id="패스_7294" data-name="패스 7294" d="M705.137,86.235a5.252,5.252,0,0,0-3.408.41,4.325,4.325,0,0,0-2.276,2.13,5.557,5.557,0,0,0-.171,5.237,4.155,4.155,0,0,0,2.094,2.035,4.917,4.917,0,0,0,6.648-.73,3.4,3.4,0,0,0,.9-1.431c.007-.024.013-.049.02-.074C710.218,90.81,708.485,86.852,705.137,86.235Z" transform="translate(-376.294 -23.849)" fill="#e5f1e7"/>
      <path id="패스_7295" data-name="패스 7295" d="M698.027,123.054c-4.09-.268-5.989,5.188-2.065,6.993a4,4,0,0,0,5.315-3.244,3.231,3.231,0,0,0-.8-2.4A3.024,3.024,0,0,0,698.027,123.054Z" transform="translate(-285.207 19.699)" fill="#ffa5af"/>
      <path id="패스_7296" data-name="패스 7296" d="M455.459,175.643q-.215-.945-.488-1.876c-.227-.773-.653-1.733-1.493-1.927l-.032-.015a.7.7,0,0,0-.946.247,3.469,3.469,0,0,0-.314.565,1.955,1.955,0,0,0-.039.565,4.124,4.124,0,0,0,.194,1.146q.3.92.546,1.859t.428,1.889q.093.476.17.953c.022.136.043.274.063.41l.034.23.014.118a1.3,1.3,0,0,0,1.267,1.266,1.279,1.279,0,0,0,1.266-1.266A34.2,34.2,0,0,0,455.459,175.643Z" transform="translate(-334.745 -53.826)" fill="#fff"/>
      <path id="패스_7297" data-name="패스 7297" d="M465.834,163.559a1.28,1.28,0,0,0-1.854.754,10.358,10.358,0,0,0-.126,1.877c-.094.681-.286,1.354-.434,2.023-.361,1.642-.733,3.279-1.079,4.922-.682,3.23-1.3,6.474-1.948,9.71-.279,1.4,1.786,2,2.157.595.919-3.483,1.886-6.958,2.739-10.458q.619-2.536,1.238-5.073C466.873,166.482,467.39,164.467,465.834,163.559Z" transform="translate(-331.428 -57.194)" fill="#fff"/>
      <path id="패스_7298" data-name="패스 7298" d="M473.1,173.19a1.084,1.084,0,0,0-1.609-.923,3.386,3.386,0,0,0-1,.761,6.875,6.875,0,0,0-.758,1.019c-.333.622-.61,1.281-.914,1.918q-.93,1.951-1.858,3.9a1.464,1.464,0,1,0,2.527,1.478l2.081-3.773c.341-.617.7-1.229,1.023-1.855a5.921,5.921,0,0,0,.435-1.212A3.522,3.522,0,0,0,473.1,173.19Z" transform="translate(-328.84 -53.674)" fill="#fff"/>
      <path id="패스_7306" data-name="패스 7306" d="M722.008,212.523a3.182,3.182,0,0,0-1.006-.6,3.931,3.931,0,0,0-.934-.154c-.093-.018-.187-.029-.279-.046-.215-.038-.429-.08-.641-.128q-.6-.133-1.193-.319a5.509,5.509,0,0,1-1.05-.355c.048.02.06.013-.067-.045l-.265-.121c-.175-.083-.349-.167-.522-.257q-.547-.282-1.072-.61a5.619,5.619,0,0,1-.962-.658l-.025-.022c-.094-.077-.188-.153-.281-.232-.166-.14-.328-.286-.488-.434a1.826,1.826,0,1,0-2.582,2.582,16.152,16.152,0,0,0,4.653,3.108,17.174,17.174,0,0,0,2.785.968c1.141.276,2.514.644,3.584.007A1.725,1.725,0,0,0,722.008,212.523Z" transform="matrix(-0.174, -0.985, 0.985, -0.174, 291.6, 832.624)" fill="#fff"/>
      <path id="패스_7307" data-name="패스 7307" d="M727.256,201.653l-12.727-2.129a1.794,1.794,0,0,0-2.144,1.217,1.757,1.757,0,0,0,1.218,2.144l12.709,2.193a1.828,1.828,0,0,0,2.185-1.24A1.792,1.792,0,0,0,727.256,201.653Z" transform="matrix(-0.174, -0.985, 0.985, -0.174, 288.058, 832.343)" fill="#fff"/>
      <path id="패스_7308" data-name="패스 7308" d="M728.626,188.116a1.387,1.387,0,0,0-1.609-.79,53.457,53.457,0,0,0-6.411,1.833l-6.372,1.98c-1.812.563-1.043,3.411.787,2.854l6.5-1.981a55.116,55.116,0,0,0,6.546-2.19A1.354,1.354,0,0,0,728.626,188.116Z" transform="matrix(-0.174, -0.985, 0.985, -0.174, 283.154, 832.85)" fill="#fff"/>
      <path id="패스_7309" data-name="패스 7309" d="M640.746,160.3a4.131,4.131,0,0,0-.819-1.807,4.843,4.843,0,0,0-2.593-3,6.211,6.211,0,0,0-2.259-.574,5.906,5.906,0,0,0-1.747.182,5.753,5.753,0,0,0-2.934,1.74,5.231,5.231,0,0,0-1.358,3.817,6.161,6.161,0,0,0,1.755,3.862,5.788,5.788,0,0,0,3.862,1.709,3.1,3.1,0,0,1,1.973-.236,4.25,4.25,0,0,0,3.481-2.021A5.1,5.1,0,0,0,640.746,160.3Z" transform="translate(-588.447 94.913)" fill="#75b9fc"/>
      <path id="패스_7310" data-name="패스 7310" d="M651.31,172.871a9.058,9.058,0,0,0-5.36-3,7.89,7.89,0,0,0-6.874,2.1,7.14,7.14,0,0,0-2.091,6.727c.041.154.1.293.154.441a8.41,8.41,0,0,0,1.374,4.189,7.567,7.567,0,0,0,5.673,3.359c4.135.379,8.566-2.888,9.178-7.044A8.333,8.333,0,0,0,651.31,172.871Z" transform="translate(-584.404 104.021)" fill="#fff"/>
      <path id="패스_7311" data-name="패스 7311" d="M648.737,162.677a1.593,1.593,0,0,0-.253-.8l-.335-.434a1.623,1.623,0,0,0-.469-.338,1.951,1.951,0,0,0-.434-.7l-.4-.309a1.965,1.965,0,0,0-.995-.269,2.709,2.709,0,0,0-1.346.338.86.86,0,0,0-.15.093,3.27,3.27,0,0,0-.537.441,3.985,3.985,0,0,0-.413.544,4.14,4.14,0,0,0-.283.643,1.061,1.061,0,0,0-.053.175,3.777,3.777,0,0,0-.094.731,3.856,3.856,0,0,0,.086.7,3.067,3.067,0,0,0,.253.651.921.921,0,0,0,.088.153,4.9,4.9,0,0,0,.372.473,4.093,4.093,0,0,0,.49.387,1.1,1.1,0,0,0,.16.1,2.975,2.975,0,0,0,.665.261,3.637,3.637,0,0,0,.724.088,3.865,3.865,0,0,0,.751-.1,4,4,0,0,0,.7-.276,1.248,1.248,0,0,0,.2-.112,3.762,3.762,0,0,0,.585-.469,2.5,2.5,0,0,0,.652-1.121A1.6,1.6,0,0,0,648.737,162.677Z" transform="translate(-599.396 142.056)" fill="#ce528b"/>
      <path id="패스_7312" data-name="패스 7312" d="M510.024,68.209a4.024,4.024,0,0,0-.239-.567.812.812,0,0,0-.06-.1,3,3,0,0,0-.859-.864,2.583,2.583,0,0,0-.551-.281,3.351,3.351,0,0,0-1.459-.283,4.236,4.236,0,0,0-1.378.265c-.289.115-.58.234-.859.372-.066.032-.132.065-.2.1a2.616,2.616,0,0,0-.841.859,1.993,1.993,0,0,0,1.6,3,1.978,1.978,0,0,0,.4.6,2.082,2.082,0,0,0,.544.443,2.313,2.313,0,0,0,.313.139,1.706,1.706,0,0,0,.333.126,2.52,2.52,0,0,0,1.193,0c.028-.007.056-.014.084-.024a3.507,3.507,0,0,0,.554-.237.757.757,0,0,0,.09-.058,5.3,5.3,0,0,0,.46-.358,3.478,3.478,0,0,0,.459-.565,3.211,3.211,0,0,0,.4-.862,2.609,2.609,0,0,0,.129-.985A3.017,3.017,0,0,0,510.024,68.209Z" transform="translate(-434.256 -5.798)" fill="#ffd85a"/>
      <path id="패스_7313" data-name="패스 7313" d="M605.948,62.31a3.614,3.614,0,0,0-1.325-1.253,4.982,4.982,0,0,0-.651-.25,1.578,1.578,0,0,0-.257-.236,2.188,2.188,0,0,0-1.673-.219l-.518.219a2.167,2.167,0,0,0-.514.435l-.032.014a2.311,2.311,0,0,0-1.267,2.649,2.12,2.12,0,0,0,.551.95,2.306,2.306,0,0,0,.957.557,1.479,1.479,0,0,0,.418.069c.07.051.139.1.208.15a3.082,3.082,0,0,0,1.722.5,2.9,2.9,0,0,0,1.372-.37,2.851,2.851,0,0,0,1.008-1,2.187,2.187,0,0,0,0-2.207Z" transform="translate(-427.541 29.211)" fill="#e5f1e7"/>
      <path id="패스_7314" data-name="패스 7314" d="M621.327,55.687a7.07,7.07,0,0,0-6.633-4.9,6.394,6.394,0,0,0-4.267,1.659,7.248,7.248,0,0,0-1.963,7.515,4,4,0,0,0,1.789,2.45,5.967,5.967,0,0,0,1.647.505,6.721,6.721,0,0,0,1.137.581,6.067,6.067,0,0,0,4.619-.32,6.78,6.78,0,0,0,3.1-2.868A6.128,6.128,0,0,0,621.327,55.687Z" transform="translate(-235.397 10.991)" fill="#ffd85a"/>
    </g>
  </g>
</svg>
