<?xml version="1.0" encoding="utf-8"?>
<!-- Generator: Adobe Illustrator 22.1.0, SVG Export Plug-In . SVG Version: 6.00 Build 0)  -->
<svg version="1.1" id="Layer_1" xmlns="http://www.w3.org/2000/svg" xmlns:xlink="http://www.w3.org/1999/xlink" x="0px" y="0px"
	 viewBox="0 0 66 66" style="enable-background:new 0 0 66 66;" xml:space="preserve">
<style type="text/css">
	.st0{fill:#FFFFFF;}
</style>
<path class="st0" d="M33,0C14.8,0,0,14.8,0,33s14.8,33,33,33s33-14.8,33-33S51.2,0,33,0z M27.2,12.2c0.8-3.1,3.8-5,6.9-4.4
	c1.2,0.3,2.4,0.2,3.5-0.4l0.3,0.1l-0.4,2.3c1.3,1.5,1.7,3.5,1.2,5.4c-0.8,3.2-4.1,5.1-7.3,4.3C28.3,18.7,26.4,15.4,27.2,12.2z
	 M42.6,38.9c-1,0.2-1.9-0.5-2.1-1.5c0-0.1,0-0.1,0-0.2c-0.3-2.9-0.5-5.9-0.8-8.8c0,0,0-0.1,0-0.1c-0.2-0.4-0.4-1-0.6-1
	c-0.7,0-0.4,0.7-0.4,1c0,9.1,0,18.2,0,27.3c0,1.9-1.3,3.1-3,2.7c-1.2-0.2-2.1-1.3-2-2.6c0-5,0-10,0-15l0-1.1h-1.3v1
	c0,5,0,10.1,0,15.2c0.1,1.3-0.9,2.5-2.3,2.6c-0.4,0-0.7,0-1.1-0.2c-0.8-0.3-1.3-1-1.4-1.8c-0.1-0.4-0.1-0.8-0.1-1.2
	c0-8.8,0-17.5,0-26.3c0-0.3,0-0.6,0-0.8c-0.1-0.3-0.3-0.6-0.4-0.9c-0.2,0.3-0.5,0.5-0.5,0.8c-0.2,2.2-0.4,4.4-0.6,6.6
	c-0.1,0.8-0.1,1.6-0.2,2.4c0,1.1-0.9,1.9-1.9,1.9c-1.1,0-1.9-0.9-1.9-1.9c0-0.1,0-0.2,0-0.2c0.3-3.6,0.5-7.2,0.9-10.8
	c0.3-3,2.9-5.2,5.9-5.1c2.9,0,5.9,0,8.8,0c3.1,0,5.7,2.4,5.9,5.6c0.2,3.2,0.5,6.4,0.8,9.5c0,0.3,0,0.6,0.1,0.9
	C44.3,38,43.5,38.8,42.6,38.9z"/>
</svg>
