<?xml version="1.0" encoding="utf-8"?>
<!-- Generator: Adobe Illustrator 22.1.0, SVG Export Plug-In . SVG Version: 6.00 Build 0)  -->
<svg version="1.1" id="Layer_1" xmlns="http://www.w3.org/2000/svg" xmlns:xlink="http://www.w3.org/1999/xlink" x="0px" y="0px"
	 viewBox="0 0 66 66" style="enable-background:new 0 0 66 66;" xml:space="preserve">
<style type="text/css">
	.st0{fill:#FFFFFF;}
</style>
<path class="st0" d="M33,0C14.8,0,0,14.8,0,33s14.8,33,33,33s33-14.8,33-33S51.2,0,33,0z M46.2,37.1c0,0.9-0.3,1.3-1.3,1.3
	c-2,0-4.1,0-6.1,0c-0.4,0-0.4,0.1-0.4,0.4c0,2,0,4,0,6c0,1-0.3,1.3-1.3,1.3l-3.6,0h-3.6c-1,0-1.3-0.3-1.3-1.3c0-2,0-4,0-6
	c0-0.3-0.1-0.4-0.4-0.4c-2,0-4,0-6.1,0c-1,0-1.3-0.3-1.3-1.3c0-2.4,0-4.8,0-7.2c0-1,0.3-1.3,1.3-1.3c2,0,4,0,6,0
	c0.4,0,0.5-0.1,0.5-0.5c0-2,0-4,0-6c0-1,0.3-1.3,1.3-1.3c2.4,0,4.8,0,7.2,0c1,0,1.3,0.3,1.3,1.3c0,2,0,4.1,0,6.1
	c0,0.3,0.1,0.4,0.4,0.4c2,0,4,0,6.1,0c1,0,1.3,0.4,1.3,1.3C46.2,32.3,46.2,34.7,46.2,37.1z"/>
</svg>
