<svg xmlns="http://www.w3.org/2000/svg" width="126.245" height="121.259" viewBox="0 0 126.245 121.259">
  <path id="vector_triangle" d="M208.795,198.063a35.977,35.977,0,0,0-2.393-7.781,120.082,120.082,0,0,0-5.5-10.824c-.732-1.282-.922-2.789-2.465-3.552a1.321,1.321,0,0,1-.368-1.823,1.667,1.667,0,0,0-.262-2.285,6.258,6.258,0,0,1-1.856-2.988c-2.254-6.953-5.391-13.591-7.268-20.688a24.118,24.118,0,0,0-2.532-5.571,10.467,10.467,0,0,1-1.036-2.126c-2.134-6.8-3.514-13.851-6.449-20.4a6.383,6.383,0,0,1-.276-1.51h0a2.651,2.651,0,0,0-1.977-3.161c-1.564-1.3-2.956-2.946-4.728-3.83-2.778-1.387-5.771-3.219-8.857-.451a1.1,1.1,0,0,0-.718-.039c-.264-.154-.6-.5-.781-.435-2.1.827-4.208,1.662-5.541,3.654a29.948,29.948,0,0,0-7.39,11.262h0c-2.381,2.282-3.627,5.307-5.239,8.085-3.143,5.417-6.1,10.947-9.326,16.31-3.6,5.979-6.852,12.09-8.75,18.846-2.631,2.554-3.708,5.993-5.224,9.183h.006a8.573,8.573,0,0,0-2.214,5.127h0a43.853,43.853,0,0,0-4.969,11.238c-2.283,3.561-1.961,7.669-2.332,11.606-.13,1.388,1,1.993,2.386,1.893.1,2.151,1.41,2.978,3.37,3.005a5.469,5.469,0,0,0,5.025-2.937,11.7,11.7,0,0,0,4.1-4.94h0a2.167,2.167,0,0,1,1.533,1.2,31.912,31.912,0,0,0,1.253,3.3c2.021,3.73,4.823,6.426,9.372,6.6,1.685,1.186,3.618.784,5.465.812,6.655.1,13.313.041,19.964.256a43.166,43.166,0,0,0,10.684-.741c4.154-.9,8.37-1.875,12.647-1.695a54.555,54.555,0,0,0,13.219-.95A11.82,11.82,0,0,0,208.795,198.063Z" transform="translate(-55.811 254.842) rotate(-104)" fill="#7200ff"/>
</svg>
