<svg xmlns="http://www.w3.org/2000/svg" width="341.923" height="324.735" viewBox="0 0 341.923 324.735">
  <g id="vector_rainbow" transform="translate(-1138.972 -249.809) rotate(-19)">
    <path id="패스_7791" data-name="패스 7791" d="M1023.241,817.583c.718-3.833,1.369-7.846,3.03-11.306,7.284-15.169,18.482-26.933,32.418-36.255,6.891-4.611,13.816-7.357,21.893-3a14.71,14.71,0,0,0,4.522,1.182c12.492,2.085,21.459,9.109,27.351,20.044,2.263,4.2,5.22,7.761,8.018,11.533,4.871,6.564,10.916,12.751,12.3,21.1,1.419,8.588,4.976,16.507,6.655,24.941,2.312,11.6,9.931,18.194,20.232,22.486,2.942,1.227,5.9,2.223,9.045.659a9.689,9.689,0,0,0,5.27-7.355c.6-3.47,1.334-6.925,1.738-10.417a8.745,8.745,0,0,0-1.531-6.755c-4.224-5.049-5.21-11.312-6.932-17.333-2.932-10.251-7.836-19.606-12.524-29.153-5.086-10.354-11.741-19.4-18.665-28.387-10.294-13.364-22.422-24.126-39.644-27.565a22.779,22.779,0,0,1-5.613-1.779c-10.545-5.212-21.445-2.713-32.278-1.616a6.562,6.562,0,0,0-3.328,1.087c-8.164,6.581-19.314,8.9-25.651,18.136a29.09,29.09,0,0,1-5.723,5.93c-9.868,8.008-14.765,19.212-19.62,30.4-1.393,3.208-2.754,6.767-2.78,10.174-.1,12.719-4.029,24.751-6.033,37.117-2.156,13.311-1.805,26.59-.363,39.9.294,2.721,1.345,5.439,1.2,8.112-.3,5.465,2.129,9.845,4.64,14.285v0c1.152,1.207,2.677,2.2,3.756.446.722-1.168-.148-3.34.594-4.474,5.244-8.006,5.262-17.038,5.6-26.061a88.6,88.6,0,0,1,4.828-26.523A193.08,193.08,0,0,0,1023.241,817.583Z" transform="translate(27.081 42.949)" fill="#31a0d3"/>
    <path id="패스_7792" data-name="패스 7792" d="M1219.531,831.889c-.935-4.2-1.551-8.59-3.289-12.453a69.637,69.637,0,0,1-5.291-16.744c-1.622-9.385-6.229-17.675-9.387-26.47-2.206-6.14-6.009-11.956-10.121-17.1-6.116-7.649-12.646-14.938-18.083-23.138a23.444,23.444,0,0,0-15.114-10.4,26.072,26.072,0,0,1-7.653-2.876c-12.642-7.4-26.424-9.077-40.745-9.071-7.5,0-14.795,1.849-22.183,1.912-11.983.1-22.151,5.26-31.6,11.358-8.46,5.463-15.68,12.849-23.446,19.385a8.581,8.581,0,0,0-6.5,5.414h0v0l-.142.13c-3.979,1.758-6.737,4.565-7.672,8.937l0,0c-7.4,7.726-11.875,17.422-17.436,26.357-4.979,8-8.556,16.517-9.186,26.334-.347,5.427-1.1,10.868-1.052,16.343.085,9.024-.168,18.024-2.764,26.746a66.242,66.242,0,0,0-2.259,16.225c-.544,12.224-2.77,24.061-9.146,34.775-.026.211-.053.42-.079.631q-.29,2.252-.578,4.5h0c.805,2.1,1.772,4.155,2.383,6.311,1.337,4.723,4.65,6.6,9.227,6.623a46.392,46.392,0,0,0,5.561-.614v-.008l0,0c-4.973-6.112-3.993-13.05-2.734-20.025.258-5.638-.6-11.427,2.283-16.706,1.49-5.242,2.468-10.711,4.65-15.647,1.4-3.162.507-6.1.771-9.048,1.651-18.493,7.781-35.736,13.893-53.014a11.471,11.471,0,0,1,4.029-9.762c-.17-2.151.148-4.072,2.4-5.1.323-2.391.493-4.849,2.669-6.479a6.011,6.011,0,0,1,2.369-4.751c.039-3.374,1.8-5.638,4.654-7.2.89-1.292,1.543-2.869,2.7-3.835,14.818-12.354,30.048-24.228,49.047-29.417,12.853-3.51,26-5.471,39.489-4.007,10.32,1.118,18.8,5.445,25.266,13.469,9.841,12.2,19.646,24.444,29.2,36.875a81.333,81.333,0,0,1,13.968,27.16c3.705,13.171,8.568,26.16,9.9,39.94.562,5.85.807,11.729,1.2,17.6v.008l0,0c2.778,3.871,5.912,6.763,11.316,6.165,5.035-.558,8.454-3.2,11.1-7.154a49.126,49.126,0,0,0,2.628-5.066v0A202.565,202.565,0,0,0,1219.531,831.889Z" transform="translate(9.525 20.187)" fill="#ffb200"/>
    <path id="패스_7793" data-name="패스 7793" d="M1244.091,868.269c-.91-1.057-.963-2.961-1.164-4.51-2.989-23.1-13.54-44.139-18.168-66.789a13.441,13.441,0,0,0-.775-2.221c-4.711-11.681-11.038-22.494-17.466-33.288-5.3-8.892-12.835-15.769-19.669-23.3a8.779,8.779,0,0,0-5.378-6.365c-2.667-2.866-5.248-5.818-8.014-8.586-8.385-8.387-17.505-15.739-28.64-20.265-4.356-1.77-8.868-3.336-12.887-5.708-5.7-3.362-11.934-4.035-18.16-4.283a194.475,194.475,0,0,0-20.007.75,28.379,28.379,0,0,0-6.864,1.432c-6.347,2.06-12.691,4.153-18.937,6.495-12.33,4.624-23.144,11.628-31.674,21.739-9.622,11.4-19.172,22.877-28.368,34.622a285.461,285.461,0,0,0-20.575,30.141c-5.092,8.57-7.057,18.337-11.433,27.083-3.222,6.445-2.474,13.78-5.7,20.149-1,1.969-.523,4.64-.961,6.945-2.652,13.978-1.689,28.222-3.147,42.288a17.671,17.671,0,0,0,.675,6.988c2.748,8.655,2.912,17.74,4.723,26.541-.274,2.723-.162,5.327,2.148,7.284l0,0-.03.018h0v0c1.146,6.816,6.558,6.931,11.707,7.449q.287-2.252.578-4.5c.026-.211.053-.42.079-.631,6.376-10.715,8.6-22.552,9.146-34.775a66.242,66.242,0,0,1,2.259-16.225c2.6-8.722,2.849-17.722,2.764-26.746-.051-5.475.7-10.916,1.052-16.343.629-9.817,4.206-18.336,9.186-26.334,5.561-8.935,10.032-18.631,17.436-26.357l0,0c.935-4.372,3.693-7.179,7.673-8.937l.142-.13v0h0a8.581,8.581,0,0,1,6.5-5.413c7.765-6.536,14.986-13.922,23.446-19.385,9.444-6.1,19.612-11.253,31.6-11.358,7.388-.063,14.68-1.908,22.183-1.912,14.321-.006,28.1,1.675,40.745,9.071a26.077,26.077,0,0,0,7.653,2.876,23.443,23.443,0,0,1,15.114,10.4c5.437,8.2,11.967,15.489,18.083,23.138,4.111,5.141,7.915,10.957,10.121,17.1,3.158,8.8,7.765,17.085,9.387,26.47a69.626,69.626,0,0,0,5.291,16.744c1.738,3.863,2.354,8.255,3.289,12.453a202.574,202.574,0,0,1,4.24,37.139v0c4.936.111,7.854-3.038,10.5-6.57.434-.578.953-1.874.787-2C1239.528,876.729,1247.6,872.341,1244.091,868.269Z" transform="translate(0)" fill="#d24245"/>
    <path id="패스_7794" data-name="패스 7794" d="M1190.908,844.7c-1.328-13.78-6.191-26.77-9.9-39.94a81.338,81.338,0,0,0-13.968-27.16c-9.551-12.431-19.356-24.67-29.2-36.874-6.471-8.024-14.946-12.35-25.266-13.469-13.484-1.464-26.635.5-39.488,4.007-19,5.189-34.229,17.063-49.047,29.417-1.16.967-1.813,2.543-2.7,3.835h0c-2.853,1.559-4.615,3.823-4.654,7.2a6.011,6.011,0,0,0-2.37,4.751c-2.176,1.63-2.346,4.088-2.669,6.479-2.249,1.026-2.567,2.947-2.4,5.1a11.471,11.471,0,0,0-4.029,9.762c-6.112,17.278-12.242,34.521-13.893,53.014-.264,2.949.628,5.885-.771,9.047-2.182,4.936-3.161,10.4-4.65,15.647-2.878,5.279-2.024,11.068-2.283,16.706h0c-1.259,6.974-2.239,13.913,2.734,20.025l0,0c7.753,7.447,10.872,7.966,20.137,3.508,1.695-.817,3.527-1.342,5.3-2v0c-2.511-4.441-4.938-8.823-4.64-14.285.144-2.673-.908-5.392-1.2-8.114-1.442-13.309-1.793-26.588.363-39.9,2-12.366,5.934-24.4,6.031-37.117.028-3.407,1.389-6.966,2.782-10.174,4.855-11.192,9.752-22.394,19.62-30.4a29.1,29.1,0,0,0,5.723-5.93c6.337-9.233,17.487-11.555,25.651-18.136a6.561,6.561,0,0,1,3.328-1.087c10.831-1.1,21.733-3.6,32.278,1.616A22.788,22.788,0,0,0,1107.35,752c17.223,3.439,29.35,14.2,39.647,27.565,6.922,8.988,13.575,18.034,18.661,28.387,4.689,9.547,9.594,18.9,12.526,29.153,1.722,6.021,2.709,12.283,6.932,17.333a8.746,8.746,0,0,1,1.531,6.755c-.4,3.492-1.14,6.946-1.738,10.417,4.97-1.1,6.213-5.094,7.2-9.294v-.008C1191.716,856.431,1191.471,850.552,1190.908,844.7Z" transform="translate(16.143 32.956)" fill="#4fc2f6"/>
  </g>
</svg>
