<svg xmlns="http://www.w3.org/2000/svg" width="141.487" height="179.95" viewBox="0 0 141.487 179.95">
  <g id="vector_floral" transform="translate(-863.044 -438.008) rotate(21)">
    <path id="패스_7810" data-name="패스 7810" d="M1056.247,233.645c-.173-13.214-.505-26.425-.774-39.636v0c-.228-.738-.5-1.468-.673-2.221-.246-1.072-.789-1.8-1.963-1.6a1.733,1.733,0,0,0-1.4,1.653c-.165,1.539-.249,3.087-.365,4.631h0q.13,5.394.264,10.787h0a89.76,89.76,0,0,0-.5,15.787,4.443,4.443,0,0,1-.405,2.809c-.659,1.06-1.128.549-1.654-.122a6.609,6.609,0,0,0-.859-.781h0a3.5,3.5,0,0,0-2.19-3.247,48.393,48.393,0,0,0-15.6-5.359,8.74,8.74,0,0,0-6.179,1.441,2.038,2.038,0,0,0-1.033,2c.6,3.861,2.042,7.19,5.891,8.963a28.231,28.231,0,0,0,10.164,2.617c2.5,1.789,5.379.771,8.078,1.025,2.961.277,3.145.212,3.166,2.976.035,4.745-.1,9.492-.143,14.238-.015,1.766-.354,3.6.586,5.233a2.731,2.731,0,0,0,2.92,1.576c1.18-.206,1.492-1.127,1.555-2.18a5.048,5.048,0,0,0,.833-3.378C1056.076,245.121,1056.323,239.381,1056.247,233.645Z" fill="#245a7e"/>
    <g id="그룹_1081" data-name="그룹 1081">
      <path id="패스_7811" data-name="패스 7811" d="M1060.995,159.347l-.04.04Z" fill="#f4ad97"/>
      <path id="패스_7812" data-name="패스 7812" d="M1103.442,148.264c-1.44-1.057-2.861-2.14-4.29-3.212-.751-.17-1.644-.345-1.551-1.311.093-.99,1.044-.975,1.809-1.035a10.6,10.6,0,0,1,1.166.034l0,0h0a7.47,7.47,0,0,0,4.567-2.663c4.513-4.858,4.964-9.28-.192-13.91a10.262,10.262,0,0,0-9.473-2.368c-2.524.538-5.013,1.245-7.531,1.813-.219.048-.58-.352-.805-.606a.574.574,0,0,1,.073-.549,17.359,17.359,0,0,1,2.18-2,44.171,44.171,0,0,0,8.32-7.687,7.175,7.175,0,0,0,.862-7.826c-1.572-2.647-4.12-2.9-6.806-2.568a14.787,14.787,0,0,0-2.844.853c-.751.254-1.473.6-2.229.839-.689.217-1.72-.724-1.485-1.4.591-1.684,1.329-3.318,1.9-5.009a7.4,7.4,0,0,0,.234-5.249,3.809,3.809,0,0,0-4.66-2.609,8.866,8.866,0,0,0-1.656.68,1.693,1.693,0,0,1-2.458-.845,15.11,15.11,0,0,0-.865-1.57c-2.055-2.935-4.308-3.207-6.966-.911a12.931,12.931,0,0,0-3.757,6c-1.462,4.487-2.9,8.982-4.7,14.573-.069-3.968-.113-6.857-.172-9.747-.073-3.59-.235-7.191-1.5-10.59a6.468,6.468,0,0,0-8.276-3.906,6.093,6.093,0,0,0-3.346,3.24,10.337,10.337,0,0,0-1.086,1.26q-.069.56-.134,1.118c.144.652.916,1.4-.03,1.9-.293.156-1.032-.243-1.394-.576a5.5,5.5,0,0,1-.842-1.417h0c-.76-.918-1.472-1.88-2.288-2.745a8.841,8.841,0,0,0-9.244-2.514c-3.155.8-4.548,3.581-2.947,6.383,1.183,2.068,2.647,3.974,3.948,5.977a16.891,16.891,0,0,1,2.909,6.586c-2.784-.263-4.2-2.182-6.146-3.027-2-.868-3.815-2.163-6.14-2.121-3.381.06-5.663,2.462-5.224,5.809a15.675,15.675,0,0,0,1.28,3.934c.383.905,1.055,1.683,1.5,2.566a1.285,1.285,0,0,1-.044,1.1,1.17,1.17,0,0,1-.99.429c-1.537-.4-3.038-.93-4.569-1.348a15.451,15.451,0,0,0-9.388.455,4.526,4.526,0,0,0-3.142,3.965c-.241,1.62.8,2.532,2,3.371,1.793,1.253,3.525,2.594,5.3,3.873,2.319,1.67,3.715,4,5.262,6.833-3.81,2.172-6.938,4.92-10.691,6.788a11.989,11.989,0,0,0-5.959,5.63c-.889,1.934-.5,3.5,1.259,4.627a6.6,6.6,0,0,0,1.591.79c2.856.867,5.762,1.581,8.581,2.549,4.6,1.579,8.984.945,13.316-.922.913-.393,1.824-.8,2.766-1.115a1.309,1.309,0,0,1,1.548.41c.067.924-.6,1.458-1.156,1.987-3.543,3.343-5.733,7.571-8.037,11.776-2.486,4.534-1.944,9.312-1.433,14.007.378,3.481,3.987,4.513,6.712,2.245,1.374-1.144,2.649-2.407,4.015-3.561a1.262,1.262,0,0,1,1.891.716,7.1,7.1,0,0,1,.186,1.777c-.148,2.257,1,3.654,2.756,4.911,1.9,1.366,3.67,1.158,5.593.24a1.626,1.626,0,0,1,2.326.442c.089,1.7.094,3.686.322,5.644a9.026,9.026,0,0,0,2.815,5.786c1.478,1.363,3.291,1.213,5.083,1.2.116-1.544.2-3.092.365-4.631a1.733,1.733,0,0,1,1.4-1.653c1.174-.2,1.717.526,1.963,1.6.173.753.445,1.483.673,2.221h0a10.482,10.482,0,0,0,5.662,3.1,5.218,5.218,0,0,0,6.557-3.6,16.658,16.658,0,0,0,.5-3.521c.318-3.536.582-7.077.927-10.61.027-.283.511-.521.916-.908.6,1.245,1.144,2.47,1.777,3.647a11.708,11.708,0,0,0,4.537,4.621,4.825,4.825,0,0,0,7.271-2.575c1-2.623,1.689-5.3.657-8.14a16.433,16.433,0,0,1-.872-5.527c1.767.474,3.081.818,4.39,1.18,3.866,1.067,5.458.253,6.8-3.455.763-2.111,1.233-4.184-.021-6.314-.475-.808-1.119-1.678-.481-2.952,2.178-.3,4.506-.565,6.816-.939,2.688-.436,4.1-2.311,4.833-4.726C1106.423,151.022,1105.148,149.518,1103.442,148.264Zm-71.951-37.828c-.263.712-.5,1.433-.9,2.582a23.105,23.105,0,0,1-4.435-6.111,1.047,1.047,0,0,1,.257-.966,1.164,1.164,0,0,1,1.042-.2c1.17.65,2.3,1.379,3.414,2.13A1.943,1.943,0,0,1,1031.491,110.436Zm22.363-19.991a2.129,2.129,0,0,1,2.019,1.849c.382,1.482-.872,2.537-3.2,2.681-.657.071-1.029-.38-1.1-1.017C1051.355,91.972,1052.377,90.4,1053.854,90.445Zm-19.366,27.13c-.465-.224-.761-.887-1.039-1.4-.455-.842-1.132-1.763-.377-2.7.787-.975,1.8-.53,2.656-.028,3.038,1.793,5.754,3.886,6.841,8.078C1039.333,120.686,1037.052,118.807,1034.488,117.575Zm5.845,56.215c.158-2.022-.087-4.281,2.146-5.449.125-.065.477.009.5.081C1043.644,170.861,1041.65,172.146,1040.333,173.79Zm21.311,14.555a8.041,8.041,0,0,1-2.4-7.067c.69-4.185.358-8.349.473-12.514a34.032,34.032,0,0,1,1.252-9.3l-.029-.06.018-.018-.018.018c0-.021,0-.042,0-.063l.059,0h0c-.013.04-.019.08-.031.12a22.536,22.536,0,0,1,2.356,10.2C1063.476,175.81,1063.71,181.995,1061.644,188.345Zm13.679-44.425a4.758,4.758,0,0,1-1.129,2.7c-3.693,3.85-6.851,8.332-11.961,10.583l-.01.005-1.237.957-.03.022c-.53.949-1.723.351-2.373,1.019a14.129,14.129,0,0,1-12.044-.994l0,0-1.218-1.1q-.526-.088-1.049-.2h0c-2.359-.629-2.584-2.976-3.7-4.6h0a13.938,13.938,0,0,1-2.347-13.987,51,51,0,0,1,6.2-12.172c3.792-5.425,7.532-5.752,12.3-4.382a40.136,40.136,0,0,1,12.594,6.5,16.354,16.354,0,0,0,1.272,1.064l.078.069.007.008c.361.394.722.786,1.084,1.18a12.833,12.833,0,0,0,1.268,2.014C1076.064,135.924,1075.675,139.944,1075.323,143.92Zm-1.3-16.436c-.209.19-.691.08-1.9.18,2.647-3.185,4.474-6.1,6.987-8.195,2.224-1.851,4.351-4.059,7.224-5.05.29-.1.693.124,1.044.2.022.17.128.428.056.5Q1080.755,121.324,1074.025,127.484Zm11.8,35.167c-.184.033-.405.149-.549.086-2.665-1.152-5.3-2.369-6.882-5a1.149,1.149,0,0,1,.132-1.041c.191-.24.778-.476.973-.356,2.457,1.508,5.167,2.718,6.713,5.361C1086.464,162.135,1086.293,162.475,1085.824,162.651Zm2.514-24.9a2.378,2.378,0,0,1-2.745.282,2.554,2.554,0,0,1-.674-.861c-.023-.037.21-.329.354-.358.957-.193,1.923-.347,2.869-.51l.825.562C1088.761,137.165,1088.619,137.56,1088.338,137.749Z" fill="#f4ad97"/>
    </g>
    <g id="그룹_1082" data-name="그룹 1082">
      <path id="패스_7813" data-name="패스 7813" d="M1062.2,135.172c.589.342,1.091-.108,1.464-.537a4.242,4.242,0,0,0,.994-3.233,1.635,1.635,0,0,0-1.354-1.623,1.8,1.8,0,0,0-1.971.872,6.378,6.378,0,0,0-.488,1.889,4.933,4.933,0,0,0,.255,1.46A3.411,3.411,0,0,0,1062.2,135.172Z" fill="#ffc848"/>
      <path id="패스_7814" data-name="패스 7814" d="M1054.49,130.827c-.943-.139-1.686.666-1.758,1.906-.108,1.852.784,3.2,1.992,2.959s1.43-1.223,1.572-2.168C1056.4,132.027,1055.692,131.005,1054.49,130.827Z" fill="#ffc848"/>
      <path id="패스_7815" data-name="패스 7815" d="M1046.821,131.994a2.282,2.282,0,0,0-1.353,3.911,3.033,3.033,0,0,0,1,.473c1.4-.191,1.685-1.4,2.177-2.413a1.174,1.174,0,0,0-.264-1.549A2.352,2.352,0,0,0,1046.821,131.994Z" fill="#ffc848"/>
      <path id="패스_7816" data-name="패스 7816" d="M1056.094,148.867c-.361.115-.816.128-1.064.361a2.41,2.41,0,0,0-.012,3.671.993.993,0,0,0,1.533-.1,3.04,3.04,0,0,0,.458-3.323C1056.848,149.194,1056.407,149.067,1056.094,148.867Z" fill="#ffc848"/>
      <path id="패스_7817" data-name="패스 7817" d="M1055.154,128.144c.957-.166,1-1.019,1.2-1.716-.036-1.51-.936-2.129-2.832-1.985-.593.044-1.174.247-1.275.852C1052.027,126.6,1053.863,128.367,1055.154,128.144Z" fill="#ffc848"/>
      <path id="패스_7818" data-name="패스 7818" d="M1046.162,139.313a2.274,2.274,0,0,0-1.969,2.491,2.1,2.1,0,0,0,.909,1.377c.821.515,1.8-.319,2.4-1.916a3.143,3.143,0,0,0,.166-.559A1.418,1.418,0,0,0,1046.162,139.313Z" fill="#ffc848"/>
      <path id="패스_7819" data-name="패스 7819" d="M1061.307,140.053a2.1,2.1,0,0,0-2.013,1.832,1.4,1.4,0,0,0,1.319,1.626,2.122,2.122,0,0,0,2.28-2.114A1.423,1.423,0,0,0,1061.307,140.053Z" fill="#ffc848"/>
      <path id="패스_7820" data-name="패스 7820" d="M1064.036,148.739a1.34,1.34,0,0,0-1.622,1.24c-.068.822.181,1.534,1.177,1.654.82-.1,1.553-.417,1.678-1.3A1.273,1.273,0,0,0,1064.036,148.739Z" fill="#ffc848"/>
      <path id="패스_7821" data-name="패스 7821" d="M1054.72,140.822c.022-.861-.216-1.626-1.058-1.868-1.182-.34-1.176.715-1.312,1.4a1.435,1.435,0,0,0,.948,1.834C1054.273,142.411,1054.576,141.6,1054.72,140.822Z" fill="#ffc848"/>
      <path id="패스_7822" data-name="패스 7822" d="M1070.241,141.5c-.284-.917-.615-1.885-1.823-1.88a1.617,1.617,0,0,0-1.262,1.785,1.588,1.588,0,0,0,2.159,1.318C1069.88,142.573,1070.466,142.224,1070.241,141.5Z" fill="#ffc848"/>
      <path id="패스_7823" data-name="패스 7823" d="M1044.081,152.136a2.723,2.723,0,0,0,1.344,2.511,2.041,2.041,0,0,0,.47-.347c.8-1.063,2.355-2.4,1.383-3.482C1045.905,149.295,1045.28,151.9,1044.081,152.136Z" fill="#ffc848"/>
      <path id="패스_7824" data-name="패스 7824" d="M1049.324,144.987c-.026.264.35.567.544.852.33-.156.829-.237.941-.49a1.039,1.039,0,0,0-.316-.974A.725.725,0,0,0,1049.324,144.987Z" fill="#ffc848"/>
    </g>
  </g>
</svg>
