<svg xmlns="http://www.w3.org/2000/svg" width="1920.223" height="289.912" viewBox="0 0 1920.223 289.912">
  <path id="패스_8097" data-name="패스 8097" d="M1907.974,1101.94c-112.989-8.884-222.374-28.183-329.091-53.55-53.393-12.52-106.127-26.621-158.3-41.952l-39-11.773-38.8-12.221-37.325-11.621c-12.289-3.9-24.63-7.52-36.993-11.078-49.412-14.409-99.178-27.358-149.258-38.426l-37.62-7.94-37.726-7.175-37.85-6.193-37.924-5.35a1496.4,1496.4,0,0,0-152.1-12.1,1117.505,1117.505,0,0,0-151.336,6.188c-24.971,2.922-49.845,6.5-74.452,11.221-24.588,4.746-48.873,10.723-72.825,17.644-47.845,13.953-94.216,32.385-137.6,56.052a587.791,587.791,0,0,0-62.563,39.3q-13.613,9.707-26.554,20.29v138.811H2210.89v-79.734a1065.775,1065.775,0,0,1-130.557,12.985C2021.908,1108,1964.469,1106.4,1907.974,1101.94Z" transform="translate(-290.667 -882.155)" fill="#fff"/>
</svg>
