<svg xmlns="http://www.w3.org/2000/svg" width="234.667" height="104.346" viewBox="0 0 234.667 104.346">
  <path id="cloud4" d="M201.269,326.045c-52.711-3.621-58.53,47.456-58.53,47.456s-31.006-17.084-48.722,11.707c0,0-30.45-7.99-30.45,16.215S97.26,414.234,97.26,414.234s19.932,29.32,48.17,2.679c0,0,26.258,32.2,55.839-3.629,0,0,27.682,27.289,54.021,1.9,0,0,39.625,7.832,42.709-11.39s-25.15-16.844-25.15-16.844,7.117-32.746-37.254-28.713C235.595,358.236,236.941,328.5,201.269,326.045Z" transform="translate(-63.568 -325.861)" fill="#fff"/>
</svg>
