<svg xmlns="http://www.w3.org/2000/svg" width="164.621" height="623.347" viewBox="0 0 164.621 623.347">
  <g id="hand_3" transform="translate(0)">
    <path id="패스_6715" data-name="패스 6715" d="M-2151.34,9.347s-44.394,129.71-19.519,272.278,23.112,202.123,23.112,202.123l133.939-17.833-45.708-205.746s-13.434-174.642-38.99-240.789Z" transform="translate(2178.429 139.599)" fill="#e38762"/>
    <g id="그룹_744" data-name="그룹 744" transform="translate(5.164)">
      <g id="그룹_732" data-name="그룹 732">
        <path id="패스_6716" data-name="패스 6716" d="M-2053.555,94.468c-1.434-4.3,1.18-106.682,1.18-106.682s.234-8.232,14.9-31.32,33.693-34.862,23.588-41.611S-2043.53-73.5-2043.53-73.5s34.808-79.167,17.875-80.858-34.961,54.731-34.961,54.731,15.114-68.385,2.141-71.883c-17.667-4.765-26.084,72.2-26.084,72.2s-1.135-66.711-15.315-65.772c-13.823.915-7.459,68.672-7.459,68.672s-12.359-45.092-22.2-42.423c-9.168,2.487-.844,55.5.425,69.857,1.246,14.107,9.026,54.8,9.026,54.8l-13.377,145.261,88.111,9.461Z" transform="translate(2133.779 171.723)" fill="#e38762"/>
      </g>
      <g id="그룹_733" data-name="그룹 733" transform="translate(27.425 13.015)">
        <path id="패스_6717" data-name="패스 6717" d="M-2028.971-155.9c-4.951.2-9.365,15.908-6.979,20.221,4.639,8.381,13.487,3.674,14.6-.682C-2020.632-139.164-2023.37-156.127-2028.971-155.9Z" transform="translate(2036.617 155.901)" fill="#fb3455"/>
      </g>
      <g id="그룹_734" data-name="그룹 734" transform="translate(28.14 42.48)">
        <path id="패스_6718" data-name="패스 6718" d="M-2033.566-120.08c-4.537.06-10.133,1.067-8.63,17.932s20.006,7.541,19.183,1.314S-2022.9-120.222-2033.566-120.08Z" transform="translate(2042.445 120.081)" fill="#fb3455"/>
      </g>
      <g id="그룹_735" data-name="그룹 735" transform="translate(13.569 71.846)">
        <path id="패스_6719" data-name="패스 6719" d="M-2047.586-74.1l-1.609-2.731c.665-.4,16.564-9.595,39.582-7.128l-.342,3.159C-2031.875-83.157-2047.434-74.193-2047.586-74.1Z" transform="translate(2049.195 84.382)" fill="#00133a"/>
      </g>
      <g id="그룹_736" data-name="그룹 736" transform="translate(2.323 40.009)">
        <path id="패스_6720" data-name="패스 6720" d="M-2001.132-122.732c-5.744,2.4-2.256,41.1,9.134,36.729C-1988.336-87.409-1990.373-127.221-2001.132-122.732Z" transform="translate(2003.854 123.085)" fill="#fb3455"/>
      </g>
      <g id="그룹_737" data-name="그룹 737" transform="translate(58.587 5.397)">
        <path id="패스_6721" data-name="패스 6721" d="M-2064.089-165.061c-6.518,1.567-20.86,61.987-8.11,59.461C-2068.1-106.413-2051.881-168-2064.089-165.061Z" transform="translate(2077.307 165.163)" fill="#fb3455"/>
      </g>
      <g id="그룹_738" data-name="그룹 738" transform="translate(89.578 22.696)">
        <path id="패스_6722" data-name="패스 6722" d="M-2100.641-144.116c7.289.539-.5,32.891-5.537,34.586s-14.837-5.47-9.265-16.481S-2106.17-144.525-2100.641-144.116Z" transform="translate(2117.105 144.132)" fill="#fb3455"/>
      </g>
      <g id="그룹_739" data-name="그룹 739" transform="translate(78.914 57.029)">
        <path id="패스_6723" data-name="패스 6723" d="M-2088.116-101.827c8.579,2.975,1.3,19.192-4.163,21.122s-10.026-5.2-8.551-9.09C-2097.732-97.955-2095.484-104.381-2088.116-101.827Z" transform="translate(2101.11 102.395)" fill="#fb3455"/>
      </g>
      <g id="그룹_740" data-name="그룹 740" transform="translate(90.513 88.845)">
        <path id="패스_6724" data-name="패스 6724" d="M-2121.926-40.805c16.067-6.026,23.07-19.55,21.305-22.452s-21.009,8.76-24.48,12.884C-2128.07-46.845-2127.828-38.591-2121.926-40.805Z" transform="translate(2126.966 63.717)" fill="#fb3455"/>
      </g>
      <g id="그룹_741" data-name="그룹 741" transform="translate(15.514 99.058)">
        <path id="패스_6725" data-name="패스 6725" d="M-2087.979-28.922c10.551,23.46,22.86,30.978,41.415,25.914s31.055-16.909,27.115-39.364-26.747,5.141-41.649.077S-2095.279-45.152-2087.979-28.922Z" transform="translate(2089.574 51.3)" fill="#fb3455"/>
      </g>
      <g id="그룹_742" data-name="그룹 742" transform="translate(18.897 81.438)">
        <path id="패스_6726" data-name="패스 6726" d="M-2021.459-66.987c-9.7-11.362-18.8-1.829-29.064-4.653-13.136-3.613-22.9,11.714-21.365,16.6S-2005.737-48.58-2021.459-66.987Z" transform="translate(2072.047 72.72)" fill="#fb3455"/>
      </g>
      <g id="그룹_743" data-name="그룹 743" transform="translate(39.182 110.859)">
        <path id="패스_6727" data-name="패스 6727" d="M-2063.2.532c-.045-.227-4.3-22.564,23.966-37.486l1.483,2.812c-26.069,13.76-22.5,33.213-22.341,34.036Z" transform="translate(2063.457 36.954)" fill="#00133a"/>
      </g>
    </g>
    <g id="그룹_745" data-name="그룹 745" transform="translate(57.462 162.385)">
      <path id="패스_6728" data-name="패스 6728" d="M-2084.505,31.706l-.069-3.174c19.67-.448,29.063-2.818,29.155-2.847l.8,3.072C-2055.011,28.864-2064.4,31.247-2084.505,31.706Z" transform="translate(2084.574 -25.685)" fill="#00133a"/>
    </g>
  </g>
</svg>
