<svg xmlns="http://www.w3.org/2000/svg" width="126.346" height="119.935" viewBox="0 0 126.346 119.935">
  <path id="합치기_14" data-name="합치기 14" d="M-6010.267,117.306c-1.565-.689-2.542-2.061-3.588-3.2a83.033,83.033,0,0,1-5.095-6.913c-2.03-2.75-2.449-6.035-2.473-9.208-.02-2.357-.642-4.859.461-7.191a2.351,2.351,0,0,0,.035-.961,2.461,2.461,0,0,0-2.234-2.713c-3.188-.461-6.391-.8-9.588-1.2a9.314,9.314,0,0,1-2.861-.441c-4.214-2.065-8.932-2.546-13.226-4.406A25.028,25.028,0,0,1-6056.7,75.5a10.794,10.794,0,0,1-3.279-7.376,24.858,24.858,0,0,1,5.953-17.436v0c2.4-3.682,7.562-3.924,9.768-7.846a7.736,7.736,0,0,1,.388,1.2,7.736,7.736,0,0,0-.388-1.2l.035.014,0,0c.938-.517,2.082-.5,2.969-1.138l.027.007-.027-.007c-.887.639-2.031.621-2.969,1.138a14.4,14.4,0,0,1,9.776-3.884A3.262,3.262,0,0,1-6035.736,40a9.93,9.93,0,0,1-1.054.418,9.93,9.93,0,0,0,1.054-.418,3.262,3.262,0,0,0,1.287-1.027v0l.007.029a3,3,0,0,1,2.157-.89c1.443-.053,2.885-.081,4.326-.16,3.157-.172,3.216-.278,2.617-3.363-.152-.781-.163-1.588-.238-2.383l0,0h0a17.6,17.6,0,0,1-1.983-7.392c-.114-2.884-1.112-5.644-.944-8.61.338-6.044,2.777-10.82,7.812-14.189A13.237,13.237,0,0,1-6013.823.03a18.428,18.428,0,0,1,7.6,1.057c3.164.7,6.04,1.875,7.913,4.73l.014.015v0a3.358,3.358,0,0,0,1,.868c4.646,4.081,5.725,5.927,9.376,16.033,1.238.446,2.163-.335,3.116-.871a17.514,17.514,0,0,1,7.656-2.719,2.717,2.717,0,0,0,.949-.14c6.307-2.808,12.672-1.417,19.025-.254a7.721,7.721,0,0,1,2.232.862,17.52,17.52,0,0,1,5.246,4.263c2.382,2.914,4.073,5.924,3.51,10.065-.6,4.392-1.41,8.551-4.248,12.082-.3.379-.651.722-.946,1.107-2.526,3.287-2.344,4.167,1.491,5.349a15.789,15.789,0,0,1,5.4,3.135,58.45,58.45,0,0,1,4.686,4.814c.289.354.608.687.865,1.071v.021c-.134.512-.587,1.012-.589,1.521,0-.509.456-1.009.589-1.521.5.538.252,1.51,1.082,1.854-.829-.344-.584-1.316-1.082-1.854a1.888,1.888,0,0,1,1.082,1.854l0,.012c-.014.212-.022.42-.022.624,0-.2.008-.413.022-.624h0c.656,1.3.81,2.856,1.971,3.9-1.162-1.045-1.315-2.6-1.971-3.9a5.981,5.981,0,0,1,1.971,3.9,2.4,2.4,0,0,1,1.228,1.992c.017,4.592-.57,9.139-3.236,12.967-1.2,1.728-1.719,3.9-3.358,5.282a32.194,32.194,0,0,1-8.88,5.792c-8.21,3.232-16.16,2.491-24.009-1.151-1.458-.678-2.951-1.287-4.435-1.907-.125-.053-.313.052-.573.1a9.761,9.761,0,0,0-1.647,4.913,6.229,6.229,0,0,1-1.024,3.192c-.911-.639-1.378-1.808-2.572-2.117,1.194.309,1.661,1.478,2.572,2.117v0a7.187,7.187,0,0,1-2.737,6.023c-1.522,4.449-4.828,7.667-8.041,10.773a14.375,14.375,0,0,1-10.029,3.669A19.049,19.049,0,0,1-6010.267,117.306Zm7.139-13.456c-.173,0-.429-.195-.641-.284C-6003.558,103.655-6003.3,103.85-6003.128,103.85Zm.044,0,.025-.008Zm-.348-.968c-.178.071-.231.447-.337.689.108-.242.16-.617.337-.689Zm19.244-1.372c-.262.65-.825,1.271-.827,1.96,0-.689.565-1.309.827-1.96a3.89,3.89,0,0,0,.371-1.312A3.89,3.89,0,0,1-5984.188,101.506Zm-1.655-2.894a1.617,1.617,0,0,1-.457-1.041A1.615,1.615,0,0,0-5985.843,98.611Zm-.235-1.757-.019.029.019-.029q.032-.05.066-.095Q-5986.046,96.8-5986.078,96.855Zm1.309-.575c-.037,0-.074-.007-.11-.009C-5984.843,96.273-5984.807,96.276-5984.77,96.28Zm-.4,0a1.591,1.591,0,0,1,.18-.01h0A1.591,1.591,0,0,0-5985.168,96.277Zm-18.081-41.952c-4.033,1.609-5.1,5.133-5.515,8.935-.173,1.579.16,3.2-.19,4.8a4.254,4.254,0,0,0,2.449,5.2,20.542,20.542,0,0,1,1.979,1.389c4.813,3.173,9.775,1.658,11.665-3.714a56.4,56.4,0,0,0,1.494-6.581c.382-4.535-3.294-9.64-10.045-10.471a1.6,1.6,0,0,0-.193-.011A4.768,4.768,0,0,0-6003.25,54.325ZM-6055,71.662h0Zm-.1-.008a.41.41,0,0,1-.323-.462A.41.41,0,0,0-6055.1,71.654Zm.059-.947a4.194,4.194,0,0,1,.648.462,4.194,4.194,0,0,0-.648-.462Zm-.337.272c0,.006,0,.011-.006.017s0-.011.006-.017a.564.564,0,0,1,.322-.275h0A.559.559,0,0,0-6055.378,70.979Zm104.242.012h0Zm-.074,0c-1.692-.035-2.79-1.5-4.258-2C-5954,69.49-5952.9,70.957-5951.21,70.991Zm-8.22-6.605c2.189.158,3.822,1.5,5.586,2.605a6.054,6.054,0,0,1,3.127,3.97,6.054,6.054,0,0,0-3.127-3.97c-1.764-1.1-3.4-2.447-5.586-2.605Zm3.76,4.536a7,7,0,0,1-.654-.291A7,7,0,0,0-5955.67,68.922Zm-.805-.369c-1.429-.749-2.729-1.852-4.5-1.873C-5959.2,66.7-5957.9,67.8-5956.476,68.553Zm-84.757-13.011a.126.126,0,0,0-.023.02c-.969.844-1.932,1.693-2.905,2.534a8.229,8.229,0,0,0-2.867,7.814c.065.462.252.987.875.906a1.11,1.11,0,0,0,.745-.485c2.867-5.436,7.649-8.537,13.1-10.856a16.531,16.531,0,0,0,5.384-3.177c.344-.339.687-.8.33-1.235a1.861,1.861,0,0,0-1.2-.68,29.322,29.322,0,0,0-7.591,1.323,7.565,7.565,0,0,1-.989.937l.989-.937-.989.937,0,0-.012.006a2.206,2.206,0,0,0-1.9,1.032,2.206,2.206,0,0,1,1.9-1.032c-.478.633-1.414.421-1.9,1.032.49-.611,1.426-.4,1.9-1.032a1.977,1.977,0,0,1-1.9,1.033l0,0,0,0a2.311,2.311,0,0,1-1.919,1c0-.015.006-.03.009-.045,0,.015-.006.03-.009.045l0-.018-.007.006-.442.382a4.228,4.228,0,0,1-.564.487Zm80.088,11.139h0Zm0,0,.117,0h0Zm-.45-.215c-.041-.035-.083-.074-.123-.114C-5961.677,66.392-5961.636,66.43-5961.595,66.466Zm-.484-.522-.086-.1Zm.261-1.579a.911.911,0,0,0-.618.573.643.643,0,0,0-.018.154.643.643,0,0,1,.018-.154.911.911,0,0,1,.618-.573q.242-.018.484-.026Q-5961.577,64.347-5961.818,64.365Zm1.591-.022q-.288-.01-.576-.011Q-5960.516,64.332-5960.228,64.343Zm-.661-.011h0Zm22.028-.556a.635.635,0,0,1-.064,0A.637.637,0,0,0-5938.86,63.776Zm-.11,0a.484.484,0,0,1-.314-.153A.483.483,0,0,0-5938.971,63.777Zm.326-.053c.036-.013.073-.027.109-.042C-5938.572,63.7-5938.608,63.712-5938.645,63.725Zm-.682-.147a.755.755,0,0,1-.048-.065A.755.755,0,0,0-5939.326,63.578Zm1.212-.1a1.916,1.916,0,0,1,.248-.1A1.916,1.916,0,0,0-5938.114,63.48Zm-101.853-9.792a.442.442,0,0,1,.446-.332h0A.442.442,0,0,0-6039.967,53.688Zm-14.061-3c1.077-.306,1.838-1.421,2.838-1.926-1,.506-1.761,1.619-2.838,1.926Zm4.912-1.921a26.678,26.678,0,0,0,5.2-4.6A26.721,26.721,0,0,1-6049.116,48.77Zm-.06-.027a2.58,2.58,0,0,0-.921-.229A2.582,2.582,0,0,1-6049.176,48.742Zm-1.176-.224c.054,0,.107-.007.163-.007h0C-6050.244,48.512-6050.3,48.514-6050.352,48.518Zm8.924-2.508h0Zm-.063,0a.914.914,0,0,1-.163-.02A.918.918,0,0,0-6041.491,46.011Zm.414-1.6c.2.058.293.5.434.768a1.05,1.05,0,0,1-.667.812,1.054,1.054,0,0,0,.668-.812c-.14-.266-.232-.71-.434-.768a.918.918,0,0,0-.251-.037A.916.916,0,0,1-6041.078,44.414Zm-.951.783c0,.008,0,.017,0,.026,0-.009,0-.018,0-.026s0-.042.005-.063C-6042.025,45.155-6042.027,45.176-6042.028,45.2Zm14.979-.56q-.056,0-.113-.015Q-6027.1,44.632-6027.049,44.637Zm-.143-.02a1.349,1.349,0,0,1-.147-.039A1.349,1.349,0,0,0-6027.192,44.617Zm1.487-.775a2.583,2.583,0,0,1-.278.338,2.592,2.592,0,0,0,.279-.339,7.214,7.214,0,0,0,1.549-2.928A7.214,7.214,0,0,1-6025.706,43.842Zm-17.815-.923q-.15,0-.3-.013Q-6043.671,42.917-6043.521,42.918Zm17.143-2.435a1.29,1.29,0,0,1-.458.767,4.1,4.1,0,0,1-.89.353,1.168,1.168,0,0,0-.787,1.138,1.168,1.168,0,0,1,.787-1.138,4.1,4.1,0,0,0,.89-.353,1.29,1.29,0,0,0,.458-.767.927.927,0,0,0,.006-.1A.927.927,0,0,1-6026.378,40.484Zm.552,2.169q.09-.31.184-.613-.093.3-.184.613Zm-10.975-.342h0Zm-.129,0a1.882,1.882,0,0,1-.953-.427A1.883,1.883,0,0,0-6036.93,42.308Zm11.19-.039c.006-.031.013-.061.019-.091C-6025.727,42.208-6025.733,42.238-6025.74,42.269Zm.019-.091c.512-2.6-.375-3.589-2.2-3.613C-6026.1,38.589-6025.209,39.574-6025.721,42.178Zm-14.231-.049c-.1-.061-.2-.121-.3-.18.1.059.2.12.3.18Zm-.313-.173.006-.006Zm.008-.007Zm-.558-.177h0Zm-.108,0a1.68,1.68,0,0,1-.215-.028A1.679,1.679,0,0,0-6040.923,41.77Zm2.824-.044a1.983,1.983,0,0,0-1.071-.405A1.983,1.983,0,0,1-6038.1,41.726Zm61.646-.188a60.613,60.613,0,0,1,10.473-1.854,2.465,2.465,0,0,0,1.863-1.436,22.071,22.071,0,0,0,1.459-3.562,1.871,1.871,0,0,0-1.952-2.2c-1.282.081-2.607.617-3.822.414-4.184-.7-7.1,1.749-10.035,3.942-1.06.791-2.73,2.17-2.281,3.445.367,1.039,1.328,1.008,2.341.979.17,0,.341-.01.512-.01A2.982,2.982,0,0,1-5976.454,41.538Zm-58.931-.56h0l-.317-.179.111.063Zm-4.88-.078.062-.041Zm.085-.056a2.024,2.024,0,0,1,.2-.109A2.024,2.024,0,0,0-6040.18,40.845Zm2.54-.33h0Zm-.119,0-.185,0Zm.349-.007c.06,0,.119-.008.178-.014C-6037.292,40.5-6037.351,40.5-6037.411,40.508Zm-.782,0Zm-.334-.01h0Zm-.254,0h0Zm20.633-.257a1,1,0,0,1-.224.028A1,1,0,0,0-6018.147,40.236Zm-9.183-.867a9.829,9.829,0,0,0-2.831-.37A9.83,9.83,0,0,1-6027.33,39.369Zm-5.687-.311h0Zm-.1,0c-.186,0-.371,0-.556-.01C-6033.488,39.055-6033.3,39.058-6033.118,39.059Zm1.433-.031c.249-.008.5-.016.746-.022C-6031.187,39.012-6031.436,39.02-6031.685,39.028Zm-2.757-.029Zm4.077,0h0Zm-3.976-.046.057-.025Zm.077-.034a6.343,6.343,0,0,1,2.565-.457h0A6.341,6.341,0,0,0-6034.264,38.919Zm4.028-.4a17.58,17.58,0,0,0,1.959.05,17.58,17.58,0,0,1-1.959-.05Zm13.055-.686a2.314,2.314,0,0,1,.136.746,2.314,2.314,0,0,0-.136-.746c-.008-.025-.018-.049-.027-.074C-6017.2,37.786-6017.189,37.811-6017.181,37.836Zm-10.805.729h0Zm7.071-.989a.9.9,0,0,0-.065.322.9.9,0,0,1,.065-.322c.318-.791,1.174-1.005,1.96-1.15C-6019.741,36.57-6020.6,36.785-6020.915,37.576Zm-2.419-2.362c-.006-1.376-.847-2.3-2.246-3.01C-6024.181,32.912-6023.34,33.838-6023.334,35.214Zm2.022-5.595h0Zm-.051,0h0ZM-6023,28.567c0-.016,0-.033-.005-.049C-6023.006,28.534-6023,28.55-6023,28.567Zm1.886-1.577a1.267,1.267,0,0,1,1.056,1.337,1.267,1.267,0,0,0-1.056-1.337Zm-.428.022a1.272,1.272,0,0,1,.28-.033h0A1.272,1.272,0,0,0-6021.543,27.012Zm.386-.027c-.031,0-.062,0-.093-.005C-6021.22,26.98-6021.188,26.982-6021.158,26.985Zm15.5-9.6h0Zm-.157-.008-.079-.011Zm-.789-.925c-.142.517.209.813.666.906-.456-.093-.806-.389-.666-.906.055-.2.421-.316.64-.467.479.052.885.284.928.756a.828.828,0,0,1,0,.084.828.828,0,0,0,0-.084c-.042-.471-.449-.7-.928-.756C-6006.185,16.132-6006.551,16.248-6006.606,16.449Zm8.3-10.631c-2.936-1.078-5.109-3.43-7.912-4.729,2.8,1.3,4.976,3.65,7.912,4.729Zm60.456,57.57h0Zm-102.365-8.719-.006.006ZM-6052.3,47.9c2.636-1.751,5.351-3.381,8.035-5.059-2.206,3.922-7.367,4.164-9.768,7.846A3.975,3.975,0,0,1-6052.3,47.9Zm8.07-5.045,0,0,0,0Zm45.933-37.022,1,.868A3.358,3.358,0,0,1-5998.294,5.834Z" transform="translate(6060.499 0.499)" fill="#ff847c" stroke="rgba(0,0,0,0)" stroke-miterlimit="10" stroke-width="1"/>
</svg>
