<svg xmlns="http://www.w3.org/2000/svg" width="27.455" height="29.479" viewBox="0 0 27.455 29.479">
  <g id="vector_flower_w_-y-s" data-name="vector_flower(w)-y-s" transform="matrix(0.087, -0.996, 0.996, 0.087, -756.519, 730.274)">
    <path id="패스_7825" data-name="패스 7825" d="M826.779,733.807a17.879,17.879,0,0,0-1.559-2.1c-.584-.66-1.261-1.23-2.272-.8a1.506,1.506,0,0,1-.619.02A3.815,3.815,0,0,0,819.3,732.4a6.814,6.814,0,0,0-1.688,3.547,2.589,2.589,0,0,0,2.315,3.183,15.307,15.307,0,0,1,2.573.268,4.618,4.618,0,0,0,1.243.034,3.874,3.874,0,0,0,3.33-4.165A1.738,1.738,0,0,0,826.779,733.807Z" transform="translate(-40.603 -30.373)" fill="#ff9c7c"/>
    <path id="패스_7826" data-name="패스 7826" d="M793.135,706.031a2.185,2.185,0,0,0-1.069-1.479.714.714,0,0,0-.446-.511c-.241-.27-.469-.554-.728-.805a.9.9,0,0,1-.293-.638,3.851,3.851,0,0,0,1.255-1.512h0a3.6,3.6,0,0,0,.978-3.182,3.048,3.048,0,0,0-.817-2.142,8.343,8.343,0,0,0-1.408-1,2.093,2.093,0,0,0-1.55-.3,1.8,1.8,0,0,1-.856-.041,3.329,3.329,0,0,0-1.594.087,5.86,5.86,0,0,0-2.518,1.283,7.621,7.621,0,0,1-.771.621.355.355,0,0,1-.539-.1,6.749,6.749,0,0,0-1.25-1.476.985.985,0,0,0-.693-.552,4.8,4.8,0,0,0-1.934-1.292,6.839,6.839,0,0,0-2.5-.619,13.326,13.326,0,0,0-3.551.482,2.674,2.674,0,0,1-1.54.471h0a6.4,6.4,0,0,0-2.981,2.522,2.52,2.52,0,0,0-.445,1.02,5.292,5.292,0,0,0,1.584,4.872c1.024.9,2.092,1.751,3.135,2.63.043.037.028.143.041.22a1.349,1.349,0,0,1-.746.407,2.781,2.781,0,0,0-.853.49c-.562.472-1.2.86-1.748,1.343a9.785,9.785,0,0,0-2.3,2.915,8.222,8.222,0,0,0-.708,4.5,2.568,2.568,0,0,0,.881,1.734,4.806,4.806,0,0,0,1.361.86,10.186,10.186,0,0,0,4.141.7,11.547,11.547,0,0,1,1.609-.1,13.643,13.643,0,0,0,1.844.016,3.391,3.391,0,0,0,2.32-.756,8.164,8.164,0,0,0,1.952-1.9,8.627,8.627,0,0,1,1.032-1.237c.26-.3.435-.336.75-.144a5.686,5.686,0,0,1,.619.42,4.687,4.687,0,0,0,2.155.921,7.29,7.29,0,0,1,.859.148,3.044,3.044,0,0,0,2.517-.274,1.124,1.124,0,0,0,.983-.506h0a8.351,8.351,0,0,0,2.255-1.512,4.98,4.98,0,0,0,1.893-2.971A5.036,5.036,0,0,0,793.135,706.031Zm-9.993,3.031a4.626,4.626,0,0,1-1.243-.034,15.294,15.294,0,0,0-2.573-.267,2.589,2.589,0,0,1-2.315-3.183,6.816,6.816,0,0,1,1.688-3.547,3.815,3.815,0,0,1,3.027-1.472,1.508,1.508,0,0,0,.619-.02c1.011-.435,1.688.136,2.272.8a17.906,17.906,0,0,1,1.559,2.1,1.738,1.738,0,0,1,.3,1.464A3.874,3.874,0,0,1,783.142,709.062Z" transform="translate(0)" fill="#ffe100"/>
  </g>
</svg>
