<svg xmlns="http://www.w3.org/2000/svg" width="78.485" height="76.353" viewBox="0 0 78.485 76.353">
  <g id="vector_flower-y-b" transform="matrix(0.891, 0.454, -0.454, 0.891, -343.377, -964.776)">
    <path id="패스_7825" data-name="패스 7825" d="M837.745,737.432a39.182,39.182,0,0,0-3.415-4.6c-1.28-1.445-2.762-2.694-4.977-1.742a3.3,3.3,0,0,1-1.355.044c-2.789-.115-4.9,1.309-6.632,3.224a14.927,14.927,0,0,0-3.7,7.769c-.679,4.128,2.219,6.91,5.071,6.972a33.539,33.539,0,0,1,5.637.586,10.113,10.113,0,0,0,2.723.074c4.166-.349,7.63-4.468,7.294-9.124A3.807,3.807,0,0,0,837.745,737.432Z" transform="translate(-27.844 -20.829)" fill="#ff9c7c"/>
    <path id="패스_7826" data-name="패스 7826" d="M825.145,722.293a4.787,4.787,0,0,0-2.342-3.239,1.564,1.564,0,0,0-.977-1.12c-.528-.591-1.027-1.214-1.6-1.764a1.965,1.965,0,0,1-.641-1.4,8.437,8.437,0,0,0,2.75-3.312h0c2.026-1.92,2.389-4.337,2.143-6.97-.163-1.746-.426-3.465-1.79-4.693a18.283,18.283,0,0,0-3.085-2.186,4.586,4.586,0,0,0-3.395-.656,3.935,3.935,0,0,1-1.876-.09,7.291,7.291,0,0,0-3.492.192,12.838,12.838,0,0,0-5.516,2.811,16.687,16.687,0,0,1-1.688,1.361A.778.778,0,0,1,802.46,701a14.785,14.785,0,0,0-2.738-3.233,2.158,2.158,0,0,0-1.519-1.209,10.511,10.511,0,0,0-4.237-2.83c-1.771-.6-3.547-1.451-5.48-1.355a29.19,29.19,0,0,0-7.779,1.057,5.858,5.858,0,0,1-3.374,1.031h0a14.007,14.007,0,0,0-6.529,5.524,5.517,5.517,0,0,0-.974,2.234c-.429,4.051.226,7.822,3.47,10.673,2.244,1.973,4.583,3.835,6.867,5.762.1.08.062.313.09.483a2.954,2.954,0,0,1-1.635.892,6.091,6.091,0,0,0-1.868,1.072c-1.232,1.034-2.619,1.885-3.828,2.942a21.436,21.436,0,0,0-5.03,6.386,18.01,18.01,0,0,0-1.551,9.854,5.625,5.625,0,0,0,1.929,3.8,10.529,10.529,0,0,0,2.981,1.885,22.311,22.311,0,0,0,9.071,1.523,25.3,25.3,0,0,1,3.524-.215,29.886,29.886,0,0,0,4.04.035,7.426,7.426,0,0,0,5.081-1.656c1.486-1.308,3.229-2.349,4.275-4.163a18.9,18.9,0,0,1,2.26-2.709c.57-.659.954-.736,1.644-.316a12.484,12.484,0,0,1,1.355.92,10.264,10.264,0,0,0,4.72,2.017,15.939,15.939,0,0,1,1.882.323,6.668,6.668,0,0,0,5.513-.6,2.462,2.462,0,0,0,2.152-1.108h0a18.3,18.3,0,0,0,4.94-3.312,10.908,10.908,0,0,0,4.146-6.508C826.328,727.526,826.643,724.813,825.145,722.293Zm-21.889,6.64a10.131,10.131,0,0,1-2.723-.074,33.494,33.494,0,0,0-5.637-.586c-2.852-.062-5.75-2.844-5.071-6.973a14.928,14.928,0,0,1,3.7-7.769c1.735-1.914,3.843-3.339,6.632-3.224a3.3,3.3,0,0,0,1.355-.043c2.215-.952,3.7.3,4.977,1.742a39.222,39.222,0,0,1,3.415,4.6,3.808,3.808,0,0,1,.648,3.206C810.886,724.466,807.421,728.585,803.256,728.934Z" transform="translate(0 0)" fill="#ffe100"/>
  </g>
</svg>
