<svg xmlns="http://www.w3.org/2000/svg" width="147.546" height="147" viewBox="0 0 147.546 147">
  <g id="vector_flower_w_-y-b" data-name="vector_flower(w)-y-b" transform="translate(-1323.034 -395.078)">
    <path id="패스_7831" data-name="패스 7831" d="M1334.557,483.764c5.226-.415,10.552,1.206,15.7-.79.375-.145,1.149.419,1.564.828a1.3,1.3,0,0,1-.02,1.213c-3.747,5.75-5.855,12.223-8.369,18.534-2.47,6.2-4.16,12.307-2.341,19.089.5,1.869,1.07,3.341,2.558,4.284,2.043,1.291,4.509,2,6.341,3.51,2.792,2.3,5.665,2.088,8.631,1.055a59.547,59.547,0,0,0,17.268-9.356c4.923-3.87,4.854-4.176,7.158,1.565a40.789,40.789,0,0,0,8.488,13.2c3.747,3.93,8.675,4.03,13.293,5.05,3.578.79,6.026-2.185,8.85-3.8,1.863-1.065,2.537-2.972,3.605-4.62,1.47-2.266,3.388-3.244,6.183-2.356,6.731,2.14,13.7,2.3,20.693,2.757a21.378,21.378,0,0,0,12.571-2.712,20.7,20.7,0,0,1,2.366-1.181c5.133-2.1,7.923-6.476,9.492-11.283,2.126-6.518,2.253-13.418,1.739-20.265a5.682,5.682,0,0,0-.783-2.485c-2.67-4.3-5.217-8.725-9.753-11.433a6.1,6.1,0,0,1-2.639-2.811c-2.316-5.119-6.889-7.135-11.96-8.339-2.553-.606-5.136-1.079-8.955-1.872,2.886-3.132,4.7-6.13,7.349-7.762,5.576-3.43,9.7-8.083,13.395-13.285,2.036-2.867,4-5.766,6.26-8.493,4.263-5.145,4.113-10.981,1.422-16.776a8.954,8.954,0,0,0-6.51-5.122c-5.264-1.134-10.446-1.863-15.274,1.47a7.94,7.94,0,0,1-1.805.812c-2.109.773-3.333.154-3.63-2.273-.814-6.664-3.514-12.654-6.284-18.639a9.717,9.717,0,0,0-4.339-4.822c-6.431-3.3-17.467-1.9-19.766,8.757a61.183,61.183,0,0,0-1.525,14.394c.147,6.368-.158,12.748-.241,19.122-.016,1.249-.445,2.157-1.738,2.382a2.467,2.467,0,0,1-3.056-1.787c-3.35-9.608-8.689-18.188-13.767-26.919-2.524-4.338-6.223-7.474-10.067-10.337-5.513-4.105-11.318-2.988-16.052,1.827a21.529,21.529,0,0,0-6.323,12.039c-.345,2.389-1.016,4.731-1.35,7.123a12.039,12.039,0,0,0-.029,4.587c1.519,5.76.982,11.836,2.875,17.538.566,1.707-.019,2.471-1.844,2.719a52.478,52.478,0,0,0-20.808,7.813c-6.209,3.849-8.713,9.66-10.049,16.318a6.132,6.132,0,0,0,.347,2.581C1324.576,479.219,1330.108,484.117,1334.557,483.764Zm50.027-2.539c.71-4.525,1.7-9.009,2.7-13.481a12.142,12.142,0,0,1,2.716-5.21c1.547-1.806,3.256-2.417,7.284-2.469a5.634,5.634,0,0,1,2.439.5c4.812,3,10.3,4.87,14.547,8.843,4.7,4.4,4.069,10.6-1.692,13.419-3.764,1.843-7.393,3.718-10.1,7.047a8.851,8.851,0,0,1-2.149,1.5c-3.549,2.3-7.309,3.348-11.042.714A10.665,10.665,0,0,1,1384.585,481.224Z" transform="translate(0 0)" fill="#ffb302"/>
    <path id="패스_7832" data-name="패스 7832" d="M1383.411,485.855c3.733,2.633,7.493,1.59,11.042-.714a8.851,8.851,0,0,0,2.149-1.5c2.7-3.329,6.333-5.2,10.1-7.047,5.761-2.822,6.391-9.019,1.692-13.419-4.244-3.974-9.735-5.839-14.547-8.843a5.634,5.634,0,0,0-2.439-.5c-4.028.052-5.737.662-7.284,2.469a12.142,12.142,0,0,0-2.716,5.21c-1,4.472-1.994,8.956-2.7,13.481A10.665,10.665,0,0,0,1383.411,485.855Z" transform="translate(5.884 6.228)" fill="#fff"/>
  </g>
</svg>
