<svg xmlns="http://www.w3.org/2000/svg" width="147.546" height="147" viewBox="0 0 147.546 147">
  <g id="vector_flower-w-b" transform="translate(-974.359 -395.078)">
    <path id="패스_7827" data-name="패스 7827" d="M985.882,483.764c5.227-.415,10.553,1.206,15.7-.79.376-.145,1.149.419,1.564.828a1.3,1.3,0,0,1-.019,1.213c-3.747,5.75-5.856,12.223-8.37,18.534-2.469,6.2-4.158,12.307-2.341,19.089.5,1.869,1.071,3.341,2.558,4.284,2.043,1.291,4.509,2,6.342,3.51,2.79,2.3,5.665,2.088,8.631,1.055a59.524,59.524,0,0,0,17.267-9.356c4.924-3.87,4.855-4.176,7.159,1.565a40.771,40.771,0,0,0,8.489,13.2c3.747,3.93,8.674,4.03,13.293,5.05,3.578.79,6.027-2.185,8.85-3.8,1.861-1.065,2.536-2.972,3.6-4.62,1.47-2.266,3.389-3.244,6.183-2.356,6.73,2.14,13.7,2.3,20.693,2.757a21.375,21.375,0,0,0,12.569-2.712,20.784,20.784,0,0,1,2.366-1.181c5.133-2.1,7.925-6.476,9.493-11.283,2.126-6.518,2.252-13.418,1.738-20.265a5.676,5.676,0,0,0-.782-2.485c-2.671-4.3-5.218-8.725-9.754-11.433a6.1,6.1,0,0,1-2.638-2.811c-2.316-5.119-6.889-7.135-11.96-8.339-2.553-.606-5.137-1.079-8.955-1.872,2.885-3.132,4.7-6.131,7.349-7.762,5.576-3.43,9.7-8.083,13.393-13.285,2.036-2.867,4-5.766,6.261-8.493,4.263-5.145,4.113-10.981,1.422-16.776a8.958,8.958,0,0,0-6.511-5.122c-5.263-1.134-10.445-1.863-15.273,1.47a7.959,7.959,0,0,1-1.8.812c-2.109.773-3.335.154-3.63-2.273-.814-6.664-3.515-12.654-6.285-18.639a9.712,9.712,0,0,0-4.339-4.822c-6.431-3.3-17.466-1.9-19.765,8.757a61.184,61.184,0,0,0-1.526,14.394c.148,6.368-.157,12.748-.24,19.122-.017,1.249-.445,2.157-1.738,2.382a2.467,2.467,0,0,1-3.056-1.787c-3.35-9.608-8.69-18.188-13.768-26.919-2.524-4.338-6.222-7.474-10.067-10.337-5.512-4.105-11.317-2.988-16.051,1.827a21.524,21.524,0,0,0-6.324,12.039c-.344,2.389-1.015,4.731-1.349,7.123a12.016,12.016,0,0,0-.029,4.587c1.518,5.76.981,11.836,2.873,17.538.566,1.707-.019,2.471-1.843,2.719a52.48,52.48,0,0,0-20.808,7.813c-6.21,3.849-8.713,9.66-10.049,16.318a6.113,6.113,0,0,0,.346,2.581C975.9,479.22,981.434,484.117,985.882,483.764Zm50.028-2.539c.709-4.525,1.7-9.009,2.7-13.481a12.154,12.154,0,0,1,2.716-5.21c1.548-1.806,3.256-2.417,7.285-2.469a5.626,5.626,0,0,1,2.437.5c4.813,3,10.3,4.87,14.548,8.843,4.7,4.4,4.069,10.6-1.693,13.419-3.763,1.843-7.393,3.718-10.1,7.047a8.812,8.812,0,0,1-2.149,1.5c-3.548,2.3-7.308,3.348-11.042.714A10.664,10.664,0,0,1,1035.911,481.225Z" transform="translate(0)" fill="#f6f4f1"/>
    <path id="패스_7828" data-name="패스 7828" d="M1034.736,485.855c3.734,2.633,7.494,1.59,11.042-.714a8.811,8.811,0,0,0,2.149-1.5c2.7-3.329,6.334-5.2,10.1-7.047,5.762-2.822,6.391-9.019,1.693-13.419-4.245-3.974-9.735-5.839-14.548-8.843a5.627,5.627,0,0,0-2.437-.5c-4.029.052-5.737.663-7.285,2.469a12.154,12.154,0,0,0-2.716,5.21c-1,4.471-1.994,8.956-2.7,13.481A10.664,10.664,0,0,0,1034.736,485.855Z" transform="translate(5.884 6.228)" fill="#ffb302"/>
  </g>
</svg>
