<svg xmlns="http://www.w3.org/2000/svg" width="108.198" height="171.838" viewBox="0 0 108.198 171.838">
  <g id="vector" transform="translate(-1000.476 -85.124)">
    <path id="패스_3628" data-name="패스 3628" d="M1071.743,130.6c-.362-.394-.723-.786-1.084-1.18A6.417,6.417,0,0,0,1071.743,130.6Z" fill="#f4ad97"/>
    <path id="패스_3630" data-name="패스 3630" d="M1002.2,147.588a6.6,6.6,0,0,0,1.591.79c2.855.867,5.762,1.581,8.581,2.549,4.6,1.579,8.984.945,13.316-.922.913-.393,1.824-.8,2.766-1.115a1.308,1.308,0,0,1,1.548.41c.067.924-.6,1.458-1.156,1.987-3.543,3.343-5.733,7.571-8.037,11.776-2.486,4.534-1.944,9.312-1.433,14.007.379,3.481,3.987,4.513,6.713,2.245,1.373-1.144,2.648-2.407,4.014-3.561a1.262,1.262,0,0,1,1.891.716,7.108,7.108,0,0,1,.186,1.777c-.148,2.257,1,3.654,2.756,4.911,1.9,1.366,3.671,1.158,5.593.24a1.625,1.625,0,0,1,2.325.442c.09,1.7.095,3.686.323,5.644a9.026,9.026,0,0,0,2.815,5.786c1.478,1.363,3.291,1.213,5.082,1.2h0c.117-1.544.2-3.092.366-4.631a1.731,1.731,0,0,1,1.4-1.652c1.174-.2,1.717.525,1.963,1.6.173.753.445,1.483.673,2.221h0a10.485,10.485,0,0,0,5.662,3.1,5.217,5.217,0,0,0,6.557-3.6,16.658,16.658,0,0,0,.5-3.521c.318-3.536.582-7.077.927-10.61.027-.283.511-.521.916-.908.6,1.245,1.144,2.47,1.777,3.647a11.708,11.708,0,0,0,4.537,4.621,4.825,4.825,0,0,0,7.271-2.575c1-2.623,1.689-5.3.657-8.14a16.433,16.433,0,0,1-.872-5.527c1.767.474,3.081.818,4.39,1.18,3.866,1.067,5.459.253,6.8-3.455.763-2.111,1.233-4.184-.021-6.314-.475-.808-1.119-1.678-.481-2.952,2.179-.3,4.506-.565,6.816-.939,2.688-.436,4.1-2.311,4.833-4.726.683-2.267-.592-3.771-2.3-5.025-1.44-1.057-2.861-2.14-4.29-3.212-.751-.17-1.644-.345-1.552-1.31.094-.99,1.046-.976,1.81-1.036a10.569,10.569,0,0,1,1.165.034v0h0a7.47,7.47,0,0,0,4.567-2.663c4.513-4.858,4.964-9.28-.192-13.909a10.26,10.26,0,0,0-9.473-2.369c-2.524.538-5.013,1.245-7.531,1.813-.219.049-.58-.352-.805-.606a.574.574,0,0,1,.073-.549,17.427,17.427,0,0,1,2.18-2,44.171,44.171,0,0,0,8.32-7.687,7.177,7.177,0,0,0,.862-7.826c-1.572-2.647-4.12-2.9-6.806-2.568a14.787,14.787,0,0,0-2.844.853c-.751.254-1.473.6-2.229.839-.688.217-1.72-.724-1.485-1.4.591-1.685,1.329-3.318,1.9-5.01a7.407,7.407,0,0,0,.234-5.249,3.807,3.807,0,0,0-4.66-2.608,8.794,8.794,0,0,0-1.656.679,1.693,1.693,0,0,1-2.458-.845,15.11,15.11,0,0,0-.865-1.57c-2.055-2.935-4.308-3.207-6.966-.911a12.931,12.931,0,0,0-3.757,6c-1.462,4.487-2.9,8.982-4.7,14.573-.069-3.968-.113-6.857-.172-9.747-.073-3.59-.235-7.191-1.5-10.59a6.468,6.468,0,0,0-8.276-3.906,6.093,6.093,0,0,0-3.346,3.24,10.337,10.337,0,0,0-1.086,1.26q-.069.56-.134,1.118c.144.653.916,1.4-.03,1.9-.293.156-1.032-.243-1.394-.576a5.545,5.545,0,0,1-.842-1.417h0c-.76-.918-1.472-1.88-2.288-2.745a8.841,8.841,0,0,0-9.244-2.514c-3.155.8-4.548,3.581-2.947,6.383,1.183,2.068,2.647,3.974,3.948,5.977a16.891,16.891,0,0,1,2.909,6.586c-2.784-.263-4.2-2.182-6.147-3.027-2-.867-3.814-2.163-6.139-2.121-3.381.06-5.664,2.462-5.224,5.809a15.675,15.675,0,0,0,1.28,3.934c.383.905,1.055,1.683,1.5,2.567a1.283,1.283,0,0,1-.044,1.1,1.167,1.167,0,0,1-.99.429c-1.537-.4-3.038-.93-4.569-1.348a15.451,15.451,0,0,0-9.388.455,4.526,4.526,0,0,0-3.142,3.965c-.241,1.62.8,2.532,2,3.371,1.793,1.253,3.525,2.594,5.3,3.873,2.319,1.67,3.715,4,5.262,6.833-3.81,2.172-6.938,4.92-10.691,6.788a11.984,11.984,0,0,0-5.958,5.63C1000.048,144.9,1000.433,146.465,1002.2,147.588Zm38.137,26.2c.158-2.022-.087-4.281,2.146-5.449.125-.065.477.01.5.081C1043.644,170.861,1041.65,172.146,1040.333,173.79Zm45.491-11.139c-.184.033-.405.149-.549.086-2.665-1.152-5.3-2.369-6.882-5a1.149,1.149,0,0,1,.132-1.041c.191-.24.778-.476.973-.356,2.456,1.508,5.167,2.719,6.713,5.361C1086.464,162.135,1086.293,162.475,1085.824,162.651Zm2.317-26.349c.289.2.558.379.826.563-.205.3-.348.695-.629.884a2.38,2.38,0,0,1-2.745.283,2.568,2.568,0,0,1-.674-.862c-.023-.037.21-.329.354-.358C1086.23,136.619,1087.2,136.465,1088.141,136.3Zm-9.026-16.832c2.224-1.852,4.351-4.06,7.224-5.051.29-.1.693.124,1.044.2.022.17.128.428.056.5q-6.684,6.211-13.414,12.371c-.208.19-.691.08-1.9.18C1074.775,124.479,1076.6,121.562,1079.115,119.47Zm-25.261-29.025a2.129,2.129,0,0,1,2.019,1.849c.382,1.482-.872,2.537-3.2,2.681-.657.071-1.029-.379-1.1-1.016C1051.355,91.972,1052.377,90.4,1053.854,90.445Zm-9.443,35.711c3.792-5.425,7.532-5.752,12.3-4.382a40.147,40.147,0,0,1,12.594,6.5,16.354,16.354,0,0,0,1.272,1.064l-1.272-1.064,1.272,1.064.078.069.007.008c.361.394.722.786,1.084,1.18a12.833,12.833,0,0,0,1.268,2.014c3.054,3.314,2.664,7.335,2.312,11.31a4.745,4.745,0,0,1-1.129,2.7c-3.693,3.85-6.851,8.332-11.961,10.583l-.01.005-1.237.957-.03.022-.018,1.152.059,0h0c-.013.04-.019.08-.031.12a22.537,22.537,0,0,1,2.356,10.2c.154,6.148.388,12.333-1.677,18.683a8.038,8.038,0,0,1-2.4-7.067c.69-4.185.358-8.348.473-12.514a34.032,34.032,0,0,1,1.252-9.3l-.029-.06.058-.058-.058.058v-.063l-2.354-.133a14.128,14.128,0,0,1-12.045-.994l0,0-1.218-1.1q-.526-.088-1.049-.2h0c-2.359-.629-2.584-2.976-3.7-4.6h0a13.937,13.937,0,0,1-2.347-13.987A51,51,0,0,1,1044.411,126.156Zm-11.339-12.678c.787-.975,1.8-.53,2.656-.028,3.038,1.793,5.754,3.886,6.84,8.078-3.235-.842-5.516-2.721-8.08-3.953-.465-.224-.761-.887-1.038-1.4C1032.994,115.333,1032.317,114.412,1033.072,113.478Zm-6.658-7.537a1.162,1.162,0,0,1,1.041-.2c1.172.65,2.3,1.379,3.415,2.13a1.943,1.943,0,0,1,.621,2.562c-.263.712-.5,1.433-.9,2.582a23.105,23.105,0,0,1-4.435-6.111A1.047,1.047,0,0,1,1026.414,105.941Z" fill="#f4ad97"/>
    <path id="합치기_13" data-name="합치기 13" d="M-5207.663-962.19c-.939-1.632-.6-3.467-.585-5.233.04-4.746.178-9.493.142-14.238-.021-2.765-.205-2.7-3.166-2.976a17.533,17.533,0,0,0-2.561.009c-1.9.1-3.795.2-5.518-1.033.991-.058,1.985-.087,2.974-.177l.083-.007-.083.007c-.988.091-1.983.12-2.974.177a28.277,28.277,0,0,1-10.163-2.617c-3.85-1.774-5.288-5.1-5.892-8.964a2.04,2.04,0,0,1,1.031-2,8.745,8.745,0,0,1,6.181-1.44,48.4,48.4,0,0,1,15.6,5.358,3.5,3.5,0,0,1,2.19,3.247h0a2.379,2.379,0,0,0-.121.766,2.379,2.379,0,0,1,.121-.766l.071.216-.071-.216a6.7,6.7,0,0,1,.859.781c.525.671.995,1.183,1.654.122a4.445,4.445,0,0,0,.4-2.809,89.785,89.785,0,0,1,.5-15.787q-.133-5.392-.266-10.787h0c.118-1.544.2-3.092.367-4.63a1.731,1.731,0,0,1,1.4-1.652c1.175-.2,1.718.524,1.963,1.6.173.753.445,1.483.674,2.221v0c.268,13.21.6,26.422.774,39.635.075,5.737-.173,11.476-.285,17.215a5.038,5.038,0,0,1-.833,3.378h0c-.063,1.054-.375,1.975-1.554,2.18a2.855,2.855,0,0,1-.493.044A2.819,2.819,0,0,1-5207.663-962.19Zm5-18.123c0-6.964-.159-13.93-.161-20.894C-5202.819-994.243-5202.66-987.277-5202.661-980.313Zm-10.661-4.906h0Zm-.044,0-.66,0Zm-3.435,0h0Zm-.141,0a6.288,6.288,0,0,1-2.021-.284A6.284,6.284,0,0,0-5216.941-985.223Zm.444,0,.323-.005Zm.4-.007.159,0Zm.4-.006h0Zm-3.4-.317-.032-.012Zm6.1-.158h0Zm-.084,0c-.169,0-.34-.007-.513-.016C-5213.415-985.719-5213.244-985.713-5213.074-985.712Zm-1.337-.076Zm-.606-.046c-.23-.015-.459-.026-.686-.028C-5215.477-985.861-5215.248-985.849-5215.018-985.834Zm-1.153-.019.16-.007Zm.345-.01h0Zm4.993-.416c.041-.029.082-.058.122-.09C-5210.75-986.337-5210.792-986.307-5210.833-986.279Zm.24-.186-.085.071.085-.071a1.888,1.888,0,0,0,.692-1.508A1.888,1.888,0,0,1-5210.593-986.465Zm.294-5.3-.03-.091Zm6.934-10.971q-.018,1.789-.016,3.577,0-1.789.016-3.577c0-.07,0-.139,0-.209C-5203.364-1002.879-5203.364-1002.809-5203.365-1002.74Zm-.848-7.646A7.517,7.517,0,0,1-5202.8-1006a7.517,7.517,0,0,0-1.417-4.387,1.352,1.352,0,0,0-1.028-.672A1.352,1.352,0,0,1-5204.212-1010.385Zm-.3,1.236a1.164,1.164,0,0,0-1.076-.908A1.164,1.164,0,0,1-5204.513-1009.149Zm-2.469-.623.053-.065Zm.087-.106.066-.08Zm.787-.128.05-.01Zm.375-.05.079,0h0Zm.388-1c.029,0,.059,0,.089,0h0C-5205.286-1011.057-5205.316-1011.056-5205.345-1011.053Zm-1.867-9.514.043-.009Zm.309-.093a1.934,1.934,0,0,0,.6-.423A1.934,1.934,0,0,1-5206.9-1020.66Zm.6-.423.05-.051Zm3.458-1.943a2.419,2.419,0,0,0-.94-.226A2.419,2.419,0,0,1-5202.843-1023.026Zm-.973-.226h0Z" transform="translate(6258.317 1217.032)" fill="#245a7e" stroke="rgba(0,0,0,0)" stroke-miterlimit="10" stroke-width="1"/>
    <path id="패스_3642" data-name="패스 3642" d="M1040.563,152.315h0v0l3.517-.178h0c1.2-.241,1.824-2.841,3.2-1.318.972,1.079-.582,2.419-1.382,3.482a2.068,2.068,0,0,1-.471.347q-.579,1.136-1.156,2.27h0q.522.109,1.049.2a4.21,4.21,0,0,1,1.218,1.1l0,0,0,0,0,0a14.128,14.128,0,0,0,12.045.994,2.774,2.774,0,0,1,2.372-1.019h0l.03-.022a4.052,4.052,0,0,1,1.237-.957l.01-.007-.01.007.01-.005c5.11-2.251,8.268-6.733,11.961-10.583a4.745,4.745,0,0,0,1.129-2.7c.352-3.975.742-8-2.312-11.31a12.833,12.833,0,0,1-1.268-2.014,6.417,6.417,0,0,1-1.084-1.18l-.008-.008.008.008-.007-.008-.078-.069a16.354,16.354,0,0,1-1.272-1.064,40.147,40.147,0,0,0-12.594-6.5c-4.765-1.37-8.505-1.043-12.3,4.382a51,51,0,0,0-6.2,12.172A13.937,13.937,0,0,0,1040.563,152.315Zm27.855-12.693c1.208,0,1.539.963,1.824,1.88.224.722-.362,1.071-.927,1.223a1.588,1.588,0,0,1-2.159-1.318A1.617,1.617,0,0,1,1068.418,139.622Zm-3.149,10.709c-.125.885-.858,1.2-1.678,1.3-1-.12-1.245-.832-1.177-1.654a1.339,1.339,0,0,1,1.622-1.239A1.272,1.272,0,0,1,1065.269,150.331Zm-3.938-19.68a1.807,1.807,0,0,1,1.973-.872,1.635,1.635,0,0,1,1.353,1.623,4.242,4.242,0,0,1-.994,3.233c-.373.429-.875.879-1.464.537a3.42,3.42,0,0,1-1.1-1.172,4.933,4.933,0,0,1-.255-1.46A6.41,6.41,0,0,1,1061.331,130.651Zm-2.037,11.234a2.1,2.1,0,0,1,2.013-1.832,1.421,1.421,0,0,1,1.585,1.344,2.12,2.12,0,0,1-2.279,2.114A1.4,1.4,0,0,1,1059.294,141.885Zm-6,.3a1.435,1.435,0,0,1-.948-1.834c.136-.684.13-1.739,1.312-1.4.842.242,1.08,1.007,1.058,1.868C1054.575,141.6,1054.273,142.411,1053.3,142.187Zm-.566-9.454c.072-1.24.815-2.045,1.758-1.906,1.2.178,1.907,1.2,1.806,2.7-.142.945-.37,1.927-1.572,2.168S1052.624,134.585,1052.732,132.733Zm4.277,16.747a3.04,3.04,0,0,1-.458,3.323.993.993,0,0,1-1.533.1,2.41,2.41,0,0,1,.012-3.671c.248-.233.7-.246,1.064-.361C1056.407,149.067,1056.848,149.194,1057.009,149.48Zm-3.49-25.037c1.9-.144,2.8.476,2.832,1.985-.193.7-.24,1.55-1.2,1.716-1.291.223-3.127-1.545-2.91-2.848C1052.345,124.69,1052.926,124.487,1053.519,124.443Zm-3.026,19.932a1.037,1.037,0,0,1,.316.974c-.112.253-.611.334-.941.49-.194-.285-.57-.588-.544-.852A.725.725,0,0,1,1050.493,144.375Zm-3.672-12.381a2.352,2.352,0,0,1,1.564.422,1.174,1.174,0,0,1,.264,1.549c-.492,1.008-.781,2.222-2.177,2.413a3.033,3.033,0,0,1-1-.473A2.282,2.282,0,0,1,1046.821,131.994Zm-.659,7.32a1.418,1.418,0,0,1,1.505,1.392,3.229,3.229,0,0,1-.167.559c-.593,1.6-1.577,2.431-2.4,1.916a2.093,2.093,0,0,1-.91-1.377A2.271,2.271,0,0,1,1046.162,139.314Z" fill="#fffefd"/>
    <path id="패스_3658" data-name="패스 3658" d="M1062.2,135.172c.589.342,1.091-.108,1.464-.537a4.242,4.242,0,0,0,.994-3.233,1.635,1.635,0,0,0-1.353-1.623,1.807,1.807,0,0,0-1.973.872,6.41,6.41,0,0,0-.487,1.889,4.933,4.933,0,0,0,.255,1.46A3.42,3.42,0,0,0,1062.2,135.172Z" fill="#ffc848"/>
    <path id="패스_3659" data-name="패스 3659" d="M1054.724,135.692c1.2-.241,1.43-1.223,1.572-2.168.1-1.5-.6-2.519-1.806-2.7-.943-.139-1.686.666-1.758,1.906C1052.624,134.585,1053.516,135.934,1054.724,135.692Z" fill="#ffbc23"/>
    <path id="패스_3660" data-name="패스 3660" d="M1046.472,136.378c1.4-.191,1.685-1.4,2.177-2.413a1.174,1.174,0,0,0-.264-1.549,2.352,2.352,0,0,0-1.564-.422,2.282,2.282,0,0,0-1.353,3.911A3.033,3.033,0,0,0,1046.472,136.378Z" fill="#ffcd5c"/>
    <path id="패스_3661" data-name="패스 3661" d="M1055.03,149.228a2.41,2.41,0,0,0-.012,3.671.993.993,0,0,0,1.533-.1,3.04,3.04,0,0,0,.458-3.323c-.161-.286-.6-.413-.915-.613C1055.733,148.982,1055.278,148.995,1055.03,149.228Z" fill="#ffbe2b"/>
    <path id="패스_3662" data-name="패스 3662" d="M1055.154,128.144c.957-.166,1-1.019,1.2-1.716-.035-1.509-.936-2.129-2.832-1.985-.593.044-1.174.247-1.275.853C1052.027,126.6,1053.863,128.367,1055.154,128.144Z" fill="#ffc53e"/>
    <path id="패스_3663" data-name="패스 3663" d="M1045.1,143.181c.82.515,1.8-.319,2.4-1.916a3.229,3.229,0,0,0,.167-.559,1.418,1.418,0,0,0-1.505-1.392,2.271,2.271,0,0,0-1.969,2.49A2.093,2.093,0,0,0,1045.1,143.181Z" fill="#ffc94e"/>
    <path id="패스_3664" data-name="패스 3664" d="M1060.613,143.511a2.12,2.12,0,0,0,2.279-2.114,1.421,1.421,0,0,0-1.585-1.344,2.1,2.1,0,0,0-2.013,1.832A1.4,1.4,0,0,0,1060.613,143.511Z" fill="#ffc745"/>
    <path id="패스_3665" data-name="패스 3665" d="M1062.414,149.979c-.068.822.181,1.534,1.177,1.654.82-.1,1.553-.417,1.678-1.3a1.272,1.272,0,0,0-1.233-1.591A1.339,1.339,0,0,0,1062.414,149.979Z" fill="#ffdf94"/>
    <path id="패스_3666" data-name="패스 3666" d="M1054.72,140.822c.022-.861-.216-1.626-1.058-1.868-1.182-.34-1.176.715-1.312,1.4a1.435,1.435,0,0,0,.948,1.834C1054.273,142.411,1054.575,141.6,1054.72,140.822Z" fill="#ffbf2a"/>
    <path id="패스_3667" data-name="패스 3667" d="M1069.315,142.725c.565-.152,1.151-.5.927-1.223-.285-.917-.616-1.885-1.824-1.88a1.617,1.617,0,0,0-1.262,1.785A1.588,1.588,0,0,0,1069.315,142.725Z" fill="#ffc43c"/>
    <path id="패스_3668" data-name="패스 3668" d="M1045.425,154.647a2.068,2.068,0,0,0,.471-.347c.8-1.063,2.354-2.4,1.382-3.482-1.373-1.523-2,1.077-3.2,1.318h0A2.745,2.745,0,0,1,1045.425,154.647Z" fill="#ffbe28"/>
    <path id="패스_3670" data-name="패스 3670" d="M1050.809,145.349a1.037,1.037,0,0,0-.316-.974.725.725,0,0,0-1.169.612c-.026.264.35.567.544.852C1050.2,145.683,1050.7,145.6,1050.809,145.349Z" fill="#ffde93"/>
  </g>
</svg>
