<svg xmlns="http://www.w3.org/2000/svg" width="146" height="146" viewBox="0 0 146 146">
  <g id="icon_health" transform="translate(-496 -1934)">
    <circle id="illust." cx="73" cy="73" r="73" transform="translate(496 1934)" fill="#fff"/>
    <path id="icon" d="M169.015,122.973c10.773-2.261,20.2,4.646,25.448,12.267,5.254-7.621,14.678-14.528,25.587-12.267,16.965,4.167,22.353,20.01,14.271,38.586h-26.39l-.271.952-4.712,15.839L191.77,141.671h-2.961l-6.058,19.768H154.608c-7.943-18.457-2.558-34.3,14.407-38.466Zm64.1,41.325c-6.331,12.864-18.988,26.678-38.648,38.585-19.521-11.907-32.314-25.841-38.643-38.7h29.355l.268-.952,4.848-16.079,11.176,36.681h2.961l5.925-19.531Z" transform="translate(374.489 1849.29)" fill="#cb0023" fill-rule="evenodd"/>
  </g>
</svg>
