<svg xmlns="http://www.w3.org/2000/svg" width="146" height="146" viewBox="0 0 146 146">
  <g id="icon_change" transform="translate(-1972.558 -421.187)">
    <circle id="illust." cx="73" cy="73" r="73" transform="translate(1972.558 421.187)" fill="#fff"/>
    <path id="패스_2053" data-name="패스 2053" d="M2188.564,1131.152h-19.455a1.988,1.988,0,0,1-1.988-1.988h0a1.988,1.988,0,0,1,1.988-1.988h19.455a1.988,1.988,0,0,1,1.988,1.988h0A1.988,1.988,0,0,1,2188.564,1131.152Z" transform="translate(-133.138 -601.488)" fill="#707070"/>
    <path id="패스_2054" data-name="패스 2054" d="M2188.564,1183.763h-19.455a1.988,1.988,0,0,1-1.988-1.988h0a1.988,1.988,0,0,1,1.988-1.988h19.455a1.988,1.988,0,0,1,1.988,1.988h0A1.988,1.988,0,0,1,2188.564,1183.763Z" transform="translate(-133.138 -647.857)" fill="#707070"/>
    <path id="패스_2055" data-name="패스 2055" d="M2220.338,1233.106a.771.771,0,0,0-.758.911,5.517,5.517,0,0,0,10.845,0,.771.771,0,0,0-.758-.911Z" transform="translate(-179.36 -694.848)" fill="#707070"/>
    <g id="그룹_257" data-name="그룹 257" transform="translate(2016.058 444.705)">
      <path id="패스_2056" data-name="패스 2056" d="M2053.368,523.183h-15.621a5.226,5.226,0,0,1-5.187-4.816c-.662-8.807-4.255-14.387-8.061-20.3-4.15-6.443-8.44-13.105-8.44-23.879a29.353,29.353,0,0,1,24.743-29.11,30.086,30.086,0,0,1,10.217.122,29.487,29.487,0,0,1,24.04,28.987c0,10.773-4.291,17.436-8.441,23.879-3.805,5.908-7.4,11.488-8.061,20.3A5.227,5.227,0,0,1,2053.368,523.183Z" transform="translate(-2016.058 -444.705)" fill="#ffcb00"/>
    </g>
    <g id="그룹_258" data-name="그룹 258" transform="translate(2024.142 461.982)">
      <path id="패스_2057" data-name="패스 2057" d="M2091.3,620.995a1.917,1.917,0,0,1-1.553-.79,26.955,26.955,0,0,1-2.462-28.956,1.92,1.92,0,0,1,3.312,1.942c-.294.507-6.882,12.206,2.253,24.754a1.92,1.92,0,0,1-1.551,3.05Z" transform="translate(-2084.182 -590.303)" fill="#fff"/>
    </g>
  </g>
</svg>
