<svg xmlns="http://www.w3.org/2000/svg" width="199.372" height="184.464" viewBox="0 0 199.372 184.464">
  <path id="vector_slash" d="M-3479.234-1599a22.706,22.706,0,0,1,4.43-10.308c15.035-21.119,30.036-42.26,45.348-63.182,10.346-14.135,19.848-28.885,30.7-42.655a174.62,174.62,0,0,1,15.085-17.449,13.638,13.638,0,0,1,4.187-3.087c3.192-1.315,6.05.519,5.968,3.805-.026,1.966-1.139,3.484-2.156,5.007-8.269,12.359-17.806,23.784-26.5,35.818-18.73,25.918-38.289,51.214-57.148,77.033-2.721,3.723-5.545,7.375-8.4,11a19.15,19.15,0,0,1-8.531,6.32,4.762,4.762,0,0,1-1.577.343C-3479-1596.361-3479.464-1597.219-3479.234-1599Zm30.767-1.328c-1.127-.869-.458-2.082-.281-3.147a24.245,24.245,0,0,1,4.27-10.075c18.031-25.526,35.473-51.482,55.255-75.732,7.321-8.975,13.943-18.535,22.327-26.618a12.945,12.945,0,0,1,5.3-3.555,3.421,3.421,0,0,1,4.541,3.389,21.537,21.537,0,0,1-2.8,7.171c-5.251,8.816-11.449,16.981-17.49,25.252-18.083,24.76-37.757,48.29-56.213,72.766a33.592,33.592,0,0,1-11.482,10.052,5.508,5.508,0,0,1-2.293.906A1.8,1.8,0,0,1-3448.467-1600.329Zm-55.754-10.982a28.589,28.589,0,0,1,4.2-10.384c10.638-16.841,23.2-32.252,35.217-48.081,14.674-19.332,28.94-38.975,43.427-58.449q8.262-11.108,17.506-21.426a20.008,20.008,0,0,1,4.093-3.7c1.518-.965,3.113-1.228,4.565-.068a3.618,3.618,0,0,1,1.031,4.2,35.6,35.6,0,0,1-5.209,10.031c-24.558,34.573-49.19,69.088-75.913,102.053-5.161,6.365-9.951,13.031-14.971,19.512-2.849,3.677-6.053,7-10.509,8.746a4.751,4.751,0,0,1-1.677.391C-3503.667-1608.488-3504.229-1609.388-3504.221-1611.311Zm95.531-5.6a23.33,23.33,0,0,1,3.451-10.049,364.239,364.239,0,0,1,40.947-54.492,17.573,17.573,0,0,1,4.251-3.514,3.277,3.277,0,0,1,3.759.06,3.332,3.332,0,0,1,1.222,3.284,11.687,11.687,0,0,1-1.238,3.768c-3.937,9.145-10.032,16.885-16.185,24.552-8.022,10-16.237,19.841-24.358,29.758a27.8,27.8,0,0,1-7.556,6.22,4.719,4.719,0,0,1-2.47.768A5.288,5.288,0,0,1-3408.69-1616.912Zm-121.449-4.615a16.462,16.462,0,0,1,2.89-9.91c9.577-14.676,19.782-28.922,29.661-43.391,15.612-22.864,31.519-45.51,48.712-67.223,5.99-7.567,12.38-14.8,18.983-21.837a14.78,14.78,0,0,1,4.027-3.312c1.767-.882,3.622-1.074,5.184.311a4.45,4.45,0,0,1,1.236,4.792,43.6,43.6,0,0,1-6.579,13.442c-10.719,15.414-22.594,29.965-33.752,45.052q-27.616,37.33-55.072,74.778c-2.866,3.892-5.785,7.747-10.585,9.511a8.406,8.406,0,0,1-2.729.632C-3529.625-1618.681-3530.142-1619.634-3530.138-1621.527Zm156.546-6.757a12.611,12.611,0,0,1,1.759-6.134c3.847-7.224,9.158-13.29,14.964-18.967a6.79,6.79,0,0,1,3.444-1.907c3.432-.689,5.7,1.6,4.717,4.978-1.395,4.783-4.376,8.754-6.991,12.892a75.331,75.331,0,0,1-7.673,9.581,11.361,11.361,0,0,1-5.412,3.343,8.02,8.02,0,0,1-2.2.388C-3372.868-1624.111-3373.625-1625.375-3373.593-1628.285Zm-170.028-22.415c-.864-.514-.715-1.391-.707-2.627a33.953,33.953,0,0,1,4.547-11.2c7.385-11.844,15.926-22.866,24.335-33.971q17.909-23.66,36.171-47.056a202.958,202.958,0,0,1,18.055-19.769,13.337,13.337,0,0,1,4.544-3.092c2.673-1.008,4.536.366,4.321,3.2a15.941,15.941,0,0,1-2.323,6.283c-4.254,7.9-10.112,14.667-15.57,21.7q-28.937,37.292-58.014,74.479c-3.483,4.465-7.258,8.65-12.2,11.578a4.254,4.254,0,0,1-2.067.782A2.09,2.09,0,0,1-3543.621-1650.7Zm-3.208-39.435a26.569,26.569,0,0,1,4.081-9.765c6.368-9.049,13-17.911,19.374-26.959,9.859-14.007,19.941-27.835,31.116-40.835a79.546,79.546,0,0,1,10.482-10.388c1.86-1.488,3.9-2.705,6.09-.926,2.366,1.922,1.381,4.327.144,6.384a184.5,184.5,0,0,1-12.939,18.316c-12.927,16.565-24.771,33.948-38,50.288-4.848,5.988-9.72,11.968-16.738,15.635a5.207,5.207,0,0,1-2.195.735C-3546.372-1687.65-3546.8-1688.432-3546.828-1690.135Zm11.178-52.7c-1.2-.979-.534-2.188-.179-3.364,2.489-8.223,7.452-14.955,12.913-21.369,2.456-2.884,5.06-5.648,7.644-8.424a5.229,5.229,0,0,1,3.709-1.947c3.415-.11,5.323,3.289,3.519,6.6a104.54,104.54,0,0,1-8.486,12.411c-4.512,6.021-9.574,11.5-16.13,15.379-.631.374-1.3,1.088-2.062,1.088A1.443,1.443,0,0,1-3535.65-1742.831Z" transform="translate(3547.329 1780.325)" fill="#fff600" stroke="rgba(0,0,0,0)" stroke-miterlimit="10" stroke-width="1"/>
</svg>
