<svg xmlns="http://www.w3.org/2000/svg" width="1944.763" height="1058.91" viewBox="0 0 1944.763 1058.91">
  <g id="그룹_1335" data-name="그룹 1335" transform="translate(192.539 -2507.302)">
    <rect id="background" width="1920" height="900" transform="translate(-167.777 2546.41)" fill="#fbfbfb"/>
    <path id="background-color" d="M0,0H732V900H0Z" transform="translate(-167.777 2546.41)" fill="#278e2a"/>
    <g id="그룹_659" data-name="그룹 659" transform="translate(0 -1486.767)" opacity="0.15">
      <circle id="타원_50" data-name="타원 50" cx="40.696" cy="40.696" r="40.696" transform="translate(-174.777 4130.626)" fill="none" stroke="#fff" stroke-miterlimit="10" stroke-width="35.525"/>
      <line id="선_13" data-name="선 13" x1="23.683" y2="122.365" transform="translate(234.88 3997.444)" fill="none" stroke="#fff" stroke-miterlimit="10" stroke-width="35.525"/>
      <line id="선_15" data-name="선 15" x1="88.131" y1="88.131" transform="translate(-31.202 4382.98)" fill="none" stroke="#fff" stroke-miterlimit="10" stroke-width="35.525"/>
      <path id="패스_184" data-name="패스 184" d="M622.2,114.209a54.6,54.6,0,1,1-70.586,83.314" transform="translate(-84.538 4016.417)" fill="none" stroke="#fff" stroke-miterlimit="10" stroke-width="35.525"/>
      <circle id="타원_50-2" data-name="타원 50" cx="40.696" cy="40.696" r="40.696" transform="translate(-167.777 4682.626)" fill="none" stroke="#fff" stroke-miterlimit="10" stroke-width="35.525"/>
      <line id="선_13-2" data-name="선 13" x1="86.843" y1="22.868" transform="translate(318.88 4597.809)" fill="none" stroke="#fff" stroke-miterlimit="10" stroke-width="35.525"/>
      <line id="선_15-2" data-name="선 15" y1="182.826" x2="32.075" transform="translate(56.929 4867.084)" fill="none" stroke="#fff" stroke-miterlimit="10" stroke-width="35.525"/>
      <path id="패스_184-2" data-name="패스 184" d="M622.2,114.209a54.6,54.6,0,1,1-70.586,83.314" transform="translate(-166.538 4669.81)" fill="none" stroke="#fff" stroke-miterlimit="10" stroke-width="35.525"/>
    </g>
  </g>
</svg>
