<svg xmlns="http://www.w3.org/2000/svg" width="118" height="118" viewBox="0 0 118 118">
  <g id="icon4" transform="translate(-999 -1209)">
    <circle id="타원_370" data-name="타원 370" cx="59" cy="59" r="59" transform="translate(999 1209)" fill="#fff"/>
    <g id="icon" transform="translate(-2204.365 -4274.614)">
      <g id="그룹_631" data-name="그룹 631" transform="translate(3217.986 5505.378)">
        <path id="패스_4415" data-name="패스 4415" d="M3309.8,5560.128c-1.121-.294-1.537-1.5-2.538-1.956a2.313,2.313,0,0,1-3.091-.71.751.751,0,0,0-.134-.127c-3.977-2.851-5.461-6.589-4.92-11.537.729-6.668-1.453-12.636-5.408-18.034-2.242-3.059-4.222-6.308-6.352-9.451-1.474-2.175-3.507-2.777-5.32-1.639-1.9,1.19-2.2,3.28-.8,5.632.843,1.42,1.707,2.828,2.568,4.237.845,1.384.848,2.694-.48,3.754-1.37,1.094-2.654.631-3.766-.468-3.227-3.194-6.425-6.417-9.641-9.622-1-.995-1.349-2.03-.3-3.2h0a3.91,3.91,0,0,1-1.777-1.521c-.978.571-1.964.715-2.771-.23-.763-.895-.415-1.789.22-2.612h0a4.339,4.339,0,0,1-1.85-1.5,2.247,2.247,0,0,1-3.114-.51c-1.062-1.105-2.144-2.2-3.259-3.25a3.473,3.473,0,0,0-5.076-.148,3.392,3.392,0,0,0,.116,5.072c3.17,3.251,6.4,6.448,9.613,9.656a2.391,2.391,0,0,1,1.005,2.222c-.294,1.521-1.984,1.957-3.266.746-1.784-1.685-3.483-3.46-5.218-5.2-2.689-2.693-5.368-5.4-8.071-8.074-1.762-1.746-3.868-1.9-5.355-.437s-1.368,3.613.354,5.354q3.494,3.535,7.036,7.025c.981.972,1.53,2.063.382,3.172-1.109,1.072-2.112.4-3-.515-1.245-1.271-2.487-2.55-3.786-3.765a3.4,3.4,0,0,0-5.066,0,3.444,3.444,0,0,0,.137,4.94c.578.635,1.206,1.224,1.814,1.83.825.823,1.52,1.966,2.516,2.382,1.191.5,1.691-1.126,2.643-1.632a5.612,5.612,0,0,1,7.271,1.414c.879,1.19,1.263.8,1.982.034,1.431-1.515,2.843-3.052,5.187-3.114a5.446,5.446,0,0,1,4.91,2.344,1.359,1.359,0,0,0,1.866.684,5.653,5.653,0,0,1,7.19,6.966c-.2.795-.454,1.278.474,1.94a5.552,5.552,0,0,1,.781,8.763c-2.258,2.368-4.64,4.619-7.139,7.088a.633.633,0,0,0,.017.092c2.841.473,4.848,1.73,5.516,4.423,1.082,4.364-2.056,6.243-5.25,8.249a.668.668,0,0,0,.008.092.824.824,0,0,0,.029.1,21.867,21.867,0,0,0,9.879,1.508,8.5,8.5,0,0,1,7.851,3.217c2.2,2.619,4.812,4.887,7.243,7.309h0q3.8-3.858,7.6-7.713,5.143-5.229,10.283-10.462a2.173,2.173,0,0,1,.268-2.82Zm-25.037-18.554c-2.756,3.274-2.853,4.491-.641,7.956.66,1.033.7,1.989-.3,2.751-.958.734-1.834.343-2.6-.45a9.028,9.028,0,0,1-2.323-6.032,9.239,9.239,0,0,1,3.167-6.787c.876-.828,1.833-1.069,2.761-.191S3285.547,5540.639,3284.761,5541.574Z" transform="translate(-3221.765 -5506.2)" fill="#f6c0b8"/>
        <path id="패스_4416" data-name="패스 4416" d="M3264.954,5566.67a1.874,1.874,0,0,0-2.719-.672c-1.39.771-2.759,1.579-4.145,2.358a2.117,2.117,0,0,1-2.673-.526,2.242,2.242,0,0,1-.466-2.562,4.814,4.814,0,0,1,1.124-1.426q5.586-5.618,11.2-11.209c.918-.917,1.69-1.881.751-3.2-.75-1.059-2.171-1.023-3.342.123-2.544,2.494-5.046,5.028-7.573,7.539a5.131,5.131,0,0,1-1.246,1.076,1.678,1.678,0,0,1-2.286-.544c-.684-1.042-.322-1.95.517-2.781q5.1-5.058,10.168-10.153a5.158,5.158,0,0,0,1.167-1.4,1.826,1.826,0,0,0-.619-2.449,2.06,2.06,0,0,0-2.8.476q-5.134,5.158-10.286,10.3c-1,1-2.115,2.034-3.426.7-1.224-1.247-.263-2.323.7-3.283q3.592-3.574,7.157-7.174c1.466-1.475,1.741-2.729.718-3.6-1.412-1.2-2.46-.325-3.468.709-1.285,1.319-2.6,2.613-3.9,3.918-1.346,1.347-2.662,2.725-4.052,4.022a1.847,1.847,0,1,1-2.592-2.631c.533-.593,1.1-1.152,1.682-1.7,1.044-.993,1.7-2.145.46-3.312-1.192-1.127-2.353-.5-3.363.52-2.422,2.442-4.747,4.994-7.315,7.273-5.172,4.588-7.715,10.188-7.115,17.121a3.6,3.6,0,0,1-1.278,3.068c-2.448,2.405-4.824,4.884-7.229,7.333q5.9,6.256,12.156,12.156h0c2.364-2.317,4.778-4.586,7.067-6.974a4.585,4.585,0,0,1,3.7-1.56c2.992.056,6.007.3,8.958-.567,5.374-1.574,9.392-5.417,13.973-8.314A1.837,1.837,0,0,0,3264.954,5566.67Z" transform="translate(-3218.709 -5511.845)" fill="#f6c0b8"/>
        <path id="패스_4417" data-name="패스 4417" d="M3233.842,5544.82c.96-1.034,1.985-2.007,2.981-3.007,1.3-1.3,1.179-1.961-.521-2.68a7.652,7.652,0,0,0-1.28-.328,3.568,3.568,0,0,0-3.421,2.258,3.386,3.386,0,0,0,.769,3.724C3232.881,5545.408,3233.288,5545.417,3233.842,5544.82Z" transform="translate(-3220.972 -5512.047)" fill="#f6c0b8"/>
      </g>
      <g id="그룹_632" data-name="그룹 632" transform="translate(3214.676 5501.614)">
        <path id="패스_4418" data-name="패스 4418" d="M3308.716,5559.839a2.244,2.244,0,0,0-.618-.615v0l-4.59-4.679a3.862,3.862,0,0,0-.544-.585c-.167-.145-.325-.3-.481-.459l-.142-.145a14.67,14.67,0,0,0-1.48-1.452,4.7,4.7,0,0,1-1.79-4.292c.158-4.775.308-9.585-1.476-14.159-2.86-7.332-7.806-13.392-12.328-19.677-1.6-2.222-4.386-2.6-7.058-1.888a7.013,7.013,0,0,0-5.192,5.414,20.146,20.146,0,0,0-.2,3.573c-1.5-1.533-2.782-2.826-4.047-4.129l-9.656-9.675c-.9-.833-1.743-1.73-2.617-2.593-4.431-4.374-9.5-3.687-12.509,1.721-.283.51-.373.717-1.018.393-3.137-1.579-6.146-1.222-8.605,1.255-2.41,2.426-2.7,5.385-1.2,8.463.258.53.32.7-.305,1.052-4.744,2.706-5.576,5.368-3.362,10.676.234.562.112.672-.319.94-5.26,3.271-5.971,7.072-2.224,11.958.39.508.525.778.075,1.365a20.646,20.646,0,0,0-4.213,14.1,2.991,2.991,0,0,1-1.035,2.558c-2.052,1.939-4,3.984-6.006,5.974-.83.822-1.563,1.686-.723,2.87.826,1.165,1.893.831,2.938.3,2.405-2.449,4.782-4.927,7.229-7.333a3.6,3.6,0,0,0,1.278-3.069c-.6-6.934,1.944-12.533,7.115-17.121,2.568-2.279,4.894-4.832,7.315-7.273,1.01-1.018,2.171-1.646,3.363-.52,1.235,1.167.583,2.319-.46,3.313-.578.55-1.149,1.11-1.682,1.7a1.847,1.847,0,1,0,2.591,2.631c1.391-1.3,2.708-2.676,4.053-4.023,1.3-1.3,2.614-2.6,3.9-3.918,1.007-1.034,2.056-1.908,3.468-.708,1.023.87.748,2.125-.718,3.6q-3.571,3.594-7.157,7.174c-.964.959-1.925,2.036-.7,3.283,1.312,1.338,2.423.309,3.426-.7q5.137-5.154,10.286-10.3a2.06,2.06,0,0,1,2.8-.476,1.827,1.827,0,0,1,.619,2.45,5.161,5.161,0,0,1-1.167,1.395q-5.072,5.089-10.168,10.154c-.839.831-1.2,1.739-.517,2.781a1.678,1.678,0,0,0,2.286.544,5.14,5.14,0,0,0,1.246-1.076c2.527-2.511,5.029-5.045,7.573-7.54,1.17-1.146,2.592-1.181,3.342-.123.939,1.324.167,2.287-.751,3.2q-5.606,5.6-11.2,11.209a4.8,4.8,0,0,0-1.124,1.426,2.242,2.242,0,0,0,.466,2.563,2.116,2.116,0,0,0,2.673.526c1.385-.779,2.755-1.586,4.145-2.358a1.873,1.873,0,0,1,2.718.671,1.836,1.836,0,0,1-.388,2.647c-4.58,2.9-8.6,6.74-13.973,8.314-2.951.864-5.966.624-8.958.567a4.587,4.587,0,0,0-3.7,1.56c-2.289,2.388-4.7,4.657-7.067,6.974h0c-.535,1.043-.866,2.107.294,2.934,1.181.841,2.046.113,2.868-.716,1.943-1.957,3.946-3.858,5.833-5.869a3.292,3.292,0,0,1,2.865-1.175c5.91.415,11.457-.622,16.279-4.316a1.3,1.3,0,0,1,1.5-.073,31.4,31.4,0,0,0,14.323,2.479,3.677,3.677,0,0,1,3.031,1.28c2.448,2.578,5.016,5.04,7.514,7.571.8.815,1.7,1.334,2.759.668,1.091-.685.978-1.718.46-2.748h0c-2.432-2.421-5.047-4.69-7.243-7.309a8.5,8.5,0,0,0-7.851-3.217,21.867,21.867,0,0,1-9.879-1.508c-.071-.029-.142-.054-.213-.083l.177-.111c3.194-2.006,6.332-3.884,5.25-8.249-.668-2.692-2.675-3.95-5.516-4.423l-.093-.016.076-.076c2.5-2.469,4.882-4.72,7.139-7.088a5.551,5.551,0,0,0-.781-8.763c-.927-.663-.675-1.145-.473-1.94a5.653,5.653,0,0,0-7.19-6.966,1.359,1.359,0,0,1-1.866-.684,5.446,5.446,0,0,0-4.909-2.344c-2.344.063-3.756,1.6-5.187,3.114-.719.762-1.1,1.156-1.983-.034a5.611,5.611,0,0,0-7.27-1.414c-.952.506-1.452,2.13-2.643,1.632-1-.416-1.691-1.559-2.516-2.382-.608-.606-1.236-1.2-1.814-1.83a3.445,3.445,0,0,1-.136-4.94,3.4,3.4,0,0,1,5.067,0c1.3,1.215,2.541,2.494,3.786,3.765.893.912,1.9,1.586,3,.515,1.147-1.11.6-2.2-.382-3.172q-3.532-3.5-7.036-7.025c-1.722-1.741-1.846-3.888-.354-5.354s3.593-1.308,5.355.438c2.7,2.678,5.382,5.381,8.071,8.074,1.735,1.737,3.434,3.512,5.218,5.2,1.282,1.211,2.972.775,3.265-.746a2.39,2.39,0,0,0-1.005-2.222c-3.215-3.208-6.442-6.4-9.613-9.656a3.392,3.392,0,0,1-.116-5.072,3.474,3.474,0,0,1,5.076.148c1.115,1.053,2.2,2.145,3.259,3.251.1.1.2.2.305.285l9.246,9.252c.012.013.022.026.035.04,3.216,3.2,6.414,6.427,9.641,9.622,1.111,1.1,2.4,1.563,3.766.468,1.329-1.061,1.325-2.37.48-3.754-.861-1.409-1.725-2.816-2.568-4.236-1.4-2.353-1.091-4.443.8-5.633,1.814-1.137,3.846-.537,5.321,1.639,2.13,3.144,4.11,6.393,6.352,9.451,3.955,5.4,6.139,11.366,5.408,18.034-.457,4.178.537,7.49,3.248,10.136l0,0,7.171,7.012c.959.5,1.945.821,2.8-.131A1.612,1.612,0,0,0,3308.716,5559.839Zm-76.679-27.7a7.635,7.635,0,0,1,1.28.328c1.7.719,1.818,1.377.521,2.68-1,1-2.021,1.974-2.981,3.007-.555.6-.961.587-1.472-.033a3.386,3.386,0,0,1-.769-3.724A3.568,3.568,0,0,1,3232.037,5532.136Z" transform="translate(-3214.676 -5501.614)" fill="#1a1311"/>
        <path id="패스_4419" data-name="패스 4419" d="M3294.256,5545.828c-.929-.878-1.885-.637-2.761.191a9.239,9.239,0,0,0-3.166,6.787,9.027,9.027,0,0,0,2.323,6.032c.767.793,1.641,1.184,2.6.451,1-.764.958-1.72.3-2.752-2.213-3.464-2.116-4.681.64-7.956C3294.975,5547.646,3295.192,5546.712,3294.256,5545.828Z" transform="translate(-3227.884 -5509.443)" fill="#1a1311"/>
      </g>
    </g>
  </g>
</svg>
