<svg xmlns="http://www.w3.org/2000/svg" width="118" height="118" viewBox="0 0 118 118">
  <g id="icon6" transform="translate(-1389 -1209)">
    <circle id="타원_372" data-name="타원 372" cx="59" cy="59" r="59" transform="translate(1389 1209)" fill="#fff"/>
    <g id="icon" transform="translate(-2122.263 -4275.048)">
      <g id="그룹_649" data-name="그룹 649" transform="translate(3521.263 5494.048)">
        <path id="패스_4440" data-name="패스 4440" d="M3560,5521.394a2.85,2.85,0,0,0-1.691,2.256c.794,1.465,1.821,1.735,3.3.863a24.689,24.689,0,0,1,9.425-3.058c1.078-.142,1.357.062,1.324,1.125-.067,2.2.017,4.408-.032,6.611-.036,1.637.705,2.35,2.318,2.278a25.605,25.605,0,0,1,2.772.007,1.625,1.625,0,0,1,1.709,1.772,1.653,1.653,0,0,1-1.659,1.619c-.211.024-.427,0-.64.01-4.488.161-4.488.161-4.488,4.565v.427c0,5.335,0,5.257-5.213,5.3-1.562.013-1.634-.613-1.648-1.841a5.122,5.122,0,0,0-4.35-5.017,5.2,5.2,0,0,0-5.624,3.57c-.045.135-.111.262-.158.4-.321.912.428,2.531-.453,2.7a23.936,23.936,0,0,1-5.943.066c-.75-.047-.27-.8-.23-1.222a22.652,22.652,0,0,1,3.011-9.43c.872-1.484.6-2.51-.86-3.306-1.328.086-1.888,1.04-2.445,2.07a28.949,28.949,0,0,0,8.484,37.031c1.267.908,2.055,1.755,1.794,3.4-.191,1.2.291,2.162,1.644,2.242,1.02.061,1.877-.137,1.809,1.469-.061,1.44-.174,2.232-1.917,2.036-.937-.106-1.538.681-1.54,1.672,0,.891.583,1.717,1.371,1.6,2.333-.356,2.074,1.107,2.029,2.527-.021.639.032,1.283-.01,1.919-.111,1.674.544,2.616,2.325,2.457.931-.083,1.271.271,1.618,1.185a8.362,8.362,0,0,0,7.964,5.653c3.685.014,6.607-2.012,8.107-5.755.27-.673.434-1.171,1.257-1.075,2.318.27,2.808-1.053,2.65-3-.069-.847.058-1.712-.029-2.556-.106-1.038.246-1.4,1.292-1.291,1.248.126,2.151-.431,2.1-1.771a1.63,1.63,0,0,0-2.063-1.6c-1.5.2-1.37-.744-1.314-1.682.05-.828-.4-1.939,1.222-1.774,1.673.169,2.266-.8,2.2-2.365a2.813,2.813,0,0,1,1.151-2.871c9.574-7.04,13.714-16.507,12.1-28.339C3600,5522.656,3577.123,5511.5,3560,5521.394Zm15.724,18.268c.042-1.163.431-1.368,1.484-1.4,3.32-.094,5.241-2.057,5.411-5.02.14-2.434-2.319-5.61-5.476-5.191-1.16.154-1.5-.36-1.4-1.445.077-.846.015-1.7.016-2.555,0-2.725,0-2.725,2.472-2.406,10.475,1.35,19.962,11.156,21.1,21.594.2,1.8-.359,2.049-1.835,1.9a25.022,25.022,0,0,0-2.554-.016h-.214c-4.845,0-4.859,0-5.3,4.783-.106,1.145-.6,2.009-1.765,1.971s-1.59-.929-1.67-2.072c-.332-4.684-.352-4.682-4.976-4.682C3575.488,5545.121,3575.53,5545.122,3575.723,5539.661Zm-11.168,32.782c-1.417.027-2.933.31-2.5-2.047.177-.968-.8-1.385-1.512-1.856-7.228-4.788-10.977-11.021-11.952-20,2.5,0,4.976-.068,7.45.022,1.909.071,2.806-.661,2.651-2.613-.062-.776-.015-1.563-.006-2.345a1.647,1.647,0,0,1,1.634-1.852c1.19-.033,1.764.751,1.773,1.927.007.853.033,1.707,0,2.558-.068,1.616.669,2.346,2.293,2.313,2.133-.042,4.268.047,6.4-.033,1.142-.042,1.747.2,1.575,1.486a9.388,9.388,0,0,0-.008,1.917c.147,2.022.411,3.718-2.763,3.643-2.463-.059-4.284,2.878-4.07,5.376a5,5,0,0,0,4.963,4.613c1.737-.046,1.914.6,1.9,2.061-.064,4.83-.011,4.831-4.832,4.831C3566.546,5572.439,3565.55,5572.423,3564.554,5572.443Zm18.042,5.134c.017.982.083,1.749-1.367,1.724-4.833-.086-9.669-.08-14.5-.007-1.612.024-1.151-1.025-1.212-1.856-.066-.9-.1-1.662,1.247-1.611,2.486.1,4.976.028,7.465.028,2.346,0,4.7.082,7.037-.03C3582.758,5575.753,3582.581,5576.64,3582.6,5577.577Zm-8.4,15.324c-2.254.073-3.832-1.074-4.908-3.266h9.5A4.962,4.962,0,0,1,3574.2,5592.9Zm6.887-6.776c-2.413-.091-4.833-.026-7.25-.026-2.275,0-4.556-.1-6.822.035-1.53.093-1.533-.689-1.523-1.8.008-1.026.009-1.711,1.415-1.687,4.763.086,9.528.1,14.289,0,1.67-.037,1.319.949,1.409,1.9C3582.713,5585.731,3582.328,5586.171,3581.085,5586.125Zm17.939-34.087a25.5,25.5,0,0,1-11.491,16.485c-.6.385-1.532.763-1.436,1.444.447,3.141-1.718,2.442-3.418,2.47-.569.009-1.138,0-2.013,0-1.375-.156-3.577.736-4.6-.348-1.012-1.066-.213-3.248-.305-4.937-.015-.283,0-.568,0-.853,0-4.054,0-4.075-4.1-4.093-1.3-.006-2.64-.105-2.661-1.7s1.305-1.794,2.616-1.731c.5.023,1-.035,1.494.01,1.9.173,2.764-.6,2.669-2.576-.1-2.059.051-4.129-.049-6.187-.062-1.253.4-1.641,1.572-1.5a9.43,9.43,0,0,0,1.706.005c2.076-.131,3.858-.4,3.775,2.863-.063,2.445,2.875,4.195,5.451,3.969a4.939,4.939,0,0,0,4.539-4.805c-.034-1.721.506-2.28,2.129-2.032a10.063,10.063,0,0,0,1.492.011C3599.831,5548.535,3599.811,5548.53,3599.024,5552.038Z" transform="translate(-3524.567 -5497.342)" fill="#101111"/>
        <path id="패스_4441" data-name="패스 4441" d="M3554.5,5513.049a1.41,1.41,0,0,0,1.864.579,1.9,1.9,0,0,0,1.167-2.013c-1.933-3.122-3.474-6.866-6.088-9.961-.408-.482-1.2-.3-1.765.146a1.471,1.471,0,0,0-.592,1.879Q3551.707,5508.41,3554.5,5513.049Z" transform="translate(-3525.112 -5495.067)" fill="#101111"/>
        <path id="패스_4442" data-name="패스 4442" d="M3616.939,5530.145c3.05-1.646,6.038-3.409,9.014-5.185a1.544,1.544,0,0,0,.583-2.37,1.614,1.614,0,0,0-2.4-.5c-2.877,1.669-5.765,3.316-8.646,4.979a1.936,1.936,0,0,0-.983,1.486A1.718,1.718,0,0,0,3616.939,5530.145Z" transform="translate(-3534.236 -5497.904)" fill="#101111"/>
        <path id="패스_4443" data-name="패스 4443" d="M3625.442,5576.4c-2.645-1.5-5.263-3.056-7.9-4.576a9.034,9.034,0,0,0-.992-.447,1.737,1.737,0,0,0-1.941,1.247c-.332.986.265,1.632,1.039,2.086,2.685,1.576,5.394,3.11,8.079,4.686,1.122.657,2.207.86,2.9-.463C3627.265,5577.707,3626.471,5576.986,3625.442,5576.4Z" transform="translate(-3534.237 -5504.806)" fill="#101111"/>
        <path id="패스_4444" data-name="패스 4444" d="M3578.362,5507.647c1.195.056,1.795-.683,1.805-1.863.014-1.628,0-3.257,0-4.885,0-1.7.021-3.4-.008-5.1a1.7,1.7,0,1,0-3.4,0c-.021,3.327-.008,6.653-.008,9.98A1.631,1.631,0,0,0,3578.362,5507.647Z" transform="translate(-3528.984 -5494.048)" fill="#101111"/>
        <path id="패스_4445" data-name="패스 4445" d="M3600.459,5513.763a2.126,2.126,0,0,0,1.408-1.022q2.49-4.323,4.968-8.651a1.6,1.6,0,0,0-.581-2.383,1.569,1.569,0,0,0-2.358.662c-1.729,2.922-3.451,5.851-5.069,8.833A1.728,1.728,0,0,0,3600.459,5513.763Z" transform="translate(-3532.024 -5495.072)" fill="#101111"/>
        <path id="패스_4446" data-name="패스 4446" d="M3529.6,5525.01c2.923,1.726,5.849,3.452,8.834,5.067a1.726,1.726,0,0,0,2.542-1.636,2.144,2.144,0,0,0-1.04-1.431q-4.323-2.487-8.654-4.962a1.7,1.7,0,1,0-1.682,2.962Z" transform="translate(-3522.287 -5497.903)" fill="#101111"/>
        <path id="패스_4447" data-name="패스 4447" d="M3533.01,5552.962a1.625,1.625,0,0,0,1.846-1.615c.049-1.194-.693-1.791-1.874-1.794-3.257-.008-6.512,0-9.768-.005-1.174,0-1.961.524-1.951,1.722s.809,1.708,1.979,1.7c1.557-.015,3.115,0,4.672,0Q3530.462,5552.962,3533.01,5552.962Z" transform="translate(-3521.263 -5501.77)" fill="#101111"/>
        <path id="패스_4448" data-name="패스 4448" d="M3632.064,5549.545c-3.184.009-6.37.014-9.555,0-1.253-.006-2.133.481-2.077,1.81.051,1.2.908,1.637,2.061,1.617,1.627-.027,3.256-.007,4.884-.007,1.557,0,3.114-.011,4.671,0,1.17.01,1.967-.507,1.974-1.7S3633.237,5549.543,3632.064,5549.545Z" transform="translate(-3535.06 -5501.769)" fill="#101111"/>
        <path id="패스_4449" data-name="패스 4449" d="M3538.456,5571.588c-2.986,1.612-5.911,3.342-8.836,5.065a1.589,1.589,0,0,0-.733,2.345,1.656,1.656,0,0,0,2.549.548c2.811-1.642,5.649-3.234,8.472-4.855a2.166,2.166,0,0,0,1.07-1.513A1.72,1.72,0,0,0,3538.456,5571.588Z" transform="translate(-3522.286 -5504.808)" fill="#101111"/>
        <path id="패스_4450" data-name="패스 4450" d="M3554.453,5529.747c.863.749,1.785,1.271,2.781.277s.47-1.917-.281-2.779Q3553.943,5526.738,3554.453,5529.747Z" transform="translate(-3525.87 -5498.657)" fill="#101111"/>
      </g>
      <path id="패스_4451" data-name="패스 4451" d="M3571.057,5569.431a5,5,0,0,1-4.963-4.613c-.213-2.5,1.607-5.435,4.07-5.376,3.174.076,2.91-1.621,2.763-3.643a9.388,9.388,0,0,1,.008-1.917c.172-1.282-.433-1.528-1.574-1.486-2.13.08-4.265-.01-6.4.033-1.624.033-2.361-.7-2.293-2.312.035-.852.01-1.706,0-2.558-.01-1.176-.584-1.96-1.774-1.927a1.647,1.647,0,0,0-1.634,1.852c-.01.782-.056,1.568.006,2.345.154,1.952-.743,2.683-2.652,2.612-2.474-.091-4.954-.022-7.45-.022.975,8.983,4.724,15.216,11.952,20,.713.472,1.689.889,1.512,1.856-.432,2.357,1.084,2.074,2.5,2.046,1-.019,1.991,0,2.986,0,4.821,0,4.768,0,4.832-4.831C3572.97,5570.034,3572.794,5569.384,3571.057,5569.431Z" transform="translate(-3.883 -7.177)" fill="#3499d7"/>
      <path id="패스_4452" data-name="패스 4452" d="M3600.269,5553.5a10,10,0,0,1-1.492-.012c-1.623-.248-2.163.312-2.129,2.032a4.938,4.938,0,0,1-4.538,4.805c-2.576.226-5.514-1.524-5.451-3.969.083-3.266-1.7-2.994-3.775-2.863a9.385,9.385,0,0,1-1.706-.006c-1.169-.14-1.634.248-1.573,1.5.1,2.058-.05,4.128.049,6.187.1,1.972-.77,2.75-2.668,2.576-.494-.045-1,.014-1.494-.01-1.311-.063-2.636.129-2.616,1.731s1.36,1.695,2.661,1.7c4.1.018,4.1.039,4.1,4.093,0,.285-.013.57,0,.853.092,1.689-.707,3.871.3,4.937,1.027,1.084,3.229.192,4.6.348.875,0,1.444.007,2.013,0,1.7-.027,3.866.671,3.418-2.47-.1-.681.837-1.06,1.436-1.445a25.493,25.493,0,0,0,11.491-16.485C3603.688,5553.5,3603.707,5553.5,3600.269,5553.5Z" transform="translate(-7.181 -8.262)" fill="#f9b43d"/>
      <g id="그룹_650" data-name="그룹 650" transform="translate(3562.183 5518.209)">
        <path id="패스_4453" data-name="패스 4453" d="M3604.284,5543.851c-1.14-10.438-10.628-20.245-21.1-21.595-2.472-.319-2.472-.319-2.472,2.406,0,.853.061,1.71-.015,2.555-.1,1.085.241,1.6,1.4,1.446,3.157-.418,5.615,2.758,5.476,5.19-.17,2.963-2.091,4.925-5.411,5.021-1.053.03-1.443.236-1.484,1.4-.193,5.461-.235,5.459,5.289,5.459,4.625,0,4.644,0,4.976,4.682.08,1.143.512,2.033,1.67,2.071s1.659-.826,1.765-1.971c.446-4.785.46-4.782,5.3-4.782h.213a25.306,25.306,0,0,1,2.554.015C3603.925,5545.9,3604.481,5545.652,3604.284,5543.851Z" transform="translate(-3570.441 -5522.114)" fill="#de393e"/>
        <path id="패스_4454" data-name="패스 4454" d="M3570.036,5588.684c4.834-.073,9.67-.08,14.5.007,1.451.025,1.384-.742,1.367-1.724-.016-.938.162-1.824-1.334-1.752-2.341.112-4.691.03-7.037.03-2.489,0-4.979.068-7.465-.028-1.349-.051-1.313.712-1.247,1.611C3568.885,5587.658,3568.424,5588.708,3570.036,5588.684Z" transform="translate(-3568.797 -5530.893)" fill="#de393e"/>
        <path id="패스_4455" data-name="패스 4455" d="M3584.5,5593.139c-4.761.108-9.526.091-14.289,0-1.406-.025-1.406.661-1.415,1.686-.01,1.108-.007,1.889,1.524,1.8,2.267-.138,4.547-.036,6.822-.036,2.417,0,4.837-.064,7.25.027,1.243.046,1.628-.394,1.517-1.576C3585.822,5594.088,3586.172,5593.1,3584.5,5593.139Z" transform="translate(-3568.797 -5531.995)" fill="#de393e"/>
      </g>
      <g id="그룹_651" data-name="그룹 651" transform="translate(3545.229 5518.121)">
        <path id="패스_4456" data-name="패스 4456" d="M3572.911,5540.466v-.427c0-4.4,0-4.4,4.488-4.565.213-.008.429.014.64-.01a1.654,1.654,0,0,0,1.66-1.619,1.625,1.625,0,0,0-1.709-1.772,25.605,25.605,0,0,0-2.772-.007c-1.613.072-2.354-.641-2.318-2.278.048-2.2-.036-4.41.032-6.611.033-1.064-.246-1.268-1.324-1.125a24.688,24.688,0,0,0-9.425,3.058c-1.484.872-2.511.6-3.3-.863-.234,1.52-1.358,2-2.658,2.281.751.862,1.277,1.783.281,2.779s-1.917.471-2.78-.277c-.279,1.3-.761,2.42-2.278,2.654,1.463.8,1.732,1.822.86,3.307a22.65,22.65,0,0,0-3.011,9.43c-.04.418-.521,1.174.23,1.221a23.936,23.936,0,0,0,5.943-.066c.881-.169.132-1.79.453-2.7.047-.134.113-.261.158-.4a5.2,5.2,0,0,1,5.624-3.57,5.123,5.123,0,0,1,4.35,5.017c.015,1.228.086,1.854,1.648,1.841C3572.91,5545.723,3572.911,5545.8,3572.911,5540.466Z" transform="translate(-3549.103 -5522.012)" fill="#edecec"/>
        <path id="패스_4457" data-name="패스 4457" d="M3578.122,5604.523a4.962,4.962,0,0,0,4.588-3.265h-9.5C3574.29,5603.45,3575.868,5604.6,3578.122,5604.523Z" transform="translate(-3552.457 -5533.037)" fill="#edecec"/>
      </g>
    </g>
  </g>
</svg>
