<svg xmlns="http://www.w3.org/2000/svg" width="118" height="118" viewBox="0 0 118 118">
  <g id="icon2" transform="translate(-609 -1209)">
    <circle id="타원_368" data-name="타원 368" cx="59" cy="59" r="59" transform="translate(609 1209)" fill="#fff"/>
    <g id="icon" transform="translate(-2239.736 -4272.162)">
      <g id="그룹_615" data-name="그룹 615" transform="translate(2907.316 5498.162)">
        <path id="패스_4367" data-name="패스 4367" d="M2962.182,5518.915q-3.361-1.622-6.72-3.245h0l-16.116-7.9-.092-.046c-.28-.134-.557-.277-.835-.413q-5.424-2.661-10.844-5.328a2.119,2.119,0,0,0-2.925.637c-.054.075-.111.143-.163.226a1.935,1.935,0,0,0-.141,2.1,2.408,2.408,0,0,0,.246.354,3.735,3.735,0,0,0,.707.64c.51.365,1.07.664,1.615.979q10.644,6.133,21.285,12.268a8.147,8.147,0,0,1,1.5.985l.021.019a1.96,1.96,0,0,1,.3.362,1.463,1.463,0,0,1,.108.2,1.3,1.3,0,0,1,.108.45,2.056,2.056,0,0,1-.325,1.138,1.749,1.749,0,0,1-2.614.726c-.319-.147-.64-.333-.957-.52-1.894-1.112-3.8-2.2-5.706-3.294-1.1-.632-2.192-1.273-3.294-1.9a5,5,0,0,0-1.032-.442,2.433,2.433,0,0,0-2.988.949,2.382,2.382,0,0,0-.4,1.554,2.2,2.2,0,0,0,.252.75,2.659,2.659,0,0,0,.162.286,4.482,4.482,0,0,0,1.46,1.277q3.913,2.294,7.851,4.543a3.4,3.4,0,0,1,1.636,1.724,16.318,16.318,0,0,0,1.114,2.243,14.111,14.111,0,0,0,7.135,6.07,15.59,15.59,0,0,0,7.965.78,77.262,77.262,0,0,0,7.961-1.949c.155-.041.309-.083.463-.122q-.008-6.426-.016-12.852h0Q2965.541,5520.538,2962.182,5518.915Z" transform="translate(-2921.354 -5498.914)" fill="#f6c0b8"/>
        <path id="패스_4368" data-name="패스 4368" d="M2925.6,5500.91a2.8,2.8,0,0,1,1.225.321q5.418,2.672,10.844,5.327c.279.136.555.278.835.413l.092.046,16.116,7.9h0q3.358,1.626,6.72,3.245t6.72,3.246q.008,6.426.016,12.852l-.463.122a77.012,77.012,0,0,1-7.961,1.949,17.1,17.1,0,0,1-2.563.2,15.083,15.083,0,0,1-5.4-.977,14.117,14.117,0,0,1-7.135-6.07,16.346,16.346,0,0,1-1.114-2.243,3.4,3.4,0,0,0-1.636-1.724q-3.933-2.259-7.851-4.543a4.482,4.482,0,0,1-1.46-1.277,2.607,2.607,0,0,1-.162-.285,2.2,2.2,0,0,1-.252-.751,2.381,2.381,0,0,1,.4-1.554,2.253,2.253,0,0,1,2-1.106,3.448,3.448,0,0,1,.993.157,5,5,0,0,1,1.032.441c1.1.629,2.2,1.271,3.294,1.9,1.9,1.094,3.813,2.182,5.706,3.294.316.187.638.372.957.52a2.747,2.747,0,0,0,1.133.3,1.685,1.685,0,0,0,1.481-1.028,2.057,2.057,0,0,0,.325-1.139,1.307,1.307,0,0,0-.108-.45,1.425,1.425,0,0,0-.108-.2,1.965,1.965,0,0,0-.3-.363l-.021-.019a8.12,8.12,0,0,0-1.5-.984q-10.635-6.148-21.285-12.268c-.545-.315-1.1-.614-1.615-.979a3.737,3.737,0,0,1-.707-.641,2.4,2.4,0,0,1-.246-.354,1.935,1.935,0,0,1,.141-2.1c.052-.083.108-.151.163-.227a2.073,2.073,0,0,1,1.7-.958m0-2.748a4.8,4.8,0,0,0-3.916,2.081c-.109.144-.2.266-.283.4a4.687,4.687,0,0,0-.2,4.9,5.182,5.182,0,0,0,.52.751,6.5,6.5,0,0,0,1.224,1.122,16.7,16.7,0,0,0,1.526.943l.316.18,6.851,3.946,1.6.925a4.993,4.993,0,0,0-3.013,2.239,5.128,5.128,0,0,0-.791,3.33,5.661,5.661,0,0,0,.882,2.273,7.2,7.2,0,0,0,2.332,2.085c2.469,1.448,4.933,2.869,7.873,4.556.4.229.427.3.455.37a19.175,19.175,0,0,0,1.3,2.618,16.854,16.854,0,0,0,8.515,7.233,17.818,17.818,0,0,0,6.383,1.157,19.871,19.871,0,0,0,2.977-.229,53.152,53.152,0,0,0,6.266-1.467c.659-.184,1.318-.366,1.98-.54l.16-.043.284-.075a2.748,2.748,0,0,0,2.068-2.666l-.008-6.211-.009-6.642a2.748,2.748,0,0,0-1.553-2.471l-3.344-1.615-3.376-1.632-1.49-.718q-2.614-1.261-5.228-2.525l-16.106-7.895-.042-.021-.06-.03c-.154-.073-.3-.146-.444-.219l-.383-.189-.62-.3q-5.11-2.5-10.217-5.019a5.5,5.5,0,0,0-2.44-.6Z" transform="translate(-2920.603 -5498.162)"/>
      </g>
      <g id="그룹_616" data-name="그룹 616" transform="translate(2858.736 5498.171)">
        <path id="패스_4369" data-name="패스 4369" d="M2880.935,5535.139a14.636,14.636,0,0,0,1.611-1.123,14.39,14.39,0,0,0,1.744-1.676,13.889,13.889,0,0,0,2.533-4.189,3.518,3.518,0,0,1,1.712-1.891q3.944-2.247,7.858-4.549c.162-.1.3-.195.443-.294a2.63,2.63,0,0,0,1.4-2.393,2.754,2.754,0,0,0-.342-1.027c-.773-1.416-2.279-1.643-4.114-.618-.274.154-.537.328-.811.485q-4.429,2.543-8.861,5.081a3.311,3.311,0,0,1-.9.361,1.721,1.721,0,0,1-2.012-1,1.756,1.756,0,0,1-.249-1.209,1.588,1.588,0,0,1,.3-.654,3.41,3.41,0,0,1,.877-.762c.02-.013.037-.027.057-.04.071-.043.145-.083.216-.125.414-.251.835-.491,1.254-.732q10.811-6.242,21.625-12.478c1.005-.578,1.789-1.262,1.753-2.252a2.559,2.559,0,0,0-.331-1.1,2.736,2.736,0,0,0-.708-.885c-.783-.612-1.776-.445-2.847.1-2.075,1.06-4.17,2.081-6.263,3.1s-4.208,2.052-6.312,3.078q-14.162,6.911-28.324,13.817-.01,6.426-.018,12.853a84.407,84.407,0,0,0,8.8,2.149c.045.006.089.007.133.015A14.834,14.834,0,0,0,2880.935,5535.139Z" transform="translate(-2859.488 -5498.925)" fill="#f6c0b8"/>
        <path id="패스_4370" data-name="패스 4370" d="M2904.1,5500.922a1.815,1.815,0,0,1,1.153.39,2.73,2.73,0,0,1,.708.886,2.551,2.551,0,0,1,.331,1.1c.036.99-.748,1.674-1.752,2.252q-10.819,6.228-21.625,12.477c-.419.242-.84.482-1.254.732-.072.043-.146.082-.216.126-.02.012-.037.026-.057.039a3.406,3.406,0,0,0-.877.762,1.586,1.586,0,0,0-.3.653,2.076,2.076,0,0,0,1.811,2.266,2.066,2.066,0,0,0,.45-.052,3.28,3.28,0,0,0,.9-.361q4.437-2.529,8.861-5.081c.273-.157.537-.331.811-.485a4.359,4.359,0,0,1,2.08-.633,2.222,2.222,0,0,1,2.034,1.251,2.75,2.75,0,0,1,.342,1.027,2.631,2.631,0,0,1-1.4,2.393c-.141.1-.281.2-.443.294q-3.913,2.3-7.858,4.549a3.52,3.52,0,0,0-1.712,1.891,13.888,13.888,0,0,1-2.533,4.189,14.392,14.392,0,0,1-1.744,1.676,14.61,14.61,0,0,1-1.61,1.123,14.787,14.787,0,0,1-9.764,2.041c-.043-.007-.088-.008-.132-.015a84.411,84.411,0,0,1-8.8-2.149q.01-6.426.018-12.853,14.163-6.908,28.325-13.816,3.155-1.541,6.312-3.079c2.094-1.021,4.188-2.043,6.263-3.1a3.846,3.846,0,0,1,1.694-.491m0-2.749a6.442,6.442,0,0,0-2.943.791c-2.041,1.042-4.146,2.069-6.183,3.063l-.037.018-3.531,1.722-2.78,1.356-24.529,11.966-3.8,1.851a2.75,2.75,0,0,0-1.543,2.466l-.018,12.853a2.75,2.75,0,0,0,2.054,2.664c.755.2,1.507.406,2.259.615a56.738,56.738,0,0,0,6.832,1.592c.072.011.14.019.208.024a17.387,17.387,0,0,0,2.359.162,17.593,17.593,0,0,0,9.167-2.583,16.729,16.729,0,0,0,3.988-3.332,16.579,16.579,0,0,0,3.034-5.019c.061-.157.1-.251.507-.486,2.676-1.524,5.332-3.062,7.892-4.569.252-.148.451-.288.611-.4a5.245,5.245,0,0,0,2.571-4.941,5.479,5.479,0,0,0-.662-2.057,4.994,4.994,0,0,0-3.148-2.521q4.748-2.741,9.5-5.476c2.146-1.235,3.2-2.829,3.128-4.734a5.275,5.275,0,0,0-.652-2.293,5.474,5.474,0,0,0-1.439-1.757,4.576,4.576,0,0,0-2.847-.973Z" transform="translate(-2858.736 -5498.174)"/>
      </g>
      <g id="그룹_617" data-name="그룹 617" transform="translate(2883.042 5553.341)">
        <circle id="타원_167" data-name="타원 167" cx="4.791" cy="4.791" r="4.791" transform="translate(1.375 1.375)" fill="#fad1c2"/>
        <path id="패스_4371" data-name="패스 4371" d="M2895.856,5580.762a6.166,6.166,0,1,1,6.165-6.165A6.173,6.173,0,0,1,2895.856,5580.762Zm0-9.583a3.417,3.417,0,1,0,3.417,3.417A3.421,3.421,0,0,0,2895.856,5571.18Z" transform="translate(-2889.69 -5568.431)"/>
      </g>
      <g id="그룹_618" data-name="그룹 618" transform="translate(2920.664 5553.341)">
        <circle id="타원_168" data-name="타원 168" cx="4.791" cy="4.791" r="4.791" transform="translate(1.374 1.375)" fill="#fad1c2"/>
        <path id="패스_4372" data-name="패스 4372" d="M2943.766,5580.762a6.166,6.166,0,1,1,6.165-6.165A6.173,6.173,0,0,1,2943.766,5580.762Zm0-9.583a3.417,3.417,0,1,0,3.417,3.417A3.421,3.421,0,0,0,2943.766,5571.18Z" transform="translate(-2937.6 -5568.431)"/>
      </g>
      <g id="그룹_620" data-name="그룹 620" transform="translate(2887.752 5541.635)">
        <g id="그룹_619" data-name="그룹 619">
          <circle id="타원_169" data-name="타원 169" cx="18.811" cy="18.811" r="18.811" transform="translate(1.374 1.375)" fill="#fad1c2"/>
          <path id="패스_4373" data-name="패스 4373" d="M2915.872,5593.894a20.185,20.185,0,1,1,20.184-20.185A20.207,20.207,0,0,1,2915.872,5593.894Zm0-37.621a17.437,17.437,0,1,0,17.436,17.437A17.456,17.456,0,0,0,2915.872,5556.272Z" transform="translate(-2895.687 -5553.523)"/>
        </g>
      </g>
      <ellipse id="타원_170" data-name="타원 170" cx="3.424" cy="2.606" rx="3.424" ry="2.606" transform="translate(2895.465 5563.159)" fill="#eb8796"/>
      <rect id="사각형_120" data-name="사각형 120" width="1.665" height="3.317" rx="0.821" transform="translate(2900.083 5561.017)"/>
      <ellipse id="타원_171" data-name="타원 171" cx="3.424" cy="2.606" rx="3.424" ry="2.606" transform="translate(2913.873 5563.159)" fill="#eb8796"/>
      <rect id="사각형_121" data-name="사각형 121" width="1.665" height="3.317" rx="0.821" transform="translate(2916.103 5564.333) rotate(-180)"/>
      <path id="패스_4374" data-name="패스 4374" d="M2920.7,5582.262a3.233,3.233,0,0,1-2.76-1.535.914.914,0,1,1,1.552-.964,1.471,1.471,0,0,0,2.417,0,.914.914,0,1,1,1.552.964A3.232,3.232,0,0,1,2920.7,5582.262Z" transform="translate(-12.685 -17.431)"/>
      <g id="그룹_624" data-name="그룹 624" transform="translate(2875.655 5537.277)">
        <g id="그룹_621" data-name="그룹 621" transform="translate(0 2.601)">
          <path id="패스_4375" data-name="패스 4375" d="M2898.522,5556.185a17.873,17.873,0,0,0-13.792-2.815s-3.347.533-2.587,3.728a41.939,41.939,0,0,0,1.522,5.129s1.065,3.013,4.337,1.262a22.2,22.2,0,0,1,6.706-2.2l4.554-.838Z" transform="translate(-2880.657 -5551.665)" fill="#5869ae"/>
          <path id="패스_4376" data-name="패스 4376" d="M2885.741,5565.035a3.79,3.79,0,0,1-1.381-.258,4.342,4.342,0,0,1-2.366-2.471,42.73,42.73,0,0,1-1.563-5.269,4.22,4.22,0,0,1,.5-3.435,5.059,5.059,0,0,1,3.2-1.968,19.112,19.112,0,0,1,14.873,3.1,1.379,1.379,0,0,1,.489.833l.74,4.26a1.374,1.374,0,0,1-1.1,1.586l-4.554.839a21.046,21.046,0,0,0-6.307,2.064A5.389,5.389,0,0,1,2885.741,5565.035Zm2.212-11a18.894,18.894,0,0,0-3.355.306,2.314,2.314,0,0,0-1.385.8,1.476,1.476,0,0,0-.108,1.261,41.039,41.039,0,0,0,1.464,4.945,1.644,1.644,0,0,0,.8.875,2.2,2.2,0,0,0,1.612-.322,23.53,23.53,0,0,1,7.174-2.356l3.148-.58-.412-2.372A16.207,16.207,0,0,0,2887.953,5554.039Z" transform="translate(-2880.282 -5551.288)"/>
        </g>
        <g id="그룹_622" data-name="그룹 622" transform="translate(44.584 2.604)">
          <path id="패스_4377" data-name="패스 4377" d="M2939.549,5556.185a17.873,17.873,0,0,1,13.792-2.815s3.348.533,2.587,3.728a41.971,41.971,0,0,1-1.522,5.129s-1.065,3.013-4.337,1.262a22.193,22.193,0,0,0-6.706-2.2l-4.554-.838Z" transform="translate(-2937.435 -5551.668)" fill="#5869ae"/>
          <path id="패스_4378" data-name="패스 4378" d="M2951.578,5565.036a5.388,5.388,0,0,1-2.532-.713,20.814,20.814,0,0,0-6.238-2.054l-4.623-.85a1.374,1.374,0,0,1-1.1-1.586l.74-4.26a1.381,1.381,0,0,1,.488-.833,19.145,19.145,0,0,1,14.9-3.1,5.052,5.052,0,0,1,3.177,1.964,4.221,4.221,0,0,1,.5,3.435,43.107,43.107,0,0,1-1.579,5.314,4.328,4.328,0,0,1-2.35,2.425A3.785,3.785,0,0,1,2951.578,5565.036Zm-11.558-6.073,3.216.593a23.376,23.376,0,0,1,7.1,2.344,2.195,2.195,0,0,0,1.612.322,1.642,1.642,0,0,0,.788-.847,41.361,41.361,0,0,0,1.474-4.972,1.47,1.47,0,0,0-.115-1.27,2.351,2.351,0,0,0-1.351-.783,16.933,16.933,0,0,0-12.319,2.246Z" transform="translate(-2937.059 -5551.292)"/>
        </g>
        <g id="그룹_623" data-name="그룹 623" transform="translate(10.834)">
          <path id="패스_4379" data-name="패스 4379" d="M2923.831,5557.094s6.243,8.889,11.642,8.692a20.289,20.289,0,0,0-39.646-.184C2915.487,5567.045,2923.831,5557.094,2923.831,5557.094Z" transform="translate(-2894.454 -5548.351)" fill="#5869ae"/>
          <path id="패스_4380" data-name="패스 4380" d="M2934.921,5566.787c-4.739,0-9.553-5.367-11.614-7.978-3.013,2.727-11.785,8.976-27.956,7.787a1.372,1.372,0,0,1-1.24-1.668,21.662,21.662,0,0,1,42.331.2,1.373,1.373,0,0,1-1.294,1.658C2935.073,5566.785,2935,5566.787,2934.921,5566.787Zm-37.705-2.836c17.454.715,25.112-8.029,25.19-8.119a1.379,1.379,0,0,1,2.174.1c1.37,1.948,5.186,6.5,8.635,7.774a18.915,18.915,0,0,0-36,.249Z" transform="translate(-2894.078 -5547.975)"/>
        </g>
      </g>
    </g>
  </g>
</svg>
