<svg xmlns="http://www.w3.org/2000/svg" width="118" height="118" viewBox="0 0 118 118">
  <g id="icon3" transform="translate(-804 -1209)">
    <circle id="타원_369" data-name="타원 369" cx="59" cy="59" r="59" transform="translate(804 1209)" fill="#fff"/>
    <g id="icon" transform="translate(-2217.676 -4270.233)">
      <path id="패스_4381" data-name="패스 4381" d="M3133.236,5567.838l.219-.2A1.043,1.043,0,0,0,3133.236,5567.838Z" transform="translate(-28.071 -18.342)" fill="#080304"/>
      <path id="패스_4382" data-name="패스 4382" d="M3141.7,5547.3h0c-.043.022-.081.044-.121.067a.893.893,0,0,1,.122.059v-.125Z" transform="translate(-30.448 -12.55)" fill="#080304"/>
      <path id="패스_4383" data-name="패스 4383" d="M3141.7,5545.126h0l0-.089a.717.717,0,0,1-.088.045l.085.044Z" transform="translate(-30.459 -11.906)" fill="#080304"/>
      <path id="패스_4384" data-name="패스 4384" d="M3140.242,5558.667v.021l.009-.021Z" transform="translate(-30.067 -15.788)" fill="#080304"/>
      <path id="패스_4385" data-name="패스 4385" d="M3138.205,5580.017c-.091-3.066-1.953-5.361-4.571-5.671a26.4,26.4,0,0,0-3.253,0h0c-.974-.332-1,.3-1.179,1.011-.951,3.845-3.857,6.237-7.418,6.2a7.51,7.51,0,0,1-7.258-6.162c-.208-.9-.467-1.239-1.357-1.151-.6.059-1.208,0-1.812.017-3.6.069-5.708,2.151-5.769,5.764-.045,2.717.057,5.439-.044,8.154-.048,1.327.449,1.638,1.665,1.583,1.93-.086,3.866-.015,5.8-.024q10.324-.05,20.648-.109c1.085.03,2.175.016,3.256.1,1.057.086,1.355-.367,1.337-1.367C3138.2,5585.581,3138.287,5582.8,3138.205,5580.017Z" transform="translate(-20.183 -20.22)" fill="#d85869"/>
      <path id="패스_4386" data-name="패스 4386" d="M3077.865,5522.75a15.649,15.649,0,0,0-11.617-15c-2.719-.863-5.5-.535-8.268-.427-3.527.137-6.787,1.282-8.924,4.095-1.863,2.452-3.52,4.238-6.846,1.925.031,4.224-.079,8.031.924,12.093a18.219,18.219,0,0,1,3.051-5.666c.6-.722,1.059-1.733,2.253-1.511,1.144.212,1.118,1.316,1.4,2.124a8.772,8.772,0,0,0,7.9,6.167c5.252.07,10.505-.013,15.758-.032.179.019.359.05.539.054C3077.879,5526.662,3077.879,5526.661,3077.865,5522.75Z" transform="translate(-2.146 -1.123)" fill="#b45527"/>
      <path id="패스_4387" data-name="패스 4387" d="M3077.931,5587.808c-.116-2.892-.023-5.792-.039-8.689-.021-3.7-2.46-6.006-6.2-5.881h0c-3.027-.305-2.988-.284-4.305,2.177a7.724,7.724,0,0,1-7.143,4.4c-3.333.029-6.013-1.405-7.249-4.428-.844-2.064-1.954-2.574-3.878-2.277-.415.063-.844.016-1.266.048a5.691,5.691,0,0,0-5.473,5.465c-.126,3.257-.026,6.521-.044,9.782,0,.622.112,1.032.855,1.084,1.51.107,1.489,1.114,1.232,2.227l4.06,0a1.5,1.5,0,0,1,.756-2.235c8.993-.006,17.985-.041,26.977.011C3077.542,5589.51,3077.987,5589.2,3077.931,5587.808Z" transform="translate(-2.174 -19.881)" fill="#196eb6"/>
      <g id="그룹_626" data-name="그룹 626" transform="translate(3078.302 5510.129)">
        <path id="패스_4388" data-name="패스 4388" d="M3138.521,5529.008a18.778,18.778,0,0,0-.853-5.463,1.609,1.609,0,0,1,.825-2.2q-.93-1.484-1.861-2.969c-1.033.725-1.618-.03-2.285-.654-2.345-2.189-4.885-4.032-8.213-4.391-1.358-.355-2.7-1.048-3.733.758a1.1,1.1,0,0,1-1.844-.221c-.56-1.284-1.563-1-2.442-.885a15.591,15.591,0,0,0-13.413,16.6c.068.854.341,1.165,1.185,1.15,1.993-.036,3.988-.01,5.982-.011,4.9,0,7.255-1.953,8.188-6.762.169-.874.46-1.656,1.58-1.634,1.068.022,1.157.748,1.307,1.59.84,4.739,3.378,6.806,8.262,6.8,1.087,0,2.174-.029,3.261-.044h0a22.945,22.945,0,0,1,2.335.06C3138.178,5530.907,3138.529,5530.328,3138.521,5529.008Z" transform="translate(-3098.233 -5512.875)" fill="#484848"/>
        <path id="패스_4389" data-name="패스 4389" d="M3099.608,5554.118c-1.817,1.2-3.333,2.712-3.577,4.969-.252,2.33-.2,4.693-.348,7.036-.075,1.178.47,1.384,1.505,1.4a7.311,7.311,0,0,0,7.555-7.614c.264-1.542-.773-2.874-1.222-4.352C3103.287,5554.779,3100.2,5553.727,3099.608,5554.118Z" transform="translate(-3095.676 -5524.598)" fill="#484848"/>
        <path id="패스_4390" data-name="패스 4390" d="M3154.948,5555.3c-1.273-1.38-2.489-2.023-4.058-.516-1.732,0-1.609,1.53-2.031,2.541a7.061,7.061,0,0,0,4.558,9.728h0a7.443,7.443,0,0,0,1.362.39c2.229.206,2.307.119,2.309-2.152,0-1.621-.059-3.244.011-4.861A6.874,6.874,0,0,0,3154.948,5555.3Z" transform="translate(-3110.647 -5524.565)" fill="#484848"/>
      </g>
      <path id="패스_4391" data-name="패스 4391" d="M3084.915,5551.648c-.609.553-1.478.347-2.244.436-.783.09-1.729.065-1.757,1.129-.025.965.871.98,1.58,1.132,1.664.357,1.816.666,1.076,2.188-.368.758-.792,1.488-1.225,2.212a10.862,10.862,0,0,0,3.321-6.781h0A.517.517,0,0,1,3084.915,5551.648Z" transform="translate(-13.169 -13.789)" fill="#ea796f"/>
      <path id="패스_4392" data-name="패스 4392" d="M3082.184,5554.3c-.709-.152-1.6-.167-1.58-1.132.028-1.064.974-1.039,1.757-1.129.766-.089,1.635.118,2.244-.436-.018-.037-.035-.076-.052-.117-1.076.014-2.153.014-3.23.045a1.424,1.424,0,0,0-1.426,1.141,1.575,1.575,0,0,0,.554,1.767,2.038,2.038,0,0,0,1.541.324c1.554-.146,1.572.48.932,1.627a4.326,4.326,0,0,0-.89,2.311h0c.433-.724.857-1.455,1.225-2.212C3084,5554.965,3083.848,5554.657,3082.184,5554.3Z" transform="translate(-12.859 -13.743)" fill="#ea796f"/>
      <path id="패스_4393" data-name="패스 4393" d="M3086.567,5551.569c-.019.02-.04.038-.059.057a.517.517,0,0,0,.751.316h0Z" transform="translate(-14.763 -13.767)" fill="#ea796f"/>
      <path id="패스_4394" data-name="패스 4394" d="M3086.547,5551.545l-.111-.06c.016.041.033.08.052.117C3086.507,5551.583,3086.528,5551.564,3086.547,5551.545Z" transform="translate(-14.742 -13.743)" fill="#ea796f"/>
      <path id="패스_4395" data-name="패스 4395" d="M3139.965,5554.515c-.753.142-1.678.1-1.8,1.14s.929,1.112,1.493,1.583c0,.048-.006.093-.009.141h.008a9.466,9.466,0,0,0,3.3-.381h0a2.579,2.579,0,0,0,.649-1.449,14.185,14.185,0,0,1-2.756-1.406A1.72,1.72,0,0,1,3139.965,5554.515Z" transform="translate(-29.472 -14.499)" fill="#ea766d"/>
      <path id="패스_4396" data-name="패스 4396" d="M3137.907,5555.63c.125-1.041,1.05-1,1.8-1.14a1.72,1.72,0,0,0,.887-.374l-.1-.062c-.357.008-.716.031-1.073.022-1.106-.028-2.1.158-2.161,1.53-.066,1.473.94,1.751,2.131,1.747,0-.047.008-.092.008-.141C3138.836,5556.742,3137.782,5556.678,3137.907,5555.63Z" transform="translate(-29.217 -14.475)" fill="#ea766d"/>
      <path id="패스_4397" data-name="패스 4397" d="M3141.994,5554.049c-.021.024-.044.044-.067.065a14.183,14.183,0,0,0,2.756,1.406h0A2.812,2.812,0,0,0,3141.994,5554.049Z" transform="translate(-30.547 -14.472)" fill="#ea766d"/>
      <path id="패스_4398" data-name="패스 4398" d="M3141.953,5554.05c-.057,0-.111,0-.169,0l.1.062C3141.908,5554.094,3141.932,5554.073,3141.953,5554.05Z" transform="translate(-30.506 -14.473)" fill="#ea766d"/>
      <path id="패스_4399" data-name="패스 4399" d="M3113.529,5556.959c.72-.114,1.555-.225,1.5-1.169-.052-.92-.9-.96-1.616-1.062-1-.143-2.019.22-3-.16a7.342,7.342,0,0,0,1.1,2.916h0C3112.076,5556.882,3112.841,5557.069,3113.529,5556.959Z" transform="translate(-21.571 -14.621)" fill="#ea766d"/>
      <path id="패스_4400" data-name="패스 4400" d="M3114.22,5557.264a1.57,1.57,0,0,0,1.519-1.526,1.485,1.485,0,0,0-1.425-1.59,7.227,7.227,0,0,0-3.9.261c.983.379,2.005.018,3,.16.713.1,1.564.143,1.616,1.063.053.945-.782,1.055-1.5,1.169-.688.109-1.453-.078-2.013.524h0C3112.418,5557.311,3113.329,5557.367,3114.22,5557.264Z" transform="translate(-21.571 -14.461)" fill="#ea766d"/>
      <g id="그룹_627" data-name="그룹 627" transform="translate(3037.481 5521.609)">
        <path id="패스_4401" data-name="패스 4401" d="M3139.194,5542.882a3.247,3.247,0,0,0-3.059-3c-1.794-.092-3.6,0-5.4.019-3.948-.093-7.333-1.329-9.658-4.956-2.589,4-6.362,5.057-10.724,4.877a18.857,18.857,0,0,0-4.689.131,3.144,3.144,0,0,0-2.773,3.4,3.224,3.224,0,0,0,2.778,3.419,2.31,2.31,0,0,1,2.6,2.214,7.228,7.228,0,0,1,3.9-.262,1.485,1.485,0,0,1,1.426,1.59,1.57,1.57,0,0,1-1.519,1.526c-.891.1-1.8.047-2.7.061a12.782,12.782,0,0,0,15.219,6.632,11.844,11.844,0,0,0,8.322-7h0a9.467,9.467,0,0,1-3.3.381l-.009.021v-.021c-1.191,0-2.2-.274-2.131-1.747.062-1.372,1.054-1.558,2.161-1.53.358.009.716-.014,1.073-.022.058,0,.112,0,.169,0a2.812,2.812,0,0,1,2.689,1.471h0c.33-1.974,1.079-3.3,3.454-3.521C3138.558,5546.416,3139.4,5544.515,3139.194,5542.882Zm-14.6,15.644a1.043,1.043,0,0,1,.219-.2Z" transform="translate(-3056.911 -5530.64)" fill="#f7bfb0"/>
        <path id="패스_4402" data-name="패스 4402" d="M3075.181,5535.651c-.78-.01-1.562.037-2.343.058-5.136-.023-10.272.007-15.406-.086a11.764,11.764,0,0,1-10.031-5.515c-.273-.407-.336-1.022-.959-1.181a13.648,13.648,0,0,0-1.961,4.834,2.214,2.214,0,0,1-1.409,1.939c-2.639-.022-4.318,1.495-4.466,3.9a4.152,4.152,0,0,0,4.468,4.329c1.219.263,1.25,1.3,1.463,2.228a14.952,14.952,0,0,0,17.85,11.023,13.949,13.949,0,0,0,7.906-4.906h0a4.326,4.326,0,0,1,.89-2.31c.64-1.147.622-1.773-.932-1.627a2.039,2.039,0,0,1-1.541-.324,1.575,1.575,0,0,1-.554-1.767,1.426,1.426,0,0,1,1.426-1.141c1.077-.031,2.154-.031,3.23-.045l.111.06.692.373a2.148,2.148,0,0,1,2.069-1.579,4.139,4.139,0,0,0-.5-8.263Zm-26.935,12.687a8.543,8.543,0,0,1-1.084-.007,1.708,1.708,0,0,1-1.737-1.735c-.02-1.044.7-1.6,1.815-1.506.359.03.722,0,1.235,0,1.069.129,2.867-.51,2.886,1.536C3051.38,5548.739,3049.557,5548.25,3048.246,5548.338Zm2.889-4.546c-1.862.012-1.408-1.7-1.475-2.894-.017-.3-.009-.6,0-.9.029-.982.255-1.867,1.475-1.819,1.2.047,1.39.932,1.366,1.917-.007.3,0,.6,0,.9C3052.431,5542.136,3052.876,5543.781,3051.135,5543.792Zm7.854,8.607a4.739,4.739,0,0,1-4.725-4.513c0-.84.288-1.473,1.1-1.628a1.239,1.239,0,0,1,1.536,1.153c.2,1.27.8,2.25,2.158,2.248,1.345,0,1.989-.923,2.161-2.229a1.243,1.243,0,0,1,1.519-1.179c.829.134,1.122.774,1.129,1.606A4.758,4.758,0,0,1,3058.99,5552.4Zm9.474-11.355c-.085,1.071.4,2.8-1.485,2.749-1.7-.042-1.315-1.67-1.36-2.826-.011-.3,0-.6,0-.9.006-.976.192-1.876,1.406-1.888s1.446.852,1.44,1.849C3068.462,5540.328,3068.464,5540.628,3068.464,5541.045Z" transform="translate(-3038.599 -5528.927)" fill="#f7bfb0"/>
        <path id="패스_4403" data-name="패스 4403" d="M3129.535,5572.134a16.332,16.332,0,0,1-6.619-.149c-.632-.162-.962-.173-1.063.647a4.753,4.753,0,0,0,4.1,5.4,4.58,4.58,0,0,0,5.148-4.692C3131.118,5571.846,3131.125,5571.888,3129.535,5572.134Z" transform="translate(-3062.3 -5541.166)" fill="#f7bfb0"/>
        <path id="패스_4404" data-name="패스 4404" d="M3060.018,5571.812a5.175,5.175,0,0,0,10.342-.024A18.117,18.117,0,0,1,3060.018,5571.812Z" transform="translate(-3044.699 -5541.134)" fill="#f7bfb0"/>
      </g>
      <path id="패스_4405" data-name="패스 4405" d="M3068.979,5553.143a1.243,1.243,0,0,0-1.519,1.179c-.172,1.306-.816,2.228-2.161,2.229-1.362,0-1.955-.978-2.159-2.248a1.239,1.239,0,0,0-1.536-1.153c-.812.156-1.1.788-1.1,1.628a4.811,4.811,0,0,0,9.6-.028C3070.1,5553.917,3069.808,5553.276,3068.979,5553.143Z" transform="translate(-7.356 -14.208)" fill="#080505"/>
      <path id="패스_4406" data-name="패스 4406" d="M3051.193,5551.529c-.513,0-.876.024-1.235-.005-1.11-.092-1.834.462-1.815,1.506a1.708,1.708,0,0,0,1.737,1.734,8.543,8.543,0,0,0,1.084.007c1.311-.089,3.134.4,3.115-1.707C3054.06,5551.019,3052.262,5551.658,3051.193,5551.529Z" transform="translate(-3.836 -13.751)" fill="#ea766d"/>
      <path id="패스_4407" data-name="패스 4407" d="M3079.221,5544.729c0-.417,0-.717,0-1.018.005-1-.238-1.86-1.44-1.849s-1.4.912-1.406,1.888c0,.3-.011.6,0,.9.045,1.155-.338,2.784,1.36,2.826C3079.625,5547.525,3079.135,5545.8,3079.221,5544.729Z" transform="translate(-11.875 -11.002)" fill="#0d0c0b"/>
      <g id="그룹_628" data-name="그룹 628" transform="translate(3091.971 5532.574)">
        <path id="패스_4408" data-name="패스 4408" d="M3119.213,5547.126c0-.417,0-.718,0-1.018.006-1-.238-1.86-1.441-1.849s-1.4.912-1.407,1.888c0,.3-.01.6,0,.9.046,1.156-.338,2.784,1.361,2.826C3119.618,5549.921,3119.128,5548.2,3119.213,5547.126Z" transform="translate(-3115.236 -5544.259)" fill="#0d0c0b"/>
        <path id="패스_4409" data-name="패스 4409" d="M3118.766,5545.692c0-.208,0-.358,0-.51.008-.5-.33-.93-2.007-.924-1.693.006-1.952.457-1.96.944a3.742,3.742,0,0,0,0,.45c.063.578-.471,1.393,1.9,1.414C3119.329,5547.09,3118.647,5546.228,3118.766,5545.692Z" transform="translate(-3114.789 -5544.259)" fill="#0d0c0b"/>
      </g>
      <g id="그룹_629" data-name="그룹 629" transform="translate(3107.266 5532.574)">
        <path id="패스_4410" data-name="패스 4410" d="M3136.175,5547.126c0-.417,0-.718,0-1.018-.006-1,.238-1.86,1.44-1.849s1.4.912,1.406,1.888c0,.3.011.6,0,.9-.045,1.156.338,2.784-1.36,2.826C3135.77,5549.921,3136.26,5548.2,3136.175,5547.126Z" transform="translate(-3136.174 -5544.259)" fill="#0d0c0b"/>
        <path id="패스_4411" data-name="패스 4411" d="M3136.175,5545.692c0-.208,0-.358,0-.51-.008-.5.331-.93,2.008-.924,1.692.006,1.951.457,1.959.944a3.6,3.6,0,0,1,0,.45c-.062.578.472,1.393-1.9,1.414C3135.611,5547.09,3136.293,5546.228,3136.175,5545.692Z" transform="translate(-3136.174 -5544.259)" fill="#0d0c0b"/>
      </g>
      <path id="패스_4412" data-name="패스 4412" d="M3056.9,5544.682c0-.3-.009-.6,0-.9.024-.985-.166-1.869-1.366-1.917-1.22-.048-1.446.837-1.475,1.819-.009.3-.017.6,0,.9.067,1.2-.386,2.906,1.475,2.895C3057.277,5547.465,3056.832,5545.82,3056.9,5544.682Z" transform="translate(-5.518 -11.002)" fill="#0d0b0b"/>
      <path id="패스_4413" data-name="패스 4413" d="M3126.526,5560.383a4.575,4.575,0,0,0,4.479-3.921c.111-.868-.118-1.61-1.033-1.843a1.289,1.289,0,0,0-1.713,1.148c-.159,1.02-.546,1.737-1.646,1.785-1.2.052-1.651-.687-1.834-1.782a1.283,1.283,0,0,0-1.705-1.153c-.907.239-1.133.979-1.032,1.851A4.592,4.592,0,0,0,3126.526,5560.383Z" transform="translate(-24.877 -14.617)" fill="#090707"/>
      <path id="패스_4414" data-name="패스 4414" d="M3127.634,5546.568a10.068,10.068,0,0,0-4.583-8.92c-.663-.453-1-.792-.7-1.729a5.549,5.549,0,0,0-.68-4.857,3.2,3.2,0,0,1-.45-2.009c.042-3.012.2-6.036-.783-8.973a5.375,5.375,0,0,0-.2-.523h0l-.055-.112-.021-.044a42.48,42.48,0,0,0-3.308-5.7,3.339,3.339,0,0,0-.491-.631c-.036-.038-.075-.072-.112-.11-.02-.021-.04-.045-.06-.066a2.848,2.848,0,0,0-.269-.254,17.972,17.972,0,0,0-7.987-4.621c-2.164-.585-4.4-.335-6.577-.5a17.093,17.093,0,0,0-10.044,2.163c-7.5,4.3-9.845,11.185-9.29,19.371a2.506,2.506,0,0,1-.8,2.363,6.905,6.905,0,0,0-1.669-3.391,3.2,3.2,0,0,1-1.031-2.9c.052-1.147.03-2.3,0-3.448a18.393,18.393,0,0,0-12.768-17.512c-3.833-1.245-7.741-1.042-11.663-.563a13.79,13.79,0,0,0-9.364,4.938c-1.324,1.633-2.5,1.971-4.245,1.071a4.88,4.88,0,0,0-.867-.247c-1.7-.5-2.355-.048-2.382,1.743a60.521,60.521,0,0,0,.992,13.892c.134.614.344,1.23-.45,1.729a6.89,6.89,0,0,0,2.092,12.434c.485.143.841.2,1.006.814a18.268,18.268,0,0,0,7.859,10.507c-1.4,0-2.337-.033-3.274.005-3.915.159-7.62,3.379-7.836,7.221-.245,4.342-.114,8.707-.139,13.061,0,.728.245,1.419,1.048,1.451.289.011.58.039.873.063h0a6.976,6.976,0,0,0,1.6.01l7.025.043.063-.051q14.372-.015,28.744,0c1.021,0,1.693-.429,1.671-1.457-.106-4.936.435-9.9-.437-14.963a22.8,22.8,0,0,0,5.646-.58,8.135,8.135,0,0,0-1.09,3.408c-.04,3.99-.015,7.98-.029,11.971,0,1.142.543,1.622,1.67,1.621q17.413-.017,34.826,0c1.269,0,1.683-.643,1.673-1.813-.024-3.083-.037-6.168,0-9.25a10.769,10.769,0,0,0-1.191-6.043,19.362,19.362,0,0,0,5.993.688c1.411-.005,2.114-.536,2.069-2.051C3127.578,5551.406,3127.611,5548.986,3127.634,5546.568Zm-29.449-36.331c.879-.111,1.882-.4,2.442.885a1.1,1.1,0,0,0,1.844.221c1.032-1.806,2.375-1.112,3.732-.758a12.536,12.536,0,0,1,6.554,2.95h0c.567.453,1.118.937,1.658,1.441l.07.067a11.881,11.881,0,0,1,3.139,5.25,3.3,3.3,0,0,0,.112.506,18.767,18.767,0,0,1,.853,5.463c.007,1.32-.343,1.9-1.718,1.73a22.943,22.943,0,0,0-2.335-.06h0c-1.087.015-2.174.043-3.261.044-4.884,0-7.422-2.066-8.263-6.8-.149-.842-.239-1.567-1.307-1.59-1.119-.022-1.41.76-1.58,1.634-.933,4.809-3.289,6.761-8.187,6.762-1.994,0-3.989-.025-5.982.01-.845.015-1.117-.3-1.185-1.15A15.59,15.59,0,0,1,3098.185,5510.237Zm-11.947,20.683a18.834,18.834,0,0,1,4.689-.131c4.361.179,8.135-.881,10.724-4.877,2.326,3.627,5.711,4.863,9.659,4.957,1.8-.014,3.6-.111,5.4-.019a3.246,3.246,0,0,1,3.059,3c.2,1.632-.636,3.534-2.174,3.675-2.375.218-3.124,1.547-3.455,3.522a2.574,2.574,0,0,1-.649,1.448h0a11.844,11.844,0,0,1-8.322,7,12.782,12.782,0,0,1-15.219-6.633h0a7.34,7.34,0,0,1-1.1-2.916,2.311,2.311,0,0,0-2.6-2.214,3.224,3.224,0,0,1-2.778-3.418A3.145,3.145,0,0,1,3086.238,5530.919Zm28.689,20.662c-2.042-.613-3.84-.2-6.035-.493a21.814,21.814,0,0,0,4.377-3.159A16,16,0,0,0,3114.927,5551.582Zm-8.646,2.207a4.581,4.581,0,0,1-5.148,4.692,4.753,4.753,0,0,1-4.1-5.4c.1-.821.431-.81,1.062-.647a16.346,16.346,0,0,0,6.62.148C3106.306,5552.331,3106.3,5552.289,3106.281,5553.788Zm-12.021-2.773c-1.993.5-3.877-.2-5.81.669l1.614-3.652A26.133,26.133,0,0,0,3094.261,5551.015ZM3046.91,5510.3c2.137-2.812,5.4-3.958,8.924-4.095,2.765-.108,5.549-.436,8.268.427a15.649,15.649,0,0,1,11.617,15c.015,3.912.015,3.913-3.826,3.827-.18,0-.36-.035-.539-.055-5.252.019-10.506.1-15.758.032a8.77,8.77,0,0,1-7.9-6.167c-.283-.808-.257-1.912-1.4-2.125-1.194-.223-1.653.79-2.253,1.511a18.219,18.219,0,0,0-3.051,5.666c-1-4.061-.893-7.869-.924-12.093C3043.39,5514.537,3045.047,5512.75,3046.91,5510.3Zm-3.49,28.541c-.214-.931-.244-1.965-1.463-2.228a4.151,4.151,0,0,1-4.468-4.329c.148-2.406,1.827-3.923,4.466-3.9a2.214,2.214,0,0,0,1.409-1.939,13.657,13.657,0,0,1,1.961-4.834c.623.159.686.774.959,1.181a11.765,11.765,0,0,0,10.031,5.515c5.134.093,10.271.063,15.406.086.781-.021,1.563-.067,2.343-.058a4.139,4.139,0,0,1,.5,8.263,2.148,2.148,0,0,0-2.069,1.579,10.864,10.864,0,0,1-3.321,6.781h0a13.95,13.95,0,0,1-7.906,4.906A14.952,14.952,0,0,1,3043.42,5538.839Zm19.723,13.423a5.175,5.175,0,0,1-10.342.024A18.117,18.117,0,0,0,3063.143,5552.263Zm10.894,17.359c-8.992-.052-17.984-.018-26.977-.012l-.007,0h-6.041c-.744-.052-.859-.462-.855-1.085.018-3.261-.082-6.525.044-9.781a5.691,5.691,0,0,1,5.473-5.466c.421-.033.851.015,1.266-.049,1.924-.3,3.034.213,3.878,2.277,1.236,3.022,3.916,4.458,7.249,4.428a7.726,7.726,0,0,0,7.143-4.4c1.317-2.461,1.278-2.482,4.305-2.177h0c3.741-.125,6.18,2.177,6.2,5.881.017,2.9-.076,5.8.04,8.689C3075.812,5569.32,3075.368,5569.628,3074.036,5569.622Zm1.655-23.515c0,2.053,0,4.107,0,6.5a11.181,11.181,0,0,0-8.151-2.2,18.707,18.707,0,0,0,7.5-10.543.873.873,0,0,1,.76-.648,6.965,6.965,0,0,0,4.783-3.835c.823,1.109.515,1.695-.544,2.433A9.648,9.648,0,0,0,3075.691,5546.107Zm4.123,6.942c-1.035-.011-1.581-.217-1.505-1.394.15-2.344.1-4.707.349-7.037.244-2.256,1.76-3.772,3.577-4.969.594-.391,3.679.661,3.913,1.434.449,1.479,1.486,2.81,1.222,4.353A7.311,7.311,0,0,1,3079.814,5553.049Zm36.914,16.46c-1.081-.088-2.17-.074-3.256-.1q-10.323.055-20.648.109c-1.932.009-3.868-.062-5.8.024-1.216.054-1.713-.256-1.665-1.583.1-2.715,0-5.437.044-8.155.061-3.612,2.171-5.694,5.769-5.764.6-.011,1.213.042,1.812-.016.89-.087,1.149.254,1.357,1.151a7.509,7.509,0,0,0,7.257,6.161c3.563.039,6.469-2.354,7.419-6.2.177-.714.205-1.342,1.179-1.011h0a26.3,26.3,0,0,1,3.253,0c2.618.311,4.48,2.6,4.57,5.671.083,2.78-.007,5.564.044,8.346C3118.083,5569.143,3117.784,5569.6,3116.728,5569.509Zm8.026-23.513c-.069,1.618-.008,3.241-.011,4.861,0,2.271-.081,2.358-2.309,2.152a7.443,7.443,0,0,1-1.362-.39h0a7.061,7.061,0,0,1-4.558-9.728c.422-1.011.3-2.544,2.031-2.541,1.569-1.508,2.785-.865,4.058.516A6.873,6.873,0,0,1,3124.753,5546Z" fill="#0d0b0a"/>
    </g>
  </g>
</svg>
