<svg xmlns="http://www.w3.org/2000/svg" width="138.397" height="142.113" viewBox="0 0 138.397 142.113">
  <path id="패스_2668" data-name="패스 2668" d="M682.589,469.24c-7.68-4.566-16.473-7.345-25.407-9.617a281.45,281.45,0,0,0,.953-33.432c-.341-8.577-10.707-10.936-14.885-5.622a5.246,5.246,0,0,0-2.128,1.626c-6.881,9.254-13.111,18.986-19.579,28.55q-16.931-4.432-33.861-8.862c-8.539-2.237-13.641,6.91-8.928,13.64q9.462,13.509,18.911,27.027-8.1,9.81-16.74,19.162c-4.437,4.8-1.4,15.063,6.371,12.726,8.981-2.7,17.908-5.543,26.858-8.329q8.371,11.967,16.746,23.928c3.246,4.644,10.391,3.027,13.2-.943,5.133-7.276,6.371-15.922,7.746-24.508.592-3.685,1.128-7.383,1.642-11.08,8.721-2.87,17.46-5.672,26.153-8.646C686.1,482.648,689.686,473.461,682.589,469.24Z" transform="translate(-395.951 -568.177) rotate(17)" fill="#3152fe"/>
</svg>
