<svg xmlns="http://www.w3.org/2000/svg" width="45.045" height="45.045" viewBox="0 0 45.045 45.045">
  <g id="sns-kakao" opacity="0.35">
    <path id="패스_1556" data-name="패스 1556" d="M1072.3,712.152a22.522,22.522,0,1,1,22.523-22.523A22.548,22.548,0,0,1,1072.3,712.152Zm0-43.333a20.811,20.811,0,1,0,20.811,20.81A20.834,20.834,0,0,0,1072.3,668.819Z" transform="translate(-1049.774 -667.107)" fill="#fff"/>
    <g id="그룹_164" data-name="그룹 164" transform="translate(9.237 10.267)">
      <path id="패스_1557" data-name="패스 1557" d="M1104.491,728.371h1.659l-.83-1.808Z" transform="translate(-1094.994 -716.474)" fill="#fff"/>
      <path id="패스_1558" data-name="패스 1558" d="M1090.039,697.094c-7.338,0-13.285,4.71-13.285,10.52,0,3.694,2.405,6.941,6.041,8.818l-1,5.173,5.745-3.659a16.81,16.81,0,0,0,2.5.189c7.337,0,13.285-4.71,13.285-10.521S1097.376,697.094,1090.039,697.094Zm-6.735,13.632a.559.559,0,0,1-.56.556h-.125a.56.56,0,0,1-.4-.164.554.554,0,0,1-.164-.392v-4.6H1080.7a.6.6,0,0,1-.313-.088.535.535,0,0,1-.2-.226.485.485,0,0,1-.044-.2.493.493,0,0,1,.044-.2.523.523,0,0,1,.12-.161.578.578,0,0,1,.4-.151h3.953a.591.591,0,0,1,.313.088.531.531,0,0,1,.2.224.5.5,0,0,1,.043.2.492.492,0,0,1-.043.2.551.551,0,0,1-.121.163.587.587,0,0,1-.4.151H1083.3Zm6.622.286a.551.551,0,0,1-.24.209l-.116.051a.563.563,0,0,1-.53-.036.554.554,0,0,1-.211-.239l-.459-1h-2.582l-.456.995a.547.547,0,0,1-.21.239.57.57,0,0,1-.531.037l-.114-.052a.544.544,0,0,1-.241-.209.567.567,0,0,1-.086-.3.547.547,0,0,1,.05-.229l2.245-4.9.017-.046a.583.583,0,0,1,.069-.159c.01-.015.02-.029.044-.06a.543.543,0,0,1,.171-.17.567.567,0,0,1,.3-.086c.023,0,.045,0,.092.006a.569.569,0,0,1,.278.086.609.609,0,0,1,.142.125.6.6,0,0,1,.075.095.583.583,0,0,1,.073.176l2.383,5.208Zm4.764-.013a.48.48,0,0,1-.107.135.587.587,0,0,1-.395.148h-3.261l-.059,0a.612.612,0,0,1-.255-.084.535.535,0,0,1-.188-.194l-.057-.09v-5.249a.56.56,0,0,1,.56-.556h.127a.559.559,0,0,1,.558.556v4.614h2.574a.575.575,0,0,1,.434.187l.223.249Zm5.221-.1a.539.539,0,0,1-.171.2l-.1.075a.58.58,0,0,1-.579.049.561.561,0,0,1-.2-.169l-1.756-2.386-.739.766v1.289a.56.56,0,0,1-.56.556h-.125a.564.564,0,0,1-.4-.163.655.655,0,0,1-.094-.124l-.07-.126v-5.207a.557.557,0,0,1,.164-.392.564.564,0,0,1,.4-.164h.127a.563.563,0,0,1,.394.164.557.557,0,0,1,.164.392v1.985l2.288-2.373a.548.548,0,0,1,.188-.128.575.575,0,0,1,.6.111l.092.088a.557.557,0,0,1,.129.187.572.572,0,0,1,.042.215.547.547,0,0,1-.154.384l-1.574,1.632,1.887,2.563a.547.547,0,0,1,.107.327A.572.572,0,0,1,1099.911,710.9Z" transform="translate(-1076.754 -697.094)" fill="#fff"/>
    </g>
  </g>
</svg>
