<svg id="sns-instagram_g_" data-name="sns-instagram(g)" xmlns="http://www.w3.org/2000/svg" width="45.045" height="45.045" viewBox="0 0 45.045 45.045">
  <path id="패스_1563" data-name="패스 1563" d="M1701.615,712.152a22.522,22.522,0,1,1,22.522-22.522A22.548,22.548,0,0,1,1701.615,712.152Zm0-43.333a20.811,20.811,0,1,0,20.81,20.811A20.834,20.834,0,0,0,1701.615,668.819Z" transform="translate(-1679.092 -667.107)" fill="#278e2a"/>
  <g id="그룹_168" data-name="그룹 168" transform="translate(10.423 10.424)">
    <path id="패스_1564" data-name="패스 1564" d="M1726.75,697.554h-10.231a6.984,6.984,0,0,0-6.985,6.984v10.229a6.982,6.982,0,0,0,6.985,6.983h10.231a6.98,6.98,0,0,0,6.984-6.983V704.538a6.982,6.982,0,0,0-6.984-6.984m4.755,17.394a4.639,4.639,0,0,1-4.637,4.638H1716.4a4.641,4.641,0,0,1-4.637-4.638V704.479a4.639,4.639,0,0,1,4.637-4.637h10.47a4.637,4.637,0,0,1,4.637,4.637Z" transform="translate(-1709.534 -697.554)" fill="#278e2a"/>
    <path id="패스_1565" data-name="패스 1565" d="M1732.811,714.551a6.279,6.279,0,1,0,6.281,6.28,6.279,6.279,0,0,0-6.281-6.28m0,10.349a4.071,4.071,0,1,1,4.071-4.069,4.07,4.07,0,0,1-4.071,4.069" transform="translate(-1720.713 -708.732)" fill="#278e2a"/>
    <path id="패스_1566" data-name="패스 1566" d="M1742.064,728.617a1.463,1.463,0,1,0,1.463,1.462,1.463,1.463,0,0,0-1.463-1.462" transform="translate(-1729.965 -717.982)" fill="#278e2a"/>
  </g>
</svg>
