<svg id="sns-youtube_y_" data-name="sns-youtube(y)" xmlns="http://www.w3.org/2000/svg" width="45.045" height="45.045" viewBox="0 0 45.045 45.045">
  <path id="패스_1561" data-name="패스 1561" d="M1497.751,712.151a22.523,22.523,0,1,1,22.522-22.523A22.548,22.548,0,0,1,1497.751,712.151Zm0-43.333a20.811,20.811,0,1,0,20.811,20.811A20.834,20.834,0,0,0,1497.751,668.818Z" transform="translate(-1475.228 -667.106)" fill="#ffc400"/>
  <path id="패스_1562" data-name="패스 1562" d="M1529.94,711.887a2.881,2.881,0,0,0-2.034-2.033c-1.794-.481-8.987-.481-8.987-.481s-7.194,0-8.988.481a2.881,2.881,0,0,0-2.034,2.033,32.144,32.144,0,0,0,0,11.074,2.882,2.882,0,0,0,2.034,2.034c1.794.481,8.988.481,8.988.481s7.193,0,8.987-.481a2.882,2.882,0,0,0,2.034-2.034,32.12,32.12,0,0,0,0-11.074Zm-14.009,8.987v-6.9l5.977,3.45Z" transform="translate(-1496.396 -694.902)" fill="#ffc400"/>
</svg>
