<svg xmlns="http://www.w3.org/2000/svg" width="45" height="45" viewBox="0 0 45 45">
  <g id="sns-youtube_r" transform="translate(-1783 -4465)">
    <path id="빼기_7" data-name="빼기 7" d="M-1997.5-256a22.353,22.353,0,0,1-15.91-6.59A22.353,22.353,0,0,1-2020-278.5a22.353,22.353,0,0,1,6.59-15.91A22.353,22.353,0,0,1-1997.5-301a22.353,22.353,0,0,1,15.91,6.59A22.353,22.353,0,0,1-1975-278.5a22.353,22.353,0,0,1-6.59,15.91A22.353,22.353,0,0,1-1997.5-256Zm.022-30.352c-.072,0-7.214.005-8.987.481a2.881,2.881,0,0,0-2.034,2.033,30.1,30.1,0,0,0-.481,5.537,30.117,30.117,0,0,0,.481,5.538,2.881,2.881,0,0,0,2.034,2.033c1.773.475,8.916.481,8.987.481s7.214-.005,8.987-.481a2.884,2.884,0,0,0,2.034-2.033,30.117,30.117,0,0,0,.481-5.538,30.1,30.1,0,0,0-.481-5.537,2.884,2.884,0,0,0-2.034-2.033C-1990.263-286.346-1997.405-286.351-1997.477-286.351Zm-2.988,11.5v-6.9l5.976,3.45-5.974,3.45Z" transform="translate(3803 4766)" fill="#fff"/>
  </g>
</svg>
