<svg id="more" xmlns="http://www.w3.org/2000/svg" width="65" height="65.188" viewBox="0 0 65 65.188">
  <path id="shape" d="M392.694,1002.411c-3.3-6.164-8.5-10.382-14.73-13.345a17.068,17.068,0,0,0-6.138-1.8c-2.241-.153-4.476-.411-6.718-.549-3.6-.22-7.216-.4-10.736.668-2.157.654-4.318,1.316-6.426,2.109a16.78,16.78,0,0,0-6.779,4.332,23.772,23.772,0,0,1-2.876,2.863,15.882,15.882,0,0,0-5.765,9.656c-.6,2.861-1.232,5.716-1.827,8.578a4.68,4.68,0,0,0-.077,1.343,15.194,15.194,0,0,1-.556,6.62,3.581,3.581,0,0,0-.017,2c.164.768.326,1.54.438,2.317a30.641,30.641,0,0,0,2.593,8.7c.793,1.695,2.273,2.77,3.2,4.306a19.28,19.28,0,0,0,6.311,6.447c1.907,1.208,3.927,2.18,5.89,3.269a13.755,13.755,0,0,0,6.441,1.719c1.8.05,3.609.01,5.414.01v.073c.79,0,1.58-.011,2.369,0a34.282,34.282,0,0,0,17.487-4.117c4.216-2.336,7.787-5.333,9.606-10.006a24.325,24.325,0,0,1,1.32-2.745c2.584-4.771,3.363-9.994,3.709-15.288.2-3.036-.012-6.1.085-9.14A15.864,15.864,0,0,0,392.694,1002.411Z" transform="translate(-329.913 -986.554)" fill="#fff"/>
  <g id="more-2" data-name="more" transform="translate(-1370.5 -2707.524)">
    <line id="선_4" data-name="선 4" x2="33" transform="translate(1387.5 2740.118)" fill="none" stroke="#ffc400" stroke-width="3"/>
    <line id="선_5" data-name="선 5" y2="33" transform="translate(1404 2723.618)" fill="none" stroke="#ffc400" stroke-width="3"/>
  </g>
</svg>
