<svg xmlns="http://www.w3.org/2000/svg" width="161.045" height="163.965" viewBox="0 0 161.045 163.965">
  <path id="vector_triangle" d="M225.069,212.681a41.923,41.923,0,0,0-2.788-9.067A139.929,139.929,0,0,0,215.868,191c-.853-1.494-1.074-3.25-2.873-4.139a1.539,1.539,0,0,1-.429-2.124c.482-.97.633-1.863-.3-2.663a7.293,7.293,0,0,1-2.163-3.482c-2.626-8.1-6.282-15.838-8.469-24.108a28.106,28.106,0,0,0-2.95-6.492,12.2,12.2,0,0,1-1.207-2.478c-2.487-7.929-4.1-16.141-7.515-23.775a7.438,7.438,0,0,1-.322-1.76h0a3.089,3.089,0,0,0-2.3-3.684c-1.822-1.518-3.445-3.433-5.51-4.463-3.237-1.616-6.725-3.751-10.321-.525a1.279,1.279,0,0,0-.837-.045c-.308-.18-.705-.588-.91-.507-2.444.964-4.9,1.937-6.457,4.258-3.722,3.816-6.882,8-8.611,13.124h0c-2.774,2.659-4.227,6.184-6.105,9.421-3.662,6.312-7.1,12.756-10.867,19.006-4.2,6.967-7.985,14.088-10.2,21.961-3.066,2.976-4.321,6.984-6.087,10.7h.007a9.99,9.99,0,0,0-2.58,5.975h0a51.1,51.1,0,0,0-5.79,13.1c-2.66,4.15-2.285,8.937-2.717,13.525-.152,1.617,1.169,2.322,2.78,2.206.115,2.507,1.643,3.47,3.927,3.5a6.373,6.373,0,0,0,5.856-3.422,13.633,13.633,0,0,0,4.773-5.757h0a2.525,2.525,0,0,1,1.786,1.4,37.188,37.188,0,0,0,1.46,3.849c2.355,4.346,5.62,7.488,10.921,7.687,1.963,1.382,4.216.914,6.368.946,7.755.117,15.514.048,23.264.3a50.3,50.3,0,0,0,12.45-.863c4.841-1.049,9.754-2.185,14.738-1.975a63.572,63.572,0,0,0,15.4-1.107A13.774,13.774,0,0,0,225.069,212.681Z" transform="translate(140.311 314.077) rotate(-150)" fill="#7200ff"/>
</svg>
