<svg xmlns="http://www.w3.org/2000/svg" width="144.484" height="151.626" viewBox="0 0 144.484 151.626">
  <g id="vector_3line" transform="translate(-528.695 3.222) rotate(-43)">
    <path id="패스_7807" data-name="패스 7807" d="M432.806,500.692c1.378-4.452,1.621-8.89-.157-13.3.147-8.942.639-17.893-.748-26.8a8.776,8.776,0,0,1-.153-2.946c.781-3.984.089-7.943-.065-11.906-.346-8.9-.778-17.808-1.205-26.71-.085-1.788-.3-3.57-.45-5.355a3.428,3.428,0,0,0-2.246-3.128c-1.886-.9-1.826-1.531-.589-3.153,2.384-3.129,1.868-5.3-1.608-6.768a3.975,3.975,0,0,0-5.474,2.029,8.328,8.328,0,0,0-.732,2.855c-.349,4.954-.685,9.911-.872,14.873a26.393,26.393,0,0,0,.5,5.32,28.45,28.45,0,0,1,.44,7.091,88.663,88.663,0,0,0-.025,8.946c.047,2.234.1,2.235,2.571,2.633.2.031.408-.03.6.02a1.653,1.653,0,0,1,1.453,1.6,1.731,1.731,0,0,1-1.242,1.784c-3.4,1.39-3.48,1.406-3.2,4.22a68.74,68.74,0,0,1,.01,11.857,28.693,28.693,0,0,0,.072,7.738,27.777,27.777,0,0,1,.2,6.468c-.306,11.716-.637,23.419-.136,35.148a10.791,10.791,0,0,0,2.208,6.494,1.93,1.93,0,0,0,2.366,1.214,4.4,4.4,0,0,0,1.119.126c.972.975,2.014.81,3.163.3,1.542-.678,3.474-.8,3.854-2.971h0C434.166,512.517,433.792,506.61,432.806,500.692Z" fill="#3a7097"/>
    <path id="패스_7808" data-name="패스 7808" d="M358.114,499.717a3.226,3.226,0,0,0-1.829-2.824q.027-1.092.053-2.184h0a14.008,14.008,0,0,0,.5-8.724,42.4,42.4,0,0,1-.7-7.079c-.153-3.952-.407-7.9-.736-11.846a30.2,30.2,0,0,1,.069-8.255,13.5,13.5,0,0,0-1.283-8.634c-.342-.692-1.04-1.365-.379-2.093,1.695-1.87,1.079-4.141,1.11-6.241.078-5.152-.049-10.306-.094-15.46,0-3.925,0-7.851-.017-11.776a3.2,3.2,0,0,0-1.115-2.607c-.615-1.449-1.038-2.959-3.021-3.275-3.922-.626-6.011.884-6.439,4.886-.337,3.157-.672,6.313-.984,9.472-.722,7.308-.351,14.643-.581,21.963-.049,1.557.921,2.51,1.437,3.746.692,1.656-2.138,1.613-1.954,3.25a10.977,10.977,0,0,1-.119,1.182c0,6.121-.4,12.279.139,18.354.5,5.727.692,11.47,1.243,17.184.47,4.879.288,9.97,3.621,14.17a2.283,2.283,0,0,1,.023,2.817c-2.727,2.953-2.3,6.06-.764,9.307-.094,2.9,1.4,4.71,3.953,5.8.694,1.209,1.484,1.1,2.333.171h0l.006.013a2.3,2.3,0,0,0,2.44-1.139h0c3.039-2.965,4.019-6.648,3.743-10.765C358.56,505.989,358.355,502.851,358.114,499.717Z" fill="#3a7097"/>
    <path id="패스_7809" data-name="패스 7809" d="M393.087,501.68c-.478-7.321-.957-14.645-1.213-21.976-.263-7.519-2.113-14.937-1.374-22.514a7.04,7.04,0,0,0-.067-1.192c-.6-7.934-1.089-15.877-1.839-23.8-.449-4.744.266-9.594-1.279-14.236a5.443,5.443,0,0,0-1.534-5.406c-1.986-1.869-3.632-1.628-5.324.618a6.974,6.974,0,0,0-1.45,4.348c-.1,7.068-.461,14.135-.425,21.2.011,2.3-.989,4.651.121,6.932h0c-.074,1.194-.226,2.389-.208,3.581.18,12.127.4,24.253.582,36.38.119,8.16,1.563,16.256,1.075,24.456a18.3,18.3,0,0,0,1.675,7.548c1.664,4.3,4.134,5.512,8.451,4.189,1.984-.608,3.444-1.576,3.578-4.109a39.828,39.828,0,0,0,.242-5.941C393.775,508.4,393.307,505.049,393.087,501.68Z" fill="#3a7097"/>
  </g>
</svg>
