<svg xmlns="http://www.w3.org/2000/svg" xmlns:xlink="http://www.w3.org/1999/xlink" width="315.296" height="371.03" viewBox="0 0 315.296 371.03">
  <defs>
    <clipPath id="clip-path">
      <path id="패스_7973" data-name="패스 7973" d="M-1396.234,1321.625c11.451,15.8-16.651,27.432-36.752,27.432s-49.523-13.325-36.042-27.432c11.528-12.062,16.294,5.869,36.4,5.869S-1407.762,1305.721-1396.234,1321.625Z" transform="translate(1472.444 -1315.812)" fill="none"/>
    </clipPath>
  </defs>
  <g id="그룹_1316" data-name="그룹 1316" transform="translate(1516.177 -1244.812)">
    <g id="그룹_1314" data-name="그룹 1314">
      <g id="그룹_1312" data-name="그룹 1312">
        <g id="그룹_1132" data-name="그룹 1132" transform="translate(-1458.086 1337.082)">
          <path id="패스_7970" data-name="패스 7970" d="M-1263.122,1357.307a97.343,97.343,0,0,0-22.334-39.548c-10.875-11.612-24.932-20.556-41.8-26.583-15.409-5.5-33.654-8.292-54.223-8.292s-38.8,2.791-54.225,8.3c-16.873,6.03-30.942,14.977-41.805,26.6a97.332,97.332,0,0,0-22.317,39.521,153.71,153.71,0,0,0-5.735,43.135,141.51,141.51,0,0,0,6.568,44.116,100.6,100.6,0,0,0,23.261,38.96c10.974,11.375,24.89,20.163,41.36,26.122a135.822,135.822,0,0,0,25.914,6.385c2.228,3.469,5.009,8.7,5.009,13.343,0,7.713-1.708,3.9-1.721,3.869-.769-1.72-6.027-2.509-7.535-2.442-6.878.3-10.267,10.564-6.339,15.674,2.277,2.959,6.675,2.85,9.978,2.185,2.44-.49,4.779-1.395,7.231-1.83,3.854-.682,7.486.858,10.972-1.624,7.1-5.051,2.549-13.014.8-19.39-.173-.63-.816-4.65-1.155-8.17,3.219.158,6.41.353,9.743.353s6.529-.2,9.75-.356c-.339,3.523-.981,7.542-1.154,8.173-1.753,6.376-6.3,14.339.8,19.39,3.486,2.482,7.118.942,10.972,1.624,2.453.435,4.791,1.34,7.231,1.83,3.3.665,7.7.774,9.978-2.185,3.928-5.11.539-15.375-6.339-15.674-1.508-.067-6.767.722-7.536,2.442-.012.027-1.718,3.844-1.718-3.869,0-4.65,2.786-9.889,5.016-13.355a137.311,137.311,0,0,0,25.738-6.349c16.576-5.963,30.551-14.766,41.516-26.139a100.713,100.713,0,0,0,23.263-38.944,141.4,141.4,0,0,0,6.576-44.139A153.658,153.658,0,0,0-1263.122,1357.307Z" transform="translate(1507.415 -1281.032)" fill="#ffc500"/>
          <path id="패스_7971" data-name="패스 7971" d="M-1349.138,1552a20.47,20.47,0,0,1-4-.43c-1.194-.24-2.366-.571-3.536-.907a36.646,36.646,0,0,0-3.656-.915,18.129,18.129,0,0,0-3.666-.138c-2.484.059-5.305.153-8.057-1.8-6.974-4.967-4.536-12.205-2.578-18.02.39-1.155.771-2.284,1.07-3.37.106-.4.527-2.949.863-5.721-4.974.255-10.371.252-15.335,0,.336,2.769.757,5.313.865,5.718.3,1.085.677,2.215,1.068,3.37,1.958,5.815,4.4,13.053-2.578,18.02-2.752,1.953-5.578,1.864-8.057,1.8a17.777,17.777,0,0,0-3.667.138,36.85,36.85,0,0,0-3.656.915c-1.169.336-2.341.668-3.533.907-5.449,1.093-9.53.094-11.815-2.878-2.425-3.152-2.722-8.136-.737-12.4,1.75-3.76,4.915-6.1,8.465-6.254-.01.091,4.665.081,7.464,1.686.012-.366.02-.784.02-1.258,0-3.857-2.228-8.336-4.272-11.637a137.256,137.256,0,0,1-25.429-6.349c-16.732-6.052-30.885-14.994-42.062-26.576a102.452,102.452,0,0,1-23.688-39.672,143.266,143.266,0,0,1-6.66-44.693,155.474,155.474,0,0,1,5.813-43.656,99.177,99.177,0,0,1,22.742-40.267c11.058-11.829,25.37-20.937,42.534-27.073,15.619-5.578,34.072-8.4,54.849-8.4s39.239,2.823,54.846,8.4c17.14,6.124,31.449,15.226,42.532,27.063a99.207,99.207,0,0,1,22.759,40.292h0a155.567,155.567,0,0,1,5.807,43.647,143.158,143.158,0,0,1-6.67,44.72,102.6,102.6,0,0,1-23.689,39.654c-11.172,11.584-25.38,20.534-42.223,26.593a138.848,138.848,0,0,1-25.251,6.307c-2.047,3.3-4.277,7.79-4.277,11.651,0,.472,0,.89.017,1.253,2.759-1.577,7.286-1.681,7.459-1.681h0c3.553.156,6.717,2.494,8.467,6.254,1.985,4.265,1.686,9.249-.739,12.4C-1343.017,1550.879-1345.677,1552-1349.138,1552Zm-13.429-6.129a16.214,16.214,0,0,1,2.88.225,39.276,39.276,0,0,1,4.03,1c1.073.307,2.148.616,3.243.833,2.26.455,6.327.86,8.141-1.5,1.582-2.055,1.711-5.58.316-8.576-.554-1.192-2.178-3.98-5.266-4.116-1.474-.1-5.182.709-5.817,1.449-.63,1.424-1.753,2.173-2.945,1.921-1.9-.41-2.265-2.653-2.265-6.645,0-5.046,2.888-10.593,5.31-14.361a1.868,1.868,0,0,1,1.281-.828,135.7,135.7,0,0,0,25.392-6.26c16.3-5.864,30.032-14.5,40.806-25.679a98.9,98.9,0,0,0,22.836-38.238,139.466,139.466,0,0,0,6.484-43.56,151.874,151.874,0,0,0-5.659-42.6h0a95.542,95.542,0,0,0-21.909-38.8c-10.675-11.4-24.492-20.181-41.068-26.1-15.207-5.429-33.239-8.181-53.6-8.181s-38.384,2.754-53.6,8.186c-16.6,5.936-30.421,14.72-41.073,26.116a95.507,95.507,0,0,0-21.891,38.776,151.787,151.787,0,0,0-5.661,42.613,139.594,139.594,0,0,0,6.475,43.536,98.784,98.784,0,0,0,22.833,38.252c10.781,11.172,24.46,19.807,40.658,25.664a134.19,134.19,0,0,0,25.56,6.3,1.869,1.869,0,0,1,1.283.831c2.418,3.765,5.3,9.308,5.3,14.344,0,3.993-.361,6.235-2.265,6.645-1.2.26-2.314-.5-3-2.012-.581-.648-4.3-1.422-5.765-1.357-3.085.136-4.709,2.925-5.266,4.116-1.392,3-1.261,6.521.317,8.576,1.819,2.361,5.886,1.956,8.146,1.5,1.1-.217,2.168-.526,3.241-.833a39.1,39.1,0,0,1,4.03-1,21.143,21.143,0,0,1,4.423-.2c2.27.069,4.062.118,5.8-1.118,4.4-3.135,3.34-7.5,1.214-13.812-.41-1.224-.813-2.423-1.13-3.572-.237-.86-.887-5.093-1.214-8.487a1.854,1.854,0,0,1,.5-1.456,1.821,1.821,0,0,1,1.434-.571l1.511.077a162.842,162.842,0,0,0,16.371-.008l1.429-.072a1.8,1.8,0,0,1,1.434.571,1.857,1.857,0,0,1,.5,1.459c-.327,3.387-.977,7.622-1.212,8.484-.317,1.152-.719,2.351-1.132,3.575-2.127,6.309-3.189,10.677,1.214,13.812,1.736,1.236,3.53,1.187,5.8,1.118C-1363.6,1545.882-1363.089,1545.867-1362.567,1545.867Z" transform="translate(1506.311 -1282.135)" fill="#1a1311"/>
        </g>
        <ellipse id="타원_342" data-name="타원 342" cx="49.465" cy="7.008" rx="49.465" ry="7.008" transform="translate(-1381.611 1601.827)" fill="#1a1311" opacity="0.3" style="mix-blend-mode: multiply;isolation: isolate"/>
      </g>
      <circle id="타원_343" data-name="타원 343" cx="5.929" cy="5.929" r="5.929" transform="translate(-1363.701 1400.824)" fill="#1a1311" style="mix-blend-mode: multiply;isolation: isolate"/>
      <circle id="타원_344" data-name="타원 344" cx="5.929" cy="5.929" r="5.929" transform="translate(-1320.608 1400.824)" fill="#1a1311" style="mix-blend-mode: multiply;isolation: isolate"/>
      <path id="패스_7972" data-name="패스 7972" d="M-1396.234,1321.625c11.451,15.8-16.651,27.432-36.752,27.432s-49.523-13.325-36.042-27.432c11.528-12.062,16.294,5.869,36.4,5.869S-1407.762,1305.721-1396.234,1321.625Z" transform="translate(98.085 104.526)"/>
      <g id="그룹_1134" data-name="그룹 1134" transform="translate(-1374.359 1420.338)">
        <g id="그룹_1133" data-name="그룹 1133" clip-path="url(#clip-path)">
          <circle id="타원_345" data-name="타원 345" cx="26.481" cy="26.481" r="26.481" transform="translate(13.62 20.7)" fill="#dc3a86"/>
        </g>
      </g>
      <ellipse id="타원_346" data-name="타원 346" cx="23.789" cy="8.333" rx="23.789" ry="8.333" transform="matrix(0.735, -0.678, 0.678, 0.735, -1431.768, 1390.303)" fill="#fff" opacity="0.3"/>
      <path id="패스_7976" data-name="패스 7976" d="M-1432.478,1350.443c-15.182,0-35.305-7.35-39.52-17.2-1.167-2.737-1.622-6.994,2.855-11.674,6.885-7.231,11.718-4.344,17.852-.675,4.68,2.786,10.5,6.267,19.167,6.267,8.447,0,14.2-4.037,18.813-7.3,6.3-4.393,11.261-7.909,18.282,1.79h0c3.1,4.275,3.649,8.7,1.572,12.757C-1398.51,1344.309-1417.645,1350.443-1432.478,1350.443Zm-28.267-31.612c-2.205,0-4.445,1.1-7.147,3.918-3.075,3.229-3.921,6.521-2.509,9.817,3.886,9.09,23.577,16.153,37.923,16.153,14.386,0,32.871-6.067,37.474-15.088,1.792-3.5,1.31-7.2-1.427-10.967h0c-6.008-8.28-9.716-5.711-15.884-1.384-4.813,3.394-10.813,7.6-19.809,7.6-9.15,0-15.2-3.614-20.055-6.5C-1455.5,1320.386-1458.1,1318.831-1460.745,1318.831Z" transform="translate(97.577 103.997)"/>
      <ellipse id="타원_347" data-name="타원 347" cx="15.139" cy="4.371" rx="15.139" ry="4.371" transform="translate(-1426.316 1414.732)" fill="#dc3a86"/>
      <ellipse id="타원_348" data-name="타원 348" cx="15.139" cy="4.371" rx="15.139" ry="4.371" transform="translate(-1273.306 1414.732)" fill="#dc3a86"/>
    </g>
    <g id="그룹_1315" data-name="그룹 1315">
      <g id="그룹_1136" data-name="그룹 1136" transform="translate(-1215.236 1356.351)">
        <path id="패스_7977" data-name="패스 7977" d="M-1403.436,1289.946a4.136,4.136,0,0,1,3.34,2.645,4.348,4.348,0,0,1,4.3-.156c2.4,1.256,2.628,4.351,1.127,6.8s-4.9,3.424-8.583,2.942c-2.717-1.654-5.068-4.772-4.809-7.622S-1405.785,1289.731-1403.436,1289.946Z" transform="translate(1408.079 -1289.93)" fill="#f6c7ca"/>
      </g>
      <g id="그룹_1137" data-name="그룹 1137" transform="translate(-1265.196 1309.059)">
        <path id="패스_7978" data-name="패스 7978" d="M-1407.057,1270.835a9.052,9.052,0,0,0-7.3,5.788,9.509,9.509,0,0,0-9.407-.341c-5.239,2.747-5.743,9.511-2.462,14.866s10.717,7.483,18.766,6.43c5.941-3.617,11.083-10.433,10.512-16.665S-1401.923,1270.365-1407.057,1270.835Z" transform="translate(1428.288 -1270.8)" fill="#f6c7ca"/>
      </g>
      <path id="패스_7981" data-name="패스 7981" d="M-1518.784,1348.138a8.623,8.623,0,0,1,8.86-.522,9.055,9.055,0,0,1,6.465-6.215c5.464-1.374,10.116,3.11,11.184,8.994s-2.86,12.121-9.246,16.482c-6.514,1.2-14.495-.373-18.047-5.164S-1522.73,1351.065-1518.784,1348.138Z" transform="translate(25.121 141.83)" fill="#f6c7ca"/>
    </g>
    <g id="그룹_1146" data-name="그룹 1146" transform="translate(-1516.177 1244.812)">
      <g id="그룹_1144" data-name="그룹 1144">
        <g id="그룹_1143" data-name="그룹 1143">
          <g id="그룹_1142" data-name="그룹 1142">
            <path id="패스_7984" data-name="패스 7984" d="M-1488.132,1340.216c19.059-8.907,38.952-16.653,56.053-29.056,7.572-5.493,13.7-13.718,14.438-23.043a29.549,29.549,0,0,0-4.665-17.614,32.329,32.329,0,0,0-13.946-12.559c-13.758-6.205-31.387.307-39.323,13.145.4-11.894-9.207-23.113-20.93-25.164s-24.24,4.789-29.444,15.491c-4.531,9.313-3.765,20.562.092,30.173s9.491,20.945,16.611,28.465,11.422,12.69,20.932,19.825" transform="translate(1530.915 -1243.712)" fill="#dd0030"/>
            <path id="패스_7985" data-name="패스 7985" d="M-1487.023,1343.171a1.854,1.854,0,0,1-1.622-.954c-7.951-6-12.257-10.613-17.691-16.433-1-1.071-2.042-2.183-3.15-3.355-7.639-8.069-13.454-20.25-16.984-29.051-4.437-11.058-4.452-22.6-.042-31.674,5.627-11.565,19.152-18.67,31.431-16.5a27.963,27.963,0,0,1,22.064,21.872c9.521-11.1,25.849-15.484,38.633-9.716a34.322,34.322,0,0,1,14.759,13.273,31.48,31.48,0,0,1,4.937,18.734c-.715,9.016-6.252,17.909-15.2,24.4-13.728,9.956-29.377,17.009-44.514,23.832-3.96,1.782-7.921,3.567-11.844,5.4A1.835,1.835,0,0,1-1487.023,1343.171Zm-12.581-94.653a26.931,26.931,0,0,0-23.573,14.808c-3.956,8.133-3.9,18.583.146,28.67,3.412,8.5,9,20.24,16.235,27.884,1.115,1.174,2.161,2.294,3.169,3.375,5.259,5.632,9.439,10.106,16.992,15.832,3.553-1.649,7.132-3.261,10.715-4.875,14.964-6.744,30.44-13.718,43.859-23.453,8.064-5.849,13.051-13.753,13.679-21.687a27.751,27.751,0,0,0-4.4-16.492,30.587,30.587,0,0,0-13.13-11.844c-12.423-5.6-29.358.089-36.984,12.428a1.856,1.856,0,0,1-2.116.8,1.855,1.855,0,0,1-1.315-1.839c.371-10.9-8.329-21.338-19.4-23.276A22.5,22.5,0,0,0-1499.6,1248.518Z" transform="translate(1529.809 -1244.812)" fill="#1a1311"/>
          </g>
        </g>
      </g>
      <g id="그룹_1145" data-name="그룹 1145" transform="translate(36.89 94.502)">
        <path id="패스_7986" data-name="패스 7986" d="M-1512.695,1283.708" transform="translate(1518.114 -1282.052)" fill="none" stroke="#1a1311" stroke-linecap="round" stroke-linejoin="round" stroke-width="1.5"/>
        <path id="패스_7987" data-name="패스 7987" d="M-1511.636,1405.2a1.853,1.853,0,0,1-1.846-1.718,562.912,562.912,0,0,1-.235-76.038c.989-15.594,2.259-29.587,3.891-42.781a1.844,1.844,0,0,1,2.067-1.612,1.853,1.853,0,0,1,1.612,2.067c-1.619,13.12-2.885,27.041-3.869,42.564a559.081,559.081,0,0,0,.232,75.529,1.855,1.855,0,0,1-1.715,1.985C-1511.547,1405.2-1511.592,1405.2-1511.636,1405.2Z" transform="translate(1514.887 -1283.038)" fill="#1a1311"/>
      </g>
    </g>
    <g id="그룹_1313" data-name="그룹 1313">
      <g id="그룹_1141" data-name="그룹 1141" transform="translate(-1490.665 1388.387)">
        <path id="패스_7982" data-name="패스 7982" d="M-1474.607,1331.889c-.221,1.13-11.736-2.178-12.794-2.685-3.914-1.867-8.413-6.7-6.761-11.466,1.266-3.651,4.737-8.413,1.723-12.25-2.727-3.469-7.489-1.34-10.552.455l-15.748,8.685,17.862,22.791c4.564,2.576,8.077,15.523,21.38,19.37" transform="translate(1520.594 -1301.792)" fill="#ffc500"/>
        <path id="패스_7983" data-name="패스 7983" d="M-1478.391,1359.739a1.859,1.859,0,0,1-.517-.074c-9.437-2.727-14.213-9.632-17.7-14.673-1.56-2.255-2.9-4.2-4.079-4.863a1.883,1.883,0,0,1-.546-.47l-17.864-22.791a1.856,1.856,0,0,1-.356-1.513,1.857,1.857,0,0,1,.919-1.256l15.751-8.685c7.283-4.265,11.041-2.346,12.9.025,3.046,3.876,1.038,8.346-.428,11.607-.374.836-.737,1.639-1,2.393-1.246,3.592,2.571,7.644,5.807,9.189,1.194.524,9.024,2.675,11.09,2.739a1.9,1.9,0,0,1,1.261-.2,1.855,1.855,0,0,1,1.464,2.178,2.282,2.282,0,0,1-1.11,1.442c-2.495,1.253-14.2-2.759-14.3-2.811-4.448-2.124-9.78-7.792-7.713-13.748.292-.848.7-1.755,1.12-2.7,1.543-3.436,2.44-5.832.895-7.8-.516-.655-2.084-2.65-8.153.91l-13.884,7.659,16.309,20.808c1.758,1.135,3.185,3.2,4.964,5.775,3.347,4.838,7.513,10.86,15.681,13.221a1.854,1.854,0,0,1,1.266,2.3A1.854,1.854,0,0,1-1478.391,1359.739Zm3.068-27.115v0Z" transform="translate(1519.489 -1302.888)" fill="#1a1311"/>
      </g>
      <g id="그룹_1147" data-name="그룹 1147" transform="translate(-1499.452 1388.036)">
        <path id="패스_7988" data-name="패스 7988" d="M-1495.371,1308.776s-9.379-11.879-20.633,0-5.9,23.761,4.242,25.845,15.844-.855,20.806,8.534" transform="translate(1524.146 -1301.641)" fill="#ffc500"/>
        <path id="패스_7989" data-name="패스 7989" d="M-1489.85,1346.114a1.858,1.858,0,0,1-1.642-.986c-3.127-5.919-6.247-6.166-11.908-6.616a59.051,59.051,0,0,1-7.634-.972,14.66,14.66,0,0,1-11.352-9.852c-1.891-6.012.346-12.967,6.141-19.083,3.856-4.069,8.012-6.052,12.26-5.844,6.621.3,10.989,5.738,11.175,5.971a1.858,1.858,0,0,1-.307,2.605,1.856,1.856,0,0,1-2.6-.3h0c-.035-.044-3.543-4.366-8.46-4.571-3.113-.163-6.3,1.446-9.375,4.69-4.84,5.11-6.769,10.729-5.293,15.422a11.006,11.006,0,0,0,8.561,7.335,57.739,57.739,0,0,0,7.182.9c5.8.46,10.813.858,14.892,8.578a1.851,1.851,0,0,1-.771,2.5A1.853,1.853,0,0,1-1489.85,1346.114Z" transform="translate(1523.044 -1302.746)" fill="#1a1311"/>
      </g>
    </g>
  </g>
</svg>
