<svg id="그룹_1135" data-name="그룹 1135" xmlns="http://www.w3.org/2000/svg" width="56.024" height="58.191" viewBox="0 0 56.024 58.191">
  <path id="패스_7974" data-name="패스 7974" d="M-1411.279,1332.389c.228,1.147,11.931-2.215,13.007-2.729,3.978-1.9,8.554-6.811,6.873-11.659-.788-2.274-2.482-4.121-3.12-6.46-2.364-8.645,13.073-10.465,13.167.776a12.4,12.4,0,0,1,2.074-6.408c2.653-3.79,8.662-3.241,11.832-.45,4.942,4.351.1,10.841-4.569,12.986a13.241,13.241,0,0,1,7.8-1.2c4.5.929,6.6,6.784,4.351,10.645-2.465,4.232-9.562,4.385-13.441,2.343,4.168,2.2,7.37,8.131,1.555,10.589-2.359,1-4.591.183-6.621-1.17-1.822-1.216-3.951-2.917-6.2-1.646-4.638,2.618-8.21,15.78-21.733,19.689" transform="translate(1413.134 -1301.36)" fill="#ffc500"/>
  <path id="패스_7975" data-name="패스 7975" d="M-1405.206,1360.656a1.854,1.854,0,0,1-1.78-1.34,1.857,1.857,0,0,1,1.266-2.3c8.314-2.4,12.551-8.526,15.958-13.449,1.921-2.779,3.441-4.977,5.382-6.072,3.063-1.733,5.849.163,7.691,1.417l.448.3c1.948,1.3,3.451,1.607,4.87,1,1.973-.833,2.017-1.886,2.032-2.235.069-1.639-1.6-3.882-3.725-5l-.005,0a1.854,1.854,0,0,1-.774-2.5,1.852,1.852,0,0,1,2.5-.776h0c3.016,1.587,9.088,1.6,10.974-1.637a5.662,5.662,0,0,0,.119-5.075,4.674,4.674,0,0,0-3.244-2.818,11.393,11.393,0,0,0-6.643,1.066l0,0h0a1.855,1.855,0,0,1-2.46-.912,1.855,1.855,0,0,1,.912-2.46c2.413-1.107,5.137-3.817,5.518-6.428a3.685,3.685,0,0,0-1.4-3.481,7.613,7.613,0,0,0-5.746-1.733,4.635,4.635,0,0,0-3.344,1.854,10.456,10.456,0,0,0-1.738,5.439,1.855,1.855,0,0,1-1.852,1.76h-.037a1.852,1.852,0,0,1-1.817-1.837c-.03-3.422-1.674-4.89-3.048-5.518a5.429,5.429,0,0,0-5.555.583,3.291,3.291,0,0,0-.925,3.654,13.345,13.345,0,0,0,1.454,3.041,18.908,18.908,0,0,1,1.631,3.3c2.092,6.039-3.315,11.788-7.824,13.941-.1.05-12.04,4.111-14.509,2.855a2.285,2.285,0,0,1-1.118-1.444,1.856,1.856,0,0,1,1.461-2.178,1.9,1.9,0,0,1,1.273.208c2.1-.06,10.074-2.252,11.306-2.794,3.288-1.57,7.179-5.706,5.909-9.372a15.574,15.574,0,0,0-1.335-2.65,16.294,16.294,0,0,1-1.825-3.928,6.981,6.981,0,0,1,2.1-7.454,9.165,9.165,0,0,1,9.5-1.132,8.463,8.463,0,0,1,3.211,2.534,12.2,12.2,0,0,1,.7-1.132,8.289,8.289,0,0,1,5.943-3.409,11.361,11.361,0,0,1,8.635,2.63,7.344,7.344,0,0,1,2.62,6.8,10.311,10.311,0,0,1-1.809,4.359,10.929,10.929,0,0,1,1.567.2,8.339,8.339,0,0,1,5.879,4.934,9.435,9.435,0,0,1-.3,8.46c-1.879,3.229-5.688,4.517-9.382,4.517a7.323,7.323,0,0,1,.91,3.693c-.06,1.4-.695,3.975-4.292,5.5-2.625,1.1-5.362.672-8.371-1.335l-.477-.321c-1.919-1.305-2.868-1.775-3.785-1.253-1.2.677-2.568,2.66-4.155,4.952-3.543,5.123-8.393,12.136-17.976,14.905A1.955,1.955,0,0,1-1405.206,1360.656Z" transform="translate(1412.029 -1302.465)" fill="#1a1311"/>
</svg>
