<svg xmlns="http://www.w3.org/2000/svg" width="131.768" height="145.445" viewBox="0 0 131.768 145.445">
  <path id="vector_pig-tailed" d="M454.66,108.015a24.357,24.357,0,0,0-8.861-.435,52.779,52.779,0,0,0-20.265,8.324c-5.253,3.409-9.685,7.58-12.2,13.52-1.392,3.293-3.3,6.392-4.457,9.755-1.064,3.082-2.75,4.689-6.025,4.632a26.07,26.07,0,0,0-10.977,2.436,30.83,30.83,0,0,1-3.963,1.317A54.1,54.1,0,0,0,372.92,154.8c-3.782,2.5-7.583,5.176-10.505,8.733-3.525,4.289-7.281,8.434-9.464,13.685a41.825,41.825,0,0,1-2.48,4.073,3.455,3.455,0,0,1-3.382,2.022c-3.644-.3-7.14.676-10.6,1.406-6.39,1.349-11.869,4.382-15.232,10.353-3.289,2.433-4.4,5.909-4.686,9.783-1.521,1.811-1.026,3.646.052,5.4a2.183,2.183,0,0,0,2.411,1.246c.948-.222,1.08-1.047,1.16-1.811.119-1.158.145-2.324.208-3.488a4.406,4.406,0,0,0,2.1-2.58h0l.048-.041a3.723,3.723,0,0,0,1.035-1.1l0,0c1.361-1.43,2.667-2.918,4.1-4.274a14.759,14.759,0,0,1,7.187-3.955,70.805,70.805,0,0,1,8.808-1c1.82-.132,2.924.943,2.914,2.918-.027,5.949,1.213,11.713,2.259,17.519.924,5.128,2.443,9.96,5.826,14.045a2.406,2.406,0,0,0,1.525,2.128h0l.043.033c.678,1.484,2.2,1.806,3.449,2.5h0c.672,1.66,2.224,2.219,3.674,2.839,7.819,3.345,22.128.345,28.119-5.183,3.4-3.139,5.258-7.237,4.538-11.822-1-6.371-3.389-12.285-8.079-16.971-2.518-2.517-5.232-4.839-7.722-7.382a26.032,26.032,0,0,0-7.929-5.208c-2.157-1-4.359-1.907-6.487-2.964-2.239-1.112-2.524-2.125-.934-4.185,2.788-3.611,5.559-7.163,9.247-10.07,8.457-6.667,17.469-11.733,28.465-12.464,1.858-.124,2.935.508,2.611,2.069-1.249,6.032.289,11.853,1.075,17.741a24.478,24.478,0,0,0,2.039,6.206c2.01,4.8,5.857,8.006,9.658,11.144a14.2,14.2,0,0,0,9.318,3.606c4.775-.132,9.569-.5,13.72-3.337h0a3.864,3.864,0,0,0,2.643-2.141h0c2.659-2.25,3.336-5.332,3.435-8.573.312-10.2-3.139-19.056-9.717-26.77a61.384,61.384,0,0,0-12.135-11.408,2.787,2.787,0,0,1-1.213-3.552c2.119-7.218,6.89-12.027,13.669-14.784,4.765-1.938,9.388-4.325,14.55-5.231,3.063-.537,4.817-2.665,5.641-5.544a23.56,23.56,0,0,0,.92-4.674A5.083,5.083,0,0,0,454.66,108.015ZM378.823,209.66a2.611,2.611,0,0,0,1.289,2.289l.026.05.006.009a3.658,3.658,0,0,0,.449.6l.548.735-.029.018h0a3.364,3.364,0,0,0,1.209,2.357c.1.988.122,1.99.307,2.961.671,3.529.542,4.209-2.56,5.465-9.071,3.672-14.967,1.54-18.406-5.228a25.348,25.348,0,0,1-3.056-11.411c.011-2.586.07-5.178-.061-7.758-.243-4.8,1.32-4.741,4.9-2.892A41.582,41.582,0,0,1,378.823,209.66Zm45.471-42.2c3.135,4.582,5.955,9.344,7.144,14.871a8.6,8.6,0,0,1,.091,1.184c.069,2.222-1.248,3.194-3.461,2.6-2.376-.639-4.578-1.651-5.628-3.988a28.875,28.875,0,0,1-2.655-16.176,1.157,1.157,0,0,1,1.792-.772A11.579,11.579,0,0,1,424.294,167.459Z" transform="matrix(0.017, 1, -1, 0.017, 231.086, -317.438)" fill="#6bab79"/>
</svg>
