<svg xmlns="http://www.w3.org/2000/svg" width="124.491" height="160.516" viewBox="0 0 124.491 160.516">
  <g id="vector_tulip" transform="translate(-394.465 -750.762) rotate(33)">
    <path id="패스_7799" data-name="패스 7799" d="M862.643,400.625c-.166-2.234,1.371-8.568-.768-9.375a15.472,15.472,0,0,0-8.094-.625c-.543.107-3.779,2.529-4.156,2.125-.765-.818-2.472,1.818-3.226,3-1.1,1.729-3.439-4.283-4.9-2.875-1.6,1.539-2.179-2.453-3.375-.625-1.455,2.225-3.481,1.69-4.75-.2-2.323-3.454-10.3-2.017-16,2.946-1.241,1.08-.59,2.379-.875,4-.456,2.59-1.56.387-1.875,3-.293,2.434.139-.636.25,1.811.02.449-.6-1.371-.75-.946-.738,2.07-.947,1.674-1.625.946-3.177-3.412-4.264,4.47-8.028,1.721a6.9,6.9,0,0,0-5.561-1.5c-5.8,1.292-3.6,7.343-2.644,11.439a81.688,81.688,0,0,0,2.547,8.48c.022.063.05.121.072.183.1.281.221.55.328.828a64.7,64.7,0,0,0,5.949,11.111c1.011,1.6,2.2,3.121,3.134,4.759,2.643,4.613,8.141,6,13.075,6.306a6.788,6.788,0,0,0,.933-.023c.075-.418.214-.944.4-1.645,3.328-1.885,7.156-2.159,10.715-3.307a4.636,4.636,0,0,1,3.9.633c1.005.591,1.419,2.4,2.722,2.021a5.989,5.989,0,0,0,2.287-1.808c2.939-3.77,6.093-3.337,8.433-7.505,1.864-3.323,3.863-9,5.862-12.235,2.139-3.464,3.089-6.45,4.875-10.015C863.012,410.234,862.879,403.8,862.643,400.625Zm-53.118,18.046c-2.2-.212-3.016-2.338-4.485-3.571-1.05-.881-2.055-1.818-3.056-2.756a.67.67,0,0,1-.068-.573c.057-.169.259-.289.394-.427.387.047.857-.034,1.121.162a31.511,31.511,0,0,1,2.733,2.282C809.551,416.962,810.637,418.778,809.525,418.671Zm16.556-13.945c-.583-.072-1.2-.281-1.284-.933-.1-.716.464-1.027,1.065-.9a2.024,2.024,0,0,1,1.771,1.3A1.419,1.419,0,0,1,826.081,404.726Zm17.432,18.495c-.1.092-.358.012-.54.012-.153-.344-.513-.77-.415-.993.773-1.755,2.084-3.307,1.561-5.481-.14-.581.608-1.05,1.185-.821.465.184,1.1.775,1.095,1.172A8.487,8.487,0,0,1,843.513,423.221Zm8.648-15.718c-.842.066-1.329-.687-1.392-1.485a1.771,1.771,0,0,1,1.687-1.909c.956-.165,1.224.609,1.325,1.383C853.683,406.547,853.233,407.42,852.161,407.5Z" fill="#f8d1c3"/>
    <g id="그룹_1080" data-name="그룹 1080">
      <path id="패스_7800" data-name="패스 7800" d="M865.649,397.167q-.079-.927-.18-1.849c-.433-4.022-1.291-8.34-4.293-11.05-3.908-3.527-10.605-2.8-14.23,1.015-1.434,1.509-2.524,3.452-4.384,4.387a19.38,19.38,0,0,0-15.938-9,7.765,7.765,0,0,0-5.113,1.415c-2.143,1.782-2.339,4.954-3.62,7.429a1.99,1.99,0,0,1-1.028,1.072c-.777.252-1.532-.383-2.14-.928a18.091,18.091,0,0,0-16.995-3.645c-1.249.378-2.549.711-3.263,1.81-.929,1.43-1.271,3.7-1.589,5.353a37.033,37.033,0,0,0-.308,11.215,84.974,84.974,0,0,0,4.3,17.1c2.7,8.079,6.413,16.6,13.26,21.672A81.982,81.982,0,0,1,795.4,412.309c-.529-2.338-.867-5.062.682-6.892,1.416-1.671,3.994-1.93,6.059-1.2a16.423,16.423,0,0,1,5.358,3.723l8.52,7.8c.471.431,1.1.894,1.688.647.679-.286.688-1.228.6-1.96a42.182,42.182,0,0,1,1-15.1,7.528,7.528,0,0,1,2.275-4.292c1.773-1.373,4.431-1.034,6.289.221a14.55,14.55,0,0,1,4.181,5.189,20.92,20.92,0,0,0,3.819,5.5,2.792,2.792,0,0,0,1.168.71c1.172.283,2.216-.743,2.987-1.671l5.28-6.359c1.127-1.357,2.1-3.121,4.11-2.971,2.322.175,5.35-.958,7.622-.337a5.725,5.725,0,0,1,3.541,3.226,11.6,11.6,0,0,1,.527,6.29c-1.723,12.432-10.613,21.87-15.694,32.929-1.275,2.775-2.682,6-5.615,6.851a14.638,14.638,0,0,1-.057,5.531,25.454,25.454,0,0,0,14.761-8.368,2.9,2.9,0,0,0,.877-1.737,3.1,3.1,0,0,1,.016-1.161c.288-.68,1.255-.586,1.973-.763,1.178-.291,1.853-1.5,2.356-2.607C865.137,423.6,866.788,410.2,865.649,397.167Z" fill="#ff857d"/>
      <path id="패스_7801" data-name="패스 7801" d="M824.208,449.422c-1.723-.8-2.139-1-1.9-2.311a6.788,6.788,0,0,1-.933.023,33.125,33.125,0,0,1-9.248-2.464.972.972,0,0,1,.189.163l.442.381c.313.269.632.533.947.8a9.27,9.27,0,0,0,1.124.868,6.478,6.478,0,0,0,.637.341c.217.1.451.172.666.274.466.221.924.461,1.384.693.942.474,1.89.939,2.875,1.318a12.35,12.35,0,0,0,3.041.785,9.364,9.364,0,0,0,2.324-.021c-.156-.086-.308-.175-.461-.263C824.935,449.8,824.579,449.6,824.208,449.422Z" fill="#ff857d"/>
      <path id="패스_7802" data-name="패스 7802" d="M806.164,413.788a31.511,31.511,0,0,0-2.733-2.282c-.264-.2-.734-.115-1.121-.162-.135.138-.337.258-.394.427a.67.67,0,0,0,.068.573c1,.938,2.006,1.875,3.056,2.756,1.469,1.233,2.284,3.359,4.485,3.571C810.637,418.778,809.551,416.962,806.164,413.788Z" fill="#ff857d"/>
      <path id="패스_7803" data-name="패스 7803" d="M842.973,423.233c.182,0,.442.08.54-.012a8.487,8.487,0,0,0,2.886-6.111c.01-.4-.63-.988-1.095-1.172-.577-.229-1.325.24-1.185.821.523,2.174-.788,3.726-1.561,5.481C842.46,422.463,842.82,422.889,842.973,423.233Z" fill="#ff857d"/>
      <path id="패스_7804" data-name="패스 7804" d="M853.781,405.492c-.1-.774-.369-1.548-1.325-1.383a1.771,1.771,0,0,0-1.687,1.909c.063.8.55,1.551,1.392,1.485C853.233,407.42,853.683,406.547,853.781,405.492Z" fill="#ff857d"/>
      <path id="패스_7805" data-name="패스 7805" d="M825.862,402.892c-.6-.126-1.164.185-1.065.9.089.652.7.861,1.284.933a1.419,1.419,0,0,0,1.552-.535A2.024,2.024,0,0,0,825.862,402.892Z" fill="#ff857d"/>
    </g>
    <path id="패스_7806" data-name="패스 7806" d="M839.932,445.516a2.069,2.069,0,0,0-.233-.972,4.772,4.772,0,0,0-.788-.6,17.334,17.334,0,0,0-1.658-1.191,4.553,4.553,0,0,0-3.832-.591c-3.559,1.148-7.387,1.422-10.715,3.307-.187.7-.326,1.227-.4,1.645-.236,1.309.18,1.506,1.9,2.311.371.173.727.379,1.084.586a1.467,1.467,0,0,1,.465.264c2.13.3,2.459,2.513,3.83,3.62,1.028,7.7.413,15.481,1.305,23.207.36,3.12.524,6.258.787,9.387.136,1.616.3,3.23.526,4.836a21.516,21.516,0,0,1,.447,4.544c-.116,1.619-.8,3.153-.988,4.771-.231,1.947-.3,3.908-.471,5.86a56.324,56.324,0,0,1-3.145,14.521c-1.443,3.912-3.228,7.7-4.934,11.511a11.585,11.585,0,0,0-1.459,5.709c.1,1.283.6,2.372,1.958,2.639a2.693,2.693,0,0,0,3.006-1.466c.82-1.583,1.253-3.378,2.148-4.91a65.579,65.579,0,0,0,7.913-23.575,105.6,105.6,0,0,0,1.39-13.007,53.812,53.812,0,0,0-.355-6.916c-.228-2.229-1.2-4.387-1.076-6.649.075-1.387.6-2.778.385-4.173-.22-1.423-.687-2.81-.876-4.245a53.7,53.7,0,0,1-.453-6.01,36.531,36.531,0,0,0-.625-5.371,31.562,31.562,0,0,1-.23-4.248,12.163,12.163,0,0,1,.378-3.637c.787-2.584,3.089-4.63,4.825-6.588A12.578,12.578,0,0,0,839.932,445.516Z" fill="#4d6f6a"/>
  </g>
</svg>
