<svg xmlns="http://www.w3.org/2000/svg" width="182.912" height="181.133" viewBox="0 0 182.912 181.133">
  <path id="vector_plus" d="M669.2,743.79c-.836-2.478-1.243-5.323-3.094-7.445-.268-.721-.321-1.738-.839-2.118-3.48-2.553-6.928-5.257-11.621-5.1-1.97.067-3.944.014-5.915.065a4.22,4.22,0,0,0-3.2,1.276c-.918.247-1.954.2-2.629,1.053-1.172.05-2.345.091-3.516.152-4.279.219-8.562.8-12.825-.165-.337-10.276.8-20.57-.391-30.834.964-5.957-2.447-10.643-4.6-15.684a3.415,3.415,0,0,0-1.575-1.691c-3.692-1.587-7.109-4.242-11.531-3.227-1.838-1.367-1.838-1.367-3.524.213h0l0,.014h0a3.481,3.481,0,0,0-3.8,2.059h0c-2.57,2.409-5.118,4.8-5.666,8.585-.1.7-.918,1.275-1.167,1.99-1.084,3.112-1.9,6.283-1.25,9.622a2.431,2.431,0,0,0,2.019,1.869,1.031,1.031,0,0,0,.015.631,3.651,3.651,0,0,0-2.4,3.089,43.336,43.336,0,0,0-.152,8.282c.415,4.117.735,8.245,1.241,12.35a4.108,4.108,0,0,1-3.153,4.957h0l.009.12h0a2.289,2.289,0,0,0-2.468-1.29h0c-7.886.071-15.773.121-23.659.228a9.232,9.232,0,0,0-5.568,1.748c-3.112,2.276-6.621,4.142-6.637,8.732-2.706,1.822-.681,4.89-1.825,7.149-.1.2.669.833,1.014,1.281s.913.888.946,1.364c.349,4.882,3.352,7.323,7.74,8.319,4.03.915,8.114,1.6,12.186,2.321a3.776,3.776,0,0,0,2.809-.767,5.928,5.928,0,0,0,5.47-.02c2.107,1.417,4.438.683,6.7.737s4.692-.4,6.541,1.52c-.238,5.94.477,11.89-.19,17.83a7.149,7.149,0,0,0,.117,3.552c2,4.331,1.312,9.01,1.868,13.5a14.727,14.727,0,0,0,4.331,9.4c1.491,6.358,9.64,8.866,15.545,7.1a32.249,32.249,0,0,0,3.361.044,2.66,2.66,0,0,0,2.754-2.318h0a8.675,8.675,0,0,0,3.433-4.871c2.968-3.561,2.714-7.868,2.517-12.037a92.578,92.578,0,0,1-.168-11.162c.169-2.308.519-4.7-.768-6.878v0l.1-.1c.013-1.526,1.052-3.132-.344-4.549,1.362-1.944,1.094-3.9.06-5.866.788-.44.8-.9.044-1.393a6.054,6.054,0,0,1,4.612-4.717,2.934,2.934,0,0,0,2.33.217c3.365.537,6.683,1.539,10.128.069.923-.394,2.24.208,3.379.237a2.54,2.54,0,0,0,2.271-1.536h0c2.593,1.495,5.5,1.515,8.354,1.726,2.045.151,3.206-.935,3.558-2.91.74.18,1.479.543,2.242.108a11.926,11.926,0,0,0,6.234-9.369C668.957,748.755,669.936,745.972,669.2,743.79Z" transform="translate(256.206 -860.197) rotate(49)" fill="#ff2600"/>
</svg>
