<svg xmlns="http://www.w3.org/2000/svg" width="92.534" height="71.214" viewBox="0 0 92.534 71.214">
  <path id="vector_ribbon" d="M191.188,753.627c-.337-.884-.424-1.86-.691-2.776-1.1-3.791-1.616-7.723-2.921-11.474-1.43-4.114-3.052-8.155-4.364-12.32-1.271-4.032-2.727-7.952-3.025-12.245a9.986,9.986,0,0,0-3.079-6.945,4.78,4.78,0,0,0-6.327-.44c-.982.722-1.855,1.59-2.778,2.392a2.773,2.773,0,0,0-1.761,2.263h0l.023.039h0l-.825.873h0a47.734,47.734,0,0,1-7.654,7.466,6.456,6.456,0,0,0-2.142,2.319,2.84,2.84,0,0,0-1.572,1.724,7.835,7.835,0,0,0-2.148,2.367,50.714,50.714,0,0,1-5.258,6.086c-.69.629-1.324,1.412-2.429.973-1.163-.461-2.2-1.053-2.291-2.5-.041-.67-.075-1.341-.112-2.012-.051-1.614-.016-3.237-.174-4.84a6.81,6.81,0,0,0-2.982-5.058,4.492,4.492,0,0,0-6.15.859,6.046,6.046,0,0,0-1.477,3.269h0a3.058,3.058,0,0,1-3.231-1.223c-1.122-1.36-2.206-2.755-3.371-4.077-1.993-2.26-4.336-3.666-7.53-2.977a3.545,3.545,0,0,1-3.711-1.155c-1.915-2.439-4.835-2.842-7.417-3.978-2.784-1.225-5.365,1.191-5.656,3.548a11.581,11.581,0,0,0,.579,4.416c1.629,6.161,2.592,12.51,5.224,18.387a7.372,7.372,0,0,1,.309,1.592c.907,4.659,1.731,9.337,2.749,13.972,1.074,4.891,1.978,9.866,4.962,14.1.6,1.9,1.146,3.817,1.822,5.689a30.175,30.175,0,0,0,1.651,3.63,4.161,4.161,0,0,0,2.9,1.951,2.183,2.183,0,0,0,2.529-.683h0l.045-.024a.975.975,0,0,0,.879-.722h0a4.715,4.715,0,0,0,2.149-2.382c.919-2.646,2.754-4.664,4.506-6.754,1.487-1.774,2.848-3.653,4.349-5.414a56.082,56.082,0,0,1,4.938-5.406,16.166,16.166,0,0,0,4.728-6.04,6.819,6.819,0,0,1,2.157-2.939,1.207,1.207,0,0,1,1.8,0,20.174,20.174,0,0,1,1.484,1.933,18.368,18.368,0,0,0,7.034,6.033c3.8,1.852,7.7,3.438,11.593,5.066,5.182,2.166,10.083,4.834,13.3,9.745a13.2,13.2,0,0,0,.984,1.306,5.221,5.221,0,0,0,8.639-.43,6.669,6.669,0,0,0,1.15-3.856C192.614,762.459,192.835,757.951,191.188,753.627Z" transform="translate(-100.084 -706.432)" fill="#6bab79"/>
</svg>
