<svg xmlns="http://www.w3.org/2000/svg" width="98" height="100.189" viewBox="0 0 98 100.189">
  <g id="그룹_855" data-name="그룹 855" transform="translate(-818.67 -346.776)">
    <g id="그룹_809" data-name="그룹 809" transform="translate(818.67 346.776)">
      <g id="그룹_804" data-name="그룹 804" transform="translate(26.943)">
        <path id="패스_6882" data-name="패스 6882" d="M864.948,347.3c-15.724,4.135-19.44,30.008,13.2,50.211C896.635,363.864,880.673,343.164,864.948,347.3Z" transform="translate(-853.234 -346.776)" fill="#de5273"/>
        <line id="선_90" data-name="선 90" x1="9.519" y1="36.203" transform="translate(15.397 14.532)" fill="none" stroke="#1e4852" stroke-linecap="round" stroke-linejoin="round" stroke-width="3.27"/>
      </g>
      <g id="그룹_805" data-name="그룹 805" transform="translate(0 32.605)">
        <path id="패스_6883" data-name="패스 6883" d="M818.7,403.772c-.927,16.233,22.532,27.763,51.833,2.96C844.242,378.755,819.623,387.54,818.7,403.772Z" transform="translate(-818.67 -388.603)" fill="#de5273"/>
        <line id="선_91" data-name="선 91" x1="37.373" y1="2.134" transform="translate(14.487 15.995)" fill="none" stroke="#1e4852" stroke-linecap="round" stroke-linejoin="round" stroke-width="3.27"/>
      </g>
      <g id="그룹_806" data-name="그룹 806" transform="translate(23.106 50.735)">
        <path id="패스_6884" data-name="패스 6884" d="M858.233,460.242c15.152,5.9,33.367-12.85,18.832-48.382C842.334,428.216,843.081,454.345,858.233,460.242Z" transform="translate(-848.312 -411.86)" fill="#de5273"/>
        <line id="선_92" data-name="선 92" x1="13.578" y2="34.884" transform="translate(15.175 0)" fill="none" stroke="#1e4852" stroke-linecap="round" stroke-linejoin="round" stroke-width="3.27"/>
      </g>
      <g id="그룹_807" data-name="그룹 807" transform="translate(51.86 50.495)">
        <path id="패스_6885" data-name="패스 6885" d="M925.392,444.654c10.291-12.588-1.91-35.7-40.194-32.861C890.021,449.878,915.1,457.241,925.392,444.654Z" transform="translate(-885.198 -411.552)" fill="#de5273"/>
        <line id="선_93" data-name="선 93" x2="28.981" y2="23.694" transform="translate(0 0.24)" fill="none" stroke="#1e4852" stroke-linecap="round" stroke-linejoin="round" stroke-width="3.27"/>
      </g>
      <g id="그룹_808" data-name="그룹 808" transform="translate(51.86 15.574)">
        <path id="패스_6886" data-name="패스 6886" d="M928.872,373.842c-8.791-13.677-34.548-9.216-43.674,28.073C922.91,409.1,937.664,387.52,928.872,373.842Z" transform="translate(-885.198 -366.755)" fill="#de5273"/>
        <line id="선_94" data-name="선 94" y1="20.241" x2="31.489" transform="translate(0 14.919)" fill="none" stroke="#1e4852" stroke-linecap="round" stroke-linejoin="round" stroke-width="3.27"/>
      </g>
    </g>
    <circle id="타원_226" data-name="타원 226" cx="18.717" cy="18.717" r="18.717" transform="matrix(0.576, -0.818, 0.818, 0.576, 844.451, 402.041)" fill="#ffecde"/>
  </g>
</svg>
