<svg xmlns="http://www.w3.org/2000/svg" width="132" height="132" viewBox="0 0 132 132">
  <g id="그룹_1338" data-name="그룹 1338" transform="translate(-653 -2244)">
    <path id="icon" d="M66,0A66,66,0,1,1,0,66,66,66,0,0,1,66,0Z" transform="translate(653 2244)" fill="#278e2a"/>
    <g id="그룹_673" data-name="그룹 673" transform="translate(-2230.638 -3544.698)">
      <g id="그룹_670" data-name="그룹 670">
        <path id="패스_4559" data-name="패스 4559" d="M2985.992,5827.306c-.258-.727-1.2-.275-1.85-.261-7.959-.03-15.919-.044-23.878-.1-1.23-.009-1.134.742-1.109,1.384,0,1.639-.1,1.911,1.166,1.944q12.435-.014,24.87-.008c.3,0,.793.122.83-.255A6.5,6.5,0,0,0,2985.992,5827.306Z" fill="#fefefe"/>
        <g id="그룹_668" data-name="그룹 668">
          <path id="패스_4560" data-name="패스 4560" d="M2979.435,5839.592c-.32-1.557-1.322-2.175-3.035-1.964a2.153,2.153,0,0,0-1.947,2.459c.01,1.336-.076,2.677.025,4,.087,1.155-.344,1.553-1.437,1.387-.368-.055-.741-.071-1.111-.1q.006-4.137.01-8.275c0-1.348-.455-2.375-1.951-2.617-2.024-.3-3.005.508-3.093,2.737-.079,2.03-.019,4.065-.02,6.1,0,2.284,0,2.284-2.381,2.069,0-3.591.06-7.183.032-10.772-.014-1.765.318-1.906-1.939-1.889-.531-.028-2.308.043-2.85.043-.441,0-.447.254-.4,1.606.111,3.2-.04,6.4.072,9.6.046,1.33-.432,1.677-1.6,1.5-.315-.047-.632-.084-.948-.125q.009-12.863.011-25.724c0-2.017-1.327-2.893-3.3-2.251h0c-1.62.415-1.7,1.689-1.7,3.022.006,9.166-.227,18.341.127,27.494.143,3.71-.916,5.954-4.253,7.253a.467.467,0,0,0-.129.1c-.821.734-1.124.116-1.523-.516-.409-.65-.791-1.227.244-1.581,2.817-.963,3.544-3.018,3.067-5.736a4.688,4.688,0,0,1-.006-.8c0-2.7-.587-3.092-3.285-2.272a4.593,4.593,0,0,0-2.115,1.383c-1.182,1.315-2.335,2.658-3.551,3.941a4.7,4.7,0,0,0-1.359,3.468c.042,4.074.049,8.148,0,12.221a5.842,5.842,0,0,0,1.136,3.581c2.763,3.942,5.468,7.925,8.23,11.867a3.352,3.352,0,0,1,.642,2.069c-.021,2.839.02,5.679.037,8.519-.106,2.04-.106,2.041,1.961,2.041h22.61l.058-.034h5.758c0-.173,0-.347,0-.52q.015-25.683.027-51.365A9.524,9.524,0,0,0,2979.435,5839.592Zm-19.471,11.5c1.261-.173.953.7,1.036,1.391.15,1.255-.705,1-1.457,1-1.167.216-.978-.622-1.038-1.37C2958.4,5850.857,2959.276,5851.189,2959.964,5851.1Zm4.66-.019c.978-.025,1.4.245,1.156,1.249.288,1.081-.3,1.182-1.2,1.2-.952.016-1.264-.253-1.277-1.241C2963.294,5851.226,2963.729,5851.1,2964.624,5851.076Zm4.82,0c.964-.018,1.412.226,1.162,1.241.281,1.07-.282,1.2-1.19,1.205-.943.009-1.273-.239-1.283-1.236C2968.123,5851.241,2968.539,5851.092,2969.444,5851.076Z" fill="#f7bda5"/>
          <path id="패스_4561" data-name="패스 4561" d="M2961.295,5824.493c.738-.017,1.5-.064,2.239-.007.8.061.989-.291.97-1.026-.044-1.654.045-3.314-.034-4.965-.064-1.339-.613-2.374-2.194-2.388-1.976-.032-2.84.726-2.892,2.636-.034,1.263.025,2.529.043,3.793C2959.373,5824.2,2958.91,5824.549,2961.295,5824.493Z" fill="#f7bda5"/>
        </g>
        <path id="패스_4562" data-name="패스 4562" d="M2947.458,5827.064c-1.976-.022-3.953-.082-5.927-.087-1.682,0-1.155.454-1.271,1.373v1.916h1.156q3.532,0,7.066-.009c.354,0,.932.091.9-.445C2949.192,5826.917,2950.224,5827.059,2947.458,5827.064Z" fill="#c46537"/>
        <g id="그룹_669" data-name="그룹 669">
          <path id="패스_4563" data-name="패스 4563" d="M2988.523,5831.153a48.164,48.164,0,0,1,0-5.3c.063-1.156-.343-1.408-1.441-1.4-6.272.052-12.545,0-18.816.05-1.1.01-1.505-.249-1.429-1.4.1-1.548.014-3.108.024-4.662a4.512,4.512,0,0,0-2.947-4.532,4.83,4.83,0,0,0-5.486,1.049,1.165,1.165,0,0,1-1.671.265,5.033,5.033,0,0,0-7.353,4.581c-.02,1.18-.06,2.363.015,3.537.057.9-.219,1.179-1.141,1.162-3.055-.058-6.112.018-9.166-.045-.994-.02-1.3.262-1.258,1.26.078,1.927.074,3.861,0,5.788-.037,1,.294,1.288,1.276,1.269,3-.056,6,.011,9.006-.039.908-.015,1.337.107,1.291,1.186-.1,2.194-.085,4.4,0,6.592.038,1.024-.3,1.3-1.271,1.225a7.243,7.243,0,0,0-6.468,2.855c-.988,1.2-2.041,2.346-3.1,3.479a6.853,6.853,0,0,0-1.906,4.948c.029,4.235.015,8.47.006,12.705a7.225,7.225,0,0,0,1.369,4.345c2.594,3.666,5.087,7.4,7.685,11.067a4.937,4.937,0,0,1,.951,3.118c-.055,3.43.036,6.863-.05,10.292-.029,1.171.354,1.379,1.433,1.374,7.13-.033,14.261-.029,21.392-.029l-.058.034h12.509V5893.5q.007-26.462.01-52.923c0-4.18-2.965-6.361-6.947-5.161-.3.09-.647.533-.829-.172a9.012,9.012,0,0,0-1.558-2.5c4.931,0,9.647-.054,14.36.034C2988.276,5832.808,2988.59,5832.381,2988.523,5831.153Zm-39.144-1.341c.035.536-.543.443-.9.445q-3.532.014-7.066.009h-1.156v-1.916c.116-.919-.411-1.377,1.271-1.373,1.974,0,3.951.065,5.927.087C2950.224,5827.059,2949.192,5826.917,2949.379,5829.812Zm10.005-11.069c.052-1.91.916-2.668,2.892-2.636,1.581.014,2.13,1.049,2.194,2.388.079,1.651-.01,3.311.034,4.965.019.735-.167,1.087-.97,1.026-.743-.057-1.5-.01-2.239.007-2.385.056-1.922-.294-1.868-1.957C2959.409,5821.272,2959.35,5820.006,2959.384,5818.743Zm13.657,26.736c1.093.166,1.524-.232,1.437-1.387-.1-1.328-.015-2.669-.025-4a2.153,2.153,0,0,1,1.947-2.459c1.713-.211,2.715.407,3.035,1.964a9.524,9.524,0,0,1,.113,1.913q-.008,25.682-.027,51.365c0,.173,0,.347,0,.52h-5.758l-.058.034h-22.61c-2.067,0-2.067,0-1.961-2.041-.017-2.84-.058-5.68-.037-8.519a3.352,3.352,0,0,0-.642-2.069c-2.762-3.942-5.467-7.925-8.23-11.867a5.842,5.842,0,0,1-1.136-3.581c.053-4.073.046-8.147,0-12.221a4.7,4.7,0,0,1,1.359-3.468c1.216-1.283,2.369-2.626,3.551-3.941a4.593,4.593,0,0,1,2.115-1.383c2.7-.82,3.284-.43,3.285,2.272a4.688,4.688,0,0,0,.006.8c.477,2.718-.25,4.773-3.067,5.736-1.035.354-.653.931-.244,1.581.4.632.7,1.25,1.523.516a.467.467,0,0,1,.129-.1c3.337-1.3,4.4-3.543,4.253-7.253-.354-9.153-.121-18.328-.127-27.494,0-1.333.08-2.607,1.7-3.022h0c1.968-.642,3.293.234,3.3,2.251q.015,12.861-.011,25.724c.316.041.633.078.948.125,1.171.176,1.649-.171,1.6-1.5-.112-3.2.039-6.4-.072-9.6-.047-1.352-.041-1.606.4-1.606.542,0,2.319-.071,2.85-.043,2.257-.017,1.925.124,1.939,1.889.028,3.589-.034,7.181-.032,10.772,2.38.215,2.38.215,2.381-2.069,0-2.033-.059-4.068.02-6.1.088-2.229,1.069-3.041,3.093-2.737,1.5.242,1.949,1.269,1.951,2.617q0,4.138-.01,8.275C2972.3,5845.408,2972.673,5845.424,2973.041,5845.479Zm12.98-15.474c-.037.377-.528.255-.83.255q-12.435.008-24.87.008c-1.265-.033-1.166-.305-1.166-1.944-.025-.642-.121-1.393,1.109-1.384,7.959.061,15.919.075,23.878.1.65-.014,1.592-.466,1.85.261A6.5,6.5,0,0,1,2986.021,5830Z" fill="#080505"/>
          <path id="패스_4564" data-name="패스 4564" d="M2959.964,5851.1c-.688.094-1.561-.238-1.459,1.019.06.748-.129,1.586,1.038,1.37.752,0,1.607.257,1.457-1C2960.917,5851.791,2961.225,5850.922,2959.964,5851.1Z" fill="#080505"/>
          <path id="패스_4565" data-name="패스 4565" d="M2964.624,5851.076c-.9.022-1.33.15-1.316,1.2.013.988.325,1.257,1.277,1.241.9-.014,1.483-.115,1.2-1.2C2966.023,5851.321,2965.6,5851.051,2964.624,5851.076Z" fill="#080505"/>
          <path id="패스_4566" data-name="패스 4566" d="M2969.444,5851.076c-.905.016-1.321.165-1.311,1.21.01,1,.34,1.245,1.283,1.236.908-.009,1.471-.135,1.19-1.205C2970.856,5851.3,2970.408,5851.058,2969.444,5851.076Z" fill="#080505"/>
        </g>
      </g>
      <g id="그룹_672" data-name="그룹 672">
        <path id="패스_4567" data-name="패스 4567" d="M2939.972,5864.311c.388-4.911,1.086-9.8,1.1-14.739a4.324,4.324,0,0,0-2.674-4.347,2.5,2.5,0,0,1-1.6-2.152c-.988-6.066-2.046-12.121-3.069-18.182-.053-.309-.142-.814.008-.924,1.364-1,.855-2.43.872-3.7a3.816,3.816,0,0,0-4.066-4.139c-1.876-.017-3.761.109-5.628-.026-4.355-.314-6.092,1.463-5.739,5.9.048.6-.027,1.214.567,1.572.55.332.428.814.35,1.279-1.035,6.114-2.1,12.222-3.1,18.341a2.377,2.377,0,0,1-1.55,2.008,4.24,4.24,0,0,0-2.69,4.332c.054,1.5.061,3,.194,4.494.757,8.534,1.548,17.065,2.315,25.6a2.923,2.923,0,0,1-.1,1.1,30.459,30.459,0,0,0-1.133,9.841,5.155,5.155,0,0,0,5.38,5.331c2.466.015,4.932,0,7.4,0,2.627,0,5.255.029,7.881-.008a5.029,5.029,0,0,0,5.048-4.65,25.87,25.87,0,0,0-.185-6.1c-.352-1.828-1.044-3.681-.944-5.488C2938.891,5874.54,2939.567,5869.434,2939.972,5864.311Zm-17.049-45.57a9.265,9.265,0,0,1,1.729.011c1.914-.017,3.828-.03,5.742-.054a1.445,1.445,0,0,1,1.664,1.5c.065.786-.129,1.131-1.022,1.1-2.231-.081-4.466-.056-6.7-.073a8.645,8.645,0,0,1-1.259.041c-.531-.058-1.345.376-1.336-.753C2921.749,5819.621,2921.972,5818.907,2922.923,5818.741Zm14.243,72a2.631,2.631,0,0,1-2.9,2.586c-4.277.021-8.555-.016-12.832-.03h0c-4.3.181-4.815-.333-4.838-4.618a15.538,15.538,0,0,1,.689-5.531c1.033-2.771.358-5.5.147-8.231-.169-2.178-.343-2.168,1.766-2.165.642,0,1.284.027,1.926.041,4.758-.014,9.517,0,14.275-.063,1.115-.014,1.219.5,1.107,1.381-.222,1.743-.443,3.49-.577,5.242-.176,2.327.947,4.453,1.119,6.75A40.618,40.618,0,0,1,2937.166,5890.737Zm.455-29.543c-.321,2.654-.535,5.324-.713,7.993-.05.741-.219,1.009-1,1-5.035-.05-10.071-.051-15.106-.069-3.932.206-3.927.206-4.182-3.609a48.536,48.536,0,0,0-.4-4.926,2.222,2.222,0,0,1,1.266-2.593c.782-.44,1.569-.871,2.354-1.307,5.973-2.78,11.6-2.066,16.956,1.637A1.739,1.739,0,0,1,2937.621,5861.194Zm.868-11.1c-.156,2.183-.267,4.37-.4,6.641a2.094,2.094,0,0,1-.638-.139,18.842,18.842,0,0,0-17.466-1.88,2.527,2.527,0,0,1-.474.082h0c-1.16.642-2.525,2-3.426,1.74-1.4-.4-.751-6.157-.74-7.237a1.645,1.645,0,0,1,1.05-1.657c2.359-.834,3.052-2.749,3.41-4.967.939-5.815,1.994-11.613,2.843-17.442.186-1.273.66-1.483,1.711-1.4.743.062,1.494.039,2.241.053,1.337,0,2.9-.422,3.95.127,1.15.6.748,2.377.974,3.638.969,5.4,1.869,10.817,2.763,16.232a4.142,4.142,0,0,0,2.541,3.438A2.465,2.465,0,0,1,2938.489,5850.092Z" fill="#080304"/>
        <g id="그룹_671" data-name="그룹 671">
          <path id="패스_4568" data-name="패스 4568" d="M2936.825,5847.326a4.142,4.142,0,0,1-2.541-3.438c-.894-5.415-1.794-10.83-2.763-16.232-.226-1.261.176-3.04-.974-3.638-1.053-.549-2.613-.123-3.95-.127-.747-.014-1.5.009-2.241-.053-1.051-.088-1.525.122-1.711,1.4-.849,5.829-1.9,11.627-2.843,17.442-.358,2.218-1.051,4.133-3.41,4.967a1.645,1.645,0,0,0-1.05,1.657c-.011,1.08-.657,6.833.74,7.237.9.259,2.266-1.1,3.426-1.74h0a2.527,2.527,0,0,0,.474-.082,18.842,18.842,0,0,1,17.466,1.88,2.094,2.094,0,0,0,.638.139c.136-2.271.247-4.458.4-6.641A2.465,2.465,0,0,0,2936.825,5847.326Z" fill="#712b18"/>
          <path id="패스_4569" data-name="패스 4569" d="M2935.933,5879.35c.134-1.752.355-3.5.577-5.242.112-.885.008-1.4-1.107-1.381-4.758.062-9.517.049-14.275.063-.642-.014-1.284-.04-1.926-.041-2.109,0-1.935-.013-1.766,2.165.211,2.728.886,5.46-.147,8.231a15.538,15.538,0,0,0-.689,5.531c.023,4.285.542,4.8,4.838,4.618h0c4.277.014,8.555.051,12.832.03a2.631,2.631,0,0,0,2.9-2.586,40.618,40.618,0,0,0-.114-4.637C2936.88,5883.8,2935.757,5881.677,2935.933,5879.35Z" fill="#712b18"/>
        </g>
        <path id="패스_4570" data-name="패스 4570" d="M2936.788,5859.322c-5.351-3.7-10.983-4.417-16.956-1.637-.785.436-1.572.867-2.354,1.307a2.222,2.222,0,0,0-1.266,2.593,48.536,48.536,0,0,1,.4,4.926c.255,3.815.25,3.815,4.182,3.609,5.035.018,10.071.019,15.106.069.785.007.954-.261,1-1,.178-2.669.392-5.339.713-7.993A1.739,1.739,0,0,0,2936.788,5859.322Z" fill="#dc9e2e"/>
        <path id="패스_4571" data-name="패스 4571" d="M2923.078,5821.262a8.645,8.645,0,0,0,1.259-.041c2.233.017,4.468-.008,6.7.073.893.032,1.087-.313,1.022-1.1a1.445,1.445,0,0,0-1.664-1.5c-1.914.024-3.828.037-5.742.054a9.265,9.265,0,0,0-1.729-.011c-.951.166-1.174.88-1.181,1.768C2921.733,5821.638,2922.547,5821.2,2923.078,5821.262Z" fill="#dc9e2e"/>
        <path id="패스_4572" data-name="패스 4572" d="M2958.946,5868.86c-.375,0-1.056.549-1.179-.245a1.56,1.56,0,0,1,.574-1.682c3.4-2.6,3.107-6.2-.586-8.38-3.047-1.8-6.446-2.175-9.851-2.476-3.36-.3-6.677-.157-9.362,2.29a5.372,5.372,0,0,1-3.555,1.553,5.625,5.625,0,0,0-5.065,4.435c-.555,2.184.23,3.988,2.479,5.348a1.326,1.326,0,0,1,.644,1.121c1.165,5.9.424,11.726-.567,17.548a4.867,4.867,0,0,0,3.366,5.933,28.222,28.222,0,0,0,18.68.03c2.78-1.036,4-3.006,3.436-5.863-.186-.945.062-1.277.852-1.685a12.645,12.645,0,0,0,6.938-9.807C2966.465,5872.412,2963.4,5868.809,2958.946,5868.86Zm-3.843,22.083a3.33,3.33,0,0,1-2.366,1.165,23.447,23.447,0,0,1-16.244-.363,2.674,2.674,0,0,1-1.045-.7,1.545,1.545,0,0,1-.422-1.763c.354-.576.933-.005,1.4.121,1.222.33,2.439.673,3.658,1.01a30.833,30.833,0,0,0,13.987-1.021c.446-.136.993-.733,1.371-.094A1.532,1.532,0,0,1,2955.1,5890.943Zm-19.357-19.644c-.132-.861-.1-1.363.779-1.737a4.872,4.872,0,0,0,1.985-2.165c.657,1.945-.051,3.734.508,5.38a3.9,3.9,0,0,0,4.065,2.518c.769-.066.9.226.867.879a14.277,14.277,0,0,0,.007,2.089,3.948,3.948,0,0,0,3.939,3.49,3.839,3.839,0,0,0,3.753-3.653c.059-1.713.068-3.432-.006-5.144-.047-1.083.141-1.817,1.356-2.091a8.089,8.089,0,0,0,1.834-1.009c-.1,1.077-.164,2.042-.3,3a37.086,37.086,0,0,0,.309,11.829,1.545,1.545,0,0,1-1.263,2.079,25.257,25.257,0,0,1-16.063.1h0c-2.191-.567-2.174-.564-1.814-2.637A39.883,39.883,0,0,0,2935.746,5871.3Zm18.007-4.553a3.329,3.329,0,0,1-3,2.1c-1.37.08-1.691.774-1.674,1.983.032,2.353-.021,4.707-.039,7.061-.068.908-.6,1.387-1.458,1.227a1.361,1.361,0,0,1-1.066-1.559q.027-.636.054-1.27c-.017-1.429-.059-2.857-.04-4.285.011-.8-.068-1.552-.955-1.771-.962-.237-1.478.325-1.683,1.224-.068.907-.6,1.388-1.457,1.227a1.364,1.364,0,0,1-1.066-1.56q.027-.635.054-1.269l-.08-2.844a3.377,3.377,0,0,0-3.187-2.03,4.31,4.31,0,0,0-2.194,1.364,1.58,1.58,0,0,1-2.362,1.053,1.784,1.784,0,0,1-.959-2.7,2.77,2.77,0,0,1,2.921-2.221,6.43,6.43,0,0,0,4.308-1.825,7.347,7.347,0,0,1,5.386-2.059,30.9,30.9,0,0,1,9.009,1.235,10.543,10.543,0,0,1,2.854,1.413,1.936,1.936,0,0,1,.9,2.218,1.866,1.866,0,0,1-1.845,1.522C2954.781,5864.893,2954.226,5865.557,2953.753,5866.746Zm3.059,12.517c0-1.241-.034-2.1.017-2.945.021-.344-.271-.988.455-.944a.888.888,0,0,1,.814,1.011A4.165,4.165,0,0,1,2956.812,5879.263Zm.786,5.067a1.89,1.89,0,0,1,.678-2.918,5.907,5.907,0,0,0,2.289-3.747,3.816,3.816,0,0,0-2.561-4.847c-.27-.1-.743.07-.775-.36s.385-.555.742-.706a3.917,3.917,0,0,1,5.26,3.327C2963.624,5878.6,2960.964,5882.974,2957.6,5884.33Z" fill="#080304"/>
        <path id="패스_4573" data-name="패스 4573" d="M2954.537,5872.854c.132-.956.192-1.921.3-3a8.089,8.089,0,0,1-1.834,1.009c-1.215.274-1.4,1.008-1.356,2.091.074,1.712.065,3.431.006,5.144a3.839,3.839,0,0,1-3.753,3.653,3.948,3.948,0,0,1-3.939-3.49,14.277,14.277,0,0,1-.007-2.089c.037-.653-.1-.945-.867-.879a3.9,3.9,0,0,1-4.065-2.518c-.559-1.646.149-3.435-.508-5.38a4.872,4.872,0,0,1-1.985,2.165c-.881.374-.911.876-.779,1.737a39.883,39.883,0,0,1-.041,12.927c-.36,2.073-.377,2.07,1.814,2.637h0a25.257,25.257,0,0,0,16.063-.1,1.545,1.545,0,0,0,1.263-2.079A37.086,37.086,0,0,1,2954.537,5872.854Z" fill="#dc9e2e"/>
        <path id="패스_4574" data-name="패스 4574" d="M2963.231,5875.079a3.917,3.917,0,0,0-5.26-3.327c-.357.151-.775.264-.742.706s.5.258.775.36a3.816,3.816,0,0,1,2.561,4.847,5.907,5.907,0,0,1-2.289,3.747,1.89,1.89,0,0,0-.678,2.918C2960.964,5882.974,2963.624,5878.6,2963.231,5875.079Z" fill="#dc9e2e"/>
        <path id="패스_4575" data-name="패스 4575" d="M2955.445,5889.3c-.378-.639-.925-.042-1.371.094a30.833,30.833,0,0,1-13.987,1.021c-1.219-.337-2.436-.68-3.658-1.01-.47-.126-1.049-.7-1.4-.121a1.545,1.545,0,0,0,.422,1.763,2.674,2.674,0,0,0,1.045.7,23.447,23.447,0,0,0,16.244.363,3.33,3.33,0,0,0,2.366-1.165A1.532,1.532,0,0,0,2955.445,5889.3Z" fill="#bcbcbb"/>
        <path id="패스_4576" data-name="패스 4576" d="M2957.114,5861.235a10.543,10.543,0,0,0-2.854-1.413,30.9,30.9,0,0,0-9.009-1.235,7.347,7.347,0,0,0-5.386,2.059,6.43,6.43,0,0,1-4.308,1.825,2.77,2.77,0,0,0-2.921,2.221,1.784,1.784,0,0,0,.959,2.7,1.58,1.58,0,0,0,2.362-1.053,4.31,4.31,0,0,1,2.194-1.364,3.377,3.377,0,0,1,3.187,2.03h0l.08,2.843q-.027.634-.054,1.269a1.364,1.364,0,0,0,1.066,1.56c.857.161,1.389-.32,1.457-1.227.205-.9.721-1.461,1.683-1.224.887.219.966.974.955,1.771-.019,1.428.023,2.856.04,4.285q-.027.634-.054,1.27a1.361,1.361,0,0,0,1.066,1.559c.856.16,1.39-.319,1.458-1.227.018-2.354.071-4.708.039-7.061-.017-1.209.3-1.9,1.674-1.983a3.329,3.329,0,0,0,3-2.1c.473-1.189,1.028-1.853,2.419-1.771a1.866,1.866,0,0,0,1.845-1.522A1.936,1.936,0,0,0,2957.114,5861.235Z" fill="#f5cea0"/>
      </g>
    </g>
  </g>
</svg>
