<svg xmlns="http://www.w3.org/2000/svg" width="132" height="132" viewBox="0 0 132 132">
  <g id="그룹_1340" data-name="그룹 1340" transform="translate(-1136 -2244)">
    <path id="icon" d="M66,0A66,66,0,1,1,0,66,66,66,0,0,1,66,0Z" transform="translate(1136 2244)" fill="#ffc400"/>
    <g id="그룹_679" data-name="그룹 679" transform="translate(-2004.276 -3544.698)">
      <path id="패스_4622" data-name="패스 4622" d="M3244.323,5839.994a3.091,3.091,0,0,0-3.022-2.863c-1.787-.215-2.5-1.158-2.243-2.822a7.1,7.1,0,0,0-7.69-8.46c-.871.046-1.744.06-2.616.088-.438-.374-.951-.7-1.06-1.324a15.782,15.782,0,0,0-1.769-5.408c-.378-.641-.027-1.226.373-1.753-.555-1.078-1.949-1.523-2.163-2.86h0c-.678,1.122-1.469,1.222-2.6.521a16.931,16.931,0,0,0-7.548-2.5c-8.711-.809-16.143,1.648-21.8,8.581-1,1.228-2.075,1.112-3.425.585a7.22,7.22,0,0,0-9.869,5.473c-.48,2.726-.63,2.854-3.354,2.865-4.326.019-7.352,2.752-7.428,6.709-.075,3.925,3.079,6.873,7.443,6.9,4.154.028,8.31-.032,12.464.033a2.167,2.167,0,0,0,2.268-1.328c3.419-6.146,8.661-9.573,15.75-9.624,7.229-.053,12.6,3.328,16.1,9.629a2.073,2.073,0,0,0,2.11,1.328c5.325-.069,10.651-.03,15.976-.032a3.314,3.314,0,0,0,1.877-.3A2.9,2.9,0,0,0,3244.323,5839.994Z" fill="#b8e2f4"/>
      <path id="패스_4623" data-name="패스 4623" d="M3225.257,5871.571a5.1,5.1,0,0,0-4.589-4.5c-1.167-.372-1.416.44-1.817,1.27-2.44,5.061-6.457,7.96-12.108,8.125-5.943.174-10.271-2.6-12.97-7.889-.885-1.732-1.609-2.042-3.349-1.193a5.313,5.313,0,0,0-3.173,4.123,25.554,25.554,0,0,0-.2,3.144c-.02.987-.453,1.527-1.454,1.58h0a10.363,10.363,0,0,1,.185,3.4h0a1.772,1.772,0,0,1,1.274,1.5c.124.936-.56,2.22.426,2.733.79.411,1.94.132,2.93.152.409.009.823-.038,1.227.01,1.092.129,1.646-.194,1.522-1.426-.088-.877-.07-1.883,1.212-1.9,1.357-.016,1.354.98,1.351,1.968-.01,4.269.036,8.538-.029,12.806-.017,1.169.221,1.615,1.509,1.6q9.033-.1,18.069,0c1.255.014,1.55-.378,1.532-1.577-.069-4.385-.017-8.771-.033-13.156,0-.948.252-1.636,1.331-1.647,1.024-.01,1.353.716,1.228,1.531-.271,1.752.674,1.954,2.031,1.8.577-.066,1.161-.073,1.742-.107.829-.127,2.276.889,2.3-.8A83.445,83.445,0,0,0,3225.257,5871.571Z" fill="#25b0dc"/>
      <path id="패스_4624" data-name="패스 4624" d="M3221.35,5848.328c-1.026-5.394-3.914-9.4-9.122-11.53a.936.936,0,0,0-.14-.1c-8.466-4.056-20.418,1.62-21.263,13.32-.06.826.227,1.163,1.082,1.136,1.58-.048,3.166.066,4.74-.039a11.116,11.116,0,0,0,8.106-3.967c1.244-1.475,1.727-1.453,3-.013a10.1,10.1,0,0,0,6.889,3.748c1.407.607,2.886.267,4.327.28C3221.756,5851.183,3221.879,5851.11,3221.35,5848.328Z" fill="#333034"/>
      <g id="그룹_677" data-name="그룹 677">
        <path id="패스_4625" data-name="패스 4625" d="M3216.188,5853.712a12.79,12.79,0,0,1-9.108-3.444c-.568-.5-.931-.666-1.584-.071a12.775,12.775,0,0,1-9.252,3.519c-.926-.028-1.217.292-1.2,1.208.051,2.693-.061,5.39.041,8.08a11.153,11.153,0,0,0,22.154,1.489,41.823,41.823,0,0,0,.208-5.142c0-1.634-.053-2.983.018-4.327C3217.516,5854.043,3217.208,5853.681,3216.188,5853.712Zm-15.617,6.993a3.129,3.129,0,0,1-1.938-.489,1.3,1.3,0,0,1-.713-1.749,1.2,1.2,0,0,1,1.7-.719,1.831,1.831,0,0,0,1.667.093,1.272,1.272,0,0,1,1.977.712c.372.986-.327,1.46-1.119,1.842A3.245,3.245,0,0,1,3200.571,5860.705Zm9.344,6.382a1.217,1.217,0,0,1-1.822.413,3.257,3.257,0,0,0-3.634-.025,1.255,1.255,0,0,1-1.936-.488,1.3,1.3,0,0,1,.576-1.807,5.655,5.655,0,0,1,2.575-.976,6.129,6.129,0,0,1,3.689.95A1.3,1.3,0,0,1,3209.915,5867.087Zm4.58-7.437c-.842,1.408-4.21,1.419-5.11.017a5.008,5.008,0,0,1-.291-.622c.2-.921.667-1.629,1.648-1.35a3.021,3.021,0,0,0,2.331-.01c.542-.262,1.015.077,1.359.5A1.2,1.2,0,0,1,3214.5,5859.65Z" fill="#fad1c2"/>
        <path id="패스_4626" data-name="패스 4626" d="M3192.8,5886.963c-.874-.936-2.987-.194-4.549-.271-.058,0-.118.007-.175,0-.764-.1-1.012.248-1,1,.03,2.743.012,5.485.012,8.228,0,.54-.021,1.115.757,1.089,1.683-.056,3.625.584,4.964-.269.946-.6.2-2.507.315-3.825.03-.347.005-.7.005-1.428C3192.954,5890.188,3193.825,5888.065,3192.8,5886.963Z" fill="#fad1c2"/>
        <path id="패스_4627" data-name="패스 4627" d="M3223.115,5886.749c-.755-.019-1.516.015-2.264-.07-1.1-.124-1.556.208-1.49,1.41.1,1.857.027,3.724.027,5.587,0,3.58,0,3.58,3.744,3.238,2.289.188,2.29.188,2.291-2.054q0-2.952,0-5.9C3225.423,5886.625,3225.423,5886.625,3223.115,5886.749Z" fill="#fad1c2"/>
        <path id="패스_4628" data-name="패스 4628" d="M3220.343,5864.229a1.987,1.987,0,0,0,2.273-.888,2.548,2.548,0,0,0-.058-3.352,2.035,2.035,0,0,0-2.117-.9c-.757.245-.295,1.119-.391,1.708a5.825,5.825,0,0,0-.011.869,4.182,4.182,0,0,0,.008.868C3220.167,5863.108,3219.6,5863.959,3220.343,5864.229Z" fill="#fad1c2"/>
        <path id="패스_4629" data-name="패스 4629" d="M3192.093,5864.268c.857-.259.227-1.1.367-1.655a3.528,3.528,0,0,0,.009-.867,3.34,3.34,0,0,0-.01-.694c-.154-.677.488-1.756-.475-1.969a2.195,2.195,0,0,0-2.365,1.411,2.57,2.57,0,0,0,.442,3.049A2.009,2.009,0,0,0,3192.093,5864.268Z" fill="#fad1c2"/>
      </g>
      <g id="그룹_678" data-name="그룹 678">
        <path id="패스_4630" data-name="패스 4630" d="M3243.038,5834.826c-1.146-.324-1.256-.787-1.252-1.777a9.738,9.738,0,0,0-7.224-9.608c-1.432-.37-3.29.238-4.211-.479-1.014-.79-.906-2.773-1.621-4.129a4.989,4.989,0,0,0-.574-.9h0s-3.239-4.124-5.381-5.209h0c-.2-.112-.416-.218-.619-.33-9.513-5.226-23.33-2.643-30.951,5.821a2.013,2.013,0,0,1-2.48.747,9.727,9.727,0,0,0-12.213,7.013c-.3,1.266-.749,1.512-1.919,1.572a9.259,9.259,0,0,0-9.1,9.914,9.353,9.353,0,0,0,9.5,8.839c3.863.041,7.728.067,11.59-.018,1.5-.033,2.494,0,1.806,1.952a7.989,7.989,0,0,0-.153,2.443c-.043,2.5.4,2.966,2.9,3.036.72.021,1.437-.1,1.357,1.025-.063.87.148,1.595-1.237,1.75a5.15,5.15,0,0,0-3.67,8.159c.519.78.446,1.079-.234,1.638-2.79,2.3-3.116,5.453-2.883,8.765l-.024,6.315q-.011.183-.009.378c.04,4.978.012,9.957.02,14.935,0,2.272.756,3.013,3.052,3.013q18.712.007,37.425,0c2.386,0,3.118-.73,3.12-3.123.005-7.672-.05-15.346.028-23.017a8.945,8.945,0,0,0-3.123-7.462c-.359-.3-.636-.479-.288-1.105,2.441-4.382,1.054-7.449-3.883-8.559-1.162-.261-.643-1.04-.744-1.632-.116-.679.1-1.023.918-1.1,3.285-.3,3.448-.53,3.277-3.844a6.437,6.437,0,0,0-.188-1.913c-.611-1.6.209-1.659,1.458-1.649q7.818.067,15.637,0a5.886,5.886,0,0,0,1.893-11.474Zm-53.419,25.668a2.195,2.195,0,0,1,2.365-1.411c.963.213.321,1.292.475,1.969a3.34,3.34,0,0,1,.01.694,3.528,3.528,0,0,1-.009.867c-.14.56.49,1.4-.367,1.655a2.009,2.009,0,0,1-2.032-.725A2.57,2.57,0,0,1,3189.619,5860.494Zm3.5,30.988c0,.728.025,1.081-.005,1.428-.113,1.318.631,3.222-.315,3.825-1.339.853-3.281.213-4.964.269-.778.026-.757-.549-.757-1.089,0-2.743.018-5.485-.012-8.228-.008-.748.24-1.094,1-1,.057.008.117,0,.175,0,1.562.077,3.675-.665,4.549.271C3193.825,5888.065,3192.954,5890.188,3193.121,5891.482Zm32.3,3.378c0,2.242,0,2.242-2.291,2.054-3.744.342-3.744.342-3.744-3.238,0-1.863.075-3.73-.027-5.587-.066-1.2.387-1.534,1.49-1.41.748.085,1.509.051,2.264.07,2.308-.124,2.308-.124,2.308,2.206Q3225.423,5891.907,3225.423,5894.86Zm-.166-23.289a83.445,83.445,0,0,1,.15,11.544c-.022,1.689-1.469.673-2.3.8-.581.034-1.165.041-1.742.107-1.357.156-2.3-.046-2.031-1.8.125-.815-.2-1.541-1.228-1.531-1.079.011-1.335.7-1.331,1.647.016,4.385-.036,8.771.033,13.156.018,1.2-.277,1.591-1.532,1.577q-9.035-.1-18.069,0c-1.288.015-1.526-.431-1.509-1.6.065-4.268.019-8.537.029-12.806,0-.988.006-1.984-1.351-1.968-1.282.015-1.3,1.021-1.212,1.9.124,1.232-.43,1.555-1.522,1.426-.4-.048-.818,0-1.227-.01-.99-.02-2.14.259-2.93-.152-.986-.513-.3-1.8-.426-2.733-.007-.053-.02-.1-.03-.148l0,0,.019-6.326a25.554,25.554,0,0,1,.2-3.144,5.313,5.313,0,0,1,3.173-4.123c1.74-.849,2.464-.539,3.349,1.193,2.7,5.285,7.027,8.063,12.97,7.889,5.651-.165,9.668-3.064,12.108-8.125.4-.83.65-1.642,1.817-1.27A5.1,5.1,0,0,1,3225.257,5871.571Zm-30.213-16.647c-.017-.916.274-1.236,1.2-1.208a12.775,12.775,0,0,0,9.252-3.519c.653-.595,1.016-.433,1.584.071a12.79,12.79,0,0,0,9.108,3.444c1.02-.031,1.328.331,1.277,1.312-.071,1.344-.018,2.693-.018,4.327a41.823,41.823,0,0,1-.208,5.142,11.153,11.153,0,0,1-22.154-1.489C3194.983,5860.314,3195.095,5857.617,3195.044,5854.924Zm25.4,4.161a2.035,2.035,0,0,1,2.117.9,2.548,2.548,0,0,1,.058,3.352,1.987,1.987,0,0,1-2.273.888c-.739-.27-.176-1.121-.3-1.7a4.182,4.182,0,0,1-.008-.868,5.825,5.825,0,0,1,.011-.869C3220.146,5860.2,3219.684,5859.33,3220.441,5859.085Zm-1.473-7.927c-1.441-.013-2.92.327-4.327-.28a10.1,10.1,0,0,1-6.889-3.748c-1.272-1.44-1.755-1.462-3,.013a11.116,11.116,0,0,1-8.106,3.967c-1.574.1-3.16-.009-4.74.039-.855.027-1.142-.31-1.082-1.136.845-11.7,12.8-17.376,21.263-13.32a.936.936,0,0,1,.14.1c5.208,2.128,8.1,6.136,9.122,11.53C3221.879,5851.11,3221.756,5851.183,3218.968,5851.158Zm23.128-7.725a3.314,3.314,0,0,1-1.877.3c-5.325,0-10.651-.037-15.976.032a2.073,2.073,0,0,1-2.11-1.328c-3.5-6.3-8.871-9.682-16.1-9.629-7.089.051-12.331,3.478-15.75,9.624a2.167,2.167,0,0,1-2.268,1.328c-4.154-.065-8.31-.005-12.464-.033-4.364-.029-7.518-2.977-7.443-6.9.076-3.957,3.1-6.69,7.428-6.709,2.724-.011,2.874-.139,3.354-2.865a7.22,7.22,0,0,1,9.869-5.473c1.35.527,2.423.643,3.425-.585,5.658-6.933,13.09-9.39,21.8-8.581a16.9,16.9,0,0,1,7.114,2.248c.949.575,3.717,2.362,4.776,4.241.017.034.027.068.048.1.049.084.091.17.138.255s.078.148.114.209a16.709,16.709,0,0,1,1.517,4.944c.109.623.622.95,1.06,1.324.872-.028,1.745-.042,2.616-.088a7.1,7.1,0,0,1,7.69,8.46c-.253,1.664.456,2.607,2.243,2.822a3.091,3.091,0,0,1,3.022,2.863A2.9,2.9,0,0,1,3242.1,5843.433Z" fill="#070304"/>
        <path id="패스_4631" data-name="패스 4631" d="M3179.77,5853.422a1.293,1.293,0,0,0-1.28,1.393c0,.585,0,1.17,0,1.755s.018,1.171,0,1.755a1.337,1.337,0,0,0,1.282,1.57c.9.05,1.363-.621,1.39-1.479.04-1.227.044-2.458-.022-3.683A1.269,1.269,0,0,0,3179.77,5853.422Z" fill="#070304"/>
        <path id="패스_4632" data-name="패스 4632" d="M3232.68,5853.425a1.285,1.285,0,0,0-1.318,1.366c-.056,1.226-.062,2.458-.006,3.684.039.859.539,1.5,1.442,1.418a1.307,1.307,0,0,0,1.223-1.451c-.011-.585,0-1.17,0-1.755s-.008-1.17,0-1.755A1.321,1.321,0,0,0,3232.68,5853.425Z" fill="#070304"/>
        <path id="패스_4633" data-name="패스 4633" d="M3178.5,5869.021a1.221,1.221,0,0,0,1.207,1.251,1.2,1.2,0,0,0,1.412-1.213,35.376,35.376,0,0,0-.007-4.016,1.181,1.181,0,0,0-1.272-1.181,1.275,1.275,0,0,0-1.34,1.313c-.043.638-.009,1.282-.008,1.923S3178.465,5868.382,3178.5,5869.021Z" fill="#070304"/>
        <path id="패스_4634" data-name="패스 4634" d="M3232.636,5863.859a1.154,1.154,0,0,0-1.208,1.046,17.067,17.067,0,0,0,0,4.35,1.126,1.126,0,0,0,1.222,1.019,1.2,1.2,0,0,0,1.33-1.109,18.069,18.069,0,0,0,.019-2.1,13.792,13.792,0,0,0-.022-2.094A1.241,1.241,0,0,0,3232.636,5863.859Z" fill="#070304"/>
        <path id="패스_4635" data-name="패스 4635" d="M3181.165,5875.825c-.067-.817-.334-1.516-1.337-1.489-.941.026-1.331.6-1.337,1.482-.007,1.165-.015,2.331,0,3.5a1.267,1.267,0,0,0,1.238,1.4c.971.076,1.352-.553,1.422-1.4.052-.636.01-1.281.01-1.921h.008C3181.173,5876.873,3181.207,5876.346,3181.165,5875.825Z" fill="#070304"/>
        <path id="패스_4636" data-name="패스 4636" d="M3234.014,5875.761a1.279,1.279,0,0,0-1.392-1.425c-.9,0-1.228.619-1.261,1.372-.053,1.221-.055,2.448,0,3.668.037.76.4,1.361,1.293,1.344.934-.018,1.337-.582,1.359-1.463.014-.582,0-1.165,0-1.748S3234.033,5876.343,3234.014,5875.761Z" fill="#070304"/>
        <path id="패스_4637" data-name="패스 4637" d="M3170.42,5853.565a1.194,1.194,0,0,0,1.323,1.112,1.125,1.125,0,0,0,1.168-1.081c.05-1.451.042-2.906-.007-4.358-.025-.714-.613-.995-1.219-.992a1.134,1.134,0,0,0-1.275,1.134c-.025.639,0,1.279-.007,1.919A20.091,20.091,0,0,0,3170.42,5853.565Z" fill="#070304"/>
        <path id="패스_4638" data-name="패스 4638" d="M3242.1,5849.4a1.135,1.135,0,0,0-1.262-1.151,1.121,1.121,0,0,0-1.263,1.15c-.02,1.4-.034,2.792.018,4.185a1.133,1.133,0,0,0,1.155,1.1,1.2,1.2,0,0,0,1.339-1.1,16,16,0,0,0,.018-2.091C3242.1,5850.792,3242.121,5850.093,3242.1,5849.4Z" fill="#070304"/>
        <path id="패스_4639" data-name="패스 4639" d="M3170.405,5872.155c0,.754-.054,1.513.015,2.261a1.15,1.15,0,0,0,1.332,1.072,1.042,1.042,0,0,0,1.16-1.038c.051-1.39.049-2.784.02-4.175a1.109,1.109,0,0,0-1.233-1.164,1.164,1.164,0,0,0-1.289,1.13c-.059.633-.012,1.276-.012,1.914Z" fill="#070304"/>
        <path id="패스_4640" data-name="패스 4640" d="M3239.561,5874.218a1.142,1.142,0,0,0,1.309,1.269,1.207,1.207,0,0,0,1.25-1.359c.006-.58,0-1.16,0-1.741,0-.638.008-1.277,0-1.915a1.211,1.211,0,0,0-1.251-1.358,1.152,1.152,0,0,0-1.308,1.275Q3239.526,5872.3,3239.561,5874.218Z" fill="#070304"/>
        <path id="패스_4641" data-name="패스 4641" d="M3242.1,5859.823a1.206,1.206,0,0,0-1.261-1.188,1.167,1.167,0,0,0-1.258,1.183c-.042,1.394-.041,2.791.014,4.185a1.261,1.261,0,0,0,2.493.006c.036-.7.008-1.4.008-2.093h.014C3242.11,5861.218,3242.147,5860.517,3242.1,5859.823Z" fill="#070304"/>
        <path id="패스_4642" data-name="패스 4642" d="M3171.668,5865.082a1.2,1.2,0,0,0,1.288-1.335v-1.92h.007c0-.581,0-1.163,0-1.745,0-.816-.411-1.4-1.206-1.435a1.256,1.256,0,0,0-1.371,1.433c0,1.222.014,2.444,0,3.666A1.2,1.2,0,0,0,3171.668,5865.082Z" fill="#070304"/>
        <path id="패스_4643" data-name="패스 4643" d="M3172.955,5882.775c0-.639,0-1.278,0-1.916a1.283,1.283,0,1,0-2.564.026q0,1.83,0,3.659a1.251,1.251,0,0,0,1.217,1.412c.922.054,1.339-.555,1.359-1.439.013-.58,0-1.161,0-1.742Z" fill="#070304"/>
        <path id="패스_4644" data-name="패스 4644" d="M3242.108,5882.8c0-.7.022-1.4,0-2.09a1.14,1.14,0,0,0-1.256-1.164,1.116,1.116,0,0,0-1.273,1.134c-.033,1.335-.042,2.671-.008,4.006a1.185,1.185,0,0,0,1.338,1.271,1.21,1.21,0,0,0,1.2-1.241c.033-.637.007-1.277.007-1.916Z" fill="#070304"/>
        <path id="패스_4645" data-name="패스 4645" d="M3202.523,5866.987a1.255,1.255,0,0,0,1.936.488,3.257,3.257,0,0,1,3.634.025,1.217,1.217,0,0,0,1.822-.413,1.3,1.3,0,0,0-.552-1.933,6.129,6.129,0,0,0-3.689-.95,5.655,5.655,0,0,0-2.575.976A1.3,1.3,0,0,0,3202.523,5866.987Z" fill="#070304"/>
        <path id="패스_4646" data-name="패스 4646" d="M3214.5,5859.65a1.2,1.2,0,0,0-.063-1.462c-.344-.426-.817-.765-1.359-.5a3.021,3.021,0,0,1-2.331.01c-.981-.279-1.452.429-1.648,1.35a5.008,5.008,0,0,0,.291.622C3210.285,5861.069,3213.653,5861.058,3214.5,5859.65Z" fill="#070304"/>
        <path id="패스_4647" data-name="패스 4647" d="M3198.633,5860.216a3.129,3.129,0,0,0,1.938.489,3.245,3.245,0,0,0,1.577-.31c.792-.382,1.491-.856,1.119-1.842a1.272,1.272,0,0,0-1.977-.712,1.831,1.831,0,0,1-1.667-.093,1.2,1.2,0,0,0-1.7.719A1.3,1.3,0,0,0,3198.633,5860.216Z" fill="#070304"/>
      </g>
    </g>
  </g>
</svg>
