<svg xmlns="http://www.w3.org/2000/svg" width="132" height="132" viewBox="0 0 132 132">
  <g id="그룹_1341" data-name="그룹 1341" transform="translate(-1377 -2244)">
    <path id="icon" d="M66,0A66,66,0,1,1,0,66,66,66,0,0,1,66,0Z" transform="translate(1377 2244)" fill="#3a64f9"/>
    <g id="그룹_682" data-name="그룹 682" transform="translate(-1870.76 -3544.698)">
      <path id="패스_4648" data-name="패스 4648" d="M3319.689,5881.026c.785-.817,1.635-1.572,2.42-2.389a15.091,15.091,0,0,0,3.545-6.2h-22.183a15.835,15.835,0,0,0,3.749,6.365c.949.944,1.965,1.835,2.814,2.863,2.742,3.324,2.621,6.165-.3,9.31a1.669,1.669,0,0,0-.192.468,16.155,16.155,0,0,0,9.734-.474C3316.321,5887.2,3316.459,5884.385,3319.689,5881.026Z" fill="#f2bb48"/>
      <path id="패스_4649" data-name="패스 4649" d="M3314.408,5818.407c-.034-.744-.254-1.03-.986-.973a15.674,15.674,0,0,1-1.7.038c-.717-.022-.865.289-.722.951a5.807,5.807,0,0,0,5.4,4.372c.542-.051,1.453.2,1.593-.468.18-.854-.833-.635-1.333-.862A3.424,3.424,0,0,1,3314.408,5818.407Z" fill="#e2a06b"/>
      <path id="패스_4650" data-name="패스 4650" d="M3289.186,5840.352a1.669,1.669,0,0,0,1.642,1.369,1.758,1.758,0,0,0,1.9-1.245,19.6,19.6,0,0,0,1.125-3.831,19.336,19.336,0,0,0-3.764,1.618A1.742,1.742,0,0,0,3289.186,5840.352Z" fill="#b6ddd6"/>
      <path id="패스_4651" data-name="패스 4651" d="M3335.83,5841.708a1.641,1.641,0,0,0,1.489-1.329,1.774,1.774,0,0,0-.984-2.169,17.953,17.953,0,0,0-3.624-1.531,14.882,14.882,0,0,0,1.078,3.812A1.756,1.756,0,0,0,3335.83,5841.708Z" fill="#b6dcd6"/>
      <path id="패스_4652" data-name="패스 4652" d="M3327.937,5839.861c1.4-1.123,1.275-2.382.381-3.716-.553.259-1.077-.023-1.607-.12a5.479,5.479,0,0,0-3.6.542,1.7,1.7,0,0,0-1.1,1.39c-.048.785.494,1.2,1.08,1.564a4.892,4.892,0,0,0,2.543.516,7.669,7.669,0,0,1,2.279-.021C3327.9,5839.952,3327.9,5839.893,3327.937,5839.861Z" fill="#cd73a0"/>
      <path id="패스_4653" data-name="패스 4653" d="M3325.634,5840.037a4.892,4.892,0,0,1-2.543-.516c-.586-.366-1.128-.779-1.08-1.564a1.7,1.7,0,0,1,1.1-1.39,5.479,5.479,0,0,1,3.6-.542c.53.1,1.054.379,1.607.12l-.029-.044a5.986,5.986,0,0,0-5.473.081,2.1,2.1,0,0,0-1.346,1.889c-.019.905.6,1.375,1.274,1.772,1.683.986,3.451.678,5.219.3a.547.547,0,0,1-.05-.131A7.669,7.669,0,0,0,3325.634,5840.037Z" fill="#cd73a0"/>
      <path id="패스_4654" data-name="패스 4654" d="M3327.937,5839.861c-.04.032-.04.091-.024.155l.022.006c.028.028.052.057.077.085,2.04-1.652,2.1-2.459.321-3.968l-.015.006C3329.212,5837.479,3329.336,5838.738,3327.937,5839.861Z" fill="#cd73a0"/>
      <path id="패스_4655" data-name="패스 4655" d="M3328.012,5840.107c-.025-.028-.049-.057-.077-.085l-.022-.006a.547.547,0,0,0,.05.131h0Z" fill="#cd73a0"/>
      <path id="패스_4656" data-name="패스 4656" d="M3328.333,5836.139c-.015-.013-.028-.025-.044-.038l.029.044Z" fill="#cd73a0"/>
      <path id="패스_4657" data-name="패스 4657" d="M3297.923,5836.582a1.772,1.772,0,0,0,.013,2.806,4.011,4.011,0,0,0,3.262,1.054,4.71,4.71,0,0,0,3.086-.734,1.877,1.877,0,0,0,.488-3.009C3303.27,5835.146,3299.515,5835.081,3297.923,5836.582Z" fill="#cd73a0"/>
      <g id="그룹_680" data-name="그룹 680">
        <path id="패스_4658" data-name="패스 4658" d="M3296.447,5835.871a17.722,17.722,0,0,1-1.025,3.86c-.794,1.612-.333,2.94.314,4.372,3.667,8.114,13.171,12.919,21.1,10.649,6.794-1.326,11.23-5.451,13.869-11.7a4.643,4.643,0,0,0,.174-3.84,23.278,23.278,0,0,1-.984-3.879c-.187-.821.078-1.567.948-1.623,1-.066.873-.525.715-1.182-1.811-7.512-6.406-12.37-13.834-14.529-.3-.086-.67-.421-.881.138-.056,1.324.977,1.179,1.791,1.329h0l.934.525c1.831,2.472.959,4.6-2.077,5.068a7.8,7.8,0,0,1-8.647-5.84c-.326-1.289-.778-1.243-1.776-.893a20.063,20.063,0,0,0-4.253,2.035,25.663,25.663,0,0,0-2.055,1.546,20.747,20.747,0,0,0-2.148,2.045q-.263.294-.509.6a4.679,4.679,0,0,1-.387.612,17.635,17.635,0,0,0-3.452,8.757C3296.373,5833.425,3296.9,5833.922,3296.447,5835.871Zm30.163-5.064a1.158,1.158,0,0,1-.2,1.763,1.191,1.191,0,0,1-1.635-.306c-2.049-2.04-3.106-2.026-5.072.059-.494.524-1.007.733-1.616.337-.7-.456-.634-1.084-.265-1.747a5.589,5.589,0,0,1,4.5-2.49A5.325,5.325,0,0,1,3326.61,5830.807Zm-8.969,8.912c.026.1.045.2.071.32a1.17,1.17,0,0,1-.77,1.042,1.309,1.309,0,0,1-1.481-.522c-1.45-1.545-2.858-1.788-4.174-.748a10.765,10.765,0,0,0-.922,1.028,1.056,1.056,0,0,1-1.38.3,1.127,1.127,0,0,1-.557-1.442c.384-1.419,2.734-2.874,4.608-2.858C3314.949,5836.856,3317.277,5838.311,3317.641,5839.719Zm10.692-3.58c1.784,1.509,1.719,2.316-.321,3.968l-.049.04c-1.768.374-3.536.682-5.219-.3-.677-.4-1.293-.867-1.274-1.772a2.1,2.1,0,0,1,1.346-1.889,5.986,5.986,0,0,1,5.473-.081C3328.3,5836.114,3328.318,5836.126,3328.333,5836.139Zm-28.748-5.332a5.466,5.466,0,0,1,4.28-2.393,5.411,5.411,0,0,1,4.333,2.249c.477.667.627,1.374-.087,1.9-.626.459-1.2.175-1.735-.4-1.763-1.9-3.189-1.892-4.872.029-.559.638-1.138.936-1.84.4C3299,5832.082,3299.172,5831.418,3299.585,5830.807Zm5.187,5.892a1.877,1.877,0,0,1-.488,3.009,4.71,4.71,0,0,1-3.086.734,4.011,4.011,0,0,1-3.262-1.054,1.772,1.772,0,0,1-.013-2.806C3299.515,5835.081,3303.27,5835.146,3304.772,5836.7Z" fill="#fad1c2"/>
        <path id="패스_4659" data-name="패스 4659" d="M3293.563,5867.52a24.223,24.223,0,0,1,5.811-13.539c.2-.237.721-.39.493-.8-.3-.552-.762-.112-1.081.022a16.811,16.811,0,0,0-7.375,5.839c-.263.378-.56.839-.865,1.372a18.611,18.611,0,0,0-1.328,2.861,17.012,17.012,0,0,0-.9,3.7,16.667,16.667,0,0,0,.406,6.125,9.559,9.559,0,0,1,2.94-2.6A3.143,3.143,0,0,0,3293.563,5867.52Z" fill="#fad1c2"/>
        <path id="패스_4660" data-name="패스 4660" d="M3328.3,5868.969a5.048,5.048,0,0,1,2.495-.637c.813.1.927-.263.809-.979a23.062,23.062,0,0,0-5.148-11.635c-1.525-1.774-1.512-1.785-3.466-.5-6.808,3.18-13.584,3.3-20.286-.282-.737-.4-1.011-.013-1.393.414a23.031,23.031,0,0,0-5.5,12.346c-.106.719-.011,1.053.863.827a4.565,4.565,0,0,1,4.5.829,2.748,2.748,0,0,0,2.072.747c7.522-.021,15.043-.034,22.565.011A2.628,2.628,0,0,0,3328.3,5868.969Z" fill="#fad1c2"/>
        <path id="패스_4661" data-name="패스 4661" d="M3300.953,5872.928c-.955-2.315-2.042-2.6-4.6-1.876h0a8.64,8.64,0,0,0-4.034,1.813c-2.444,1.842-3.021,3.9-1.93,6.789a22.322,22.322,0,0,0,5.766,8.669c1.717,1.582,3.608,2.926,6.1,2.984a.835.835,0,0,0,.2.058,4.386,4.386,0,0,0,2.07-.179c4.972-1.152,6.637-5.118,3.327-8.363A29.47,29.47,0,0,1,3300.953,5872.928Z" fill="#fad1c2"/>
        <path id="패스_4662" data-name="패스 4662" d="M3338.211,5874.2a9.344,9.344,0,0,0-6.831-3.38,2.115,2.115,0,0,0-2.6,1.118,21.43,21.43,0,0,0-1.406,2.736,17.936,17.936,0,0,1-4.869,6.864,10.431,10.431,0,0,0-2.536,3.085,3.105,3.105,0,0,0,.128,3.506c1.676,2.117,3.786,3.458,6.644,3.151a6.255,6.255,0,0,0,4.034-1.267,21.232,21.232,0,0,0,8.331-11.33A4.41,4.41,0,0,0,3338.211,5874.2Z" fill="#fad1c2"/>
        <path id="패스_4663" data-name="패스 4663" d="M3329.473,5855.637a26.091,26.091,0,0,1,4.494,12.238,1.389,1.389,0,0,0,1.453,1.408h0a22.2,22.2,0,0,1,3.606,2.271c1.885-7.678-4.7-17.779-12.073-18.816Z" fill="#fad1c2"/>
      </g>
      <g id="그룹_681" data-name="그룹 681">
        <path id="패스_4664" data-name="패스 4664" d="M3341.232,5873.324a19.464,19.464,0,0,0-11.364-22.176c-.864-.387-1.149-.579-.4-1.415a16.177,16.177,0,0,0,3.151-5.271c.334-.916.673-.933,1.537-.635a4.152,4.152,0,0,0,5.58-4.232,4.212,4.212,0,0,0-3.257-3.883c-1.842-.578-2.354-1.751-2.653-3.508-2.407-14.123-19.042-21.419-31.111-14.564-.1.054-.2.113-.318.182l-.052.032a20.339,20.339,0,0,0-1.83,1.232,3.913,3.913,0,0,0-.8.732,38.587,38.587,0,0,0-3.367,3.331,3.629,3.629,0,0,0-.511.585,18.25,18.25,0,0,0-3.693,8.715,3.882,3.882,0,0,1-2.683,3.542c-2.377,1.084-3.221,3.164-2.441,5.3.8,2.177,2.667,3.116,5.225,2.584.489-.1.805-.208,1.053.431a22.053,22.053,0,0,0,4.368,6.795,20.532,20.532,0,0,0-6.807,4.9h0c-2.3,2-3.574,5.354-4.181,7.426a3.213,3.213,0,0,0-.194.587c-.074.319-.139.639-.2.959-.012.055-.022.105-.03.143-.017.082-.026.129-.026.129l0,0a19.6,19.6,0,0,0-.183,6.585c.273,1.8,1.118,3.442,1.375,5.195.874,5.964,4.056,10.5,8.586,14.17,2.959,2.4,6.363,3.329,10.122,1.93a1.819,1.819,0,0,1,1.337.072,17.475,17.475,0,0,0,13.389-.343,1.58,1.58,0,0,1,1.435-.051c3.876,1.8,7.433.952,10.717-1.474a24.051,24.051,0,0,0,7.962-10.8,7.643,7.643,0,0,0,.206-5.867A2.08,2.08,0,0,1,3341.232,5873.324Zm-4.9-35.114a1.774,1.774,0,0,1,.984,2.169,1.641,1.641,0,0,1-1.489,1.329,1.756,1.756,0,0,1-2.041-1.217,14.882,14.882,0,0,1-1.078-3.812A17.953,17.953,0,0,1,3336.335,5838.21Zm2.691,33.344a22.2,22.2,0,0,0-3.606-2.271h0a1.389,1.389,0,0,1-1.453-1.408,26.091,26.091,0,0,0-4.494-12.238l-2.52-2.9C3334.325,5853.775,3340.911,5863.876,3339.026,5871.554Zm-8.231-3.222a5.048,5.048,0,0,0-2.495.637,2.628,2.628,0,0,1-2.488,1.139c-7.522-.045-15.043-.032-22.565-.011a2.748,2.748,0,0,1-2.072-.747,4.565,4.565,0,0,0-4.5-.829c-.874.226-.969-.108-.863-.827a23.031,23.031,0,0,1,5.5-12.346c.382-.427.656-.809,1.393-.414,6.7,3.584,13.478,3.462,20.286.282,1.954-1.283,1.941-1.272,3.466.5a23.062,23.062,0,0,1,5.148,11.635C3331.722,5868.069,3331.608,5868.436,3330.795,5868.332Zm-19.073-50.86a15.674,15.674,0,0,0,1.7-.038c.732-.057.952.229.986.973a3.424,3.424,0,0,0,2.253,3.058c.5.227,1.513.008,1.333.862-.14.669-1.051.417-1.593.468a5.807,5.807,0,0,1-5.4-4.372C3310.857,5817.761,3311,5817.45,3311.722,5817.472Zm-18.99,23a1.758,1.758,0,0,1-1.9,1.245,1.669,1.669,0,0,1-1.642-1.369,1.742,1.742,0,0,1,.907-2.089,19.336,19.336,0,0,1,3.764-1.618A19.6,19.6,0,0,1,3292.732,5840.476Zm3,3.627c-.647-1.432-1.108-2.76-.314-4.372a17.722,17.722,0,0,0,1.025-3.86c.448-1.949-.074-2.446-2.18-1.949a17.635,17.635,0,0,1,3.452-8.757,4.679,4.679,0,0,0,.387-.612q.246-.306.509-.6a20.747,20.747,0,0,1,2.148-2.045,25.663,25.663,0,0,1,2.055-1.546,20.063,20.063,0,0,1,4.253-2.035c1-.35,1.45-.4,1.776.893a7.8,7.8,0,0,0,8.647,5.84c3.036-.469,3.908-2.6,2.077-5.068l-.934-.525h0c-.814-.15-1.847,0-1.791-1.329.211-.559.584-.224.881-.138,7.428,2.159,12.023,7.017,13.834,14.529.158.657.287,1.116-.715,1.182-.87.056-1.135.8-.948,1.623a23.278,23.278,0,0,0,.984,3.879,4.643,4.643,0,0,1-.174,3.84c-2.639,6.248-7.075,10.373-13.869,11.7C3308.907,5857.022,3299.4,5852.217,3295.736,5844.1Zm-7.01,29a16.667,16.667,0,0,1-.406-6.125,17.012,17.012,0,0,1,.9-3.7,18.611,18.611,0,0,1,1.328-2.861c.305-.533.6-.994.865-1.372a16.811,16.811,0,0,1,7.375-5.839c.319-.134.776-.574,1.081-.022.228.414-.292.567-.493.8a24.223,24.223,0,0,0-5.811,13.539,3.143,3.143,0,0,1-1.9,2.979A9.559,9.559,0,0,0,3288.726,5873.1Zm15.8,18.087a4.386,4.386,0,0,1-2.07.179.835.835,0,0,1-.2-.058c-2.49-.058-4.381-1.4-6.1-2.984a22.322,22.322,0,0,1-5.766-8.669c-1.091-2.89-.514-4.947,1.93-6.789a8.64,8.64,0,0,1,4.034-1.813h0c2.555-.722,3.642-.439,4.6,1.876a29.47,29.47,0,0,0,6.9,9.9C3311.166,5886.068,3309.5,5890.034,3304.529,5891.186Zm5.017.254a1.669,1.669,0,0,1,.192-.468c2.917-3.145,3.038-5.986.3-9.31-.849-1.028-1.865-1.919-2.814-2.863a15.835,15.835,0,0,1-3.749-6.365h22.183a15.091,15.091,0,0,1-3.545,6.2c-.785.817-1.635,1.572-2.42,2.389-3.23,3.359-3.368,6.176-.409,9.94A16.155,16.155,0,0,1,3309.546,5891.44Zm29.555-12.757a21.232,21.232,0,0,1-8.331,11.33,6.255,6.255,0,0,1-4.034,1.267c-2.858.307-4.968-1.034-6.644-3.151a3.105,3.105,0,0,1-.128-3.506,10.431,10.431,0,0,1,2.536-3.085,17.936,17.936,0,0,0,4.869-6.864,21.43,21.43,0,0,1,1.406-2.736,2.115,2.115,0,0,1,2.6-1.118,9.344,9.344,0,0,1,6.831,3.38A4.41,4.41,0,0,1,3339.1,5878.683Z"/>
        <path id="패스_4665" data-name="패스 4665" d="M3299.664,5832.588c.7.539,1.281.241,1.84-.4,1.683-1.921,3.109-1.928,4.872-.029.531.572,1.109.856,1.735.4.714-.522.564-1.229.087-1.9a5.411,5.411,0,0,0-4.333-2.249,5.466,5.466,0,0,0-4.28,2.393C3299.172,5831.418,3299,5832.082,3299.664,5832.588Z"/>
        <path id="패스_4666" data-name="패스 4666" d="M3318.083,5832.66c.609.4,1.122.187,1.616-.337,1.966-2.085,3.023-2.1,5.072-.059a1.191,1.191,0,0,0,1.635.306,1.158,1.158,0,0,0,.2-1.763,5.325,5.325,0,0,0-4.293-2.384,5.589,5.589,0,0,0-4.5,2.49C3317.449,5831.576,3317.384,5832.2,3318.083,5832.66Z"/>
        <path id="패스_4667" data-name="패스 4667" d="M3308.985,5841.139a1.056,1.056,0,0,0,1.38-.3,10.765,10.765,0,0,1,.922-1.028c1.316-1.04,2.724-.8,4.174.748a1.309,1.309,0,0,0,1.481.522,1.17,1.17,0,0,0,.77-1.042c-.026-.12-.045-.221-.071-.32-.364-1.408-2.692-2.863-4.605-2.88-1.874-.016-4.224,1.439-4.608,2.858A1.127,1.127,0,0,0,3308.985,5841.139Z"/>
      </g>
    </g>
  </g>
</svg>
