<svg xmlns="http://www.w3.org/2000/svg" width="132" height="132" viewBox="0 0 132 132">
  <g id="그룹_1337" data-name="그룹 1337" transform="translate(-411 -2244)">
    <path id="icon" d="M66,0A66,66,0,1,1,0,66,66,66,0,0,1,66,0Z" transform="translate(411 2244)" fill="#cb0023"/>
    <g id="그룹_667" data-name="그룹 667" transform="translate(-2351.89 -3544.698)">
      <path id="패스_4530" data-name="패스 4530" d="M2817.37,5813.033q.283-.027.567-.049Q2817.654,5813.007,2817.37,5813.033Z" fill="none"/>
      <path id="패스_4531" data-name="패스 4531" d="M2819.069,5812.9c.168-.01.335-.021.5-.03C2819.4,5812.884,2819.237,5812.9,2819.069,5812.9Z" fill="none"/>
      <path id="패스_4532" data-name="패스 4532" d="M2814.128,5813.427l-.007,0,.019,0Z" fill="none"/>
      <path id="패스_4533" data-name="패스 4533" d="M2815.735,5813.205c.171-.021.342-.039.513-.058C2816.077,5813.166,2815.906,5813.184,2815.735,5813.205Z" fill="none"/>
      <path id="패스_4534" data-name="패스 4534" d="M2803.675,5816.7a4.249,4.249,0,0,0,.386-.27A4.249,4.249,0,0,1,2803.675,5816.7Z" fill="none"/>
      <path id="패스_4535" data-name="패스 4535" d="M2798.346,5857.145c.04,0,.079,0,.119.008a.79.79,0,0,1-.034-.087Z" fill="#f6f9fb"/>
      <path id="패스_4536" data-name="패스 4536" d="M2854.267,5874.225c-.65-.624-1.886.131-2.867.223a33.389,33.389,0,0,1-20.907-5.008c-1.669-1.011-2.163-.732-2.184,1.2-.023,2.107-.005,4.215-.005,6.867.146,2.255-.2,5.063.266,7.864a13.108,13.108,0,0,0,13.1,10.886,12.9,12.9,0,0,0,12.664-11.128,56.781,56.781,0,0,0,.2-7.712C2854.539,5876.332,2855.031,5874.958,2854.267,5874.225Zm-19.944,8.986a1.353,1.353,0,0,1-1.264-.832,1.071,1.071,0,0,1,.307-1.413c1.316-.913,1.668-1.686.062-2.7a1.171,1.171,0,0,1-.156-1.844,1.253,1.253,0,0,1,1.861-.171c.279.207.529.455.792.683,2.756,2.394,2.3,4.848-1.141,6.167A3,3,0,0,1,2834.323,5883.211Zm11.358,6.144c-.7.444-1.295.157-1.841-.432-1.986-2.142-2.9-2.157-4.791-.063-.588.651-1.211.988-1.963.435s-.615-1.3-.182-2.023a5.575,5.575,0,0,1,4.483-2.665,5.508,5.508,0,0,1,4.608,2.752C2846.415,5888.094,2846.478,5888.848,2845.681,5889.355Zm3.9-6.642c-.644.787-1.423.613-2.12-.044-.084-.079-.18-.146-.27-.219-3.114-2.5-2.892-4.445.692-6.31a1.248,1.248,0,0,1,1.587.189,1.206,1.206,0,0,1,.144,1.728,17.2,17.2,0,0,1-1.69,1.6c.412.326.815.642,1.214.963C2849.858,5881.2,2850.225,5881.927,2849.582,5882.713Z" fill="#fad1c2"/>
      <g id="그룹_663" data-name="그룹 663">
        <path id="패스_4537" data-name="패스 4537" d="M2870.829,5863.211c-2.5-1.162-3.634-3.53-5.077-5.636-1.582-2.309-3.5-2.727-6.173-1.278a19.383,19.383,0,0,1,4.911,9.267c.1.484.132,1.1.934.967a10.332,10.332,0,0,0,5.347-2.4C2871.069,5863.869,2871.485,5863.516,2870.829,5863.211Z" fill="#484848"/>
        <path id="패스_4538" data-name="패스 4538" d="M2817.094,5857.577c-1.441,2.106-2.58,4.46-5.071,5.646-.794.378-.1.768.2,1.024a10.479,10.479,0,0,0,4.7,2.191c.9.2,1.291,0,1.464-.874a18.847,18.847,0,0,1,4.9-9.264C2820.586,5854.847,2818.676,5855.267,2817.094,5857.577Z" fill="#484848"/>
        <path id="패스_4539" data-name="패스 4539" d="M2855.344,5856.429h0c-.124-.122-.253-.236-.384-.346-.048-.041-.1-.08-.146-.119-.081-.065-.165-.127-.249-.188q-.228-.166-.466-.317l-.058-.037h0a2.363,2.363,0,0,1-.593-.343l-.085-.043c-.658-.344-1.346-.634-2.028-.931-.094-.042-.184-.085-.27-.13h0c-.337-.111-.689-.217-1.047-.318-1.269-.358-2.619-.646-3.708-.853-.51-.1-.963-.176-1.321-.236-.022,0-.042,0-.064-.008a26.189,26.189,0,0,0-7.856.062c-11.546,1.267-18.764,11.348-16.09,22.549a4.251,4.251,0,0,0,.63,1.868c.331.371.81.278,1.244.217a12.761,12.761,0,0,0,2.265-.377c.552-.185.607-.731.592-1.243-.046-1.519.021-3.042-.022-4.562-.049-1.756.047-3.426,1.8-4.434s3.223-.261,4.72.673a30.819,30.819,0,0,0,8.151,3.572,27.491,27.491,0,0,0,13.173.492c2.416-.511,3.565.452,3.613,2.889a6.024,6.024,0,0,1-.006,1.052c-.082.515-.084,1.206.451,1.477.573.29,1.372.978,1.989,1.009a2.008,2.008,0,0,0,1.978-1.357,9.66,9.66,0,0,0,.4-1.633,19.977,19.977,0,0,0-.352-9.673A14.5,14.5,0,0,0,2855.344,5856.429Z" fill="#484848"/>
      </g>
      <path id="패스_4540" data-name="패스 4540" d="M2825.7,5882.989c0-.7-.055-1.41.014-2.1.112-1.136-.385-1.437-1.436-1.29a3.162,3.162,0,0,0-.918,6.055c1.877.844,2.489.405,2.385-1.609C2825.725,5883.69,2825.712,5883.339,2825.7,5882.989Z" fill="#fad1c2"/>
      <path id="패스_4541" data-name="패스 4541" d="M2859.484,5879.777c-1.7-.662-2.333-.242-2.341,1.557,0,.526,0,1.051,0,1.577h-.076c0,.759.011,1.518,0,2.276-.009.47.107.715.66.787a3.514,3.514,0,0,0,3.567-2.273A3.264,3.264,0,0,0,2859.484,5879.777Z" fill="#fad1c2"/>
      <g id="그룹_664" data-name="그룹 664">
        <path id="패스_4542" data-name="패스 4542" d="M2847.353,5819.513l-.1-.086c-.593-.528-1.327-.923-1.944-1.424a11.462,11.462,0,0,0-1.493-1.029,24.231,24.231,0,0,0-3.536-1.58c-6.153-2.348-12.593-2.767-19.1-2.585-.54.015-1.079.038-1.617.066-.167.009-.334.02-.5.03q-.566.035-1.132.079-.283.023-.567.049c-.375.033-.749.072-1.122.114-.171.019-.342.037-.513.058-.533.065-1.065.137-1.6.221l-.019,0a34.444,34.444,0,0,0-10.06,3,4.249,4.249,0,0,1-.386.27l-.014.009c-.136.086-.278.169-.424.253-3.458,1.991-6.165,4.61-7.008,8.721-1.08,5.274,1.045,9.223,5.119,12.345a25.684,25.684,0,0,0,2.518,1.577c1.225.727,1.273,1.6.283,2.531a18.308,18.308,0,0,1-2.824,2.356c-1.152.7-1,1.435-.55,2.44.62,1.379,1.1,2.82,1.68,4.218a2.207,2.207,0,0,1-.626,2.815c-1.115.957-2.178,1.977-3.4,3.1a.79.79,0,0,0,.034.087c1.74.13,3.091-.677,4.521-1.058,1.507-.4,3.616-.574,4.267-1.6.673-1.062-.617-2.89-1.067-4.376-.742-2.456-.563-2.848,1.852-3.776.652-.251,1.33-.445,1.958-.744a24.285,24.285,0,0,1,12.337-2.226,40.182,40.182,0,0,0,18.222-2.724,9.048,9.048,0,0,0,1.168-.392,17.965,17.965,0,0,0,2.721-1.469c3.625-2.277,6.17-5.354,6.446-9.775a12.194,12.194,0,0,0-.765-5.379,9.364,9.364,0,0,0-1.358-2.31A13.907,13.907,0,0,0,2847.353,5819.513Zm-43.452,2.664a1.172,1.172,0,0,1,1.326-1.128,1.23,1.23,0,0,1,1.244,1.227c.035.935.008,1.873.011,2.809,0,.878.016,1.756,0,2.634a1.24,1.24,0,0,1-1.346,1.3,1.221,1.221,0,0,1-1.262-1.226C2803.826,5825.92,2803.826,5824.046,2803.9,5822.177Zm1.306,11.916c-.948.027-1.354-.574-1.359-1.443,0-.844.312-1.49,1.3-1.5.959-.011,1.316.568,1.36,1.428C2806.526,5833.487,2806.145,5834.067,2805.207,5834.093Zm3.745-11.7a1.356,1.356,0,0,1,2.71-.048c.088.923.021,1.861.021,2.792h-.008a24.776,24.776,0,0,1-.021,2.616,1.3,1.3,0,0,1-1.409,1.263,1.323,1.323,0,0,1-1.3-1.382C2808.919,5825.891,2808.913,5824.143,2808.952,5822.4Zm1.331,11.692a1.472,1.472,0,0,1,.042-2.935c.964-.009,1.25.681,1.4,1.473C2811.565,5833.452,2811.226,5834.122,2810.283,5834.089Zm13.542-.737a1.415,1.415,0,0,1-1.443.737c-1.033-.26-1.607-1.3-2.267-2.133-.9-1.133-1.552-1.382-2.384,0a11.509,11.509,0,0,1-1.157,1.308c-.626.747-1.4,1.243-2.244.526-.967-.819-.413-1.661.266-2.4.63-.689,1.225-1.412,1.886-2.07a.847.847,0,0,0,.005-1.425c-.779-.786-1.5-1.634-2.21-2.481a1.28,1.28,0,0,1,.043-2,1.363,1.363,0,0,1,2.009.214c.922.876,1.523,2.616,2.624,2.579.864-.03,1.683-1.607,2.506-2.512.587-.647,1.258-.893,1.985-.32.834.658.583,1.372.031,2.128-.811,1.113-2.594,1.9-2.423,3.2.147,1.114,1.6,2.049,2.453,3.079C2823.883,5832.231,2824.218,5832.711,2823.825,5833.352Zm13.782-4.518c.753.139,1.3.56,1.232,1.43a1.242,1.242,0,0,1-1.381,1.265c-.861-.046-1.115.277-1.088,1.1a1.224,1.224,0,0,1-1.3,1.341,1.237,1.237,0,0,1-1.29-1.368c.048-1.059-.542-1.025-1.312-1.072-.924-.057-1.059.355-1.04,1.13a1.22,1.22,0,0,1-1.326,1.311,1.205,1.205,0,0,1-1.255-1.215c-.036-.811-.151-1.306-1.162-1.232a1.2,1.2,0,0,1-1.312-1.32,1.278,1.278,0,0,1,1.143-1.345c.686-.129,1.366,0,1.314-1.108-.046-1-.645-.9-1.283-.971a1.2,1.2,0,0,1-1.171-1.287c.006-.812.436-1.379,1.3-1.3.991.087,1.157-.39,1.166-1.227a1.246,1.246,0,0,1,1.179-1.261c.939.074,1.479.544,1.416,1.453s.374,1.041,1.142,1.031c.738-.011,1.225-.073,1.194-1.011a1.236,1.236,0,0,1,1.369-1.44,1.21,1.21,0,0,1,1.241,1.39c-.048.878.322,1.1,1.127,1.061a1.3,1.3,0,1,1,.046,2.6c-.735.026-1.163.144-1.18,1.067C2836.349,5828.889,2836.993,5828.721,2837.607,5828.834Zm3.925-6.582a1.184,1.184,0,0,1,1.264-1.2,1.262,1.262,0,0,1,1.315,1.339c.026.874.006,1.749.007,2.624s0,1.751,0,2.626a1.276,1.276,0,0,1-1.288,1.372,1.192,1.192,0,0,1-1.293-1.172Q2841.456,5825.05,2841.532,5822.252Zm1.226,8.9c.94-.017,1.362.512,1.367,1.418.027.881-.31,1.494-1.264,1.526s-1.366-.539-1.376-1.423C2841.474,5831.823,2841.778,5831.169,2842.758,5831.15Z" fill="#d5edf6"/>
        <path id="패스_4543" data-name="패스 4543" d="M2832.6,5826.756c-.888-.036-1.195.261-1.2,1.179,0,1.05.654.858,1.449.874.644.159.941-.175.942-1.025C2833.795,5826.877,2833.325,5826.786,2832.6,5826.756Z" fill="#d5edf6"/>
      </g>
      <g id="그룹_666" data-name="그룹 666">
        <g id="그룹_665" data-name="그룹 665">
          <path id="패스_4544" data-name="패스 4544" d="M2873.177,5861.363c-2.6-.991-3.776-3.156-5.172-5.229-1.711-2.54-4.265-4.364-7.111-3.073a6.474,6.474,0,0,1-6.2-.192c-.02-.017-2.32-2.056-8.862-2.925a2.457,2.457,0,0,0-.512-.1q-.666-.059-1.33-.1l-.012,0a17.188,17.188,0,0,0-2.351-.08,26.546,26.546,0,0,0-15.282,4.192,1.433,1.433,0,0,1-1.831.033,6.933,6.933,0,0,0-5.366-.944c-2.377.555-3.747,2.227-4.948,4.147-.991,1.584-1.943,3.164-3.843,3.915-2.046.808-2.411,2.706-.92,4.328a12.214,12.214,0,0,0,7.15,3.76c.97.165,1.223.428,1.224,1.394a20.59,20.59,0,0,0,1.519,8.206,1.628,1.628,0,0,1,0,1.491,5.8,5.8,0,0,0,5.681,8.346c1.255-.119,1.765.41,2.318,1.5,2.935,5.755,7.714,8.931,14.17,8.924,6.383-.007,11.155-3.139,14.036-8.837a2.458,2.458,0,0,1,2.62-1.6,5.726,5.726,0,0,0,5.457-8.14,1.931,1.931,0,0,1-.127-1.634,19.969,19.969,0,0,0,1.535-8.374c0-.942.331-1.113,1.18-1.258a12.4,12.4,0,0,0,7.291-3.852C2874.69,5863.938,2874.653,5861.924,2873.177,5861.363Zm-54.8,4.2c-.173.876-.565,1.074-1.464.874a10.479,10.479,0,0,1-4.7-2.191c-.3-.256-.99-.646-.2-1.024,2.491-1.186,3.63-3.54,5.071-5.646,1.582-2.31,3.492-2.73,6.181-1.277A18.847,18.847,0,0,0,2818.378,5865.564Zm4.98,20.085a3.162,3.162,0,0,1,.918-6.055c1.051-.147,1.548.154,1.436,1.29-.069.7-.013,1.4-.014,2.1.014.35.027.7.045,1.051C2825.847,5886.054,2825.235,5886.493,2823.358,5885.649Zm30.974-.518a12.9,12.9,0,0,1-12.664,11.128,13.108,13.108,0,0,1-13.1-10.886c-.463-2.8-.12-5.609-.266-7.864,0-2.652-.018-4.76.005-6.867.021-1.934.515-2.213,2.184-1.2a33.389,33.389,0,0,0,20.907,5.008c.981-.092,2.217-.847,2.867-.223.764.733.272,2.107.26,3.194A56.781,56.781,0,0,1,2854.332,5885.131Zm6.958-1.43a3.514,3.514,0,0,1-3.567,2.273c-.553-.072-.669-.317-.66-.787.015-.758,0-1.517,0-2.276h.076c0-.526,0-1.051,0-1.577.008-1.8.64-2.219,2.341-1.557A3.264,3.264,0,0,1,2861.29,5883.7Zm.662-8.887a4.232,4.232,0,0,1-.5,1.759c-.675.847-1.9.556-2.8.39-.414-.076-.939.009-1.267-.311a1.53,1.53,0,0,1-.237-1.334,6.024,6.024,0,0,0,.006-1.052c-.048-2.437-1.2-3.4-3.613-2.889a27.491,27.491,0,0,1-13.173-.492,30.819,30.819,0,0,1-8.151-3.572c-1.5-.934-2.972-1.676-4.72-.673s-1.85,2.678-1.8,4.434c.043,1.519-.024,3.042.022,4.562.027.9-.645,1.274-1.433,1.429-.392.077-.787.117-1.176.208a1.452,1.452,0,0,1-1.384-.173,3.887,3.887,0,0,1-.738-1.929c-2.674-11.2,4.544-21.282,16.09-22.549a26.189,26.189,0,0,1,7.856-.062c.022,0,.042,0,.064.008.358.06.811.139,1.321.236,1.089.207,2.439.495,3.708.853.358.1.71.207,1.047.318.086.045.176.088.27.13.682.3,1.37.587,2.028.931.042.022.082.047.123.07a2.3,2.3,0,0,0,.556.316l.058.037q.238.15.466.317c.084.061.168.124.249.188.049.039.1.078.146.119.131.11.26.224.384.346a14.5,14.5,0,0,1,6.256,8.712A19.977,19.977,0,0,1,2861.952,5874.814Zm8.819-10.679a10.332,10.332,0,0,1-5.347,2.4c-.8.136-.832-.483-.934-.967a19.383,19.383,0,0,0-4.911-9.267c2.671-1.449,4.591-1.031,6.173,1.278,1.443,2.106,2.581,4.474,5.077,5.636C2871.485,5863.516,2871.069,5863.869,2870.771,5864.135Z"/>
          <path id="패스_4545" data-name="패스 4545" d="M2798.951,5852.951c-1.76,1.543-3.427,3.193-5.174,4.752-.917.818-1.524,1.713-.814,2.886.67,1.107,1.714.951,2.8.6,4.217-1.346,8.45-2.639,12.669-3.977,1.865-.591,2.323-1.44,1.793-3.294-.368-1.287-.834-2.546-1.193-3.836-.121-.435-.535-1.059.289-1.3,3.149-.935,5.955-3.044,9.447-2.805a65.006,65.006,0,0,0,13.318-.377c5.125-.7,10.064-2,14.428-4.932,5.759-3.872,8.359-10.034,6.663-16.205-1.552-5.646-5.629-9.084-10.826-11.142-10.336-4.092-21-3.99-31.741-1.945a7.837,7.837,0,0,0-1.93.448,40.926,40.926,0,0,0-5.695,2.229,2.463,2.463,0,0,0-.786.358c-.09.06-.182.116-.273.174a6.9,6.9,0,0,0-.961.592c-.335.2-.667.409-.985.636-8.418,6-9.075,16.705-1.438,23.444.771.681,1.615,1.278,2.481,1.958-.9.754-1.669,1.472-2.512,2.1a2.322,2.322,0,0,0-.838,3.194c.651,1.428,1.1,2.947,1.773,4.366A1.509,1.509,0,0,1,2798.951,5852.951Zm3.5-1.8c-.58-1.4-1.06-2.839-1.68-4.218-.452-1-.6-1.737.55-2.44a18.308,18.308,0,0,0,2.824-2.356c.99-.926.942-1.8-.283-2.531a25.684,25.684,0,0,1-2.518-1.577c-4.074-3.122-6.2-7.071-5.119-12.345.843-4.111,3.55-6.73,7.008-8.721.146-.084.288-.167.424-.253l.014-.009a4.249,4.249,0,0,0,.386-.27,34.493,34.493,0,0,1,10.067-3.007h.012c.53-.084,1.062-.156,1.6-.221.171-.021.342-.039.513-.058.373-.042.747-.081,1.122-.114q.283-.027.567-.049.565-.045,1.132-.079c.168-.01.335-.021.5-.03.538-.028,1.077-.051,1.617-.066,6.5-.182,12.943.237,19.1,2.585a19.906,19.906,0,0,1,7.463,4.8,11.24,11.24,0,0,1,3.143,8.815c-.276,4.421-2.821,7.5-6.446,9.775a17.965,17.965,0,0,1-2.721,1.469,9.012,9.012,0,0,1-1.169.392,40.176,40.176,0,0,1-18.221,2.724A24.285,24.285,0,0,0,2810,5845.6c-.628.3-1.306.493-1.958.744-2.415.928-2.594,1.32-1.852,3.776.45,1.486,1.74,3.314,1.067,4.376-.651,1.029-2.76,1.2-4.267,1.6-1.43.381-2.781,1.188-4.521,1.058-.04,0-.079,0-.119-.008l.085-.079c1.22-1.12,2.283-2.14,3.4-3.1A2.207,2.207,0,0,0,2802.455,5851.154Z"/>
          <path id="패스_4546" data-name="패스 4546" d="M2827.512,5828.855a1.278,1.278,0,0,0-1.143,1.345,1.2,1.2,0,0,0,1.312,1.32c1.011-.074,1.126.421,1.162,1.232a1.205,1.205,0,0,0,1.255,1.215,1.22,1.22,0,0,0,1.326-1.311c-.019-.775.116-1.187,1.04-1.13.77.047,1.36.013,1.312,1.072a1.237,1.237,0,0,0,1.29,1.368,1.224,1.224,0,0,0,1.3-1.341c-.027-.819.227-1.142,1.088-1.1a1.242,1.242,0,0,0,1.381-1.265c.072-.87-.479-1.291-1.232-1.43-.614-.113-1.258.055-1.239-.982.017-.923.445-1.041,1.18-1.067a1.3,1.3,0,1,0-.046-2.6c-.8.04-1.175-.183-1.127-1.061a1.21,1.21,0,0,0-1.241-1.39,1.236,1.236,0,0,0-1.369,1.44c.031.938-.456,1-1.194,1.011-.768.01-1.205-.113-1.142-1.031s-.477-1.379-1.416-1.453a1.246,1.246,0,0,0-1.179,1.261c-.009.837-.175,1.314-1.166,1.227-.86-.077-1.29.49-1.3,1.3a1.2,1.2,0,0,0,1.171,1.287c.638.07,1.237-.031,1.283.971C2828.878,5828.858,2828.2,5828.726,2827.512,5828.855Zm5.086-2.1c.727.03,1.2.121,1.2,1.028,0,.85-.3,1.184-.942,1.025-.8-.016-1.45.176-1.449-.874C2831.4,5827.017,2831.71,5826.72,2832.6,5826.756Z"/>
          <path id="패스_4547" data-name="패스 4547" d="M2814.6,5831.388c-.679.743-1.233,1.585-.266,2.4.847.717,1.618.221,2.244-.526a11.509,11.509,0,0,0,1.157-1.308c.832-1.384,1.486-1.135,2.384,0,.66.833,1.234,1.873,2.267,2.133a1.415,1.415,0,0,0,1.443-.737c.393-.641.058-1.121-.32-1.575-.855-1.03-2.306-1.965-2.453-3.079-.171-1.3,1.612-2.086,2.423-3.2.552-.756.8-1.47-.031-2.128-.727-.573-1.4-.327-1.985.32-.823.905-1.642,2.482-2.506,2.512-1.1.037-1.7-1.7-2.624-2.579a1.363,1.363,0,0,0-2.009-.214,1.28,1.28,0,0,0-.043,2c.713.847,1.431,1.695,2.21,2.481a.847.847,0,0,1-.005,1.425C2815.821,5829.976,2815.226,5830.7,2814.6,5831.388Z"/>
          <path id="패스_4548" data-name="패스 4548" d="M2810.245,5829.021a1.3,1.3,0,0,0,1.409-1.263,24.776,24.776,0,0,0,.021-2.616h.008c0-.931.067-1.869-.021-2.792a1.356,1.356,0,0,0-2.71.048c-.039,1.746-.033,3.494-.008,5.242A1.323,1.323,0,0,0,2810.245,5829.021Z"/>
          <path id="패스_4549" data-name="패스 4549" d="M2805.134,5829.016a1.24,1.24,0,0,0,1.346-1.3c.018-.878,0-1.756,0-2.634,0-.936.024-1.874-.011-2.809a1.23,1.23,0,0,0-1.244-1.227,1.172,1.172,0,0,0-1.326,1.128c-.075,1.869-.075,3.743-.029,5.613A1.221,1.221,0,0,0,2805.134,5829.016Z"/>
          <path id="패스_4550" data-name="패스 4550" d="M2842.83,5829.017a1.276,1.276,0,0,0,1.288-1.372c0-.875,0-1.75,0-2.626s.019-1.75-.007-2.624a1.262,1.262,0,0,0-1.315-1.339,1.184,1.184,0,0,0-1.264,1.2q-.072,2.8.005,5.593A1.192,1.192,0,0,0,2842.83,5829.017Z"/>
          <path id="패스_4551" data-name="패스 4551" d="M2806.5,5832.578c-.044-.86-.4-1.439-1.36-1.428-.983.01-1.3.656-1.3,1.5.005.869.411,1.47,1.359,1.443S2806.526,5833.487,2806.5,5832.578Z"/>
          <path id="패스_4552" data-name="패스 4552" d="M2810.325,5831.154a1.472,1.472,0,0,0-.042,2.935c.943.033,1.282-.637,1.437-1.462C2811.575,5831.835,2811.289,5831.145,2810.325,5831.154Z"/>
          <path id="패스_4553" data-name="패스 4553" d="M2842.861,5834.094c.954-.032,1.291-.645,1.264-1.526,0-.906-.427-1.435-1.367-1.418-.98.019-1.284.673-1.273,1.521C2841.5,5833.555,2841.917,5834.127,2842.861,5834.094Z"/>
          <path id="패스_4554" data-name="패스 4554" d="M2841.387,5884.607a5.575,5.575,0,0,0-4.483,2.665c-.433.722-.573,1.468.182,2.023s1.375.216,1.963-.435c1.893-2.094,2.8-2.079,4.791.063.546.589,1.142.876,1.841.432.8-.507.734-1.261.314-2A5.508,5.508,0,0,0,2841.387,5884.607Z"/>
          <path id="패스_4555" data-name="패스 4555" d="M2835.925,5876.938c-.263-.228-.513-.476-.792-.683a1.253,1.253,0,0,0-1.861.171,1.171,1.171,0,0,0,.156,1.844c1.606,1.01,1.254,1.783-.062,2.7a1.071,1.071,0,0,0-.307,1.413,1.353,1.353,0,0,0,1.264.832,3,3,0,0,0,.461-.106C2838.228,5881.786,2838.681,5879.332,2835.925,5876.938Z"/>
          <path id="패스_4556" data-name="패스 4556" d="M2849.139,5880.617c-.4-.321-.8-.637-1.214-.963a17.2,17.2,0,0,0,1.69-1.6,1.206,1.206,0,0,0-.144-1.728,1.248,1.248,0,0,0-1.587-.189c-3.584,1.865-3.806,3.806-.692,6.31.09.073.186.14.27.219.7.657,1.476.831,2.12.044S2849.858,5881.2,2849.139,5880.617Z"/>
        </g>
      </g>
      <circle id="타원_181" data-name="타원 181" cx="16.228" cy="16.228" r="16.228" transform="translate(2784.439 5866.945)" fill="#1a1311"/>
      <circle id="타원_182" data-name="타원 182" cx="13.394" cy="13.394" r="13.394" transform="translate(2787.274 5869.78)" fill="#e6656f"/>
      <path id="패스_4557" data-name="패스 4557" d="M2794.562,5890.6a1.406,1.406,0,0,1-.994-2.4l12.212-12.212a1.405,1.405,0,0,1,1.987,1.988l-12.212,12.212A1.4,1.4,0,0,1,2794.562,5890.6Z" fill="#1a1311"/>
      <path id="패스_4558" data-name="패스 4558" d="M2806.773,5890.6a1.4,1.4,0,0,1-.993-.412l-12.212-12.212a1.405,1.405,0,0,1,1.987-1.988l12.212,12.212a1.406,1.406,0,0,1-.994,2.4Z" fill="#1a1311"/>
    </g>
  </g>
</svg>
