<svg xmlns="http://www.w3.org/2000/svg" width="304.253" height="428.503" viewBox="0 0 304.253 428.503">
  <g id="그룹_774" data-name="그룹 774" transform="translate(170.013 -170.781)">
    <g id="그룹_772" data-name="그룹 772">
      <rect id="사각형_133" data-name="사각형 133" width="27.338" height="107.98" transform="translate(11.396 296.364) rotate(-26.606)" fill="#79b8c7"/>
      <path id="패스_6846" data-name="패스 6846" d="M16.631,306.816a62.788,62.788,0,0,0,27.793-5.555l-8.585-17.14L11.4,296.364Z" fill="#1e4852"/>
      <circle id="타원_216" data-name="타원 216" cx="63.131" cy="63.131" r="63.131" transform="translate(-70.685 183.241) rotate(-5.663)" fill="#79b8c7"/>
      <circle id="타원_217" data-name="타원 217" cx="48.69" cy="48.69" r="48.69" transform="translate(-70.49 239.834) rotate(-45)" fill="#ffecde"/>
      <g id="그룹_771" data-name="그룹 771">
        <path id="패스_6847" data-name="패스 6847" d="M20.911,196.687a48.932,48.932,0,0,0-10.229-3.947L7.784,287.6a48.557,48.557,0,0,0,10.451-3.325Z" fill="#b4d6de"/>
        <path id="패스_6848" data-name="패스 6848" d="M-24.175,282.98a48.879,48.879,0,0,0,22.461,5.541l2.972-97.285A48.4,48.4,0,0,0-21.5,195.389Z" fill="#b4d6de"/>
      </g>
    </g>
    <g id="그룹_773" data-name="그룹 773">
      <path id="패스_6849" data-name="패스 6849" d="M-170.013,497.531-7.405,402.853s-4.092-39,11.505-60.174S45.78,327.37,45.78,327.37,55.448,320.378,62.7,314.9s29.06,1.022,30.286,18.508c14.482-.642,25.432,14.429,20.959,30.8,12.757,2.74,18.419,18.086,12.6,33.719,11.286,5.444,9.745,23.292-1.888,34.362S77.014,462.3,47.594,456.913L-66.4,599.284l-103.171-3.6Z" fill="#e38762"/>
      <path id="패스_6850" data-name="패스 6850" d="M60.339,368.023a103.85,103.85,0,0,0,10.384-5.613c2.97-2.087,7.6,12.039,3.432,17.822S54.12,373.128,60.339,368.023Z" fill="#ffccb8"/>
      <path id="패스_6851" data-name="패스 6851" d="M24.424,421.02c10.28-9.981,13.81-20.408,14.752-23.876s4.463-.248,8.621,2.888,6.466,4.687,10.836,4.852c-.374,3.974-.229,12.579,4.7,16.706a42.187,42.187,0,0,0,10.879,6.345S44.66,449.78,24.424,421.02Z" fill="#e3624b"/>
      <path id="패스_6852" data-name="패스 6852" d="M50.055,329.367c11.193,4.087,32.711,37.119,24.1,50.865S47.133,377.81,42.817,367.31c-12.406-4.622-19.328-11.054-19.328-11.054" fill="none" stroke="#6b1f1f" stroke-linecap="round" stroke-linejoin="round" stroke-width="4.061"/>
      <path id="패스_6853" data-name="패스 6853" d="M39.428,372.613S49.611,398.6,21.169,422.739" fill="none" stroke="#6b1f1f" stroke-linecap="round" stroke-linejoin="round" stroke-width="4.061"/>
      <line id="선_44" data-name="선 44" x1="37.761" y2="23.47" transform="translate(80.146 400.733)" fill="none" stroke="#6b1f1f" stroke-linecap="round" stroke-linejoin="round" stroke-width="4.061"/>
      <line id="선_45" data-name="선 45" x1="41.238" y2="33.053" transform="translate(64.392 368.023)" fill="none" stroke="#6b1f1f" stroke-linecap="round" stroke-linejoin="round" stroke-width="4.061"/>
      <line id="선_46" data-name="선 46" x1="17.472" y2="15.076" transform="translate(70.723 338.384)" fill="none" stroke="#6b1f1f" stroke-linecap="round" stroke-linejoin="round" stroke-width="4.061"/>
      <path id="패스_6854" data-name="패스 6854" d="M44.66,395.314a15.863,15.863,0,0,0,13.973,9.57c-2.548,12.742,8.227,22.163,15.581,23.051.075,10.519,4.52,16.829,14.09,18.791" fill="none" stroke="#6b1f1f" stroke-linecap="round" stroke-linejoin="round" stroke-width="4.061"/>
    </g>
  </g>
</svg>
