<svg xmlns="http://www.w3.org/2000/svg" width="337.757" height="378.595" viewBox="0 0 337.757 378.595">
  <g id="그룹_1345" data-name="그룹 1345" transform="translate(-1669 -1980)">
    <g id="그룹_793" data-name="그룹 793" transform="translate(1349.242 1356.616) rotate(60)">
      <ellipse id="타원_225" data-name="타원 225" cx="30.114" cy="8.253" rx="30.114" ry="8.253" transform="translate(1085.858 3.199) rotate(35)" fill="#24b088"/>
      <path id="패스_6874" data-name="패스 6874" d="M774.376,120.856a6.621,6.621,0,1,1-6.622-6.622A6.622,6.622,0,0,1,774.376,120.856Z" transform="translate(237.34 -99.686)" fill="#ffecde"/>
    </g>
    <path id="패스_6875" data-name="패스 6875" d="M367.728-116.994l9.054-27.882,10.583,27.338,26.118-13.313-11.848,26.814,27.882,9.054L402.179-84.4l13.313,26.118L388.677-70.129l-9.054,27.882L369.04-69.586,342.923-56.273l11.848-26.814-27.882-9.054,27.338-10.583-13.313-26.118Z" transform="translate(1541.798 2308.822)" fill="#d2d94f"/>
    <g id="그룹_803" data-name="그룹 803" transform="translate(1101.682 1551.703)">
      <g id="그룹_802" data-name="그룹 802" transform="translate(567.319 494.797)">
        <g id="그룹_797" data-name="그룹 797" transform="translate(18.529)">
          <path id="패스_6876" data-name="패스 6876" d="M606.582,496.383c-13.726,6.93-12.053,31.593,22.127,43.83C639.159,505.444,620.308,489.454,606.582,496.383Z" transform="translate(-598.537 -494.797)" fill="#de5273"/>
          <line id="선_85" data-name="선 85" x1="15.954" y1="31.602" transform="translate(14.218 13.814)" fill="none" stroke="#1e4852" stroke-linecap="round" stroke-linejoin="round" stroke-width="4.061"/>
        </g>
        <g id="그룹_798" data-name="그룹 798" transform="translate(0 34.693)">
          <path id="패스_6877" data-name="패스 6877" d="M567.5,571.472c2.349,15.2,26.321,21.226,48.522-7.5C586.182,543.289,565.148,556.276,567.5,571.472Z" transform="translate(-567.319 -553.249)" fill="#de5273"/>
          <line id="선_86" data-name="선 86" x1="34.985" y2="5.408" transform="translate(13.716 10.723)" fill="none" stroke="#1e4852" stroke-linecap="round" stroke-linejoin="round" stroke-width="4.061"/>
        </g>
        <g id="그룹_799" data-name="그룹 799" transform="translate(28.236 45.416)">
          <path id="패스_6878" data-name="패스 6878" d="M627.5,619.781c15.178,2.462,28.321-18.474,7.861-48.465C606.466,593.3,612.318,617.319,627.5,619.781Z" transform="translate(-614.892 -571.316)" fill="#de5273"/>
          <line id="선_87" data-name="선 87" x1="5.668" y2="34.944" transform="translate(14.797)" fill="none" stroke="#1e4852" stroke-linecap="round" stroke-linejoin="round" stroke-width="4.061"/>
        </g>
        <g id="그룹_800" data-name="그룹 800" transform="translate(48.701 42.525)">
          <path id="패스_6879" data-name="패스 6879" d="M693.036,591.789c7.032-13.674-8.818-32.643-43.664-22.453C661.355,603.607,686,605.463,693.036,591.789Z" transform="translate(-649.372 -566.445)" fill="#de5273"/>
          <line id="선_88" data-name="선 88" x2="31.482" y2="16.189" transform="translate(0 2.891)" fill="none" stroke="#1e4852" stroke-linecap="round" stroke-linejoin="round" stroke-width="4.061"/>
        </g>
        <g id="그룹_801" data-name="그룹 801" transform="translate(48.701 6.519)">
          <path id="패스_6880" data-name="패스 6880" d="M684.219,510.089c-10.832-10.913-33.77-1.7-34.847,34.588C685.668,543.872,695.052,521,684.219,510.089Z" transform="translate(-649.372 -505.781)" fill="#de5273"/>
          <line id="선_89" data-name="선 89" y1="24.939" x2="25.125" transform="translate(0 13.958)" fill="none" stroke="#1e4852" stroke-linecap="round" stroke-linejoin="round" stroke-width="4.061"/>
        </g>
      </g>
      <path id="패스_6881" data-name="패스 6881" d="M653.049,551.214a17.7,17.7,0,1,1-23.778-7.824A17.7,17.7,0,0,1,653.049,551.214Z" transform="translate(-21.228 -18.978)" fill="#ffecde"/>
    </g>
    <g id="그룹_854" data-name="그룹 854" transform="translate(1107.741 1886.985)">
      <path id="패스_6835" data-name="패스 6835" d="M768.965,138.59a42.585,42.585,0,0,0-27.06,4.639c-12.63,6.941-18.273,18.533-18.335,31.91a33.063,33.063,0,0,0-21.316,3.546c-17.555,9.647-22.864,33.7-11.858,53.728s34.158,28.442,51.711,18.8a33.068,33.068,0,0,0,14.422-16.092c11.325,7.12,24.136,8.571,36.766,1.63a42.586,42.586,0,0,0,18.424-20.355c14.046,8.412,29.823,9.943,45.384,1.392,28.622-15.729,37.279-54.951,19.334-87.605S820.743,83.8,792.121,99.532C776.559,108.084,769.394,122.223,768.965,138.59Z" fill="#32ba58"/>
      <g id="그룹_766" data-name="그룹 766" transform="translate(703.581 110.587)">
        <line id="선_31" data-name="선 31" y1="105.883" x2="192.678" transform="translate(0 8.698)" fill="none" stroke="#1e4852" stroke-linecap="round" stroke-linejoin="round" stroke-width="4.061"/>
        <g id="그룹_764" data-name="그룹 764" transform="translate(18.62 30.473)">
          <line id="선_32" data-name="선 32" y1="34.452" x2="7.053" transform="translate(0 69.999)" fill="none" stroke="#1e4852" stroke-linecap="round" stroke-linejoin="round" stroke-width="4.061"/>
          <line id="선_33" data-name="선 33" y1="34.452" x2="7.053" transform="translate(31.845 52.499)" fill="none" stroke="#1e4852" stroke-linecap="round" stroke-linejoin="round" stroke-width="4.061"/>
          <line id="선_34" data-name="선 34" y1="52.988" x2="10.848" transform="translate(59.895 35)" fill="none" stroke="#1e4852" stroke-linecap="round" stroke-linejoin="round" stroke-width="4.061"/>
          <line id="선_35" data-name="선 35" y1="48.623" x2="9.954" transform="translate(92.634 17.5)" fill="none" stroke="#1e4852" stroke-linecap="round" stroke-linejoin="round" stroke-width="4.061"/>
          <line id="선_36" data-name="선 36" y1="72.196" x2="14.78" transform="translate(119.652)" fill="none" stroke="#1e4852" stroke-linecap="round" stroke-linejoin="round" stroke-width="4.061"/>
        </g>
        <g id="그룹_765" data-name="그룹 765" transform="translate(0.532)">
          <line id="선_37" data-name="선 37" x2="32.864" y2="12.516" transform="translate(0 83.712)" fill="none" stroke="#1e4852" stroke-linecap="round" stroke-linejoin="round" stroke-width="4.061"/>
          <line id="선_38" data-name="선 38" x2="32.864" y2="12.516" transform="translate(31.845 66.212)" fill="none" stroke="#1e4852" stroke-linecap="round" stroke-linejoin="round" stroke-width="4.061"/>
          <line id="선_39" data-name="선 39" x2="50.545" y2="19.25" transform="translate(46.009 41.978)" fill="none" stroke="#1e4852" stroke-linecap="round" stroke-linejoin="round" stroke-width="4.061"/>
          <line id="선_40" data-name="선 40" x2="46.381" y2="17.665" transform="translate(82.017 26.064)" fill="none" stroke="#1e4852" stroke-linecap="round" stroke-linejoin="round" stroke-width="4.061"/>
          <line id="선_41" data-name="선 41" x2="68.868" y2="26.229" transform="translate(91.375)" fill="none" stroke="#1e4852" stroke-linecap="round" stroke-linejoin="round" stroke-width="4.061"/>
        </g>
      </g>
    </g>
  </g>
</svg>
