<svg xmlns="http://www.w3.org/2000/svg" xmlns:xlink="http://www.w3.org/1999/xlink" width="1922" height="311" viewBox="0 0 1922 311">
  <defs>
    <clipPath id="clip-path">
      <rect id="사각형_185" data-name="사각형 185" width="1922" height="311" transform="translate(-2 2336)" fill="#fff" stroke="#707070" stroke-width="1"/>
    </clipPath>
  </defs>
  <g id="마스크_그룹_27" data-name="마스크 그룹 27" transform="translate(2 -2336)" clip-path="url(#clip-path)">
    <g id="section3" transform="translate(0 -53)">
      <path id="backgroudn" d="M-7810.129,1613.892l-1.15-61.989V504.719q21.461-10.668,43.079-19.942c56.56-24.506,113.728-42.221,170.622-55.694,56.842-13.781,113.531-23.172,169.837-29.574,112.608-12.836,223.666-14.764,333.263-10.228,54.8,2.1,109.256,5.885,163.391,10.979l40.532,4.114,40.414,4.6,38.857,4.287c12.808,1.484,25.611,2.681,38.427,3.814,51.253,4.715,102.577,7.931,153.848,9.239l38.443.616,38.4-.156,38.336-1.144,38.247-1.983A1496.207,1496.207,0,0,0-6313.966,406.5a1117.519,1117.519,0,0,0,147.375-34.951c23.955-7.633,47.688-15.888,70.943-25.22,23.23-9.35,45.928-19.852,68.118-31.214a709.792,709.792,0,0,0,102.21-63.771c7.4-5.576,14.857-11.457,22.168-17.508q5.492-4.544,10.873-9.209v1524.5Z" transform="translate(7811.778 2192.17)" fill="#3a64f9" stroke="rgba(0,0,0,0)" stroke-miterlimit="10" stroke-width="1"/>
      <text id="보호조치현황" transform="translate(960 2838)" fill="#fff" font-size="45" font-family="NanumSquareNeoTTF-dEb, NanumSquare Neo ExtraBold"><tspan x="-127.98" y="0">보호조치</tspan><tspan y="0" fill="#ffc400">현황</tspan></text>
      <text id="입양은_입양특례법에_의한_보호대상아동만을_대상으로_하므로_민법상의_입양_사인간의_입양_은_미포함" data-name="입양은 입양특례법에 의한 보호대상아동만을 대상으로 하므로 민법상의 입양(사인간의 입양)은 미포함" transform="translate(960 2876)" fill="#fff" font-size="14" font-family="NanumSquareNeoTTF-bRg, NanumSquare Neo Regular"><tspan x="-299.397" y="0">입양은 입양특례법에 의한 보호대상아동만을 대상으로 하므로 민법상의 입양(사인간의 입양)은 미포함</tspan></text>
      <g id="box">
        <rect id="text-number" width="118" height="42" rx="10" transform="translate(1402 2930)" fill="#fff"/>
        <text id="시설보호" transform="translate(571 2959)" fill="#fff" font-size="25" font-family="NanumSquareNeoTTF-cBd, NanumSquare Neo Bold"><tspan x="-47.4" y="0">시설보호</tspan></text>
        <text id="_2_739명" data-name="2,739명" transform="translate(1512 2958)" fill="#6b6b6b" font-size="25" font-family="NanumSquareNeoTTF-cBd, NanumSquare Neo Bold"><tspan x="-97.875" y="0">2,739명</tspan></text>
        <circle id="타원_184" data-name="타원 184" cx="4" cy="4" r="4" transform="translate(472 2947)" fill="#fff"/>
        <g id="A105_Office_Building_Real_Estate" data-name="A105 ,Office ,Building ,Real ,Estate" transform="translate(-2465.518 -3209.13)">
          <g id="그룹_683" data-name="그룹 683" transform="translate(2865.517 6139.13)">
            <path id="패스_4668" data-name="패스 4668" d="M2893.218,6144.621h-9.669a.923.923,0,0,0-.911.9v19.911a.923.923,0,0,0,.911.9h9.669a.924.924,0,0,0,.912-.9v-19.911A1.037,1.037,0,0,0,2893.218,6144.621Zm-5.255,9.573v-7.838h.841v7.838Zm4.344,1.735v.9h-7.848v-.9Zm0,2.567v.9h-7.848v-.9Zm-7.848,2.637h7.848v.832h-7.848Zm7.848-6.939h-1.751v-7.838h1.751Zm-7.848-7.838h1.753v7.838h-1.753Zm0,18.245v-.9h7.848v.9Z" transform="translate(-2855.384 -6135.88)" fill="#fff"/>
            <path id="패스_4669" data-name="패스 4669" d="M2906.855,6144.4h-11.42v-4.371a.923.923,0,0,0-.911-.9H2880.51a.922.922,0,0,0-.91.9v23.449h-3.5a.923.923,0,0,0-.91.9v7.769a.922.922,0,0,0,.91.9h.912v6.036h-6.1V6175.9l2.453-3.26a.893.893,0,0,0-.21-1.25.859.859,0,0,0-1.262.208l-1.05,1.389v-2.15l3.153-2.359a.882.882,0,0,0,.21-1.248.9.9,0,0,0-1.261-.209l-2.523,1.873-.49-1.457a.863.863,0,0,0-1.121-.554.851.851,0,0,0-.561,1.109l.841,2.5v.693l-2.1-1.6a.912.912,0,0,0-1.261.208.894.894,0,0,0,.21,1.25l3.154,2.357v5.688h-2.663a.9.9,0,1,0,0,1.8h40.428a.924.924,0,0,0,.912-.9V6145.3A1.038,1.038,0,0,0,2906.855,6144.4Zm-13.173-3.468v3.468h-3.5a.923.923,0,0,0-.912.9v1.736h-3.5V6145.3a.922.922,0,0,0-.911-.9h-3.5v-3.468Zm7.918,35.59h-19.268v-.9H2901.6Zm-19.268,1.733H2901.6v.832h-19.268Zm19.268-4.37h-19.268v-.9h19.337v.9Zm-17.517-26.849h-2.662v-.9h2.662Zm1.752,5.2v-.9h3.5v.9Zm3.5,1.733v.833h-3.5v-.9h3.5Zm-5.254-1.733h-2.662v-.9h2.662Zm0,1.733v.833h-2.662v-.9h2.662Zm0,2.567v.9h-2.662v-.9Zm1.752,0h3.5v.9h-3.5Zm3.5-6.937h-3.5v-.9h3.5Zm-5.254,0h-2.662v-.9h2.662Zm-2.662,9.573h2.662v.9h-2.662Zm4.414,0h3.5v.9h-3.5Zm3.5,2.567v1.733h-3.5v-1.733Zm-7.916,0h2.662v1.733h-2.662Zm-4.344,3.469h12.26v6.1h-12.33v-6.1Zm1.75,13.874v-6.1h1.751v6.1Zm24.522,0v-6.937a.923.923,0,0,0-.911-.9h-11.35v-25.114h14.854v32.954Z" transform="translate(-2865.517 -6139.129)" fill="#fff"/>
            <path id="패스_4670" data-name="패스 4670" d="M2868.35,6146.786h.491a2.245,2.245,0,0,0,2.171,1.734h4.414a2.151,2.151,0,1,0,0-4.3h-2.241a2.246,2.246,0,0,0-2.173-1.733h-2.662a2.15,2.15,0,1,0,0,4.3Zm0-2.637h2.662a.451.451,0,0,1,.42.417v.139a.749.749,0,0,0,.14.763.868.868,0,0,0,.7.348h3.152a.416.416,0,1,1,0,.832h-4.414a.449.449,0,0,1-.421-.416v-.139a.751.751,0,0,0-.14-.764.866.866,0,0,0-.7-.345h-1.4a.451.451,0,0,1-.42-.418A.4.4,0,0,1,2868.35,6144.149Z" transform="translate(-2865.126 -6137.144)" fill="#fff"/>
          </g>
        </g>
        <g id="그룹_944" data-name="그룹 944">
          <circle id="타원_183" data-name="타원 183" cx="14" cy="14" r="14" transform="translate(707 2937)" fill="#51c3ff"/>
          <circle id="타원_185" data-name="타원 185" cx="14" cy="14" r="14" transform="translate(750 2937)" fill="#51c3ff"/>
          <circle id="타원_186" data-name="타원 186" cx="14" cy="14" r="14" transform="translate(793 2937)" fill="#51c3ff"/>
          <circle id="타원_187" data-name="타원 187" cx="14" cy="14" r="14" transform="translate(836 2937)" fill="#51c3ff"/>
          <circle id="타원_188" data-name="타원 188" cx="14" cy="14" r="14" transform="translate(879 2937)" fill="#51c3ff"/>
          <circle id="타원_189" data-name="타원 189" cx="14" cy="14" r="14" transform="translate(922 2937)" fill="#51c3ff"/>
          <circle id="타원_190" data-name="타원 190" cx="14" cy="14" r="14" transform="translate(965 2937)" fill="#51c3ff"/>
          <circle id="타원_191" data-name="타원 191" cx="14" cy="14" r="14" transform="translate(1008 2937)" fill="#51c3ff"/>
          <circle id="타원_192" data-name="타원 192" cx="14" cy="14" r="14" transform="translate(1051 2937)" fill="#51c3ff"/>
          <circle id="타원_193" data-name="타원 193" cx="14" cy="14" r="14" transform="translate(1094 2937)" fill="#51c3ff"/>
          <circle id="타원_194" data-name="타원 194" cx="14" cy="14" r="14" transform="translate(1137 2937)" fill="#51c3ff"/>
          <circle id="타원_195" data-name="타원 195" cx="14" cy="14" r="14" transform="translate(1180 2937)" fill="#51c3ff"/>
          <circle id="타원_196" data-name="타원 196" cx="14" cy="14" r="14" transform="translate(1223 2937)" fill="#51c3ff"/>
          <circle id="타원_197" data-name="타원 197" cx="14" cy="14" r="14" transform="translate(1266 2937)" fill="#fff"/>
          <circle id="타원_198" data-name="타원 198" cx="14" cy="14" r="14" transform="translate(1309 2937)" fill="#fff"/>
          <path id="패스_4671" data-name="패스 4671" d="M14,0c.2,0-.4,28.4,0,28A14,14,0,0,1,14,0Z" transform="translate(1266 2937)" fill="#51c3ff"/>
        </g>
      </g>
      <g id="box-2" data-name="box">
        <rect id="text-number-2" data-name="text-number" width="118" height="42" rx="10" transform="translate(1402 2992)" fill="#fff"/>
        <text id="가정위탁" transform="translate(571 3021)" fill="#fff" font-size="25" font-family="NanumSquareNeoTTF-cBd, NanumSquare Neo Bold"><tspan x="-47.4" y="0">가정위탁</tspan></text>
        <text id="_1_199명" data-name="1,199명" transform="translate(1512 3020)" fill="#6b6b6b" font-size="25" font-family="NanumSquareNeoTTF-cBd, NanumSquare Neo Bold"><tspan x="-88.925" y="0">1,199명</tspan></text>
        <circle id="타원_199" data-name="타원 199" cx="4" cy="4" r="4" transform="translate(472 3009)" fill="#fff"/>
        <g id="A105_Office_Building_Real_Estate-2" data-name="A105 ,Office ,Building ,Real ,Estate" transform="translate(-2465.518 -3147.13)">
          <g id="A107_Home_House_Sun_Real_Estate" data-name="A107 ,Home ,House ,Sun ,Real Estate" transform="translate(-10.955 7.685)">
            <g id="그룹_688" data-name="그룹 688">
              <path id="패스_4672" data-name="패스 4672" d="M2880.363,6142.451h.482a2.2,2.2,0,0,0,2.132,1.7h3.439a2.159,2.159,0,0,0,1.995-1.362,3.923,3.923,0,0,0,4.815-.886,3.76,3.76,0,0,0,.206-4.7,3.852,3.852,0,0,0-6.947,2.655H2886a2.2,2.2,0,0,0-2.132-1.7h-3.439a2.146,2.146,0,0,0-.069,4.29Zm9.905-5.108a2.112,2.112,0,1,1-2.132,2.112A2.133,2.133,0,0,1,2890.268,6137.343Zm-9.905,2.589h3.439c.551,0,.344.545.344.885a.832.832,0,0,0,.826.817h1.375a.444.444,0,0,1,0,.886h-3.439c-.55,0-.344-.545-.344-.886a.832.832,0,0,0-.825-.817h-1.376C2879.813,6140.749,2879.813,6139.932,2880.363,6139.932Z" fill="#fff"/>
              <path id="패스_4673" data-name="패스 4673" d="M2911.315,6162.883h-14.582a.907.907,0,0,0-.894.886v4.29a.906.906,0,0,0,.894.886h14.651a.906.906,0,0,0,.894-.886v-4.29A1.023,1.023,0,0,0,2911.315,6162.883Zm-13.756,1.7h5.159v2.588h-5.159Zm12.931,2.588h-6.053v-2.588h6.053Z" fill="#fff"/>
              <path id="패스_4674" data-name="패스 4674" d="M2917.368,6170.58h-1.719v-13.554a.95.95,0,0,0-.138-.408l-5.5-9.467a.79.79,0,0,0-.756-.409h-21.8a.758.758,0,0,0-.688.409l-6.191,9.467a.978.978,0,0,0-.137.476v13.553h-2.614a.852.852,0,0,0,0,1.7h39.619A.89.89,0,0,0,2917.368,6170.58Zm-4.127-14.371H2911.8l-4.127-6.538c-.619-.954-2.064,0-1.444.885l3.507,5.585h-1.444l-4.127-6.539c-.619-.953-2.063,0-1.444.886l3.508,5.584h-1.445l-4.127-6.538c-.619-.953-2.063,0-1.444.886l3.508,5.585h-1.445l-4.127-6.538c-.619-.954-2.063,0-1.444.885l3.508,5.585h-1.445l-4.127-6.539c-.619-.953-2.063,0-1.444.885l3.508,5.585h-1.926l-4.815-7.423h19.809Zm-25.793-7.015,4.265,7.015h-8.942Zm-5.365,8.717H2892.4v12.669h-1.719v-5.108a3.44,3.44,0,0,0-6.879,0v5.108h-1.719Zm3.439,12.669v-5.108a1.722,1.722,0,0,1,3.439,0v5.108Zm8.6,0v-12.669h19.809v1.635h-15.476a.852.852,0,0,0,0,1.7h15.476v9.4H2894.12Z" fill="#fff"/>
              <path id="패스_4675" data-name="패스 4675" d="M2898.866,6141.634h11.211a2.156,2.156,0,0,0,2-2.929,2.389,2.389,0,0,0-1.513-1.293c-.275-.069-.688,0-.826-.2a.431.431,0,0,1,.344-.681h4.334a2.111,2.111,0,1,0,0-4.223H2903.13a2.111,2.111,0,1,0,0,4.223h.9a.444.444,0,0,1,0,.885h-5.159a2.111,2.111,0,1,0,0,4.222Zm0-2.588h5.159a2.111,2.111,0,1,0,0-4.222h-.9a.444.444,0,0,1,0-.886h11.212a.444.444,0,0,1,0,.886h-4.334a2.156,2.156,0,0,0-1.994,2.928,2.389,2.389,0,0,0,1.513,1.294c.275.068.688,0,.826.205a.431.431,0,0,1-.345.681h-11.142A.444.444,0,0,1,2898.866,6139.046Z" fill="#fff"/>
            </g>
          </g>
        </g>
        <g id="그룹_943" data-name="그룹 943">
          <circle id="타원_183-2" data-name="타원 183" cx="14" cy="14" r="14" transform="translate(707 2999)" fill="#51c3ff"/>
          <circle id="타원_185-2" data-name="타원 185" cx="14" cy="14" r="14" transform="translate(750 2999)" fill="#51c3ff"/>
          <circle id="타원_186-2" data-name="타원 186" cx="14" cy="14" r="14" transform="translate(793 2999)" fill="#51c3ff"/>
          <circle id="타원_187-2" data-name="타원 187" cx="14" cy="14" r="14" transform="translate(836 2999)" fill="#51c3ff"/>
          <circle id="타원_188-2" data-name="타원 188" cx="14" cy="14" r="14" transform="translate(879 2999)" fill="#51c3ff"/>
          <circle id="타원_189-2" data-name="타원 189" cx="14" cy="14" r="14" transform="translate(922 2999)" fill="#51c3ff"/>
          <circle id="타원_190-2" data-name="타원 190" cx="14" cy="14" r="14" transform="translate(965 2999)" fill="#fff"/>
          <circle id="타원_191-2" data-name="타원 191" cx="14" cy="14" r="14" transform="translate(1008 2999)" fill="#fff"/>
          <circle id="타원_192-2" data-name="타원 192" cx="14" cy="14" r="14" transform="translate(1051 2999)" fill="#fff"/>
          <circle id="타원_193-2" data-name="타원 193" cx="14" cy="14" r="14" transform="translate(1094 2999)" fill="#fff"/>
          <circle id="타원_194-2" data-name="타원 194" cx="14" cy="14" r="14" transform="translate(1137 2999)" fill="#fff"/>
          <circle id="타원_195-2" data-name="타원 195" cx="14" cy="14" r="14" transform="translate(1180 2999)" fill="#fff"/>
          <circle id="타원_196-2" data-name="타원 196" cx="14" cy="14" r="14" transform="translate(1223 2999)" fill="#fff"/>
          <circle id="타원_197-2" data-name="타원 197" cx="14" cy="14" r="14" transform="translate(1266 2999)" fill="#fff"/>
          <circle id="타원_198-2" data-name="타원 198" cx="14" cy="14" r="14" transform="translate(1309 2999)" fill="#fff"/>
        </g>
      </g>
      <g id="box-3" data-name="box">
        <rect id="text-number-3" data-name="text-number" width="118" height="42" rx="10" transform="translate(1402 3054)" fill="#fff"/>
        <text id="입양" transform="translate(571 3083)" fill="#fff" font-size="25" font-family="NanumSquareNeoTTF-cBd, NanumSquare Neo Bold"><tspan x="-23.7" y="0">입양</tspan></text>
        <text id="_104명" data-name="104명" transform="translate(1512 3082)" fill="#6b6b6b" font-size="25" font-family="NanumSquareNeoTTF-cBd, NanumSquare Neo Bold"><tspan x="-71.625" y="0">104명</tspan></text>
        <circle id="타원_200" data-name="타원 200" cx="4" cy="4" r="4" transform="translate(472 3071)" fill="#fff"/>
        <g id="그룹_942" data-name="그룹 942">
          <circle id="타원_206" data-name="타원 206" cx="14" cy="14" r="14" transform="translate(707 3061)" fill="#fff"/>
          <path id="빼기_3" data-name="빼기 3" d="M-8107,875h0a13.908,13.908,0,0,1-9.9-4.1,13.907,13.907,0,0,1-4.1-9.9,13.907,13.907,0,0,1,4.1-9.9,13.907,13.907,0,0,1,9.9-4.1v28Z" transform="translate(8828 2214)" fill="#51c3ff"/>
          <circle id="타원_185-3" data-name="타원 185" cx="14" cy="14" r="14" transform="translate(750 3061)" fill="#fff"/>
          <circle id="타원_186-3" data-name="타원 186" cx="14" cy="14" r="14" transform="translate(793 3061)" fill="#fff"/>
          <circle id="타원_187-3" data-name="타원 187" cx="14" cy="14" r="14" transform="translate(836 3061)" fill="#fff"/>
          <circle id="타원_188-3" data-name="타원 188" cx="14" cy="14" r="14" transform="translate(879 3061)" fill="#fff"/>
          <circle id="타원_189-3" data-name="타원 189" cx="14" cy="14" r="14" transform="translate(922 3061)" fill="#fff"/>
          <circle id="타원_190-3" data-name="타원 190" cx="14" cy="14" r="14" transform="translate(965 3061)" fill="#fff"/>
          <circle id="타원_191-3" data-name="타원 191" cx="14" cy="14" r="14" transform="translate(1008 3061)" fill="#fff"/>
          <circle id="타원_192-3" data-name="타원 192" cx="14" cy="14" r="14" transform="translate(1051 3061)" fill="#fff"/>
          <circle id="타원_193-3" data-name="타원 193" cx="14" cy="14" r="14" transform="translate(1094 3061)" fill="#fff"/>
          <circle id="타원_194-3" data-name="타원 194" cx="14" cy="14" r="14" transform="translate(1137 3061)" fill="#fff"/>
          <circle id="타원_195-3" data-name="타원 195" cx="14" cy="14" r="14" transform="translate(1180 3061)" fill="#fff"/>
          <circle id="타원_196-3" data-name="타원 196" cx="14" cy="14" r="14" transform="translate(1223 3061)" fill="#fff"/>
          <circle id="타원_197-3" data-name="타원 197" cx="14" cy="14" r="14" transform="translate(1266 3061)" fill="#fff"/>
          <circle id="타원_198-3" data-name="타원 198" cx="14" cy="14" r="14" transform="translate(1309 3061)" fill="#fff"/>
        </g>
        <g id="A106_Home_House_Building_Real_Estate" data-name="A106 ,Home ,House ,Building ,Real Estate" transform="translate(-2530.658 -3077.401)">
          <g id="그룹_689" data-name="그룹 689">
            <path id="패스_4676" data-name="패스 4676" d="M2973,6154.087l-11.212-7.628a.834.834,0,0,0-.963,0l-7.222,4.972v-8.514h1.72a.905.905,0,0,0,.893-.885.937.937,0,0,0-.412-.749l-11.212-7.628a.836.836,0,0,0-.963,0l-11.142,7.7a.992.992,0,0,0-.344.953.885.885,0,0,0,.825.613h1.72v23.837h-2.614a.906.906,0,0,0-.894.886v3.4a.906.906,0,0,0,.894.886h37.9a.906.906,0,0,0,.894-.886v-15.392h1.72a.96.96,0,0,0,.825-.613A1.231,1.231,0,0,0,2973,6154.087Zm-11.694-5.925,3.44,2.383h-3.44a.886.886,0,1,0,0,1.771h5.916l2.476,1.7h-16.783Zm-23.11-8.65h5.915a.885.885,0,1,0,0-1.77h-3.439l3.439-2.384,8.391,5.789h-16.783Zm-5.228,28.945h11.211v1.7h-11.211Zm26.619,1.7v-5.517a2.132,2.132,0,0,1,4.264,0v5.517Zm9.492-12.8H2962.2a.886.886,0,1,0,0,1.771h6.878v11.1h-3.439v-5.517a3.852,3.852,0,0,0-7.7,0v5.517h-12.106v-2.656a.905.905,0,0,0-.894-.885h-8.529v-7.628h22.354a.907.907,0,0,0,.9-.886.849.849,0,0,0-.9-.817h-22.354v-14.439h15.476v9.672l-2.2,1.5a1,1,0,0,0-.344.953c0,.069,0,.069.069.136a.845.845,0,0,0,.757.477h18.915Z" fill="#fff"/>
            <path id="패스_4677" data-name="패스 4677" d="M2950.163,6152.248v-6.811a.906.906,0,0,0-.9-.885h-10.317a.906.906,0,0,0-.894.885v6.811a.906.906,0,0,0,.894.885h10.317A.906.906,0,0,0,2950.163,6152.248Zm-1.72-4.223h-1.72v-1.7h1.72Zm-3.439,0h-1.72v-1.7H2945Zm-5.159-1.7h1.72v1.7h-1.72Zm0,3.4h1.72v1.7h-1.72Zm3.439,0H2945v1.7h-1.72Zm5.159,1.7h-1.72v-1.7h1.72Z" fill="#fff"/>
            <path id="패스_4678" data-name="패스 4678" d="M2949.268,6160.761h-10.317a.906.906,0,0,0-.894.885v3.406a.906.906,0,0,0,.894.885h10.317a.906.906,0,0,0,.9-.885v-3.406A.906.906,0,0,0,2949.268,6160.761Zm-.825,3.406h-8.6v-1.7h8.6Z" fill="#fff"/>
            <path id="패스_4679" data-name="패스 4679" d="M2960.067,6140.738a2.133,2.133,0,0,0,2.133,2.111h1.788a2.2,2.2,0,0,0,2.132,1.7h4.334a2.132,2.132,0,0,0,2.132-2.111,2.194,2.194,0,0,0-2.2-2.112h-.482a2.2,2.2,0,0,0-2.132-1.7H2962.2A2.132,2.132,0,0,0,2960.067,6140.738Zm2.133-.409h5.571a.443.443,0,0,1,.413.409v.136a.736.736,0,0,0,.137.749.848.848,0,0,0,.688.341h1.376a.408.408,0,1,1,0,.817h-4.333a.441.441,0,0,1-.413-.408v-.137a.735.735,0,0,0-.138-.749.961.961,0,0,0-.688-.34h-2.682a.443.443,0,0,1-.413-.409A.515.515,0,0,1,2962.2,6140.329Z" fill="#fff"/>
            <path id="패스_4680" data-name="패스 4680" d="M2958.348,6138.627a3,3,0,1,0-3.026-3A2.993,2.993,0,0,0,2958.348,6138.627Zm0-4.223a1.3,1.3,0,0,1,1.307,1.294,1.243,1.243,0,0,1-1.307,1.226,1.3,1.3,0,0,1-1.307-1.294A1.205,1.205,0,0,1,2958.348,6134.4Z" fill="#fff"/>
          </g>
        </g>
      </g>
      <g id="box-4" data-name="box">
        <rect id="text-number-4" data-name="text-number" width="118" height="42" rx="10" transform="translate(1402 3116)" fill="#fff"/>
        <text id="소년소녀가장" transform="translate(571 3145)" fill="#fff" font-size="25" font-family="NanumSquareNeoTTF-cBd, NanumSquare Neo Bold"><tspan x="-71.1" y="0">소년소녀가장</tspan></text>
        <text id="_5명" data-name="5명" transform="translate(1512 3144)" fill="#6b6b6b" font-size="25" font-family="NanumSquareNeoTTF-cBd, NanumSquare Neo Bold"><tspan x="-40.75" y="0">5명</tspan></text>
        <circle id="타원_201" data-name="타원 201" cx="4" cy="4" r="4" transform="translate(472 3133)" fill="#fff"/>
        <g id="그룹_941" data-name="그룹 941">
          <circle id="타원_211" data-name="타원 211" cx="14" cy="14" r="14" transform="translate(707 3123)" fill="#fff"/>
          <path id="빼기_2" data-name="빼기 2" d="M-8117,806.8v0a13.92,13.92,0,0,1-4-9.8,13.92,13.92,0,0,1,4-9.8v19.6Z" transform="translate(8828 2340)" fill="#51c3ff"/>
          <circle id="타원_185-4" data-name="타원 185" cx="14" cy="14" r="14" transform="translate(750 3123)" fill="#fff"/>
          <circle id="타원_186-4" data-name="타원 186" cx="14" cy="14" r="14" transform="translate(793 3123)" fill="#fff"/>
          <circle id="타원_187-4" data-name="타원 187" cx="14" cy="14" r="14" transform="translate(836 3123)" fill="#fff"/>
          <circle id="타원_188-4" data-name="타원 188" cx="14" cy="14" r="14" transform="translate(879 3123)" fill="#fff"/>
          <circle id="타원_189-4" data-name="타원 189" cx="14" cy="14" r="14" transform="translate(922 3123)" fill="#fff"/>
          <circle id="타원_190-4" data-name="타원 190" cx="14" cy="14" r="14" transform="translate(965 3123)" fill="#fff"/>
          <circle id="타원_191-4" data-name="타원 191" cx="14" cy="14" r="14" transform="translate(1008 3123)" fill="#fff"/>
          <circle id="타원_192-4" data-name="타원 192" cx="14" cy="14" r="14" transform="translate(1051 3123)" fill="#fff"/>
          <circle id="타원_193-4" data-name="타원 193" cx="14" cy="14" r="14" transform="translate(1094 3123)" fill="#fff"/>
          <circle id="타원_194-4" data-name="타원 194" cx="14" cy="14" r="14" transform="translate(1137 3123)" fill="#fff"/>
          <circle id="타원_195-4" data-name="타원 195" cx="14" cy="14" r="14" transform="translate(1180 3123)" fill="#fff"/>
          <circle id="타원_196-4" data-name="타원 196" cx="14" cy="14" r="14" transform="translate(1223 3123)" fill="#fff"/>
          <circle id="타원_197-4" data-name="타원 197" cx="14" cy="14" r="14" transform="translate(1266 3123)" fill="#fff"/>
          <circle id="타원_198-4" data-name="타원 198" cx="14" cy="14" r="14" transform="translate(1309 3123)" fill="#fff"/>
        </g>
        <g id="A124_Home_House_Real_Estate" data-name="A124 ,Home ,House ,Real ,Estate" transform="translate(-2604.462 -3015.292)">
          <g id="그룹_690" data-name="그룹 690">
            <path id="패스_4681" data-name="패스 4681" d="M3032.088,6137.328h3.576a2.519,2.519,0,0,0,2.408,1.7h5.159a2.644,2.644,0,0,0,2.613-2.588,2.6,2.6,0,0,0-2.613-2.588h-3.577a2.519,2.519,0,0,0-2.407-1.7h-5.159a2.645,2.645,0,0,0-2.614,2.588A2.6,2.6,0,0,0,3032.088,6137.328Zm0-3.406h5.159c1.169,0,.55,1.7,1.72,1.7h4.333a.852.852,0,0,1,0,1.7h-5.159c-1.17,0-.55-1.7-1.72-1.7h-4.333A.852.852,0,1,1,3032.088,6133.922Z" fill="#fff"/>
            <path id="패스_4682" data-name="패스 4682" d="M3012.279,6142.436a4.339,4.339,0,0,0,4.333-4.291,4.334,4.334,0,0,0-8.667,0A4.339,4.339,0,0,0,3012.279,6142.436Zm0-6.811a2.645,2.645,0,0,1,2.613,2.588,2.614,2.614,0,0,1-5.227,0A2.645,2.645,0,0,1,3012.279,6135.625Z" fill="#fff"/>
            <path id="패스_4683" data-name="패스 4683" d="M3044.95,6170.563h-.894v-5.993a.906.906,0,0,0-.894-.886h-.894v-6.81a1.25,1.25,0,0,0-.138-.477l-1.719-2.588a.908.908,0,0,0-1.445,0l-1.719,2.588a.976.976,0,0,0-.138.477v6.81h-.894V6150.54l3.3,1.294a.873.873,0,0,0,1.169-.817v-3.746a.837.837,0,0,0-.482-.749l-14.1-7.356a.886.886,0,0,0-.826,0l-14.444,7.424a.836.836,0,0,0-.481.749v3.746a.9.9,0,0,0,1.169.817l3.37-1.158v13.009H3014v-6.811a1.239,1.239,0,0,0-.138-.477l-1.719-2.588a.909.909,0,0,0-1.444,0l-1.72,2.588a.976.976,0,0,0-.137.477v6.811h-.9a.906.906,0,0,0-.894.885v5.993h-.894a.852.852,0,0,0,0,1.7h38.724C3046.051,6172.266,3046.051,6170.563,3044.95,6170.563Zm-5.983-13.349.894-1.294.893,1.294v6.539h-1.719v-6.539Zm-10.043,9.059H3022.6v-7.083a3.164,3.164,0,0,1,6.328,0Zm-3.164-11.919a4.878,4.878,0,0,0-4.883,4.836v7.083h-4.334v-16.21l9.148-4.018,8.942,3.814v16.482h-3.989v-7.151A4.878,4.878,0,0,0,3025.76,6154.354Zm-13.688-6.538,13.619-7.015,13.413,7.015v1.975l-3.3-1.294-9.767-4.155a1.188,1.188,0,0,0-.688,0l-9.9,4.427-3.371,1.09Zm-1.513,9.4.894-1.294.894,1.294v6.539h-1.719v-6.539Zm-1.719,13.349v-5.108h6.052v1.7a.906.906,0,0,0,.9.885H3035.6a.848.848,0,0,0,.825-.885v-1.7h6.053v5.108Z" fill="#fff"/>
          </g>
        </g>
      </g>
      <text id="보호대상아동추세" transform="translate(960 3282)" fill="#fff" font-size="45" font-family="NanumSquareNeoTTF-dEb, NanumSquare Neo ExtraBold"><tspan x="-170.64" y="0">보호대상아동</tspan><tspan y="0" fill="#ffc400">추세</tspan></text>
      <text id="보호대상아동_발생은_경기의_영향을_많이_받고_있으며_아동보호는_밀입양위주의_입양문화_혈연중심의_가족문화_등으로_인해_입양·가정위탁보다는_아동시설보호_위주로_이루어져_있음" data-name="보호대상아동 발생은 경기의 영향을 많이 받고 있으며, 아동보호는 밀입양위주의 입양문화, 혈연중심의 가족문화 등으로 인해 입양·가정위탁보다는 아동시설보호 위주로 이루어져 있음" transform="translate(960 3320)" fill="#fff" font-size="14" font-family="NanumSquareNeoTTF-bRg, NanumSquare Neo Regular"><tspan x="-533.378" y="0">보호대상아동 발생은 경기의 영향을 많이 받고 있으며, 아동보호는 밀입양위주의 입양문화, 혈연중심의 가족문화 등으로 인해 입양·가정위탁보다는 아동시설보호 위주로 이루어져 있음</tspan></text>
      <g id="box-5" data-name="box">
        <rect id="text-number-5" data-name="text-number" width="118" height="42" rx="10" transform="translate(1402 3374)" fill="#fff"/>
        <text id="_2000_s" data-name="2000&apos;s" transform="translate(571 3403)" fill="#fff" font-size="25" font-family="NanumSquareNeoTTF-cBd, NanumSquare Neo Bold"><tspan x="-46.088" y="0">2000&apos;s</tspan></text>
        <text id="_9_085명" data-name="9,085명" transform="translate(1512 3402)" fill="#6b6b6b" font-size="25" font-family="NanumSquareNeoTTF-cBd, NanumSquare Neo Bold"><tspan x="-100.8" y="0">9,085명</tspan></text>
        <circle id="타원_202" data-name="타원 202" cx="4" cy="4" r="4" transform="translate(472 3391)" fill="#fff"/>
        <circle id="타원_183-3" data-name="타원 183" cx="14" cy="14" r="14" transform="translate(707 3381)" fill="#51c3ff"/>
        <circle id="타원_185-5" data-name="타원 185" cx="14" cy="14" r="14" transform="translate(750 3381)" fill="#51c3ff"/>
        <circle id="타원_186-5" data-name="타원 186" cx="14" cy="14" r="14" transform="translate(793 3381)" fill="#51c3ff"/>
        <circle id="타원_187-5" data-name="타원 187" cx="14" cy="14" r="14" transform="translate(836 3381)" fill="#51c3ff"/>
        <circle id="타원_188-5" data-name="타원 188" cx="14" cy="14" r="14" transform="translate(879 3381)" fill="#51c3ff"/>
        <circle id="타원_189-5" data-name="타원 189" cx="14" cy="14" r="14" transform="translate(922 3381)" fill="#51c3ff"/>
        <circle id="타원_190-5" data-name="타원 190" cx="14" cy="14" r="14" transform="translate(965 3381)" fill="#51c3ff"/>
        <circle id="타원_191-5" data-name="타원 191" cx="14" cy="14" r="14" transform="translate(1008 3381)" fill="#51c3ff"/>
        <circle id="타원_192-5" data-name="타원 192" cx="14" cy="14" r="14" transform="translate(1051 3381)" fill="#51c3ff"/>
        <circle id="타원_193-5" data-name="타원 193" cx="14" cy="14" r="14" transform="translate(1094 3381)" fill="#51c3ff"/>
        <circle id="타원_194-5" data-name="타원 194" cx="14" cy="14" r="14" transform="translate(1137 3381)" fill="#51c3ff"/>
        <circle id="타원_195-5" data-name="타원 195" cx="14" cy="14" r="14" transform="translate(1180 3381)" fill="#51c3ff"/>
        <circle id="타원_196-5" data-name="타원 196" cx="14" cy="14" r="14" transform="translate(1223 3381)" fill="#51c3ff"/>
        <circle id="타원_197-5" data-name="타원 197" cx="14" cy="14" r="14" transform="translate(1266 3381)" fill="#fff"/>
        <circle id="타원_198-5" data-name="타원 198" cx="14" cy="14" r="14" transform="translate(1309 3381)" fill="#fff"/>
        <path id="패스_4671-2" data-name="패스 4671" d="M14,0c.2,0-.4,28.4,0,28A14,14,0,0,1,14,0Z" transform="translate(1266 3381)" fill="#51c3ff"/>
        <g id="icon" transform="translate(-2402.99 1348.309)">
          <path id="패스_6985" data-name="패스 6985" d="M2843.644,2046.114a18.818,18.818,0,0,0-1.752-7.928c-.025-.055-.049-.11-.074-.164-.221-.465-.452-.922-.708-1.365-.046-.08-.091-.161-.138-.24-.218-.368-.451-.724-.691-1.074-.1-.144-.2-.286-.3-.427q-.326-.449-.676-.875c-.145-.176-.3-.346-.448-.516-.136-.154-.277-.305-.418-.454-.262-.278-.533-.546-.811-.807q-.185-.172-.373-.341c-.293-.261-.6-.512-.906-.755-.145-.113-.289-.227-.437-.336-.2-.148-.4-.294-.611-.434q-.417-.282-.847-.542c-.189-.114-.381-.223-.574-.331-.294-.163-.591-.321-.894-.469-.18-.088-.363-.171-.546-.253-.308-.138-.619-.27-.935-.392-.138-.053-.275-.108-.415-.159-.4-.141-.8-.268-1.2-.384-.115-.033-.229-.067-.344-.1-.442-.117-.891-.218-1.344-.3-.1-.02-.207-.038-.31-.056-.473-.081-.951-.147-1.434-.192-.075-.008-.151-.012-.226-.018-.517-.042-1.038-.069-1.564-.069s-1.048.027-1.565.069c-.075.006-.151.01-.226.018-.483.045-.961.111-1.434.192-.1.018-.207.036-.31.056-.453.085-.9.186-1.344.3-.115.031-.229.065-.344.1-.405.116-.806.243-1.2.384-.14.051-.279.106-.417.159-.316.122-.626.254-.934.392-.184.083-.368.166-.549.254-.3.148-.6.305-.89.468-.193.108-.386.217-.575.331q-.431.26-.846.541c-.208.141-.411.287-.613.436-.147.108-.29.221-.433.333q-.468.366-.911.758-.187.167-.37.338-.42.393-.815.812c-.14.148-.279.3-.414.449-.152.171-.3.343-.45.519q-.349.426-.675.872-.156.213-.306.431c-.24.349-.473.7-.69,1.071-.048.08-.093.161-.139.242-.256.443-.487.9-.708,1.365-.025.054-.05.109-.074.164a18.828,18.828,0,0,0-1.752,7.927c0,.05.005.1.007.148a4.82,4.82,0,0,0,.562,7.389v3.02a5.924,5.924,0,0,0,5.917,5.917h2.149a16.453,16.453,0,0,0,20.7,0h2.287a5.923,5.923,0,0,0,5.916-5.917v-3.02a4.818,4.818,0,0,0,.43-7.51Zm-.431,4.994a3.1,3.1,0,0,1-2.334,1.713,16.016,16.016,0,0,0,0-6.16,3.169,3.169,0,0,1,1.375.591c.021.016.046.025.069.04a.879.879,0,0,0,.15.081,3.078,3.078,0,0,1,.738,3.735Zm-1.69,5.563a4.231,4.231,0,0,1-4.226,4.226h-.5a16.5,16.5,0,0,0,3.657-6.34,4.824,4.824,0,0,0,1.067-.134Zm-9.5,5.917a14.71,14.71,0,0,1-14.715,0,14.922,14.922,0,0,1-1.3-.846q-.552-.4-1.066-.845a14.853,14.853,0,0,1-4.368-6.582c-.089-.272-.16-.55-.233-.829s-.15-.54-.205-.817a14.722,14.722,0,0,1,0-5.84c0-.017,0-.035.008-.052.055-.274.134-.538.2-.806l0-.012c.07-.265.137-.53.221-.789l.014-.038c.142-.435.3-.862.481-1.278.143-.329.3-.649.466-.965s.333-.6.511-.885c.043-.07.084-.142.129-.211.326-.1.648-.206.98-.3-.022.165-.04.334-.06.5-.032.279-.063.559-.088.845s-.042.561-.06.845c-.042.666-.072,1.343-.072,2.042a.837.837,0,0,0,.081.357.824.824,0,0,0,.21.281.843.843,0,0,0,.554.208.773.773,0,0,0,.118-.009,50.907,50.907,0,0,0,6.784-1.53c1.244-.368,2.568-.816,3.893-1.349.648-.26,1.294-.542,1.933-.845.559-.265,1.11-.545,1.649-.845a21.678,21.678,0,0,0,2.493-1.608,40.814,40.814,0,0,1,6.586,1.4c.043.067.083.136.124.205.176.285.349.572.505.87s.312.618.451.936a14.613,14.613,0,0,1,.52,1.366l0,.007c.084.26.151.528.221.794l.007.028c.071.272.148.541.2.819l0,.011a14.711,14.711,0,0,1,0,5.8c-.055.277-.131.547-.2.819s-.14.554-.227.823a14.842,14.842,0,0,1-4.384,6.627q-.513.447-1.065.845A15.07,15.07,0,0,1,2832.019,2062.588Zm-24.082-5.917v-2.248a4.828,4.828,0,0,0,.927.126,16.493,16.493,0,0,0,3.66,6.348h-.36A4.231,4.231,0,0,1,2807.937,2056.671Zm.558-16.626c.051-.136.1-.27.158-.4.188-.459.386-.912.608-1.351.145-.288.291-.575.451-.853.073-.125.153-.243.228-.366.2-.331.414-.657.638-.973.064-.089.13-.175.2-.263.255-.344.52-.678.8-1l.156-.179q.468-.528.976-1.016c.029-.028.058-.058.088-.086a17.279,17.279,0,0,1,3.548-2.595c.111-.06.221-.119.333-.177h0q.61-.318,1.247-.588c.039-.017.079-.03.119-.046.11-.046.222-.087.333-.13q.54-.211,1.1-.388c.155-.049.312-.1.469-.139.34-.1.684-.181,1.032-.257.174-.038.347-.078.523-.11.358-.067.72-.117,1.085-.161.163-.019.323-.046.487-.061.527-.048,1.058-.078,1.6-.078s1.069.03,1.6.078c.163.015.324.042.486.061.365.044.728.095,1.086.161.176.032.348.072.522.11q.523.112,1.035.257.234.066.465.139c.373.117.74.248,1.1.389.109.043.22.083.328.128a17.233,17.233,0,0,1,5.25,3.409c.029.026.056.054.084.081q.51.491.98,1.021l.153.175q.419.487.8,1.007c.064.086.13.171.192.259.225.317.437.644.641.977.074.121.154.239.225.362.162.279.308.568.454.858.221.437.419.889.606,1.346q.083.2.161.41c.156.412.3.832.422,1.261.016.053.032.106.047.16-.986-.415-2.011-.779-3.055-1.115-.447-.143-.9-.28-1.352-.408-.49-.138-.98-.277-1.482-.4-1.028-.248-2.084-.449-3.151-.623-.347-.057-.691-.121-1.041-.17-.371-.052-.749-.088-1.124-.131a47.8,47.8,0,0,0-5.432-.318,46.369,46.369,0,0,0-9.433.958c-.3.062-.6.125-.9.193-.139.033-.282.058-.421.091-.162.04-.32.087-.481.128-.336.085-.669.176-1,.27-.456.128-.905.265-1.351.408-1.045.336-2.07.7-3.056,1.115.014-.05.029-.1.044-.149C2808.192,2040.888,2808.336,2040.463,2808.5,2040.045Zm33.43,5.089,0,.028a4.249,4.249,0,0,0-.469-.13,4.648,4.648,0,0,0-1-.127l0-.017c-.132-.428-.289-.843-.454-1.255-.14-.351-.3-.693-.46-1.032.374.142.744.288,1.109.441s.747.322,1.113.492c.029.189.037.383.06.573C2841.858,2044.449,2841.906,2044.788,2841.925,2045.134Zm-34.442-.824c.027-.259.042-.521.08-.776.517-.24,1.037-.477,1.573-.693.212-.086.435-.158.65-.24-.182.376-.351.758-.5,1.149s-.292.755-.412,1.145h0a4.489,4.489,0,0,0-.479.042c-.122.015-.243.032-.362.057a4.776,4.776,0,0,0-.635.168C2807.41,2044.874,2807.453,2044.594,2807.483,2044.31Zm14.393-1.467c-.957.324-1.889.6-2.766.845-1.916.526-3.559.861-4.542,1.04.012-.352.031-.7.054-1.04.019-.286.044-.566.07-.845s.057-.567.09-.845c.039-.317.08-.629.126-.934a44.4,44.4,0,0,1,9.754-1.065c1.1,0,2.2.052,3.277.128a28.041,28.041,0,0,1-3.8,1.871C2823.385,2042.307,2822.625,2042.589,2821.876,2042.843Zm-15.629,5.493a3.25,3.25,0,0,1,1.541-1.488c.05-.022.1-.039.153-.058s.123-.039.185-.058c.04-.012.08-.026.121-.037.064-.015.129-.023.194-.034a16.026,16.026,0,0,0,0,6.146,3.073,3.073,0,0,1-.5-.154,3.105,3.105,0,0,1-1.69-4.317Z" fill="#fff"/>
          <path id="패스_6986" data-name="패스 6986" d="M2817.467,2036.861a.846.846,0,0,0,.739.3,63.123,63.123,0,0,1,12.775,0,.864.864,0,0,0,.088,0,.846.846,0,0,0,.651-.306.91.91,0,0,0,.076-.119.84.84,0,0,0,.082-.663c-.03-.1-.067-.2-.1-.3a9.554,9.554,0,0,0-.475-1.161,9.055,9.055,0,0,0-.547-.972,8.662,8.662,0,0,0-.725-.951,8.108,8.108,0,0,0-1.039-.995,7.028,7.028,0,0,0-4.4-1.586,6.831,6.831,0,0,0-2.792.6,7.392,7.392,0,0,0-1.217.688,7.842,7.842,0,0,0-.894.731,8.67,8.67,0,0,0-1.85,2.567,9.459,9.459,0,0,0-.457,1.152c-.024.074-.052.145-.074.22a.842.842,0,0,0,.12.722C2817.443,2036.821,2817.452,2036.843,2817.467,2036.861Zm1.935-1.506c.08-.164.176-.314.266-.468a6.917,6.917,0,0,1,.8-1.111,6.073,6.073,0,0,1,1.631-1.308,5.273,5.273,0,0,1,1.8-.607,4.774,4.774,0,0,1,2.683.366,5.787,5.787,0,0,1,1.688,1.083c.141.13.273.274.4.419a6.929,6.929,0,0,1,.808,1.095c.1.174.211.345.3.531-.675-.055-1.359-.09-2.045-.123-2.029-.1-4.085-.1-6.116-.011C2820.878,2035.255,2820.135,2035.3,2819.4,2035.355Z" fill="#fff"/>
          <path id="패스_6987" data-name="패스 6987" d="M2818.812,2049.064a.7.7,0,0,0-.694.693v1.377a.693.693,0,0,0,1.387,0v-1.377A.7.7,0,0,0,2818.812,2049.064Z" fill="#fff"/>
          <path id="패스_6988" data-name="패스 6988" d="M2830.772,2049.064a.7.7,0,0,0-.694.693v1.377a.694.694,0,0,0,1.387,0v-1.377A.7.7,0,0,0,2830.772,2049.064Z" fill="#fff"/>
          <path id="패스_6989" data-name="패스 6989" d="M2826.785,2049.914a.762.762,0,0,0-1.048.244,1.225,1.225,0,0,1-2.014,0,.761.761,0,0,0-1.293.8,2.708,2.708,0,0,0,4.6,0A.762.762,0,0,0,2826.785,2049.914Z" fill="#fff"/>
        </g>
      </g>
      <g id="box-6" data-name="box">
        <rect id="text-number-6" data-name="text-number" width="118" height="42" rx="10" transform="translate(1402 3436)" fill="#fff"/>
        <text id="_2010_s" data-name="2010&apos;s" transform="translate(571 3465)" fill="#fff" font-size="25" font-family="NanumSquareNeoTTF-cBd, NanumSquare Neo Bold"><tspan x="-43" y="0">2010&apos;s</tspan></text>
        <text id="_8_590명" data-name="8,590명" transform="translate(1512 3464)" fill="#6b6b6b" font-size="25" font-family="NanumSquareNeoTTF-cBd, NanumSquare Neo Bold"><tspan x="-100.8" y="0">8,590명</tspan></text>
        <circle id="타원_203" data-name="타원 203" cx="4" cy="4" r="4" transform="translate(472 3453)" fill="#fff"/>
        <circle id="타원_183-4" data-name="타원 183" cx="14" cy="14" r="14" transform="translate(707 3443)" fill="#51c3ff"/>
        <circle id="타원_185-6" data-name="타원 185" cx="14" cy="14" r="14" transform="translate(750 3443)" fill="#51c3ff"/>
        <circle id="타원_186-6" data-name="타원 186" cx="14" cy="14" r="14" transform="translate(793 3443)" fill="#51c3ff"/>
        <circle id="타원_187-6" data-name="타원 187" cx="14" cy="14" r="14" transform="translate(836 3443)" fill="#51c3ff"/>
        <circle id="타원_188-6" data-name="타원 188" cx="14" cy="14" r="14" transform="translate(879 3443)" fill="#51c3ff"/>
        <circle id="타원_189-6" data-name="타원 189" cx="14" cy="14" r="14" transform="translate(922 3443)" fill="#51c3ff"/>
        <circle id="타원_190-6" data-name="타원 190" cx="14" cy="14" r="14" transform="translate(965 3443)" fill="#51c3ff"/>
        <circle id="타원_191-6" data-name="타원 191" cx="14" cy="14" r="14" transform="translate(1008 3443)" fill="#51c3ff"/>
        <circle id="타원_192-6" data-name="타원 192" cx="14" cy="14" r="14" transform="translate(1051 3443)" fill="#51c3ff"/>
        <circle id="타원_193-6" data-name="타원 193" cx="14" cy="14" r="14" transform="translate(1094 3443)" fill="#51c3ff"/>
        <circle id="타원_194-6" data-name="타원 194" cx="14" cy="14" r="14" transform="translate(1137 3443)" fill="#51c3ff"/>
        <circle id="타원_195-6" data-name="타원 195" cx="14" cy="14" r="14" transform="translate(1180 3443)" fill="#51c3ff"/>
        <circle id="타원_196-6" data-name="타원 196" cx="14" cy="14" r="14" transform="translate(1223 3443)" fill="#51c3ff"/>
        <circle id="타원_197-6" data-name="타원 197" cx="14" cy="14" r="14" transform="translate(1266 3443)" fill="#fff"/>
        <circle id="타원_198-6" data-name="타원 198" cx="14" cy="14" r="14" transform="translate(1309 3443)" fill="#fff"/>
        <g id="icon-2" data-name="icon" transform="translate(-2542.07 1410.561)">
          <path id="패스_6990" data-name="패스 6990" d="M2957.387,2047.247h-.154a.7.7,0,0,0-.693.694v1.683a.7.7,0,0,0,.693.694h.154a.7.7,0,0,0,.694-.694v-1.683A.7.7,0,0,0,2957.387,2047.247Z" fill="#fff"/>
          <path id="패스_6991" data-name="패스 6991" d="M2970.677,2047.247h-.154a.7.7,0,0,0-.694.694v1.683a.7.7,0,0,0,.694.694h.154a.7.7,0,0,0,.694-.694v-1.683A.7.7,0,0,0,2970.677,2047.247Z" fill="#fff"/>
          <path id="패스_6992" data-name="패스 6992" d="M2966.17,2048.192a.847.847,0,0,0-1.164.271,1.361,1.361,0,0,1-2.238,0,.846.846,0,0,0-1.437.894,3.009,3.009,0,0,0,5.111,0A.846.846,0,0,0,2966.17,2048.192Z" fill="#fff"/>
          <path id="패스_6993" data-name="패스 6993" d="M2990.076,2028.423a17.572,17.572,0,0,0-13.16,2.564,19.481,19.481,0,0,0-26.489-.189,17.648,17.648,0,0,0-12.866-2.377,4.228,4.228,0,0,0-2.678,1.638,3.48,3.48,0,0,0-.405,2.843,39.144,39.144,0,0,0,1.434,4.835,3.568,3.568,0,0,0,1.943,2.032,3.071,3.071,0,0,0,1.123.208,4.578,4.578,0,0,0,2.144-.608,19.127,19.127,0,0,1,4.34-1.625,19.352,19.352,0,0,0-1.012,3.129,5.369,5.369,0,0,0,1.287,10.295,18.349,18.349,0,0,0,36.141.024,5.37,5.37,0,0,0,.725-10.551,19.327,19.327,0,0,0-1.011-3.031,19.537,19.537,0,0,1,4.906,1.759,4.576,4.576,0,0,0,2.144.608,3.078,3.078,0,0,0,1.124-.208,3.559,3.559,0,0,0,1.932-2,39.115,39.115,0,0,0,1.444-4.863,3.48,3.48,0,0,0-.405-2.843A4.228,4.228,0,0,0,2990.076,2028.423Zm-.921,9.77a2.272,2.272,0,0,1-1.86-.315,21.206,21.206,0,0,0-6.453-2.126l-.2-.036a19.673,19.673,0,0,0-2.521-3.506,16.16,16.16,0,0,1,11.667-2.12,2.639,2.639,0,0,1,1.538.909,1.839,1.839,0,0,1,.167,1.512,38.724,38.724,0,0,1-1.383,4.663A1.945,1.945,0,0,1,2989.155,2038.193Zm-7.039,11.047c.028-.413.047-.829.047-1.249a18.285,18.285,0,0,0-.888-5.635.238.238,0,0,1,.026,0,3.491,3.491,0,0,1,.815,6.887Zm-2.128,1.815a16.464,16.464,0,0,1-32.35.038c-.06-.309-.1-.623-.144-.938s-.074-.63-.1-.949c-.03-.4-.062-.805-.062-1.215a16.377,16.377,0,0,1,.845-5.174c.068-.206.147-.406.223-.608.2,0,.39-.006.588-.006.472,0,.949,0,1.405-.015,12.113-.417,18.607-5.539,20.673-7.52,1.223,1.581,4.118,5.011,7.332,6.663.2.1.4.19.6.277.054.127.093.261.143.39.115.293.227.587.326.888a16.4,16.4,0,0,1,.819,5.1c0,.394-.032.78-.059,1.168-.023.319-.052.636-.093.951S2980.047,2050.743,2979.988,2051.055Zm-37.012-5.206a3.493,3.493,0,0,1,3.366-3.483,18.266,18.266,0,0,0-.885,5.625c0,.4.017.8.043,1.2A3.489,3.489,0,0,1,2942.976,2045.849Zm37.521-5.486a7.433,7.433,0,0,1-1.3-.527,12.6,12.6,0,0,1-1.783-1.128,27.451,27.451,0,0,1-4.5-4.442c-.436-.534-.8-1.012-1.062-1.388a.849.849,0,0,0-.656-.359.785.785,0,0,0-.684.3l-.081.09c-.771.842-7.316,7.491-21.278,7.612q-.516,0-1.046,0c-.339,0-.685-.016-1.032-.029-.258-.009-.511-.015-.773-.028a17.606,17.606,0,0,1,1.227-3.128c.162-.321.324-.643.5-.952.193-.333.4-.654.615-.972a17.992,17.992,0,0,1,1.289-1.691c.234-.273.469-.544.718-.8s.485-.479.735-.71a17.813,17.813,0,0,1,24.788.406q.374.37.725.761c.245.272.486.546.714.832.283.356.555.722.811,1.1.215.316.419.641.614.972.183.31.35.631.514.953a17.634,17.634,0,0,1,1.277,3.227C2980.716,2040.434,2980.606,2040.4,2980.5,2040.363Zm-42.021-2.166a1.931,1.931,0,0,1-.981-1.051,38.563,38.563,0,0,1-1.373-4.635,1.843,1.843,0,0,1,.162-1.505,2.608,2.608,0,0,1,1.561-.918,17.531,17.531,0,0,1,3.121-.284,15.994,15.994,0,0,1,8.218,2.214,19.67,19.67,0,0,0-2.761,3.79,21.4,21.4,0,0,0-6.1,2.07A2.277,2.277,0,0,1,2938.476,2038.2Z" fill="#fff"/>
        </g>
      </g>
      <g id="box-7" data-name="box">
        <rect id="text-number-7" data-name="text-number" width="118" height="42" rx="10" transform="translate(1402 3498)" fill="#fff"/>
        <text id="_2019_s" data-name="2019&apos;s" transform="translate(571 3527)" fill="#fff" font-size="25" font-family="NanumSquareNeoTTF-cBd, NanumSquare Neo Bold"><tspan x="-42.713" y="0">2019&apos;s</tspan></text>
        <text id="_4_047명" data-name="4,047명" transform="translate(1512 3526)" fill="#6b6b6b" font-size="25" font-family="NanumSquareNeoTTF-cBd, NanumSquare Neo Bold"><tspan x="-99.7" y="0">4,047명</tspan></text>
        <circle id="타원_204" data-name="타원 204" cx="4" cy="4" r="4" transform="translate(472 3515)" fill="#fff"/>
        <circle id="타원_183-5" data-name="타원 183" cx="14" cy="14" r="14" transform="translate(707 3505)" fill="#51c3ff"/>
        <circle id="타원_185-7" data-name="타원 185" cx="14" cy="14" r="14" transform="translate(750 3505)" fill="#51c3ff"/>
        <circle id="타원_186-7" data-name="타원 186" cx="14" cy="14" r="14" transform="translate(793 3505)" fill="#51c3ff"/>
        <circle id="타원_187-7" data-name="타원 187" cx="14" cy="14" r="14" transform="translate(836 3505)" fill="#51c3ff"/>
        <circle id="타원_188-7" data-name="타원 188" cx="14" cy="14" r="14" transform="translate(879 3505)" fill="#51c3ff"/>
        <circle id="타원_189-7" data-name="타원 189" cx="14" cy="14" r="14" transform="translate(922 3505)" fill="#51c3ff"/>
        <circle id="타원_190-7" data-name="타원 190" cx="14" cy="14" r="14" transform="translate(965 3505)" fill="#fff"/>
        <circle id="타원_191-7" data-name="타원 191" cx="14" cy="14" r="14" transform="translate(1008 3505)" fill="#fff"/>
        <circle id="타원_192-7" data-name="타원 192" cx="14" cy="14" r="14" transform="translate(1051 3505)" fill="#fff"/>
        <circle id="타원_193-7" data-name="타원 193" cx="14" cy="14" r="14" transform="translate(1094 3505)" fill="#fff"/>
        <circle id="타원_194-7" data-name="타원 194" cx="14" cy="14" r="14" transform="translate(1137 3505)" fill="#fff"/>
        <circle id="타원_195-7" data-name="타원 195" cx="14" cy="14" r="14" transform="translate(1180 3505)" fill="#fff"/>
        <circle id="타원_196-7" data-name="타원 196" cx="14" cy="14" r="14" transform="translate(1223 3505)" fill="#fff"/>
        <circle id="타원_197-7" data-name="타원 197" cx="14" cy="14" r="14" transform="translate(1266 3505)" fill="#fff"/>
        <circle id="타원_198-7" data-name="타원 198" cx="14" cy="14" r="14" transform="translate(1309 3505)" fill="#fff"/>
        <g id="icon-3" data-name="icon" transform="translate(-2723.349 1471.399)">
          <path id="패스_6994" data-name="패스 6994" d="M3146.821,2050.572a.8.8,0,0,0-1.093.255,1.278,1.278,0,0,1-2.1,0,.794.794,0,1,0-1.348.839,2.824,2.824,0,0,0,4.8,0A.8.8,0,0,0,3146.821,2050.572Z" fill="#fff"/>
          <path id="패스_6995" data-name="패스 6995" d="M3137.168,2046.443a2.7,2.7,0,0,0-2.693,2.693v.442a.845.845,0,1,0,1.69,0v-.442a1,1,0,0,1,2.006,0v.442a.846.846,0,0,0,1.691,0v-.442A2.7,2.7,0,0,0,3137.168,2046.443Z" fill="#fff"/>
          <path id="패스_6996" data-name="패스 6996" d="M3152.186,2046.443a2.7,2.7,0,0,0-2.693,2.693v.442a.845.845,0,1,0,1.69,0v-.442a1,1,0,0,1,2.006,0v.442a.845.845,0,0,0,1.691,0v-.442A2.7,2.7,0,0,0,3152.186,2046.443Z" fill="#fff"/>
          <path id="패스_6997" data-name="패스 6997" d="M3165.309,2047.4a20.586,20.586,0,0,0-1.992-7.447,7.963,7.963,0,0,0-7.9-13.829,4.9,4.9,0,0,0-6.385,2.471,20.469,20.469,0,0,0-8.181-.173,4.9,4.9,0,0,0-6.3-2.3,7.961,7.961,0,0,0-8.6,13.36,20.6,20.6,0,0,0-2.227,7.915,1.054,1.054,0,0,0,.087.474,4.98,4.98,0,0,0-.687,2.5,5.051,5.051,0,0,0,5.045,5.046c.016,0,.031,0,.048,0a17.194,17.194,0,0,0,32.6,0c.016,0,.031,0,.047,0a5.051,5.051,0,0,0,5.045-5.046,4.968,4.968,0,0,0-.687-2.5A1.041,1.041,0,0,0,3165.309,2047.4Zm-35.745,6.382a15.64,15.64,0,0,1-.5-3.638c0-.08-.009-.161-.009-.24a15.437,15.437,0,0,1,.507-3.853c0-.015.006-.03.01-.045a15.415,15.415,0,0,1,.845-2.408,3.925,3.925,0,0,1,3.36-1.822h.083c.787.013,1.55.043,2.275.072,3.272.13,5.853.231,7.15-1.294.342-.4.61-.75.836-1.041a.568.568,0,1,1,1.117,0c.226.291.494.639.836,1.041,1.3,1.525,3.877,1.424,7.15,1.294.725-.029,1.488-.059,2.275-.072h.083a3.83,3.83,0,0,1,2.621.972,15.461,15.461,0,0,1,1.265,3.258c0,.015.006.03.01.045a15.436,15.436,0,0,1,.507,3.853c0,.079-.007.16-.008.24a15.63,15.63,0,0,1-.5,3.638,15.444,15.444,0,0,1-29.908,0Zm-4.693-20.68a5.82,5.82,0,0,1,7.761-5.5,4.86,4.86,0,0,0-.736,4.782,21.12,21.12,0,0,0-4.865,5.248A5.824,5.824,0,0,1,3124.871,2033.1Zm11.608-5.238c.083,0,.161.017.242.024a2.759,2.759,0,0,1,1.935,1.051q-.492.146-.974.314c-.341.12-.677.25-1.01.386s-.661.283-.985.436a21.02,21.02,0,0,0-1.934,1.041,2.765,2.765,0,0,1,1.673-3.042A2.754,2.754,0,0,1,3136.479,2027.864Zm-8.136,11.717c.183-.315.377-.622.577-.925a18.917,18.917,0,0,1,4.161-4.483c.289-.224.575-.45.876-.657s.629-.4.949-.6c.5-.3,1.013-.584,1.541-.839.329-.159.666-.3,1-.441s.662-.268,1-.385c.252-.087.507-.166.763-.242.362-.108.727-.2,1.1-.289.354-.082.708-.165,1.069-.227a18.027,18.027,0,0,1,7.2.2c.37.083.737.171,1.1.276.381.11.76.224,1.131.358.213.077.419.17.629.254.34.137.68.274,1.011.43s.673.337,1,.518c.379.208.747.433,1.111.666q.5.322.984.675c.3.222.6.444.889.683a18.93,18.93,0,0,1,3.805,4.294c.2.317.4.643.581.972s.354.638.515.968a18.442,18.442,0,0,1,1.481,4.261,5.175,5.175,0,0,0-.6-.2l-.673-.792a7,7,0,0,0-2.046-2.994c-.137-.115-.28-.226-.431-.332a5.792,5.792,0,0,0-1.637-.814,6.1,6.1,0,0,0-1.353-.249c-.163-.012-.327-.024-.5-.024h-.123c-.241,0-.476.012-.713.019-.55.016-1.091.035-1.609.055-2.369.094-4.815.191-5.439-.543-.316-.372-.565-.694-.774-.964-.632-.819-1.178-1.525-2.247-1.525s-1.614.706-2.246,1.525c-.209.27-.458.592-.774.964-.625.735-3.071.638-5.44.543l-1.015-.038c-.427-.015-.862-.028-1.307-.036h-.122a6.405,6.405,0,0,0-.848.061,5.77,5.77,0,0,0-3.035,1.329c-.076.063-.153.125-.225.19a7.009,7.009,0,0,0-1.849,2.811l-.7.757a5.31,5.31,0,0,0-.906.275,18.506,18.506,0,0,1,1.606-4.543C3127.979,2040.2,3128.162,2039.891,3128.343,2039.581Zm24.907-11.693c.081-.007.159-.024.242-.024a2.754,2.754,0,0,1,2.585,3.76,20.927,20.927,0,0,0-2-1.189c-.316-.164-.635-.322-.959-.471s-.65-.284-.981-.415-.662-.252-1-.366A2.763,2.763,0,0,1,3153.25,2027.888Zm6.014-.622a5.83,5.83,0,0,1,3.031,10.814,21.079,21.079,0,0,0-4.466-5.147,4.887,4.887,0,0,0-.489-5.334A5.786,5.786,0,0,1,3159.264,2027.266Zm-33.756,21.2a3.271,3.271,0,0,1,2.019-1.29,16.769,16.769,0,0,0-.237,2.723c0,.095.008.192.01.287,0,.064-.01.129-.01.192a16.938,16.938,0,0,0,.319,3.223,3.269,3.269,0,0,1-2.1-5.135Zm35.919,5.135a16.86,16.86,0,0,0,.319-3.223c0-.063-.009-.128-.01-.191,0-.1.01-.193.01-.288a16.8,16.8,0,0,0-.24-2.741,3.277,3.277,0,0,1-.079,6.443Z" fill="#fff"/>
        </g>
      </g>
      <g id="vector" transform="translate(799.193 2545.503)">
        <g id="그룹_811" data-name="그룹 811" transform="translate(1011.228 834.185) rotate(-93)">
          <path id="패스_6888" data-name="패스 6888" d="M85.258,300.555H60.181c0,.277-.691-1.333-.691-1.056-1.522-15.982-3.068-32.116-7.285-47.3S40.813,222.63,30.156,213.834c-15-12.387-34.194-12-52.1-11.18-22.549,1.025-46.2,2.449-65.546,17.15-18.728,14.23-29.96,39.441-31.1,67.04l-23.753-1.6c.527-35.759,18.209-70.09,43.134-86.972,17.986-12.184,38.842-15.208,59.123-18.011,14.963-2.072,30.028-4.145,45.036-2.687s30.121,6.68,42.252,17.951c12.538,11.647,21.143,29.074,26.571,47.518A350.854,350.854,0,0,1,85.258,300.555Z" transform="translate(142.34 -177.089)" fill="#ff5646"/>
          <path id="패스_6889" data-name="패스 6889" d="M13.3,264.579H-2.273c0,.173-.428-.826-.428-.653-.944-9.925-1.905-19.945-4.525-29.377s-7.073-18.357-13.691-23.822c-9.316-7.693-21.239-7.45-32.354-6.944-14.005.636-28.695,1.523-40.706,10.652-11.632,8.835-18.605,24.493-19.317,41.634l-14.751-1c.328-22.208,11.31-43.525,26.786-54.008,11.173-7.572,24.122-9.445,36.722-11.188,9.289-1.285,18.646-2.574,27.966-1.666s18.7,4.145,26.239,11.145c7.788,7.234,13.13,18.059,16.5,29.511A218.274,218.274,0,0,1,13.3,264.579Z" transform="translate(176.938 -141.104)" fill="#ff5646"/>
          <path id="패스_6890" data-name="패스 6890" d="M-42.976,232.216c-2.993-20.222-19.135-35.006-35.4-35.214s-31.636,12.37-40.432,29.676C-93.334,228.845-68.456,230.052-42.976,232.216Z" transform="translate(199.285 -110.856)" fill="#ff5646"/>
        </g>
        <g id="그룹_812" data-name="그룹 812" transform="translate(752.806 75.395)">
          <path id="패스_6891" data-name="패스 6891" d="M27.457,32.481l-.271,10.941A845.359,845.359,0,0,0-109.63,47.984l-.643-10.91A850.8,850.8,0,0,1,27.457,32.481Z" transform="translate(110.273 -31.509)" fill="#ffb520"/>
          <path id="패스_6892" data-name="패스 6892" d="M26.449,47.451a944.867,944.867,0,0,1-136.194,7.524l.1-10.948a938.136,938.136,0,0,0,135.388-7.48Z" transform="translate(111.551 -19.313)" fill="#ffb520"/>
          <path id="패스_6893" data-name="패스 6893" d="M25.8,45.046l-.241,10.944a926.438,926.438,0,0,0-135.033,4.1l-.575-10.917A931.85,931.85,0,0,1,25.8,45.046Z" transform="translate(110.815 -0.799)" fill="#ffb520"/>
          <path id="패스_6936" data-name="패스 6936" d="M0,0,133.418-.7l-.041,10.948-133.418.7Z" transform="matrix(1, -0.013, 0.013, 1, 2.059, 67.228)" fill="#ffb520"/>
        </g>
        <g id="그룹_813" data-name="그룹 813" transform="translate(1005.255 233.944)">
          <path id="패스_6894" data-name="패스 6894" d="M-52.676,264.319a59.982,59.982,0,0,1-19.341-3.16,37.956,37.956,0,0,1-7.969-3.642,1.124,1.124,0,0,0-1.59.168,19.126,19.126,0,0,0-2.435,2.986,135.847,135.847,0,0,0-8.66,13.458c-1.238,2.237-2.247,4.6-3.41,6.881-.817,1.607-1.477,3.287-2.257,4.9a89.518,89.518,0,0,0-6.85,20.777c-.445,2.117-1.33,4.087-1.744,6.207-.2,1.029-1.149,1.686-1.867,2.411-.239.239-.646.1-.944-.127a1.972,1.972,0,0,1-.687-1.6,30.617,30.617,0,0,1,.592-9.727,112.3,112.3,0,0,1,6.129-18.328q2.3-5.212,4.932-10.24a65.717,65.717,0,0,1,6.119-10.144c.848-1.094,1.166-2.466,2.124-3.519,1.149-1.262,2.086-2.719,3.119-4.09.1-.137.27-.229.363-.369.6-.92,1.566-1.8,1.69-2.784.133-1.064-1.33-1.412-2.059-2.107A58.586,58.586,0,0,1-99.5,236.588a51.69,51.69,0,0,1-4.983-14.6,42.137,42.137,0,0,1,.075-16.423,36.273,36.273,0,0,1,2.261-7.374,28.925,28.925,0,0,1,5.547-8.277c1.584-1.614,3.109-3.41,5.2-4.5.728-.38.79-.793.5-1.512-.161-.4-.359-.783-.557-1.166a53.548,53.548,0,0,1-5.113-17.754,40.207,40.207,0,0,1,.725-13.838,25.677,25.677,0,0,1,3.978-9.727c.547-.763.947-1.628,1.46-2.415a30.568,30.568,0,0,1,6.659-6.768,26.325,26.325,0,0,1,5.876-4.138c2.664-1.166,5.233-2.545,8.154-3.068,1.426-.253,2.794-.773,4.244-1.029a36.565,36.565,0,0,1,11.293-.065,52.685,52.685,0,0,1,9.46,2.51,1.942,1.942,0,0,0,2.432-.684,22.052,22.052,0,0,1,4.822-4.214c2.25-1.409,4.313-3.143,6.638-4.395,3.3-1.778,6.591-3.622,10.336-4.508,1.724-.407,3.454-.858,5.175-1.31a20.936,20.936,0,0,1,5.352-.691c3.105,0,6.211-.044,9.313,0a39.912,39.912,0,0,1,20.09,5.842c1.926,1.146,3.817,2.343,5.64,3.642a38.917,38.917,0,0,1,8.475,8.625c1.385,1.861,2.579,3.861,3.9,5.773a8.2,8.2,0,0,1,1.091,2.6,2.689,2.689,0,0,1-.489,2.445c-1.481,1.888-2.24,1.912-3.752.051a12.019,12.019,0,0,1-1.139-1.713,44.786,44.786,0,0,0-9.946-12.442,45.329,45.329,0,0,0-9.368-5.924,44.476,44.476,0,0,0-4.3-1.758,36.776,36.776,0,0,0-6.755-1.57c-3.512-.6-7.063-.106-10.544-.752-1.611.318-3.266.188-4.874.417-2.548.363-5.062.941-7.593,1.426a.861.861,0,0,0-.25.058,29.671,29.671,0,0,1-4.72,2c-2.623.889-4.826,2.531-7.2,3.882a27.031,27.031,0,0,0-5.691,4.809c-.486.486-.414.927.178,1.235,1.375.711,2.787,1.348,4.138,2.1A56.212,56.212,0,0,1-21.4,140.655a33.585,33.585,0,0,1,7.781,11.17c2.353,5.848,2.534,11.793-.728,17.419a18.066,18.066,0,0,1-10.161,8.3,13.132,13.132,0,0,1-5.079.516c-5.274-.383-9.477-2.972-13.246-6.375-4.665-4.214-7.066-9.614-8.106-15.75a40.221,40.221,0,0,1-.41-8.5,23.053,23.053,0,0,1,.65-4.846c.763-2.893,1.173-5.92,2.828-8.526a1.14,1.14,0,0,0,.089-.243c.626-2.1,1.18-2.415-1.56-3.314a35.794,35.794,0,0,0-15.538-1.621,20.611,20.611,0,0,0-6.72,1.577,1.552,1.552,0,0,1-.469.212c-2.657.359-4.7,1.929-6.823,3.372a22.937,22.937,0,0,0-3.69,2.791,32.4,32.4,0,0,0-5.708,8.232,33.319,33.319,0,0,0-3.133,10.821c-.722,5.342.192,10.452,1.327,15.579a49.264,49.264,0,0,0,3.612,9.651c.339.746.691.882,1.426.619.325-.113.646-.236.961-.38a40.684,40.684,0,0,1,16.782-3.482,42.252,42.252,0,0,1,11.728,1.474A30.555,30.555,0,0,1-39.6,189.733a19.56,19.56,0,0,1,4.71,13.615,9.945,9.945,0,0,1-1.238,4.152c-1.464,2.781-3.841,4.614-6.341,6.293-1.365.917-3.1.992-4.679,1.341-6.4,1.416-12.3-.123-17.819-3.369a61.068,61.068,0,0,1-13.191-10.3,70.461,70.461,0,0,1-8.325-10.192c-.376-.575-.756-1.156-1.183-1.693a1.067,1.067,0,0,0-1.392-.315,7.646,7.646,0,0,0-1.949,1.245,28.865,28.865,0,0,0-8.085,14.631,40.051,40.051,0,0,0-.985,7.918,44.356,44.356,0,0,0,2.784,15.408A50.961,50.961,0,0,0-83.9,248.142c2.233,2.086,2.291,2.1,4.5-.055a72.277,72.277,0,0,1,5.9-5.359,33.579,33.579,0,0,0,4.644-3.666c3.933-2.411,7.651-5.14,11.974-6.943a88.522,88.522,0,0,1,9.764-3.208,42.655,42.655,0,0,1,15.1-1.17,22.272,22.272,0,0,1,11.806,4.09c2.76,2.038,4.983,4.494,5.708,8.02a11.609,11.609,0,0,1-.783,8.041,24.4,24.4,0,0,1-2.781,4.627,14.194,14.194,0,0,1-2.093,1.9c-2.893,2.3-5.8,4.6-9.45,5.653a25.13,25.13,0,0,0-2.391.964,11.379,11.379,0,0,1-4.963,1.262,2.731,2.731,0,0,0-1.005.2C-42.436,264.045-47.074,264.226-52.676,264.319Zm1.881-5.2a35.3,35.3,0,0,0,5.664-.431c2.124-.308,4.275-.441,6.409-.674a2.813,2.813,0,0,0,.982-.294,21.2,21.2,0,0,1,3.69-1.135,25.129,25.129,0,0,0,4.388-1.423,35.67,35.67,0,0,0,6.337-3.94,10.5,10.5,0,0,0,3.851-6.467,7.633,7.633,0,0,0-2.733-7.6,17.234,17.234,0,0,0-8.085-3.793,49.733,49.733,0,0,0-5.893-.568,40.832,40.832,0,0,0-5.127.335,42.423,42.423,0,0,0-12.477,2.859c-.643.243-1.31.421-1.949.674a32.683,32.683,0,0,0-3.088,1.3c-2.052,1.06-3.974,2.339-5.924,3.581A48.373,48.373,0,0,0-72,247.29a7.762,7.762,0,0,1-1.341,1.2c-1.484.831-2.305,2.295-3.447,3.451-.534.54-.4,1,.366,1.426a36.178,36.178,0,0,0,4.908,2.292A58.915,58.915,0,0,0-50.8,259.123ZM-46.27,149.69a25.026,25.026,0,0,0,.783,6.9,20.656,20.656,0,0,0,7.955,12.586c2.818,2.182,5.92,3.759,9.693,3.632,3.906-.13,7.059-1.348,8.742-5.158.243-.551.527-1.084.78-1.628a13.45,13.45,0,0,0,.363-10.548,30.109,30.109,0,0,0-8.82-12.507c-1.939-1.686-4.043-3.188-6.1-4.744a45.493,45.493,0,0,0-8.1-4.5c-.79-.38-1-.308-1.5.414a5.143,5.143,0,0,0-1.306,2.75,4.485,4.485,0,0,1-.472,1.467A33.237,33.237,0,0,0-46.27,149.69ZM-51.513,210.5a15.524,15.524,0,0,0,7.073-1.187,6.314,6.314,0,0,0,4.354-6.095,13.875,13.875,0,0,0-2.432-8.277,21.433,21.433,0,0,0-3.854-4.487,25.367,25.367,0,0,0-11.184-6.125c-2.1-.465-4.21-.807-6.324-1.166a15.537,15.537,0,0,0-3.543-.322c-2.647.174-5.277.633-7.924.766-2.664.133-4.894,1.5-7.333,2.261-.393.123-.363.575-.246.9a4.464,4.464,0,0,0,.581,1.146,91.8,91.8,0,0,0,6.909,8.66,75.24,75.24,0,0,0,8.909,7.815,29.54,29.54,0,0,0,6.614,3.971C-57.225,209.47-54.53,210.674-51.513,210.5Z" transform="translate(110.562 -110.618)" fill="#fff388"/>
        </g>
        <g id="그룹_814" data-name="그룹 814" transform="matrix(0.602, 0.799, -0.799, 0.602, 753.463, 1116.906)">
          <path id="패스_6895" data-name="패스 6895" d="M-172.225,164.017c-13.6-5-26.448-3.9-38.955,2.685.151.9.756,1.17,1.224,1.594,3.8,3.42,7.582,6.871,9.645,11.714,2.613,6.149,2.818,12.316-.246,18.356-1.354,2.668-3.783,4.391-6.331,5.807-4.59,2.551-9.169,2.377-13.735-.256-1.074-.622-2.079-1.525-3.437-1.6a.948.948,0,0,1-.657-.26,14.065,14.065,0,0,0-3.783-3.16c-1.891-1.334-2.6-3.413-3.064-5.534-1.843-8.536.291-16.05,5.876-22.7,1.293-1.539,2.562-3.088,4.094-4.593a15.429,15.429,0,0,0-4.559-2.548,38.917,38.917,0,0,0-8.831-2.811c-1.187-.192-2.387-.359-3.55-.664-4.812-1.259-9.758-.876-14.624-.951a42.709,42.709,0,0,0-8.6.934c-.315.062-.622.188-.94.226a1.536,1.536,0,0,1-1.69-.664c-.38-.766.335-1.17.852-1.5A9.494,9.494,0,0,1-261.384,157c4.833-1.532,9.751-2.743,14.86-2.565a51.871,51.871,0,0,1,10.917,1.064c5.855,1.457,11.6,3.188,16.635,6.669a1.991,1.991,0,0,0,2.61.034c4.867-3.369,10.462-4.969,16.133-6.16a51.717,51.717,0,0,1,18.944-.315,48.831,48.831,0,0,1,9.71,2.753,21.756,21.756,0,0,1,3.943,2.309,3.106,3.106,0,0,0,2.965.356c7.558-2.8,15.233-2.124,22.863-.54a60.266,60.266,0,0,1,15.756,5.226c3.232,1.683,6.635,3.242,9.34,5.643,2.213,1.96,4.7,3.649,6.4,6.355,1.283,2.035,3.331,3.724,4.641,5.879.711,1.166,1.57,2.216,2.309,3.338,1.518,2.309,2.466,4.956,3.9,7.336.4.664-.185,1.474-.742,1.864a1.692,1.692,0,0,1-2.223-.048,18.053,18.053,0,0,1-4.22-4.863A50.815,50.815,0,0,0-112.5,182.6a23.418,23.418,0,0,0-5.971-5.445c-1.1-.643-2.021-1.59-3.075-2.329a56.868,56.868,0,0,0-13.1-6.389,51.727,51.727,0,0,0-11.967-2.815,35.048,35.048,0,0,0-13.208.479c-1.6.421-1.655.51-1.081,2.09a12.8,12.8,0,0,1,1.016,6.738,10.647,10.647,0,0,1-4.412,7.193,14.61,14.61,0,0,1-7.08,2.921c-3.116.277-6.112-.164-8.1-3.058a2.182,2.182,0,0,0-1.07-.94,2.041,2.041,0,0,1-1.255-1.915,9.9,9.9,0,0,1,1.69-7.654,25.964,25.964,0,0,1,5.547-5.318A7,7,0,0,0-172.225,164.017Zm-32.686,27.132c.91-5.106-1.019-9.323-3.14-13.335a25.588,25.588,0,0,0-5.486-6.512c-1.5-1.389-2.1-1.45-3.53.038-3.759,3.923-7.045,8.184-8.379,13.574-1.081,4.381-.862,8.612,2.466,12.145,1.474,1.566,3.509,2.059,5.4,2.873,2.74,1.173,5.178.547,7.569-.8A10.322,10.322,0,0,0-204.911,191.149Zm31.041-11.119a10.128,10.128,0,0,0,6.915-2.309,7.18,7.18,0,0,0,1.717-8.167c-.6-1.276-.978-1.471-2.2-.633a54.075,54.075,0,0,0-6.207,4.545,7.924,7.924,0,0,0-2.192,3.4C-176.514,178.946-175.984,179.692-173.87,180.03Z" transform="translate(264.493 -154.417)" fill="#fff388"/>
        </g>
        <path id="패스_6896" data-name="패스 6896" d="M-184.724,202.5c6.676-.687,12.754-4.043,18.489-7.521,10.784-6.543,22.135-15.367,23.448-27.908.722-6.895-1.823-13.721-5.021-19.874-4.046-7.784-9.337-15.11-16.464-20.223s-16.276-7.829-24.854-5.985c-7.729,1.662-14.252,6.731-20.083,12.066-7.483,6.847-14.539,14.72-17.569,24.4-2.76,8.8-1.518,19.713,5.335,26.372,6.461,6.276,13.79,12.572,22.128,16.167A29.349,29.349,0,0,0-184.724,202.5Z" transform="translate(-300.531 97.161)" fill="#ff5646"/>
        <g id="그룹_833" data-name="그룹 833" transform="translate(635.984 191.529)">
          <path id="패스_6913" data-name="패스 6913" d="M-149.5,94.3a19.276,19.276,0,0,0-6.009,2.469,14.33,14.33,0,0,0-4.809,4.436,8.629,8.629,0,0,0-.824,8.116c1.447,3.082,5.151,4.72,8.53,4.3a12.615,12.615,0,0,0,8.359-5.356c2.158-2.972,5.537-8.26,2.811-11.82a6.6,6.6,0,0,0-4.651-2.353A11.75,11.75,0,0,0-149.5,94.3Z" transform="translate(161.809 -57.737)" fill="#3eff43"/>
          <path id="패스_6914" data-name="패스 6914" d="M-155.536,110.06a6.629,6.629,0,0,0,5.677,7,6.63,6.63,0,0,0,7.015-5.664C-141.972,103.247-154.695,101.907-155.536,110.06Z" transform="translate(176.92 -32.26)" fill="#3eff43"/>
          <path id="패스_6915" data-name="패스 6915" d="M-150.516,100.468c-.636,1.943.157,4.056,1.177,5.828a8.536,8.536,0,0,0,3.321,3.557,3.845,3.845,0,0,0,4.542-.605,5.177,5.177,0,0,0,1.009-2.62c.445-2.705,1.2-8.93-2.073-10.336C-145.242,95.13-149.678,97.917-150.516,100.468Z" transform="translate(188.589 -52.96)" fill="#3eff43"/>
          <path id="패스_6916" data-name="패스 6916" d="M-153.568,95.731c.048,1.566.147,3.27,1.166,4.456,1.2,1.4,3.3,1.621,5.113,1.293a10.047,10.047,0,0,0,6.437-3.988c3.249-4.665.564-11.091-4.744-12.849C-152.2,82.455-153.708,91.251-153.568,95.731Z" transform="translate(181.733 -81.327)" fill="#3eff43"/>
          <path id="패스_6917" data-name="패스 6917" d="M-143.733,99.091a9.688,9.688,0,0,0,5.387,3.557,25.506,25.506,0,0,0,6.529.735,3.469,3.469,0,0,0,2.859-.838,2.992,2.992,0,0,0-.014-3.047c-1.464-3.218-6.255-7.538-9.593-8.776C-143.682,88.827-146.36,95.319-143.733,99.091Z" transform="translate(203.077 -66.604)" fill="#3eff43"/>
          <path id="패스_6918" data-name="패스 6918" d="M-137.847,99.671a4.362,4.362,0,0,0-4.025,3.194c-1.064,4.121,4.022,6.82,7.083,4.131a4.226,4.226,0,0,0-1.047-6.919A4.182,4.182,0,0,0-137.847,99.671Z" transform="translate(209.711 -44.136)" fill="#3eff43"/>
          <path id="패스_6919" data-name="패스 6919" d="M-143.941,86.87a2.765,2.765,0,0,0,1.389,2.066,6.692,6.692,0,0,0,2.449.776,6.9,6.9,0,0,0,3.512-.123c3.567-1.334,1.491-5.25-1.3-6.026C-139.926,83-144.116,84.278-143.941,86.87Z" transform="translate(205.039 -83.43)" fill="#3eff43"/>
        </g>
        <g id="그룹_836" data-name="그룹 836" transform="translate(-799.194 419.98) rotate(-90)">
          <path id="패스_6922" data-name="패스 6922" d="M-89.582,152.894c29.006-4.744,52.328-31.855,54-61.206.581-10.414-1.194-20.934-1.611-31.321H-1.935C6.659,86.151.931,116.682-16.529,137.914c-21.321,25.918-57.745,37.44-90.752,31.3-34.348-6.385-64.325-30.5-80.53-61.1-7.059-13.325-13.968-27.6-12.357-42.912a45.017,45.017,0,0,1,.807-4.836h39.451c.643,16.622-2.1,33.6,2.254,49.643C-149.971,138.376-118.575,157.628-89.582,152.894Z" transform="translate(200.404 -60.367)" fill="#fff388"/>
          <path id="패스_6923" data-name="패스 6923" d="M-143.785,114.2c5.462.315,10.49-2.818,14.847-6.132,5.058-3.82,9.894-8.147,13.055-13.636,5.807-10.1,5.151-22.487,3.181-34.068h21.037c-.014,2.268-.044,4.521-.058,6.789-.089,11.327-.2,22.8-3.133,33.739s-9.06,21.471-18.728,27.364c-13.622,8.283-32.125,5.523-44.855-4.073S-178.673,99.329-182,83.733a156.5,156.5,0,0,1-3.208-23.366h28.53c-.12.626-.284,1.255-.462,1.867-2.268,7.7-7.654,14.488-8.328,22.484-.564,7.028,2.657,13.848,6.85,19.519C-154.962,109.192-149.934,113.847-143.785,114.2Z" transform="translate(237.178 -60.367)" fill="#fff388"/>
          <path id="패스_6924" data-name="패스 6924" d="M-173.455,60.367h22.665a63.792,63.792,0,0,1-1.6,18.219,13.889,13.889,0,0,1-2.907,6.238c-3.718,3.984-10.773,3.013-14.549-.91s-4.805-9.744-4.566-15.175C-174.276,65.932-173.858,63.144-173.455,60.367Z" transform="translate(263.236 -60.367)" fill="#fff388"/>
        </g>
        <path id="패스_6926" data-name="패스 6926" d="M-327.815,266.93c-5.829,14.148-9.878,29.914-5.869,44.68,6.248,23.016,29.457,36.476,50.613,47.488q17.377,9.041,34.751,18.085c14.215,7.4,28.946,14.946,44.932,16.064,18.921,1.322,37.709-6.793,51.941-19.334s24.308-29.185,31.929-46.555c5.855-13.342,10.45-27.662,9.668-42.213-.992-18.453-10.679-35.624-23.594-48.842s-28.922-22.954-45.067-31.943c-18.894-10.52-46.915-26.377-68.749-16.346-10.91,5.014-21.8,9.048-31.741,15.991a129.835,129.835,0,0,0-27.261,25.985A154.2,154.2,0,0,0-327.815,266.93Z" transform="translate(-354.112 777.266)" fill="#3eff43"/>
        <g id="그룹_837" data-name="그룹 837" transform="translate(-763.953 440.725)">
          <path id="패스_6927" data-name="패스 6927" d="M-183.98,129.624a13.832,13.832,0,0,0-4.3,1.765,10.242,10.242,0,0,0-3.441,3.177,6.175,6.175,0,0,0-.592,5.807,5.983,5.983,0,0,0,6.1,3.078,9.014,9.014,0,0,0,5.982-3.831c1.546-2.127,3.964-5.91,2.011-8.461a4.714,4.714,0,0,0-3.328-1.683A8.469,8.469,0,0,0-183.98,129.624Z" transform="translate(192.791 -103.457)" fill="#fff388"/>
          <path id="패스_6928" data-name="패스 6928" d="M-188.3,140.907a4.743,4.743,0,0,0,4.066,5.01,4.743,4.743,0,0,0,5.017-4.056C-178.592,136.03-187.7,135.069-188.3,140.907Z" transform="translate(203.604 -85.224)" fill="#fff388"/>
          <path id="패스_6929" data-name="패스 6929" d="M-184.709,134.041a5.312,5.312,0,0,0,.841,4.169,6.113,6.113,0,0,0,2.377,2.548,2.755,2.755,0,0,0,3.252-.434,3.7,3.7,0,0,0,.718-1.874c.321-1.936.862-6.392-1.481-7.4C-180.936,130.22-184.107,132.214-184.709,134.041Z" transform="translate(211.957 -100.038)" fill="#fff388"/>
          <path id="패스_6930" data-name="패스 6930" d="M-186.894,130.652a5.008,5.008,0,0,0,.838,3.188,3.885,3.885,0,0,0,3.66.927,7.178,7.178,0,0,0,4.6-2.856c2.329-3.338.4-7.938-3.393-9.2C-185.916,121.148-186.993,127.444-186.894,130.652Z" transform="translate(207.049 -120.341)" fill="#fff388"/>
          <path id="패스_6931" data-name="패스 6931" d="M-179.854,133.057A6.916,6.916,0,0,0-176,135.6a18.308,18.308,0,0,0,4.672.527,2.487,2.487,0,0,0,2.049-.6,2.148,2.148,0,0,0-.01-2.182,15.18,15.18,0,0,0-6.864-6.279C-179.817,125.707-181.735,130.355-179.854,133.057Z" transform="translate(222.326 -109.804)" fill="#fff388"/>
          <path id="패스_6932" data-name="패스 6932" d="M-175.642,133.471a3.115,3.115,0,0,0-2.88,2.285c-.763,2.948,2.876,4.88,5.069,2.955a3.021,3.021,0,0,0-.749-4.949A2.976,2.976,0,0,0-175.642,133.471Z" transform="translate(227.074 -93.723)" fill="#fff388"/>
          <path id="패스_6933" data-name="패스 6933" d="M-180,124.308a1.971,1.971,0,0,0,1,1.477,4.779,4.779,0,0,0,1.751.557,4.922,4.922,0,0,0,2.514-.089c2.555-.954,1.067-3.759-.927-4.313C-177.131,121.534-180.127,122.451-180,124.308Z" transform="translate(223.73 -121.846)" fill="#fff388"/>
        </g>
        <path id="패스_6934" data-name="패스 6934" d="M11.589,252.238a3.229,3.229,0,0,0-2.709-.274c-1.149.427-2.486-.2-3.543.667-.766-1.655-2.291-.92-3.454-.947-1.648-.038-3.461-.568-4.891-.168-2.825.787-5.537.321-8.307.287a26.242,26.242,0,0,0-6.033.274,7.585,7.585,0,0,1-4.241-.123,2.04,2.04,0,0,0-1.751.2,11.9,11.9,0,0,1-6.594,1.047c-2.025-.161-3.967-.062-5.961-.058-1.46,0-3.068,1.156-4.491-.236-.185-.185-.523.021-.817.195a13.861,13.861,0,0,1-4.915,1.433c-2.394.417-4.675,1.594-7.213,1.07-.075-.017-.209.127-.28.226-1.471,2.042-4.039,1.71-5.985,2.179a7.383,7.383,0,0,0-3.663,1.813c-.773.01-1.163-.578-1.895-.554-2.637.075-4.289,2.346-6.751,2.873-1.625.349-3.441.537-4.576,2.134-.161.229-.848.2-1.259.116-1.566-.311-2.3,1.276-3.636,1.69-1.06.328-2.285,1.693-3.612,2.216-2.688,1.06-5.027,3.051-8.116,3.085-.441,0-1.245.062-1.153.657.25,1.607-.674,1.614-1.816,1.686a3.538,3.538,0,0,0-1.977.971c-1.19,1.029-2.425,1.9-4.149,1.334a1.047,1.047,0,0,0-.852.222c-1.772,1.59-3.718,2.77-6.009,2.681-.554.5.352.947-.058,1.033-1.515.321-2.363,1.717-3.786,2.161-2.11.664-4.234,1.31-6.266,2.165a4.66,4.66,0,0,1-2.633.537,9.326,9.326,0,0,0-3.872-.075,9.885,9.885,0,0,1-1.922.5,13.167,13.167,0,0,1-6.272-.664c-1.149-.431-2.586-.188-3.854-.325-1.436-.157-2.74-.465-3.858.875-.855-1.276-1.843-1.85-3.263-1.484a1.713,1.713,0,0,1-1.837-.677c-.889-1.419-1.83-1.262-2.907-.28a4.823,4.823,0,0,0-2.774-1.306c-3.112.044-5.735-1.512-8.475-2.521-1.293-.475-2.339-1.033-3.742-.7-.534.127-1.272.243-1.676-.427-1.313-2.172-3.841-2.668-5.653-4.135-1.433-1.163-4.1-.94-4.015-3.663a5.131,5.131,0,0,1-2.315-.8c-1.259-.845-1.614-2.288-2.818-3.191-2.979-2.233-6.2-4.06-8.636-7.169-2.917-3.718-5.346-7.7-8.01-11.789-.445,1.59-3.324,1.012-2.6,3.355-.643.554-1.317-.3-1.85.277-.328,2.582-1.317,4.07-2.4,4.077-1.081,2.394-1.177,5.116-3.7,6.642a6.345,6.345,0,0,0-2.548,3.04,19.1,19.1,0,0,1-3.482,5.766c-1.806,1.806-2.4,4.19-3.854,6.129-1.317,1.755-2.179,3.841-3.427,5.653a32.122,32.122,0,0,0-2.541,4.371c-.838,1.755-1.573,3.745-3.687,4.562-.168,1.057.311,2.285-.6,3.174a5.2,5.2,0,0,0-1.782,3.188,3,3,0,0,1-.674,1.662c-2.377,2.712-2.367,3.858-.13,6.249a1.743,1.743,0,0,1,.216.3c1.495,2.456,3.776,4.07,6.043,5.718a29.985,29.985,0,0,0,3.341,1.662,7.3,7.3,0,0,1,2.945,3.4c.951,2.517,3.55,3.119,5.089,4.9.735.855,1.874,1.04,2.74,1.8,1.56,1.382,2.493,3.81,5.2,3.619.161-.014.362.462.54.715a7.8,7.8,0,0,0,1.515,1.3c1.648,1.419,3.954,1.765,5.424,3.509.328.386,1.142,1.358,2.237.612.667-.455,1.009.256,1.351.831.947,1.594,2.059,3.4,3.755,3.868,1.365.38,2.541.971,3.817,1.46,1.56.6,2.428,1.96,3.639,2.722.585-.151.178-.8.616-.841,1.313.643,2.271,2.141,4.019,1.18.4-.222.9.151,1.159.441,1.392,1.546,2.945,1.375,4.631.393,2.1,2.887,5.469,1.679,8.188,2.579,2.014.667,4.282,1.44,6.642.845,2.517-.639,4.532,1.385,6.922,1.58,2,.164,3.947.814,6,.513a8.543,8.543,0,0,1,3.489.41c.349.1.821.3,1.053.157,1.607-.988,3.359-.246,5.024-.5,2.3-.352,4.648-.455,6.919-.927a7.955,7.955,0,0,1,3.776.048,5.127,5.127,0,0,0,3.854-.482c1.084-.653,2.278-.906,3.341-1.481.646-.349,1.2.578,1.717-.017,1.088-1.265,2.411-.975,3.759-.557.161-.766.5-1.563,1.228-1.382.752.188.982-.267,1.467-.506a18.452,18.452,0,0,1,6.974-1.467c1.259-.1,2.09-.126,2.562-1.4a2.912,2.912,0,0,1,3.341-2.011c.551.068.852-.027,1.016-.482a2.694,2.694,0,0,1,1.98-1.56c2.315-.7,4.1-2.274,6.132-3.434a17.3,17.3,0,0,1,3.509-1.939c2.767-.773,4.727-2.873,7.155-4.19,2.353-1.276,4.367-3.147,7.165-3.557.352-.051.913-.157,1-.38,1.412-3.742,4.987-1.905,7.449-2.907.127-.051.345.092.516-.219-.13-.4-.889-.807-.311-1.378,1.173-1.159,2.421-.161,3.53,0,.691-.51.393-1.625,1.44-1.744.732.291,1.2,1.252,2.326,1.029.1-1.365,1.488-1.785,2.2-2.839.571.335,1.218,1.5,1.758.657.975-1.539,2.332-1.18,3.69-1.457,1.211-.25,2.7-.051,3.475-1.214,1.159.154.687,1.426,1.659,1.949-.287-2.6,1.187-2.678,2.955-2.36a1.272,1.272,0,0,0,.7-.092c2.165-1.019,3.194-.882,4.621.759.345-1.146,1.2-1.231,2.185-1.214,1.97.034,3.926.25,5.886.342a64.562,64.562,0,0,0,7.049.072,38.716,38.716,0,0,1,4.494-.133c1.337.075,2.716,1.354,4.087.01.205-.2.561.075.776.332,1.272,1.488,3,1.317,4.494.8,1.32-.458,2.155-.561,2.544.923,1.272-.465,1.238-.332,4.241.424a53.821,53.821,0,0,1,8.284,2.647,43.7,43.7,0,0,1,5.79,2.767c1.683,1.04,3.714,1.676,5.216,3.006a32.762,32.762,0,0,0,7.288,4.781c2.6,1.286,4.2,3.759,6.8,5.055a6.162,6.162,0,0,1,2.945,2.377c.564,1.111,1.778,1.512,2.524,2.394.534.633,1.556-.438,1.881.66.417,1.409,1.231.8,2.172.551.968-.25.862-1.252,1.457-1.676,3.013,2.353,3.451,2.25,5.363-1.19.154-.28.462-.164.6-.3,1.85-1.84,3.311-3.817,2.678-6.7-.113-.523-.629-1.347.3-1.809.732-.362,1.132.157,1.625.534a1.984,1.984,0,0,0,.739.28,10.665,10.665,0,0,0,4.248-5.058,34.587,34.587,0,0,1,3.67-5.66c2.134-2.787,4.9-5.065,6.594-8.2.3-.571.91-.557,1.478-.92-1.149-.756-.239-1.283.2-1.772,1.666-1.878,2.042-4.22.458-6.214a14.61,14.61,0,0,1-2.644-6.1c1.3.821,2.435,1.566,3.6,2.268a3.156,3.156,0,0,1,1.354,3.6c-.3,1.4.349,2.11,1.142,2.962a5.407,5.407,0,0,0,1.481-3.276,3.453,3.453,0,0,0,3.133-.605c-.92-.246-1.936-.554-1.525-1.683a3.414,3.414,0,0,1,1.286-1.837c.944-.157.835.858,1.457.821.732-2-1.337-3.044-1.423-4.744-.109-2.12-2.637-3.129-2.6-5.373,0-.109-.424-.205-.622-.345a21.974,21.974,0,0,1-4.244-3.978c-1.885-2.281-2.842-5.339-5.6-6.95a3.149,3.149,0,0,1-1.194-2.346c-1.177.722-1.727.12-1.943-.978-.144-.722-.407-1.477-1.173-1.447-2.227.089-3.8-.982-5.281-2.466a8.39,8.39,0,0,0-2.763-1.939c-2.4-.923-4.956-1.495-7.1-2.958-1.2-.817-3.075-.335-3.571-.817-1.231-1.211-2.712-1.2-3.988-1.854-3.249-1.662-7.042-2.185-9.884-4.682-.8-.7-1.406-.106-2,.581-.575-1.385-1.7-1.31-2.736-1.382-.345-.024-.9.332-1.029.195-1.536-1.553-3.7-.985-5.445-1.259-2.244-.359-4.634.349-6.344-2C14.223,253.209,13.5,253.288,11.589,252.238Zm48.152,57c-.239-.831-.469-1.5-1.508-1.508-.369,0-.626-.311-.865-.629-1-1.324-1.737-2.928-3.574-3.376-.157-.038-.39-.236-.4-.369-.082-2.247-2.527-2.384-3.43-3.868-.486-.8-1.724.52-1.922-.786-1.474.246-1.546-1.122-1.631-1.82-.277-2.257-2.124-2.846-3.636-3.721a39.445,39.445,0,0,0-3.916-1.6c-.988-.434-2.172-.667-2.517-1.973-.048-.181-.39-.452-.534-.417-1.8.421-2.917-1.057-4.388-1.529-.787-.253-1.477-.865-2.442-.5a.627.627,0,0,1-.793-.749c.113-.554.636-1.153,1.149-.841a7.044,7.044,0,0,0,3.5.8c2.2.123,3.848,1.471,5.7,2.538,2.291,1.317,4.33,3.181,6.861,3.957,1.3.4,1.248,1.659,2.274,2.223,1.56.855,3.393,1.419,4.515,2.941.79,1.074,1.392,2.179,3,2.363a2.776,2.776,0,0,1,1.751,1.737c.561,1.867,2.114,2.555,3.451,3.608,1.4,1.1,1.094,3.3,2.9,4.432C61.451,311.173,60.165,310.725,59.741,309.241Zm-115.48-39.235c1.775,1.17,3.2.674,4.867-.308,1.142-.67,2.863-.568,4.306-.482a38.25,38.25,0,0,0,9.262-.246c2.172-.414,3.978.735,6.04.646-4.108,2.127-8.738,1.837-13.075,2.818-4.508,1.016-9.214.489-13.851-.185A2.793,2.793,0,0,0-55.739,270.005Zm-16.632,3.317c-3.892,3.215-8.437,4.354-13.157,4.9C-83.791,275.8-75.275,272.471-72.371,273.323ZM57.152,279.6c-2.545-.52-5.031-.91-5.879-3.882-.188-.66-.469-1.221.28-1.536s1.2.386,1.392.9a4.984,4.984,0,0,0,4.333,3.533c1.341.164,1.991,1.843,1.436,3.683A3.866,3.866,0,0,1,57.152,279.6Zm-91.173-17.094c-.068-.38.151-1.118.537-.968,1.409.544,2.791-.551,4.2.133a3.016,3.016,0,0,0,2.5-.41,2.493,2.493,0,0,1,2.945.51C-27.15,262.639-30.478,263.329-34.021,262.505Zm28.284,9.217c.055.513-.1,1.2-.636,1.009-2.418-.882-5.082-.127-7.538-1.368C-12.67,270.2-9.7,270.327-5.737,271.722Zm-154.257,42.313c-.54-.855-1.358-.181-1.994-.428.311-1.269,3.051-1.074,4.624.369C-158.325,314.833-159.2,315.291-159.994,314.036ZM47.442,330.853c2.079-.352,2.709.2,2.692,2.51A3.882,3.882,0,0,1,47.442,330.853Z" transform="translate(1098.977 849.511)" fill="#ff5646"/>
        <path id="패스_6935" data-name="패스 6935" d="M-321.707,123.893c-2.565,2.613-5.441,5.031-6.32,8.855a4.153,4.153,0,0,1-.917,1.491c-.694.951-1.806,2.018-1.44,3.2.664,2.144-2.076,3.482-1.067,5.575-3.307,3.208-2.51,8.013-4.556,11.717-.058.1,0,.3.055.431,1.177,2.989.4,6.04.376,9.077-.014,2.295-1.546,4.1-1.077,6.768a22.509,22.509,0,0,1-.192,10.489,1.405,1.405,0,0,0,.058,1.088c1.5,1.919,1.529,4.176,1.457,6.413a8.221,8.221,0,0,0,.585,3.27,25.692,25.692,0,0,1,1.484,6.245c.2,1.919.451,3.471,1.9,4.768a1.85,1.85,0,0,1,.8,1.782c-.612,2.579-.345,4.932,1.761,6.768,1.259,1.1.759,2.818,1.8,4.19,1.156,1.515,1.891,3.307,3.707,4.265a.705.705,0,0,1,.345.547c-.623,3.29,2.517,4.049,4.06,5.77,1.59,1.772,4.138,2.531,6,3.957a38.118,38.118,0,0,0,7.1,4.2c2.011.951,4.347,1.563,6.04,2.7a38.066,38.066,0,0,0,10.8,5.346c1.837.52,2.931,2.155,4.709,2.811.735.267,1.891-.667,2.127.534.342,1.744,1.437,1.142,2.558,1.231,2.042.168,4.532-1.016,5.951,1.693.25.482,1.522.66,1.84.075.906-1.655,1.895-.6,3.013-.472,2.38.277,4.559,2.49,7.127.872a2.707,2.707,0,0,1,3.557.308,2.631,2.631,0,0,0,3.307.226c1.108-.612,2.185-1.272,3.28-1.915.462,1.279,1.707,1.129,2.589,1.683.79-2.432,2.445-3.2,4.737-3.369a13.44,13.44,0,0,0,5.493-1.2c2.982-1.7,6.577-1.132,9.45-2.958a.692.692,0,0,1,.636-.031c1.351,1.221,2.073.044,2.8-.773a6.648,6.648,0,0,1,1.276-1.262c3.612-2.37,8.126-3.324,10.613-7.483,1.532-2.565,5.339-3.2,6.245-6.488a5.6,5.6,0,0,1,3.468-3.656c2.083-.684,2.2-2.36,2.569-3.636a9.715,9.715,0,0,1,1.286-2.657c1.542-2.439,4.217-4.381,4.59-7.278.506-3.93,1.97-7.511,3.129-11.2.328-1.047-.626-1.375-.571-2.073.445-.267.845-.222,1.115-.77,1.159-2.353,1.043-5,1.365-7.432.5-3.783,2.055-7.35,1.953-11.252-.068-2.616-.315-5.339.9-7.853.058-.12-.209-.373-.274-.578a19.328,19.328,0,0,1-.807-6.416c.229-5.007-.072-7.47-1.717-11.755-1.283-3.338-2.141-6.864-3.129-10.308s-2.066-6.638-4.35-9.491c-1.173-1.467-2.729-2.88-2.8-5.089-1.019.147-1.765.123-2.274-.817-1.464-2.712-4.354-4.036-6.4-6.225-.855-.917-1.867-2.312-3.239-2.62-3.328-.752-5.626-3.242-7.976-5.216-1.833-1.539-3.4-2.521-5.643-2.466a1.384,1.384,0,0,1-1.536-.913c-.434-.876-1.361-1.337-2.079-1.967-1.443-1.262-3.475-1.416-4.744-2.685-1.522-1.515-3.482-1.912-5.281-2.709-2.469-1.091-5.205-1.3-7.746-2.309-1.385-.547-2.863-1.59-4.367-1.433-1.881.2-3.615-.345-5.414-.482-4.573-.342-9.142-.811-13.41,1.45-.985.52-1.761,1.153-2.692-.154-.455-.64-1.2-.687-1.9.106-1.241,1.4-3.578.127-4.775,1.809-2.555-1.546-4.856.434-6.98,1.04-2.463.7-4.9,1.973-7.428,2.849-1.081.376-2.179.992-3.2,1.436-2.6,1.139-4.562,3.475-7.617,3.807-1.3.144-2.982.657-2.685,2.651-1.139.434-2.613-.034-3.17,1.166-.886,1.908-2.64,2.681-4.272,3.523a2.844,2.844,0,0,0-1.491,1.536c-.65,1.843-2.151,2.627-3.837,3.424C-321.375,121.119-320.445,122.6-321.707,123.893ZM-236.6,163.83c1.573.708,1.943,2.678,3.085,3.536,1.693,1.269,2.11,2.979,3.058,4.556,2.12,3.519,1.094,7.189.879,10.811a20.963,20.963,0,0,1-4.3,11.362c-3.635,4.8-7.22,9.925-13.622,11.6-2.261.592-4.162-.831-5.5-1.943-1.631-1.354-2.951-1.081-4.491-.711-.992.236-1.837.646-2.565-.5a1.3,1.3,0,0,0-1.2-.4,2.82,2.82,0,0,1-3.1-.267c-.985.414-.109,1.057-.575,1.546-1.741-2.148-4.443-1.943-6.649-2.876-5.79-2.449-11.05-5.438-14.648-10.746-1.289-1.9-1.512-4.258-2.254-6.4-.865-2.5-.52-4.98-.41-7.531a61.653,61.653,0,0,1,2.35-15.944c1.2-3.827,4.084-6.474,6.354-9.532a23.888,23.888,0,0,1,4.573-4.333c2.63-2.052,5.763-3.974,8.677-2.852,3.448,1.324,7.439-.065,10.462,2.572a1.267,1.267,0,0,0,1.625.339c1.125-.715,2.086-.711,2.651.828.342.937,1.443.807,2.185.876a6.742,6.742,0,0,1,4.7,2.6c.612.7.982,2.456,2.712,1.71.414-.181.294.383.448.585,2.339,3.061,4.275,6.4,6.443,9.826C-235.777,163.1-236.642,163.087-236.6,163.83Z" transform="translate(-501.577 688.006)" fill="#ff5646"/>
      </g>
    </g>
  </g>
</svg>
