<svg xmlns="http://www.w3.org/2000/svg" width="386.447" height="365.14" viewBox="0 0 386.447 365.14">
  <g id="그룹_770" data-name="그룹 770" transform="translate(-565.524 -296.516)">
    <path id="패스_6836" data-name="패스 6836" d="M951.971,596.045,797.567,437.19s13.776-49.367,2.865-82.107c-8.335-25.008-28.82-48.9-57-37.5-19.734-18.719-39.389-.442-39.389-.442s-29.523-8.319-37.375,21.933c-20.9,6.724-38.918,34.758-34.924,53.8s15.344,11.113,25.269-9.531c8.078-16.8,29.227-16.189,45.187,5.468s.951,55.988-19.226,76.658c0,0,12.912,12.218,37.318,16.913l78.558,179.272Z" fill="#633d1c"/>
    <path id="패스_6837" data-name="패스 6837" d="M671.514,337.944c11.341-2.784,28,.191,38.833,4.745" fill="none" stroke="#422812" stroke-linecap="round" stroke-linejoin="round" stroke-width="4.061"/>
    <path id="패스_6838" data-name="패스 6838" d="M708.28,319.019c11.6,4.063,20.626,8.879,25.261,12.738" fill="none" stroke="#422812" stroke-linecap="round" stroke-linejoin="round" stroke-width="4.061"/>
    <path id="패스_6839" data-name="패스 6839" d="M746.334,320.308a131.375,131.375,0,0,1,14.81,17.469" fill="none" stroke="#422812" stroke-linecap="round" stroke-linejoin="round" stroke-width="4.061"/>
    <g id="그룹_769" data-name="그룹 769">
      <path id="패스_6840" data-name="패스 6840" d="M610.479,429.35l-8.786-15.6-36.169,40.322,53.422-8.952Z" fill="#f0a462"/>
      <path id="패스_6841" data-name="패스 6841" d="M815.238,296.993,601.692,413.753c-3.9,2.144-3.2,10.9,1.567,19.568s11.788,13.946,15.687,11.8L832.491,328.362Z" fill="#79b8c7"/>
      <path id="패스_6842" data-name="패스 6842" d="M583.595,444.136a52.012,52.012,0,0,1-3.11-6.74l-14.961,16.679,22.1-3.7A52.079,52.079,0,0,1,583.595,444.136Z" fill="#3a64f9"/>
      <g id="그룹_768" data-name="그룹 768">
        <line id="선_42" data-name="선 42" x1="201.01" y2="109.866" transform="translate(606.911 312.996)" fill="none" stroke="#a8d5e0" stroke-linecap="round" stroke-linejoin="round" stroke-width="4.061"/>
        <line id="선_43" data-name="선 43" x1="201.01" y2="109.866" transform="translate(614.047 325.973)" fill="none" stroke="#a8d5e0" stroke-linecap="round" stroke-linejoin="round" stroke-width="4.061"/>
      </g>
      <path id="패스_6843" data-name="패스 6843" d="M832.491,328.362c-3.9,2.145-10.922-3.139-15.686-11.8s-5.466-17.423-1.567-19.567,10.922,3.139,15.687,11.8S836.391,326.218,832.491,328.362Z" fill="#1e4852"/>
    </g>
    <path id="패스_6844" data-name="패스 6844" d="M720.288,482.384s-47.541-7.018-78.226-33.193c-26.8-22.86-26.066-38.717-16.449-46.673,9.671-8,29.389,6.936,39.7,14.374,14.453,10.427,39.076,16.284,52.791,11.584Z" fill="#633d1c"/>
    <path id="패스_6845" data-name="패스 6845" d="M623.958,409.555c5.4-5.7,24.366.4,23.414,4.2s-13.23,17.87-14.182,20.161S616.914,416.979,623.958,409.555Z" fill="#ffccb8"/>
  </g>
</svg>
