<svg xmlns="http://www.w3.org/2000/svg" width="435.438" height="426.52" viewBox="0 0 435.438 426.52">
  <g id="그룹_1344" data-name="그룹 1344" transform="translate(43.439 -1813.074)">
    <g id="그룹_776" data-name="그룹 776" transform="matrix(0.616, -0.788, 0.788, 0.616, 48.985, 2336.923)">
      <ellipse id="타원_218" data-name="타원 218" cx="51.732" cy="105.691" rx="51.732" ry="105.691" transform="translate(96.012 -111.157) rotate(-58.901)" fill="#24b088"/>
      <line id="선_47" data-name="선 47" x1="202.772" y1="122.313" transform="translate(84.627 -178.44)" fill="none" stroke="#1e4852" stroke-linecap="round" stroke-linejoin="round" stroke-width="4.061"/>
      <g id="그룹_776-2" data-name="그룹 776">
        <line id="선_48" data-name="선 48" x1="27.731" y2="6.864" transform="translate(259.681 -79.736)" fill="none" stroke="#1e4852" stroke-linecap="round" stroke-linejoin="round" stroke-width="4.061"/>
        <line id="선_49" data-name="선 49" x1="42.278" y2="10.464" transform="translate(232.297 -99.855)" fill="none" stroke="#1e4852" stroke-linecap="round" stroke-linejoin="round" stroke-width="4.061"/>
        <line id="선_50" data-name="선 50" x1="53.428" y2="13.224" transform="translate(204.913 -119.133)" fill="none" stroke="#1e4852" stroke-linecap="round" stroke-linejoin="round" stroke-width="4.061"/>
        <line id="선_51" data-name="선 51" x1="57.261" y2="14.172" transform="translate(177.529 -136.599)" fill="none" stroke="#1e4852" stroke-linecap="round" stroke-linejoin="round" stroke-width="4.061"/>
        <line id="선_52" data-name="선 52" x1="57.261" y2="14.172" transform="translate(150.145 -153.118)" fill="none" stroke="#1e4852" stroke-linecap="round" stroke-linejoin="round" stroke-width="4.061"/>
      </g>
      <g id="그룹_777" data-name="그룹 777">
        <line id="선_53" data-name="선 53" x1="6.863" y1="27.731" transform="translate(259.681 -72.873)" fill="none" stroke="#1e4852" stroke-linecap="round" stroke-linejoin="round" stroke-width="4.061"/>
        <line id="선_54" data-name="선 54" x1="10.464" y1="42.278" transform="translate(232.297 -89.391)" fill="none" stroke="#1e4852" stroke-linecap="round" stroke-linejoin="round" stroke-width="4.061"/>
        <line id="선_55" data-name="선 55" x1="13.224" y1="53.428" transform="translate(204.913 -105.909)" fill="none" stroke="#1e4852" stroke-linecap="round" stroke-linejoin="round" stroke-width="4.061"/>
        <line id="선_56" data-name="선 56" x1="14.172" y1="57.261" transform="translate(177.529 -122.427)" fill="none" stroke="#1e4852" stroke-linecap="round" stroke-linejoin="round" stroke-width="4.061"/>
        <line id="선_57" data-name="선 57" x1="14.172" y1="57.261" transform="translate(150.145 -138.945)" fill="none" stroke="#1e4852" stroke-linecap="round" stroke-linejoin="round" stroke-width="4.061"/>
      </g>
    </g>
    <path id="패스_6856" data-name="패스 6856" d="M14.683-82.02C23.8-73.609,34.071-68.56,42.411-67.663,40.848-75.9,34.991-85.74,25.876-94.15S6.488-107.61-1.853-108.507C-.289-100.265,5.568-90.431,14.683-82.02Z" transform="translate(349.589 1939.541)" fill="#32ba58"/>
    <ellipse id="타원_219" data-name="타원 219" cx="8.253" cy="30.114" rx="8.253" ry="30.114" transform="matrix(0.819, 0.574, -0.574, 0.819, 306.546, 1813.074)" fill="#24b088"/>
    <g id="그룹_783" data-name="그룹 783" transform="translate(-161.826 2208.438)">
      <path id="패스_6857" data-name="패스 6857" d="M367.728-116.994l9.054-27.882,10.583,27.338,26.118-13.313-11.848,26.814,27.882,9.054L402.179-84.4l13.313,26.118L388.677-70.129l-9.054,27.882L369.04-69.586,342.923-56.273l11.848-26.814-27.882-9.054,27.338-10.583-13.313-26.118Z" transform="translate(-138.171 -172.176)" fill="#d2d94f"/>
      <path id="패스_6864" data-name="패스 6864" d="M329.827-24.814c11.59-4.415,20.686-11.364,25.2-18.432-8.076-2.271-19.49-1.407-31.08,3.008s-20.686,11.363-25.2,18.432C306.822-19.535,318.236-20.4,329.827-24.814Z" transform="translate(229.118 -607.037) rotate(77)" fill="#32ba58"/>
      <circle id="타원_221" data-name="타원 221" cx="6.621" cy="6.621" r="6.621" transform="translate(284.724 -197.11)" fill="#ffecde"/>
      <circle id="타원_222" data-name="타원 222" cx="6.621" cy="6.621" r="6.621" transform="translate(135.016 -123.873)" fill="#ffecde"/>
    </g>
  </g>
</svg>
