<svg xmlns="http://www.w3.org/2000/svg" width="41.209" height="40.046" viewBox="0 0 41.209 40.046">
  <g id="A105_Office_Building_Real_Estate" data-name="A105 ,Office ,Building ,Real ,Estate" transform="translate(-2866.038 -6139.989)">
    <g id="A107_Home_House_Sun_Real_Estate" data-name="A107 ,Home ,House ,Sun ,Real Estate" transform="translate(-10.955 7.685)">
      <g id="그룹_688" data-name="그룹 688">
        <path id="패스_4672" data-name="패스 4672" d="M2880.363,6142.451h.482a2.2,2.2,0,0,0,2.132,1.7h3.439a2.159,2.159,0,0,0,1.995-1.362,3.923,3.923,0,0,0,4.815-.886,3.76,3.76,0,0,0,.206-4.7,3.852,3.852,0,0,0-6.947,2.655H2886a2.2,2.2,0,0,0-2.132-1.7h-3.439a2.146,2.146,0,0,0-.069,4.29Zm9.905-5.108a2.112,2.112,0,1,1-2.132,2.112A2.133,2.133,0,0,1,2890.268,6137.343Zm-9.905,2.589h3.439c.551,0,.344.545.344.885a.832.832,0,0,0,.826.817h1.375a.444.444,0,0,1,0,.886h-3.439c-.55,0-.344-.545-.344-.886a.832.832,0,0,0-.825-.817h-1.376C2879.813,6140.749,2879.813,6139.932,2880.363,6139.932Z" fill="#fff"/>
        <path id="패스_4673" data-name="패스 4673" d="M2911.315,6162.883h-14.582a.907.907,0,0,0-.894.886v4.29a.906.906,0,0,0,.894.886h14.651a.906.906,0,0,0,.894-.886v-4.29A1.023,1.023,0,0,0,2911.315,6162.883Zm-13.756,1.7h5.159v2.588h-5.159Zm12.931,2.588h-6.053v-2.588h6.053Z" fill="#fff"/>
        <path id="패스_4674" data-name="패스 4674" d="M2917.368,6170.58h-1.719v-13.554a.95.95,0,0,0-.138-.408l-5.5-9.467a.79.79,0,0,0-.756-.409h-21.8a.758.758,0,0,0-.688.409l-6.191,9.467a.978.978,0,0,0-.137.476v13.553h-2.614a.852.852,0,0,0,0,1.7h39.619A.89.89,0,0,0,2917.368,6170.58Zm-4.127-14.371H2911.8l-4.127-6.538c-.619-.954-2.064,0-1.444.885l3.507,5.585h-1.444l-4.127-6.539c-.619-.953-2.063,0-1.444.886l3.508,5.584h-1.445l-4.127-6.538c-.619-.953-2.063,0-1.444.886l3.508,5.585h-1.445l-4.127-6.538c-.619-.954-2.063,0-1.444.885l3.508,5.585h-1.445l-4.127-6.539c-.619-.953-2.063,0-1.444.885l3.508,5.585h-1.926l-4.815-7.423h19.809Zm-25.793-7.015,4.265,7.015h-8.942Zm-5.365,8.717H2892.4v12.669h-1.719v-5.108a3.44,3.44,0,0,0-6.879,0v5.108h-1.719Zm3.439,12.669v-5.108a1.722,1.722,0,0,1,3.439,0v5.108Zm8.6,0v-12.669h19.809v1.635h-15.476a.852.852,0,0,0,0,1.7h15.476v9.4H2894.12Z" fill="#fff"/>
        <path id="패스_4675" data-name="패스 4675" d="M2898.866,6141.634h11.211a2.156,2.156,0,0,0,2-2.929,2.389,2.389,0,0,0-1.513-1.293c-.275-.069-.688,0-.826-.2a.431.431,0,0,1,.344-.681h4.334a2.111,2.111,0,1,0,0-4.223H2903.13a2.111,2.111,0,1,0,0,4.223h.9a.444.444,0,0,1,0,.885h-5.159a2.111,2.111,0,1,0,0,4.222Zm0-2.588h5.159a2.111,2.111,0,1,0,0-4.222h-.9a.444.444,0,0,1,0-.886h11.212a.444.444,0,0,1,0,.886h-4.334a2.156,2.156,0,0,0-1.994,2.928,2.389,2.389,0,0,0,1.513,1.294c.275.068.688,0,.826.205a.431.431,0,0,1-.345.681h-11.142A.444.444,0,0,1,2898.866,6139.046Z" fill="#fff"/>
      </g>
    </g>
  </g>
</svg>
