<svg xmlns="http://www.w3.org/2000/svg" width="40.512" height="40.183" viewBox="0 0 40.512 40.183">
  <g id="A124_Home_House_Real_Estate" data-name="A124 ,Home ,House ,Real ,Estate" transform="translate(-3005.332 -6132.151)">
    <g id="그룹_690" data-name="그룹 690">
      <path id="패스_4681" data-name="패스 4681" d="M3032.088,6137.328h3.576a2.519,2.519,0,0,0,2.408,1.7h5.159a2.644,2.644,0,0,0,2.613-2.588,2.6,2.6,0,0,0-2.613-2.588h-3.577a2.519,2.519,0,0,0-2.407-1.7h-5.159a2.645,2.645,0,0,0-2.614,2.588A2.6,2.6,0,0,0,3032.088,6137.328Zm0-3.406h5.159c1.169,0,.55,1.7,1.72,1.7h4.333a.852.852,0,0,1,0,1.7h-5.159c-1.17,0-.55-1.7-1.72-1.7h-4.333A.852.852,0,1,1,3032.088,6133.922Z" fill="#fff"/>
      <path id="패스_4682" data-name="패스 4682" d="M3012.279,6142.436a4.339,4.339,0,0,0,4.333-4.291,4.334,4.334,0,0,0-8.667,0A4.339,4.339,0,0,0,3012.279,6142.436Zm0-6.811a2.645,2.645,0,0,1,2.613,2.588,2.614,2.614,0,0,1-5.227,0A2.645,2.645,0,0,1,3012.279,6135.625Z" fill="#fff"/>
      <path id="패스_4683" data-name="패스 4683" d="M3044.95,6170.563h-.894v-5.993a.906.906,0,0,0-.894-.886h-.894v-6.81a1.25,1.25,0,0,0-.138-.477l-1.719-2.588a.908.908,0,0,0-1.445,0l-1.719,2.588a.976.976,0,0,0-.138.477v6.81h-.894V6150.54l3.3,1.294a.873.873,0,0,0,1.169-.817v-3.746a.837.837,0,0,0-.482-.749l-14.1-7.356a.886.886,0,0,0-.826,0l-14.444,7.424a.836.836,0,0,0-.481.749v3.746a.9.9,0,0,0,1.169.817l3.37-1.158v13.009H3014v-6.811a1.239,1.239,0,0,0-.138-.477l-1.719-2.588a.909.909,0,0,0-1.444,0l-1.72,2.588a.976.976,0,0,0-.137.477v6.811h-.9a.906.906,0,0,0-.894.885v5.993h-.894a.852.852,0,0,0,0,1.7h38.724C3046.051,6172.266,3046.051,6170.563,3044.95,6170.563Zm-5.983-13.349.894-1.294.893,1.294v6.539h-1.719v-6.539Zm-10.043,9.059H3022.6v-7.083a3.164,3.164,0,0,1,6.328,0Zm-3.164-11.919a4.878,4.878,0,0,0-4.883,4.836v7.083h-4.334v-16.21l9.148-4.018,8.942,3.814v16.482h-3.989v-7.151A4.878,4.878,0,0,0,3025.76,6154.354Zm-13.688-6.538,13.619-7.015,13.413,7.015v1.975l-3.3-1.294-9.767-4.155a1.188,1.188,0,0,0-.688,0l-9.9,4.427-3.371,1.09Zm-1.513,9.4.894-1.294.894,1.294v6.539h-1.719v-6.539Zm-1.719,13.349v-5.108h6.052v1.7a.906.906,0,0,0,.9.885H3035.6a.848.848,0,0,0,.825-.885v-1.7h6.053v5.108Z" fill="#fff"/>
    </g>
  </g>
</svg>
