<svg xmlns="http://www.w3.org/2000/svg" width="85.482" height="82.221" viewBox="0 0 85.482 82.221">
  <path id="패스_6896" data-name="패스 6896" d="M-184.724,202.5c6.676-.687,12.754-4.043,18.489-7.521,10.784-6.543,22.135-15.367,23.448-27.908.722-6.895-1.823-13.721-5.021-19.874-4.046-7.784-9.337-15.11-16.464-20.223s-16.276-7.829-24.854-5.985c-7.729,1.662-14.252,6.731-20.083,12.066-7.483,6.847-14.539,14.72-17.569,24.4-2.76,8.8-1.518,19.713,5.335,26.372,6.461,6.276,13.79,12.572,22.128,16.167A29.349,29.349,0,0,0-184.724,202.5Z" transform="translate(228.145 -120.41)" fill="#ff5646"/>
</svg>
