<svg xmlns="http://www.w3.org/2000/svg" width="225.532" height="208.569" viewBox="0 0 225.532 208.569">
  <path id="패스_6926" data-name="패스 6926" d="M-327.815,266.93c-5.829,14.148-9.878,29.914-5.869,44.68,6.248,23.016,29.457,36.476,50.613,47.488q17.377,9.041,34.751,18.085c14.215,7.4,28.946,14.946,44.932,16.064,18.921,1.322,37.709-6.793,51.941-19.334s24.308-29.185,31.929-46.555c5.855-13.342,10.45-27.662,9.668-42.213-.992-18.453-10.679-35.624-23.594-48.842s-28.922-22.954-45.067-31.943c-18.894-10.52-46.915-26.377-68.749-16.346-10.91,5.014-21.8,9.048-31.741,15.991a129.835,129.835,0,0,0-27.261,25.985A154.2,154.2,0,0,0-327.815,266.93Z" transform="translate(335.294 -184.818)" fill="#3eff43"/>
</svg>
