<?xml version="1.0" encoding="utf-8"?>
<!-- Generator: Adobe Illustrator 22.1.0, SVG Export Plug-In . SVG Version: 6.00 Build 0)  -->
<svg version="1.1" id="main-banner_background" xmlns="http://www.w3.org/2000/svg" xmlns:xlink="http://www.w3.org/1999/xlink"
	 x="0px" y="0px" viewBox="0 0 1920 900" style="enable-background:new 0 0 1920 900;" xml:space="preserve">
<style type="text/css">
	.st0{fill:#278E2A;}
	.st1{opacity:0.3;fill:none;}
	.st2{opacity:0.3;fill:#FFFFFF;}
</style>
<g>
	<path class="st0" d="M989.3,815.4c681.9,3.8,918.2,80.4,930.2,84.4V0H0.5v899.8C14,895.8,305.5,811.6,989.3,815.4z"/>
	<path class="st1" d="M899.3,287c-12.6,0-22.9,10.3-22.9,22.9c0,12.6,10.3,22.9,22.9,22.9c12.6,0,22.9-10.3,22.9-22.9
		C922.3,297.3,912,287,899.3,287z"/>
	<path class="st1" d="M63.7,139c0-12.6-10.3-22.9-22.9-22.9c-12.6,0-22.9,10.3-22.9,22.9c0,12.6,10.3,22.9,22.9,22.9
		C53.4,161.9,63.7,151.7,63.7,139z"/>
	<path class="st1" d="M63.7,766.9c0-12.6-10.3-22.9-22.9-22.9c-12.6,0-22.9,10.3-22.9,22.9s10.3,22.9,22.9,22.9
		C53.4,789.8,63.7,779.6,63.7,766.9z"/>
	<path class="st2" d="M99.2,139c0-32.2-26.2-58.5-58.5-58.5c-15.8,0-30.2,6.3-40.7,16.6v83.7c10.5,10.3,24.9,16.6,40.7,16.6
		C73,197.5,99.2,171.2,99.2,139z M17.8,139c0-12.6,10.3-22.9,22.9-22.9c12.6,0,22.9,10.3,22.9,22.9c0,12.6-10.3,22.9-22.9,22.9
		C28.1,161.9,17.8,151.7,17.8,139z"/>
	<path class="st2" d="M899.3,251.4c-32.2,0-58.5,26.2-58.5,58.5s26.2,58.5,58.5,58.5s58.5-26.2,58.5-58.5S931.6,251.4,899.3,251.4z
		 M899.3,332.8c-12.6,0-22.9-10.3-22.9-22.9c0-12.6,10.3-22.9,22.9-22.9c12.6,0,22.9,10.3,22.9,22.9
		C922.3,322.6,912,332.8,899.3,332.8z"/>
	<path class="st2" d="M960,59.6c31.9,0,57.9-25.7,58.4-57.5H983C982.4,14.3,972.4,24,960,24s-22.4-9.8-22.9-21.9h-35.5
		C902.1,33.9,928.1,59.6,960,59.6z"/>
	<polygon class="st2" points="427.1,90.9 444.3,2.1 408.1,2.1 392.2,84.1 	"/>
	<polygon class="st2" points="1889.4,510.6 1920,479.4 1920,428.6 1864,485.8 	"/>
	
		<rect x="169.9" y="332.3" transform="matrix(0.7067 -0.7075 0.7075 0.7067 -224.1905 248.5063)" class="st2" width="35.5" height="124.7"/>
	<path class="st2" d="M1300.5,239.5c15,12.8,33.4,19.1,51.7,19.1c22.4,0,44.6-9.4,60.3-27.6l-26.9-23.2c-15.8,18.3-43.6,20.5-62,4.7
		c-18.3-15.8-20.5-43.6-4.7-62l-27-23.1C1263.5,160.7,1267.3,210.9,1300.5,239.5z"/>
	<path class="st2" d="M1847.9,38c-16.1,18.9-44.7,21.3-63.7,5.3l-22.9,27.1c15.1,12.8,33.6,19,52.1,19c22.9,0,45.7-9.6,61.6-28.3
		c14.1-16.4,20.9-37.3,19.2-58.9c0,0,0,0,0,0h-35.7c0.1,0.9,0.2,1.9,0.3,2.8C1859.6,17,1855.8,28.8,1847.9,38z"/>
	<path class="st2" d="M1615.4,443.1l17.8-30.7c-17.2-10-23.1-32.1-13.1-49.3c9.9-17.1,31.7-23,48.9-13.4c0.1,0.1,0.3,0.2,0.4,0.2
		l8.2-14.2l13.6-13.5c-0.4-0.4-0.8-0.7-1.2-1.1l-0.8-0.8l-2-1.2c-34.2-19.7-78.1-8-97.9,26.1
		C1569.6,379.4,1581.3,423.3,1615.4,443.1z M1686.4,318.7C1686.4,318.7,1686.4,318.7,1686.4,318.7
		C1686.4,318.7,1686.4,318.7,1686.4,318.7z"/>
	<path class="st2" d="M1669.2,349.8c0.5,0.3,0.9,0.5,1.3,0.7c-0.4-0.2-0.7-0.4-1.1-0.6l0,0C1669.4,349.8,1669.3,349.8,1669.2,349.8z
		"/>
	<path class="st2" d="M648.8,166.1l-22.7,27.3c7.6,6.3,12.3,15.2,13.2,25c0.9,9.8-2.1,19.4-8.4,26.9c-13,15.6-36.3,17.8-51.9,4.8
		l-0.7-0.6l-0.8-0.5c0.9,0.6,1.6,1.3,1.9,1.5l-25.1,25.1c0.4,0.4,1.3,1.3,2.4,2.2c13.4,11,29.6,16.3,45.7,16.3
		c20.8,0,41.4-8.9,55.7-26.1c12.4-14.9,18.2-33.7,16.4-52.9C672.8,195.8,663.7,178.4,648.8,166.1z"/>
	<path class="st2" d="M99.2,766.9c0-32.2-26.2-58.5-58.5-58.5c-15.8,0-30.2,6.3-40.7,16.6v83.7c10.5,10.3,24.9,16.6,40.7,16.6
		C73,825.4,99.2,799.1,99.2,766.9z M17.8,766.9c0-12.6,10.3-22.9,22.9-22.9c12.6,0,22.9,10.3,22.9,22.9s-10.3,22.9-22.9,22.9
		C28.1,789.8,17.8,779.6,17.8,766.9z"/>
	
		<rect x="331.2" y="708.4" transform="matrix(0.1901 -0.9818 0.9818 0.1901 -394.2725 974.4926)" class="st2" width="124.7" height="35.5"/>
	<path class="st2" d="M1838.9,771.2c14.1-16.4,20.9-37.3,19.2-58.9c-1.7-21.5-11.7-41.2-28.1-55.2l-23.1,27
		c9.2,7.9,14.8,18.9,15.8,31c1,12.1-2.9,23.8-10.8,33.1c-16.1,18.9-44.7,21.3-63.7,5.3l-22.9,27.1c15.1,12.8,33.6,19,52.1,19
		C1800.2,799.5,1823,789.9,1838.9,771.2z"/>
	<path class="st2" d="M1032.4,810.4c0-12.6,10.3-22.9,22.9-22.9s22.9,10.3,22.9,22.9c0,2-0.3,4-0.8,5.9c12.1,0.2,24.1,0.4,35.9,0.6
		c0.2-2.2,0.4-4.3,0.4-6.5c0-32.2-26.2-58.5-58.5-58.5s-58.5,26.2-58.5,58.5c0,1.7,0.1,3.4,0.2,5c12.1,0.1,24.1,0.2,35.9,0.3
		C1032.6,814,1032.4,812.2,1032.4,810.4z"/>
	<path class="st2" d="M656.8,796.8l-20.9,25.1c12.9-0.6,26.1-1.1,39.4-1.6C670.9,811.3,664.7,803.3,656.8,796.8z"/>
</g>
</svg>
