<svg xmlns="http://www.w3.org/2000/svg" width="213.5" height="53.174" viewBox="0 0 213.5 53.174">
  <g id="logo" transform="translate(111.596 12.221)">
    <g id="그룹_356" data-name="그룹 356" transform="translate(-47.025 -9.029)">
      <g id="그룹_352" data-name="그룹 352" transform="translate(0.187 41.556)">
        <g id="그룹_351" data-name="그룹 351" transform="translate(0 0)">
          <path id="패스_2209" data-name="패스 2209" d="M-80.5,9.3h.535v2.122h.017l1.76-2.122h.6l-1.318,1.612,1.524,2.611h-.591l-1.266-2.2-.723.864v1.335H-80.5Z" transform="translate(80.498 -9.23)" fill="#3b3938"/>
          <path id="패스_2210" data-name="패스 2210" d="M-79.031,11.442c0-1.351.741-2.174,1.8-2.174s1.8.823,1.8,2.174-.741,2.2-1.8,2.2S-79.031,12.791-79.031,11.442Zm3.055,0c0-1.06-.5-1.71-1.256-1.71s-1.254.65-1.254,1.71.5,1.73,1.254,1.73S-75.976,12.494-75.976,11.442Z" transform="translate(82.086 -9.268)" fill="#3b3938"/>
          <path id="패스_2211" data-name="패스 2211" d="M-77.006,9.3h1.324c.856,0,1.472.312,1.472,1.191a1.144,1.144,0,0,1-.956,1.185l1.081,1.847h-.6l-1.025-1.789h-.758v1.789h-.535Zm1.243,2c.66,0,1.022-.264,1.022-.812s-.362-.754-1.022-.754h-.708v1.566Z" transform="translate(84.278 -9.23)" fill="#3b3938"/>
          <path id="패스_2212" data-name="패스 2212" d="M-75.389,9.3h2.432v.454h-1.9v1.324h1.6v.454h-1.6V13.07h1.962v.456h-2.495Z" transform="translate(86.028 -9.23)" fill="#3b3938"/>
          <path id="패스_2213" data-name="패스 2213" d="M-72.742,9.3h.593l1.433,4.223h-.564l-.4-1.289h-1.543l-.406,1.289h-.541Zm-.35,2.507h1.277l-.2-.643c-.156-.477-.289-.937-.427-1.426h-.023c-.131.5-.271.95-.419,1.426Z" transform="translate(87.344 -9.23)" fill="#3b3938"/>
          <path id="패스_2214" data-name="패스 2214" d="M-71.888,9.3h.552l1.535,2.663.45.868h.027c-.027-.425-.069-.9-.069-1.335V9.3h.506v4.223h-.546l-1.535-2.663-.454-.868h-.025c.025.425.065.875.065,1.316v2.216h-.506Z" transform="translate(89.817 -9.23)" fill="#3b3938"/>
          <path id="패스_2215" data-name="패스 2215" d="M-68.87,9.3h.593l1.431,4.223h-.562l-.4-1.289h-1.541l-.408,1.289H-70.3Zm-.35,2.507h1.277l-.2-.643c-.156-.477-.287-.937-.425-1.426h-.023c-.133.5-.271.95-.421,1.426Z" transform="translate(91.533 -9.23)" fill="#3b3938"/>
          <path id="패스_2216" data-name="패스 2216" d="M-67.578,9.757h-1.279V9.3h3.09v.454h-1.279v3.769h-.533Z" transform="translate(93.098 -9.23)" fill="#3b3938"/>
          <path id="패스_2217" data-name="패스 2217" d="M-67.152,9.3h.535v4.223h-.535Z" transform="translate(94.944 -9.23)" fill="#3b3938"/>
          <path id="패스_2218" data-name="패스 2218" d="M-66.6,11.442c0-1.351.741-2.174,1.8-2.174s1.8.823,1.8,2.174-.743,2.2-1.8,2.2S-66.6,12.791-66.6,11.442Zm3.053,0c0-1.06-.5-1.71-1.254-1.71s-1.254.65-1.254,1.71.5,1.73,1.254,1.73S-63.544,12.494-63.544,11.442Z" transform="translate(95.544 -9.268)" fill="#3b3938"/>
          <path id="패스_2219" data-name="패스 2219" d="M-64.573,9.3h.554l1.535,2.663.448.868h.029c-.029-.425-.069-.9-.069-1.335V9.3h.506v4.223h-.546l-1.537-2.663-.454-.868h-.023c.023.425.062.875.062,1.316v2.216h-.506Z" transform="translate(97.735 -9.23)" fill="#3b3938"/>
          <path id="패스_2220" data-name="패스 2220" d="M-61.554,9.3h.593l1.431,4.223h-.562l-.4-1.289h-1.541l-.408,1.289h-.541Zm-.352,2.507h1.279l-.2-.643c-.156-.477-.287-.937-.425-1.426h-.023c-.133.5-.271.95-.421,1.426Z" transform="translate(99.452 -9.23)" fill="#3b3938"/>
          <path id="패스_2221" data-name="패스 2221" d="M-61.182,9.3h.535V13.07h1.841v.456h-2.376Z" transform="translate(101.406 -9.23)" fill="#3b3938"/>
          <path id="패스_2222" data-name="패스 2222" d="M-59.458,11.459a1.937,1.937,0,0,1,1.87-2.191,1.556,1.556,0,0,1,1.156.523l-.287.346a1.15,1.15,0,0,0-.862-.4c-.8,0-1.331.656-1.331,1.71s.508,1.73,1.312,1.73a1.282,1.282,0,0,0,.979-.473l.294.335a1.63,1.63,0,0,1-1.3.6C-58.669,13.639-59.458,12.827-59.458,11.459Z" transform="translate(103.272 -9.268)" fill="#3b3938"/>
          <path id="패스_2223" data-name="패스 2223" d="M-57.719,9.3h2.432v.454h-1.9v1.324h1.6v.454h-1.6V13.07h1.96v.456h-2.495Z" transform="translate(105.154 -9.23)" fill="#3b3938"/>
          <path id="패스_2224" data-name="패스 2224" d="M-56.235,9.3h.552l1.535,2.663.45.868h.027c-.027-.425-.069-.9-.069-1.335V9.3h.506v4.223h-.546l-1.535-2.663-.454-.868h-.025c.025.425.065.875.065,1.316v2.216h-.506Z" transform="translate(106.76 -9.23)" fill="#3b3938"/>
          <path id="패스_2225" data-name="패스 2225" d="M-53.3,9.757h-1.277V9.3h3.088v.454H-52.76v3.769H-53.3Z" transform="translate(108.56 -9.23)" fill="#3b3938"/>
          <path id="패스_2226" data-name="패스 2226" d="M-52.867,9.3h2.432v.454h-1.9v1.324h1.6v.454h-1.6V13.07h1.96v.456h-2.495Z" transform="translate(110.406 -9.23)" fill="#3b3938"/>
          <path id="패스_2227" data-name="패스 2227" d="M-51.383,9.3h1.324c.856,0,1.472.312,1.472,1.191a1.144,1.144,0,0,1-.956,1.185l1.081,1.847h-.6l-1.022-1.789h-.76v1.789h-.535Zm1.243,2c.66,0,1.022-.264,1.022-.812s-.362-.754-1.022-.754h-.708v1.566Z" transform="translate(112.012 -9.23)" fill="#3b3938"/>
          <path id="패스_2228" data-name="패스 2228" d="M-49.286,9.3h2.432v.454h-1.9v1.429h1.61v.448h-1.61v1.893h-.535Z" transform="translate(114.282 -9.23)" fill="#3b3938"/>
          <path id="패스_2229" data-name="패스 2229" d="M-48.048,11.442c0-1.351.743-2.174,1.8-2.174s1.8.823,1.8,2.174-.741,2.2-1.8,2.2S-48.048,12.791-48.048,11.442Zm3.055,0c0-1.06-.5-1.71-1.254-1.71s-1.254.65-1.254,1.71.494,1.73,1.254,1.73S-44.993,12.494-44.993,11.442Z" transform="translate(115.622 -9.268)" fill="#3b3938"/>
          <path id="패스_2230" data-name="패스 2230" d="M-46.022,9.3H-44.7c.856,0,1.472.312,1.472,1.191a1.144,1.144,0,0,1-.954,1.185l1.081,1.847h-.6l-1.025-1.789h-.758v1.789h-.535Zm1.241,2c.662,0,1.025-.264,1.025-.812s-.362-.754-1.025-.754h-.706v1.566Z" transform="translate(117.815 -9.23)" fill="#3b3938"/>
          <path id="패스_2231" data-name="패스 2231" d="M-42.839,9.757h-1.277V9.3h3.088v.454H-42.3v3.769h-.535Z" transform="translate(119.878 -9.23)" fill="#3b3938"/>
          <path id="패스_2232" data-name="패스 2232" d="M-42.411,9.3h.533v1.772h1.968V9.3h.529v4.223h-.529V11.535h-1.968v1.991h-.533Z" transform="translate(121.723 -9.23)" fill="#3b3938"/>
          <path id="패스_2233" data-name="패스 2233" d="M-40.541,9.3h2.432v.454h-1.9v1.324h1.6v.454h-1.6V13.07h1.96v.456h-2.495Z" transform="translate(123.747 -9.23)" fill="#3b3938"/>
          <path id="패스_2234" data-name="패스 2234" d="M-38.576,9.3h1.322c.856,0,1.472.312,1.472,1.191a1.144,1.144,0,0,1-.956,1.185l1.081,1.847h-.6l-1.022-1.789h-.76v1.789h-.533Zm1.241,2c.662,0,1.022-.264,1.022-.812s-.36-.754-1.022-.754h-.708v1.566Z" transform="translate(125.874 -9.23)" fill="#3b3938"/>
          <path id="패스_2235" data-name="패스 2235" d="M-36.96,9.3h.535v4.223h-.535Z" transform="translate(127.623 -9.23)" fill="#3b3938"/>
          <path id="패스_2236" data-name="패스 2236" d="M-36.406,11.459a1.956,1.956,0,0,1,1.932-2.191,1.607,1.607,0,0,1,1.214.523l-.287.346a1.184,1.184,0,0,0-.914-.4c-.848,0-1.4.656-1.4,1.71s.5,1.73,1.41,1.73a1.152,1.152,0,0,0,.76-.248v-1.1h-.893v-.444H-33.2V13.15a1.816,1.816,0,0,1-1.306.489A1.927,1.927,0,0,1-36.406,11.459Z" transform="translate(128.223 -9.268)" fill="#3b3938"/>
          <path id="패스_2237" data-name="패스 2237" d="M-34.527,9.3h.535v1.772h1.966V9.3h.529v4.223h-.529V11.535h-1.966v1.991h-.535Z" transform="translate(130.257 -9.23)" fill="#3b3938"/>
          <path id="패스_2238" data-name="패스 2238" d="M-31.57,9.757h-1.277V9.3h3.088v.454h-1.277v3.769h-.535Z" transform="translate(132.075 -9.23)" fill="#3b3938"/>
          <path id="패스_2239" data-name="패스 2239" d="M-31.41,13.01l.323-.36a1.637,1.637,0,0,0,1.16.523c.554,0,.887-.277.887-.689,0-.433-.306-.571-.7-.75l-.61-.264a1.188,1.188,0,0,1-.856-1.081,1.2,1.2,0,0,1,1.326-1.12,1.727,1.727,0,0,1,1.243.523l-.281.339a1.372,1.372,0,0,0-.962-.4c-.477,0-.785.242-.785.623,0,.406.366.562.7.7l.6.258a1.179,1.179,0,0,1,.868,1.129,1.275,1.275,0,0,1-1.433,1.2A2.016,2.016,0,0,1-31.41,13.01Z" transform="translate(133.631 -9.268)" fill="#3b3938"/>
          <path id="패스_2240" data-name="패스 2240" d="M-29.39,11.442c0-1.351.741-2.174,1.8-2.174s1.8.823,1.8,2.174-.743,2.2-1.8,2.2S-29.39,12.791-29.39,11.442Zm3.053,0c0-1.06-.5-1.71-1.254-1.71s-1.254.65-1.254,1.71.5,1.73,1.254,1.73S-26.337,12.494-26.337,11.442Z" transform="translate(135.817 -9.268)" fill="#3b3938"/>
          <path id="패스_2241" data-name="패스 2241" d="M-27.365,9.3h2.432v.454h-1.9v1.429h1.61v.448h-1.61v1.893h-.535Z" transform="translate(138.009 -9.23)" fill="#3b3938"/>
          <path id="패스_2242" data-name="패스 2242" d="M-24.412,9.757h-1.279V9.3h3.09v.454h-1.279v3.769h-.533Z" transform="translate(139.821 -9.23)" fill="#3b3938"/>
          <path id="패스_2243" data-name="패스 2243" d="M-23.986,9.3h.535v1.772h1.968V9.3h.527v4.223h-.527V11.535h-1.968v1.991h-.535Z" transform="translate(141.667 -9.23)" fill="#3b3938"/>
          <path id="패스_2244" data-name="패스 2244" d="M-22.115,9.3h2.432v.454h-1.9v1.324h1.6v.454h-1.6V13.07h1.96v.456h-2.495Z" transform="translate(143.692 -9.23)" fill="#3b3938"/>
          <path id="패스_2245" data-name="패스 2245" d="M-20.267,11.459A1.937,1.937,0,0,1-18.4,9.268a1.556,1.556,0,0,1,1.156.523l-.287.346a1.15,1.15,0,0,0-.862-.4c-.8,0-1.331.656-1.331,1.71s.508,1.73,1.312,1.73a1.282,1.282,0,0,0,.979-.473l.294.335a1.633,1.633,0,0,1-1.3.6C-19.478,13.639-20.267,12.827-20.267,11.459Z" transform="translate(145.692 -9.268)" fill="#3b3938"/>
          <path id="패스_2246" data-name="패스 2246" d="M-18.529,9.3h.535v1.772h1.968V9.3h.529v4.223h-.529V11.535h-1.968v1.991h-.535Z" transform="translate(147.573 -9.23)" fill="#3b3938"/>
          <path id="패스_2247" data-name="패스 2247" d="M-16.658,9.3h.535v4.223h-.535Z" transform="translate(149.598 -9.23)" fill="#3b3938"/>
          <path id="패스_2248" data-name="패스 2248" d="M-15.988,9.3h.535V13.07h1.841v.456h-2.376Z" transform="translate(150.324 -9.23)" fill="#3b3938"/>
          <path id="패스_2249" data-name="패스 2249" d="M-14.628,9.3h1.058a1.848,1.848,0,0,1,1.991,2.1,1.862,1.862,0,0,1-1.968,2.122h-1.081Zm1.012,3.786c1,0,1.485-.623,1.485-1.685s-.489-1.664-1.485-1.664h-.477v3.349Z" transform="translate(151.796 -9.23)" fill="#3b3938"/>
        </g>
      </g>
      <g id="그룹_354" data-name="그룹 354" transform="translate(0.51)">
        <g id="그룹_353" data-name="그룹 353">
          <path id="패스_2250" data-name="패스 2250" d="M-77.132-9.617h-3.211v-.4h1.356v-.666h.5v.666h1.36ZM-78.74-7.293c-.771,0-1.3-.4-1.3-1.014s.529-1.006,1.3-1.006,1.306.4,1.306,1.006S-77.969-7.293-78.74-7.293Zm0-.389c.491,0,.831-.242.831-.625s-.339-.618-.831-.618-.825.242-.825.618S-79.231-7.682-78.74-7.682Zm-.285,1.912h3.132v.408h-3.63v-1.56h.5Zm3.69-3.119v.419h-.8V-6.6h-.5v-4.084h.5v1.8Z" transform="translate(80.343 10.691)" fill="#3b3938"/>
          <path id="패스_2251" data-name="패스 2251" d="M-75.1-8.211v1h1.622v1.833h-.5V-6.816h-3.313v-.4H-75.6v-1h-2.214v-.406h3.665A6.493,6.493,0,0,0-74-10.16h-3.18v-.4h3.671v.394a7.078,7.078,0,0,1-.133,1.549h.77v.406Z" transform="translate(83.084 10.827)" fill="#3b3938"/>
          <path id="패스_2252" data-name="패스 2252" d="M-72.495-8.371c0,1.16-.564,1.9-1.366,1.9s-1.37-.739-1.37-1.9.569-1.9,1.37-1.9S-72.495-9.528-72.495-8.371Zm-.473,0c0-.881-.371-1.451-.893-1.451s-.9.571-.9,1.451.371,1.456.9,1.456S-72.967-7.486-72.967-8.371Zm2.743.273h-.9v2.853h-.5v-5.437h.5v2.166h.9Z" transform="translate(85.876 10.694)" fill="#3b3938"/>
          <path id="패스_2253" data-name="패스 2253" d="M-67.8-8.125v.4h-4.927v-.4h2.214v-.631h-1.593v-1.81h3.694v.4h-3.2v1.008h3.236v.4h-1.641v.631Zm-.606,1.772c0,.631-.7.983-1.858.983s-1.868-.352-1.868-.983.7-.983,1.868-.983S-68.407-6.984-68.407-6.353Zm-.5,0c0-.383-.5-.6-1.354-.6s-1.366.212-1.366.6.5.6,1.366.6S-68.911-5.97-68.911-6.353Z" transform="translate(88.585 10.82)" fill="#3b3938"/>
          <path id="패스_2254" data-name="패스 2254" d="M-68.67-8.158c-.527.025-1.033.031-1.47.031l-.067-.406c.7-.006,1.56-.012,2.416-.075a7.923,7.923,0,0,0,.135-1.347h-2.053v-.4h2.536v.206a8.689,8.689,0,0,1-.112,1.5c.2-.019.419-.037.61-.067l.037.358a14.054,14.054,0,0,1-1.535.177v1.256h-.5Zm3.119,2.384v.408H-69.4V-7.023h.491v1.249Zm-.631-1.947v-2.961h.5v4.109h-.5v-.754h-1.185v-.394Z" transform="translate(91.314 10.694)" fill="#3b3938"/>
          <path id="패스_2255" data-name="패스 2255" d="M-66.987-6.961a15.96,15.96,0,0,0,2.647-.2l.048.406a15.706,15.706,0,0,1-2.743.2h-.45V-8.637h2V-9.772H-67.5v-.406h2.526v1.941h-2.01Zm3.655-3.727v5.456h-.5v-5.456Z" transform="translate(94.241 10.688)" fill="#3b3938"/>
          <path id="패스_2256" data-name="패스 2256" d="M-60.17-6.549v.408H-65.1v-.408H-62.9v-1.17H-64.52V-10.5h.489v.972h2.78V-10.5h.487v2.78h-1.628v1.17Zm-3.861-1.57h2.78v-1h-2.78Z" transform="translate(96.839 10.893)" fill="#3b3938"/>
          <path id="패스_2257" data-name="패스 2257" d="M-59.629-7.667a2.116,2.116,0,0,1-1.318-1.17A2.243,2.243,0,0,1-62.318-7.5l-.256-.4A1.925,1.925,0,0,0-61.208-9.67v-.21h-1.22v-.4h2.92v.4h-1.2v.21a1.773,1.773,0,0,0,1.316,1.616Zm1.364,1.408c0,.639-.685,1.008-1.789,1.008s-1.8-.369-1.8-1.008.681-1,1.8-1S-58.266-6.89-58.266-6.259Zm-.5,0c0-.381-.489-.606-1.291-.606s-1.3.225-1.3.606.485.614,1.3.614S-58.763-5.87-58.763-6.259Zm1.245-3.051v.416h-.808v1.5h-.5v-3.284h.5V-9.31Z" transform="translate(99.576 10.694)" fill="#3b3938"/>
          <path id="패스_2258" data-name="패스 2258" d="M-58.457-7.784c-.539.025-1.062.031-1.512.031l-.067-.414a29.549,29.549,0,0,0,3.509-.156l.042.358c-.479.071-.983.127-1.474.156v1.075h-.5ZM-59.6-9.521c0-.568.548-.945,1.343-.945s1.339.377,1.339.945-.546.954-1.339.954S-59.6-8.938-59.6-9.521Zm4.194,3.75v.408h-3.848V-6.947h.5v1.177Zm-3.719-3.75c0,.352.352.583.868.583s.866-.231.866-.583-.352-.575-.866-.575S-59.129-9.867-59.129-9.521Zm3.082,2.051v-3.215h.5v4.144h-.5V-7.1h-1.1V-7.47Z" transform="translate(102.324 10.691)" fill="#3b3938"/>
        </g>
      </g>
      <g id="그룹_355" data-name="그룹 355" transform="translate(0 8.246)">
        <path id="패스_2259" data-name="패스 2259" d="M-47.315,20.985H-80.588V15.4h8.629V4.33h7.28V15.4h17.363ZM-49.462,12.7h-6.991V-1.191H-78.547V-6.378h29.085Z" transform="translate(80.588 7.107)" fill="#cb0027"/>
        <path id="패스_2260" data-name="패스 2260" d="M-39.476,22.819h-6.41v-4.1l-17.144,1.73V-6h6.989V14.477l10.156-1V7.955H-51.6V3.1h5.714V-6.424h6.41Zm9.025.546h-6.843V-6.728h6.843Z" transform="translate(99.593 6.728)" fill="#ffba00"/>
        <path id="패스_2261" data-name="패스 2261" d="M-13.076,20.985h-33.27V15.4h8.627V4.33h7.28V15.4h17.363ZM-15.222,12.7h-6.991V-1.191H-44.307V-6.378h29.085Z" transform="translate(117.652 7.107)" fill="#278e2a"/>
        <path id="패스_2262" data-name="패스 2262" d="M-5.236,22.819h-6.408v-4.1l-17.146,1.73V-6H-21.8V14.477l10.156-1V7.955H-17.36V3.1h5.716V-6.424h6.408Zm9.027.546H-3.052V-6.728H3.791Z" transform="translate(136.654 6.728)" fill="#00489b"/>
      </g>
    </g>
    <path id="패스_2263" data-name="패스 2263" d="M-41.371-4.995A3.281,3.281,0,0,1-44.649-8.27a3.281,3.281,0,0,1,3.278-3.278A3.281,3.281,0,0,1-38.1-8.27,3.28,3.28,0,0,1-41.371-4.995Zm0-4.563A1.288,1.288,0,0,0-42.658-8.27a1.287,1.287,0,0,0,1.287,1.285A1.287,1.287,0,0,0-40.086-8.27,1.287,1.287,0,0,0-41.371-9.557Z" transform="translate(72.463 0.728)" fill="#cb0027"/>
    <path id="패스_2264" data-name="패스 2264" d="M-82.357-3.8a4.523,4.523,0,0,1-2.93-1.075L-84-6.394a2.553,2.553,0,0,0,3.59-.3,2.549,2.549,0,0,0-.3-3.59l1.287-1.518a4.541,4.541,0,0,1,.529,6.4A4.535,4.535,0,0,1-82.357-3.8Z" transform="translate(28.477 0.456)" fill="#ffba00"/>
    <path id="패스_2265" data-name="패스 2265" d="M-81.719,16.72A3.279,3.279,0,0,1-85,13.445a3.281,3.281,0,0,1,3.276-3.278,3.281,3.281,0,0,1,3.278,3.278A3.279,3.279,0,0,1-81.719,16.72Zm0-4.563A1.289,1.289,0,0,0-83,13.445a1.287,1.287,0,0,0,1.285,1.285,1.287,1.287,0,0,0,1.287-1.285A1.289,1.289,0,0,0-81.719,12.158Z" transform="translate(28.793 24.233)" fill="#cb0027"/>
    <path id="패스_2266" data-name="패스 2266" d="M-11.756,17.613a4.585,4.585,0,0,1-.581-.037l.254-1.974a2.555,2.555,0,0,0,2.851-2.2,2.551,2.551,0,0,0-2.2-2.851l.254-1.974a4.54,4.54,0,0,1,3.923,5.079A4.544,4.544,0,0,1-11.756,17.613Z" transform="translate(107.438 22.507)" fill="#ffba00"/>
    <rect id="사각형_95" data-name="사각형 95" width="1.99" height="6.986" transform="matrix(0.707, -0.707, 0.707, 0.707, 18.78, -10.814)" fill="#278e2a"/>
    <path id="패스_2267" data-name="패스 2267" d="M-8.385-3.624A4.423,4.423,0,0,1-11.279-4.7a4.422,4.422,0,0,1-1.537-3.04,4.427,4.427,0,0,1,1.062-3.238l1.51,1.3A2.467,2.467,0,0,0-9.982-6.21a2.463,2.463,0,0,0,3.471-.262L-5-5.175a4.433,4.433,0,0,1-3.04,1.539Q-8.213-3.624-8.385-3.624Z" transform="translate(106.905 1.344)" fill="#00489b"/>
    <g id="그룹_363" data-name="그룹 363" transform="translate(-111.596 -12.044)">
      <g id="그룹_362" data-name="그룹 362" transform="translate(0.437 0.437)">
        <path id="패스_2268" data-name="패스 2268" d="M-100.17,2.33a18.934,18.934,0,0,1,1.653,1.362c.212.206.4.421.589.633a24.135,24.135,0,0,1,2.12-1.8C-96.463,1.495-97.126.45-97.8-.665c-.029-.048-.05-.09-.079-.137C-98.254-.265-98.606.283-99,.814S-99.781,1.822-100.17,2.33Z" transform="translate(123.526 23.967)" fill="none"/>
        <path id="패스_2269" data-name="패스 2269" d="M-103.229-2.4l.029-.052c.456-.8.127-1.387-1.26-2.224a6.689,6.689,0,0,0-.633-.279L-106.2-.722A3.677,3.677,0,0,0-103.229-2.4Z" transform="translate(117.001 19.476)" fill="#fff"/>
        <path id="패스_2270" data-name="패스 2270" d="M-108.442-6.993a2.027,2.027,0,0,0-.7.125,1.888,1.888,0,0,0-1.208,1.206,3.107,3.107,0,0,0,.469,2.124,2.983,2.983,0,0,0,.179.294l3.344-2.9A3.77,3.77,0,0,0-108.442-6.993Z" transform="translate(112.44 17.265)" fill="#fff"/>
        <path id="패스_2271" data-name="패스 2271" d="M-106.265-6.329l-3.569,3.1c.133.165.264.329.408.5l.277.323A8.285,8.285,0,0,0-107.375-.9l2.68-4.315C-105.278-5.606-105.821-5.99-106.265-6.329Z" transform="translate(113.066 17.984)" fill="#fff"/>
        <path id="패스_2272" data-name="패스 2272" d="M-103.676-4.651a12.045,12.045,0,0,1-1.543-.675c-.142-.077-.262-.167-.4-.248l-2.674,4.306a12.992,12.992,0,0,0,2.528,1.079,4.969,4.969,0,0,0,.929.146l1.2-4.59Z" transform="translate(114.734 18.801)" fill="#fff"/>
        <path id="패스_2273" data-name="패스 2273" d="M-100.1-1.812c1.889-1.414-2.541-3.392-2.541-3.392S-101.989-.4-100.1-1.812Z" transform="translate(120.852 19.202)" fill="#fff"/>
        <path id="패스_2274" data-name="패스 2274" d="M-88.834-1.751c.246.067.537-.075.868-.421.371-.385.519-.733.437-1.031-.171-.623-1.2-1.091-1.789-1.3l-.033.033a7.7,7.7,0,0,1,1.358,1.42.436.436,0,0,1-.131.606.425.425,0,0,1-.237.069.441.441,0,0,1-.369-.2,7.609,7.609,0,0,0-1.3-1.324l-.077.065C-89.883-3.063-89.408-1.909-88.834-1.751Z" transform="translate(134.417 19.964)" fill="#db3d88"/>
        <path id="패스_2275" data-name="패스 2275" d="M-89.743-4.389l.1-.36h0l-.308.252c.037.015.079.006.112.031Z" transform="translate(134.587 19.694)" fill="#db3d88"/>
        <path id="패스_2276" data-name="패스 2276" d="M-90.132-4.26c.015.052.033.11.05.169L-90-4.156C-90.049-4.191-90.1-4.233-90.132-4.26Z" transform="translate(134.391 20.224)" fill="#db3d88"/>
        <path id="패스_2277" data-name="패스 2277" d="M-89.784-4.52l.083.075.033-.033Z" transform="translate(134.768 19.942)" fill="#db3d88"/>
        <path id="패스_2278" data-name="패스 2278" d="M-90.081-4.4l-.279.229h0l.36-.083A.44.44,0,0,1-90.081-4.4Z" transform="translate(134.145 20.069)" fill="#db3d88"/>
        <g id="그룹_357" data-name="그룹 357" transform="translate(20.657)">
          <path id="패스_2279" data-name="패스 2279" d="M-92.116-11.914a6.422,6.422,0,0,1,2.361,2.751l.975,2.157,4.24-1.914A11.74,11.74,0,0,0-92.116-11.914Z" transform="translate(111.587 11.939)" fill="#ffc400"/>
          <path id="패스_2280" data-name="패스 2280" d="M-91.035-2.836l-.439-.972,0-.015v0a6.4,6.4,0,0,1-.458-1.6,6.5,6.5,0,0,1,2.861-6.5h-9.677c-.044.06-.1.115-.142.175-.087.125-.194.235-.279.362s-.187.237-.267.367a13.855,13.855,0,0,0-1.179,2.382,13.629,13.629,0,0,0-.8,5.943,13.443,13.443,0,0,0,.254,1.953,14.129,14.129,0,0,0,.65,1.939c.087.219.127.446.225.662l.339.754L-96.3.966l2.334-1.054L-91.718-1.1l.423-.192.425-.189.371-.169-.248-.55Z" transform="translate(101.466 11.926)" fill="#ffc400"/>
          <path id="패스_2281" data-name="패스 2281" d="M-91-10.234l-.545.246.8,1.769.545-.246-.044-.1Z" transform="translate(112.207 13.758)" fill="#ffc400"/>
          <rect id="사각형_96" data-name="사각형 96" width="7.389" height="1.94" transform="matrix(0.911, -0.411, 0.411, 0.911, 10.968, 8.146)" fill="#ffc400"/>
        </g>
        <g id="그룹_358" data-name="그룹 358" transform="translate(22.45)">
          <path id="패스_2282" data-name="패스 2282" d="M-89.487-7.62a.439.439,0,0,1-.008-.333.431.431,0,0,1,.229-.244l2.161-.977a.442.442,0,0,1,.579.219l.5-.229a5.566,5.566,0,0,0-2.907-2.551,5.685,5.685,0,0,0-.7-.192h-2.634a5.92,5.92,0,0,0-.96.325,5.61,5.61,0,0,0-2.955,7Z" transform="translate(105.037 11.926)" fill="#278e2a"/>
          <path id="패스_2283" data-name="패스 2283" d="M-74.644-10.167l-4.987,2.249-.945.427.075.165a.436.436,0,0,1,.01.335.442.442,0,0,1-.229.246l-2.162.975a.466.466,0,0,1-.181.04.442.442,0,0,1-.4-.258l-.073-.167-7.136,3.219-1.062.481-.462.208-.462.208-2.268,1.022-1.945.877-3.734,1.687c.514,1.16,1.068,2.328,1.714,3.488.471.841,1.018,1.762,1.549,2.668.083.142.158.275.244.419s.158.273.244.419c.1.165.179.312.279.479.658,1.1,1.31,2.122,1.955,3.132a32.614,32.614,0,0,1,3.638-2.218,27.15,27.15,0,0,1,8.711-2.976c.052-.008.1-.006.156-.015-.26-.146-.508-.252-.762-.375a12.822,12.822,0,0,0-2.67-.991A9.682,9.682,0,0,0-86.692,5.4a8.938,8.938,0,0,0-3.763.325,4.952,4.952,0,0,0-.685.281.435.435,0,0,1-.6-.165.437.437,0,0,1,.165-.6,9.082,9.082,0,0,1,5.927-.585,12.515,12.515,0,0,1,1.691.487,14.5,14.5,0,0,1,2.58,1.183.425.425,0,0,1,.165.533,17.38,17.38,0,0,1,7.29.806,16.206,16.206,0,0,1,2.605,1.216V2.929a2.413,2.413,0,0,0-.706-.344h0c-.069,0-.162.144-.269.317a1.465,1.465,0,0,1-1.22.833,1.051,1.051,0,0,1-1.056-.566,1.146,1.146,0,0,1-.112-.375,2.018,2.018,0,0,1-.648.087A1.956,1.956,0,0,1-75.97,4.57a1.948,1.948,0,0,1-1.37.708,1.388,1.388,0,0,1-.367-.05c-.941-.262-1.506-1.522-1.783-2.351-.119-.352-.19-.633-.208-.714l.427-.1h0l.279-.229a.415.415,0,0,1,.069-.367.42.42,0,0,1,.5-.1l.308-.252h0l.117-.423a6.951,6.951,0,0,1,.731.264,5.444,5.444,0,0,1,.541.258,1.363,1.363,0,0,1,.51-.96,1.506,1.506,0,0,1-.227-.248,1.124,1.124,0,0,1-.117-.127A1.194,1.194,0,0,1-76.7-.967a1.263,1.263,0,0,1,.075-.377,1.834,1.834,0,0,1,1.093-.962,1.389,1.389,0,0,1,1.122.1,1.394,1.394,0,0,1,.239-.381,1.494,1.494,0,0,1,1.508-.471,1.182,1.182,0,0,1,.848,1,2.452,2.452,0,0,1-.006.679,2.144,2.144,0,0,0-.017.4.788.788,0,0,0,.525.575V-1.983A11.784,11.784,0,0,0-74.644-10.167Z" transform="translate(100.605 13.83)" fill="#278e2a"/>
          <path id="패스_2284" data-name="패스 2284" d="M-85.56-5.02a2.759,2.759,0,0,1,.019-.571,1.956,1.956,0,0,0,.012-.45.318.318,0,0,0-.225-.3.627.627,0,0,0-.6.206.664.664,0,0,0-.05.743.434.434,0,0,1-.212.573.44.44,0,0,1-.579-.2,1.4,1.4,0,0,0-.5-.554.5.5,0,0,0-.423-.029.98.98,0,0,0-.56.485.37.37,0,0,0,.012.391,1.289,1.289,0,0,0,.985.448.437.437,0,0,1,.433.441.435.435,0,0,1-.437.435h0a1.4,1.4,0,0,0-.85.227.539.539,0,0,0-.2.435.676.676,0,0,0,.252.537c.333.237,1.035-.027,1.335-.41a.438.438,0,0,1,.614-.077.438.438,0,0,1,.077.614l0,0a.828.828,0,0,0-.177.714c.01.021.021.1.252.083.119,0,.264-.046.452-.348.223-.362.535-.856,1.141-.8a1.818,1.818,0,0,1,.627.212V-3.585A1.768,1.768,0,0,1-85.56-5.02Z" transform="translate(113.454 17.956)" fill="#278e2a"/>
        </g>
        <g id="그룹_359" data-name="그룹 359">
          <path id="패스_2285" data-name="패스 2285" d="M-87.986,7.365a43.072,43.072,0,0,1-2.051-4.171,10.092,10.092,0,0,1-.593-1.8A14.458,14.458,0,0,1-90.7-8.95a14.71,14.71,0,0,1,1.172-2.374c-.071-.019-.14-.058-.208-.075a10.5,10.5,0,0,0-3.055-.325.369.369,0,0,1-.366-.2h-6.383A11.868,11.868,0,0,0-111.357-.362a1.216,1.216,0,0,1,.546.277,1.625,1.625,0,0,1,.387,1.666,1.544,1.544,0,0,1-.26.479l.037.019a1.493,1.493,0,0,1,.725,1,2,2,0,0,1-.3,1.56,1.345,1.345,0,0,1-1.168.6v4.6a19.636,19.636,0,0,1,5.373-1.056,21.206,21.206,0,0,1,2.636.044,1.941,1.941,0,0,1,.593-.229,10.968,10.968,0,0,1,1.335-.893,5.731,5.731,0,0,1-1.222-.177,13.787,13.787,0,0,1-2.976-1.3.412.412,0,0,1-.169-.048c-.031-.019-.035-.056-.058-.081a9.413,9.413,0,0,1-2.266-1.887l-.271-.317a7.539,7.539,0,0,1-1.214-1.718,3.835,3.835,0,0,1-.521-2.724,2.739,2.739,0,0,1,1.753-1.805c1.705-.625,3.14.471,4.29,1.351A21.623,21.623,0,0,0-101.451.781a11.364,11.364,0,0,0,1.437.625A11.982,11.982,0,0,1-98.4,2.12c.789.479,2.618,1.583,1.574,3.419l-.033.058a4.148,4.148,0,0,1-.658.8,8.762,8.762,0,0,1,2.938.117.436.436,0,0,1,.306.537.439.439,0,0,1-.535.308,5.509,5.509,0,0,0-.56-.1,8.981,8.981,0,0,0-6.193,1.508c-.1.065-.2.146-.3.217.314.042.631.09.952.144.177.029.358.073.537.106.2.037.392.075.591.117.077.015.152.027.231.046a.43.43,0,0,0-.058-.129l.433-.2.4-.192a1.336,1.336,0,0,1,.179.739c.756.189,1.52.4,2.3.65A33.336,33.336,0,0,1-91,12.451a22.963,22.963,0,0,1,2.266,1.391c.385-.5.787-.989,1.166-1.5.466-.639.891-1.291,1.341-1.937C-86.837,9.362-87.453,8.323-87.986,7.365ZM-103.623-3.08a.426.426,0,0,1-.2.048.438.438,0,0,1-.392-.239,2.391,2.391,0,0,0-2.274-1.312.441.441,0,0,1-.491-.379.438.438,0,0,1,.379-.491,3.278,3.278,0,0,1,3.169,1.787A.438.438,0,0,1-103.623-3.08Zm1.179-3.523a6.5,6.5,0,0,1-1.027.083,3.109,3.109,0,0,1-1.493-.308.437.437,0,0,1-.158-.6.437.437,0,0,1,.6-.16,3.7,3.7,0,0,0,1.935.119.442.442,0,0,1,.5.36A.438.438,0,0,1-102.444-6.6Zm8.421,8.3a.432.432,0,0,1-.271.094.443.443,0,0,1-.346-.167A2.391,2.391,0,0,0-97.18.962a.435.435,0,0,1-.554-.275.434.434,0,0,1,.273-.554,3.253,3.253,0,0,1,3.511.947A.437.437,0,0,1-94.023,1.695Zm-.394-4.144a.437.437,0,0,1,.373-.494.43.43,0,0,1,.494.373,3.72,3.72,0,0,0,.7,1.808.436.436,0,0,1,.029.618A.431.431,0,0,1-93.148,0a.433.433,0,0,1-.3-.115A4.5,4.5,0,0,1-94.417-2.449Zm3.782,7.913c-1.889,1.414-2.541-3.392-2.541-3.392S-88.746,4.05-90.635,5.464Z" transform="translate(111.386 11.926)" fill="#3a64f9"/>
          <path id="패스_2286" data-name="패스 2286" d="M-111.386-5.908v.868a.606.606,0,0,0,.129-.171A.764.764,0,0,0-111.386-5.908Z" transform="translate(111.386 18.44)" fill="#3a64f9"/>
          <path id="패스_2287" data-name="패스 2287" d="M-110.934-3.519a1.125,1.125,0,0,0,.158-.856.625.625,0,0,0-.294-.423,1.576,1.576,0,0,0-.317-.065V-3.3l.027.008A.455.455,0,0,0-110.934-3.519Z" transform="translate(111.386 19.572)" fill="#3a64f9"/>
        </g>
        <path id="패스_2288" data-name="패스 2288" d="M-94.236,6.754a.979.979,0,0,0,.414-1.32.975.975,0,0,0-1.32-.414.979.979,0,0,0-.414,1.32A.979.979,0,0,0-94.236,6.754Z" transform="translate(128.4 30.146)" fill="#ffc400"/>
        <path id="패스_2289" data-name="패스 2289" d="M-76.053-.753A16.812,16.812,0,0,0-84-1.428a26.345,26.345,0,0,0-8.425,2.884A32.007,32.007,0,0,0-96,3.64c-.119.083-.25.162-.364.246s-.231.179-.348.269a22.765,22.765,0,0,0-2.016,1.72A10.41,10.41,0,0,1-96.977,9.04a9.273,9.273,0,0,1,.335,4.744,9.947,9.947,0,0,1-1.628,3.8c-.194.279-.406.556-.629.823.013.023.023.048.035.073.154-.1.3-.192.471-.281,1.222-.639,2.364-.87,2.549-.519s-.658,1.158-1.88,1.8c-.2.1-.392.181-.585.262a10.468,10.468,0,0,1,.723,3.355,10.3,10.3,0,0,1-.5,3.59,14.462,14.462,0,0,1-.818,1.974h13.9A11.881,11.881,0,0,0-73.158,16.814V.64A15.372,15.372,0,0,0-76.053-.753Zm.048,7.257c1.222-.637,2.364-.87,2.549-.516s-.658,1.158-1.882,1.8-2.364.87-2.549.516S-77.229,7.143-76.005,6.5Zm-14.731,7.313a.979.979,0,0,1-1.32-.414.979.979,0,0,1,.414-1.32.975.975,0,0,1,1.32.414A.979.979,0,0,1-90.736,13.817Zm6.676,4.625a11.023,11.023,0,0,1-4.785,1.179,4.22,4.22,0,0,1-2.636-.71,1.964,1.964,0,0,1-.575-2.239c.523-1.81,1.714-1.743,2.861-1.676a5.444,5.444,0,0,0,3.132-.514,4.852,4.852,0,0,0,2.07-2.378c.081-.152.162-.308.25-.46a4.015,4.015,0,0,1,.308-.466,1.976,1.976,0,0,1,.491-.485,1.555,1.555,0,0,1,1.033-.206,3.1,3.1,0,0,1,.839.239c.1.04.181.062.283.112a2.962,2.962,0,0,1,.292.2,2.156,2.156,0,0,1,1.077,1.814C-79.4,14.8-81.813,17.268-84.06,18.442Z" transform="translate(124.9 23.083)" fill="#ffc400"/>
        <path id="패스_2290" data-name="패스 2290" d="M-91.2,7.176a4.353,4.353,0,0,0-2.082,2.409,9.8,9.8,0,0,0,2.743-.914,10.6,10.6,0,0,0,2.461-1.837A4.339,4.339,0,0,0-91.2,7.176Z" transform="translate(130.976 32.075)" fill="#db3d88"/>
        <path id="패스_2291" data-name="패스 2291" d="M-98.329,9.794c.194-.081.383-.158.585-.262,1.222-.639,2.066-1.443,1.88-1.8s-1.326-.121-2.549.519c-.173.09-.317.185-.471.281.162.308.317.618.448.931C-98.389,9.573-98.371,9.686-98.329,9.794Z" transform="translate(124.919 33.028)" fill="#db3d88"/>
        <path id="패스_2292" data-name="패스 2292" d="M-88.8,4.434c.185.354,1.326.121,2.549-.516s2.066-1.443,1.882-1.8-1.326-.121-2.549.516S-88.98,4.08-88.8,4.434Z" transform="translate(135.809 26.95)" fill="#db3d88"/>
        <g id="그룹_360" data-name="그룹 360" transform="translate(0 3.733)">
          <path id="패스_2293" data-name="패스 2293" d="M-90.148-7.567l-.18-.4-.8-1.769-.179-.4-1.362.614.179.4.8,1.769.18.4.074.165,1.362-.614Z" transform="translate(131.647 10.133)" fill="#cb0023"/>
          <path id="패스_2294" data-name="패스 2294" d="M-85.883,6.474c-.087-.115-.187-.225-.281-.337s-.183-.225-.283-.335c-.189-.212-.325-.439-.537-.643a17.7,17.7,0,0,0-1.583-1.3c-.119-.09-.214-.189-.337-.277s-.244-.165-.364-.248a22.066,22.066,0,0,0-2.139-1.312,32.25,32.25,0,0,0-5.146-2.13c-.754-.244-1.489-.444-2.218-.627-.14-.035-.281-.077-.421-.11s-.285-.052-.431-.085c-.352-.079-.7-.144-1.045-.206-.142-.027-.289-.062-.433-.085l0,0c-.04-.006-.081-.017-.119-.023-.177-.029-.354-.056-.529-.081-.36-.052-.708-.077-1.06-.11-.1-.01-.208-.025-.312-.033-.087-.008-.181-.021-.269-.027-.067-.006-.14-.019-.206-.023-.123-.008-.246-.015-.369-.021-.037,0-.071,0-.108,0-.643-.027-1.279-.035-1.889,0a18.609,18.609,0,0,0-5.421,1.108V12.169c.367.152.75.285,1.093.471.133.073.248.165.377.242s.258.179.391.267a10.092,10.092,0,0,1,4.313,11.47,9.526,9.526,0,0,1-.923,1.97,11.756,11.756,0,0,0,6.595,2.02h3.294a9.476,9.476,0,0,1,.354-1.635,9.7,9.7,0,0,1,4.817-5.61c.133-.069.256-.154.392-.219s.277-.094.412-.15a10.7,10.7,0,0,1,4.721-.8c-.027-.071-.042-.146-.071-.217-.035-.092-.05-.187-.09-.279-.106-.254-.246-.506-.377-.758-.073-.14-.131-.283-.21-.423a.437.437,0,0,1,.05-.51,10.059,10.059,0,0,0,.77-.979,9.046,9.046,0,0,0,1.489-3.467,8.4,8.4,0,0,0-.308-4.3A9.574,9.574,0,0,0-85.883,6.474Z" transform="translate(111.386 19.4)" fill="#cb0023"/>
        </g>
        <path id="패스_2295" data-name="패스 2295" d="M-106.068-.03c-.248-.718-2.112-.729-4.161-.021a10.464,10.464,0,0,0-1.158.479V3a8.907,8.907,0,0,0,2.053-.446C-107.282,1.843-105.82.687-106.068-.03Z" transform="translate(111.386 24.212)" fill="#fff" opacity="0.3"/>
        <path id="패스_2296" data-name="패스 2296" d="M-109.524,6.006c-.133-.087-.254-.185-.391-.267s-.244-.169-.377-.242c-.344-.185-.727-.319-1.093-.471V9.621a11.862,11.862,0,0,0,5.252,9.825,9.526,9.526,0,0,0,.923-1.97A10.092,10.092,0,0,0-109.524,6.006Z" transform="translate(111.386 30.276)" fill="#db3d88"/>
        <path id="패스_2297" data-name="패스 2297" d="M-93.42,8.891a10.7,10.7,0,0,0-4.721.8c-.135.056-.279.09-.412.15s-.258.15-.392.219a9.7,9.7,0,0,0-4.817,5.61,9.476,9.476,0,0,0-.354,1.635h9.887a15.017,15.017,0,0,0,.954-2.245,9.4,9.4,0,0,0,.454-3.284A9.63,9.63,0,0,0-93.42,8.891Z" transform="translate(119.256 34.44)" fill="#db3d88"/>
        <g id="그룹_361" data-name="그룹 361">
          <path id="패스_2298" data-name="패스 2298" d="M-109.922-2.937a1.493,1.493,0,0,0-.725-1l-.037-.019a1.544,1.544,0,0,0,.26-.479,1.625,1.625,0,0,0-.387-1.666,1.216,1.216,0,0,0-.546-.277c0,.1-.029.185-.029.283V-5.4a.764.764,0,0,1,.129.7.606.606,0,0,1-.129.171v1.31a1.576,1.576,0,0,1,.317.065.625.625,0,0,1,.294.423,1.125,1.125,0,0,1-.158.856.455.455,0,0,1-.425.231l-.027-.008v.885a1.345,1.345,0,0,0,1.168-.6A2,2,0,0,0-109.922-2.937Z" transform="translate(111.386 17.937)"/>
          <path id="패스_2299" data-name="패스 2299" d="M-106.7-8.744a6.5,6.5,0,0,0,1.027-.083.438.438,0,0,0,.358-.506.442.442,0,0,0-.5-.36,3.7,3.7,0,0,1-1.935-.119.437.437,0,0,0-.6.16.437.437,0,0,0,.158.6A3.109,3.109,0,0,0-106.7-8.744Z" transform="translate(114.611 14.15)"/>
          <path id="패스_2300" data-name="패스 2300" d="M-108.776-7.934A2.391,2.391,0,0,1-106.5-6.623a.438.438,0,0,0,.391.239.426.426,0,0,0,.2-.048.438.438,0,0,0,.194-.587A3.278,3.278,0,0,0-108.888-8.8a.438.438,0,0,0-.379.491A.441.441,0,0,0-108.776-7.934Z" transform="translate(113.676 15.277)"/>
          <path id="패스_2301" data-name="패스 2301" d="M-101.967-4.667a.431.431,0,0,0,.323-.144.436.436,0,0,0-.029-.618,3.72,3.72,0,0,1-.7-1.808.43.43,0,0,0-.494-.373.437.437,0,0,0-.373.494,4.5,4.5,0,0,0,.972,2.334A.433.433,0,0,0-101.967-4.667Z" transform="translate(120.204 16.593)"/>
          <path id="패스_2302" data-name="패스 2302" d="M-104.264-5.218a2.391,2.391,0,0,1,2.541.66.443.443,0,0,0,.346.167.432.432,0,0,0,.271-.094.437.437,0,0,0,.073-.614,3.253,3.253,0,0,0-3.511-.947.434.434,0,0,0-.273.554A.435.435,0,0,0-104.264-5.218Z" transform="translate(118.47 18.106)"/>
          <path id="패스_2303" data-name="패스 2303" d="M-94-2.142a.458.458,0,0,0,.127.019.438.438,0,0,0,.421-.31A3.7,3.7,0,0,1-91.8-4.173a.439.439,0,0,0,.235-.431.441.441,0,0,0-.312-.379,3.936,3.936,0,0,0-3.444.262.436.436,0,0,0-.083.606.443.443,0,0,0,.612.094,2.578,2.578,0,0,1,1.685-.31A3.625,3.625,0,0,0-94.293-2.69.439.439,0,0,0-94-2.142Z" transform="translate(128.586 19.183)"/>
          <path id="패스_2304" data-name="패스 2304" d="M-90.3-7.676a1.3,1.3,0,0,0-.444,1.787,1.3,1.3,0,0,0,1.787.441,1.3,1.3,0,0,0,.444-1.787A1.3,1.3,0,0,0-90.3-7.676Z" transform="translate(133.532 16.322)"/>
          <path id="패스_2305" data-name="패스 2305" d="M-60.169.931a2.144,2.144,0,0,1,.017-.4,2.451,2.451,0,0,0,.006-.679,1.182,1.182,0,0,0-.848-1A1.494,1.494,0,0,0-62.5-.679a1.394,1.394,0,0,0-.239.381,1.389,1.389,0,0,0-1.122-.1A1.834,1.834,0,0,0-64.957.56a1.263,1.263,0,0,0-.075.377c-.044.027-.1.035-.133.079A14.652,14.652,0,0,1-69.39,4.773a14.892,14.892,0,0,1-4.585,1.793,9.082,9.082,0,0,0-5.927.585.437.437,0,0,0-.165.6.435.435,0,0,0,.6.165,4.953,4.953,0,0,1,.685-.281,8.938,8.938,0,0,1,3.763-.325,9.682,9.682,0,0,1,1.145.173,12.822,12.822,0,0,1,2.67.991c.254.123.5.229.762.375-.052.008-.1.006-.156.015a27.15,27.15,0,0,0-8.711,2.976,32.615,32.615,0,0,0-3.638,2.218c-.646-1.01-1.3-2.037-1.955-3.132-.1-.167-.181-.314-.279-.479-.085-.146-.158-.275-.244-.419s-.16-.277-.244-.419C-86.2,8.7-86.751,7.78-87.222,6.938c-.646-1.16-1.2-2.328-1.714-3.488L-85.2,1.764l1.945-.877,2.268-1.022.462-.208.462-.208L-79-1.033l7.136-3.219.073.167a.442.442,0,0,0,.4.258.466.466,0,0,0,.181-.04l2.162-.975a.442.442,0,0,0,.229-.246.436.436,0,0,0-.01-.335l-.075-.165.945-.427,4.987-2.249c-.108-.115-.219-.223-.331-.333s-.256-.2-.377-.31l-4.24,1.914L-68.9-9.15A6.422,6.422,0,0,0-71.258-11.9c-.079,0-.154-.025-.233-.025h-2.041a5.684,5.684,0,0,1,.7.192,5.566,5.566,0,0,1,2.907,2.551l-.5.229A.442.442,0,0,0-71-9.173l-2.162.977a.431.431,0,0,0-.229.244.44.44,0,0,0,.008.333L-80.081-4.6a5.61,5.61,0,0,1,2.955-7,5.92,5.92,0,0,1,.96-.325h-2.172a6.5,6.5,0,0,0-2.861,6.5,6.4,6.4,0,0,0,.458,1.6v0l0,.015.439.972.287.635.248.55-.371.169-.425.189-.423.192L-83.23-.088-85.564.966l-3.648,1.645-.339-.754c-.1-.217-.137-.444-.225-.662a14.13,14.13,0,0,1-.65-1.939A13.443,13.443,0,0,1-90.681-2.7a13.629,13.629,0,0,1,.8-5.943A13.855,13.855,0,0,1-88.7-11.022c.079-.129.183-.239.267-.367s.192-.237.279-.362c.044-.06.1-.115.142-.175h-5.141a.369.369,0,0,0,.366.2,10.5,10.5,0,0,1,3.055.325c.069.017.137.056.208.075A14.71,14.71,0,0,0-90.7-8.95,14.458,14.458,0,0,0-90.631,1.4a10.092,10.092,0,0,0,.593,1.8,43.072,43.072,0,0,0,2.051,4.171c.533.958,1.149,2,1.764,3.036-.45.646-.875,1.3-1.341,1.937-.379.514-.781,1-1.166,1.5A22.963,22.963,0,0,0-91,12.451a33.336,33.336,0,0,0-5.287-2.191c-.783-.252-1.547-.46-2.3-.65a1.336,1.336,0,0,0-.179-.739l-.4.192-.433.2a.43.43,0,0,1,.058.129c-.079-.019-.154-.031-.231-.046-.2-.042-.4-.079-.591-.117-.179-.033-.36-.077-.537-.106-.321-.054-.637-.1-.952-.144.1-.071.2-.152.3-.217a8.981,8.981,0,0,1,6.193-1.508,5.509,5.509,0,0,1,.56.1.439.439,0,0,0,.535-.308.436.436,0,0,0-.306-.537A8.762,8.762,0,0,0-97.515,6.4a4.148,4.148,0,0,0,.658-.8l.033-.058C-95.781,3.7-97.609,2.6-98.4,2.12a11.982,11.982,0,0,0-1.616-.714,11.364,11.364,0,0,1-1.437-.625A21.623,21.623,0,0,1-104.1-1c-1.149-.881-2.584-1.976-4.29-1.351a2.739,2.739,0,0,0-1.753,1.805,3.835,3.835,0,0,0,.521,2.724,7.539,7.539,0,0,0,1.214,1.718l.271.317A9.413,9.413,0,0,0-105.874,6.1c.023.025.027.062.058.081a.412.412,0,0,0,.169.048,13.787,13.787,0,0,0,2.976,1.3,5.731,5.731,0,0,0,1.222.177,10.968,10.968,0,0,0-1.335.893,1.941,1.941,0,0,0-.593.229,21.206,21.206,0,0,0-2.636-.044,19.636,19.636,0,0,0-5.373,1.056v.929a18.609,18.609,0,0,1,5.421-1.108c.61-.033,1.245-.025,1.889,0,.037,0,.071,0,.108,0,.123.006.246.012.369.021.067,0,.14.017.206.023.087.006.181.019.269.027.1.008.208.023.312.033.352.033.7.058,1.06.11.175.025.352.052.529.081.037.006.079.017.119.023l0,0c.144.023.292.058.433.085.346.062.693.127,1.045.206.146.033.285.05.431.085s.281.075.421.11c.729.183,1.464.383,2.218.627a32.25,32.25,0,0,1,5.146,2.13,22.066,22.066,0,0,1,2.139,1.312c.121.083.248.162.364.248s.219.187.337.277a17.7,17.7,0,0,1,1.583,1.3c.212.2.348.431.537.643.1.11.189.223.283.335s.194.223.281.337A9.574,9.574,0,0,1-84.3,20.474a8.4,8.4,0,0,1,.308,4.3,9.046,9.046,0,0,1-1.489,3.467,10.059,10.059,0,0,1-.77.979.437.437,0,0,0-.05.51c.079.14.137.283.21.423.131.252.271.5.377.758.04.092.054.187.09.279.029.071.044.146.071.217a9.63,9.63,0,0,1,.6,2.882,9.4,9.4,0,0,1-.454,3.284,15.017,15.017,0,0,1-.954,2.245h.97a14.462,14.462,0,0,0,.818-1.974,10.3,10.3,0,0,0,.5-3.59A10.468,10.468,0,0,0-84.8,30.9c-.042-.108-.06-.221-.106-.329-.131-.312-.285-.623-.448-.931-.012-.025-.023-.05-.035-.073.223-.267.435-.544.629-.823a9.947,9.947,0,0,0,1.628-3.8,9.273,9.273,0,0,0-.335-4.744,10.41,10.41,0,0,0-1.751-3.165,22.765,22.765,0,0,1,2.016-1.72c.117-.09.227-.181.348-.269s.246-.162.364-.246a32.008,32.008,0,0,1,3.58-2.184,26.345,26.345,0,0,1,8.425-2.884,16.812,16.812,0,0,1,7.942.675A15.372,15.372,0,0,1-59.645,11.8V10.791A16.206,16.206,0,0,0-62.25,9.575a17.38,17.38,0,0,0-7.29-.806.425.425,0,0,0-.165-.533,14.5,14.5,0,0,0-2.58-1.183,16.49,16.49,0,0,0,3.346-1.528c.387-.233.756-.485,1.118-.743.277.829.841,2.089,1.783,2.351a1.388,1.388,0,0,0,.367.05,1.948,1.948,0,0,0,1.37-.708,1.956,1.956,0,0,0,.641-1.689,2.018,2.018,0,0,0,.648-.087,1.145,1.145,0,0,0,.112.375,1.051,1.051,0,0,0,1.056.566,1.465,1.465,0,0,0,1.22-.833c.106-.173.2-.317.269-.317h0a2.413,2.413,0,0,1,.706.344V3.827a1.818,1.818,0,0,0-.627-.212c-.606-.056-.918.437-1.141.8-.187.3-.333.346-.452.348-.231.021-.242-.062-.252-.083a.828.828,0,0,1,.177-.714l0,0a.438.438,0,0,0-.077-.614.438.438,0,0,0-.614.077c-.3.383-1,.648-1.335.41a.676.676,0,0,1-.252-.537.539.539,0,0,1,.2-.435,1.4,1.4,0,0,1,.85-.227h0a.435.435,0,0,0,.437-.435.437.437,0,0,0-.433-.441,1.289,1.289,0,0,1-.985-.448A.37.37,0,0,1-64.159.92.98.98,0,0,1-63.6.435a.5.5,0,0,1,.423.029,1.4,1.4,0,0,1,.5.554.44.44,0,0,0,.579.2.434.434,0,0,0,.212-.573.664.664,0,0,1,.05-.743.627.627,0,0,1,.6-.206.318.318,0,0,1,.225.3,1.956,1.956,0,0,1-.012.45,2.759,2.759,0,0,0-.019.571,1.768,1.768,0,0,0,1.4,1.435V1.505A.788.788,0,0,1-60.169.931ZM-85.658,11.376c.673,1.114,1.335,2.159,1.991,3.186a24.134,24.134,0,0,0-2.12,1.8c-.194-.212-.377-.427-.589-.633a18.933,18.933,0,0,0-1.653-1.362c.389-.508.793-1,1.172-1.516s.743-1.079,1.12-1.616C-85.708,11.287-85.687,11.328-85.658,11.376ZM-69.519-8.4l.754,1.672.044.1-.546.246-.8-1.77Zm-9.444,6.391-.8-1.768,6.734-3.04.8,1.768Zm7.534-3.4-.8-1.768-.179-.4,1.362-.614.179.4.8,1.768.181.4.075.165-1.362.614-.075-.165Zm-30.988,12.1a12.993,12.993,0,0,1-2.528-1.079l2.674-4.306c.137.081.258.171.4.248a12.045,12.045,0,0,0,1.543.675l.04.019-1.2,4.59A4.969,4.969,0,0,1-102.417,6.686ZM-109.3-.323a1.888,1.888,0,0,1,1.208-1.206,2.027,2.027,0,0,1,.7-.125,3.77,3.77,0,0,1,2.08.848l-3.344,2.9a2.983,2.983,0,0,1-.179-.294A3.107,3.107,0,0,1-109.3-.323Zm4.715.052c.444.339.987.723,1.57,1.11l-2.68,4.315a8.285,8.285,0,0,1-1.774-1.51l-.277-.323c-.144-.167-.275-.331-.408-.5Zm5.741,3.149c1.387.837,1.716,1.42,1.26,2.224l-.029.052a3.677,3.677,0,0,1-2.969,1.674L-99.477,2.6A6.689,6.689,0,0,1-98.844,2.878Zm31.767,1.329L-67,4.142a7.609,7.609,0,0,1,1.3,1.324.441.441,0,0,0,.369.2.425.425,0,0,0,.237-.069.436.436,0,0,0,.131-.606,7.7,7.7,0,0,0-1.358-1.42l.033-.033c.591.206,1.618.675,1.789,1.3.081.3-.067.646-.437,1.031-.331.346-.623.487-.868.421C-66.377,6.128-66.852,4.975-67.077,4.206Zm2.307-2.295a1.506,1.506,0,0,0,.227.248,1.363,1.363,0,0,0-.51.96,5.443,5.443,0,0,0-.541-.258C-65.3,2.553-65.028,2.236-64.769,1.912Z" transform="translate(111.386 11.926)"/>
          <path id="패스_2306" data-name="패스 2306" d="M-94.236,6.754a.979.979,0,0,0,.414-1.32.975.975,0,0,0-1.32-.414.979.979,0,0,0-.414,1.32A.979.979,0,0,0-94.236,6.754Z" transform="translate(128.4 30.146)"/>
          <path id="패스_2307" data-name="패스 2307" d="M-91.208,5.171a.979.979,0,0,0,.414-1.32.979.979,0,0,0-1.32-.414.979.979,0,0,0-.414,1.32A.979.979,0,0,0-91.208,5.171Z" transform="translate(131.677 28.434)"/>
          <path id="패스_2308" data-name="패스 2308" d="M-83.993,4.75a2.962,2.962,0,0,0-.292-.2c-.1-.05-.187-.073-.283-.112a3.1,3.1,0,0,0-.839-.239,1.555,1.555,0,0,0-1.033.206,1.976,1.976,0,0,0-.491.485,4.015,4.015,0,0,0-.308.466c-.087.152-.169.308-.25.46A4.852,4.852,0,0,1-89.56,8.2a5.444,5.444,0,0,1-3.132.514c-1.147-.067-2.339-.133-2.861,1.676a1.964,1.964,0,0,0,.575,2.239,4.22,4.22,0,0,0,2.636.71,11.023,11.023,0,0,0,4.785-1.179c2.247-1.174,4.66-3.646,4.64-5.593A2.156,2.156,0,0,0-83.993,4.75Zm-6.714,7.542a4.353,4.353,0,0,1,2.082-2.409A4.339,4.339,0,0,1-85.5,9.542a10.6,10.6,0,0,1-2.461,1.837A9.8,9.8,0,0,1-90.707,12.293Z" transform="translate(128.396 29.368)"/>
          <path id="패스_2309" data-name="패스 2309" d="M-106.193,7.159a.976.976,0,0,0,1.231-.631.976.976,0,0,0-.629-1.231.5.5,0,0,0-.052-.006.963.963,0,0,0-.533.019.963.963,0,0,0-.648.616A.979.979,0,0,0-106.193,7.159Z" transform="translate(116.272 30.53)"/>
          <path id="패스_2310" data-name="패스 2310" d="M-101.491,6.627a.981.981,0,0,0-1.233.631.979.979,0,0,0,.631,1.233.979.979,0,0,0,1.233-.631A.981.981,0,0,0-101.491,6.627Z" transform="translate(120.71 31.957)"/>
          <path id="패스_2311" data-name="패스 2311" d="M-98.235,9.645a11.166,11.166,0,0,1-4.254-.548,11.2,11.2,0,0,1-3.771-2.045.441.441,0,0,0-.618.05.439.439,0,0,0,.052.618,12.047,12.047,0,0,0,4.069,2.209,12.383,12.383,0,0,0,3.786.621c.271,0,.541-.01.806-.031a.44.44,0,0,0,.4-.473A.448.448,0,0,0-98.235,9.645Z" transform="translate(116.152 32.355)"/>
        </g>
      </g>
      <path id="패스_2312" data-name="패스 2312" d="M-71.264,40.482H-99.312A12.3,12.3,0,0,1-111.6,28.2V.148A12.3,12.3,0,0,1-99.312-12.136h28.048A12.3,12.3,0,0,1-58.98.148V28.2A12.3,12.3,0,0,1-71.264,40.482ZM-99.312-11.259A11.421,11.421,0,0,0-110.721.148V28.2A11.422,11.422,0,0,0-99.312,39.605h28.048A11.421,11.421,0,0,0-59.857,28.2V.148A11.419,11.419,0,0,0-71.264-11.259Z" transform="translate(111.596 12.136)" fill="#1a1311"/>
    </g>
  </g>
</svg>
