<svg xmlns="http://www.w3.org/2000/svg" width="214" height="53.453" viewBox="0 0 214 53.453">
  <g id="logo" transform="translate(111.596 -19.863)">
    <g id="그룹_212" data-name="그룹 212" transform="translate(-111.596 19.863)">
      <g id="그룹_211" data-name="그룹 211" transform="translate(0.438 0.438)">
        <path id="패스_1674" data-name="패스 1674" d="M-100.17,34.336A18.973,18.973,0,0,1-98.513,35.7c.213.207.4.422.591.635A23.84,23.84,0,0,1-95.8,34.528c-.657-1.029-1.321-2.077-2-3.194-.029-.048-.05-.09-.079-.138-.378.539-.731,1.087-1.123,1.62S-99.78,33.827-100.17,34.336Z" transform="translate(123.581 -7.978)" fill="none"/>
        <path id="패스_1675" data-name="패스 1675" d="M-103.222,29.607l.029-.05c.457-.806.127-1.39-1.263-2.229a6.7,6.7,0,0,0-.635-.28l-1.108,4.239A3.682,3.682,0,0,0-103.222,29.607Z" transform="translate(117.027 -12.489)" fill="#fff"/>
        <path id="패스_1676" data-name="패스 1676" d="M-108.437,25a2.081,2.081,0,0,0-.705.125,1.9,1.9,0,0,0-1.211,1.211,3.115,3.115,0,0,0,.47,2.129,2.987,2.987,0,0,0,.18.294l3.352-2.908A3.782,3.782,0,0,0-108.437,25Z" transform="translate(112.445 -14.711)" fill="#fff"/>
        <path id="패스_1677" data-name="패스 1677" d="M-106.256,25.67l-3.578,3.1c.134.165.265.33.409.5l.278.324a8.3,8.3,0,0,0,1.778,1.513l2.686-4.327C-105.267,26.394-105.812,26.01-106.256,25.67Z" transform="translate(113.073 -13.988)" fill="#fff"/>
        <path id="패스_1678" data-name="패스 1678" d="M-103.666,27.35a12.073,12.073,0,0,1-1.547-.676c-.142-.077-.263-.167-.4-.248l-2.68,4.316a13.151,13.151,0,0,0,2.534,1.081,5.157,5.157,0,0,0,.931.146l1.2-4.6Z" transform="translate(114.749 -13.167)" fill="#fff"/>
        <path id="패스_1679" data-name="패스 1679" d="M-100.095,30.2c1.893-1.417-2.546-3.4-2.546-3.4S-101.988,31.612-100.095,30.2Z" transform="translate(120.894 -12.764)" fill="#fff"/>
        <path id="패스_1680" data-name="패스 1680" d="M-88.831,30.254c.246.067.539-.075.87-.422.372-.386.52-.735.438-1.033-.171-.626-1.2-1.094-1.793-1.3l-.033.033a7.72,7.72,0,0,1,1.361,1.424.437.437,0,0,1-.131.607.444.444,0,0,1-.238.069.442.442,0,0,1-.369-.2,7.627,7.627,0,0,0-1.3-1.328l-.077.065C-89.883,28.939-89.407,30.093-88.831,30.254Z" transform="translate(134.521 -11.999)" fill="#db3d88"/>
        <path id="패스_1681" data-name="패스 1681" d="M-89.742,27.611l.1-.361h0l-.309.253c.038.015.079,0,.113.031Z" transform="translate(134.692 -12.27)" fill="#db3d88"/>
        <path id="패스_1682" data-name="패스 1682" d="M-90.132,27.739c.015.052.033.111.05.169l.077-.065C-90.049,27.806-90.1,27.766-90.132,27.739Z" transform="translate(134.495 -11.738)" fill="#db3d88"/>
        <path id="패스_1683" data-name="패스 1683" d="M-89.784,27.479l.083.075.033-.033Z" transform="translate(134.873 -12.021)" fill="#db3d88"/>
        <path id="패스_1684" data-name="패스 1684" d="M-90.08,27.6l-.28.23h0l.361-.083A.442.442,0,0,1-90.08,27.6Z" transform="translate(134.247 -11.893)" fill="#db3d88"/>
        <g id="그룹_206" data-name="그룹 206" transform="translate(20.705)">
          <path id="패스_1685" data-name="패스 1685" d="M-92.116,20.085a6.437,6.437,0,0,1,2.367,2.757l.977,2.16,4.25-1.916A11.768,11.768,0,0,0-92.116,20.085Z" transform="translate(111.633 -20.06)" fill="#ffc400"/>
          <path id="패스_1686" data-name="패스 1686" d="M-91.011,29.184l-.44-.975,0-.015v0a6.416,6.416,0,0,1-.459-1.6,6.519,6.519,0,0,1,2.868-6.516h-9.7c-.044.061-.1.115-.142.175-.088.125-.194.236-.28.363s-.188.238-.267.367a13.888,13.888,0,0,0-1.181,2.388,13.661,13.661,0,0,0-.8,5.957,13.475,13.475,0,0,0,.255,1.958,14.164,14.164,0,0,0,.651,1.943c.088.219.127.447.225.662l.34.758L-96.289,33l2.34-1.056,2.254-1.017.424-.192.426-.19.372-.169-.248-.551Z" transform="translate(101.466 -20.073)" fill="#ffc400"/>
          <path id="패스_1687" data-name="패스 1687" d="M-91,21.765l-.546.246.8,1.773.546-.246-.044-.1Z" transform="translate(112.255 -18.233)" fill="#ffc400"/>
          <rect id="사각형_75" data-name="사각형 75" width="7.407" height="1.945" transform="matrix(0.911, -0.411, 0.411, 0.911, 10.994, 8.165)" fill="#ffc400"/>
        </g>
        <g id="그룹_207" data-name="그룹 207" transform="translate(22.503)">
          <path id="패스_1688" data-name="패스 1688" d="M-89.471,24.389a.441.441,0,0,1-.008-.334.432.432,0,0,1,.23-.244l2.167-.979a.441.441,0,0,1,.58.219l.505-.23a5.579,5.579,0,0,0-2.914-2.557,5.7,5.7,0,0,0-.706-.192h-2.64a5.934,5.934,0,0,0-.962.326,5.623,5.623,0,0,0-2.962,7.02Z" transform="translate(105.057 -20.073)" fill="#278e2a"/>
          <path id="패스_1689" data-name="패스 1689" d="M-74.583,21.831l-5,2.256-.948.428.075.165a.437.437,0,0,1,.01.336.45.45,0,0,1-.23.246l-2.167.977a.464.464,0,0,1-.182.038.439.439,0,0,1-.4-.259l-.073-.165-7.153,3.227-1.065.48-.463.209-.463.211L-94.913,31l-1.95.879-3.742,1.691c.516,1.163,1.071,2.334,1.718,3.5.472.843,1.021,1.766,1.553,2.674.083.142.159.276.244.42s.159.273.244.42c.1.165.18.313.28.48.66,1.1,1.313,2.127,1.96,3.139a32.689,32.689,0,0,1,3.646-2.223A27.213,27.213,0,0,1-82.229,39c.052-.008.1-.008.157-.015-.261-.146-.509-.253-.764-.376a12.987,12.987,0,0,0-2.676-1,10.136,10.136,0,0,0-1.148-.171,8.959,8.959,0,0,0-3.772.326,4.964,4.964,0,0,0-.687.282.436.436,0,0,1-.6-.165.438.438,0,0,1,.165-.6,9.1,9.1,0,0,1,5.94-.587,12.543,12.543,0,0,1,1.695.488,14.388,14.388,0,0,1,2.586,1.186.426.426,0,0,1,.165.534,17.421,17.421,0,0,1,7.308.808,16.244,16.244,0,0,1,2.611,1.219V34.96a2.419,2.419,0,0,0-.708-.344h0c-.069,0-.163.144-.269.317a1.468,1.468,0,0,1-1.223.835,1.053,1.053,0,0,1-1.058-.568,1.16,1.16,0,0,1-.113-.378,1.968,1.968,0,0,1-.649.09,1.961,1.961,0,0,1-.643,1.693,1.953,1.953,0,0,1-1.373.71,1.391,1.391,0,0,1-.367-.05c-.943-.263-1.509-1.528-1.787-2.357-.119-.353-.19-.635-.209-.718l.428-.1h0l.28-.23a.416.416,0,0,1,.069-.367.421.421,0,0,1,.505-.1l.309-.253h0l.117-.424a6.965,6.965,0,0,1,.733.265,5.457,5.457,0,0,1,.543.259,1.358,1.358,0,0,1,.511-.962,1.509,1.509,0,0,1-.228-.248A1.341,1.341,0,0,1-76.5,31.9a1.2,1.2,0,0,1-.146-.85,1.266,1.266,0,0,1,.075-.378,1.838,1.838,0,0,1,1.1-.964,1.392,1.392,0,0,1,1.125.1,1.4,1.4,0,0,1,.24-.382,1.5,1.5,0,0,1,1.511-.472,1.184,1.184,0,0,1,.85,1,2.458,2.458,0,0,1-.006.68,2.147,2.147,0,0,0-.017.4.79.79,0,0,0,.526.576V30.036A11.82,11.82,0,0,0-74.583,21.831Z" transform="translate(100.605 -18.162)" fill="#278e2a"/>
          <path id="패스_1690" data-name="패스 1690" d="M-85.553,26.982a2.765,2.765,0,0,1,.019-.572,1.961,1.961,0,0,0,.013-.451c-.035-.219-.146-.276-.225-.3a.629.629,0,0,0-.605.207.666.666,0,0,0-.05.745.435.435,0,0,1-.213.574.443.443,0,0,1-.58-.2,1.378,1.378,0,0,0-.5-.555.5.5,0,0,0-.424-.029.975.975,0,0,0-.561.486.371.371,0,0,0,.013.392,1.292,1.292,0,0,0,.987.449.438.438,0,0,1,.434.443.436.436,0,0,1-.438.436h0a1.4,1.4,0,0,0-.852.228.538.538,0,0,0-.2.436.67.67,0,0,0,.253.536c.334.24,1.037-.025,1.338-.409a.439.439,0,0,1,.616-.077.439.439,0,0,1,.077.616l0,0a.83.83,0,0,0-.177.716c.01.021.021.1.253.083.119,0,.265-.046.453-.349.223-.363.536-.858,1.144-.8a1.78,1.78,0,0,1,.628.213V28.42A1.772,1.772,0,0,1-85.553,26.982Z" transform="translate(113.512 -14.016)" fill="#278e2a"/>
        </g>
        <g id="그룹_208" data-name="그룹 208">
          <path id="패스_1691" data-name="패스 1691" d="M-87.931,39.41a43.174,43.174,0,0,1-2.056-4.181,10.082,10.082,0,0,1-.595-1.8,14.486,14.486,0,0,1-.069-10.37,14.744,14.744,0,0,1,1.175-2.379c-.071-.019-.14-.058-.209-.075a10.52,10.52,0,0,0-3.062-.326.37.37,0,0,1-.367-.2h-6.4a11.9,11.9,0,0,0-11.845,11.591,1.219,1.219,0,0,1,.547.278,1.629,1.629,0,0,1,.388,1.67,1.548,1.548,0,0,1-.261.48l.038.019a1.492,1.492,0,0,1,.726,1,2.008,2.008,0,0,1-.3,1.563,1.342,1.342,0,0,1-1.171.6v4.615A19.681,19.681,0,0,1-106,40.829a21.256,21.256,0,0,1,2.642.044,2,2,0,0,1,.595-.232,10.971,10.971,0,0,1,1.338-.893,5.745,5.745,0,0,1-1.225-.177,13.922,13.922,0,0,1-2.983-1.3.413.413,0,0,1-.169-.048c-.031-.019-.035-.058-.058-.081a9.484,9.484,0,0,1-2.271-1.891l-.271-.317a7.557,7.557,0,0,1-1.217-1.722,3.846,3.846,0,0,1-.522-2.73,2.745,2.745,0,0,1,1.757-1.81c1.709-.626,3.148.472,4.3,1.355a21.672,21.672,0,0,0,2.657,1.787,11.391,11.391,0,0,0,1.44.626,12.008,12.008,0,0,1,1.62.716c.791.48,2.624,1.586,1.578,3.427l-.033.058a4.083,4.083,0,0,1-.66.8,8.812,8.812,0,0,1,2.945.119.437.437,0,0,1,.307.539.44.44,0,0,1-.536.309,5.521,5.521,0,0,0-.561-.1,9,9,0,0,0-6.208,1.511c-.1.065-.2.146-.3.217.315.042.632.09.954.144.177.029.359.071.538.106.2.035.392.075.593.117.077.015.152.027.232.044a.443.443,0,0,0-.058-.127l.434-.2.4-.192a1.339,1.339,0,0,1,.18.741c.758.19,1.524.4,2.309.651a33.414,33.414,0,0,1,5.3,2.2A22.624,22.624,0,0,1-88.676,45.9c.386-.505.789-.991,1.169-1.509.468-.639.893-1.292,1.344-1.939C-86.779,41.411-87.4,40.37-87.931,39.41ZM-103.6,28.94a.427.427,0,0,1-.2.048.439.439,0,0,1-.392-.24,2.4,2.4,0,0,0-2.279-1.315.442.442,0,0,1-.493-.38.439.439,0,0,1,.38-.493,3.286,3.286,0,0,1,3.177,1.791A.439.439,0,0,1-103.6,28.94Zm1.181-3.534a6.256,6.256,0,0,1-1.029.083,3.092,3.092,0,0,1-1.5-.309.435.435,0,0,1-.159-.6.438.438,0,0,1,.6-.161,3.709,3.709,0,0,0,1.939.119.443.443,0,0,1,.505.361A.436.436,0,0,1-102.423,25.406Zm8.441,8.32a.433.433,0,0,1-.271.094.444.444,0,0,1-.346-.167,2.4,2.4,0,0,0-2.546-.662.436.436,0,0,1-.555-.276.438.438,0,0,1,.273-.557,3.259,3.259,0,0,1,3.519.952A.438.438,0,0,1-93.982,33.726Zm-.395-4.154A.438.438,0,0,1-94,29.078a.431.431,0,0,1,.495.374,3.729,3.729,0,0,0,.7,1.812.437.437,0,0,1,.029.62.431.431,0,0,1-.324.144.434.434,0,0,1-.3-.115A4.512,4.512,0,0,1-94.377,29.572Zm3.79,7.932c-1.893,1.417-2.546-3.4-2.546-3.4S-88.693,36.087-90.586,37.5Z" transform="translate(111.386 -20.073)" fill="#3a64f9"/>
          <path id="패스_1692" data-name="패스 1692" d="M-111.386,26.091v.87a.608.608,0,0,0,.129-.171A.766.766,0,0,0-111.386,26.091Z" transform="translate(111.386 -13.53)" fill="#3a64f9"/>
          <path id="패스_1693" data-name="패스 1693" d="M-110.933,28.483a1.13,1.13,0,0,0,.159-.858.627.627,0,0,0-.294-.424,1.58,1.58,0,0,0-.317-.065V28.7l.027.01A.456.456,0,0,0-110.933,28.483Z" transform="translate(111.386 -12.392)" fill="#3a64f9"/>
        </g>
        <path id="패스_1694" data-name="패스 1694" d="M-94.233,38.758a.984.984,0,0,0,.415-1.325.981.981,0,0,0-1.323-.415.984.984,0,0,0-.415,1.325A.981.981,0,0,0-94.233,38.758Z" transform="translate(128.476 -1.771)" fill="#ffc400"/>
        <path id="패스_1695" data-name="패스 1695" d="M-76,31.248a16.851,16.851,0,0,0-7.961-.676,26.407,26.407,0,0,0-8.445,2.891,32.084,32.084,0,0,0-3.588,2.19c-.119.083-.25.163-.365.246s-.232.18-.349.269a22.819,22.819,0,0,0-2.02,1.724,10.435,10.435,0,0,1,1.755,3.173,9.294,9.294,0,0,1,.336,4.755,9.97,9.97,0,0,1-1.632,3.809c-.194.28-.407.557-.63.824.013.023.023.048.035.073.154-.1.3-.192.472-.282,1.225-.641,2.369-.875,2.555-.52s-.66,1.161-1.885,1.8c-.2.1-.392.182-.587.263a10.493,10.493,0,0,1,.724,3.363,10.328,10.328,0,0,1-.5,3.6,14.5,14.5,0,0,1-.82,1.979h13.928A11.909,11.909,0,0,0-73.1,48.856V32.644A15.408,15.408,0,0,0-76,31.248Zm.048,7.274c1.225-.641,2.369-.872,2.555-.518s-.66,1.161-1.887,1.8-2.369.875-2.555.52S-77.179,39.163-75.951,38.522Zm-14.765,7.331a.981.981,0,0,1-1.323-.415.984.984,0,0,1,.415-1.325.981.981,0,0,1,1.323.415A.984.984,0,0,1-90.717,45.852Zm6.692,4.636a11.049,11.049,0,0,1-4.8,1.181,4.23,4.23,0,0,1-2.642-.712,1.969,1.969,0,0,1-.576-2.244c.524-1.814,1.718-1.747,2.868-1.68a5.457,5.457,0,0,0,3.139-.516,4.864,4.864,0,0,0,2.075-2.384c.081-.154.163-.309.25-.461a4.025,4.025,0,0,1,.309-.468,1.981,1.981,0,0,1,.493-.486,1.558,1.558,0,0,1,1.035-.207,3.106,3.106,0,0,1,.841.24c.1.04.182.063.284.113a2.968,2.968,0,0,1,.292.2,2.161,2.161,0,0,1,1.079,1.818C-79.354,46.833-81.773,49.311-84.025,50.488Z" transform="translate(124.961 -8.866)" fill="#ffc400"/>
        <path id="패스_1696" data-name="패스 1696" d="M-91.2,39.177a4.363,4.363,0,0,0-2.087,2.415,9.823,9.823,0,0,0,2.749-.916,10.626,10.626,0,0,0,2.467-1.841A4.349,4.349,0,0,0-91.2,39.177Z" transform="translate(131.065 0.166)" fill="#db3d88"/>
        <path id="패스_1697" data-name="패스 1697" d="M-98.328,41.8c.194-.081.384-.159.587-.263,1.225-.641,2.071-1.446,1.885-1.8s-1.33-.121-2.555.52c-.173.09-.317.186-.472.282.163.309.317.62.449.933C-98.388,41.575-98.37,41.69-98.328,41.8Z" transform="translate(124.98 1.124)" fill="#db3d88"/>
        <path id="패스_1698" data-name="패스 1698" d="M-88.8,36.439c.186.355,1.33.121,2.555-.52s2.071-1.446,1.887-1.8-1.33-.123-2.555.518S-88.981,36.084-88.8,36.439Z" transform="translate(135.919 -4.981)" fill="#db3d88"/>
        <g id="그룹_209" data-name="그룹 209" transform="translate(0 3.742)">
          <path id="패스_1699" data-name="패스 1699" d="M-90.142,24.438l-.181-.4-.8-1.773-.18-.4-1.365.616.18.4.8,1.773.181.4.075.165,1.365-.616Z" transform="translate(131.739 -21.866)" fill="#cb0023"/>
          <path id="패스_1700" data-name="패스 1700" d="M-85.823,38.492c-.088-.115-.188-.225-.282-.338s-.184-.225-.284-.338c-.19-.211-.326-.44-.539-.643a17.738,17.738,0,0,0-1.586-1.307c-.119-.09-.215-.19-.338-.278s-.244-.165-.365-.248a22.121,22.121,0,0,0-2.144-1.315,32.326,32.326,0,0,0-5.158-2.135c-.756-.244-1.492-.447-2.223-.628-.14-.035-.282-.077-.422-.111s-.286-.054-.432-.086c-.353-.079-.7-.144-1.048-.207-.142-.027-.29-.063-.434-.086l0,0c-.04-.006-.081-.017-.119-.023-.177-.029-.355-.056-.53-.081-.361-.052-.71-.077-1.062-.111-.1-.01-.209-.025-.313-.033-.088-.008-.182-.021-.269-.029-.067,0-.14-.017-.207-.021-.123-.008-.246-.015-.369-.021-.038,0-.071,0-.109,0-.645-.027-1.282-.035-1.893,0a18.652,18.652,0,0,0-5.433,1.108V44.2c.367.152.751.286,1.1.472.134.073.248.163.378.24s.259.182.392.269a10.115,10.115,0,0,1,4.323,11.5,9.549,9.549,0,0,1-.925,1.975,11.8,11.8,0,0,0,6.61,2.025h3.3a9.564,9.564,0,0,1,.355-1.641,9.721,9.721,0,0,1,4.828-5.621c.134-.069.257-.154.392-.219s.278-.094.413-.15a10.729,10.729,0,0,1,4.732-.8c-.027-.071-.042-.146-.071-.217-.035-.092-.05-.188-.09-.28-.106-.255-.246-.507-.378-.76-.073-.14-.132-.284-.211-.424a.438.438,0,0,1,.05-.511,10.084,10.084,0,0,0,.772-.981A9.068,9.068,0,0,0-83.924,45.6a8.418,8.418,0,0,0-.309-4.308A9.6,9.6,0,0,0-85.823,38.492Z" transform="translate(111.386 -12.557)" fill="#cb0023"/>
        </g>
        <path id="패스_1701" data-name="패스 1701" d="M-106.055,31.969c-.248-.718-2.117-.728-4.17-.019a10.489,10.489,0,0,0-1.161.48V35a8.928,8.928,0,0,0,2.058-.447C-107.272,33.847-105.807,32.689-106.055,31.969Z" transform="translate(111.386 -7.731)" fill="#fff" opacity="0.3"/>
        <path id="패스_1702" data-name="패스 1702" d="M-109.52,38.007c-.134-.088-.255-.186-.392-.269s-.244-.167-.378-.24c-.344-.186-.728-.319-1.1-.472v4.6a11.89,11.89,0,0,0,5.264,9.848A9.549,9.549,0,0,0-105.2,49.5,10.115,10.115,0,0,0-109.52,38.007Z" transform="translate(111.386 -1.64)" fill="#db3d88"/>
        <path id="패스_1703" data-name="패스 1703" d="M-93.395,40.89a10.729,10.729,0,0,0-4.732.8c-.136.056-.28.09-.413.15s-.259.15-.392.219a9.721,9.721,0,0,0-4.828,5.621,9.565,9.565,0,0,0-.355,1.641h9.91a15.053,15.053,0,0,0,.956-2.25,9.432,9.432,0,0,0,.455-3.294A9.654,9.654,0,0,0-93.395,40.89Z" transform="translate(119.292 2.542)" fill="#db3d88"/>
        <g id="그룹_210" data-name="그룹 210">
          <path id="패스_1704" data-name="패스 1704" d="M-109.919,29.07a1.492,1.492,0,0,0-.726-1l-.038-.019a1.548,1.548,0,0,0,.261-.48,1.629,1.629,0,0,0-.388-1.67,1.219,1.219,0,0,0-.547-.278c0,.1-.029.186-.029.284V26.6a.766.766,0,0,1,.129.7.608.608,0,0,1-.129.171V28.78a1.58,1.58,0,0,1,.317.065.627.627,0,0,1,.294.424,1.13,1.13,0,0,1-.159.858.456.456,0,0,1-.426.232l-.027-.01v.887a1.342,1.342,0,0,0,1.171-.6A2.008,2.008,0,0,0-109.919,29.07Z" transform="translate(111.386 -14.035)"/>
          <path id="패스_1705" data-name="패스 1705" d="M-106.691,23.255a6.256,6.256,0,0,0,1.029-.083.436.436,0,0,0,.359-.505.443.443,0,0,0-.505-.361,3.709,3.709,0,0,1-1.939-.119.438.438,0,0,0-.6.161.435.435,0,0,0,.159.6A3.092,3.092,0,0,0-106.691,23.255Z" transform="translate(114.625 -17.839)"/>
          <path id="패스_1706" data-name="패스 1706" d="M-108.774,24.067a2.4,2.4,0,0,1,2.279,1.315.439.439,0,0,0,.392.24.427.427,0,0,0,.2-.048.439.439,0,0,0,.194-.589,3.286,3.286,0,0,0-3.177-1.791.439.439,0,0,0-.38.493A.442.442,0,0,0-108.774,24.067Z" transform="translate(113.686 -16.707)"/>
          <path id="패스_1707" data-name="패스 1707" d="M-101.964,27.339a.431.431,0,0,0,.324-.144.437.437,0,0,0-.029-.62,3.729,3.729,0,0,1-.7-1.812.431.431,0,0,0-.495-.374.438.438,0,0,0-.374.495,4.512,4.512,0,0,0,.975,2.34A.434.434,0,0,0-101.964,27.339Z" transform="translate(120.244 -15.385)"/>
          <path id="패스_1708" data-name="패스 1708" d="M-104.262,26.784a2.4,2.4,0,0,1,2.546.662.444.444,0,0,0,.346.167.433.433,0,0,0,.271-.094.438.438,0,0,0,.073-.616,3.259,3.259,0,0,0-3.519-.952.438.438,0,0,0-.273.557A.436.436,0,0,0-104.262,26.784Z" transform="translate(118.502 -13.866)"/>
          <path id="패스_1709" data-name="패스 1709" d="M-94,29.864a.459.459,0,0,0,.127.019.441.441,0,0,0,.422-.313A3.7,3.7,0,0,1-91.8,27.829a.44.44,0,0,0,.236-.432.442.442,0,0,0-.313-.38,3.958,3.958,0,0,0-3.452.261.439.439,0,0,0-.083.609.444.444,0,0,0,.614.094,2.585,2.585,0,0,1,1.689-.311,3.633,3.633,0,0,0-1.183,1.645A.44.44,0,0,0-94,29.864Z" transform="translate(128.663 -12.784)"/>
          <path id="패스_1710" data-name="패스 1710" d="M-90.294,24.321a1.305,1.305,0,0,0-.445,1.791,1.3,1.3,0,0,0,1.791.445,1.306,1.306,0,0,0,.445-1.791A1.307,1.307,0,0,0-90.294,24.321Z" transform="translate(133.632 -15.657)"/>
          <path id="패스_1711" data-name="패스 1711" d="M-60.049,32.96a2.146,2.146,0,0,1,.017-.4,2.458,2.458,0,0,0,.006-.68,1.184,1.184,0,0,0-.85-1,1.5,1.5,0,0,0-1.511.472,1.4,1.4,0,0,0-.24.382,1.392,1.392,0,0,0-1.125-.1,1.838,1.838,0,0,0-1.1.964,1.265,1.265,0,0,0-.075.378c-.044.027-.1.033-.134.079a14.718,14.718,0,0,1-4.235,3.765,14.927,14.927,0,0,1-4.6,1.8,9.1,9.1,0,0,0-5.94.587.438.438,0,0,0-.165.6.436.436,0,0,0,.6.165,4.962,4.962,0,0,1,.687-.282,8.959,8.959,0,0,1,3.772-.326,10.135,10.135,0,0,1,1.148.171,12.987,12.987,0,0,1,2.676,1c.255.123.5.23.764.376-.052.006-.1.006-.157.015a27.213,27.213,0,0,0-8.731,2.983,32.692,32.692,0,0,0-3.646,2.223c-.647-1.012-1.3-2.041-1.96-3.139-.1-.167-.182-.315-.28-.48-.086-.146-.159-.276-.244-.42s-.161-.278-.244-.42c-.532-.908-1.081-1.831-1.553-2.674-.647-1.163-1.2-2.334-1.718-3.5l3.743-1.691,1.95-.879,2.273-1.025.463-.211.463-.209,1.065-.48,7.153-3.227.073.165a.439.439,0,0,0,.4.259.464.464,0,0,0,.182-.038l2.167-.977a.45.45,0,0,0,.23-.246.437.437,0,0,0-.01-.336l-.075-.165L-67.86,26l5-2.256c-.109-.113-.219-.221-.332-.332s-.257-.2-.378-.311l-4.25,1.916-.977-2.16A6.437,6.437,0,0,0-71.164,20.1c-.079,0-.154-.025-.234-.025h-2.046a5.7,5.7,0,0,1,.705.192,5.579,5.579,0,0,1,2.914,2.557l-.505.23a.441.441,0,0,0-.58-.219l-2.167.979a.432.432,0,0,0-.23.244.441.441,0,0,0,.008.334l-6.711,3.029a5.623,5.623,0,0,1,2.962-7.02,5.934,5.934,0,0,1,.962-.326h-2.177a6.519,6.519,0,0,0-2.868,6.516,6.415,6.415,0,0,0,.459,1.6v0l0,.015.44.975.288.637.248.551-.372.169-.426.19-.424.192-2.254,1.017L-85.5,33l-3.657,1.649-.34-.758c-.1-.215-.138-.443-.225-.662a14.164,14.164,0,0,1-.651-1.943,13.472,13.472,0,0,1-.255-1.958,13.661,13.661,0,0,1,.8-5.957,13.889,13.889,0,0,1,1.181-2.388c.079-.129.184-.24.267-.367s.192-.238.28-.363c.044-.061.1-.115.142-.175h-5.153a.37.37,0,0,0,.367.2,10.52,10.52,0,0,1,3.062.326c.069.017.138.056.209.075a14.744,14.744,0,0,0-1.175,2.379,14.486,14.486,0,0,0,.069,10.37,10.082,10.082,0,0,0,.595,1.8,43.174,43.174,0,0,0,2.056,4.181c.534.96,1.152,2,1.768,3.043-.451.647-.877,1.3-1.344,1.939-.38.518-.783,1-1.169,1.509a22.624,22.624,0,0,0-2.271-1.394,33.414,33.414,0,0,0-5.3-2.2c-.785-.253-1.551-.461-2.309-.651a1.339,1.339,0,0,0-.18-.741l-.4.192-.434.2a.443.443,0,0,1,.058.127c-.079-.017-.154-.029-.232-.044-.2-.042-.4-.081-.593-.117-.179-.035-.361-.077-.538-.106-.321-.054-.639-.1-.954-.144.1-.071.2-.152.3-.217A9,9,0,0,1-95.329,39.3a5.521,5.521,0,0,1,.561.1.44.44,0,0,0,.536-.309.437.437,0,0,0-.307-.539,8.812,8.812,0,0,0-2.945-.119,4.083,4.083,0,0,0,.66-.8l.033-.058c1.046-1.841-.787-2.947-1.578-3.427a12.008,12.008,0,0,0-1.62-.716,11.391,11.391,0,0,1-1.44-.626,21.672,21.672,0,0,1-2.657-1.787c-1.152-.883-2.59-1.981-4.3-1.355a2.745,2.745,0,0,0-1.757,1.81,3.846,3.846,0,0,0,.522,2.73A7.557,7.557,0,0,0-108.4,35.93l.271.317a9.484,9.484,0,0,0,2.271,1.891c.023.023.027.063.058.081a.413.413,0,0,0,.169.048,13.922,13.922,0,0,0,2.983,1.3,5.745,5.745,0,0,0,1.225.177,10.971,10.971,0,0,0-1.338.893,2,2,0,0,0-.595.232A21.256,21.256,0,0,0-106,40.829a19.681,19.681,0,0,0-5.385,1.058v.929a18.652,18.652,0,0,1,5.433-1.108c.612-.033,1.248-.025,1.893,0,.038,0,.071,0,.109,0,.123.006.246.013.369.021.067,0,.14.017.207.021.088.008.182.021.269.029.1.008.209.023.313.033.353.033.7.058,1.062.111.175.025.353.052.53.081.038.006.079.017.119.023l0,0c.144.023.292.058.434.086.346.063.7.127,1.048.207.146.031.286.05.432.086s.282.075.422.111c.731.182,1.467.384,2.223.628a32.326,32.326,0,0,1,5.158,2.135A22.122,22.122,0,0,1-89.217,46.6c.121.083.248.163.365.248s.219.188.338.278a17.737,17.737,0,0,1,1.586,1.307c.213.2.349.432.539.643.1.113.19.225.284.338s.194.223.282.338a9.6,9.6,0,0,1,1.591,2.8,8.418,8.418,0,0,1,.309,4.308,9.068,9.068,0,0,1-1.492,3.475,10.084,10.084,0,0,1-.772.981.438.438,0,0,0-.05.511c.079.14.138.284.211.424.132.253.271.505.378.76.04.092.054.188.09.28.029.071.044.146.071.217a9.654,9.654,0,0,1,.6,2.887,9.432,9.432,0,0,1-.455,3.294,15.054,15.054,0,0,1-.956,2.25h.973a14.5,14.5,0,0,0,.82-1.979,10.328,10.328,0,0,0,.5-3.6A10.493,10.493,0,0,0-84.734,63c-.042-.109-.061-.223-.106-.33-.132-.313-.286-.624-.449-.933-.013-.025-.023-.05-.035-.073.223-.267.436-.545.63-.824a9.97,9.97,0,0,0,1.632-3.809,9.3,9.3,0,0,0-.336-4.755A10.435,10.435,0,0,0-85.153,49.1a22.821,22.821,0,0,1,2.021-1.724c.117-.09.228-.182.349-.269s.246-.163.365-.246a32.083,32.083,0,0,1,3.588-2.19,26.407,26.407,0,0,1,8.445-2.891,16.851,16.851,0,0,1,7.961.676,15.408,15.408,0,0,1,2.9,1.4V42.843a16.244,16.244,0,0,0-2.611-1.219,17.42,17.42,0,0,0-7.308-.808.426.426,0,0,0-.165-.534A14.388,14.388,0,0,0-72.193,39.1a16.643,16.643,0,0,0,3.354-1.532c.388-.234.758-.486,1.121-.745.278.829.843,2.094,1.787,2.357a1.391,1.391,0,0,0,.367.05,1.953,1.953,0,0,0,1.373-.71,1.961,1.961,0,0,0,.643-1.693,1.969,1.969,0,0,0,.649-.09,1.16,1.16,0,0,0,.113.378,1.053,1.053,0,0,0,1.058.568,1.468,1.468,0,0,0,1.223-.835c.106-.173.2-.317.269-.317h0a2.419,2.419,0,0,1,.708.344V35.863a1.78,1.78,0,0,0-.628-.213c-.607-.056-.921.438-1.144.8-.188.3-.334.346-.453.349-.232.021-.242-.063-.253-.083A.83.83,0,0,1-61.824,36l0,0a.439.439,0,0,0-.077-.616.439.439,0,0,0-.616.077c-.3.384-1,.649-1.338.409a.67.67,0,0,1-.253-.536.538.538,0,0,1,.2-.436,1.4,1.4,0,0,1,.852-.228h0a.436.436,0,0,0,.438-.436.438.438,0,0,0-.434-.443,1.292,1.292,0,0,1-.987-.449.371.371,0,0,1-.013-.392.975.975,0,0,1,.561-.486.5.5,0,0,1,.424.029,1.378,1.378,0,0,1,.5.555.443.443,0,0,0,.58.2.435.435,0,0,0,.213-.574.666.666,0,0,1,.05-.745.629.629,0,0,1,.605-.207c.079.023.19.079.225.3a1.96,1.96,0,0,1-.013.451,2.765,2.765,0,0,0-.019.572,1.772,1.772,0,0,0,1.4,1.438v-.941A.79.79,0,0,1-60.049,32.96ZM-85.6,43.43c.674,1.117,1.338,2.165,2,3.194a23.837,23.837,0,0,0-2.125,1.808c-.194-.213-.378-.428-.591-.635a18.972,18.972,0,0,0-1.657-1.365c.39-.509.8-1,1.175-1.52s.745-1.081,1.123-1.62C-85.648,43.34-85.627,43.382-85.6,43.43ZM-69.421,23.6l.756,1.676.044.1-.547.246-.8-1.774Zm-9.466,6.406-.8-1.774,6.75-3.045.8,1.772Zm7.552-3.409-.8-1.772-.18-.4,1.365-.616.18.4.8,1.772.182.4.075.165-1.365.616L-71.154,27ZM-102.4,38.729a13.152,13.152,0,0,1-2.534-1.081l2.68-4.316c.138.081.259.171.4.248a12.074,12.074,0,0,0,1.547.676l.04.019-1.2,4.6A5.157,5.157,0,0,1-102.4,38.729Zm-6.9-7.026a1.9,1.9,0,0,1,1.211-1.211,2.081,2.081,0,0,1,.705-.125,3.782,3.782,0,0,1,2.085.852l-3.352,2.908a2.989,2.989,0,0,1-.179-.294A3.115,3.115,0,0,1-109.295,31.7Zm4.726.052c.445.34.989.724,1.574,1.11l-2.686,4.327a8.305,8.305,0,0,1-1.778-1.513l-.278-.324c-.144-.167-.276-.332-.409-.5Zm5.755,3.156c1.39.839,1.72,1.424,1.263,2.229l-.029.05a3.682,3.682,0,0,1-2.976,1.68l1.108-4.239A6.7,6.7,0,0,1-98.814,34.911Zm31.841,1.332.077-.065a7.627,7.627,0,0,1,1.3,1.328.442.442,0,0,0,.369.2.444.444,0,0,0,.238-.069.437.437,0,0,0,.131-.607,7.719,7.719,0,0,0-1.361-1.424l.033-.033c.593.207,1.622.674,1.793,1.3.081.3-.067.647-.438,1.033-.332.346-.624.488-.87.422C-66.272,38.168-66.748,37.013-66.973,36.243Zm2.313-2.3a1.509,1.509,0,0,0,.228.248,1.358,1.358,0,0,0-.511.962,5.458,5.458,0,0,0-.543-.259C-65.19,34.586-64.919,34.269-64.66,33.943Z" transform="translate(111.386 -20.073)"/>
          <path id="패스_1712" data-name="패스 1712" d="M-94.233,38.758a.984.984,0,0,0,.415-1.325.981.981,0,0,0-1.323-.415.984.984,0,0,0-.415,1.325A.981.981,0,0,0-94.233,38.758Z" transform="translate(128.476 -1.771)"/>
          <path id="패스_1713" data-name="패스 1713" d="M-91.2,37.175a.981.981,0,0,0,.415-1.323.981.981,0,0,0-1.323-.415.981.981,0,0,0-.415,1.323A.981.981,0,0,0-91.2,37.175Z" transform="translate(131.769 -3.49)"/>
          <path id="패스_1714" data-name="패스 1714" d="M-83.966,36.75a2.969,2.969,0,0,0-.292-.2c-.1-.05-.188-.073-.284-.113a3.105,3.105,0,0,0-.841-.24,1.558,1.558,0,0,0-1.035.207,1.981,1.981,0,0,0-.493.486,4.025,4.025,0,0,0-.309.468c-.088.152-.169.307-.25.461A4.863,4.863,0,0,1-89.545,40.2a5.457,5.457,0,0,1-3.139.516c-1.15-.067-2.344-.134-2.868,1.68a1.969,1.969,0,0,0,.576,2.244,4.23,4.23,0,0,0,2.642.712,11.049,11.049,0,0,0,4.8-1.181c2.252-1.177,4.671-3.655,4.65-5.606A2.161,2.161,0,0,0-83.966,36.75Zm-6.729,7.56A4.363,4.363,0,0,1-88.608,41.9a4.349,4.349,0,0,1,3.129-.342,10.626,10.626,0,0,1-2.467,1.841A9.823,9.823,0,0,1-90.7,44.311Z" transform="translate(128.473 -2.552)"/>
          <path id="패스_1715" data-name="패스 1715" d="M-106.192,39.163a.979.979,0,0,0,1.234-.632.978.978,0,0,0-.63-1.234.505.505,0,0,0-.052-.006.947.947,0,0,0-.534.019.965.965,0,0,0-.649.618A.982.982,0,0,0-106.192,39.163Z" transform="translate(116.294 -1.385)"/>
          <path id="패스_1716" data-name="패스 1716" d="M-101.488,38.627a.982.982,0,0,0-1.236.632.982.982,0,0,0,.632,1.236.982.982,0,0,0,1.236-.632A.983.983,0,0,0-101.488,38.627Z" transform="translate(120.752 0.048)"/>
          <path id="패스_1717" data-name="패스 1717" d="M-98.215,41.65a11.193,11.193,0,0,1-4.264-.549,11.224,11.224,0,0,1-3.78-2.05.442.442,0,0,0-.62.05.44.44,0,0,0,.052.62,12.076,12.076,0,0,0,4.079,2.215,12.411,12.411,0,0,0,3.795.622c.271,0,.543-.01.808-.031a.441.441,0,0,0,.4-.474A.449.449,0,0,0-98.215,41.65Z" transform="translate(116.174 0.448)"/>
        </g>
      </g>
      <path id="패스_1718" data-name="패스 1718" d="M-71.17,72.6H-99.283A12.326,12.326,0,0,1-111.6,60.289V32.176A12.326,12.326,0,0,1-99.283,19.863H-71.17A12.326,12.326,0,0,1-58.857,32.176V60.289A12.326,12.326,0,0,1-71.17,72.6Zm-28.114-51.86a11.448,11.448,0,0,0-11.436,11.434V60.289A11.449,11.449,0,0,0-99.283,71.726H-71.17A11.448,11.448,0,0,0-59.736,60.289V32.176A11.446,11.446,0,0,0-71.17,20.742Z" transform="translate(111.596 -19.863)" fill="#1a1311"/>
    </g>
    <g id="그룹_218" data-name="그룹 218" transform="translate(-46.874 23.217)">
      <g id="그룹_214" data-name="그룹 214" transform="translate(0.188 41.652)">
        <g id="그룹_213" data-name="그룹 213">
          <path id="패스_1719" data-name="패스 1719" d="M-80.5,41.461h.536v2.127h.017l1.764-2.127h.6L-78.9,43.074l1.528,2.617h-.593l-1.269-2.2-.724.866v1.336H-80.5Z" transform="translate(80.498 -41.386)" fill="#fff"/>
          <path id="패스_1720" data-name="패스 1720" d="M-79.031,43.6c0-1.355.743-2.179,1.8-2.179s1.805.824,1.805,2.179-.743,2.2-1.805,2.2S-79.031,44.959-79.031,43.6Zm3.062,0c0-1.06-.5-1.712-1.259-1.712s-1.257.651-1.257,1.712.5,1.735,1.257,1.735S-75.969,44.66-75.969,43.6Z" transform="translate(82.093 -41.425)" fill="#fff"/>
          <path id="패스_1721" data-name="패스 1721" d="M-77.006,41.461h1.328c.858,0,1.476.311,1.476,1.194a1.147,1.147,0,0,1-.958,1.188l1.083,1.849h-.605L-75.71,43.9h-.76v1.793h-.536Zm1.246,2.006c.662,0,1.025-.265,1.025-.812S-75.1,41.9-75.76,41.9h-.71v1.568Z" transform="translate(84.295 -41.386)" fill="#fff"/>
          <path id="패스_1722" data-name="패스 1722" d="M-75.389,41.461h2.438v.455h-1.9v1.325h1.6V43.7h-1.6v1.538h1.966v.455h-2.5Z" transform="translate(86.053 -41.386)" fill="#fff"/>
          <path id="패스_1723" data-name="패스 1723" d="M-72.739,41.461h.595l1.436,4.231h-.566l-.4-1.29h-1.547l-.407,1.29h-.543Zm-.351,2.513h1.28l-.2-.645c-.157-.48-.29-.939-.428-1.43h-.023c-.132.5-.271.95-.42,1.43Z" transform="translate(87.375 -41.386)" fill="#fff"/>
          <path id="패스_1724" data-name="패스 1724" d="M-71.888,41.461h.553l1.538,2.67.451.87h.027c-.027-.426-.069-.9-.069-1.338v-2.2h.507v4.231h-.547l-1.538-2.67-.455-.87h-.025c.025.428.065.877.065,1.321v2.219h-.507Z" transform="translate(89.859 -41.386)" fill="#fff"/>
          <path id="패스_1725" data-name="패스 1725" d="M-68.867,41.461h.595l1.434,4.231H-67.4l-.4-1.29h-1.545l-.409,1.29H-70.3Zm-.351,2.513h1.279l-.2-.645c-.157-.48-.288-.939-.426-1.43h-.023c-.134.5-.271.95-.422,1.43Z" transform="translate(91.583 -41.386)" fill="#fff"/>
          <path id="패스_1726" data-name="패스 1726" d="M-67.575,41.916h-1.282v-.455h3.1v.455h-1.282v3.776h-.534Z" transform="translate(93.155 -41.386)" fill="#fff"/>
          <path id="패스_1727" data-name="패스 1727" d="M-67.152,41.461h.536v4.231h-.536Z" transform="translate(95.009 -41.386)" fill="#fff"/>
          <path id="패스_1728" data-name="패스 1728" d="M-66.6,43.6c0-1.355.743-2.179,1.8-2.179s1.806.824,1.806,2.179-.745,2.2-1.806,2.2S-66.6,44.959-66.6,43.6Zm3.06,0c0-1.06-.5-1.712-1.257-1.712s-1.257.651-1.257,1.712.5,1.735,1.257,1.735S-63.537,44.66-63.537,43.6Z" transform="translate(95.612 -41.425)" fill="#fff"/>
          <path id="패스_1729" data-name="패스 1729" d="M-64.573,41.461h.555l1.538,2.67.449.87H-62c-.029-.426-.069-.9-.069-1.338v-2.2h.507v4.231h-.547l-1.54-2.67-.455-.87h-.023c.023.428.063.877.063,1.321v2.219h-.507Z" transform="translate(97.813 -41.386)" fill="#fff"/>
          <path id="패스_1730" data-name="패스 1730" d="M-61.551,41.461h.595l1.434,4.231h-.564l-.4-1.29h-1.545l-.409,1.29h-.543Zm-.353,2.513h1.282l-.2-.645c-.157-.48-.288-.939-.426-1.43h-.023c-.134.5-.271.95-.422,1.43Z" transform="translate(99.537 -41.386)" fill="#fff"/>
          <path id="패스_1731" data-name="패스 1731" d="M-61.182,41.461h.536v3.776H-58.8v.455h-2.382Z" transform="translate(101.5 -41.386)" fill="#fff"/>
          <path id="패스_1732" data-name="패스 1732" d="M-59.458,43.623a1.943,1.943,0,0,1,1.874-2.2,1.567,1.567,0,0,1,1.158.524l-.288.346a1.158,1.158,0,0,0-.864-.4c-.8,0-1.334.658-1.334,1.712s.509,1.735,1.315,1.735a1.283,1.283,0,0,0,.981-.472l.294.334a1.634,1.634,0,0,1-1.3.605C-58.667,45.806-59.458,44.994-59.458,43.623Z" transform="translate(103.374 -41.425)" fill="#fff"/>
          <path id="패스_1733" data-name="패스 1733" d="M-57.719,41.461h2.438v.455h-1.9v1.325h1.6V43.7h-1.6v1.538h1.964v.455h-2.5Z" transform="translate(105.265 -41.386)" fill="#fff"/>
          <path id="패스_1734" data-name="패스 1734" d="M-56.235,41.461h.553l1.538,2.67.451.87h.027c-.027-.426-.069-.9-.069-1.338v-2.2h.507v4.231h-.547l-1.538-2.67-.455-.87h-.025c.025.428.065.877.065,1.321v2.219h-.507Z" transform="translate(106.879 -41.386)" fill="#fff"/>
          <path id="패스_1735" data-name="패스 1735" d="M-53.292,41.916h-1.279v-.455h3.1v.455h-1.28v3.776h-.536Z" transform="translate(108.687 -41.386)" fill="#fff"/>
          <path id="패스_1736" data-name="패스 1736" d="M-52.867,41.461h2.438v.455h-1.9v1.325h1.6V43.7h-1.6v1.538h1.964v.455h-2.5Z" transform="translate(110.541 -41.386)" fill="#fff"/>
          <path id="패스_1737" data-name="패스 1737" d="M-51.383,41.461h1.328c.858,0,1.476.311,1.476,1.194a1.147,1.147,0,0,1-.958,1.188l1.083,1.849h-.605L-50.085,43.9h-.762v1.793h-.536Zm1.246,2.006c.662,0,1.025-.265,1.025-.812s-.363-.756-1.025-.756h-.71v1.568Z" transform="translate(112.154 -41.386)" fill="#fff"/>
          <path id="패스_1738" data-name="패스 1738" d="M-49.286,41.461h2.438v.455h-1.9v1.43h1.613V43.8H-48.75v1.9h-.536Z" transform="translate(114.434 -41.386)" fill="#fff"/>
          <path id="패스_1739" data-name="패스 1739" d="M-48.048,43.6c0-1.355.745-2.179,1.805-2.179s1.8.824,1.8,2.179-.743,2.2-1.8,2.2S-48.048,44.959-48.048,43.6Zm3.062,0c0-1.06-.5-1.712-1.257-1.712S-47.5,42.544-47.5,43.6s.495,1.735,1.257,1.735S-44.986,44.66-44.986,43.6Z" transform="translate(115.78 -41.425)" fill="#fff"/>
          <path id="패스_1740" data-name="패스 1740" d="M-46.022,41.461H-44.7c.858,0,1.476.311,1.476,1.194a1.147,1.147,0,0,1-.956,1.188l1.083,1.849H-43.7L-44.726,43.9h-.76v1.793h-.536Zm1.244,2.006c.664,0,1.027-.265,1.027-.812s-.363-.756-1.027-.756h-.708v1.568Z" transform="translate(117.983 -41.386)" fill="#fff"/>
          <path id="패스_1741" data-name="패스 1741" d="M-42.836,41.916h-1.279v-.455h3.1v.455H-42.3v3.776h-.536Z" transform="translate(120.055 -41.386)" fill="#fff"/>
          <path id="패스_1742" data-name="패스 1742" d="M-42.411,41.461h.534v1.774H-39.9V41.461h.53v4.231h-.53V43.7h-1.972v1.993h-.534Z" transform="translate(121.909 -41.386)" fill="#fff"/>
          <path id="패스_1743" data-name="패스 1743" d="M-40.541,41.461H-38.1v.455H-40v1.325h1.6V43.7H-40v1.538h1.964v.455h-2.5Z" transform="translate(123.942 -41.386)" fill="#fff"/>
          <path id="패스_1744" data-name="패스 1744" d="M-38.576,41.461h1.325c.858,0,1.476.311,1.476,1.194a1.147,1.147,0,0,1-.958,1.188l1.083,1.849h-.605L-37.28,43.9h-.762v1.793h-.534Zm1.244,2.006c.664,0,1.025-.265,1.025-.812s-.361-.756-1.025-.756h-.71v1.568Z" transform="translate(126.079 -41.386)" fill="#fff"/>
          <path id="패스_1745" data-name="패스 1745" d="M-36.96,41.461h.536v4.231h-.536Z" transform="translate(127.836 -41.386)" fill="#fff"/>
          <path id="패스_1746" data-name="패스 1746" d="M-36.406,43.623a1.962,1.962,0,0,1,1.937-2.2,1.61,1.61,0,0,1,1.217.524l-.288.346a1.185,1.185,0,0,0-.916-.4c-.85,0-1.4.658-1.4,1.712s.5,1.735,1.413,1.735a1.166,1.166,0,0,0,.762-.246V43.984h-.9v-.443h1.386v1.776a1.819,1.819,0,0,1-1.309.488A1.929,1.929,0,0,1-36.406,43.623Z" transform="translate(128.438 -41.425)" fill="#fff"/>
          <path id="패스_1747" data-name="패스 1747" d="M-34.527,41.461h.536v1.774h1.97V41.461h.53v4.231h-.53V43.7h-1.97v1.993h-.536Z" transform="translate(130.481 -41.386)" fill="#fff"/>
          <path id="패스_1748" data-name="패스 1748" d="M-31.568,41.916h-1.279v-.455h3.1v.455h-1.279v3.776h-.536Z" transform="translate(132.308 -41.386)" fill="#fff"/>
          <path id="패스_1749" data-name="패스 1749" d="M-31.41,45.178l.324-.363a1.632,1.632,0,0,0,1.163.524c.555,0,.889-.276.889-.691,0-.432-.307-.57-.7-.749l-.612-.265a1.193,1.193,0,0,1-.858-1.083,1.2,1.2,0,0,1,1.33-1.125,1.731,1.731,0,0,1,1.246.524l-.282.34a1.383,1.383,0,0,0-.964-.4c-.478,0-.787.242-.787.622,0,.409.367.566.7.7l.605.259a1.182,1.182,0,0,1,.87,1.131,1.277,1.277,0,0,1-1.436,1.2A2.019,2.019,0,0,1-31.41,45.178Z" transform="translate(133.87 -41.425)" fill="#fff"/>
          <path id="패스_1750" data-name="패스 1750" d="M-29.39,43.6c0-1.355.743-2.179,1.8-2.179s1.805.824,1.805,2.179-.745,2.2-1.805,2.2S-29.39,44.959-29.39,43.6Zm3.06,0c0-1.06-.5-1.712-1.257-1.712s-1.257.651-1.257,1.712.5,1.735,1.257,1.735S-26.33,44.66-26.33,43.6Z" transform="translate(136.066 -41.425)" fill="#fff"/>
          <path id="패스_1751" data-name="패스 1751" d="M-27.365,41.461h2.438v.455h-1.9v1.43h1.613V43.8h-1.613v1.9h-.536Z" transform="translate(138.268 -41.386)" fill="#fff"/>
          <path id="패스_1752" data-name="패스 1752" d="M-24.409,41.916h-1.282v-.455h3.1v.455h-1.282v3.776h-.534Z" transform="translate(140.088 -41.386)" fill="#fff"/>
          <path id="패스_1753" data-name="패스 1753" d="M-23.986,41.461h.536v1.774h1.972V41.461h.528v4.231h-.528V43.7H-23.45v1.993h-.536Z" transform="translate(141.942 -41.386)" fill="#fff"/>
          <path id="패스_1754" data-name="패스 1754" d="M-22.115,41.461h2.438v.455h-1.9v1.325h1.6V43.7h-1.6v1.538h1.964v.455h-2.5Z" transform="translate(143.976 -41.386)" fill="#fff"/>
          <path id="패스_1755" data-name="패스 1755" d="M-20.267,43.623a1.943,1.943,0,0,1,1.874-2.2,1.567,1.567,0,0,1,1.158.524l-.288.346a1.158,1.158,0,0,0-.864-.4c-.8,0-1.334.658-1.334,1.712s.509,1.735,1.315,1.735a1.283,1.283,0,0,0,.981-.472l.294.334a1.637,1.637,0,0,1-1.3.605C-19.476,45.806-20.267,44.994-20.267,43.623Z" transform="translate(145.986 -41.425)" fill="#fff"/>
          <path id="패스_1756" data-name="패스 1756" d="M-18.529,41.461h.536v1.774h1.972V41.461h.53v4.231h-.53V43.7h-1.972v1.993h-.536Z" transform="translate(147.875 -41.386)" fill="#fff"/>
          <path id="패스_1757" data-name="패스 1757" d="M-16.658,41.461h.536v4.231h-.536Z" transform="translate(149.91 -41.386)" fill="#fff"/>
          <path id="패스_1758" data-name="패스 1758" d="M-15.988,41.461h.536v3.776h1.845v.455h-2.382Z" transform="translate(150.638 -41.386)" fill="#fff"/>
          <path id="패스_1759" data-name="패스 1759" d="M-14.628,41.461h1.06a1.852,1.852,0,0,1,2,2.1,1.865,1.865,0,0,1-1.972,2.127h-1.083Zm1.014,3.793c1,0,1.488-.622,1.488-1.689s-.491-1.666-1.488-1.666h-.478v3.354Z" transform="translate(152.117 -41.386)" fill="#fff"/>
        </g>
      </g>
      <g id="그룹_216" data-name="그룹 216" transform="translate(0.511)">
        <g id="그룹_215" data-name="그룹 215">
          <path id="패스_1760" data-name="패스 1760" d="M-77.124,22.542h-3.219v-.4h1.359v-.668h.5v.668h1.363Zm-1.611,2.331c-.772,0-1.3-.4-1.3-1.017s.53-1.01,1.3-1.01,1.309.4,1.309,1.01S-77.964,24.873-78.736,24.873Zm0-.39c.493,0,.833-.242.833-.626s-.34-.62-.833-.62-.827.242-.827.62S-79.228,24.483-78.736,24.483Zm-.286,1.916h3.139v.407h-3.638V25.243h.5Zm3.7-3.127v.42h-.8v1.874h-.5V21.473h.5v1.8Z" transform="translate(80.343 -21.467)" fill="#fff"/>
          <path id="패스_1761" data-name="패스 1761" d="M-75.093,23.952v1h1.626v1.837h-.5V25.351h-3.321v-.4h1.695v-1h-2.219v-.409h3.674A6.492,6.492,0,0,0-73.991,22h-3.187v-.4h3.68v.394a7.078,7.078,0,0,1-.134,1.551h.772v.409Z" transform="translate(83.096 -21.331)" fill="#fff"/>
          <path id="패스_1762" data-name="패스 1762" d="M-72.488,23.793c0,1.163-.566,1.9-1.369,1.9s-1.373-.741-1.373-1.9.57-1.9,1.373-1.9S-72.488,22.63-72.488,23.793Zm-.474,0c0-.883-.372-1.455-.9-1.455s-.9.572-.9,1.455.372,1.459.9,1.459S-72.962,24.68-72.962,23.793Zm2.749.273h-.9v2.86h-.5v-5.45h.5v2.171h.9Z" transform="translate(85.901 -21.463)" fill="#fff"/>
          <path id="패스_1763" data-name="패스 1763" d="M-67.79,24.038v.4h-4.938v-.4h2.219V23.4h-1.6V21.592h3.7v.4h-3.206V23h3.244v.4H-70.01v.635Zm-.607,1.776c0,.632-.705.985-1.862.985s-1.872-.353-1.872-.985.705-.985,1.872-.985S-68.4,25.18-68.4,25.815Zm-.505,0c0-.384-.5-.6-1.357-.6s-1.369.213-1.369.6.505.595,1.369.595S-68.9,26.2-68.9,25.815Z" transform="translate(88.623 -21.337)" fill="#fff"/>
          <path id="패스_1764" data-name="패스 1764" d="M-68.667,24.006c-.528.025-1.035.031-1.474.031l-.067-.409c.7-.006,1.563-.013,2.421-.073a7.958,7.958,0,0,0,.136-1.35h-2.058v-.4h2.542v.207a8.721,8.721,0,0,1-.113,1.5c.2-.019.42-.038.612-.067l.038.359a14.089,14.089,0,0,1-1.538.175v1.259h-.5Zm3.127,2.39V26.8H-69.4V25.143h.493V26.4Zm-.632-1.954V21.476h.5v4.118h-.5v-.756H-67.36v-.4Z" transform="translate(91.364 -21.463)" fill="#fff"/>
          <path id="패스_1765" data-name="패스 1765" d="M-66.985,25.2a15.99,15.99,0,0,0,2.653-.194l.048.407a15.744,15.744,0,0,1-2.749.2h-.451V23.526h2.008V22.388H-67.5v-.409h2.532v1.947h-2.014Zm3.663-3.734v5.469h-.5V21.47Z" transform="translate(94.304 -21.47)" fill="#fff"/>
          <path id="패스_1766" data-name="패스 1766" d="M-60.158,25.619v.407H-65.1v-.407h2.213V24.446h-1.628V21.659h.491v.973h2.787v-.973h.488v2.787h-1.632v1.173Zm-3.87-1.576h2.787v-1h-2.787Z" transform="translate(96.913 -21.265)" fill="#fff"/>
          <path id="패스_1767" data-name="패스 1767" d="M-59.623,24.5a2.118,2.118,0,0,1-1.321-1.175,2.238,2.238,0,0,1-1.373,1.338l-.257-.394A1.931,1.931,0,0,0-61.2,22.49v-.213h-1.223v-.4H-59.5v.4h-1.2v.213a1.775,1.775,0,0,0,1.319,1.618Zm1.367,1.411c0,.639-.687,1.01-1.793,1.01s-1.8-.372-1.8-1.01.683-1,1.8-1S-58.255,25.277-58.255,25.909Zm-.5,0c0-.384-.491-.607-1.294-.607s-1.3.223-1.3.607.486.614,1.3.614S-58.754,26.3-58.754,25.909Zm1.248-3.06v.42h-.81v1.5h-.5v-3.29h.5v1.373Z" transform="translate(99.663 -21.463)" fill="#fff"/>
          <path id="패스_1768" data-name="패스 1768" d="M-58.453,24.381c-.541.023-1.065.029-1.515.029L-60.035,24a29.638,29.638,0,0,0,3.517-.159l.042.359c-.48.073-.985.127-1.478.159v1.077h-.5ZM-59.6,22.64c0-.572.549-.948,1.346-.948s1.342.376,1.342.948-.547.956-1.342.956S-59.6,23.224-59.6,22.64Zm4.2,3.759v.407h-3.857V25.22h.5V26.4Zm-3.728-3.759c0,.353.353.584.87.584s.868-.232.868-.584-.353-.578-.868-.578S-59.127,22.293-59.127,22.64Zm3.089,2.056V21.473h.5v4.154h-.5v-.559h-1.106V24.7Z" transform="translate(102.423 -21.467)" fill="#fff"/>
        </g>
      </g>
      <g id="그룹_217" data-name="그룹 217" transform="translate(0 8.266)">
        <path id="패스_1769" data-name="패스 1769" d="M-47.238,53.2h-33.35V47.611h8.65v-11.1h7.3v11.1h17.4Zm-2.152-8.3H-56.4V30.979H-78.542v-5.2h29.153Z" transform="translate(80.588 -25.049)" fill="#fff"/>
        <path id="패스_1770" data-name="패스 1770" d="M-39.421,55.046h-6.425V50.941L-63.03,52.673V26.161h7V46.685l10.18-1V40.147h-5.727V35.282h5.727V25.735h6.425Zm9.046.547h-6.859V25.43h6.859Z" transform="translate(99.678 -25.43)" fill="#fff"/>
        <path id="패스_1771" data-name="패스 1771" d="M-13,53.2H-46.346V47.611H-37.7v-11.1h7.3v11.1H-13Zm-2.152-8.3h-7.007V30.979H-44.3v-5.2H-15.15Z" transform="translate(117.818 -25.049)" fill="#fff"/>
        <path id="패스_1772" data-name="패스 1772" d="M-5.181,55.046H-11.6V50.941L-28.79,52.673V26.161h7.007V46.685l10.18-1V40.147h-5.73V35.282h5.73V25.735h6.423Zm9.048.547H-2.991V25.43H3.868Z" transform="translate(136.907 -25.43)" fill="#fff"/>
      </g>
    </g>
    <path id="패스_1773" data-name="패스 1773" d="M-41.364,27.179a3.289,3.289,0,0,1-3.285-3.285,3.288,3.288,0,0,1,3.285-3.283,3.288,3.288,0,0,1,3.283,3.283A3.288,3.288,0,0,1-41.364,27.179Zm0-4.573a1.29,1.29,0,0,0-1.29,1.288,1.291,1.291,0,0,0,1.29,1.29,1.29,1.29,0,0,0,1.288-1.29A1.29,1.29,0,0,0-41.364,22.605Z" transform="translate(72.79 0.812)" fill="#fff"/>
    <path id="패스_1774" data-name="패스 1774" d="M-82.35,28.376A4.534,4.534,0,0,1-85.287,27.3L-84,25.776a2.559,2.559,0,0,0,3.6-.3,2.555,2.555,0,0,0-.3-3.6l1.29-1.524a4.555,4.555,0,0,1,.53,6.412A4.546,4.546,0,0,1-82.35,28.376Z" transform="translate(28.605 0.537)" fill="#fff"/>
    <path id="패스_1775" data-name="패스 1775" d="M-81.712,48.894A3.288,3.288,0,0,1-85,45.61a3.288,3.288,0,0,1,3.283-3.285,3.289,3.289,0,0,1,3.285,3.285A3.288,3.288,0,0,1-81.712,48.894Zm0-4.573A1.29,1.29,0,0,0-83,45.61,1.29,1.29,0,0,0-81.712,46.9a1.29,1.29,0,0,0,1.29-1.288A1.291,1.291,0,0,0-81.712,44.32Z" transform="translate(28.923 24.422)" fill="#fff"/>
    <path id="패스_1776" data-name="패스 1776" d="M-11.755,49.793a4.594,4.594,0,0,1-.582-.038l.255-1.979a2.557,2.557,0,0,0,2.857-2.208,2.556,2.556,0,0,0-2.208-2.857l.255-1.981a4.553,4.553,0,0,1,3.932,5.093A4.555,4.555,0,0,1-11.755,49.793Z" transform="translate(107.922 22.688)" fill="#fff"/>
    <rect id="사각형_76" data-name="사각형 76" width="1.995" height="7.003" transform="matrix(0.707, -0.707, 0.707, 0.707, 19.085, 21.428)" fill="#fff"/>
    <path id="패스_1777" data-name="패스 1777" d="M-8.375,28.551a4.433,4.433,0,0,1-2.9-1.079,4.433,4.433,0,0,1-1.54-3.047,4.435,4.435,0,0,1,1.065-3.246l1.513,1.3a2.472,2.472,0,0,0,.263,3.479A2.472,2.472,0,0,0-6.5,25.7L-4.983,27a4.433,4.433,0,0,1-3.047,1.54C-8.145,28.545-8.26,28.551-8.375,28.551Z" transform="translate(107.387 1.431)" fill="#fff"/>
  </g>
</svg>
