<svg id="그룹_1146" data-name="그룹 1146" xmlns="http://www.w3.org/2000/svg" width="115.202" height="216.668" viewBox="0 0 115.202 216.668">
  <g id="그룹_1144" data-name="그룹 1144">
    <g id="그룹_1143" data-name="그룹 1143">
      <g id="그룹_1142" data-name="그룹 1142">
        <path id="패스_7984" data-name="패스 7984" d="M-1488.132,1340.216c19.059-8.907,38.952-16.653,56.053-29.056,7.572-5.493,13.7-13.718,14.438-23.043a29.549,29.549,0,0,0-4.665-17.614,32.329,32.329,0,0,0-13.946-12.559c-13.758-6.205-31.387.307-39.323,13.145.4-11.894-9.207-23.113-20.93-25.164s-24.24,4.789-29.444,15.491c-4.531,9.313-3.765,20.562.092,30.173s9.491,20.945,16.611,28.465,11.422,12.69,20.932,19.825" transform="translate(1530.915 -1243.712)" fill="#dd0030"/>
        <path id="패스_7985" data-name="패스 7985" d="M-1487.023,1343.171a1.854,1.854,0,0,1-1.622-.954c-7.951-6-12.257-10.613-17.691-16.433-1-1.071-2.042-2.183-3.15-3.355-7.639-8.069-13.454-20.25-16.984-29.051-4.437-11.058-4.452-22.6-.042-31.674,5.627-11.565,19.152-18.67,31.431-16.5a27.963,27.963,0,0,1,22.064,21.872c9.521-11.1,25.849-15.484,38.633-9.716a34.322,34.322,0,0,1,14.759,13.273,31.48,31.48,0,0,1,4.937,18.734c-.715,9.016-6.252,17.909-15.2,24.4-13.728,9.956-29.377,17.009-44.514,23.832-3.96,1.782-7.921,3.567-11.844,5.4A1.835,1.835,0,0,1-1487.023,1343.171Zm-12.581-94.653a26.931,26.931,0,0,0-23.573,14.808c-3.956,8.133-3.9,18.583.146,28.67,3.412,8.5,9,20.24,16.235,27.884,1.115,1.174,2.161,2.294,3.169,3.375,5.259,5.632,9.439,10.106,16.992,15.832,3.553-1.649,7.132-3.261,10.715-4.875,14.964-6.744,30.44-13.718,43.859-23.453,8.064-5.849,13.051-13.753,13.679-21.687a27.751,27.751,0,0,0-4.4-16.492,30.587,30.587,0,0,0-13.13-11.844c-12.423-5.6-29.358.089-36.984,12.428a1.856,1.856,0,0,1-2.116.8,1.855,1.855,0,0,1-1.315-1.839c.371-10.9-8.329-21.338-19.4-23.276A22.5,22.5,0,0,0-1499.6,1248.518Z" transform="translate(1529.809 -1244.812)" fill="#1a1311"/>
      </g>
    </g>
  </g>
  <g id="그룹_1145" data-name="그룹 1145" transform="translate(36.89 94.502)">
    <path id="패스_7986" data-name="패스 7986" d="M-1512.695,1283.708" transform="translate(1518.114 -1282.052)" fill="none" stroke="#1a1311" stroke-linecap="round" stroke-linejoin="round" stroke-width="1.5"/>
    <path id="패스_7987" data-name="패스 7987" d="M-1511.636,1405.2a1.853,1.853,0,0,1-1.846-1.718,562.912,562.912,0,0,1-.235-76.038c.989-15.594,2.259-29.587,3.891-42.781a1.844,1.844,0,0,1,2.067-1.612,1.853,1.853,0,0,1,1.612,2.067c-1.619,13.12-2.885,27.041-3.869,42.564a559.081,559.081,0,0,0,.232,75.529,1.855,1.855,0,0,1-1.715,1.985C-1511.547,1405.2-1511.592,1405.2-1511.636,1405.2Z" transform="translate(1514.887 -1283.038)" fill="#1a1311"/>
  </g>
</svg>
