<svg xmlns="http://www.w3.org/2000/svg" width="85.919" height="86.167" viewBox="0 0 85.919 86.167">
  <g id="more" transform="translate(-1361.041 -2697.034)">
    <path id="shape" d="M412.9,1007.515c-4.366-8.147-11.242-13.724-19.47-17.639a22.559,22.559,0,0,0-8.114-2.375c-2.963-.2-5.917-.543-8.88-.725-4.762-.291-9.538-.528-14.191.883-2.851.865-5.707,1.74-8.494,2.788a22.183,22.183,0,0,0-8.961,5.727,31.4,31.4,0,0,1-3.8,3.785,20.994,20.994,0,0,0-7.62,12.763c-.794,3.782-1.628,7.556-2.416,11.339a6.193,6.193,0,0,0-.1,1.775,20.079,20.079,0,0,1-.734,8.75,4.735,4.735,0,0,0-.022,2.647c.217,1.016.43,2.035.579,3.062a40.515,40.515,0,0,0,3.427,11.5c1.049,2.24,3,3.661,4.226,5.692a25.489,25.489,0,0,0,8.342,8.522c2.521,1.6,5.191,2.881,7.785,4.321a18.176,18.176,0,0,0,8.514,2.272c2.383.066,4.771.014,7.156.014v.1c1.044,0,2.089-.014,3.132,0a45.318,45.318,0,0,0,23.115-5.441c5.573-3.089,10.293-7.05,12.7-13.227a32.177,32.177,0,0,1,1.744-3.629c3.415-6.306,4.446-13.21,4.9-20.208.262-4.012-.016-8.057.112-12.081A20.97,20.97,0,0,0,412.9,1007.515Z" transform="translate(1031.127 1710.48)" fill="#278e2a" opacity="0.85"/>
    <line id="선_4" data-name="선 4" x2="33" transform="translate(1387.5 2740.118)" fill="none" stroke="#fff" stroke-width="3"/>
    <line id="선_5" data-name="선 5" y2="33" transform="translate(1404 2723.618)" fill="none" stroke="#fff" stroke-width="3"/>
  </g>
</svg>
