<svg xmlns="http://www.w3.org/2000/svg" width="177.478" height="178.091" viewBox="0 0 177.478 178.091">
  <path id="vector_star" d="M662.717,421.406l0-.007-.03-.038h0c-1.013-2.918-2.957-4.64-6.134-4.78a5.091,5.091,0,0,0-3.333-1.014c-8.335-.656-16.66-.171-24.993.075a52,52,0,0,0-13.508,1.99h0l.007.008.126.178q-.652-.736-1.3-1.472v0c-.9-4.109-3.021-7.718-4.776-11.467-.47-1-1.605-1.693-2.435-2.527-3.374-7.367-10.809-8.948-17.056-3.627h0c-2.469,2.315-4.728,4.992-5.337,8.261-.854,4.585-2.256,9.207-1.642,13.922.216,1.659-1.135,1.86-1.452,2.878h0c-2.166-.173-4.544-1-6.455-.387-4.573,1.475-9.008.1-13.486.106-3.352,0-6.7-.649-10.058-.829a24.573,24.573,0,0,0-8.22.915c-4.8,1.384-6.469,5.442-8.013,9.349a5.485,5.485,0,0,0,1.679,6.5,13.042,13.042,0,0,1,1.847,2.315,2.669,2.669,0,0,0,2.331,2.473,2.133,2.133,0,0,0,2.233,1.364,35.389,35.389,0,0,1,3.959,2.5c4.549,3.757,9.776,6.3,14.975,8.986a14.613,14.613,0,0,0,7.273,1.692h0a5.207,5.207,0,0,0,1.339,1.051c5.432,1.839,5.436,1.824,4.186,7.065-.091.382-.132.776-.228,1.157-1.765,7.041-2.437,14.329-4.851,21.231a17.741,17.741,0,0,0-.441,4.07c-.85,4.862-3.351,8.991-5.83,13.129a4.108,4.108,0,0,0-1.908,2.164c-1.269,2.841-.889,5.816-.71,8.757.181,2.974,1.664,4.8,4.841,4.85.393,1.237.9,2.362,2.438,2.451.364,2.073,1.816,2.935,3.709,3.08a2.389,2.389,0,0,0,2.532-1.972h0l.006,0a4.362,4.362,0,0,0,2.315-3.66,8.8,8.8,0,0,0,2.836-3.007c2.64-3.962,5.372-7.868,7.877-11.914a27.569,27.569,0,0,1,7.528-8.327,44.743,44.743,0,0,0,8.841-8.689c.876-1.073,1.688-2.2,2.609-3.234a2.465,2.465,0,0,1,3.212-.6,57.807,57.807,0,0,1,11.528,7.348,99.255,99.255,0,0,1,10.136,9.969c3,3.362,6.782,6.262,7.781,11.063h0c-.037,2.53,1.361,3.989,3.572,4.839a10.253,10.253,0,0,0,8.418,2.426,2.417,2.417,0,0,0,2.323-2.125h0a38.179,38.179,0,0,0,4.018-3.46c1.731-1.942,3.224-4.048,1.851-6.943-.854-1.8.749-3.83-.448-5.734-1.147-1.825-2.03-3.816-3.029-5.734h0a18.557,18.557,0,0,0-2.318-5.882,2.409,2.409,0,0,0-1.246-2.411,9.823,9.823,0,0,0-3.635-6h0l-.875-1.281A4.939,4.939,0,0,0,645.773,479c-1.225-3.668-3.776-6.482-6.088-9.45h0c-1.648-3.364-3.313-6.72-4.939-10.1-1.539-3.2-1.435-4.647,1.216-6.654,3.952-2.993,7.788-6.156,12.13-8.626,3.415-1.942,7.028-3.639,9.728-6.646,1.04-.082,2.077-.168,2.437-1.419l0,0h0C665.578,431.171,666.217,427.349,662.717,421.406Z" transform="matrix(0.883, 0.469, -0.469, 0.883, -223.878, -600.058)" fill="#ffa100"/>
</svg>
