<svg xmlns="http://www.w3.org/2000/svg" xmlns:xlink="http://www.w3.org/1999/xlink" width="399.175" height="315.035" viewBox="0 0 399.175 315.035">
  <defs>
    <clipPath id="clip-path">
      <rect id="사각형_140" data-name="사각형 140" width="320.771" height="315.035" fill="none"/>
    </clipPath>
  </defs>
  <g id="center_green-illust" transform="translate(-11281.133 -831.882)">
    <g id="illust." transform="translate(11337.994 831.882)">
      <g id="그룹_902" data-name="그룹 902" transform="translate(0)" clip-path="url(#clip-path)">
        <g id="그룹_901" data-name="그룹 901" transform="translate(23.49 -14.848)">
          <path id="패스_7189" data-name="패스 7189" d="M884.618,481.779c-26.095,1.022-58.8.047-84.894-.928-18.536-.693-37.1-1.386-55.515-3.576-11.027-1.31-24.5,5.439-34.9,1.539,3.166-17.2,10.357-43.1,20.186-57.565s25.465-25.814,43.257-27.353a95.694,95.694,0,0,0,73.241-33.421,402.662,402.662,0,0,0,56.761-64.334q14.671,10.683,28.457,22.512a9.418,9.418,0,0,1,2.949,3.543c.7,1.829.2,3.873-.313,5.761a305.346,305.346,0,0,1-46.916,98.008,22.4,22.4,0,0,0-3.676,6.441,18.644,18.644,0,0,0-.6,5.25C882.556,451.5,885.746,481.735,884.618,481.779Z" transform="translate(-701.992 -145.011)" fill="#e06b76"/>
          <path id="패스_7190" data-name="패스 7190" d="M840.4,395.751c20.865-8.2,32.46-34.719,37.995-50.658Q867.962,356.2,856.715,366.5a95.36,95.36,0,0,1-60.323,32.608C810.507,401.829,826.373,401.525,840.4,395.751Z" transform="translate(-712.717 -151.04)" fill="#753988" opacity="0.14" style="mix-blend-mode: multiply;isolation: isolate"/>
          <path id="패스_7191" data-name="패스 7191" d="M794.075,404.872a27.664,27.664,0,0,0,18.36,13.65,24.517,24.517,0,0,0,21.768-6.348,22.033,22.033,0,0,0,5.536-21.753C825.163,398.052,808.834,402.309,794.075,404.872Z" transform="translate(-712.432 -156.622)" fill="#f3d5c1"/>
          <path id="패스_7192" data-name="패스 7192" d="M840.112,401.333a20.893,20.893,0,0,0-.372-10.912c-14.576,7.631-30.906,11.888-45.664,14.451.142.255.3.5.446.753C809.628,408.693,826.112,407.632,840.112,401.333Z" transform="translate(-712.432 -156.622)" fill="#753988" opacity="0.14" style="mix-blend-mode: multiply;isolation: isolate"/>
          <g id="그룹_898" data-name="그룹 898" transform="translate(0 73.571)">
            <path id="패스_7193" data-name="패스 7193" d="M726.727,335.626c-5.853-2.648-13.347.109-16.765,5.549s-2.929,12.829.489,18.268a18.38,18.38,0,0,0,10.966,8.11c4.527,1.109,9.572.176,15.371-4.161,7.69,10.672,19.64,17.913,32.42,21.031s26.326,2.295,39.035-1.1c21-5.606,58.471-34.412,51.153-64.613-1.757-7.251-6.846-13.254-12.086-18.565a44.357,44.357,0,0,1-5.2-5.774c-2.3-3.33-3.406-7.309-4.56-11.186-2.605-8.754-5.652-17.476-10.526-25.2s-11.742-14.448-20.257-17.751c-6.724-2.609-14.118-2.974-21.32-2.553a103.911,103.911,0,0,0-46.4,14.1c-5.7,3.35-11.164,7.34-15.047,12.686-6.793,9.354-7.924,21.683-7.093,33.213A105.736,105.736,0,0,0,726.727,335.626Z" transform="translate(-701.785 -211.364)" fill="#f9d9c2"/>
            <path id="패스_7194" data-name="패스 7194" d="M730.517,361.988a14.63,14.63,0,0,0-1.884-2.281c-4.252-3.987-12.105-4.164-15.034,0a8.752,8.752,0,0,0-.842,1.225c-.23.365-.609.692-.674,1.13a.862.862,0,0,0,1.455.723,5.381,5.381,0,0,1,2.626-1.961c.133-.066.269-.125.405-.183l.084-.034c.079-.025.088-.034.067-.035l.052-.007a5.868,5.868,0,0,1,1.4-.526,11.914,11.914,0,0,1,4.477-.156c.189.036.38.055.572.082-.534-.069-.325-.052.078.026a22.949,22.949,0,0,1,3.1.937l.126.058a17.578,17.578,0,0,1,3.437,2.422.629.629,0,0,0,.981-.126C731.192,362.67,730.8,362.508,730.517,361.988Z" transform="translate(-702.332 -226.034)" fill="#dcb69c"/>
            <path id="패스_7195" data-name="패스 7195" d="M716.211,331.837a124.616,124.616,0,0,1-13.8-36.774c-1.348-6.374-2.168-13.044-.58-19.363s6-12.25,12.252-14.09c-.316-4.687,1.8-9.189,4.261-13.19a71.916,71.916,0,0,1,47.84-32.654,13.3,13.3,0,0,1,5.322-.164c1.742.4,3.406,1.587,3.433,3.208a49.843,49.843,0,0,1,28.74-11.087c3.638-.187,7.839.313,9.9,3.315a8.148,8.148,0,0,1,.607,7.159,24.091,24.091,0,0,1-3.785,6.383c4.348-1.506,9.039-3.028,13.461-1.756a11.481,11.481,0,0,1,7.792,8.027c.967,3.781-.21,8.035-2.78,10.093,5.461,5.308,8.348,12.821,9.41,20.363s.458,15.206-.149,22.8c-4.536-15.617-10.882-32.644-21.574-41.086-32.822,27.352-71.22,27.913-94.226,29.331a79.583,79.583,0,0,1,4.411,59.818C723.945,331.46,719.8,330.557,716.211,331.837Z" transform="translate(-700.965 -207.689)"/>
            <path id="패스_7196" data-name="패스 7196" d="M761.865,322.3a5.047,5.047,0,1,1,5.046,5.046A5.047,5.047,0,0,1,761.865,322.3Z" transform="translate(-708.465 -221.182)"/>
            <ellipse id="타원_233" data-name="타원 233" cx="5.047" cy="5.047" rx="5.047" ry="5.047" transform="translate(98.82 78.309)"/>
            <path id="패스_7197" data-name="패스 7197" d="M790.753,318.375c-.844-2.244.545-4.842,3.1-5.8s5.314.079,6.157,2.323-.545,4.841-3.1,5.8S791.6,320.618,790.753,318.375Z" transform="translate(-711.992 -220.561)" fill="#dca49a"/>
            <g id="그룹_896" data-name="그룹 896" transform="translate(32.904 81.685)">
              <ellipse id="타원_234" data-name="타원 234" cx="17.058" cy="17.058" rx="17.058" ry="17.058" transform="translate(0 62.666) rotate(-76.829)" fill="#e89f9f"/>
              <circle id="타원_235" data-name="타원 235" cx="17.058" cy="17.058" r="17.058" transform="translate(75.505 24.123) rotate(-45)" fill="#e89f9f"/>
            </g>
            <path id="패스_7198" data-name="패스 7198" d="M828.637,319c-2.735-3.551-8.007-4.143-12.275-2.654,2.183,1.991,4.142,4.368,3.97,7.224-.131,2.161-1.629,3.93-2.937,5.656a28.57,28.57,0,0,1-1.867,2.2c.136.238.276.472.408.711-.132-.239-.272-.474-.408-.711C802.906,345,780.253,343.25,778.611,342.194c-1.742-1.121-3.014-4.387-3.082-7.634A14.629,14.629,0,0,0,772,336.479a11.343,11.343,0,0,0-4.3,10.057,15.72,15.72,0,0,0,5.136,9.929,25.941,25.941,0,0,0,9.928,5.482c.107.033.215.062.322.1,2.889-6.394,9.006-10.852,15.463-13.649a39.427,39.427,0,0,1,15.377-3.482,27.753,27.753,0,0,1,12.66,2.887,28.774,28.774,0,0,0,5.03-10.533C833,331.356,832.737,324.324,828.637,319Z" transform="translate(-709.178 -220.976)"/>
            <g id="그룹_897" data-name="그룹 897" transform="translate(66.35 100.843)">
              <path id="패스_7199" data-name="패스 7199" d="M822.246,333.513c8.254-8.9-6.305-7.959-9.167-10.818-1.258,1.187-4.829,5.075-5.629,5.826,1.894,3.175,1.567,8.37,3.46,11.545C813.534,338.552,820.064,335.866,822.246,333.513Z" transform="translate(-780.429 -322.695)"/>
              <path id="패스_7200" data-name="패스 7200" d="M794.028,335.227c-3.447.944-8.1.182-11.677.137a15.444,15.444,0,0,0-5.717.891c.068,3.247,1.34,6.513,3.082,7.634,1.275.82,15.213,2.051,27.291-3.791a2.444,2.444,0,0,0,1-3.452l-4.356-7.306C801.019,331.81,797,334.412,794.028,335.227Z" transform="translate(-776.634 -323.513)" fill="#fff"/>
            </g>
            <path id="패스_7201" data-name="패스 7201" d="M823.086,329.332c1.308-1.726,2.807-3.494,2.937-5.656.172-2.856-1.787-5.233-3.97-7.224-.263.092-.523.19-.778.3a25.415,25.415,0,0,0-7.407,5.177,45.784,45.784,0,0,1,6.482,8.155,1.257,1.257,0,0,0,2.026.141C822.619,329.933,822.856,329.637,823.086,329.332Z" transform="translate(-714.869 -221.083)" fill="#fff"/>
            <path id="패스_7202" data-name="패스 7202" d="M800.717,352.512c-6.457,2.8-12.574,7.255-15.463,13.649,13.467,4.14,28.989.258,39.224-9.435a37.127,37.127,0,0,0,4.276-4.81,27.753,27.753,0,0,0-12.66-2.887A39.426,39.426,0,0,0,800.717,352.512Z" transform="translate(-711.345 -225.095)" fill="#d08f8f"/>
          </g>
          <path id="패스_7203" data-name="패스 7203" d="M766.191,448.733c-2.287,8.1-5.206,16-7.457,24.1-1.152,4.15-1.738,8.425-2.823,12.59-.744,3.659-2.206,8.313-2.67,11.315a.966.966,0,0,0,1.632.554,18.644,18.644,0,0,0,1.154-3.507c1.344-4.9,2.7-9.8,3.62-14.792,1.646-8.319,3.97-16.485,6.026-24.708.438-1.834,1.07-3.643,1.419-5.488A.463.463,0,0,0,766.191,448.733Z" transform="translate(-707.403 -163.763)" fill="#a3424c"/>
          <path id="패스_7204" data-name="패스 7204" d="M946.314,290.871a13.181,13.181,0,0,0,4.429.593,5.5,5.5,0,0,0,3.927-1.9c1.588-2.029.92-5.174-.868-7.03s-4.382-2.68-6.906-3.194a17.04,17.04,0,0,0-8.917.117,11.968,11.968,0,0,0-7.118,7.206,14.189,14.189,0,0,0,.72,10.9,43.882,43.882,0,0,0,19.869,17.612,13.679,13.679,0,0,0,6.089,1.469c4.776-.234,8.313-4.533,10.428-8.821a41.2,41.2,0,0,0,3.57-10.757,20.406,20.406,0,0,0,.136-8.047c-.941-4.294-3.92-7.878-7.3-10.695-3.493-2.914-7.7-5.255-12.241-5.47s-9.4,2.132-11.114,6.347" transform="translate(-729.182 -142.141)" fill="#f9d9c2"/>
          <path id="패스_7205" data-name="패스 7205" d="M928.938,294.84a82.313,82.313,0,0,0-4.953,6.788,1.217,1.217,0,0,0,.418,2.024c11.844,8.6,23.664,18.646,34.735,26.685,1.228-1.687,3.7-8.562,3.626-9.368C962.7,320.263,937.972,298.4,928.938,294.84Z" transform="translate(-728.384 -144.851)" fill="#c55762"/>
          <path id="패스_7206" data-name="패스 7206" d="M881.64,187.908a27.4,27.4,0,0,1,34.848,27.528c-.278,6.495-2.838,12.642-4.367,18.961s-1.883,13.479,1.8,18.835c5.607,8.151,17.917,8.723,24.594,16.024" transform="translate(-723.216 -131.558)" fill="none" stroke="#3f4b4c" stroke-linecap="round" stroke-linejoin="round" stroke-width="2"/>
          <path id="패스_7207" data-name="패스 7207" d="M959.9,307.48a39.554,39.554,0,0,1,11.738,66.008c-6.851,6.2-15.605,9.79-23.457,14.663-11.882,7.374-22.415,19.312-22.446,33.3-.021,9.64,5.147,18.873,12.608,24.978s17,9.294,26.584,10.316" transform="translate(-728.646 -146.408)" fill="none" stroke="#3f4b4c" stroke-linecap="round" stroke-linejoin="round" stroke-width="2"/>
          <path id="패스_7208" data-name="패스 7208" d="M966.162,299.04c-.032.033-.03.008.1-.078-.561.389-1.5,1.15-2.4,1.768-2.823,2.13-5.438,2.345-6.174,1.813-3.86-3.108-1.242-7.661,2.954-10.6a14.573,14.573,0,0,1,3.889-1.83.8.8,0,0,0-.7-1.4,13.739,13.739,0,0,0-9.414,7.272,7.05,7.05,0,0,0-.368.913,1.2,1.2,0,0,0-.6.1c-.125.033-.252.058-.379.082l-.075,0a3.86,3.86,0,0,1-2.355-.519,5.07,5.07,0,0,1-1.935-2c-.044-.115-.076-.207-.1-.287a7.068,7.068,0,0,0,5.521-4.576,5.573,5.573,0,0,0-.154-3.44c-.038-.136-.086-.268-.131-.4a9.546,9.546,0,0,1,6.224-3.337c.432-.1.852-.239,1.285-.34-.206.032.167-.017.215-.118a.43.43,0,0,0-.174-.715,1.255,1.255,0,0,0-.149-.055,4.042,4.042,0,0,0-1.394-.381,9.408,9.408,0,0,0-4.2,1.147,11.96,11.96,0,0,0-2.608,2.191c-.1-.137-.193-.274-.3-.4a12.462,12.462,0,0,0-13.147-4.492c-3.983.885-7.761,3.7-9.075,7.653a12.524,12.524,0,0,0-.619,4.624c-.077.744.773,1.025.914.266a7.671,7.671,0,0,1,1.063-4.145c2.228-5.422,8.9-7.668,14.654-5.742a16.713,16.713,0,0,1,4.6,3.222,3.371,3.371,0,0,1,.659.817.741.741,0,0,0,.11.411.728.728,0,0,0,.192.2l.016.033a4.865,4.865,0,0,1,.3,1.1c.324,1.323-.618,2.565-1.783,3.4a3.565,3.565,0,0,1-1.8.6,5.127,5.127,0,0,1-2.254-.107c-.642-.079-.323-.267-1.178.039a1.11,1.11,0,0,0-.394,1.5c.615.715.529.378,1.51.856.065.018.128.027.193.043a6.244,6.244,0,0,0,5.688,5.05,7.53,7.53,0,0,0,1.294-.033,6.41,6.41,0,0,0,2.645,5.457c2.33,1.439,5.358.408,7.4-1.1,1.551-1.129,3.435-3.479,3.5-4.048A.622.622,0,0,0,966.162,299.04Z" transform="translate(-729.152 -142.891)" fill="#dcb69c"/>
          <g id="그룹_900" data-name="그룹 900" transform="translate(250.783 97.729) rotate(148)">
            <path id="패스_7209" data-name="패스 7209" d="M59.241,0C44.759.221,31.061,7.354,20.259,17,11.359,24.952,3.9,35.012,1.174,46.63A46.791,46.791,0,0,0,.831,65.845c2.452,13.143,10.53,25.315,22.15,31.927,13.868,7.892,31.656,7.261,46.014.3a46.318,46.318,0,0,0,14.3-10.428,55.912,55.912,0,0,0,9.364-15.405c2.271-5.235,4.131-10.737,4.468-16.433.362-6.121-1.053-12.23-3.145-17.992C88.045,21.473,76,6.932,59.241,0Z" transform="translate(0 11.747)" fill="#f8e773"/>
            <g id="그룹_899" data-name="그룹 899" transform="translate(54.245 0)">
              <path id="패스_7210" data-name="패스 7210" d="M.1,5.423a1.377,1.377,0,0,1-.089-.31A2.244,2.244,0,0,1,.992,3.276,14.8,14.8,0,0,1,5.862.385,4.015,4.015,0,0,1,8.943.261a3.874,3.874,0,0,1,1.468,1.515c.189.3.357.618.516.937A15.512,15.512,0,0,1,6.5,4.8,14.811,14.811,0,0,1,.1,5.423Z" transform="translate(0 0)" fill="#d1c258"/>
              <path id="패스_7211" data-name="패스 7211" d="M9.968,11.905a4.045,4.045,0,0,1-4-.627A7.956,7.956,0,0,1,4.534,9.537L.359,3.34A3.509,3.509,0,0,1,0,2.71a14.81,14.81,0,0,0,6.394-.621A15.511,15.511,0,0,0,10.823,0,11.522,11.522,0,0,1,9.968,11.905Z" transform="translate(0.103 2.713)" fill="#f8e773"/>
            </g>
            <path id="패스_7212" data-name="패스 7212" d="M2.661,43.5C-.156,42.493-.366,38.581.348,35.676c3.02-12.286,12.98-21.682,23.63-28.512A47,47,0,0,1,37.279.847a21.81,21.81,0,0,1,14.476.816c3.579,1.639,6.478,4.465,9.035,7.458,2.783,3.256,5.372,7.714,3.565,11.6-1.729,3.717-6.637,4.748-10.681,4.078s-7.865-2.538-11.958-2.763c-5.577-.307-10.906,2.5-15.167,6.113s-7.746,8.046-11.8,11.884C12.5,42.151,9.347,45.9,2.661,43.5Z" transform="translate(10.979 18.478)" fill="#7e3974" opacity="0.161" style="mix-blend-mode: multiply;isolation: isolate"/>
            <path id="패스_7213" data-name="패스 7213" d="M7.329,4.871a5.832,5.832,0,0,1-5.543.042A2.926,2.926,0,0,1,.035,2.054,2.572,2.572,0,0,1,1.812.251,7.569,7.569,0,0,1,4.44.012L7.615.1a2.109,2.109,0,0,1,1.475.42A1.679,1.679,0,0,1,9.5,1.4C9.821,3.008,8.883,4,7.329,4.871Z" transform="translate(32.968 99.597)" fill="#fff"/>
            <path id="패스_7214" data-name="패스 7214" d="M25.068,4.649A29.819,29.819,0,0,1,11.927,14.664c-3.353,1.295-7.473,1.858-10.281-.385C.368,13.259-.489,11.4.309,9.974A5.144,5.144,0,0,1,3.32,8.055,53.1,53.1,0,0,0,13.613,3.118c2.168-1.344,4.366-2.89,6.907-3.1S26.959,2.094,25.068,4.649Z" transform="translate(50.063 91.106)" fill="#fff"/>
          </g>
        </g>
      </g>
    </g>
    <g id="vector" transform="translate(11303.133 874.524)">
      <path id="패스_7215" data-name="패스 7215" d="M252.618,118.224q-2.451,6.676-4.9,13.351a42.376,42.376,0,0,0-10.667,2.529l6.212,4.932a4.618,4.618,0,0,1,2.206,5.152q-.5,6.371-.994,12.741a27.569,27.569,0,0,0,8.838-9.042c.4-.66.859-1.405,1.616-1.543a2.635,2.635,0,0,1,2.012.86l10.238,8.508-.656-11.235a5.1,5.1,0,0,1,.371-2.814,5.647,5.647,0,0,1,2.22-1.843,26.6,26.6,0,0,0,7.95-7.294,100.588,100.588,0,0,0-17.26.748C257.389,128.418,255.374,123.363,252.618,118.224Z" transform="translate(49.822 -28.156)" fill="#f8e773"/>
      <path id="패스_7216" data-name="패스 7216" d="M45.556,442.757l-4.9,13.352a42.306,42.306,0,0,0-10.667,2.529l6.21,4.932a6.169,6.169,0,0,1,1.93,2.1,6.162,6.162,0,0,1,.276,3.051q-.5,6.371-.994,12.741a27.558,27.558,0,0,0,8.838-9.042c.4-.66.86-1.405,1.618-1.544a2.648,2.648,0,0,1,2.012.86l10.236,8.509-.656-11.235a5.107,5.107,0,0,1,.371-2.814,5.636,5.636,0,0,1,2.22-1.843,26.557,26.557,0,0,0,7.95-7.3,100.722,100.722,0,0,0-17.26.75C50.326,452.953,48.314,447.9,45.556,442.757Z" transform="translate(-7.527 -251.294)" fill="#fff"/>
      <path id="패스_7217" data-name="패스 7217" d="M35.315,266.613l-3.42,11.113a4.313,4.313,0,0,1-.709,1.542,4.338,4.338,0,0,1-2.049,1.132l-10.428,3.464L26.2,288.09a4.28,4.28,0,0,1,1.639,1.328,4.29,4.29,0,0,1,.367,2.538l-.762,12.656,8.688-11.331c.28-.366.638-.77,1.1-.74a1.433,1.433,0,0,1,.851.517L48.1,303.1l-.827-12.83a3.6,3.6,0,0,1,1.81-4.053l8.03-5.947q-7.892-.538-15.81-.286A81.082,81.082,0,0,0,35.315,266.613Z" transform="translate(4.552 -238.682)" fill="#e06fa5"/>
      <path id="패스_7219" data-name="패스 7219" d="M277.265,59.127l-2.178,5.682-6.553.569,3.737,3.77a1.438,1.438,0,0,1,.5,1.729l-1.657,7.034,6.32-5.107a.569.569,0,0,1,.916.068l4.768,4.218q-.544-3.323-1.087-6.645a1.418,1.418,0,0,1,.058-.925,1.478,1.478,0,0,1,.78-.538,17.2,17.2,0,0,0,5.245-3.412,22.683,22.683,0,0,0-6.335-.328,2.253,2.253,0,0,1-1.588-.232,2.135,2.135,0,0,1-.6-.974A26.049,26.049,0,0,0,277.265,59.127Z" transform="translate(-206.867 -68.529)" fill="#ee7f95"/>
      <path id="패스_7220" data-name="패스 7220" d="M418.981,396.358l-3.347,5.767a2.468,2.468,0,0,1-2.88,1.553l-9.742-.389,4.367,4.694a1.694,1.694,0,0,1,.213,2.572l-4.9,8.043,10.248-3.772a1.468,1.468,0,0,1,2.144.812q2.484,3.782,4.969,7.565l1.068-8.668a2.283,2.283,0,0,1,1.947-2.379l10.877-3.884-6.8-1.648a10.292,10.292,0,0,1-3.411-1.27C420.834,403.4,420.675,399.258,418.981,396.358Z" transform="translate(-79.825 -204.895)" fill="#fff"/>
      <path id="패스_7222" data-name="패스 7222" d="M310.423,342.743q-1.073,4.632-2.145,9.263l-10.5,3.042,6.817,4.971a1.781,1.781,0,0,1,.916,2.3q-1.132,5.41-2.265,10.818l8.847-7.784a2.6,2.6,0,0,1,3.5-.492l9.016,3.793-3.988-9.387a59.272,59.272,0,0,0,9.4-7.343,49.86,49.86,0,0,0-10.872-.367,4.673,4.673,0,0,1-2.58-.272,4.463,4.463,0,0,1-1.647-2.087C313.626,346.613,312.331,344.03,310.423,342.743Z" transform="translate(-319.773 -218.795)" fill="#3a64f9"/>
      <path id="패스_7223" data-name="패스 7223" d="M391.281,34.341q-2.383,7.282-4.764,14.565a31.187,31.187,0,0,0-11.32,1.937q2.73,2.583,5.457,5.167a4.911,4.911,0,0,1,1.427,1.88,4.9,4.9,0,0,1,.033,2.232q-.827,5.884-1.653,11.769l8.9-8.226a3,3,0,0,1,4.335-.576l10.278,5.318a71.2,71.2,0,0,1-6.287-12.14q6.809-3.9,13.618-7.8a31.941,31.941,0,0,0-11.27-.444,4.474,4.474,0,0,1-2.792-.172,3.964,3.964,0,0,1-1.381-1.622A47.969,47.969,0,0,1,391.281,34.341Z" transform="translate(-34.131 -22.959)" fill="#3a64f9"/>
    </g>
  </g>
</svg>
