<svg xmlns="http://www.w3.org/2000/svg" xmlns:xlink="http://www.w3.org/1999/xlink" width="398" height="307.517" viewBox="0 0 398 307.517">
  <defs>
    <clipPath id="clip-path">
      <rect id="사각형_142" data-name="사각형 142" width="398" height="307.517" transform="translate(27.447 16)" fill="none"/>
    </clipPath>
  </defs>
  <g id="center_sky-illust" transform="translate(-76.413 -107.236)">
    <path id="패스_7315" data-name="패스 7315" d="M386.159,120.1q1.22,2.2,2.442,4.4a1.11,1.11,0,0,1-.149,1.625l-4.042,4.523,6.577-.636a1.324,1.324,0,0,1,.781.083,1.355,1.355,0,0,1,.508.774,30.17,30.17,0,0,0,3.57,6.86,69.637,69.637,0,0,0,.341-8.448,51.721,51.721,0,0,0,8.335-1.583,41.413,41.413,0,0,0-7.859-3.532,34.1,34.1,0,0,0-.012-8.256l-3.873,6.985A14.63,14.63,0,0,1,386.159,120.1Z" transform="translate(41.122 4.397)" fill="#ffd85a"/>
    <path id="패스_7316" data-name="패스 7316" d="M58.354,159.462,63.67,165.7a1.627,1.627,0,0,1,.425,2.03q-1.717,5.012-3.432,10.024a53.128,53.128,0,0,0,7.02-4.937l8.355,7.555q-.783-5.431-1.939-10.8l10.615-4.263-9.744-3.192a63.593,63.593,0,0,0-.532-10.7,65.245,65.245,0,0,0-6.4,9.948C64.8,160.361,61.56,159.348,58.354,159.462Z" transform="translate(25.587 28.295)" fill="#ffd85a"/>
    <path id="패스_7317" data-name="패스 7317" d="M232.9,123.608c.537,3.606,6.419,4.748,7.872,1.222a2.873,2.873,0,0,0,.193-1.036,3.529,3.529,0,0,0,.15-1.751C240.073,116.063,232.018,117.933,232.9,123.608Z" transform="translate(22.625 4.697)" fill="#ffd85a"/>
    <path id="패스_7318" data-name="패스 7318" d="M212.52,132.994a4.216,4.216,0,0,0-5.321,3.638,4.274,4.274,0,0,0,.081,2.83,4.793,4.793,0,0,0,4.822,3.01,3.627,3.627,0,0,0,2.133-.932,3.741,3.741,0,0,0,1.42-1.438C216.941,137.482,215.53,133.589,212.52,132.994Z" transform="translate(19.473 6.464)" fill="#80b9fc"/>
    <path id="패스_7319" data-name="패스 7319" d="M230.21,133.425a4.217,4.217,0,0,0-5.321,3.638,4.274,4.274,0,0,0,.081,2.83,4.8,4.8,0,0,0,4.822,3.012,3.635,3.635,0,0,0,2.133-.934,3.733,3.733,0,0,0,1.421-1.438C234.631,137.913,233.22,134.021,230.21,133.425Z" transform="translate(21.632 6.517)" fill="#e5f1e7"/>
    <path id="패스_7320" data-name="패스 7320" d="M72.533,305.674l-6.12,8.165a1.209,1.209,0,0,1-1.738.489L54.441,310.78q2.055,3.915,4.108,7.831a1.638,1.638,0,0,1-.151,2.218l-7.237,9.841a126.259,126.259,0,0,0,12.9-3.954l8.881,10.8q.422-5.948,1.076-11.875a2.219,2.219,0,0,1,.307-1.073,2.253,2.253,0,0,1,1.211-.7l11.846-3.815L73.733,317.12a1.082,1.082,0,0,1-1.051-1.345C72.691,312.41,72.7,309.046,72.533,305.674Z" transform="translate(362.954 26.177)" fill="#ffd85a"/>
    <path id="패스_7321" data-name="패스 7321" d="M91.2,319.028a1.081,1.081,0,0,0-.481-.251,2.061,2.061,0,0,0-1.776.136,2.3,2.3,0,0,0-1.115,2.421,1.785,1.785,0,0,0,1.749,1.423,2.184,2.184,0,0,0,2.03-.589A2.016,2.016,0,0,0,91.2,319.028Z" transform="translate(4.926 29.135)" fill="#ce528b"/>
    <path id="패스_7322" data-name="패스 7322" d="M99.841,336.041a1.177,1.177,0,0,0,.261-1.073,4.594,4.594,0,0,0-4.377-4.153c-1.524.054-3.33.635-3.921,2.179-.681,1.748.061,3.7,1.12,5.141a4.034,4.034,0,0,0,5.13,1.161A3.451,3.451,0,0,0,99.841,336.041Z" transform="translate(5.385 30.621)" fill="#ffd85a"/>
    <path id="패스_7323" data-name="패스 7323" d="M390.6,146.213a2.318,2.318,0,1,0-3.717,2.755,1.838,1.838,0,0,0,2.42.132,1.936,1.936,0,0,0,1.3-2.887Z" transform="translate(41.353 7.967)" fill="#ffa5af"/>
    <path id="패스_7324" data-name="패스 7324" d="M108.017,161.281a2.348,2.348,0,0,0-.541-.958.989.989,0,0,0-1.387,0,2.035,2.035,0,0,0-.624.958,5.787,5.787,0,0,0-.131.969c-.036.534-.043,1.072-.065,1.606q-.064,1.606-.13,3.211a1.246,1.246,0,0,0,1.236,1.236,1.269,1.269,0,0,0,1.235-1.236l.3-3.211c.05-.534.118-1.069.15-1.606A3.426,3.426,0,0,0,108.017,161.281Z" transform="translate(23.749 25.075)" fill="#fff"/>
    <path id="패스_7325" data-name="패스 7325" d="M120.717,157.659a23.984,23.984,0,0,0-1.838,2.761q-.848,1.351-1.745,2.67-1.757,2.588-3.687,5.054a1.289,1.289,0,0,0,0,1.767,1.258,1.258,0,0,0,1.766,0q2.121-2.6,4.066-5.336.924-1.3,1.8-2.637a17.287,17.287,0,0,0,1.749-3.05C123.293,157.723,121.508,156.721,120.717,157.659Z" transform="translate(24.72 24.74)" fill="#fff"/>
    <path id="패스_7326" data-name="패스 7326" d="M126.779,167.668c-.395.07-.8.126-1.186.223a4.842,4.842,0,0,0-1.289.6c-.707.423-1.41.856-2.079,1.34a51.137,51.137,0,0,0-3.993,3.2,1.172,1.172,0,0,0,1.418,1.838,47.812,47.812,0,0,1,3.988-2.767c.68-.422,1.348-.861,2.034-1.272a6.281,6.281,0,0,0,1.107-.77c.3-.284.57-.621.856-.922A.888.888,0,0,0,126.779,167.668Z" transform="translate(25.306 26.004)" fill="#fff"/>
    <path id="패스_7327" data-name="패스 7327" d="M155.659,135.169a33.257,33.257,0,0,1-4.586,1.777l-1.756-3.321a.876.876,0,0,0-.328-.353c-.2-.617-1.194-.787-1.364-.011q-.523,2.385-1.011,4.775c-1.031.188-2.068.34-3.1.453a.917.917,0,0,0-.459,1.694q1.389.852,2.807,1.647c-.376,1.961-.735,3.925-1.063,5.9a.908.908,0,0,0,1.652.7c1.134-1.508,2.312-2.979,3.509-4.434,1.273.631,2.557,1.243,3.861,1.812a.932.932,0,0,0,1.263-1.265l-2.148-4.064q1.8-2.068,3.656-4.094A.773.773,0,0,0,155.659,135.169Zm-7.092,1.039.665,1.251c-.309.077-.616.157-.927.228Q148.437,136.946,148.567,136.208Zm1.444,2.718.772,1.452q-.611.682-1.213,1.37c-.608-.313-1.21-.64-1.811-.966.074-.439.157-.875.232-1.313C148.669,139.3,149.343,139.124,150.011,138.926Zm-2.887,5.723c.107-.652.212-1.3.321-1.958.3.163.6.333.9.491C147.938,143.669,147.526,144.154,147.124,144.649Zm5.077-1.6c-.351-.165-.7-.34-1.045-.509q.237-.281.476-.561Zm-.388-4.7c.41-.141.817-.291,1.223-.442-.311.333-.616.671-.925,1.006C152.011,138.724,151.913,138.535,151.813,138.348Z" transform="translate(63.616 19.366)" fill="#fff"/>
    <g id="그룹_925" data-name="그룹 925" transform="translate(148.918 138.59)">
      <path id="패스_7328" data-name="패스 7328" d="M141.609,113.087a24.19,24.19,0,0,0-.411-12.052c-1.094-4.019-3.308-8.013-7.323-9.664-1.75-.719-3.216,1.686-1.462,2.649,5.306,2.911,6.7,10.479,6.1,16.023a12.37,12.37,0,0,1-11.189,11.008,13.146,13.146,0,0,1-13.011-6.445c-2.53-4.564-2.444-10.713.855-14.887,3.576-4.525,10.5-6.9,16.069-5.28.549.159.909-.7.372-.947A15.638,15.638,0,0,0,114.2,96.331c-4.857,4.582-6.057,12.021-3.6,18.125a16.25,16.25,0,0,0,15.212,10.189C132.936,124.687,139.8,120.175,141.609,113.087Z" transform="translate(-109.359 -91.239)" fill="#fff"/>
      <path id="패스_7329" data-name="패스 7329" d="M121.09,100.951a1.671,1.671,0,0,0-2.333,2.39A1.671,1.671,0,0,0,121.09,100.951Z" transform="translate(-108.274 -90.112)" fill="#fff"/>
      <path id="패스_7330" data-name="패스 7330" d="M131.011,103.8a1.671,1.671,0,0,0-2.333,2.39A1.671,1.671,0,0,0,131.011,103.8Z" transform="translate(-107.063 -89.765)" fill="#fff"/>
      <g id="그룹_924" data-name="그룹 924" transform="translate(13.465 14.258)">
        <path id="패스_7331" data-name="패스 7331" d="M125.15,106.581l0,0C124.972,106.761,125.1,106.656,125.15,106.581Z" transform="translate(-120.909 -103.626)" fill="#fff"/>
        <path id="패스_7332" data-name="패스 7332" d="M128.067,107.144a1.1,1.1,0,1,0-1.934-1.067c-.172.276-.343.554-.528.821l.018-.019c-.061.061-.109.14-.165.205a3.893,3.893,0,0,1-.309.33q-.061.057-.125.111l-.031.022a2.39,2.39,0,0,1-.206.125l-.02.01c-.055.017-.111.038-.164.052h0c-.064,0-.153.007-.2.008a.175.175,0,0,0-.03-.009q-.044-.01-.088-.024l-.186-.1-.019-.012c-.045-.044-.169-.149-.183-.164-.033-.034-.067-.075-.1-.113s-.048-.071-.071-.107q-.056-.089-.1-.182c-.016-.03-.03-.061-.045-.091a4.975,4.975,0,0,1-.148-.508,2.7,2.7,0,0,1-.053-.287l-.006-.072c-.039-.388-.044-.78-.048-1.169a.973.973,0,1,0-1.946.024c-.036,1.473.068,3.1,1.248,4.156a2.822,2.822,0,0,0,2.169.764,3.477,3.477,0,0,0,1.975-.959A6.64,6.64,0,0,0,128.067,107.144Z" transform="translate(-121.36 -103.947)" fill="#fff"/>
      </g>
    </g>
    <path id="패스_7333" data-name="패스 7333" d="M390.321,84.368c-.872-2.633-3.055-5.107-6.117-4.364a6.4,6.4,0,0,0-4.116,4,25.55,25.55,0,0,0-1.585,4.82,25.092,25.092,0,0,0-2.136-2.176,6.492,6.492,0,0,0-4.486-1.93,4.057,4.057,0,0,0-3.76,3.852c-.305,2.794,1.081,6.04,2.585,8.32a18.034,18.034,0,0,0,6.447,5.985c2.729,1.463,7.095,3.1,9.634.506,1.253-1.282,1.68-3.237,2.145-4.91q.71-2.548,1.179-5.156C390.63,90.406,391.278,87.258,390.321,84.368Zm-4.338,2.581c.008.108.035.36.036.395.009.218.01.436,0,.654-.024.609-.105,1.219-.18,1.823a52.633,52.633,0,0,1-1.639,8.027c-.153.54-.3,1.091-.487,1.619-.036.1-.061.174-.077.224s-.051.107-.119.266c-.015.033-.017.034-.029.061a2.432,2.432,0,0,0-.065-.427,21.738,21.738,0,0,1-.585-3.431,1.624,1.624,0,0,0-.064-1.273,19.657,19.657,0,0,1,1.75-8.965,4.17,4.17,0,0,1,.69-1.122l.019-.018.026.03c.078.132.194.322.219.368s.131.3.165.366c.049.146.1.292.14.44A8.473,8.473,0,0,1,385.983,86.949Z" transform="translate(15.129 40.431)" fill="#fff"/>
    <path id="패스_7334" data-name="패스 7334" d="M92.016,147.569a3.936,3.936,0,0,0-.6-1.848,4.455,4.455,0,0,0-.452-.559c-.015-.021-.024-.046-.038-.067a4.057,4.057,0,0,0-1.049-1.036,2.357,2.357,0,0,0-1.958-.236,4.121,4.121,0,0,0-.706.279,2.086,2.086,0,0,0-.281.158,4.549,4.549,0,0,0-.6.491,4.73,4.73,0,0,0-.714.546,4.163,4.163,0,0,0-1.11,1.819,2.178,2.178,0,0,0-.066.305c-.03.2-.062.4-.077.6a2.039,2.039,0,0,0,.255,1.057,1.643,1.643,0,0,0,.155.246,4.014,4.014,0,0,0,.477.582,3.38,3.38,0,0,0,.849.6,4.026,4.026,0,0,0,.972.35c.045.008.092.012.137.02a2.908,2.908,0,0,0,.929.338,3.549,3.549,0,0,0,1.414-.01,1.419,1.419,0,0,0,.243-.074,3.425,3.425,0,0,0,.645-.3A3.51,3.51,0,0,0,92.016,147.569Z" transform="translate(4.509 7.791)" fill="#ffa5af"/>
    <g id="그룹_926" data-name="그룹 926" transform="translate(101.951 135.159)">
      <path id="패스_7335" data-name="패스 7335" d="M103.794,134.894a.384.384,0,0,0-.007-.038l0-.009c0,.085.009.141.012.178,0-.02,0-.04,0-.061S103.8,134.918,103.794,134.894Z" transform="translate(-95.072 -128.45)" fill="#e5f1e7"/>
      <path id="패스_7336" data-name="패스 7336" d="M102.333,134.119l0,.009a.221.221,0,0,0,.012.033l0,.006a.064.064,0,0,0,0-.02Z" transform="translate(-95.25 -128.539)" fill="#e5f1e7"/>
      <path id="패스_7337" data-name="패스 7337" d="M109.6,133.631a7.012,7.012,0,0,0-6.134-4.447A6.9,6.9,0,0,0,96.9,132.3a7.1,7.1,0,0,0,.215,7.183,6.247,6.247,0,0,0,6.815,3,6.433,6.433,0,0,0,2.7-1.534,3.97,3.97,0,0,0,.873-.485A6.218,6.218,0,0,0,109.6,133.631Zm-4.859,2.09c0,.092-.006.183-.01.274,0-.031-.029.31-.071.461-.052.192-.13.374-.19.563.208-.662.054-.139-.046.045-.016.03-.038.058-.055.089l-.018-.018.013.024,0,0c-.008-.015-.018-.028-.027-.043l-.011-.011a.4.4,0,0,1-.091-.146l-.036-.055c-.046-.08-.09-.162-.131-.245l-.017-.031c-.072-.205-.143-.41-.2-.62s-.1-.4-.131-.6c-.018-.1-.028-.209-.049-.311.125.594.019.11.007-.038-.02-.224-.013-.453-.021-.68.017,0,.039.006.053.01l.057.017c.077.039.163.074.223.109s.156.113.238.159l.027.025c.079.073.149.153.222.23.01.017.013.026.028.048.116.186.249.657.059.038h0c.055.176.122.346.164.527,0-.048-.006-.1-.008-.169,0,.072.011.144.017.217C104.764,135.718,104.758,135.85,104.745,135.721Z" transform="translate(-96.02 -129.146)" fill="#e5f1e7"/>
      <path id="패스_7338" data-name="패스 7338" d="M102.315,134.017v.019l0-.012Z" transform="translate(-95.252 -128.551)" fill="#e5f1e7"/>
      <path id="패스_7339" data-name="패스 7339" d="M104.106,136.555h0Z" transform="translate(-95.033 -128.242)" fill="#e5f1e7"/>
      <path id="패스_7340" data-name="패스 7340" d="M104.25,136.513l0,0h0Z" transform="translate(-95.016 -128.247)" fill="#e5f1e7"/>
      <path id="패스_7341" data-name="패스 7341" d="M103.344,136.113l.1.157.016.016C103.378,136.134,103.341,136.089,103.344,136.113Z" transform="translate(-95.126 -128.296)" fill="#e5f1e7"/>
    </g>
    <path id="패스_7342" data-name="패스 7342" d="M407.095,133.892a1.523,1.523,0,0,0-.7-.158,2.3,2.3,0,0,0-.985-.171,3.105,3.105,0,0,0-2.976,3.742,3.282,3.282,0,0,0,4.858,2.136C409.192,138.266,409.114,134.888,407.095,133.892Z" transform="translate(43.312 6.551)" fill="#75b9fc"/>
    <path id="패스_7343" data-name="패스 7343" d="M56.463,187.378a3.467,3.467,0,0,0-1.453-2.115,2.728,2.728,0,0,0-.554-.306,3.788,3.788,0,0,0-1.133-.541,3.6,3.6,0,0,0-2.472.254A3.471,3.471,0,0,0,49.412,186a4.353,4.353,0,0,0-.6,1.939,4.259,4.259,0,0,0,1.189,3.363,3.667,3.667,0,0,0,4.456.469,4.342,4.342,0,0,0,1.6-1.686A4.12,4.12,0,0,0,56.463,187.378Z" transform="translate(63.178 -8.584)" fill="#75b9fc"/>
    <path id="패스_7344" data-name="패스 7344" d="M52.682,209.14a2.81,2.81,0,0,0-.222-.577,1.1,1.1,0,0,0-.107-.187,3.355,3.355,0,0,0-.384-.475,3.5,3.5,0,0,0-.5-.387,1.269,1.269,0,0,0-.177-.093,3.506,3.506,0,0,0-.594-.232,3.927,3.927,0,0,0-.626-.086,3.173,3.173,0,0,0-.645.066,1.006,1.006,0,0,0-.191.046,2.814,2.814,0,0,0-.571.252,4.538,4.538,0,0,0-.4.3c-.026.021-.052.041-.075.065a2.914,2.914,0,0,0-.386.49,3.189,3.189,0,0,0-.25.557,1.217,1.217,0,0,0-.063.206,4.165,4.165,0,0,0-.08.623,3.529,3.529,0,0,0,.07.644,1.241,1.241,0,0,0,.052.221,3.314,3.314,0,0,0,.255.587,2.768,2.768,0,0,0,.392.507.978.978,0,0,0,.086.08,4.278,4.278,0,0,0,.42.316,1.614,1.614,0,0,0,1.855-.13,1.271,1.271,0,0,0,.431-.468l.08-.191a1.283,1.283,0,0,0,.444-.052l.406-.171a1.7,1.7,0,0,0,.608-.608c.057-.136.113-.27.171-.405A1.709,1.709,0,0,0,52.682,209.14Z" transform="translate(76.146 -37.702)" fill="#fff"/>
    <path id="패스_7345" data-name="패스 7345" d="M70.729,124.08c-.016-.166-.039-.341-.068-.5a2.892,2.892,0,0,0-.228-.587.974.974,0,0,0-.1-.175,3.065,3.065,0,0,0-.4-.488,2.466,2.466,0,0,0-1.089-.612L68.8,121.7c-.153-.028-.346-.055-.5-.067a.709.709,0,0,0-.1,0c-.162.015-.344.04-.5.068l-.05.011a3.138,3.138,0,0,0-.507.211,1.941,1.941,0,0,0-.5.38l-.026.029c-.1.116-.214.267-.3.39a.531.531,0,0,0-.046.076,2.4,2.4,0,0,0-.237.594l-.006.04c-.027.173-.056.352-.071.526a.8.8,0,0,0,0,.09,2.629,2.629,0,0,0,1.3,2.2,3.5,3.5,0,0,0,.522.221,1.789,1.789,0,0,0,.334.055,2,2,0,0,0,.339.037h.024c.147-.012.359-.045.5-.068a.382.382,0,0,0,.061-.011,2.055,2.055,0,0,0,1.022-.729c.006-.007.015-.01.021-.017a1.825,1.825,0,0,0,.378-.5,3.177,3.177,0,0,0,.2-.481c0-.015.008-.03.011-.046.03-.16.052-.335.067-.5a.824.824,0,0,0,0-.092Z" transform="translate(58.156 27.048)" fill="#75b9fc"/>
    <g id="그룹_940" data-name="그룹 940" transform="translate(48.965 91.236)">
      <g id="그룹_939" data-name="그룹 939" clip-path="url(#clip-path)">
        <g id="그룹_938" data-name="그룹 938" transform="translate(7.765 31.073)">
          <g id="그룹_932" data-name="그룹 932" transform="translate(121.37 17.869)">
            <g id="그룹_927" data-name="그룹 927" transform="translate(0 48.811)">
              <path id="패스_7346" data-name="패스 7346" d="M253.562,239.182a242.344,242.344,0,0,1-32.141-38.5c-2.52-3.723-5.04-7.839-4.846-12.331.134-3.119,1.579-6.273.671-9.261a3.047,3.047,0,0,0-1.568-2.021,3.215,3.215,0,0,0-2.475.221c-2.153.939-4.424,6.516-5.018,8.732-1.21-5.268-2.318-14.044-4.476-19-.681-1.564-1.724-3.336-3.427-3.426a3.2,3.2,0,0,0-2.771,1.72,8.5,8.5,0,0,0-.892,3.289,59.808,59.808,0,0,0-.234,12.056,52.436,52.436,0,0,0-4.04-13.885,3.813,3.813,0,0,0-1.3-1.792,2.588,2.588,0,0,0-2.91.375,5.879,5.879,0,0,0-1.625,2.633c-1.73,4.838-1.2,10.154-.644,15.262a30.142,30.142,0,0,0-4.716-9.735,3.586,3.586,0,0,0-1.958-1.589,2.557,2.557,0,0,0-2.681,1.689,6.782,6.782,0,0,0-.2,3.4,42.863,42.863,0,0,0,4.536,14.772c-1.68,5.45.318,11.838,5.107,16.348a206.3,206.3,0,0,0,30.859,61.575c3.192,4.354,6.6,8.628,10.873,11.93a4.1,4.1,0,0,0,1.637.885,4.2,4.2,0,0,0,3.006-.98c9.588-6.388,16.446-16.253,21.065-26.808a24.216,24.216,0,0,0,2.264-7.664C255.871,244.4,255.657,241.207,253.562,239.182Z" transform="translate(-176.195 -163.592)" fill="#f9cbb2"/>
              <path id="패스_7347" data-name="패스 7347" d="M186.935,187.91a13.47,13.47,0,0,1,11.926-4.9.517.517,0,0,1,.063,1.011,45.266,45.266,0,0,0-5.838,1.9,49.076,49.076,0,0,0-5.483,2.759.521.521,0,0,1-.667-.764Z" transform="translate(-175.52 -162.366)" fill="#e5b798"/>
            </g>
            <path id="패스_7348" data-name="패스 7348" d="M378.209,224.084a221.1,221.1,0,0,0,26.047-32.746c4.6-7.07,9.956-15.193,10.21-20.009.149-2.809-.744-8.639.188-11.31a4.247,4.247,0,0,1,1.618-2.306c1.99-1.239,4.7.391,5.823,2.375s1.462,4.355,2.917,6.137a77.319,77.319,0,0,1,5.819-13.839c.951-1.726,2.721-4.134,4.18-4.885s3.662-.519,4.346.912a6.519,6.519,0,0,1,.04,4.111c-.953,4.212-2.922,8.062-3.978,12.733a85.389,85.389,0,0,1,6.5-9.435c4.328-5.433,6.668-4.875,7.546-4.219,1.657,1.238,1.2,3.744.686,5.415a55.205,55.205,0,0,1-6.239,12.937c2.394-2.409,9.523-9.473,12.408-7.71,3.14,1.918-1.793,8-4.46,10.67-.488.489-1.155.806-1.507,1.384a5.228,5.228,0,0,0-.422,2.767c-.013,4.974-2.935,9.854-6.975,12.9-.982,6.955-3.56,13.607-6.137,20.187-6.116,15.624-12.339,31.28-20.771,45.912a3.915,3.915,0,0,1-1.788,1.893,3.972,3.972,0,0,1-3.064-.481A34.631,34.631,0,0,1,403,251.6a144.609,144.609,0,0,1-11.228-12C387.127,234.242,382.48,228.881,378.209,224.084Z" transform="translate(-163.377 -115.829)" fill="#f9cbb2"/>
            <g id="그룹_928" data-name="그룹 928" transform="translate(44.426 1.837)">
              <path id="패스_7349" data-name="패스 7349" d="M303.429,249.219c-.032.372-.074.776-.128,1.17a13.273,13.273,0,0,0-2.988,2l-.117-.138c-5.806-.223-20-4.073-19.961-3.563q.032.351.064.734a35.862,35.862,0,0,1-6.806-2.7q-.941-5.918-1.67-12.293C282.16,243.667,292.114,247.762,303.429,249.219Z" transform="translate(-214.553 -112.124)" fill="#ffaf6d"/>
              <path id="패스_7350" data-name="패스 7350" d="M275.705,254.016c.138.893.287,1.787.436,2.659a180.461,180.461,0,0,1-26.512-14.218c-.436-.287-.883-.574-1.319-.872a43.442,43.442,0,0,1-9.05-7.593,9.111,9.111,0,0,1-2.1-3.541,10.9,10.9,0,0,1-.17-3.275q.606-12.666,1.6-25.31c1.042-13.2,2.435-26.544,7.21-38.88s13.336-23.726,25.374-29.213c3.4-1.553,7.125-2.616,10.528-2.031,4.764-7.21,13.782-10.3,22.343-11.528A80.958,80.958,0,0,1,353,128.742a41.511,41.511,0,0,1,11.517,8.444c3.871,4.275,6.147,9.709,8.327,15.058,6.115,15.016,10.283,52.141,10.283,72.017l.181.17c-6.53,6.881-17.877,21.343-24.768,27.2l-.223.1c-.117-.3-.234-.436-.351-.4-1.744.479-10.592,4.328-16.877,4.828a15.024,15.024,0,0,0-6.859-1.542c-.074-.447-.159-.883-.223-1.276a53.6,53.6,0,0,0,18.983-12.559c8.635-8.922,14.1-21.779,11.3-33.871a37.721,37.721,0,0,0-3.86-9.688,20.177,20.177,0,0,1-2.265-4.977,16.921,16.921,0,0,1-.287-4.02q.048-6.652.085-13.314a117.665,117.665,0,0,1-15.962.425,106.643,106.643,0,0,0-5.094-23.013l2.329,22.141a1.376,1.376,0,0,1-.138.946,1.359,1.359,0,0,1-.893.415,81.8,81.8,0,0,1-19.865,1.127,1.789,1.789,0,0,1-2-1.872c-1.659-9.1-1.351-18.94-6.136-26.852,1.244,9.05,2.488,18.249,1.234,27.3a1.805,1.805,0,0,1-1.829,1.957,58.58,58.58,0,0,1-16.973.372,2.324,2.324,0,0,1-1.51-.574,2.368,2.368,0,0,1-.457-1.446q-1.1-12.2-2.191-24.417-.734,12.379-1.457,24.757a2.413,2.413,0,0,1-.468,1.563,2.242,2.242,0,0,1-1.51.532,36.251,36.251,0,0,1-7.891-.117,3.152,3.152,0,0,1-2.212-.936,3.314,3.314,0,0,1-.457-1.872c-.266-7.125-1.127-18.089-1.4-25.225-2.435,26.895-2.425,62.244.957,91.605Q274.753,248.088,275.705,254.016Z" transform="translate(-216.766 -119.421)" fill="#ffaf6d"/>
              <path id="패스_7351" data-name="패스 7351" d="M301.961,251.815a11.455,11.455,0,0,0-3.18,5.168,8.932,8.932,0,0,0,.234,7.029c1.148,12.176-.032,17.313,2.063,19.674,3.414,3.85,12.825,4.626,21.673,4.211,7.763-.351,15.09-1.616,17.536-2.51a9.513,9.513,0,0,0,5.041-3.477,10.811,10.811,0,0,0,1.266-4.881c.564-6.4-.9-15.335-1.191-16.973a7.305,7.305,0,0,0,.925-3.977,9.179,9.179,0,0,0-3.871-6.615,12.043,12.043,0,0,0-1.936-1.18c6.285-.5,15.133-4.35,16.877-4.828.117-.032.234.106.351.4.9,2.169,1.946,12.868,4.307,27.416,1.287,8,3.3,19.908,7.455,26.852,3.212,5.36,16.2,10.762,19.918,12.368.276.117.585.808.915,2v.011c3.19,11.464,8.763,69.188,12.389,115.118-12.187,5.977-42.24,4.988-58.117,1.829a3.982,3.982,0,0,1-2.542-1.2,4.065,4.065,0,0,1-.564-2.393q-.239-10.608-.479-21.227c-11.294.84-21.375.521-32.7.213q-.654,13-1.308,26.012a1.994,1.994,0,0,1-2.35,2.276c-19.4,1.319-43.176,1.978-58.83-2.265,2.712-39.05,2.286-90.361,4.849-106.685.032-.011.053-.032.085-.043,4.988-2.51,16.856-10.762,22.577-24.172,7.157-16.792,9.411-39.656,8.593-51.12q-.032-.383-.064-.734c-.043-.51,14.154,3.339,19.961,3.563Z" transform="translate(-216.202 -111.551)" fill="#f27979"/>
              <path id="패스_7352" data-name="패스 7352" d="M303.588,254.8c-11.315-1.457-21.269-5.551-31.606-14.793-3.382-29.362-3.392-64.711-.957-91.605.277,7.136,1.138,18.1,1.4,25.225a3.314,3.314,0,0,0,.457,1.872,3.152,3.152,0,0,0,2.212.936,36.252,36.252,0,0,0,7.891.117,2.242,2.242,0,0,0,1.51-.532,2.413,2.413,0,0,0,.468-1.563q.734-12.379,1.457-24.757,1.085,12.2,2.191,24.417a2.368,2.368,0,0,0,.457,1.446,2.324,2.324,0,0,0,1.51.574,58.581,58.581,0,0,0,16.973-.372,1.805,1.805,0,0,0,1.829-1.957c1.255-9.05.011-18.249-1.234-27.3,4.785,7.912,4.477,17.749,6.136,26.852a1.789,1.789,0,0,0,2,1.872,81.8,81.8,0,0,0,19.865-1.127,1.359,1.359,0,0,0,.893-.415,1.376,1.376,0,0,0,.138-.947L334.854,150.6a106.642,106.642,0,0,1,5.094,23.013,117.669,117.669,0,0,0,15.962-.425q-.032,6.668-.085,13.314a16.912,16.912,0,0,0,.287,4.02,20.172,20.172,0,0,0,2.265,4.977,37.72,37.72,0,0,1,3.86,9.688c2.8,12.091-2.669,24.948-11.3,33.871a54.47,54.47,0,0,1-41.315,16.271C307.555,255.222,305.556,255.052,303.588,254.8Z" transform="translate(-214.713 -117.702)" fill="#f9cbb2"/>
              <path id="패스_7353" data-name="패스 7353" d="M335.974,248.088a12.035,12.035,0,0,1,1.935,1.18,9.179,9.179,0,0,1,3.871,6.615,7.305,7.305,0,0,1-.925,3.977,8.553,8.553,0,0,1-5.679,4.318,15.283,15.283,0,0,1-7.721-.872,28.615,28.615,0,0,1-6.615-2.946,16.67,16.67,0,0,1-3.105-2.5l-.213-1.723A30.085,30.085,0,0,0,329.87,252.1c.255-.16-.308-3.116-.755-5.551A15.025,15.025,0,0,1,335.974,248.088Z" transform="translate(-211.654 -111.355)" fill="#ffb6c1"/>
              <path id="패스_7354" data-name="패스 7354" d="M301.827,249.436c-.138,1.372-.3,2.786-.277,3.594,2.839,2.584,10.071,3.818,17.4,2.924l.213,1.723a32.552,32.552,0,0,1-4.264,4.381,22.058,22.058,0,0,1-3.743,2.574,16.391,16.391,0,0,1-10.294,1.978,8.269,8.269,0,0,1-3.456-1.3,5.162,5.162,0,0,1-1.51-1.68,8.932,8.932,0,0,1-.234-7.029,11.454,11.454,0,0,1,3.18-5.168A13.272,13.272,0,0,1,301.827,249.436Z" transform="translate(-213.079 -111.172)" fill="#ffb6c1"/>
              <path id="패스_7355" data-name="패스 7355" d="M321.088,259.685c.266,8.135.479,12.91.468,21.056,0,1.138-.074,2.446-.968,3.158a3.345,3.345,0,0,1-1.755.574c-.17.021-.34.021-.51.032a10.694,10.694,0,0,1-2.255-.117,2.507,2.507,0,0,1-1.531-.681,2.716,2.716,0,0,1-.468-1.787c-.245-7.88-.617-12.474-.351-20.354a32.569,32.569,0,0,0,4.264-4.381A16.667,16.667,0,0,0,321.088,259.685Z" transform="translate(-211.901 -110.68)" fill="#f495a3"/>
              <path id="패스_7356" data-name="패스 7356" d="M319.579,286.765c-8.848.415-18.259-.362-21.673-4.211-2.095-2.361-.915-7.5-2.063-19.674a5.161,5.161,0,0,0,1.51,1.68,8.269,8.269,0,0,0,3.456,1.3A16.392,16.392,0,0,0,311.1,263.88a22.057,22.057,0,0,0,3.743-2.574c-.266,7.88.106,12.474.351,20.354a2.716,2.716,0,0,0,.468,1.787,2.507,2.507,0,0,0,1.531.681,10.7,10.7,0,0,0,2.254.117Z" transform="translate(-213.029 -110.419)" fill="#ffa5af"/>
              <path id="패스_7357" data-name="패스 7357" d="M318.553,284.355a3.346,3.346,0,0,0,1.755-.574c.893-.712.968-2.021.968-3.158.011-8.146-.2-12.921-.468-21.056a28.614,28.614,0,0,0,6.615,2.946,15.283,15.283,0,0,0,7.721.872,8.553,8.553,0,0,0,5.679-4.318c.287,1.638,1.755,10.571,1.191,16.973a10.814,10.814,0,0,1-1.266,4.881,9.513,9.513,0,0,1-5.041,3.477c-2.446.893-9.773,2.159-17.536,2.51l-.128-2.52C318.213,284.376,318.383,284.376,318.553,284.355Z" transform="translate(-211.621 -110.561)" fill="#ffa5af"/>
              <path id="패스_7358" data-name="패스 7358" d="M380.722,214.646c29.745,5.285,43.229,32.669,42.463,34.562C417.8,262.438,403,281.155,382.37,299.5c-.245,3.158.766,8.933,1.3,14.824-.33-1.191-.638-1.882-.915-2-3.722-1.606-16.707-7.008-19.918-12.368-4.158-6.944-6.168-18.855-7.455-26.852-2.361-14.548-3.4-25.246-4.307-27.416l.223-.1c6.891-5.86,18.238-20.322,24.768-27.2C378.329,216,380.009,214.519,380.722,214.646Z" transform="translate(-209.525 -113.38)" fill="#ffa5af"/>
              <path id="패스_7359" data-name="패스 7359" d="M283.716,249.429c.819,11.464-1.436,34.328-8.593,51.12-5.721,13.41-17.589,21.662-22.577,24.172q-.08-4.674-.17-9.348a7.493,7.493,0,0,0-.479-3.073,7.771,7.771,0,0,0-2.776-2.8A231.219,231.219,0,0,1,219.3,284.182a4.11,4.11,0,0,1-1.266-1.85,4.173,4.173,0,0,1,.606-2.744c8.029-16.462,19.461-30.968,30.872-45.292.436.3.883.585,1.319.872a180.457,180.457,0,0,0,26.512,14.218c-.149-.872-.3-1.765-.436-2.659A35.858,35.858,0,0,0,283.716,249.429Z" transform="translate(-217.97 -112.132)" fill="#ffa5af"/>
              <path id="패스_7360" data-name="패스 7360" d="M301.44,249.7c.053-.393.1-.8.128-1.17,1.967.255,3.967.425,6.03.532a53.623,53.623,0,0,0,22.332-3.712c.064.394.149.83.223,1.276.447,2.435,1.01,5.392.755,5.551a30.084,30.084,0,0,1-12.347,4.041c-7.327.893-14.559-.34-17.4-2.924C301.142,252.482,301.3,251.067,301.44,249.7Z" transform="translate(-212.692 -111.431)" fill="#f9cbb2"/>
              <path id="패스_7361" data-name="패스 7361" d="M301.421,249.611a33.665,33.665,0,0,0-.257,3.408c2.839,2.584,10.071,3.818,17.4,2.924a30.085,30.085,0,0,0,12.347-4.041,5.277,5.277,0,0,0-.147-2.123A75.513,75.513,0,0,1,301.421,249.611Z" transform="translate(-212.692 -111.161)" fill="#f9cbb2"/>
              <path id="패스_7362" data-name="패스 7362" d="M330.746,250.051c-.165-1.029-.4-2.285-.608-3.428-.074-.447-.16-.883-.223-1.276a53.623,53.623,0,0,1-22.332,3.712c-2.063-.106-4.062-.276-6.03-.532-.032.372-.075.776-.128,1.17l-.019.186A75.512,75.512,0,0,0,330.746,250.051Z" transform="translate(-212.677 -111.431)" fill="#8a4a85" opacity="0.21" style="mix-blend-mode: multiply;isolation: isolate"/>
            </g>
            <path id="패스_7363" data-name="패스 7363" d="M271.452,148.347c-2.177,33.248-1.879,66.753,2.13,99.852l.928,6.6a.38.38,0,0,1-.75.129l-1.13-6.594c-3.726-24.249-4.527-48.882-3.775-73.378.311-8.912.906-17.812,1.839-26.68a.381.381,0,0,1,.758.069Z" transform="translate(-170.332 -115.774)" fill="#b27a4f"/>
            <path id="패스_7364" data-name="패스 7364" d="M285.894,149.541a122.39,122.39,0,0,1-.357,19.282,41.276,41.276,0,0,1-1.2,6.366.382.382,0,0,1-.744-.152c.252-2.11.434-4.22.559-6.338.206-3.681.374-9.028.526-12.768.105-2.136.215-4.277.459-6.416a.383.383,0,0,1,.76.026Z" transform="translate(-169.381 -115.695)" fill="#b27a4f"/>
            <path id="패스_7365" data-name="패스 7365" d="M306.23,146.473c1.829,9.456,3.036,19.441.657,28.907a.382.382,0,0,1-.745-.152c1.252-9.537.014-19.113-.665-28.65a.382.382,0,0,1,.753-.1Z" transform="translate(-167.992 -115.886)" fill="#b27a4f"/>
            <path id="패스_7366" data-name="패스 7366" d="M329.752,146.393c3.5,8.585,4.273,18.127,3.885,27.316a.383.383,0,0,1-.761,0c-.723-9.077-1.476-18.231-3.836-27.049a.382.382,0,0,1,.712-.267Z" transform="translate(-166.498 -115.886)" fill="#b27a4f"/>
            <path id="패스_7367" data-name="패스 7367" d="M330.839,130.054c15.519,2.069,25.262,14.295,27.889,29.165.783,4.792,1.38,9.619.407,14.453a.68.68,0,0,1-.563.5,110.8,110.8,0,0,1-22.523.862.381.381,0,0,1,.032-.76c3.728.084,7.456-.027,11.168-.285q5.57-.364,11.082-1.254l-.586.5c1.659-13.078-3.162-29.254-14.261-37.1a33.168,33.168,0,0,0-12.775-5.328.381.381,0,0,1,.129-.751Z" transform="translate(-166.41 -116.909)" fill="#b27a4f"/>
            <path id="패스_7368" data-name="패스 7368" d="M316.941,255.551" transform="translate(-167.264 -108.947)" fill="none" stroke="#000" stroke-linecap="round" stroke-linejoin="round" stroke-width="1"/>
            <path id="패스_7369" data-name="패스 7369" d="M320.165,195.786a5.606,5.606,0,0,0-3.526-3.131,7.837,7.837,0,0,0-4.79.138,5.815,5.815,0,0,0-3.987,4.23c-.321,1.794.33,2.832,1.709,4.023a6.984,6.984,0,0,0,5.113,1.488,6.725,6.725,0,0,0,4.409-1.96A4.669,4.669,0,0,0,320.165,195.786Z" transform="translate(-167.846 -112.957)" fill="#e5919a" opacity="0.59" style="mix-blend-mode: multiply;isolation: isolate"/>
            <path id="패스_7370" data-name="패스 7370" d="M314.351,192.022c6.436-1.052,9.2,8.812,2.693,10.51a.384.384,0,0,1-.2-.734c4.327-2.263,2.216-8.709-2.458-9.017a.384.384,0,0,1-.036-.759Z" transform="translate(-167.448 -112.982)" fill="#a46d5c"/>
            <path id="패스_7371" data-name="패스 7371" d="M310.738,201.265a2.045,2.045,0,0,0-.825-1.249,1.119,1.119,0,0,0-.619-.227.432.432,0,0,0-.258.07.387.387,0,0,0-.133.189.9.9,0,0,0,.245.834,2.294,2.294,0,0,0,.681.556,1.015,1.015,0,0,0,.439.139A.506.506,0,0,0,310.738,201.265Z" transform="translate(-167.776 -112.484)" fill="#512f2b"/>
            <path id="패스_7372" data-name="패스 7372" d="M298.268,207.486c7.2,7.8,20.243,8.714,28.469,2.015a18.343,18.343,0,0,0,3.184-3.179.51.51,0,0,1,.844.562c-5.941,10.175-21.074,12.15-29.984,4.767a17.162,17.162,0,0,1-3.306-3.534.509.509,0,0,1,.793-.632Z" transform="translate(-168.505 -112.082)" fill="#331f10"/>
            <g id="그룹_929" data-name="그룹 929" transform="translate(161.562 68.957)">
              <path id="패스_7373" data-name="패스 7373" d="M328.188,192.671c-.237-3.045,1.776-5.684,4.5-5.9s5.116,2.086,5.353,5.131-1.777,5.684-4.5,5.895S328.424,195.715,328.188,192.671Z" transform="translate(-328.114 -182.268)" fill="#231409"/>
              <path id="패스_7374" data-name="패스 7374" d="M339.614,183.343a3.609,3.609,0,0,1-1.672,2.5,4.75,4.75,0,0,1-3.021.6c-3.208-.443-4.2,2.6-4.732,4.033a7.572,7.572,0,0,1-2.012,2.122,8.8,8.8,0,0,1,2.364-7.071c2.163-1.93,4.691-1,6.17-1.317a3.432,3.432,0,0,0,1.981-1.313c.181-.17.312-.422.549-.348A.634.634,0,0,1,339.614,183.343Z" transform="translate(-328.117 -182.536)" fill="#231409"/>
            </g>
            <g id="그룹_930" data-name="그룹 930" transform="translate(117.144 72.594)">
              <ellipse id="타원_240" data-name="타원 240" cx="4.94" cy="5.53" rx="4.94" ry="5.53" transform="translate(0 4.889) rotate(-4.441)" fill="#231409"/>
              <path id="패스_7375" data-name="패스 7375" d="M298.18,186.763a3.612,3.612,0,0,1-1.673,2.5,4.74,4.74,0,0,1-3.021.6c-3.208-.442-4.2,2.6-4.732,4.034a7.548,7.548,0,0,1-2.011,2.121,8.8,8.8,0,0,1,2.364-7.071c2.162-1.929,4.691-1,6.17-1.315a3.432,3.432,0,0,0,1.981-1.313c.18-.171.312-.422.549-.348A.635.635,0,0,1,298.18,186.763Z" transform="translate(-286.328 -185.956)" fill="#231409"/>
            </g>
            <path id="패스_7376" data-name="패스 7376" d="M296.7,178.674a3.55,3.55,0,0,0-3.388-1.586,7.973,7.973,0,0,0-5.715,2.677,3.488,3.488,0,0,0-1,3.209,2.242,2.242,0,0,0,2.159,1.511,6.74,6.74,0,0,0,2.531-1.032c1.185-.574,2.53-.767,3.7-1.373S297.4,180.121,296.7,178.674Z" transform="translate(-169.197 -113.925)" fill="#8f6b49"/>
            <path id="패스_7377" data-name="패스 7377" d="M330.922,175.96a3.553,3.553,0,0,1,3.323-1.72,7.97,7.97,0,0,1,5.817,2.446,3.488,3.488,0,0,1,1.133,3.167,2.244,2.244,0,0,1-2.1,1.6,6.738,6.738,0,0,1-2.57-.929c-1.207-.526-2.56-.665-3.752-1.223S330.279,177.435,330.922,175.96Z" transform="translate(-166.388 -114.106)" fill="#8f6b49"/>
            <ellipse id="타원_241" data-name="타원 241" cx="1.991" cy="1.991" rx="1.991" ry="1.991" transform="translate(148.263 154.301)" fill="#d87783"/>
            <path id="패스_7378" data-name="패스 7378" d="M315.612,271.612A1.991,1.991,0,1,1,317.6,273.6,1.991,1.991,0,0,1,315.612,271.612Z" transform="translate(-167.349 -108.054)" fill="#d87783"/>
            <ellipse id="타원_242" data-name="타원 242" cx="1.991" cy="1.991" rx="1.991" ry="1.991" transform="translate(148.263 168.834)" fill="#d87783"/>
            <path id="패스_7379" data-name="패스 7379" d="M346.493,291.231c-13.2,2.332-35.738,2.538-50.967,1.343-1.3,6.323-4.65,20.685,5.29,32.036,9.035,10.318,24.105,9.775,31.149,6.363,6.53-3.164,11.779-8.322,13.947-15.139A43.1,43.1,0,0,0,346.493,291.231Z" transform="translate(-168.725 -106.683)" fill="#e26464"/>
            <path id="패스_7380" data-name="패스 7380" d="M274.884,128.249a40.341,40.341,0,0,0-3.561-4.414c-.926-.994-2.424-2-3.509-1.18a1.92,1.92,0,0,0-.382,2.347,4.455,4.455,0,0,0,1.866,1.729A10.127,10.127,0,0,0,274.884,128.249Z" transform="translate(-170.42 -117.398)" fill="#ffaf6d"/>
            <path id="패스_7381" data-name="패스 7381" d="M277.212,128.559a15.3,15.3,0,0,1-2.694-6.737,5.3,5.3,0,0,1,.119-2.512,2.342,2.342,0,0,1,1.8-1.6c1.591-.19,2.612,1.673,2.864,3.254C279.77,123.9,279.2,126.99,277.212,128.559Z" transform="translate(-169.962 -117.693)" fill="#ffaf6d"/>
            <path id="패스_7382" data-name="패스 7382" d="M318.883,322.241a53.75,53.75,0,0,1-.269-7.815c.061-1.1.035-2.209.074-3.312-.028-.452.174-.936.032-1.368a.672.672,0,0,0-1.287.259,41.86,41.86,0,0,0-.059,6.624c.03,2.108.264,5.578.8,6.519a.425.425,0,0,0,.659-.085C318.94,322.872,318.876,322.649,318.883,322.241Z" transform="translate(-167.244 -105.533)" fill="#527747"/>
            <g id="그룹_931" data-name="그룹 931" transform="translate(144.127 191.998)">
              <path id="패스_7383" data-name="패스 7383" d="M326.675,304.205a2.312,2.312,0,0,0-2.91-1.8,5.192,5.192,0,0,0-1.427.638,3.836,3.836,0,0,0-1.344-4.382,2.755,2.755,0,0,0-3.783.893,5.119,5.119,0,0,0-.806,3.285,5.206,5.206,0,0,0-1.957-.407,2.735,2.735,0,0,0-1.589.6,1.8,1.8,0,0,0-1.034,2.284c.019.049.044.095.065.143a2.326,2.326,0,0,0,.249.662,3.93,3.93,0,0,0,1.736,1.731,4.086,4.086,0,0,0-1.636,1.651,2.5,2.5,0,0,0,2.133,3.708,4.525,4.525,0,0,0,3.378-1.513c.179-.183.359-.372.537-.568a4.236,4.236,0,0,0,2.622,3.024,2.4,2.4,0,0,0,2.685-.541,1.588,1.588,0,0,0,1-1.139,2,2,0,0,0,.067-.526,3.614,3.614,0,0,0-.607-2.981,5.32,5.32,0,0,0-.333-.558,5.508,5.508,0,0,0,1.113-.842C326.052,306.742,326.952,305.6,326.675,304.205Z" transform="translate(-311.723 -298.236)" fill="#fff"/>
              <path id="패스_7384" data-name="패스 7384" d="M320.772,304.829a2.349,2.349,0,0,0-2.916-.268,1.936,1.936,0,0,0-.333.253,2.089,2.089,0,0,0-.362,3.118,2.014,2.014,0,0,0,1.056.769,1.956,1.956,0,0,0,.383.052,2.3,2.3,0,0,0,2.529-1.844A2.378,2.378,0,0,0,320.772,304.829Z" transform="translate(-311.412 -297.86)" fill="#f5e687"/>
            </g>
            <path id="패스_7385" data-name="패스 7385" d="M318.953,321.627l-.029-.038a.665.665,0,0,0,.005-.1,11.3,11.3,0,0,0-3.166-5.227,5.421,5.421,0,0,0-3.474-1.8,1.2,1.2,0,0,0-1.2,1.5,2.171,2.171,0,0,0,.126.627c1.054,2.243,3.534,3.819,5.817,5.322a3.621,3.621,0,0,0,1.673.737C319.227,322.563,319.225,321.972,318.953,321.627Z" transform="translate(-167.637 -105.209)" fill="#527747"/>
            <path id="패스_7386" data-name="패스 7386" d="M325.411,314.757c-.836-1.044-2.245-.211-3.006.508a15.057,15.057,0,0,0-3.232,4.33c-.178.352-.334.715-.477,1.083-.616.933-1.122,2-.028,2.177a5.365,5.365,0,0,0,1.837-1.027,21.642,21.642,0,0,0,3.836-3.28C325.2,317.54,326.218,316.077,325.411,314.757Z" transform="translate(-167.196 -105.221)" fill="#527747"/>
            <path id="패스_7387" data-name="패스 7387" d="M427.721,167.364a11.79,11.79,0,0,1,6.041.807,12,12,0,0,1,4.956,3.549.522.522,0,0,1-.643.784,52.129,52.129,0,0,0-10.422-4.127.522.522,0,0,1,.068-1.012Z" transform="translate(-160.263 -114.549)" fill="#e5b798"/>
            <path id="패스_7388" data-name="패스 7388" d="M295.954,218.6a16.96,16.96,0,0,1-17.1,16.813,17.187,17.187,0,0,1-7.178-1.553c-1.01-9.4-1.691-19.365-2.052-29.415a17.229,17.229,0,0,1,9.231-2.659A16.96,16.96,0,0,1,295.954,218.6Z" transform="translate(-170.267 -112.358)" fill="#d67188" opacity="0.4" style="mix-blend-mode: multiply;isolation: isolate"/>
            <path id="패스_7389" data-name="패스 7389" d="M351.738,230.085a17.324,17.324,0,0,1-3.084.277,16.81,16.81,0,1,1,0-33.616,17.277,17.277,0,0,1,8.837,2.414q.463,1.4.8,2.839C360.522,211.677,357.47,221.843,351.738,230.085Z" transform="translate(-166.338 -112.678)" fill="#d67188" opacity="0.4" style="mix-blend-mode: multiply;isolation: isolate"/>
          </g>
          <g id="그룹_937" data-name="그룹 937" transform="translate(21.683 56.683)">
            <path id="패스_7390" data-name="패스 7390" d="M138.182,186.931c.946.128,1.882.266,2.829.415a25.508,25.508,0,0,0-1.3,2.488l-.1-.043a3.2,3.2,0,0,1-2.34-2.712c0-1.34,10.656-26.086,41.2-31.712,19.812-3.658,32.861,1.563,44.633,10.794,11.241,8.795,22.226,29.883,22.056,42.963-1.68-.627-3.265-1.18-4.7-1.68A393.827,393.827,0,0,0,138.182,186.931Z" transform="translate(-50.542 -154.191)" fill="#3979b8"/>
            <path id="패스_7391" data-name="패스 7391" d="M170.675,183.324c1.361-5.564,4.586-10.917,9.643-13.606s12.044-2.033,15.689,2.385a14.112,14.112,0,0,1,2.885,7.727,41.36,41.36,0,0,1-.358,8.35,1.656,1.656,0,0,1-2.28,1.77,173.477,173.477,0,0,1-20.029-3.742C174.037,185.665,171.671,184.951,170.675,183.324Z" transform="translate(-48.423 -153.307)" fill="#1f3862"/>
            <path id="패스_7392" data-name="패스 7392" d="M197.443,178.509c-2.184-3.066-9.061-3.856-12.022-6.568-.635-.581-1.775-1.037-3.776-4.88-.656-1.26-.571-2.809-1.2-4.079s-2.017-2.352-3.393-2a3.558,3.558,0,0,0-2.024,1.83,9.343,9.343,0,0,0-.748,7.475,6.5,6.5,0,0,0-2.1-2.443,2.239,2.239,0,0,0-2.926.423,2.953,2.953,0,0,0-.345,1.709,14.984,14.984,0,0,0,1.4,5.978,3.86,3.86,0,0,0-2.467-1.186,2.34,2.34,0,0,0-2.262,1.336,3.46,3.46,0,0,0,.82,3.144c2.491,3.464,3.871,5.313,9.49,7.243,6.92,2.377,20.766,4.885,22.4,3.664C198.757,189.8,201.09,183.631,197.443,178.509Z" transform="translate(-48.756 -153.765)" fill="#633d24"/>
            <path id="패스_7393" data-name="패스 7393" d="M141.184,185.394a25.229,25.229,0,0,0-3.9-.415,2.5,2.5,0,0,0,1.043,2.143,2.4,2.4,0,0,0,2.165.81Z" transform="translate(-50.543 -152.239)" fill="#1d2c4d"/>
            <path id="패스_7394" data-name="패스 7394" d="M274.051,238.852a4.429,4.429,0,0,1-.713.351,12.263,12.263,0,0,1-5.02.521,134.465,134.465,0,0,1-34.041-5.753c1.882-6.689,4.53-18.738,3.743-23.842a158.272,158.272,0,0,1,26.15,12.145c4.413,2.659,8.773,5.785,11.3,10.262a5.661,5.661,0,0,1,.9,2.935A4.276,4.276,0,0,1,274.051,238.852Z" transform="translate(-44.388 -150.642)" fill="#1d2c4d"/>
            <path id="패스_7395" data-name="패스 7395" d="M245.251,241.656c12.634,7.593,6.274,21.375.479,26.491-10.826,9.582-21.737,3.2-22.864.585-3,3.818-14.984,15.3-34.243,19.206a66.274,66.274,0,0,1-13.3,1.329,47.773,47.773,0,0,1-13.612-2.308c-16.207-4.966-35.37-18-40.028-39.05-1.276-5.732-.234-12.283,3.765-16.579.755-.808,3.616-5.253,4.211-6.189a11.1,11.1,0,0,0,1.223-3.233c3.212-12.091,6.253-26.267,9.858-34.052a25.5,25.5,0,0,1,1.3-2.488,512.074,512.074,0,0,1,87.447,20.8c-6.466,13.155-4.7,27.884,1.276,38.646a11.753,11.753,0,0,1,9.146-4.658A10.185,10.185,0,0,1,245.251,241.656Z" transform="translate(-51.564 -152.213)" fill="#ffe1d9"/>
            <path id="패스_7396" data-name="패스 7396" d="M235.237,234.3a27.043,27.043,0,0,1-1.553,4.594v.021a11.753,11.753,0,0,0-9.146,4.658c-5.977-10.762-7.742-25.491-1.276-38.646q4.977,1.659,9.911,3.414,2.919,1.037,5.806,2.116C239.767,215.562,237.119,227.611,235.237,234.3Z" transform="translate(-45.347 -150.972)" fill="#633d24"/>
            <path id="패스_7397" data-name="패스 7397" d="M240.887,385.749c.4,1.606.819,3.137,1.223,4.583-41.74,5.87-113.2,3.361-128.922-3.36.638-5.881,1.5-11.964,2.584-18.164A633.042,633.042,0,0,0,237.133,370.2C238.43,375.827,239.675,381.091,240.887,385.749Z" transform="translate(-52.071 -140.574)" fill="#2ca0d9"/>
            <path id="패스_7398" data-name="패스 7398" d="M235.692,364.866c.436,1.9.861,3.765,1.287,5.6a633.042,633.042,0,0,1-121.361-1.393c.266-1.5.542-3.01.829-4.52C153.647,368.163,193.718,367.323,235.692,364.866Z" transform="translate(-51.916 -140.844)" fill="#3b6daf"/>
            <path id="패스_7399" data-name="패스 7399" d="M232.293,352.237c1.159,4.934,2.276,9.826,3.35,14.537-41.974,2.457-82.045,3.3-119.244-.308,1.882-9.922,4.286-20.12,7.168-30.319a586.846,586.846,0,0,1,105.164,1.542C229.964,342.485,231.144,347.387,232.293,352.237Z" transform="translate(-51.867 -142.751)" fill="#f7c147"/>
            <path id="패스_7400" data-name="패스 7400" d="M228.728,366.58c-1.074-4.711-2.191-9.6-3.35-14.537l.245-.053c10.72-3.222,18.472-7.859,23.991-14.442a277.829,277.829,0,0,1,14.9,43.527c-4.849,4.158-16.558,9.039-30.744,6.657-1.212-4.658-2.457-9.922-3.754-15.548C229.589,370.345,229.164,368.484,228.728,366.58Z" transform="translate(-44.952 -142.558)" fill="#ffe1d9"/>
            <path id="패스_7401" data-name="패스 7401" d="M227.143,333.6c.393,1.457.776,2.914,1.159,4.392a586.838,586.838,0,0,0-105.164-1.542q.782-2.791,1.616-5.583A585.989,585.989,0,0,1,227.143,333.6Z" transform="translate(-51.439 -143.05)" fill="#3979b8"/>
            <path id="패스_7402" data-name="패스 7402" d="M106.332,271.818a85.662,85.662,0,0,1,9.273-11.39A206.91,206.91,0,0,0,163.3,284.5h.011c-.245,1.755-.479,3.563-.691,5.488a22.449,22.449,0,0,0,23.332,5.934,7.114,7.114,0,0,0,4.158-2.988,9.135,9.135,0,0,0,.659-4.828c-.021-.585-.053-1.17-.074-1.755l.117-.011c13-2.4,27.83,2.042,39.443,8.731a108.094,108.094,0,0,1,14.3,10.464c6.742,5.53,13.038,16.7,19.78,22.226a2.673,2.673,0,0,1,.915,1.1,2.612,2.612,0,0,1-.234,1.733,41.976,41.976,0,0,1-6.87,11.847c-5.519,6.583-13.272,11.219-23.991,14.442l-.245.053c-1.149-4.849-2.329-9.752-3.563-14.548-.383-1.478-.766-2.935-1.159-4.392A585.994,585.994,0,0,0,126.8,335.263q.877-2.919,1.808-5.838c-10.039-3.063-27.937-12.527-35.785-19.493a5.573,5.573,0,0,1-1.861-2.446,4.237,4.237,0,0,1,.011-2c.074-.362.181-.723.277-1.074A115.44,115.44,0,0,1,106.332,271.818Z" transform="translate(-53.488 -147.451)" fill="#2ca0d9"/>
            <path id="패스_7403" data-name="패스 7403" d="M186.487,286.811a9.134,9.134,0,0,1-.659,4.828,7.114,7.114,0,0,1-4.158,2.988,22.449,22.449,0,0,1-23.332-5.934c.213-1.925.447-3.733.691-5.488.1-.776.213-1.542.319-2.3V280.9a47.77,47.77,0,0,0,13.612,2.308,66.274,66.274,0,0,0,13.3-1.329c.053,1.064.1,2.116.149,3.18C186.434,285.641,186.466,286.226,186.487,286.811Z" transform="translate(-49.206 -146.152)" fill="#ffe1d9"/>
            <path id="패스_7404" data-name="패스 7404" d="M186.261,282.443c-.008-.189-.017-.378-.027-.567a66.274,66.274,0,0,1-13.3,1.329,47.769,47.769,0,0,1-13.612-2.308v.011c-.106.755-.223,1.521-.319,2.3-.068.49-.133,1-.2,1.5C168.409,286.3,177.955,286.327,186.261,282.443Z" transform="translate(-49.177 -146.152)" fill="#8a4a85" opacity="0.21" style="mix-blend-mode: multiply;isolation: isolate"/>
            <path id="패스_7405" data-name="패스 7405" d="M228.4,206.194a512.072,512.072,0,0,0-87.447-20.8c-.947-.149-1.882-.287-2.829-.415a393.827,393.827,0,0,1,102.283,20.514c1.436.5,3.02,1.053,4.7,1.68,14.878,5.509,37.72,15.867,38.156,27.267.085,2.414-1.042,5.1-3.116,6.008a4.276,4.276,0,0,0,2.329-3.382,5.66,5.66,0,0,0-.9-2.935c-2.531-4.477-6.891-7.6-11.3-10.262a158.271,158.271,0,0,0-26.15-12.145q-2.887-1.085-5.806-2.116Q233.386,207.853,228.4,206.194Z" transform="translate(-50.488 -152.238)" fill="#1f3862"/>
            <path id="패스_7406" data-name="패스 7406" d="M120.27,182.862a4.029,4.029,0,0,1,.766,6.072c-5.073,6.6-8.625,7.529-14.59,17.738a15.873,15.873,0,0,0-6.359-5.636,10.214,10.214,0,0,0-4.328-1.117l.085-2.871c5.519-4.53,8.072-6.721,14.357-11.879a14.2,14.2,0,0,1,4.754-2.669A6.785,6.785,0,0,1,120.27,182.862Z" transform="translate(-53.176 -152.419)" fill="#ffe1d9"/>
            <path id="패스_7407" data-name="패스 7407" d="M94.662,200.647a4.694,4.694,0,0,1,1.053-.744,5.617,5.617,0,0,1,2.584-.6,10.214,10.214,0,0,1,4.328,1.117,15.872,15.872,0,0,1,6.359,5.636A12,12,0,0,1,110.9,214.9c-.681,3.424-2.967,6.317-5.519,8.688s-5.466,4.381-7.912,6.88a27.74,27.74,0,0,0-6.083,28.288c3.222,8.795,9.007,14.016,17.175,17.419a115.443,115.443,0,0,0-15.08,32.595c-.1.351-.2.713-.276,1.074-8.731-4.488-19.7-11.294-25.7-18.206a47.629,47.629,0,0,1-11.613-26.788,59.9,59.9,0,0,1,1.01-15.941,92.408,92.408,0,0,1,12.219-31.436,13.224,13.224,0,0,1-.766-10.709,24.914,24.914,0,0,1,5.955-9.209c2.85-2.978,6.434-5.7,10.56-5.775a6.513,6.513,0,0,1,2.818.67A14.5,14.5,0,0,1,94.662,200.647Z" transform="translate(-55.717 -151.806)" fill="#ffe1d9"/>
            <path id="패스_7408" data-name="패스 7408" d="M106.281,175.074c1.957.415,3.637,3.148,1.1,7.231-2.276,3.669-7.008,8.944-10.9,15.2l-.085,2.871a5.618,5.618,0,0,0-2.584.6,4.7,4.7,0,0,0-1.053.744,14.5,14.5,0,0,0-6.976-8.2l.117-.255C89.436,186.867,99.975,173.744,106.281,175.074Z" transform="translate(-53.81 -152.872)" fill="#ffe1d9"/>
            <g id="그룹_933" data-name="그룹 933" transform="translate(60.612 156.299)">
              <path id="패스_7409" data-name="패스 7409" d="M136.67,301.846c-10.6,28.959-18.751,58.892-22.948,89.472a.507.507,0,0,1-1.008-.109c1.939-23.183,7.347-46,14.7-68.036,2.5-7.335,5.222-14.6,8.311-21.7a.508.508,0,0,1,.942.376Z" transform="translate(-112.713 -301.165)" fill="#115b7b"/>
              <path id="패스_7410" data-name="패스 7410" d="M215.635,314.255c8.582,22.261,12.881,46.261,18.273,69.433l1.083,5.009,1.169,4.981a.507.507,0,0,1-.976.272c-2.048-6.551-3.6-13.209-5.341-19.834-2.329-9.6-4.771-20.262-7.116-29.908-1.53-6.445-3.3-13.468-5.109-19.815-.9-3.288-1.9-6.546-2.937-9.792a.507.507,0,0,1,.954-.345Z" transform="translate(-106.245 -300.355)" fill="#115b7b"/>
            </g>
            <path id="패스_7411" data-name="패스 7411" d="M225.2,253.483a12.486,12.486,0,0,1,5.6-6.542c2.712-1.388,6.546-1.268,8.567,1.218a.515.515,0,0,1-.692.741,7.065,7.065,0,0,0-6.91-.067c-2.191,1.106-3.922,3.105-5.7,5.178a.516.516,0,0,1-.867-.528Z" transform="translate(-44.966 -148.363)" fill="#af7371"/>
            <ellipse id="타원_243" data-name="타원 243" cx="13.713" cy="13.418" rx="13.713" ry="13.418" transform="translate(144.17 115.735) rotate(-86.512)" fill="#d67188" opacity="0.4" style="mix-blend-mode: multiply;isolation: isolate"/>
            <path id="패스_7412" data-name="패스 7412" d="M160.273,201.4a3.473,3.473,0,0,0-1.9-1.784c-2.981-1.39-6.538-.7-9.538.651a6.314,6.314,0,0,0-2.69,1.932,2.612,2.612,0,0,0-.065,3.112c.8.938,2.239.908,3.469.794a46.672,46.672,0,0,0,7.7-1.168,5.737,5.737,0,0,0,2.315-1.049A2.2,2.2,0,0,0,160.273,201.4Z" transform="translate(-50.014 -151.357)" fill="#633d24"/>
            <path id="패스_7413" data-name="패스 7413" d="M200.705,212.81a11.239,11.239,0,0,0-6-6.321,6.96,6.96,0,0,0-4.8-.668c-1.587.471-2.9,2.12-2.495,3.706a5.158,5.158,0,0,0,2.511,2.707c1.753,1.141,6.493,4.246,7.066,4.643C198.424,217.88,201.926,216.342,200.705,212.81Z" transform="translate(-47.366 -150.928)" fill="#633d24"/>
            <g id="그룹_934" data-name="그룹 934" transform="translate(135.701 68.092)">
              <path id="패스_7414" data-name="패스 7414" d="M183.367,226.448a4.658,4.658,0,1,1,3.968,5.564A4.84,4.84,0,0,1,183.367,226.448Z" transform="translate(-183.322 -217.979)" fill="#231409"/>
              <path id="패스_7415" data-name="패스 7415" d="M191.832,229.68a9.247,9.247,0,0,0,.076-8.522,5.578,5.578,0,0,0-4.241-2.918c-1.044-.128-1.5.442-1.48.8.033.793.925.417,2.354,1.487.8.6,1.51,1.921,1.094,2.768a32.989,32.989,0,0,1,1.83,4.847C191.518,228.4,191.724,229.856,191.832,229.68Z" transform="translate(-183.14 -218.221)" fill="#231409"/>
            </g>
            <g id="그룹_935" data-name="그룹 935" transform="translate(96.199 61.058)">
              <path id="패스_7416" data-name="패스 7416" d="M146.222,219.832a4.658,4.658,0,1,1,3.968,5.565A4.838,4.838,0,0,1,146.222,219.832Z" transform="translate(-146.177 -211.364)" fill="#231409"/>
              <path id="패스_7417" data-name="패스 7417" d="M154.687,223.066a9.247,9.247,0,0,0,.076-8.522,5.582,5.582,0,0,0-4.241-2.919c-1.044-.127-1.5.443-1.48.8.033.793.925.418,2.354,1.488.8.6,1.509,1.921,1.094,2.768a32.861,32.861,0,0,1,1.829,4.847C154.373,221.785,154.578,223.242,154.687,223.066Z" transform="translate(-145.995 -211.606)" fill="#231409"/>
            </g>
            <path id="패스_7418" data-name="패스 7418" d="M173.4,227.285a4.091,4.091,0,0,0-1.135-3.661,6.418,6.418,0,0,0-3.432-1.8,7.192,7.192,0,0,0-5.128.6,4.427,4.427,0,0,0-2.243,4.423,5.01,5.01,0,0,0,2.431,3.171,6.962,6.962,0,0,0,5.264.9C170.934,230.487,172.68,229.846,173.4,227.285Z" transform="translate(-49.011 -149.913)" fill="#d67188" opacity="0.59" style="mix-blend-mode: multiply;isolation: isolate"/>
            <path id="패스_7419" data-name="패스 7419" d="M164.613,222.315c-1.891,1.087-3.592,3.186-2.465,5.39a5.352,5.352,0,0,0,1.381,1.781.257.257,0,0,1-.271.429c-3.958-2-2.913-6.988,1.146-8.062a.257.257,0,0,1,.208.463Z" transform="translate(-49.052 -149.899)" fill="#9e605a"/>
            <path id="패스_7420" data-name="패스 7420" d="M169.37,230.211a3.017,3.017,0,0,1,1.256-1.453,1.1,1.1,0,0,1,.641-.188.5.5,0,0,1,.463.418.553.553,0,0,1-.073.285,1.8,1.8,0,0,1-.495.566,2.222,2.222,0,0,1-1.2.549A.758.758,0,0,1,169.37,230.211Z" transform="translate(-48.506 -149.472)" fill="#512f2b"/>
            <g id="그룹_936" data-name="그룹 936" transform="translate(93.013 83.248)">
              <path id="패스_7421" data-name="패스 7421" d="M167,251.03a23.607,23.607,0,0,1,13.485,7.178,32.719,32.719,0,0,1-5.849,1.946,30.207,30.207,0,0,1-23.513-4.424A19.522,19.522,0,0,1,167,251.03Z" transform="translate(-142.677 -231.308)" fill="#de9286"/>
              <path id="패스_7422" data-name="패스 7422" d="M179.766,237.158a13.823,13.823,0,0,1,7.487,4.222,14.2,14.2,0,0,1-8.146,5.3,31.73,31.73,0,0,1-11.251.383c-5.764-.6-11.677-1.787-16.345-5.211a9.546,9.546,0,0,1-2.35-2.318,6.487,6.487,0,0,1-.447-6.211,8.53,8.53,0,0,1,6.285-.436c2.808.968,4.807,3.4,7.2,5.147a4.512,4.512,0,0,0,2.021.936,5.358,5.358,0,0,0,2.255-.4C170.758,237.179,175.352,236.254,179.766,237.158Z" transform="translate(-142.867 -232.472)" fill="#fff"/>
              <path id="패스_7423" data-name="패스 7423" d="M189.81,245.476c.808,3.116.17,9.762-8.827,13.846a23.606,23.606,0,0,0-13.485-7.178,19.521,19.521,0,0,0-15.877,4.7,19.75,19.75,0,0,1-8.274-12.4,10.7,10.7,0,0,1,2.882-9.178,9.48,9.48,0,0,1,2.8-2,6.487,6.487,0,0,0,.447,6.211,9.546,9.546,0,0,0,2.35,2.318c4.669,3.424,10.581,4.615,16.345,5.211a31.729,31.729,0,0,0,11.251-.383,14.2,14.2,0,0,0,8.146-5.3A10.12,10.12,0,0,1,189.81,245.476Z" transform="translate(-143.181 -232.422)" fill="#231409"/>
            </g>
            <path id="패스_7424" data-name="패스 7424" d="M68.116,217.706c-3.488-5.525-1.47-12.756,2.333-17.573,3.668-4.677,9.239-10.331,15.769-8.69a13.9,13.9,0,0,1,8.134,9.138.381.381,0,0,1-.731.213c-1.335-3.469-4.261-6.856-7.813-8.017-6.918-1.555-14.632,7.615-17.118,13.3a13.36,13.36,0,0,0,.082,11.245.381.381,0,0,1-.656.384Z" transform="translate(-55.044 -151.846)" fill="#af7371"/>
            <path id="패스_7425" data-name="패스 7425" d="M102.946,222.907c3.117-3.086,5.85-7.116,5.213-11.661a14.254,14.254,0,0,0-7.457-10.19c-2.676-1.531-6.436-2.3-8.357.493-1.8,2.722-1.013,6.4,1.006,8.825a29.783,29.783,0,0,0,4.9,4.663.381.381,0,0,1-.459.606c-2.821-1.985-5.9-4.258-7.245-7.643-1.428-3.476-.295-8.466,3.692-9.593a9.762,9.762,0,0,1,7.217,1.25c6.4,3.337,10.565,11.806,6.572,18.448a20.585,20.585,0,0,1-4.57,5.36.381.381,0,0,1-.517-.557Z" transform="translate(-53.544 -151.403)" fill="#af7371"/>
            <path id="패스_7426" data-name="패스 7426" d="M80.061,200.131c3.381,2.762,6.625,6.061,8.12,10.286,1.806,5.366-2.9,10.482-8.178,7.244-2.72-1.63-4.24-4.327-5.5-6.883a.38.38,0,0,1,.664-.37c2.069,3.237,4.947,7.394,9.1,6.631,7.052-3.556-1.214-12.861-4.708-16.335a.382.382,0,0,1,.5-.573Z" transform="translate(-54.527 -151.282)" fill="#af7371"/>
            <path id="패스_7427" data-name="패스 7427" d="M86.9,211.7a6.4,6.4,0,0,0,5.443-2.389.4.4,0,0,1,.684.335,4.286,4.286,0,0,1-2.466,3,4.236,4.236,0,0,1-3.876-.216.4.4,0,0,1,.216-.73Z" transform="translate(-53.763 -150.702)" fill="#af7371"/>
            <path id="패스_7428" data-name="패스 7428" d="M182.665,168.627a13.777,13.777,0,0,1,11.167,1.019c3.486,1.968,4.868,6.2,5.416,9.89.369,3.305.586,6.839-.63,10.01-.205.586-1.052.79-1.542.81a43.321,43.321,0,0,1-11.295-1.1,69.814,69.814,0,0,1-14.29-4.676.2.2,0,0,1,.158-.363,72.289,72.289,0,0,0,14.277,4.313c3.825.625,7.942,1.481,11.767.788a6.311,6.311,0,0,0,.674-2.3c.567-4.729.192-10.085-2.453-14.147-2.905-4.05-8.535-4.807-13.175-3.993-.151.053-.232-.2-.076-.244Z" transform="translate(-48.379 -153.321)" fill="#1d2c4d"/>
            <path id="패스_7429" data-name="패스 7429" d="M142.767,238.775a13.572,13.572,0,0,1-14.24,12.868,13.047,13.047,0,0,1-5.551-1.606,40.682,40.682,0,0,1-1.3-4.594c-1.276-5.732-.234-12.283,3.765-16.579.532-.564,2.084-2.914,3.18-4.583a11.248,11.248,0,0,1,1.585-.011A13.572,13.572,0,0,1,142.767,238.775Z" transform="translate(-51.564 -149.746)" fill="#d67188" opacity="0.4" style="mix-blend-mode: multiply;isolation: isolate"/>
            <path id="패스_7430" data-name="패스 7430" d="M173.435,297.59q-1.1,0-2.276-.07c-5.693-.334-9.982-2.093-12.749-5.224a12.42,12.42,0,0,1-3.1-8.394,2.127,2.127,0,0,1,4.245.26c-.039.871-.035,8.412,11.854,9.113,5.646.33,9.9-.718,12.3-3.037a7.249,7.249,0,0,0,2.259-5.023,2.138,2.138,0,0,1,2.055-2.188,2.112,2.112,0,0,1,2.2,2.022,11.567,11.567,0,0,1-3.467,8.163C183.8,296.122,179.327,297.59,173.435,297.59Z" transform="translate(-49.399 -146.088)" fill="#3979b8"/>
          </g>
        </g>
      </g>
    </g>
  </g>
</svg>
