<svg xmlns="http://www.w3.org/2000/svg" width="281.314" height="22.965" viewBox="0 0 281.314 22.965">
  <g id="_" data-name="&quot;&quot;" transform="translate(-1547.228 -2704.606)" opacity="0.3" style="mix-blend-mode: multiply;isolation: isolate">
    <path id="패스_7003" data-name="패스 7003" d="M1577.228,2718.085a17.677,17.677,0,0,1,.8-5.591,13.935,13.935,0,0,1,2.047-4.043,9.708,9.708,0,0,1,2.9-2.6,10.246,10.246,0,0,1,3.445-1.248v2.5a5.051,5.051,0,0,0-3.4,3.245,12.069,12.069,0,0,0-.8,5.842h4.792v8.886h-8.188q-1.6,0-1.6-1.8Zm12.281,0a17.677,17.677,0,0,1,.8-5.591,13.926,13.926,0,0,1,2.047-4.043,9.716,9.716,0,0,1,2.9-2.6,10.245,10.245,0,0,1,3.445-1.248v2.5a5.055,5.055,0,0,0-3.4,3.245,12.07,12.07,0,0,0-.8,5.842h4.792v8.886h-8.188q-1.6,0-1.6-1.8Z" transform="translate(-30)" fill="#1a1311"/>
    <path id="패스_7004" data-name="패스 7004" d="M1915.708,2735.289a17.692,17.692,0,0,1-.8,5.591,13.985,13.985,0,0,1-2.047,4.045,9.714,9.714,0,0,1-2.9,2.6,10.2,10.2,0,0,1-3.445,1.248v-2.5a5.054,5.054,0,0,0,3.4-3.245,12.084,12.084,0,0,0,.8-5.841h-4.792V2728.3h8.188q1.6,0,1.6,1.8Zm12.281.1a17.7,17.7,0,0,1-.8,5.592,13.982,13.982,0,0,1-2.047,4.044,9.7,9.7,0,0,1-2.9,2.6,10.185,10.185,0,0,1-3.444,1.248v-2.5a5.053,5.053,0,0,0,3.394-3.245,12.072,12.072,0,0,0,.8-5.841H1918.2V2728.4h8.188q1.6,0,1.6,1.8Z" transform="translate(-99.447 -21.297)" fill="#1a1311"/>
  </g>
</svg>
