<svg xmlns="http://www.w3.org/2000/svg" width="193.334" height="85.967" viewBox="0 0 193.334 85.967">
  <path id="cloud3" d="M177.015,326.013c-43.427-2.983-48.221,39.1-48.221,39.1s-25.544-14.075-40.14,9.645c0,0-25.087-6.582-25.087,13.359s27.758,10.554,27.758,10.554,16.421,24.156,39.686,2.207c0,0,21.633,26.53,46-2.99,0,0,22.807,22.482,44.506,1.564,0,0,32.645,6.452,35.186-9.384s-20.721-13.877-20.721-13.877,5.864-26.979-30.693-23.656C205.295,352.533,206.4,328.032,177.015,326.013Z" transform="translate(-63.568 -325.861)" fill="#fff"/>
</svg>
