<svg xmlns="http://www.w3.org/2000/svg" width="172.974" height="76.913" viewBox="0 0 172.974 76.913">
  <path id="cloud2" d="M135.042,326c38.854-2.669,43.142,34.98,43.142,34.98s22.854-12.592,35.913,8.629c0,0,22.445-5.889,22.445,11.952S211.707,391,211.707,391s-14.692,21.612-35.506,1.975c0,0-19.355,23.736-41.159-2.675,0,0-20.4,20.115-39.819,1.4,0,0-29.207,5.773-31.481-8.4S82.28,370.888,82.28,370.888s-5.246-24.137,27.46-21.164C109.741,349.724,108.748,327.8,135.042,326Z" transform="translate(-63.568 -325.861)" fill="#fff"/>
</svg>
