<svg xmlns="http://www.w3.org/2000/svg" width="274.659" height="578.209" viewBox="0 0 274.659 578.209">
  <g id="hand_2" transform="translate(0)">
    <g id="그룹_727" data-name="그룹 727" transform="translate(0)">
      <g id="그룹_723" data-name="그룹 723" transform="translate(122.964)">
        <path id="패스_6689" data-name="패스 6689" d="M-1824.042,373.255c1.139-4.389-8.394-106.358-8.394-106.358s-.79-8.2-16.984-30.241-35.973-32.5-26.347-39.92,30.362,9.613,30.362,9.613-40.083-76.631-23.3-79.464,38.584,52.24,38.584,52.24-19.706-67.205-7-71.574c17.3-5.949,30.908,70.27,30.908,70.27s-3.379-66.635,10.831-66.657c13.853-.021,12.087,68.011,12.087,68.011s9.28-45.825,19.275-43.827c9.316,1.862,4.6,55.32,4.3,69.726-.289,14.16-5.3,55.281-5.3,55.281l23.171,144.023-87.268,15.4Z" transform="translate(1878.3 -107.221)" fill="#633d1c"/>
      </g>
      <g id="그룹_724" data-name="그룹 724" transform="translate(182.211 109.918)">
        <path id="패스_6690" data-name="패스 6690" d="M-1778.538,276.624c.03-.229,2.761-22.8-26.447-35.779l-1.29,2.905c26.94,11.965,24.7,31.614,24.592,32.447Z" transform="translate(1806.275 -240.845)" fill="#00133a"/>
      </g>
      <g id="그룹_725" data-name="그룹 725" transform="translate(0 133.742)">
        <path id="패스_6691" data-name="패스 6691" d="M-2011.063,681.209q-.7-1-1.4-2.029c-23.718-34.763-19.927-60.886,11.577-88.709,31.247-27.594,61.785-78.513,137.266-122.766,0,0-4.523-66.919,9.388-182.934l51.655-14.962s53.578,121.782,49.2,255.77c0,0-50.234,83.12-142.273,166.233C-1932.189,724.8-1982.853,721.606-2011.063,681.209Z" transform="translate(2027.784 -269.808)" fill="#633d1c"/>
      </g>
      <g id="그룹_726" data-name="그룹 726" transform="translate(191.115 69.603)">
        <path id="패스_6692" data-name="패스 6692" d="M-1756.9,200.219l1.422-2.834c-.692-.35-17.175-8.452-39.974-4.434l.555,3.129C-1773.184,192.249-1757.055,200.141-1756.9,200.219Z" transform="translate(1795.45 -191.836)" fill="#00133a"/>
      </g>
    </g>
    <g id="그룹_730" data-name="그룹 730" transform="translate(163.113 157.744)">
      <path id="패스_6693" data-name="패스 6693" d="M-1771.152,350.251a17.53,17.53,0,0,0-3.123-3.172,31.239,31.239,0,0,0,2.316-2.266,36.763,36.763,0,0,1-6.832,1.242c-12.815.856-48.742-1.23-48.742-1.23s29.737,10.113,44.1,8.688A50.414,50.414,0,0,0-1771.152,350.251Z" transform="translate(1829.144 -307.117)" fill="none"/>
      <g id="그룹_728" data-name="그룹 728" transform="translate(0 2.315)">
        <path id="패스_6694" data-name="패스 6694" d="M-1763.1,301.8l-6.6.605s.54,1.194,1.147,2.749c2.148-.364,4.47-.774,6.851-1.207C-1762.483,302.724-1763.1,301.8-1763.1,301.8Z" transform="translate(1818.884 -301.801)" fill="none"/>
        <path id="패스_6695" data-name="패스 6695" d="M-1783.414,303.868l-10.305.359s-1.174,1.237-2.461,2.823c3.418.053,6.716.057,9.582-.021C-1784.937,305.3-1783.414,303.868-1783.414,303.868Z" transform="translate(1823.581 -302.168)" fill="none"/>
        <path id="패스_6696" data-name="패스 6696" d="M-1800.8,303.751l-9.1.092s-.771,1.22-1.665,2.817c2.741.11,5.688.212,8.646.286C-1801.836,305.18-1800.8,303.751-1800.8,303.751Z" transform="translate(1826.312 -302.147)" fill="none"/>
        <path id="패스_6697" data-name="패스 6697" d="M-1777.371,306.663c1.074-.144,2.352-.336,3.749-.559-.4-1.129-.73-1.955-.73-1.955l-3.785.56s-.846.947-1.922,2.207C-1779.055,306.848-1778.142,306.765-1777.371,306.663Z" transform="translate(1820.721 -302.217)" fill="none"/>
        <path id="패스_6698" data-name="패스 6698" d="M-1821.323,311.528a12.25,12.25,0,0,1,1.871-4.589c-5.25-.243-8.926-.467-8.926-.467a23.149,23.149,0,0,0-1.1,5.006c-.161,2.306,1.491,5.142,1.491,5.142s3.053.345,7.725.762A25.369,25.369,0,0,1-1821.323,311.528Z" transform="translate(1829.491 -302.63)" fill="#fb3455"/>
        <path id="패스_6699" data-name="패스 6699" d="M-1805.881,312.359a21.612,21.612,0,0,1,2.368-4.786c-2.959-.074-5.906-.176-8.646-.286-1.191,2.129-2.6,4.929-2.708,6.432a12.413,12.413,0,0,0,.67,4.1c2.679.219,5.684.439,8.839.628C-1805.854,316.571-1806.341,314.025-1805.881,312.359Z" transform="translate(1826.898 -302.774)" fill="#fb3455"/>
        <path id="패스_6700" data-name="패스 6700" d="M-1791.43,312.89c.438-1.189,2.343-3.352,4.095-5.178-2.865.077-6.164.074-9.582.021-1.375,1.694-2.881,3.787-3.244,5.236a13.541,13.541,0,0,0,.414,5.729c2.858.147,5.785.259,8.666.316C-1791.521,316.741-1791.873,314.093-1791.43,312.89Z" transform="translate(1824.318 -302.85)" fill="#fb3455"/>
        <path id="패스_6701" data-name="패스 6701" d="M-1774.618,306.525c-1.4.223-2.675.415-3.749.559-.771.1-1.684.185-2.688.253-1.724,2.015-4.046,4.837-4.473,5.892-.381.939.042,3.49.5,5.612,3.429.008,6.715-.078,9.628-.308.258-.021.524-.064.784-.087.655-1.718,1.685-4.76,1.487-6.515A28.982,28.982,0,0,0-1774.618,306.525Z" transform="translate(1821.717 -302.639)" fill="#fb3455"/>
        <path id="패스_6702" data-name="패스 6702" d="M-1815.7,313.675c.105-1.5,1.517-4.3,2.708-6.432-1.66-.067-3.24-.136-4.7-.2a12.246,12.246,0,0,0-1.871,4.589,25.362,25.362,0,0,0,1.06,5.854q1.62.144,3.475.3A12.414,12.414,0,0,1-1815.7,313.675Z" transform="translate(1827.73 -302.73)" fill="#ffff6c"/>
        <path id="패스_6703" data-name="패스 6703" d="M-1800.841,312.955c.363-1.449,1.869-3.542,3.244-5.236-1.327-.021-2.672-.05-4.015-.084a21.613,21.613,0,0,0-2.368,4.786c-.46,1.666.027,4.212.523,6.093q1.5.09,3.03.169A13.541,13.541,0,0,1-1800.841,312.955Z" transform="translate(1824.997 -302.836)" fill="#ffff6c"/>
        <path id="패스_6704" data-name="패스 6704" d="M-1757.843,309.258c-.4-1.246-1.967-3.206-3.455-4.882l-.163.03c-2.381.433-4.7.842-6.851,1.207.889,2.28,1.927,5.348,1.633,6.641-.313,1.384-.787,3.806-1.092,5.395,2.889-.355,5.779-.776,8.58-1.292l0-.012C-1758.315,313.942-1757.363,310.743-1757.843,309.258Z" transform="translate(1818.637 -302.258)" fill="#fb3455"/>
        <path id="패스_6705" data-name="패스 6705" d="M-1769.008,305.879c-1.134.192-2.213.37-3.225.531a28.991,28.991,0,0,1,1.49,5.406c.2,1.755-.832,4.8-1.487,6.515,1.247-.109,2.5-.262,3.763-.417.3-1.588.778-4.011,1.092-5.395C-1767.081,311.227-1768.118,308.159-1769.008,305.879Z" transform="translate(1819.332 -302.524)" fill="#ffff6c"/>
        <path id="패스_6706" data-name="패스 6706" d="M-1786.253,313.4c.427-1.055,2.749-3.877,4.473-5.892-1.112.074-2.344.128-3.679.165-1.752,1.826-3.656,3.99-4.095,5.178s-.09,3.851.349,6.123q1.745.035,3.454.039C-1786.211,316.894-1786.634,314.343-1786.253,313.4Z" transform="translate(1822.442 -302.814)" fill="#ffff6c"/>
      </g>
      <g id="그룹_729" data-name="그룹 729" transform="translate(57.339)">
        <path id="패스_6707" data-name="패스 6707" d="M-1739.634,300.039c-.243-.586-.422-.973-.422-.973l-3.394-.079-3.461.923c.165.394.364.875.582,1.422C-1743.8,300.85-1741.512,300.406-1739.634,300.039Z" transform="translate(1757.501 -298.987)" fill="none"/>
        <path id="패스_6708" data-name="패스 6708" d="M-1739.508,300.266c-1.878.367-4.171.811-6.694,1.293.921,2.3,2.141,5.631,2.187,7.2a16.149,16.149,0,0,1-.857,4.646c2.588-.623,4.875-1.222,6.731-1.732a23.091,23.091,0,0,0,.376-5.348A23.3,23.3,0,0,0-1739.508,300.266Z" transform="translate(1757.375 -299.214)" fill="#fb3455"/>
        <path id="패스_6709" data-name="패스 6709" d="M-1731.016,303.1a11.635,11.635,0,0,0-1.529-4.017s-.852.17-2.283.452c.907,2.009,2.14,5.018,2.157,6.581.014,1.245-.083,2.993-.183,4.426,1.086-.318,1.7-.511,1.7-.511S-1730.852,304.9-1731.016,303.1Z" transform="translate(1755.358 -299.004)" fill="#fb3455"/>
        <path id="패스_6710" data-name="패스 6710" d="M-1750.233,307.8a18.244,18.244,0,0,0-3.04-4.887c-2.143.4-4.345.811-6.512,1.2,1.488,1.676,3.053,3.636,3.455,4.882.48,1.487-.476,4.694-1.347,7.1,2.35-.434,4.627-.9,6.775-1.383C-1750.3,312.583-1749.635,309.492-1750.233,307.8Z" transform="translate(1759.785 -299.684)" fill="#fb3455"/>
        <path id="패스_6711" data-name="패스 6711" d="M-1747.208,301.838c-1.494.286-3.057.582-4.662.884a18.244,18.244,0,0,1,3.041,4.887c.6,1.692-.068,4.783-.67,6.913,1.255-.279,2.469-.56,3.62-.837a16.145,16.145,0,0,0,.857-4.646C-1745.066,307.469-1746.286,304.141-1747.208,301.838Z" transform="translate(1758.381 -299.493)" fill="#ffff6c"/>
        <path id="패스_6712" data-name="패스 6712" d="M-1735.4,299.631c-.739.146-1.638.322-2.662.522a23.3,23.3,0,0,1,1.742,6.061,23.091,23.091,0,0,1-.376,5.348c1.334-.365,2.441-.682,3.27-.925.1-1.432.2-3.181.183-4.425C-1733.263,304.649-1734.495,301.64-1735.4,299.631Z" transform="translate(1755.932 -299.101)" fill="#ffff6c"/>
      </g>
      <path id="패스_6713" data-name="패스 6713" d="M-1745.134,321.2a9.725,9.725,0,0,0-2.187-4.054,126.208,126.208,0,0,1-22.733,11.6,70.18,70.18,0,0,1-9.737,2.943c-10.24,2.219-47.991-1.742-47.991-1.742a29.007,29.007,0,0,0-1.232,5.58,11.054,11.054,0,0,0,1.217,4.389s35.927,2.085,48.742,1.23a36.764,36.764,0,0,0,6.832-1.242c12.191-3.248,26.517-11.583,26.517-11.583S-1744.881,323.092-1745.134,321.2Z" transform="translate(1829.406 -302.208)" fill="#44ec8d"/>
      <path id="패스_6714" data-name="패스 6714" d="M-1743.554,338.757a12.343,12.343,0,0,0-1.653-3.471s-13.463,8.411-26.264,13.275a50.424,50.424,0,0,1-12.283,3.262c-14.362,1.425-44.1-8.688-44.1-8.688s-1.581,3.4-1.472,4.585a35.665,35.665,0,0,0,1.39,4.8s37.84,10.329,47.041,7.247c1.869-.626,4.512-1.638,7.527-2.848,11.84-4.749,29.52-12.6,29.52-12.6S-1743.129,340.477-1743.554,338.757Z" transform="translate(1829.462 -305.427)" fill="#fb3455"/>
    </g>
  </g>
</svg>
