<svg id="hand_1" xmlns="http://www.w3.org/2000/svg" width="157.581" height="611.804" viewBox="0 0 157.581 611.804">
  <path id="패스_6675" data-name="패스 6675" d="M-1449.717-4.6s47.768,128.506,26.626,271.675-17.822,202.658-17.822,202.658l-134.36-14.327,40.317-206.87S-1526.09,73.6-1502.271,6.807Z" transform="translate(1575.273 142.074)" fill="#fadacc"/>
  <g id="그룹_707" data-name="그룹 707" transform="translate(26.248 0)">
    <path id="패스_6676" data-name="패스 6676" d="M-1522.41,94.465c1.436-4.3-1.133-106.682-1.133-106.682s-.229-8.232-14.885-31.327S-1572.105-78.421-1562-85.166s29.638,11.658,29.638,11.658-34.773-79.182-17.84-80.866,34.938,54.746,34.938,54.746-15.084-68.391-2.109-71.884c17.67-4.757,26.051,72.211,26.051,72.211s1.166-66.71,15.344-65.765c13.823.922,7.428,68.676,7.428,68.676s12.379-45.087,22.215-42.413c9.167,2.491.818,55.5-.456,69.857-1.253,14.107-9.051,54.792-9.051,54.792l13.311,145.266-88.115,9.421Z" transform="translate(1564.835 171.723)" fill="#fadacc"/>
  </g>
  <g id="그룹_709" data-name="그룹 709" transform="translate(54.412 168.984)">
    <g id="그룹_708" data-name="그룹 708" transform="translate(0 0)">
      <path id="패스_6677" data-name="패스 6677" d="M-1469.283,45.676l-5.984.927c-48.25,7.5-77.035.665-78.239.37l-5.87-1.439,2.866-11.744,5.877,1.414c.272.067,27.873,6.516,73.51-.569l5.984-.928Z" transform="translate(1559.376 -33.707)" fill="#ffff6c"/>
    </g>
  </g>
  <g id="그룹_711" data-name="그룹 711" transform="translate(48.805 183.037)">
    <g id="그룹_710" data-name="그룹 710" transform="translate(0 0)">
      <path id="패스_6678" data-name="패스 6678" d="M-1464.762,63.921l-6.565,1.841c-52.933,14.862-86.03,11.093-87.414,10.926l-6.756-.821,1.625-13.513,6.761.791c.313.039,32.036,3.54,82.1-10.512l6.565-1.841Z" transform="translate(1565.497 -50.791)" fill="#44ec8d"/>
    </g>
  </g>
  <g id="그룹_712" data-name="그룹 712" transform="translate(134.04 35.81)">
    <path id="패스_6679" data-name="패스 6679" d="M-1553.921-128.135c4.254.928,5.5,15.053,2.963,18.558s-11.922-.342-12.53-2.811S-1558.732-129.184-1553.921-128.135Z" transform="translate(1563.536 128.19)" fill="#44ec8d"/>
  </g>
  <g id="그룹_713" data-name="그룹 713" transform="translate(126.709 58.118)">
    <path id="패스_6680" data-name="패스 6680" d="M-1547.89-100.892c3.917.742,8.607,2.465,4.741,16.829s-18.459,3.482-16.8-1.782S-1557.1-102.636-1547.89-100.892Z" transform="translate(1560.08 101.07)" fill="#44ec8d"/>
  </g>
  <g id="그룹_714" data-name="그룹 714" transform="translate(95.833 71.856)">
    <path id="패스_6681" data-name="패스 6681" d="M-1510.354-74.078l1.611-2.73c-.666-.4-16.56-9.6-39.58-7.146l.341,3.16C-1526.061-83.139-1510.506-74.167-1510.354-74.078Z" transform="translate(1548.323 84.37)" fill="#00133a"/>
  </g>
  <g id="그룹_715" data-name="그룹 715" transform="translate(106.062 10.285)">
    <path id="패스_6682" data-name="패스 6682" d="M-1521.628-158.9c7.659,2.854,8.955,64.94-6.175,59.884C-1532.667-100.642-1535.974-164.246-1521.628-158.9Z" transform="translate(1531.96 159.22)" fill="#44ec8d"/>
  </g>
  <g id="그룹_716" data-name="그룹 716" transform="translate(72.735 5.397)">
    <path id="패스_6683" data-name="패스 6683" d="M-1489.136-165.06c6.517,1.569,20.832,62,8.083,59.464C-1485.151-106.41-1501.342-168-1489.136-165.06Z" transform="translate(1493.611 165.162)" fill="#44ec8d"/>
  </g>
  <g id="그룹_717" data-name="그룹 717" transform="translate(39.991 22.681)">
    <path id="패스_6684" data-name="패스 6684" d="M-1452.965-144.134c-7.288.536.49,32.892,5.522,34.588s14.839-5.464,9.272-16.477S-1447.436-144.541-1452.965-144.134Z" transform="translate(1455.94 144.15)" fill="#44ec8d"/>
  </g>
  <g id="그룹_718" data-name="그룹 718" transform="translate(53.134 57.022)">
    <path id="패스_6685" data-name="패스 6685" d="M-1464.939-101.836c-8.58,2.971-1.308,19.191,4.152,21.125s10.029-5.2,8.555-9.087C-1455.325-97.961-1457.57-104.388-1464.939-101.836Z" transform="translate(1468.889 102.403)" fill="#44ec8d"/>
  </g>
  <g id="그룹_719" data-name="그룹 719" transform="translate(31.853 88.826)">
    <path id="패스_6686" data-name="패스 6686" d="M-1433.208-40.819c-16.064-6.034-23.062-19.561-21.294-22.462s21,8.77,24.474,12.9C-1427.061-46.856-1427.307-38.6-1433.208-40.819Z" transform="translate(1454.769 63.74)" fill="#44ec8d"/>
  </g>
  <g id="그룹_720" data-name="그룹 720" transform="translate(63.085 81.912)">
    <path id="패스_6687" data-name="패스 6687" d="M-1478.736-61.472c-9.109-12.687-44.043-15.826-60.385.353s-1.106,55.7,16.052,55.822,27.761,2.4,38.588-12.542S-1474.021-54.9-1478.736-61.472Z" transform="translate(1546.104 72.145)" fill="#44ec8d"/>
  </g>
  <g id="그룹_721" data-name="그룹 721" transform="translate(84.083 110.868)">
    <path id="패스_6688" data-name="패스 6688" d="M-1491.718.547c.045-.228,4.314-22.564-23.949-37.491l-1.485,2.811c26.068,13.765,22.494,33.216,22.325,34.039Z" transform="translate(1517.151 36.944)" fill="#00133a"/>
  </g>
</svg>
