<svg xmlns="http://www.w3.org/2000/svg" width="95.565" height="123.11" viewBox="0 0 95.565 123.11">
  <g id="lollipop_left-green" transform="matrix(0.799, -0.602, 0.602, 0.799, -167.453, 99.005)">
    <path id="사각형_132" data-name="사각형 132" d="M.867,0H7.614a.867.867,0,0,1,.867.867V53.212a0,0,0,0,1,0,0H0a0,0,0,0,1,0,0V.867A.867.867,0,0,1,.867,0Z" transform="matrix(-0.886, -0.463, 0.463, -0.886, 171.419, 157.624)" fill="#eee"/>
    <g id="그룹_754" data-name="그룹 754" transform="translate(162.624 48.527)">
      <circle id="타원_214" data-name="타원 214" cx="35.248" cy="35.248" r="35.248" transform="translate(0 69.712) rotate(-81.449)" fill="#44ec8d"/>
      <circle id="타원_215" data-name="타원 215" cx="35.248" cy="35.248" r="35.248" transform="translate(0 69.712) rotate(-81.449)" fill="#44ec8d"/>
      <path id="패스_6780" data-name="패스 6780" d="M188.94,91a31.448,31.448,0,0,0,2.647-10.97A30.557,30.557,0,0,0,190.209,69.1,29.439,29.439,0,0,0,177.3,52.681a.552.552,0,0,0-.632.9,26.857,26.857,0,0,1,9.592,16.485,25.443,25.443,0,0,1-3.545,17.673,3.525,3.525,0,1,0,5.946,3.787,3.077,3.077,0,0,0,.246-.451Z" transform="translate(-120.703 -36.185)" fill="#fff" opacity="0.2"/>
      <g id="그룹_753" data-name="그룹 753" transform="translate(5.054 5.055)">
        <path id="패스_6781" data-name="패스 6781" d="M178.893,71.318a115.033,115.033,0,0,0-4.822,11.7c-.326.342-.657.681-.975,1.027-.213-.423-.415-.846-.62-1.273a117.6,117.6,0,0,1,.447-13.073,99.028,99.028,0,0,1,2.522-15.292q.592-2.308,1.329-4.629a35.073,35.073,0,0,1,12.537,3.807c.2.1.387.214.58.322a59.89,59.89,0,0,0-3.948,5.1A90.532,90.532,0,0,0,178.893,71.318Z" transform="translate(-137.934 -49.782)" fill="#fff"/>
        <path id="패스_6782" data-name="패스 6782" d="M179.374,71.4A114.124,114.124,0,0,0,184.2,59.7c.326-.342.657-.681.979-1.027.21.423.411.846.616,1.269a117.575,117.575,0,0,1-.447,13.073,99,99,0,0,1-2.522,15.3q-.592,2.308-1.329,4.629a35.178,35.178,0,0,1-12.537-3.807c-.2-.1-.383-.218-.576-.322a61.158,61.158,0,0,0,3.944-5.1A90.122,90.122,0,0,0,179.374,71.4Z" transform="translate(-150.248 -22.855)" fill="#fff"/>
        <path id="패스_6783" data-name="패스 6783" d="M185.5,64.8a114.127,114.127,0,0,0-11.7-4.822c-.342-.326-.681-.657-1.027-.979.423-.209.846-.411,1.273-.616a117.622,117.622,0,0,1,13.073.447,99.036,99.036,0,0,1,15.292,2.522q2.308.592,4.629,1.329a35.1,35.1,0,0,1-3.807,12.537c-.1.2-.213.383-.322.576a60.518,60.518,0,0,0-5.1-3.944A90.117,90.117,0,0,0,185.5,64.8Z" transform="translate(-136.952 -23.837)" fill="#fff"/>
        <path id="패스_6784" data-name="패스 6784" d="M168.008,54.282a60.348,60.348,0,0,0,5.1,3.948,90.534,90.534,0,0,0,12.3,7.05A114.731,114.731,0,0,0,197.122,70.1c.338.326.677.657,1.023.975-.423.214-.846.415-1.269.62A117.584,117.584,0,0,1,183.8,71.25a99.082,99.082,0,0,1-15.3-2.522q-2.308-.592-4.629-1.329a35.154,35.154,0,0,1,3.807-12.537C167.791,54.665,167.9,54.475,168.008,54.282Z" transform="translate(-163.879 -36.154)" fill="#fff"/>
        <path id="패스_6785" data-name="패스 6785" d="M185.839,69.726a113.093,113.093,0,0,0-11.687,4.862c-.471.012-.947.016-1.418.036.149-.447.31-.89.463-1.337a117.675,117.675,0,0,1,9.56-8.927,99.288,99.288,0,0,1,12.6-9.032Q197.4,54.114,199.568,53a35.231,35.231,0,0,1,6.353,12.194,61.036,61.036,0,0,0-6.4.818A89.931,89.931,0,0,0,185.839,69.726Z" transform="translate(-137.061 -40.048)" fill="#fff"/>
        <path id="패스_6786" data-name="패스 6786" d="M172.607,59.06c.318-.346.649-.685.975-1.027-.153.447-.314.89-.463,1.337-.117,0-.238,0-.359.008C172.708,59.274,172.659,59.165,172.607,59.06Z" transform="translate(-137.446 -24.794)" fill="#fff"/>
        <path id="패스_6787" data-name="패스 6787" d="M172.819,58.392c.471-.02.947-.024,1.418-.036-.427.205-.85.407-1.273.616-.089-.081-.173-.165-.258-.246C172.742,58.614,172.783,58.5,172.819,58.392Z" transform="translate(-137.146 -23.815)" fill="#fff"/>
        <path id="패스_6788" data-name="패스 6788" d="M172.73,58.546l-.085-.173c.121,0,.242,0,.359-.008-.036.109-.077.222-.113.334Z" transform="translate(-137.331 -23.788)" fill="#fff"/>
        <path id="패스_6789" data-name="패스 6789" d="M184.269,63.495a114.372,114.372,0,0,0,11.687-4.862c.471-.012.943-.02,1.414-.036-.149.447-.306.89-.463,1.337a118.328,118.328,0,0,1-9.556,8.927,99.631,99.631,0,0,1-12.6,9.032c-1.366.806-2.772,1.587-4.214,2.333a35.266,35.266,0,0,1-6.353-12.194,61.027,61.027,0,0,0,6.4-.818A89.981,89.981,0,0,0,184.269,63.495Z" transform="translate(-162.958 -23.089)" fill="#fff"/>
        <path id="패스_6790" data-name="패스 6790" d="M173.285,58.912c-.322.346-.653.685-.979,1.027.157-.447.314-.89.463-1.337.121,0,.238,0,.358-.008C173.18,58.7,173.229,58.807,173.285,58.912Z" transform="translate(-138.358 -23.095)" fill="#fff"/>
        <path id="패스_6791" data-name="패스 6791" d="M173.484,59.035c-.471.016-.943.024-1.414.036.423-.205.846-.407,1.269-.62.089.085.173.169.262.25C173.561,58.814,173.52,58.922,173.484,59.035Z" transform="translate(-139.072 -23.528)" fill="#fff"/>
        <path id="패스_6792" data-name="패스 6792" d="M172.695,58.662l.085.177c-.121,0-.238,0-.358.008.036-.113.077-.222.117-.334Z" transform="translate(-138.009 -23.34)" fill="#fff"/>
        <path id="패스_6793" data-name="패스 6793" d="M177.592,71.738a113.829,113.829,0,0,0-4.862-11.687c-.012-.471-.016-.943-.036-1.414.447.149.89.306,1.338.463a117.624,117.624,0,0,1,8.927,9.556,99.627,99.627,0,0,1,9.032,12.6q1.215,2.049,2.333,4.214a35.23,35.23,0,0,1-12.194,6.353,61.031,61.031,0,0,0-.818-6.4A89.849,89.849,0,0,0,177.592,71.738Z" transform="translate(-137.186 -22.964)" fill="#fff"/>
        <path id="패스_6794" data-name="패스 6794" d="M173.129,58.725c.02.471.024.943.036,1.414-.205-.423-.407-.846-.616-1.269.081-.089.165-.173.246-.262C172.908,58.648,173.016,58.689,173.129,58.725Z" transform="translate(-137.622 -23.052)" fill="#fff"/>
        <path id="패스_6795" data-name="패스 6795" d="M173.009,58.509c.346.322.685.653,1.027.979-.447-.157-.89-.314-1.338-.463,0-.121,0-.238-.008-.359C172.8,58.614,172.9,58.565,173.009,58.509Z" transform="translate(-137.192 -23.352)" fill="#fff"/>
        <path id="패스_6796" data-name="패스 6796" d="M172.763,58.633l.173-.085c0,.121,0,.238.008.359-.113-.036-.222-.077-.334-.117C172.658,58.737,172.711,58.689,172.763,58.633Z" transform="translate(-137.437 -23.234)" fill="#fff"/>
        <path id="패스_6797" data-name="패스 6797" d="M172.69,58.633l.064-.185c.085.081.169.165.258.246-.1.056-.214.1-.318.157Z" transform="translate(-137.195 -23.537)" fill="#fff"/>
        <path id="패스_6798" data-name="패스 6798" d="M172.933,58.41l.161.153-.064.185-.451-.056Z" transform="translate(-137.534 -23.652)" fill="#fff"/>
        <path id="패스_6799" data-name="패스 6799" d="M173.029,58.536l0,.218-.173.085-.282-.359Z" transform="translate(-137.534 -23.44)" fill="#fff"/>
        <path id="패스_6800" data-name="패스 6800" d="M172.728,58.593l.185.06c-.081.089-.165.173-.246.262-.056-.1-.1-.214-.157-.318Z" transform="translate(-137.74 -23.098)" fill="#fff"/>
        <path id="패스_6801" data-name="패스 6801" d="M172.9,58.839c-.052.056-.1.1-.153.157l-.185-.06.056-.455Z" transform="translate(-137.576 -23.44)" fill="#fff"/>
        <path id="패스_6802" data-name="패스 6802" d="M172.791,58.935l-.218,0-.085-.177.359-.282Z" transform="translate(-137.803 -23.44)" fill="#fff"/>
        <path id="패스_6803" data-name="패스 6803" d="M183.823,70.168a113.979,113.979,0,0,0,4.862,11.687c.012.471.02.947.036,1.418-.447-.149-.89-.31-1.333-.463a117.021,117.021,0,0,1-8.931-9.56,99.294,99.294,0,0,1-9.032-12.6c-.806-1.366-1.587-2.772-2.332-4.214a35.266,35.266,0,0,1,12.194-6.353,61.052,61.052,0,0,0,.818,6.4A89.93,89.93,0,0,0,183.823,70.168Z" transform="translate(-154.145 -48.861)" fill="#fff"/>
        <path id="패스_6804" data-name="패스 6804" d="M172.489,59.39c-.016-.471-.024-.947-.036-1.418.205.427.407.85.62,1.273-.085.089-.169.173-.25.258C172.711,59.467,172.6,59.426,172.489,59.39Z" transform="translate(-137.912 -24.978)" fill="#fff"/>
        <path id="패스_6805" data-name="패스 6805" d="M173.473,59.031c-.1.052-.214.1-.318.153-.346-.318-.685-.649-1.023-.975.443.153.886.314,1.333.463C173.468,58.789,173.468,58.91,173.473,59.031Z" transform="translate(-138.888 -24.261)" fill="#fff"/>
        <path id="패스_6806" data-name="패스 6806" d="M172.647,58.6l-.177.085c0-.121,0-.242-.008-.359.113.036.222.077.334.113Z" transform="translate(-137.885 -23.912)" fill="#fff"/>
        <path id="패스_6807" data-name="패스 6807" d="M172.73,58.61l-.185-.064c.081-.085.165-.169.25-.258.052.1.1.214.153.318Z" transform="translate(-137.634 -24.021)" fill="#fff"/>
        <path id="패스_6808" data-name="패스 6808" d="M172.63,58.371l.218,0,.085.173-.355.282Z" transform="translate(-137.534 -23.782)" fill="#fff"/>
        <path id="패스_6809" data-name="패스 6809" d="M172.508,58.513l.149-.161.185.064-.052.451Z" transform="translate(-137.746 -23.828)" fill="#fff"/>
        <path id="패스_6810" data-name="패스 6810" d="M172.707,58.631l-.06.185c-.089-.081-.173-.165-.262-.25.1-.052.214-.1.318-.153Z" transform="translate(-138.118 -23.643)" fill="#fff"/>
        <path id="패스_6811" data-name="패스 6811" d="M172.923,58.746l-.455-.052,0-.218.177-.085Z" transform="translate(-137.879 -23.706)" fill="#fff"/>
        <path id="패스_6812" data-name="패스 6812" d="M172.607,58.8l-.157-.149.06-.185.455.052Z" transform="translate(-137.921 -23.479)" fill="#fff"/>
      </g>
      <path id="패스_6813" data-name="패스 6813" d="M183.4,68.188a3.653,3.653,0,1,0-4.931,1.543A3.653,3.653,0,0,0,183.4,68.188Z" transform="translate(-120.561 -5.179)" fill="#fff" opacity="0.2"/>
    </g>
  </g>
</svg>
