<svg xmlns="http://www.w3.org/2000/svg" width="77.465" height="75.483" viewBox="0 0 77.465 75.483">
  <g id="vector_flower_w_-p-b" data-name="vector_flower(w)-p-b" transform="matrix(0.883, 0.469, -0.469, 0.883, -872.065, -1256.238)">
    <path id="패스_7829" data-name="패스 7829" d="M1453.344,732.792a38.472,38.472,0,0,0-3.355-4.516c-1.258-1.419-2.713-2.646-4.889-1.711a3.244,3.244,0,0,1-1.332.043c-2.74-.113-4.811,1.286-6.515,3.166a14.665,14.665,0,0,0-3.632,7.632c-.667,4.056,2.18,6.789,4.982,6.85a32.905,32.905,0,0,1,5.538.576,9.95,9.95,0,0,0,2.675.072c4.092-.343,7.5-4.389,7.165-8.964A3.737,3.737,0,0,0,1453.344,732.792Z" transform="translate(-28.258 -21.138)" fill="#fff"/>
    <path id="패스_7830" data-name="패스 7830" d="M1440.061,717.243a4.7,4.7,0,0,0-2.3-3.182,1.536,1.536,0,0,0-.959-1.1c-.519-.581-1.009-1.193-1.567-1.733a1.931,1.931,0,0,1-.63-1.373,8.287,8.287,0,0,0,2.7-3.254h0c1.991-1.886,2.348-4.26,2.106-6.846-.16-1.715-.419-3.4-1.759-4.61a17.918,17.918,0,0,0-3.03-2.148,4.505,4.505,0,0,0-3.335-.645,3.868,3.868,0,0,1-1.843-.088,7.161,7.161,0,0,0-3.43.188,12.6,12.6,0,0,0-5.419,2.761,16.329,16.329,0,0,1-1.659,1.336.764.764,0,0,1-1.161-.22,14.534,14.534,0,0,0-2.69-3.175,2.12,2.12,0,0,0-1.492-1.187,10.331,10.331,0,0,0-4.163-2.78c-1.741-.59-3.485-1.425-5.383-1.331a28.672,28.672,0,0,0-7.642,1.038,5.756,5.756,0,0,1-3.314,1.013h0a13.761,13.761,0,0,0-6.414,5.426,5.416,5.416,0,0,0-.957,2.194c-.422,3.98.223,7.684,3.409,10.485,2.2,1.938,4.5,3.768,6.746,5.66.094.079.061.308.088.474a2.9,2.9,0,0,1-1.606.875,6,6,0,0,0-1.835,1.053c-1.21,1.016-2.573,1.851-3.761,2.89a21.053,21.053,0,0,0-4.941,6.274,17.692,17.692,0,0,0-1.524,9.68,5.529,5.529,0,0,0,1.9,3.731,10.345,10.345,0,0,0,2.929,1.852,21.915,21.915,0,0,0,8.911,1.5,24.754,24.754,0,0,1,3.462-.211,29.351,29.351,0,0,0,3.969.034,7.3,7.3,0,0,0,4.991-1.627c1.46-1.285,3.172-2.308,4.2-4.089a18.6,18.6,0,0,1,2.221-2.661c.56-.647.937-.723,1.615-.31a12.2,12.2,0,0,1,1.331.9,10.085,10.085,0,0,0,4.637,1.982,15.767,15.767,0,0,1,1.849.317,6.549,6.549,0,0,0,5.416-.589,2.42,2.42,0,0,0,2.114-1.089h0a17.981,17.981,0,0,0,4.854-3.255,10.716,10.716,0,0,0,4.073-6.393C1441.223,722.382,1441.533,719.719,1440.061,717.243Zm-21.5,6.523a9.954,9.954,0,0,1-2.675-.072,32.889,32.889,0,0,0-5.538-.576c-2.8-.062-5.649-2.794-4.982-6.85a14.663,14.663,0,0,1,3.632-7.632c1.7-1.88,3.775-3.279,6.515-3.166a3.244,3.244,0,0,0,1.332-.043c2.176-.935,3.632.292,4.889,1.711a38.457,38.457,0,0,1,3.355,4.516,3.736,3.736,0,0,1,.637,3.149C1426.053,719.377,1422.65,723.424,1418.558,723.766Z" transform="translate(0 0)" fill="#ff9c7c"/>
  </g>
</svg>
