<svg xmlns="http://www.w3.org/2000/svg" xmlns:xlink="http://www.w3.org/1999/xlink" width="114" height="114" viewBox="0 0 114 114">
  <defs>
    <filter id="illust." x="0" y="0" width="114" height="114" filterUnits="userSpaceOnUse">
      <feOffset dx="3" dy="3" input="SourceAlpha"/>
      <feGaussianBlur stdDeviation="2.5" result="blur"/>
      <feFlood flood-opacity="0.161"/>
      <feComposite operator="in" in2="blur"/>
      <feComposite in="SourceGraphic"/>
    </filter>
  </defs>
  <g id="그룹_1352" data-name="그룹 1352" transform="translate(-1343.5 -957.5)">
    <g transform="matrix(1, 0, 0, 1, 1343.5, 957.5)" filter="url(#illust.)">
      <path id="illust.-2" data-name="illust." d="M49.5,0A49.5,49.5,0,1,1,0,49.5,49.5,49.5,0,0,1,49.5,0Z" transform="translate(4.5 4.5)" fill="#fff"/>
    </g>
    <g id="그룹_554" data-name="그룹 554" transform="translate(-1629.647 -2555.574)">
      <path id="패스_3523" data-name="패스 3523" d="M3056.937,3598.729h-64.465v-34.218l32.393-28.863,32.072,28.863Z" fill="#ffc500" stroke="#1a1311" stroke-linecap="round" stroke-linejoin="round" stroke-width="1.698"/>
      <rect id="사각형_110" data-name="사각형 110" width="49.441" height="41.138" transform="translate(2999.857 3541.74)" fill="#fff" stroke="#1a1311" stroke-linecap="round" stroke-linejoin="round" stroke-width="1.698"/>
      <path id="패스_3524" data-name="패스 3524" d="M3056.937,3598.729h-64.465v-34.218l32.232,16.1,32.232-16.1Z" fill="#ffc500" stroke="#1a1311" stroke-linecap="round" stroke-linejoin="round" stroke-width="1.698"/>
      <path id="패스_3525" data-name="패스 3525" d="M3053.436,3529.876a15.848,15.848,0,0,0-13.692,23.834l-3.844,10.416,9.327-4.837a15.852,15.852,0,1,0,8.209-29.413Z" fill="#5da71e" stroke="#1a1311" stroke-linecap="round" stroke-linejoin="round" stroke-width="1.698"/>
      <g id="그룹_553" data-name="그룹 553">
        <circle id="타원_161" data-name="타원 161" cx="1.783" cy="1.783" r="1.783" transform="translate(3043.628 3544.787)" fill="#fff"/>
        <circle id="타원_162" data-name="타원 162" cx="1.783" cy="1.783" r="1.783" transform="translate(3050.811 3544.787)" fill="#fff"/>
        <circle id="타원_163" data-name="타원 163" cx="1.783" cy="1.783" r="1.783" transform="translate(3057.993 3544.787)" fill="#fff"/>
      </g>
    </g>
  </g>
</svg>
