<svg xmlns="http://www.w3.org/2000/svg" xmlns:xlink="http://www.w3.org/1999/xlink" width="114" height="114" viewBox="0 0 114 114">
  <defs>
    <filter id="illust." x="0" y="0" width="114" height="114" filterUnits="userSpaceOnUse">
      <feOffset dx="3" dy="3" input="SourceAlpha"/>
      <feGaussianBlur stdDeviation="2.5" result="blur"/>
      <feFlood flood-opacity="0.161"/>
      <feComposite operator="in" in2="blur"/>
      <feComposite in="SourceGraphic"/>
    </filter>
  </defs>
  <g id="그룹_1349" data-name="그룹 1349" transform="translate(-295.5 -957.5)">
    <g transform="matrix(1, 0, 0, 1, 295.5, 957.5)" filter="url(#illust.)">
      <path id="illust.-2" data-name="illust." d="M49.5,0A49.5,49.5,0,1,1,0,49.5,49.5,49.5,0,0,1,49.5,0Z" transform="translate(4.5 4.5)" fill="#fff"/>
    </g>
    <g id="그룹_538" data-name="그룹 538" transform="translate(-2927.971 -2545.482)">
      <g id="그룹_536" data-name="그룹 536" transform="translate(3255.284 3527.092)">
        <path id="패스_3473" data-name="패스 3473" d="M3295.917,3556.682V3543.72a16.678,16.678,0,0,0-16.629-16.628h-.384a16.677,16.677,0,0,0-16.628,16.628v13.074a6.384,6.384,0,0,0,1.077,12.625v.013h31.487v-.026c.172.014.346.026.522.026a6.388,6.388,0,0,0,.556-12.751Z" transform="translate(-3257.216 -3527.092)" fill="#696767" stroke="#1a1311" stroke-linecap="round" stroke-linejoin="round" stroke-width="1.698"/>
        <path id="패스_3474" data-name="패스 3474" d="M3298.4,3594.907v-10.854a10.192,10.192,0,0,0-10.162-10.162h-15.551a10.192,10.192,0,0,0-10.162,10.162v10.854Z" transform="translate(-3258.193 -3535.708)" fill="#fff" stroke="#1a1311" stroke-linecap="round" stroke-linejoin="round" stroke-width="1.698"/>
        <rect id="사각형_102" data-name="사각형 102" width="8.853" height="7.929" rx="3.965" transform="translate(17.841 33.796)" fill="#fad1c2" stroke="#1a1311" stroke-linecap="round" stroke-linejoin="round" stroke-width="1.698"/>
        <path id="패스_3475" data-name="패스 3475" d="M3293.865,3586.892a39.174,39.174,0,0,1-17.653-6.515,6.5,6.5,0,0,0-6.072,8.863h0s.4,3.379,11.747,12.441c0,0,10.792-8.807,11.543-12.441h-.007A6.48,6.48,0,0,0,3293.865,3586.892Z" transform="translate(-3259.514 -3536.901)" fill="#ffc500" stroke="#1a1311" stroke-linecap="round" stroke-linejoin="round" stroke-width="1.698"/>
        <circle id="타원_147" data-name="타원 147" cx="3.955" cy="3.955" r="3.955" transform="translate(7.129 52.762)" fill="#fad1c2" stroke="#1a1311" stroke-linecap="round" stroke-linejoin="round" stroke-width="1.698"/>
        <circle id="타원_148" data-name="타원 148" cx="3.955" cy="3.955" r="3.955" transform="translate(30.022 52.762)" fill="#fad1c2" stroke="#1a1311" stroke-linecap="round" stroke-linejoin="round" stroke-width="1.698"/>
        <rect id="사각형_103" data-name="사각형 103" width="25.476" height="30.639" rx="12.738" transform="translate(9.529 6.082)" fill="#fad1c2" stroke="#1a1311" stroke-linecap="round" stroke-linejoin="round" stroke-width="1.698"/>
        <g id="그룹_533" data-name="그룹 533" transform="translate(6.811 2.232)">
          <path id="패스_3476" data-name="패스 3476" d="M3275.78,3536.619a6.141,6.141,0,0,1,.042.716c0,1.886-3.464,6.89-7.737,6.89l-2.521-2.579,12.337-11.817,12.318,3.849,5.37,8.545-1.635,2.52c-7.276,0-15.634-3.342-18.173-8.124" transform="translate(-3265.564 -3529.828)" fill="#696767"/>
        </g>
        <g id="그룹_535" data-name="그룹 535" transform="translate(9.332 9.023)">
          <g id="그룹_534" data-name="그룹 534">
            <path id="패스_3477" data-name="패스 3477" d="M3276.349,3538.151a6.145,6.145,0,0,1,.042.716c0,1.885-3.464,6.889-7.737,6.889" transform="translate(-3268.654 -3538.151)" fill="none" stroke="#1a1311" stroke-linecap="round" stroke-linejoin="round" stroke-width="1.698"/>
            <path id="패스_3478" data-name="패스 3478" d="M3296.258,3546.275c-7.276,0-15.634-3.342-18.173-8.124" transform="translate(-3270.39 -3538.151)" fill="none" stroke="#1a1311" stroke-linecap="round" stroke-linejoin="round" stroke-width="1.698"/>
          </g>
        </g>
      </g>
      <g id="그룹_537" data-name="그룹 537" transform="translate(3270.238 3548.494)">
        <circle id="타원_149" data-name="타원 149" cx="1.193" cy="1.193" r="1.193" fill="#1a1311"/>
        <circle id="타원_150" data-name="타원 150" cx="1.193" cy="1.193" r="1.193" transform="translate(12.24)" fill="#1a1311"/>
      </g>
      <path id="패스_3479" data-name="패스 3479" d="M3280.233,3562.757a3.965,3.965,0,0,0,6.976,0" transform="translate(-6.169 -6.566)" fill="none" stroke="#000" stroke-linecap="round" stroke-linejoin="round" stroke-width="1.698"/>
      <line id="선_26" data-name="선 26" y2="3.233" transform="translate(3277.551 3550.88)" fill="none" stroke="#000" stroke-linecap="round" stroke-linejoin="round" stroke-width="1.698"/>
      <path id="패스_3480" data-name="패스 3480" d="M3324.062,3553.693a20.012,20.012,0,0,1-7.127-6.454,3.325,3.325,0,0,0-4.568,3.044h0s-.455,1.678,3.2,8.139c0,0,6.794-2.119,7.844-3.7l0,0A3.32,3.32,0,0,0,3324.062,3553.693Z" transform="translate(-12.081 -3.665)" fill="#dd0031" stroke="#000" stroke-linecap="round" stroke-linejoin="round" stroke-width="1.698"/>
      <path id="패스_3481" data-name="패스 3481" d="M3253.675,3551.725a12.118,12.118,0,0,1-5.8.516,2.012,2.012,0,0,0-.525,3.282h0s.559.893,4.933,1.925c0,0,1.852-3.893,1.581-5.009h0A2.019,2.019,0,0,0,3253.675,3551.725Z" transform="translate(0 -4.322)" fill="#dd0031" stroke="#000" stroke-linecap="round" stroke-linejoin="round" stroke-width="1.698"/>
    </g>
  </g>
</svg>
